M48
; DRILL file KiCad 10.0.6-10.0.6~ubuntu26.04.1 date 2026-10-03T10:34:17
; FORMAT={-:-/ absolute / metric / decimal}
; #@! TF.CreationDate,2026-10-03T10:34:17+02:00
; #@! TF.GenerationSoftware,Kicad,Pcbnew,10.0.6-10.0.6~ubuntu26.04.1
; #@! TF.FileFunction,Plated,1,4,PTH
FMAT,2
METRIC
; #@! TA.AperFunction,Plated,PTH,ViaDrill
T1C0.300
; #@! TA.AperFunction,Plated,PTH,ComponentDrill
T2C0.800
%
G90
G05
T1
X129.375Y-115.381
X129.494Y-118.678
X129.566Y-100.173
X130.014Y-109.55
X141.335Y-103.25
X141.335Y-105.25
X141.9Y-89.375
X143.15Y-105.25
X144.582Y-113.0
X144.585Y-108.761
X144.627Y-111.898
X145.25Y-102.75
X145.25Y-103.75
X145.25Y-104.75
X145.25Y-106.75
X145.6Y-93.487
X146.233Y-109.416
X146.25Y-104.75
X146.829Y-100.94
X146.9Y-117.175
X147.24Y-111.66
X147.25Y-103.75
X147.25Y-104.75
X147.25Y-105.75
X147.25Y-106.75
X147.694Y-117.573
X147.75Y-91.991
X148.2Y-113.35
X148.229Y-119.715
X148.25Y-103.75
X148.25Y-104.75
X148.25Y-105.75
X148.25Y-106.75
X148.298Y-109.814
X148.6Y-116.95
X148.878Y-99.063
X149.25Y-100.615
X149.25Y-103.75
X149.25Y-104.75
X149.25Y-106.75
X149.3Y-89.375
X149.75Y-113.35
X149.921Y-99.757
X150.25Y-104.75
X150.25Y-105.75
X150.25Y-106.75
X150.25Y-107.75
X150.75Y-109.366
X150.876Y-99.009
X151.25Y-102.75
X151.651Y-109.29
X151.803Y-98.867
X152.25Y-92.537
X152.25Y-104.75
X152.25Y-106.75
X153.427Y-109.102
X153.462Y-100.2
X154.291Y-109.909
X154.335Y-105.5
X154.343Y-100.725
X155.198Y-102.87
X155.516Y-105.632
X156.165Y-104.25
X156.165Y-107.25
X159.185Y-106.404
X162.248Y-106.155
X162.709Y-109.06
X164.365Y-105.058
X164.898Y-103.313
X165.34Y-107.017
X165.969Y-106.794
X166.668Y-107.488
T2
X126.5Y-92.0
X126.5Y-94.0
X126.5Y-96.0
X126.5Y-98.0
X126.5Y-100.0
X126.5Y-102.0
X126.5Y-104.0
X126.5Y-106.0
X126.5Y-108.0
X126.5Y-110.0
X126.5Y-112.0
X126.5Y-114.0
X126.5Y-116.0
X126.5Y-118.0
X128.5Y-92.0
X128.5Y-94.0
X128.5Y-96.0
X128.5Y-98.0
X128.5Y-100.0
X128.5Y-102.0
X128.5Y-104.0
X128.5Y-106.0
X128.5Y-108.0
X128.5Y-110.0
X128.5Y-112.0
X128.5Y-114.0
X128.5Y-116.0
X128.5Y-118.0
X168.5Y-92.0
X168.5Y-94.0
X168.5Y-96.0
X168.5Y-98.0
X168.5Y-100.0
X168.5Y-102.0
X168.5Y-104.0
X168.5Y-106.0
X168.5Y-108.0
X168.5Y-110.0
X168.5Y-112.0
X168.5Y-114.0
X168.5Y-116.0
X168.5Y-118.0
X170.5Y-92.0
X170.5Y-94.0
X170.5Y-96.0
X170.5Y-98.0
X170.5Y-100.0
X170.5Y-102.0
X170.5Y-104.0
X170.5Y-106.0
X170.5Y-108.0
X170.5Y-110.0
X170.5Y-112.0
X170.5Y-114.0
X170.5Y-116.0
X170.5Y-118.0
M30
