%TF.GenerationSoftware,KiCad,Pcbnew,10.0.6-10.0.6~ubuntu26.04.1*%
%TF.CreationDate,2026-09-30T21:19:09+02:00*%
%TF.ProjectId,flashcat_p30,666c6173-6863-4617-945f-7033302e6b69,B*%
%TF.SameCoordinates,Original*%
%TF.FileFunction,Soldermask,Bot*%
%TF.FilePolarity,Negative*%
%FSLAX46Y46*%
G04 Gerber Fmt 4.6, Leading zero omitted, Abs format (unit mm)*
G04 Created by KiCad (PCBNEW 10.0.6-10.0.6~ubuntu26.04.1) date 2026-09-30 21:19:09*
%MOMM*%
%LPD*%
G01*
G04 APERTURE LIST*
G04 Aperture macros list*
%AMRoundRect*
0 Rectangle with rounded corners*
0 $1 Rounding radius*
0 $2 $3 $4 $5 $6 $7 $8 $9 X,Y pos of 4 corners*
0 Add a 4 corners polygon primitive as box body*
4,1,4,$2,$3,$4,$5,$6,$7,$8,$9,$2,$3,0*
0 Add four circle primitives for the rounded corners*
1,1,$1+$1,$2,$3*
1,1,$1+$1,$4,$5*
1,1,$1+$1,$6,$7*
1,1,$1+$1,$8,$9*
0 Add four rect primitives between the rounded corners*
20,1,$1+$1,$2,$3,$4,$5,0*
20,1,$1+$1,$4,$5,$6,$7,0*
20,1,$1+$1,$6,$7,$8,$9,0*
20,1,$1+$1,$8,$9,$2,$3,0*%
G04 Aperture macros list end*
%ADD10C,2.100000*%
%ADD11R,0.600000X0.600000*%
%ADD12C,0.600000*%
%ADD13RoundRect,0.225000X-0.250000X0.225000X-0.250000X-0.225000X0.250000X-0.225000X0.250000X0.225000X0*%
%ADD14RoundRect,0.225000X0.250000X-0.225000X0.250000X0.225000X-0.250000X0.225000X-0.250000X-0.225000X0*%
%ADD15RoundRect,0.200000X0.275000X-0.200000X0.275000X0.200000X-0.275000X0.200000X-0.275000X-0.200000X0*%
%ADD16RoundRect,0.150000X0.150000X-0.512500X0.150000X0.512500X-0.150000X0.512500X-0.150000X-0.512500X0*%
%ADD17RoundRect,0.225000X-0.225000X-0.250000X0.225000X-0.250000X0.225000X0.250000X-0.225000X0.250000X0*%
%ADD18RoundRect,0.225000X0.225000X0.250000X-0.225000X0.250000X-0.225000X-0.250000X0.225000X-0.250000X0*%
%ADD19R,1.350000X1.350000*%
%ADD20C,1.350000*%
G04 APERTURE END LIST*
D10*
%TO.C,U1*%
X156500000Y-113000000D03*
X155500000Y-97000000D03*
X140500000Y-113000000D03*
X140500000Y-97000000D03*
D11*
X151910000Y-101590000D03*
D12*
X151910000Y-102590000D03*
X151910000Y-103590000D03*
X151910000Y-104590000D03*
X151910000Y-105590000D03*
X151910000Y-106590000D03*
X151910000Y-107590000D03*
X151910000Y-108590000D03*
X150910000Y-101590000D03*
X150910000Y-102590000D03*
X150910000Y-103590000D03*
X150910000Y-104590000D03*
X150910000Y-105590000D03*
X150910000Y-106590000D03*
X150910000Y-107590000D03*
X150910000Y-108590000D03*
X149910000Y-101590000D03*
X149910000Y-102590000D03*
X149910000Y-103590000D03*
X149910000Y-104590000D03*
X149910000Y-105590000D03*
X149910000Y-106590000D03*
X149910000Y-107590000D03*
X149910000Y-108590000D03*
X148910000Y-101590000D03*
X148910000Y-102590000D03*
X148910000Y-103590000D03*
X148910000Y-104590000D03*
X148910000Y-105590000D03*
X148910000Y-106590000D03*
X148910000Y-107590000D03*
X148910000Y-108590000D03*
X147910000Y-101590000D03*
X147910000Y-102590000D03*
X147910000Y-103590000D03*
X147910000Y-104590000D03*
X147910000Y-105590000D03*
X147910000Y-106590000D03*
X147910000Y-107590000D03*
X147910000Y-108590000D03*
X146910000Y-101590000D03*
X146910000Y-102590000D03*
X146910000Y-103590000D03*
X146910000Y-104590000D03*
X146910000Y-105590000D03*
X146910000Y-106590000D03*
X146910000Y-107590000D03*
X146910000Y-108590000D03*
X145910000Y-101590000D03*
X145910000Y-102590000D03*
X145910000Y-103590000D03*
X145910000Y-104590000D03*
X145910000Y-105590000D03*
X145910000Y-106590000D03*
X145910000Y-107590000D03*
X145910000Y-108590000D03*
X144910000Y-101590000D03*
X144910000Y-102590000D03*
X144910000Y-103590000D03*
X144910000Y-104590000D03*
X144910000Y-105590000D03*
X144910000Y-106590000D03*
X144910000Y-107590000D03*
X144910000Y-108590000D03*
%TD*%
D13*
%TO.C,C4*%
X147860000Y-110690000D03*
X147860000Y-112240000D03*
%TD*%
%TO.C,C7*%
X149410000Y-110690000D03*
X149410000Y-112240000D03*
%TD*%
D14*
%TO.C,C2*%
X144100000Y-90575000D03*
X144100000Y-89025000D03*
%TD*%
D15*
%TO.C,R1*%
X144700000Y-121025000D03*
X144700000Y-119375000D03*
%TD*%
D16*
%TO.C,U2*%
X141250000Y-90937500D03*
X140300000Y-90937500D03*
X139350000Y-90937500D03*
X139350000Y-88662500D03*
X141250000Y-88662500D03*
%TD*%
D14*
%TO.C,C1*%
X136500000Y-90575000D03*
X136500000Y-89025000D03*
%TD*%
D17*
%TO.C,C5*%
X153325000Y-107090000D03*
X154875000Y-107090000D03*
%TD*%
D18*
%TO.C,C6*%
X143495000Y-103090000D03*
X141945000Y-103090000D03*
%TD*%
D19*
%TO.C,J1*%
X128500000Y-92000000D03*
D20*
X126500000Y-92000000D03*
X128500000Y-94000000D03*
X126500000Y-94000000D03*
X128500000Y-96000000D03*
X126500000Y-96000000D03*
X128500000Y-98000000D03*
X126500000Y-98000000D03*
X128500000Y-100000000D03*
X126500000Y-100000000D03*
X128500000Y-102000000D03*
X126500000Y-102000000D03*
X128500000Y-104000000D03*
X126500000Y-104000000D03*
X128500000Y-106000000D03*
X126500000Y-106000000D03*
X128500000Y-108000000D03*
X126500000Y-108000000D03*
X128500000Y-110000000D03*
X126500000Y-110000000D03*
X128500000Y-112000000D03*
X126500000Y-112000000D03*
X128500000Y-114000000D03*
X126500000Y-114000000D03*
X128500000Y-116000000D03*
X126500000Y-116000000D03*
X128500000Y-118000000D03*
X126500000Y-118000000D03*
%TD*%
D14*
%TO.C,C9*%
X146900000Y-120975000D03*
X146900000Y-119425000D03*
%TD*%
D17*
%TO.C,C3*%
X153325000Y-104090000D03*
X154875000Y-104090000D03*
%TD*%
D18*
%TO.C,C8*%
X143495000Y-105090000D03*
X141945000Y-105090000D03*
%TD*%
D19*
%TO.C,J2*%
X170500000Y-92000000D03*
D20*
X168500000Y-92000000D03*
X170500000Y-94000000D03*
X168500000Y-94000000D03*
X170500000Y-96000000D03*
X168500000Y-96000000D03*
X170500000Y-98000000D03*
X168500000Y-98000000D03*
X170500000Y-100000000D03*
X168500000Y-100000000D03*
X170500000Y-102000000D03*
X168500000Y-102000000D03*
X170500000Y-104000000D03*
X168500000Y-104000000D03*
X170500000Y-106000000D03*
X168500000Y-106000000D03*
X170500000Y-108000000D03*
X168500000Y-108000000D03*
X170500000Y-110000000D03*
X168500000Y-110000000D03*
X170500000Y-112000000D03*
X168500000Y-112000000D03*
X170500000Y-114000000D03*
X168500000Y-114000000D03*
X170500000Y-116000000D03*
X168500000Y-116000000D03*
X170500000Y-118000000D03*
X168500000Y-118000000D03*
%TD*%
D15*
%TO.C,R2*%
X149100000Y-121025000D03*
X149100000Y-119375000D03*
%TD*%
M02*
