%TF.GenerationSoftware,KiCad,Pcbnew,10.0.6-10.0.6~ubuntu26.04.1*%
%TF.CreationDate,2026-10-02T21:59:33+02:00*%
%TF.ProjectId,flashcat_p30,666c6173-6863-4617-945f-7033302e6b69,C*%
%TF.SameCoordinates,Original*%
%TF.FileFunction,Drillmap*%
%TF.FilePolarity,Positive*%
%FSLAX45Y45*%
G04 Gerber Fmt 4.5, Leading zero omitted, Abs format (unit mm)*
G04 Created by KiCad (PCBNEW 10.0.6-10.0.6~ubuntu26.04.1) date 2026-10-02 21:59:33*
%MOMM*%
%LPD*%
G01*
G04 APERTURE LIST*
%ADD10C,0.100000*%
%ADD11C,0.200000*%
%ADD12C,0.147500*%
%ADD13C,0.177500*%
G04 APERTURE END LIST*
D10*
X12300000Y-8950000D02*
G75*
G02*
X12400000Y-8850000I100000J0D01*
G01*
X12300000Y-12050000D02*
X12300000Y-8950000D01*
X12400000Y-8850000D02*
X17300000Y-8850000D01*
X12400000Y-12150000D02*
G75*
G02*
X12300000Y-12050000I0J100000D01*
G01*
X17300000Y-8850000D02*
G75*
G02*
X17400000Y-8950000I0J-100000D01*
G01*
X17300000Y-12150000D02*
X12400000Y-12150000D01*
X17400000Y-8950000D02*
X17400000Y-12050000D01*
X17400000Y-12050000D02*
G75*
G02*
X17300000Y-12150000I-100000J0D01*
G01*
D11*
D12*
X14216250Y-9426250D02*
X14363750Y-9573750D01*
X14363750Y-9426250D02*
X14216250Y-9573750D01*
X14216250Y-11426250D02*
X14363750Y-11573750D01*
X14363750Y-11426250D02*
X14216250Y-11573750D01*
X15336250Y-11426250D02*
X15483750Y-11573750D01*
X15483750Y-11426250D02*
X15336250Y-11573750D01*
D13*
X15498750Y-9500000D02*
G75*
G02*
X15321250Y-9500000I-88750J0D01*
G01*
X15321250Y-9500000D02*
G75*
G02*
X15498750Y-9500000I88750J0D01*
G01*
D11*
X13790000Y-9290000D02*
X13790000Y-9490000D01*
X13690000Y-9390000D02*
X13890000Y-9390000D01*
X13790000Y-11510000D02*
X13790000Y-11710000D01*
X13690000Y-11610000D02*
X13890000Y-11610000D01*
X15910000Y-9290000D02*
X15910000Y-9490000D01*
X15810000Y-9390000D02*
X16010000Y-9390000D01*
X15910000Y-11510000D02*
X15910000Y-11710000D01*
X15810000Y-11610000D02*
X16010000Y-11610000D01*
X12555777Y-12466484D02*
X12555777Y-12266484D01*
X12555777Y-12266484D02*
X12603396Y-12266484D01*
X12603396Y-12266484D02*
X12631967Y-12276008D01*
X12631967Y-12276008D02*
X12651015Y-12295055D01*
X12651015Y-12295055D02*
X12660539Y-12314103D01*
X12660539Y-12314103D02*
X12670062Y-12352198D01*
X12670062Y-12352198D02*
X12670062Y-12380769D01*
X12670062Y-12380769D02*
X12660539Y-12418865D01*
X12660539Y-12418865D02*
X12651015Y-12437912D01*
X12651015Y-12437912D02*
X12631967Y-12456960D01*
X12631967Y-12456960D02*
X12603396Y-12466484D01*
X12603396Y-12466484D02*
X12555777Y-12466484D01*
X12755777Y-12466484D02*
X12755777Y-12333150D01*
X12755777Y-12371246D02*
X12765301Y-12352198D01*
X12765301Y-12352198D02*
X12774824Y-12342674D01*
X12774824Y-12342674D02*
X12793872Y-12333150D01*
X12793872Y-12333150D02*
X12812920Y-12333150D01*
X12879586Y-12466484D02*
X12879586Y-12333150D01*
X12879586Y-12266484D02*
X12870062Y-12276008D01*
X12870062Y-12276008D02*
X12879586Y-12285531D01*
X12879586Y-12285531D02*
X12889110Y-12276008D01*
X12889110Y-12276008D02*
X12879586Y-12266484D01*
X12879586Y-12266484D02*
X12879586Y-12285531D01*
X13003396Y-12466484D02*
X12984348Y-12456960D01*
X12984348Y-12456960D02*
X12974824Y-12437912D01*
X12974824Y-12437912D02*
X12974824Y-12266484D01*
X13108158Y-12466484D02*
X13089110Y-12456960D01*
X13089110Y-12456960D02*
X13079586Y-12437912D01*
X13079586Y-12437912D02*
X13079586Y-12266484D01*
X13336729Y-12466484D02*
X13336729Y-12266484D01*
X13336729Y-12266484D02*
X13403396Y-12409341D01*
X13403396Y-12409341D02*
X13470062Y-12266484D01*
X13470062Y-12266484D02*
X13470062Y-12466484D01*
X13651015Y-12466484D02*
X13651015Y-12361722D01*
X13651015Y-12361722D02*
X13641491Y-12342674D01*
X13641491Y-12342674D02*
X13622443Y-12333150D01*
X13622443Y-12333150D02*
X13584348Y-12333150D01*
X13584348Y-12333150D02*
X13565301Y-12342674D01*
X13651015Y-12456960D02*
X13631967Y-12466484D01*
X13631967Y-12466484D02*
X13584348Y-12466484D01*
X13584348Y-12466484D02*
X13565301Y-12456960D01*
X13565301Y-12456960D02*
X13555777Y-12437912D01*
X13555777Y-12437912D02*
X13555777Y-12418865D01*
X13555777Y-12418865D02*
X13565301Y-12399817D01*
X13565301Y-12399817D02*
X13584348Y-12390293D01*
X13584348Y-12390293D02*
X13631967Y-12390293D01*
X13631967Y-12390293D02*
X13651015Y-12380769D01*
X13746253Y-12333150D02*
X13746253Y-12533150D01*
X13746253Y-12342674D02*
X13765301Y-12333150D01*
X13765301Y-12333150D02*
X13803396Y-12333150D01*
X13803396Y-12333150D02*
X13822443Y-12342674D01*
X13822443Y-12342674D02*
X13831967Y-12352198D01*
X13831967Y-12352198D02*
X13841491Y-12371246D01*
X13841491Y-12371246D02*
X13841491Y-12428388D01*
X13841491Y-12428388D02*
X13831967Y-12447436D01*
X13831967Y-12447436D02*
X13822443Y-12456960D01*
X13822443Y-12456960D02*
X13803396Y-12466484D01*
X13803396Y-12466484D02*
X13765301Y-12466484D01*
X13765301Y-12466484D02*
X13746253Y-12456960D01*
X13927205Y-12447436D02*
X13936729Y-12456960D01*
X13936729Y-12456960D02*
X13927205Y-12466484D01*
X13927205Y-12466484D02*
X13917682Y-12456960D01*
X13917682Y-12456960D02*
X13927205Y-12447436D01*
X13927205Y-12447436D02*
X13927205Y-12466484D01*
X13927205Y-12342674D02*
X13936729Y-12352198D01*
X13936729Y-12352198D02*
X13927205Y-12361722D01*
X13927205Y-12361722D02*
X13917682Y-12352198D01*
X13917682Y-12352198D02*
X13927205Y-12342674D01*
X13927205Y-12342674D02*
X13927205Y-12361722D01*
D12*
X12147500Y-12721250D02*
X12295000Y-12868750D01*
X12295000Y-12721250D02*
X12147500Y-12868750D01*
D11*
X12660539Y-12886484D02*
X12546253Y-12886484D01*
X12603396Y-12886484D02*
X12603396Y-12686484D01*
X12603396Y-12686484D02*
X12584348Y-12715055D01*
X12584348Y-12715055D02*
X12565301Y-12734103D01*
X12565301Y-12734103D02*
X12546253Y-12743627D01*
X12746253Y-12867436D02*
X12755777Y-12876960D01*
X12755777Y-12876960D02*
X12746253Y-12886484D01*
X12746253Y-12886484D02*
X12736729Y-12876960D01*
X12736729Y-12876960D02*
X12746253Y-12867436D01*
X12746253Y-12867436D02*
X12746253Y-12886484D01*
X12927205Y-12753150D02*
X12927205Y-12886484D01*
X12879586Y-12676960D02*
X12831967Y-12819817D01*
X12831967Y-12819817D02*
X12955777Y-12819817D01*
X13012920Y-12686484D02*
X13146253Y-12686484D01*
X13146253Y-12686484D02*
X13060539Y-12886484D01*
X13317682Y-12686484D02*
X13222443Y-12686484D01*
X13222443Y-12686484D02*
X13212920Y-12781722D01*
X13212920Y-12781722D02*
X13222443Y-12772198D01*
X13222443Y-12772198D02*
X13241491Y-12762674D01*
X13241491Y-12762674D02*
X13289110Y-12762674D01*
X13289110Y-12762674D02*
X13308158Y-12772198D01*
X13308158Y-12772198D02*
X13317682Y-12781722D01*
X13317682Y-12781722D02*
X13327205Y-12800769D01*
X13327205Y-12800769D02*
X13327205Y-12848388D01*
X13327205Y-12848388D02*
X13317682Y-12867436D01*
X13317682Y-12867436D02*
X13308158Y-12876960D01*
X13308158Y-12876960D02*
X13289110Y-12886484D01*
X13289110Y-12886484D02*
X13241491Y-12886484D01*
X13241491Y-12886484D02*
X13222443Y-12876960D01*
X13222443Y-12876960D02*
X13212920Y-12867436D01*
X13412920Y-12886484D02*
X13412920Y-12753150D01*
X13412920Y-12772198D02*
X13422443Y-12762674D01*
X13422443Y-12762674D02*
X13441491Y-12753150D01*
X13441491Y-12753150D02*
X13470063Y-12753150D01*
X13470063Y-12753150D02*
X13489110Y-12762674D01*
X13489110Y-12762674D02*
X13498634Y-12781722D01*
X13498634Y-12781722D02*
X13498634Y-12886484D01*
X13498634Y-12781722D02*
X13508158Y-12762674D01*
X13508158Y-12762674D02*
X13527205Y-12753150D01*
X13527205Y-12753150D02*
X13555777Y-12753150D01*
X13555777Y-12753150D02*
X13574824Y-12762674D01*
X13574824Y-12762674D02*
X13584348Y-12781722D01*
X13584348Y-12781722D02*
X13584348Y-12886484D01*
X13679586Y-12886484D02*
X13679586Y-12753150D01*
X13679586Y-12772198D02*
X13689110Y-12762674D01*
X13689110Y-12762674D02*
X13708158Y-12753150D01*
X13708158Y-12753150D02*
X13736729Y-12753150D01*
X13736729Y-12753150D02*
X13755777Y-12762674D01*
X13755777Y-12762674D02*
X13765301Y-12781722D01*
X13765301Y-12781722D02*
X13765301Y-12886484D01*
X13765301Y-12781722D02*
X13774824Y-12762674D01*
X13774824Y-12762674D02*
X13793872Y-12753150D01*
X13793872Y-12753150D02*
X13822443Y-12753150D01*
X13822443Y-12753150D02*
X13841491Y-12762674D01*
X13841491Y-12762674D02*
X13851015Y-12781722D01*
X13851015Y-12781722D02*
X13851015Y-12886484D01*
X14241491Y-12676960D02*
X14070063Y-12934103D01*
X14498634Y-12686484D02*
X14517682Y-12686484D01*
X14517682Y-12686484D02*
X14536729Y-12696008D01*
X14536729Y-12696008D02*
X14546253Y-12705531D01*
X14546253Y-12705531D02*
X14555777Y-12724579D01*
X14555777Y-12724579D02*
X14565301Y-12762674D01*
X14565301Y-12762674D02*
X14565301Y-12810293D01*
X14565301Y-12810293D02*
X14555777Y-12848388D01*
X14555777Y-12848388D02*
X14546253Y-12867436D01*
X14546253Y-12867436D02*
X14536729Y-12876960D01*
X14536729Y-12876960D02*
X14517682Y-12886484D01*
X14517682Y-12886484D02*
X14498634Y-12886484D01*
X14498634Y-12886484D02*
X14479586Y-12876960D01*
X14479586Y-12876960D02*
X14470063Y-12867436D01*
X14470063Y-12867436D02*
X14460539Y-12848388D01*
X14460539Y-12848388D02*
X14451015Y-12810293D01*
X14451015Y-12810293D02*
X14451015Y-12762674D01*
X14451015Y-12762674D02*
X14460539Y-12724579D01*
X14460539Y-12724579D02*
X14470063Y-12705531D01*
X14470063Y-12705531D02*
X14479586Y-12696008D01*
X14479586Y-12696008D02*
X14498634Y-12686484D01*
X14651015Y-12867436D02*
X14660539Y-12876960D01*
X14660539Y-12876960D02*
X14651015Y-12886484D01*
X14651015Y-12886484D02*
X14641491Y-12876960D01*
X14641491Y-12876960D02*
X14651015Y-12867436D01*
X14651015Y-12867436D02*
X14651015Y-12886484D01*
X14784348Y-12686484D02*
X14803396Y-12686484D01*
X14803396Y-12686484D02*
X14822444Y-12696008D01*
X14822444Y-12696008D02*
X14831967Y-12705531D01*
X14831967Y-12705531D02*
X14841491Y-12724579D01*
X14841491Y-12724579D02*
X14851015Y-12762674D01*
X14851015Y-12762674D02*
X14851015Y-12810293D01*
X14851015Y-12810293D02*
X14841491Y-12848388D01*
X14841491Y-12848388D02*
X14831967Y-12867436D01*
X14831967Y-12867436D02*
X14822444Y-12876960D01*
X14822444Y-12876960D02*
X14803396Y-12886484D01*
X14803396Y-12886484D02*
X14784348Y-12886484D01*
X14784348Y-12886484D02*
X14765301Y-12876960D01*
X14765301Y-12876960D02*
X14755777Y-12867436D01*
X14755777Y-12867436D02*
X14746253Y-12848388D01*
X14746253Y-12848388D02*
X14736729Y-12810293D01*
X14736729Y-12810293D02*
X14736729Y-12762674D01*
X14736729Y-12762674D02*
X14746253Y-12724579D01*
X14746253Y-12724579D02*
X14755777Y-12705531D01*
X14755777Y-12705531D02*
X14765301Y-12696008D01*
X14765301Y-12696008D02*
X14784348Y-12686484D01*
X15031967Y-12686484D02*
X14936729Y-12686484D01*
X14936729Y-12686484D02*
X14927206Y-12781722D01*
X14927206Y-12781722D02*
X14936729Y-12772198D01*
X14936729Y-12772198D02*
X14955777Y-12762674D01*
X14955777Y-12762674D02*
X15003396Y-12762674D01*
X15003396Y-12762674D02*
X15022444Y-12772198D01*
X15022444Y-12772198D02*
X15031967Y-12781722D01*
X15031967Y-12781722D02*
X15041491Y-12800769D01*
X15041491Y-12800769D02*
X15041491Y-12848388D01*
X15041491Y-12848388D02*
X15031967Y-12867436D01*
X15031967Y-12867436D02*
X15022444Y-12876960D01*
X15022444Y-12876960D02*
X15003396Y-12886484D01*
X15003396Y-12886484D02*
X14955777Y-12886484D01*
X14955777Y-12886484D02*
X14936729Y-12876960D01*
X14936729Y-12876960D02*
X14927206Y-12867436D01*
X15155777Y-12772198D02*
X15136729Y-12762674D01*
X15136729Y-12762674D02*
X15127206Y-12753150D01*
X15127206Y-12753150D02*
X15117682Y-12734103D01*
X15117682Y-12734103D02*
X15117682Y-12724579D01*
X15117682Y-12724579D02*
X15127206Y-12705531D01*
X15127206Y-12705531D02*
X15136729Y-12696008D01*
X15136729Y-12696008D02*
X15155777Y-12686484D01*
X15155777Y-12686484D02*
X15193872Y-12686484D01*
X15193872Y-12686484D02*
X15212920Y-12696008D01*
X15212920Y-12696008D02*
X15222444Y-12705531D01*
X15222444Y-12705531D02*
X15231967Y-12724579D01*
X15231967Y-12724579D02*
X15231967Y-12734103D01*
X15231967Y-12734103D02*
X15222444Y-12753150D01*
X15222444Y-12753150D02*
X15212920Y-12762674D01*
X15212920Y-12762674D02*
X15193872Y-12772198D01*
X15193872Y-12772198D02*
X15155777Y-12772198D01*
X15155777Y-12772198D02*
X15136729Y-12781722D01*
X15136729Y-12781722D02*
X15127206Y-12791246D01*
X15127206Y-12791246D02*
X15117682Y-12810293D01*
X15117682Y-12810293D02*
X15117682Y-12848388D01*
X15117682Y-12848388D02*
X15127206Y-12867436D01*
X15127206Y-12867436D02*
X15136729Y-12876960D01*
X15136729Y-12876960D02*
X15155777Y-12886484D01*
X15155777Y-12886484D02*
X15193872Y-12886484D01*
X15193872Y-12886484D02*
X15212920Y-12876960D01*
X15212920Y-12876960D02*
X15222444Y-12867436D01*
X15222444Y-12867436D02*
X15231967Y-12848388D01*
X15231967Y-12848388D02*
X15231967Y-12810293D01*
X15231967Y-12810293D02*
X15222444Y-12791246D01*
X15222444Y-12791246D02*
X15212920Y-12781722D01*
X15212920Y-12781722D02*
X15193872Y-12772198D01*
X15422444Y-12886484D02*
X15308158Y-12886484D01*
X15365301Y-12886484D02*
X15365301Y-12686484D01*
X15365301Y-12686484D02*
X15346253Y-12715055D01*
X15346253Y-12715055D02*
X15327206Y-12734103D01*
X15327206Y-12734103D02*
X15308158Y-12743627D01*
X15498634Y-12686484D02*
X15498634Y-12724579D01*
X15574825Y-12686484D02*
X15574825Y-12724579D01*
X15870063Y-12962674D02*
X15860539Y-12953150D01*
X15860539Y-12953150D02*
X15841491Y-12924579D01*
X15841491Y-12924579D02*
X15831968Y-12905531D01*
X15831968Y-12905531D02*
X15822444Y-12876960D01*
X15822444Y-12876960D02*
X15812920Y-12829341D01*
X15812920Y-12829341D02*
X15812920Y-12791246D01*
X15812920Y-12791246D02*
X15822444Y-12743627D01*
X15822444Y-12743627D02*
X15831968Y-12715055D01*
X15831968Y-12715055D02*
X15841491Y-12696008D01*
X15841491Y-12696008D02*
X15860539Y-12667436D01*
X15860539Y-12667436D02*
X15870063Y-12657912D01*
X15927206Y-12686484D02*
X16051015Y-12686484D01*
X16051015Y-12686484D02*
X15984348Y-12762674D01*
X15984348Y-12762674D02*
X16012920Y-12762674D01*
X16012920Y-12762674D02*
X16031968Y-12772198D01*
X16031968Y-12772198D02*
X16041491Y-12781722D01*
X16041491Y-12781722D02*
X16051015Y-12800769D01*
X16051015Y-12800769D02*
X16051015Y-12848388D01*
X16051015Y-12848388D02*
X16041491Y-12867436D01*
X16041491Y-12867436D02*
X16031968Y-12876960D01*
X16031968Y-12876960D02*
X16012920Y-12886484D01*
X16012920Y-12886484D02*
X15955777Y-12886484D01*
X15955777Y-12886484D02*
X15936729Y-12876960D01*
X15936729Y-12876960D02*
X15927206Y-12867436D01*
X16289110Y-12886484D02*
X16289110Y-12686484D01*
X16374825Y-12886484D02*
X16374825Y-12781722D01*
X16374825Y-12781722D02*
X16365301Y-12762674D01*
X16365301Y-12762674D02*
X16346253Y-12753150D01*
X16346253Y-12753150D02*
X16317682Y-12753150D01*
X16317682Y-12753150D02*
X16298634Y-12762674D01*
X16298634Y-12762674D02*
X16289110Y-12772198D01*
X16498634Y-12886484D02*
X16479587Y-12876960D01*
X16479587Y-12876960D02*
X16470063Y-12867436D01*
X16470063Y-12867436D02*
X16460539Y-12848388D01*
X16460539Y-12848388D02*
X16460539Y-12791246D01*
X16460539Y-12791246D02*
X16470063Y-12772198D01*
X16470063Y-12772198D02*
X16479587Y-12762674D01*
X16479587Y-12762674D02*
X16498634Y-12753150D01*
X16498634Y-12753150D02*
X16527206Y-12753150D01*
X16527206Y-12753150D02*
X16546253Y-12762674D01*
X16546253Y-12762674D02*
X16555777Y-12772198D01*
X16555777Y-12772198D02*
X16565301Y-12791246D01*
X16565301Y-12791246D02*
X16565301Y-12848388D01*
X16565301Y-12848388D02*
X16555777Y-12867436D01*
X16555777Y-12867436D02*
X16546253Y-12876960D01*
X16546253Y-12876960D02*
X16527206Y-12886484D01*
X16527206Y-12886484D02*
X16498634Y-12886484D01*
X16679587Y-12886484D02*
X16660539Y-12876960D01*
X16660539Y-12876960D02*
X16651015Y-12857912D01*
X16651015Y-12857912D02*
X16651015Y-12686484D01*
X16831968Y-12876960D02*
X16812920Y-12886484D01*
X16812920Y-12886484D02*
X16774825Y-12886484D01*
X16774825Y-12886484D02*
X16755777Y-12876960D01*
X16755777Y-12876960D02*
X16746253Y-12857912D01*
X16746253Y-12857912D02*
X16746253Y-12781722D01*
X16746253Y-12781722D02*
X16755777Y-12762674D01*
X16755777Y-12762674D02*
X16774825Y-12753150D01*
X16774825Y-12753150D02*
X16812920Y-12753150D01*
X16812920Y-12753150D02*
X16831968Y-12762674D01*
X16831968Y-12762674D02*
X16841492Y-12781722D01*
X16841492Y-12781722D02*
X16841492Y-12800769D01*
X16841492Y-12800769D02*
X16746253Y-12819817D01*
X16917682Y-12876960D02*
X16936730Y-12886484D01*
X16936730Y-12886484D02*
X16974825Y-12886484D01*
X16974825Y-12886484D02*
X16993873Y-12876960D01*
X16993873Y-12876960D02*
X17003396Y-12857912D01*
X17003396Y-12857912D02*
X17003396Y-12848388D01*
X17003396Y-12848388D02*
X16993873Y-12829341D01*
X16993873Y-12829341D02*
X16974825Y-12819817D01*
X16974825Y-12819817D02*
X16946253Y-12819817D01*
X16946253Y-12819817D02*
X16927206Y-12810293D01*
X16927206Y-12810293D02*
X16917682Y-12791246D01*
X16917682Y-12791246D02*
X16917682Y-12781722D01*
X16917682Y-12781722D02*
X16927206Y-12762674D01*
X16927206Y-12762674D02*
X16946253Y-12753150D01*
X16946253Y-12753150D02*
X16974825Y-12753150D01*
X16974825Y-12753150D02*
X16993873Y-12762674D01*
X17070063Y-12962674D02*
X17079587Y-12953150D01*
X17079587Y-12953150D02*
X17098634Y-12924579D01*
X17098634Y-12924579D02*
X17108158Y-12905531D01*
X17108158Y-12905531D02*
X17117682Y-12876960D01*
X17117682Y-12876960D02*
X17127206Y-12829341D01*
X17127206Y-12829341D02*
X17127206Y-12791246D01*
X17127206Y-12791246D02*
X17117682Y-12743627D01*
X17117682Y-12743627D02*
X17108158Y-12715055D01*
X17108158Y-12715055D02*
X17098634Y-12696008D01*
X17098634Y-12696008D02*
X17079587Y-12667436D01*
X17079587Y-12667436D02*
X17070063Y-12657912D01*
X17431968Y-12962674D02*
X17422444Y-12953150D01*
X17422444Y-12953150D02*
X17403396Y-12924579D01*
X17403396Y-12924579D02*
X17393873Y-12905531D01*
X17393873Y-12905531D02*
X17384349Y-12876960D01*
X17384349Y-12876960D02*
X17374825Y-12829341D01*
X17374825Y-12829341D02*
X17374825Y-12791246D01*
X17374825Y-12791246D02*
X17384349Y-12743627D01*
X17384349Y-12743627D02*
X17393873Y-12715055D01*
X17393873Y-12715055D02*
X17403396Y-12696008D01*
X17403396Y-12696008D02*
X17422444Y-12667436D01*
X17422444Y-12667436D02*
X17431968Y-12657912D01*
X17508158Y-12753150D02*
X17508158Y-12886484D01*
X17508158Y-12772198D02*
X17517682Y-12762674D01*
X17517682Y-12762674D02*
X17536730Y-12753150D01*
X17536730Y-12753150D02*
X17565301Y-12753150D01*
X17565301Y-12753150D02*
X17584349Y-12762674D01*
X17584349Y-12762674D02*
X17593873Y-12781722D01*
X17593873Y-12781722D02*
X17593873Y-12886484D01*
X17717682Y-12886484D02*
X17698634Y-12876960D01*
X17698634Y-12876960D02*
X17689111Y-12867436D01*
X17689111Y-12867436D02*
X17679587Y-12848388D01*
X17679587Y-12848388D02*
X17679587Y-12791246D01*
X17679587Y-12791246D02*
X17689111Y-12772198D01*
X17689111Y-12772198D02*
X17698634Y-12762674D01*
X17698634Y-12762674D02*
X17717682Y-12753150D01*
X17717682Y-12753150D02*
X17746254Y-12753150D01*
X17746254Y-12753150D02*
X17765301Y-12762674D01*
X17765301Y-12762674D02*
X17774825Y-12772198D01*
X17774825Y-12772198D02*
X17784349Y-12791246D01*
X17784349Y-12791246D02*
X17784349Y-12848388D01*
X17784349Y-12848388D02*
X17774825Y-12867436D01*
X17774825Y-12867436D02*
X17765301Y-12876960D01*
X17765301Y-12876960D02*
X17746254Y-12886484D01*
X17746254Y-12886484D02*
X17717682Y-12886484D01*
X17841492Y-12753150D02*
X17917682Y-12753150D01*
X17870063Y-12686484D02*
X17870063Y-12857912D01*
X17870063Y-12857912D02*
X17879587Y-12876960D01*
X17879587Y-12876960D02*
X17898634Y-12886484D01*
X17898634Y-12886484D02*
X17917682Y-12886484D01*
X18136730Y-12753150D02*
X18136730Y-12953150D01*
X18136730Y-12762674D02*
X18155777Y-12753150D01*
X18155777Y-12753150D02*
X18193873Y-12753150D01*
X18193873Y-12753150D02*
X18212920Y-12762674D01*
X18212920Y-12762674D02*
X18222444Y-12772198D01*
X18222444Y-12772198D02*
X18231968Y-12791246D01*
X18231968Y-12791246D02*
X18231968Y-12848388D01*
X18231968Y-12848388D02*
X18222444Y-12867436D01*
X18222444Y-12867436D02*
X18212920Y-12876960D01*
X18212920Y-12876960D02*
X18193873Y-12886484D01*
X18193873Y-12886484D02*
X18155777Y-12886484D01*
X18155777Y-12886484D02*
X18136730Y-12876960D01*
X18346254Y-12886484D02*
X18327206Y-12876960D01*
X18327206Y-12876960D02*
X18317682Y-12857912D01*
X18317682Y-12857912D02*
X18317682Y-12686484D01*
X18508158Y-12886484D02*
X18508158Y-12781722D01*
X18508158Y-12781722D02*
X18498635Y-12762674D01*
X18498635Y-12762674D02*
X18479587Y-12753150D01*
X18479587Y-12753150D02*
X18441492Y-12753150D01*
X18441492Y-12753150D02*
X18422444Y-12762674D01*
X18508158Y-12876960D02*
X18489111Y-12886484D01*
X18489111Y-12886484D02*
X18441492Y-12886484D01*
X18441492Y-12886484D02*
X18422444Y-12876960D01*
X18422444Y-12876960D02*
X18412920Y-12857912D01*
X18412920Y-12857912D02*
X18412920Y-12838865D01*
X18412920Y-12838865D02*
X18422444Y-12819817D01*
X18422444Y-12819817D02*
X18441492Y-12810293D01*
X18441492Y-12810293D02*
X18489111Y-12810293D01*
X18489111Y-12810293D02*
X18508158Y-12800769D01*
X18574825Y-12753150D02*
X18651015Y-12753150D01*
X18603396Y-12686484D02*
X18603396Y-12857912D01*
X18603396Y-12857912D02*
X18612920Y-12876960D01*
X18612920Y-12876960D02*
X18631968Y-12886484D01*
X18631968Y-12886484D02*
X18651015Y-12886484D01*
X18793873Y-12876960D02*
X18774825Y-12886484D01*
X18774825Y-12886484D02*
X18736730Y-12886484D01*
X18736730Y-12886484D02*
X18717682Y-12876960D01*
X18717682Y-12876960D02*
X18708158Y-12857912D01*
X18708158Y-12857912D02*
X18708158Y-12781722D01*
X18708158Y-12781722D02*
X18717682Y-12762674D01*
X18717682Y-12762674D02*
X18736730Y-12753150D01*
X18736730Y-12753150D02*
X18774825Y-12753150D01*
X18774825Y-12753150D02*
X18793873Y-12762674D01*
X18793873Y-12762674D02*
X18803396Y-12781722D01*
X18803396Y-12781722D02*
X18803396Y-12800769D01*
X18803396Y-12800769D02*
X18708158Y-12819817D01*
X18974825Y-12886484D02*
X18974825Y-12686484D01*
X18974825Y-12876960D02*
X18955777Y-12886484D01*
X18955777Y-12886484D02*
X18917682Y-12886484D01*
X18917682Y-12886484D02*
X18898635Y-12876960D01*
X18898635Y-12876960D02*
X18889111Y-12867436D01*
X18889111Y-12867436D02*
X18879587Y-12848388D01*
X18879587Y-12848388D02*
X18879587Y-12791246D01*
X18879587Y-12791246D02*
X18889111Y-12772198D01*
X18889111Y-12772198D02*
X18898635Y-12762674D01*
X18898635Y-12762674D02*
X18917682Y-12753150D01*
X18917682Y-12753150D02*
X18955777Y-12753150D01*
X18955777Y-12753150D02*
X18974825Y-12762674D01*
X19051016Y-12962674D02*
X19060539Y-12953150D01*
X19060539Y-12953150D02*
X19079587Y-12924579D01*
X19079587Y-12924579D02*
X19089111Y-12905531D01*
X19089111Y-12905531D02*
X19098635Y-12876960D01*
X19098635Y-12876960D02*
X19108158Y-12829341D01*
X19108158Y-12829341D02*
X19108158Y-12791246D01*
X19108158Y-12791246D02*
X19098635Y-12743627D01*
X19098635Y-12743627D02*
X19089111Y-12715055D01*
X19089111Y-12715055D02*
X19079587Y-12696008D01*
X19079587Y-12696008D02*
X19060539Y-12667436D01*
X19060539Y-12667436D02*
X19051016Y-12657912D01*
D13*
X12295000Y-13062500D02*
G75*
G02*
X12117500Y-13062500I-88750J0D01*
G01*
X12117500Y-13062500D02*
G75*
G02*
X12295000Y-13062500I88750J0D01*
G01*
D11*
X12660539Y-13153984D02*
X12546253Y-13153984D01*
X12603396Y-13153984D02*
X12603396Y-12953984D01*
X12603396Y-12953984D02*
X12584348Y-12982555D01*
X12584348Y-12982555D02*
X12565301Y-13001603D01*
X12565301Y-13001603D02*
X12546253Y-13011127D01*
X12746253Y-13134936D02*
X12755777Y-13144460D01*
X12755777Y-13144460D02*
X12746253Y-13153984D01*
X12746253Y-13153984D02*
X12736729Y-13144460D01*
X12736729Y-13144460D02*
X12746253Y-13134936D01*
X12746253Y-13134936D02*
X12746253Y-13153984D01*
X12822443Y-12953984D02*
X12955777Y-12953984D01*
X12955777Y-12953984D02*
X12870062Y-13153984D01*
X13012920Y-12953984D02*
X13146253Y-12953984D01*
X13146253Y-12953984D02*
X13060539Y-13153984D01*
X13317682Y-12953984D02*
X13222443Y-12953984D01*
X13222443Y-12953984D02*
X13212920Y-13049222D01*
X13212920Y-13049222D02*
X13222443Y-13039698D01*
X13222443Y-13039698D02*
X13241491Y-13030174D01*
X13241491Y-13030174D02*
X13289110Y-13030174D01*
X13289110Y-13030174D02*
X13308158Y-13039698D01*
X13308158Y-13039698D02*
X13317682Y-13049222D01*
X13317682Y-13049222D02*
X13327205Y-13068269D01*
X13327205Y-13068269D02*
X13327205Y-13115888D01*
X13327205Y-13115888D02*
X13317682Y-13134936D01*
X13317682Y-13134936D02*
X13308158Y-13144460D01*
X13308158Y-13144460D02*
X13289110Y-13153984D01*
X13289110Y-13153984D02*
X13241491Y-13153984D01*
X13241491Y-13153984D02*
X13222443Y-13144460D01*
X13222443Y-13144460D02*
X13212920Y-13134936D01*
X13412920Y-13153984D02*
X13412920Y-13020650D01*
X13412920Y-13039698D02*
X13422443Y-13030174D01*
X13422443Y-13030174D02*
X13441491Y-13020650D01*
X13441491Y-13020650D02*
X13470063Y-13020650D01*
X13470063Y-13020650D02*
X13489110Y-13030174D01*
X13489110Y-13030174D02*
X13498634Y-13049222D01*
X13498634Y-13049222D02*
X13498634Y-13153984D01*
X13498634Y-13049222D02*
X13508158Y-13030174D01*
X13508158Y-13030174D02*
X13527205Y-13020650D01*
X13527205Y-13020650D02*
X13555777Y-13020650D01*
X13555777Y-13020650D02*
X13574824Y-13030174D01*
X13574824Y-13030174D02*
X13584348Y-13049222D01*
X13584348Y-13049222D02*
X13584348Y-13153984D01*
X13679586Y-13153984D02*
X13679586Y-13020650D01*
X13679586Y-13039698D02*
X13689110Y-13030174D01*
X13689110Y-13030174D02*
X13708158Y-13020650D01*
X13708158Y-13020650D02*
X13736729Y-13020650D01*
X13736729Y-13020650D02*
X13755777Y-13030174D01*
X13755777Y-13030174D02*
X13765301Y-13049222D01*
X13765301Y-13049222D02*
X13765301Y-13153984D01*
X13765301Y-13049222D02*
X13774824Y-13030174D01*
X13774824Y-13030174D02*
X13793872Y-13020650D01*
X13793872Y-13020650D02*
X13822443Y-13020650D01*
X13822443Y-13020650D02*
X13841491Y-13030174D01*
X13841491Y-13030174D02*
X13851015Y-13049222D01*
X13851015Y-13049222D02*
X13851015Y-13153984D01*
X14241491Y-12944460D02*
X14070063Y-13201603D01*
X14498634Y-12953984D02*
X14517682Y-12953984D01*
X14517682Y-12953984D02*
X14536729Y-12963508D01*
X14536729Y-12963508D02*
X14546253Y-12973031D01*
X14546253Y-12973031D02*
X14555777Y-12992079D01*
X14555777Y-12992079D02*
X14565301Y-13030174D01*
X14565301Y-13030174D02*
X14565301Y-13077793D01*
X14565301Y-13077793D02*
X14555777Y-13115888D01*
X14555777Y-13115888D02*
X14546253Y-13134936D01*
X14546253Y-13134936D02*
X14536729Y-13144460D01*
X14536729Y-13144460D02*
X14517682Y-13153984D01*
X14517682Y-13153984D02*
X14498634Y-13153984D01*
X14498634Y-13153984D02*
X14479586Y-13144460D01*
X14479586Y-13144460D02*
X14470063Y-13134936D01*
X14470063Y-13134936D02*
X14460539Y-13115888D01*
X14460539Y-13115888D02*
X14451015Y-13077793D01*
X14451015Y-13077793D02*
X14451015Y-13030174D01*
X14451015Y-13030174D02*
X14460539Y-12992079D01*
X14460539Y-12992079D02*
X14470063Y-12973031D01*
X14470063Y-12973031D02*
X14479586Y-12963508D01*
X14479586Y-12963508D02*
X14498634Y-12953984D01*
X14651015Y-13134936D02*
X14660539Y-13144460D01*
X14660539Y-13144460D02*
X14651015Y-13153984D01*
X14651015Y-13153984D02*
X14641491Y-13144460D01*
X14641491Y-13144460D02*
X14651015Y-13134936D01*
X14651015Y-13134936D02*
X14651015Y-13153984D01*
X14784348Y-12953984D02*
X14803396Y-12953984D01*
X14803396Y-12953984D02*
X14822444Y-12963508D01*
X14822444Y-12963508D02*
X14831967Y-12973031D01*
X14831967Y-12973031D02*
X14841491Y-12992079D01*
X14841491Y-12992079D02*
X14851015Y-13030174D01*
X14851015Y-13030174D02*
X14851015Y-13077793D01*
X14851015Y-13077793D02*
X14841491Y-13115888D01*
X14841491Y-13115888D02*
X14831967Y-13134936D01*
X14831967Y-13134936D02*
X14822444Y-13144460D01*
X14822444Y-13144460D02*
X14803396Y-13153984D01*
X14803396Y-13153984D02*
X14784348Y-13153984D01*
X14784348Y-13153984D02*
X14765301Y-13144460D01*
X14765301Y-13144460D02*
X14755777Y-13134936D01*
X14755777Y-13134936D02*
X14746253Y-13115888D01*
X14746253Y-13115888D02*
X14736729Y-13077793D01*
X14736729Y-13077793D02*
X14736729Y-13030174D01*
X14736729Y-13030174D02*
X14746253Y-12992079D01*
X14746253Y-12992079D02*
X14755777Y-12973031D01*
X14755777Y-12973031D02*
X14765301Y-12963508D01*
X14765301Y-12963508D02*
X14784348Y-12953984D01*
X15022444Y-12953984D02*
X14984348Y-12953984D01*
X14984348Y-12953984D02*
X14965301Y-12963508D01*
X14965301Y-12963508D02*
X14955777Y-12973031D01*
X14955777Y-12973031D02*
X14936729Y-13001603D01*
X14936729Y-13001603D02*
X14927206Y-13039698D01*
X14927206Y-13039698D02*
X14927206Y-13115888D01*
X14927206Y-13115888D02*
X14936729Y-13134936D01*
X14936729Y-13134936D02*
X14946253Y-13144460D01*
X14946253Y-13144460D02*
X14965301Y-13153984D01*
X14965301Y-13153984D02*
X15003396Y-13153984D01*
X15003396Y-13153984D02*
X15022444Y-13144460D01*
X15022444Y-13144460D02*
X15031967Y-13134936D01*
X15031967Y-13134936D02*
X15041491Y-13115888D01*
X15041491Y-13115888D02*
X15041491Y-13068269D01*
X15041491Y-13068269D02*
X15031967Y-13049222D01*
X15031967Y-13049222D02*
X15022444Y-13039698D01*
X15022444Y-13039698D02*
X15003396Y-13030174D01*
X15003396Y-13030174D02*
X14965301Y-13030174D01*
X14965301Y-13030174D02*
X14946253Y-13039698D01*
X14946253Y-13039698D02*
X14936729Y-13049222D01*
X14936729Y-13049222D02*
X14927206Y-13068269D01*
X15136729Y-13153984D02*
X15174825Y-13153984D01*
X15174825Y-13153984D02*
X15193872Y-13144460D01*
X15193872Y-13144460D02*
X15203396Y-13134936D01*
X15203396Y-13134936D02*
X15222444Y-13106365D01*
X15222444Y-13106365D02*
X15231967Y-13068269D01*
X15231967Y-13068269D02*
X15231967Y-12992079D01*
X15231967Y-12992079D02*
X15222444Y-12973031D01*
X15222444Y-12973031D02*
X15212920Y-12963508D01*
X15212920Y-12963508D02*
X15193872Y-12953984D01*
X15193872Y-12953984D02*
X15155777Y-12953984D01*
X15155777Y-12953984D02*
X15136729Y-12963508D01*
X15136729Y-12963508D02*
X15127206Y-12973031D01*
X15127206Y-12973031D02*
X15117682Y-12992079D01*
X15117682Y-12992079D02*
X15117682Y-13039698D01*
X15117682Y-13039698D02*
X15127206Y-13058746D01*
X15127206Y-13058746D02*
X15136729Y-13068269D01*
X15136729Y-13068269D02*
X15155777Y-13077793D01*
X15155777Y-13077793D02*
X15193872Y-13077793D01*
X15193872Y-13077793D02*
X15212920Y-13068269D01*
X15212920Y-13068269D02*
X15222444Y-13058746D01*
X15222444Y-13058746D02*
X15231967Y-13039698D01*
X15327206Y-13153984D02*
X15365301Y-13153984D01*
X15365301Y-13153984D02*
X15384348Y-13144460D01*
X15384348Y-13144460D02*
X15393872Y-13134936D01*
X15393872Y-13134936D02*
X15412920Y-13106365D01*
X15412920Y-13106365D02*
X15422444Y-13068269D01*
X15422444Y-13068269D02*
X15422444Y-12992079D01*
X15422444Y-12992079D02*
X15412920Y-12973031D01*
X15412920Y-12973031D02*
X15403396Y-12963508D01*
X15403396Y-12963508D02*
X15384348Y-12953984D01*
X15384348Y-12953984D02*
X15346253Y-12953984D01*
X15346253Y-12953984D02*
X15327206Y-12963508D01*
X15327206Y-12963508D02*
X15317682Y-12973031D01*
X15317682Y-12973031D02*
X15308158Y-12992079D01*
X15308158Y-12992079D02*
X15308158Y-13039698D01*
X15308158Y-13039698D02*
X15317682Y-13058746D01*
X15317682Y-13058746D02*
X15327206Y-13068269D01*
X15327206Y-13068269D02*
X15346253Y-13077793D01*
X15346253Y-13077793D02*
X15384348Y-13077793D01*
X15384348Y-13077793D02*
X15403396Y-13068269D01*
X15403396Y-13068269D02*
X15412920Y-13058746D01*
X15412920Y-13058746D02*
X15422444Y-13039698D01*
X15498634Y-12953984D02*
X15498634Y-12992079D01*
X15574825Y-12953984D02*
X15574825Y-12992079D01*
X15870063Y-13230174D02*
X15860539Y-13220650D01*
X15860539Y-13220650D02*
X15841491Y-13192079D01*
X15841491Y-13192079D02*
X15831968Y-13173031D01*
X15831968Y-13173031D02*
X15822444Y-13144460D01*
X15822444Y-13144460D02*
X15812920Y-13096841D01*
X15812920Y-13096841D02*
X15812920Y-13058746D01*
X15812920Y-13058746D02*
X15822444Y-13011127D01*
X15822444Y-13011127D02*
X15831968Y-12982555D01*
X15831968Y-12982555D02*
X15841491Y-12963508D01*
X15841491Y-12963508D02*
X15860539Y-12934936D01*
X15860539Y-12934936D02*
X15870063Y-12925412D01*
X16051015Y-13153984D02*
X15936729Y-13153984D01*
X15993872Y-13153984D02*
X15993872Y-12953984D01*
X15993872Y-12953984D02*
X15974825Y-12982555D01*
X15974825Y-12982555D02*
X15955777Y-13001603D01*
X15955777Y-13001603D02*
X15936729Y-13011127D01*
X16289110Y-13153984D02*
X16289110Y-12953984D01*
X16374825Y-13153984D02*
X16374825Y-13049222D01*
X16374825Y-13049222D02*
X16365301Y-13030174D01*
X16365301Y-13030174D02*
X16346253Y-13020650D01*
X16346253Y-13020650D02*
X16317682Y-13020650D01*
X16317682Y-13020650D02*
X16298634Y-13030174D01*
X16298634Y-13030174D02*
X16289110Y-13039698D01*
X16498634Y-13153984D02*
X16479587Y-13144460D01*
X16479587Y-13144460D02*
X16470063Y-13134936D01*
X16470063Y-13134936D02*
X16460539Y-13115888D01*
X16460539Y-13115888D02*
X16460539Y-13058746D01*
X16460539Y-13058746D02*
X16470063Y-13039698D01*
X16470063Y-13039698D02*
X16479587Y-13030174D01*
X16479587Y-13030174D02*
X16498634Y-13020650D01*
X16498634Y-13020650D02*
X16527206Y-13020650D01*
X16527206Y-13020650D02*
X16546253Y-13030174D01*
X16546253Y-13030174D02*
X16555777Y-13039698D01*
X16555777Y-13039698D02*
X16565301Y-13058746D01*
X16565301Y-13058746D02*
X16565301Y-13115888D01*
X16565301Y-13115888D02*
X16555777Y-13134936D01*
X16555777Y-13134936D02*
X16546253Y-13144460D01*
X16546253Y-13144460D02*
X16527206Y-13153984D01*
X16527206Y-13153984D02*
X16498634Y-13153984D01*
X16679587Y-13153984D02*
X16660539Y-13144460D01*
X16660539Y-13144460D02*
X16651015Y-13125412D01*
X16651015Y-13125412D02*
X16651015Y-12953984D01*
X16831968Y-13144460D02*
X16812920Y-13153984D01*
X16812920Y-13153984D02*
X16774825Y-13153984D01*
X16774825Y-13153984D02*
X16755777Y-13144460D01*
X16755777Y-13144460D02*
X16746253Y-13125412D01*
X16746253Y-13125412D02*
X16746253Y-13049222D01*
X16746253Y-13049222D02*
X16755777Y-13030174D01*
X16755777Y-13030174D02*
X16774825Y-13020650D01*
X16774825Y-13020650D02*
X16812920Y-13020650D01*
X16812920Y-13020650D02*
X16831968Y-13030174D01*
X16831968Y-13030174D02*
X16841492Y-13049222D01*
X16841492Y-13049222D02*
X16841492Y-13068269D01*
X16841492Y-13068269D02*
X16746253Y-13087317D01*
X16908158Y-13230174D02*
X16917682Y-13220650D01*
X16917682Y-13220650D02*
X16936730Y-13192079D01*
X16936730Y-13192079D02*
X16946253Y-13173031D01*
X16946253Y-13173031D02*
X16955777Y-13144460D01*
X16955777Y-13144460D02*
X16965301Y-13096841D01*
X16965301Y-13096841D02*
X16965301Y-13058746D01*
X16965301Y-13058746D02*
X16955777Y-13011127D01*
X16955777Y-13011127D02*
X16946253Y-12982555D01*
X16946253Y-12982555D02*
X16936730Y-12963508D01*
X16936730Y-12963508D02*
X16917682Y-12934936D01*
X16917682Y-12934936D02*
X16908158Y-12925412D01*
X17270063Y-13230174D02*
X17260539Y-13220650D01*
X17260539Y-13220650D02*
X17241492Y-13192079D01*
X17241492Y-13192079D02*
X17231968Y-13173031D01*
X17231968Y-13173031D02*
X17222444Y-13144460D01*
X17222444Y-13144460D02*
X17212920Y-13096841D01*
X17212920Y-13096841D02*
X17212920Y-13058746D01*
X17212920Y-13058746D02*
X17222444Y-13011127D01*
X17222444Y-13011127D02*
X17231968Y-12982555D01*
X17231968Y-12982555D02*
X17241492Y-12963508D01*
X17241492Y-12963508D02*
X17260539Y-12934936D01*
X17260539Y-12934936D02*
X17270063Y-12925412D01*
X17346253Y-13020650D02*
X17346253Y-13153984D01*
X17346253Y-13039698D02*
X17355777Y-13030174D01*
X17355777Y-13030174D02*
X17374825Y-13020650D01*
X17374825Y-13020650D02*
X17403396Y-13020650D01*
X17403396Y-13020650D02*
X17422444Y-13030174D01*
X17422444Y-13030174D02*
X17431968Y-13049222D01*
X17431968Y-13049222D02*
X17431968Y-13153984D01*
X17555777Y-13153984D02*
X17536730Y-13144460D01*
X17536730Y-13144460D02*
X17527206Y-13134936D01*
X17527206Y-13134936D02*
X17517682Y-13115888D01*
X17517682Y-13115888D02*
X17517682Y-13058746D01*
X17517682Y-13058746D02*
X17527206Y-13039698D01*
X17527206Y-13039698D02*
X17536730Y-13030174D01*
X17536730Y-13030174D02*
X17555777Y-13020650D01*
X17555777Y-13020650D02*
X17584349Y-13020650D01*
X17584349Y-13020650D02*
X17603396Y-13030174D01*
X17603396Y-13030174D02*
X17612920Y-13039698D01*
X17612920Y-13039698D02*
X17622444Y-13058746D01*
X17622444Y-13058746D02*
X17622444Y-13115888D01*
X17622444Y-13115888D02*
X17612920Y-13134936D01*
X17612920Y-13134936D02*
X17603396Y-13144460D01*
X17603396Y-13144460D02*
X17584349Y-13153984D01*
X17584349Y-13153984D02*
X17555777Y-13153984D01*
X17679587Y-13020650D02*
X17755777Y-13020650D01*
X17708158Y-12953984D02*
X17708158Y-13125412D01*
X17708158Y-13125412D02*
X17717682Y-13144460D01*
X17717682Y-13144460D02*
X17736730Y-13153984D01*
X17736730Y-13153984D02*
X17755777Y-13153984D01*
X17974825Y-13020650D02*
X17974825Y-13220650D01*
X17974825Y-13030174D02*
X17993873Y-13020650D01*
X17993873Y-13020650D02*
X18031968Y-13020650D01*
X18031968Y-13020650D02*
X18051015Y-13030174D01*
X18051015Y-13030174D02*
X18060539Y-13039698D01*
X18060539Y-13039698D02*
X18070063Y-13058746D01*
X18070063Y-13058746D02*
X18070063Y-13115888D01*
X18070063Y-13115888D02*
X18060539Y-13134936D01*
X18060539Y-13134936D02*
X18051015Y-13144460D01*
X18051015Y-13144460D02*
X18031968Y-13153984D01*
X18031968Y-13153984D02*
X17993873Y-13153984D01*
X17993873Y-13153984D02*
X17974825Y-13144460D01*
X18184349Y-13153984D02*
X18165301Y-13144460D01*
X18165301Y-13144460D02*
X18155777Y-13125412D01*
X18155777Y-13125412D02*
X18155777Y-12953984D01*
X18346254Y-13153984D02*
X18346254Y-13049222D01*
X18346254Y-13049222D02*
X18336730Y-13030174D01*
X18336730Y-13030174D02*
X18317682Y-13020650D01*
X18317682Y-13020650D02*
X18279587Y-13020650D01*
X18279587Y-13020650D02*
X18260539Y-13030174D01*
X18346254Y-13144460D02*
X18327206Y-13153984D01*
X18327206Y-13153984D02*
X18279587Y-13153984D01*
X18279587Y-13153984D02*
X18260539Y-13144460D01*
X18260539Y-13144460D02*
X18251015Y-13125412D01*
X18251015Y-13125412D02*
X18251015Y-13106365D01*
X18251015Y-13106365D02*
X18260539Y-13087317D01*
X18260539Y-13087317D02*
X18279587Y-13077793D01*
X18279587Y-13077793D02*
X18327206Y-13077793D01*
X18327206Y-13077793D02*
X18346254Y-13068269D01*
X18412920Y-13020650D02*
X18489111Y-13020650D01*
X18441492Y-12953984D02*
X18441492Y-13125412D01*
X18441492Y-13125412D02*
X18451015Y-13144460D01*
X18451015Y-13144460D02*
X18470063Y-13153984D01*
X18470063Y-13153984D02*
X18489111Y-13153984D01*
X18631968Y-13144460D02*
X18612920Y-13153984D01*
X18612920Y-13153984D02*
X18574825Y-13153984D01*
X18574825Y-13153984D02*
X18555777Y-13144460D01*
X18555777Y-13144460D02*
X18546254Y-13125412D01*
X18546254Y-13125412D02*
X18546254Y-13049222D01*
X18546254Y-13049222D02*
X18555777Y-13030174D01*
X18555777Y-13030174D02*
X18574825Y-13020650D01*
X18574825Y-13020650D02*
X18612920Y-13020650D01*
X18612920Y-13020650D02*
X18631968Y-13030174D01*
X18631968Y-13030174D02*
X18641492Y-13049222D01*
X18641492Y-13049222D02*
X18641492Y-13068269D01*
X18641492Y-13068269D02*
X18546254Y-13087317D01*
X18812920Y-13153984D02*
X18812920Y-12953984D01*
X18812920Y-13144460D02*
X18793873Y-13153984D01*
X18793873Y-13153984D02*
X18755777Y-13153984D01*
X18755777Y-13153984D02*
X18736730Y-13144460D01*
X18736730Y-13144460D02*
X18727206Y-13134936D01*
X18727206Y-13134936D02*
X18717682Y-13115888D01*
X18717682Y-13115888D02*
X18717682Y-13058746D01*
X18717682Y-13058746D02*
X18727206Y-13039698D01*
X18727206Y-13039698D02*
X18736730Y-13030174D01*
X18736730Y-13030174D02*
X18755777Y-13020650D01*
X18755777Y-13020650D02*
X18793873Y-13020650D01*
X18793873Y-13020650D02*
X18812920Y-13030174D01*
X18889111Y-13230174D02*
X18898635Y-13220650D01*
X18898635Y-13220650D02*
X18917682Y-13192079D01*
X18917682Y-13192079D02*
X18927206Y-13173031D01*
X18927206Y-13173031D02*
X18936730Y-13144460D01*
X18936730Y-13144460D02*
X18946254Y-13096841D01*
X18946254Y-13096841D02*
X18946254Y-13058746D01*
X18946254Y-13058746D02*
X18936730Y-13011127D01*
X18936730Y-13011127D02*
X18927206Y-12982555D01*
X18927206Y-12982555D02*
X18917682Y-12963508D01*
X18917682Y-12963508D02*
X18898635Y-12934936D01*
X18898635Y-12934936D02*
X18889111Y-12925412D01*
X12195000Y-13260000D02*
X12195000Y-13460000D01*
X12095000Y-13360000D02*
X12295000Y-13360000D01*
X12546253Y-13270531D02*
X12555777Y-13261008D01*
X12555777Y-13261008D02*
X12574824Y-13251484D01*
X12574824Y-13251484D02*
X12622443Y-13251484D01*
X12622443Y-13251484D02*
X12641491Y-13261008D01*
X12641491Y-13261008D02*
X12651015Y-13270531D01*
X12651015Y-13270531D02*
X12660539Y-13289579D01*
X12660539Y-13289579D02*
X12660539Y-13308627D01*
X12660539Y-13308627D02*
X12651015Y-13337198D01*
X12651015Y-13337198D02*
X12536729Y-13451484D01*
X12536729Y-13451484D02*
X12660539Y-13451484D01*
X12746253Y-13432436D02*
X12755777Y-13441960D01*
X12755777Y-13441960D02*
X12746253Y-13451484D01*
X12746253Y-13451484D02*
X12736729Y-13441960D01*
X12736729Y-13441960D02*
X12746253Y-13432436D01*
X12746253Y-13432436D02*
X12746253Y-13451484D01*
X12879586Y-13251484D02*
X12898634Y-13251484D01*
X12898634Y-13251484D02*
X12917682Y-13261008D01*
X12917682Y-13261008D02*
X12927205Y-13270531D01*
X12927205Y-13270531D02*
X12936729Y-13289579D01*
X12936729Y-13289579D02*
X12946253Y-13327674D01*
X12946253Y-13327674D02*
X12946253Y-13375293D01*
X12946253Y-13375293D02*
X12936729Y-13413388D01*
X12936729Y-13413388D02*
X12927205Y-13432436D01*
X12927205Y-13432436D02*
X12917682Y-13441960D01*
X12917682Y-13441960D02*
X12898634Y-13451484D01*
X12898634Y-13451484D02*
X12879586Y-13451484D01*
X12879586Y-13451484D02*
X12860539Y-13441960D01*
X12860539Y-13441960D02*
X12851015Y-13432436D01*
X12851015Y-13432436D02*
X12841491Y-13413388D01*
X12841491Y-13413388D02*
X12831967Y-13375293D01*
X12831967Y-13375293D02*
X12831967Y-13327674D01*
X12831967Y-13327674D02*
X12841491Y-13289579D01*
X12841491Y-13289579D02*
X12851015Y-13270531D01*
X12851015Y-13270531D02*
X12860539Y-13261008D01*
X12860539Y-13261008D02*
X12879586Y-13251484D01*
X13070062Y-13251484D02*
X13089110Y-13251484D01*
X13089110Y-13251484D02*
X13108158Y-13261008D01*
X13108158Y-13261008D02*
X13117682Y-13270531D01*
X13117682Y-13270531D02*
X13127205Y-13289579D01*
X13127205Y-13289579D02*
X13136729Y-13327674D01*
X13136729Y-13327674D02*
X13136729Y-13375293D01*
X13136729Y-13375293D02*
X13127205Y-13413388D01*
X13127205Y-13413388D02*
X13117682Y-13432436D01*
X13117682Y-13432436D02*
X13108158Y-13441960D01*
X13108158Y-13441960D02*
X13089110Y-13451484D01*
X13089110Y-13451484D02*
X13070062Y-13451484D01*
X13070062Y-13451484D02*
X13051015Y-13441960D01*
X13051015Y-13441960D02*
X13041491Y-13432436D01*
X13041491Y-13432436D02*
X13031967Y-13413388D01*
X13031967Y-13413388D02*
X13022443Y-13375293D01*
X13022443Y-13375293D02*
X13022443Y-13327674D01*
X13022443Y-13327674D02*
X13031967Y-13289579D01*
X13031967Y-13289579D02*
X13041491Y-13270531D01*
X13041491Y-13270531D02*
X13051015Y-13261008D01*
X13051015Y-13261008D02*
X13070062Y-13251484D01*
X13260539Y-13251484D02*
X13279586Y-13251484D01*
X13279586Y-13251484D02*
X13298634Y-13261008D01*
X13298634Y-13261008D02*
X13308158Y-13270531D01*
X13308158Y-13270531D02*
X13317682Y-13289579D01*
X13317682Y-13289579D02*
X13327205Y-13327674D01*
X13327205Y-13327674D02*
X13327205Y-13375293D01*
X13327205Y-13375293D02*
X13317682Y-13413388D01*
X13317682Y-13413388D02*
X13308158Y-13432436D01*
X13308158Y-13432436D02*
X13298634Y-13441960D01*
X13298634Y-13441960D02*
X13279586Y-13451484D01*
X13279586Y-13451484D02*
X13260539Y-13451484D01*
X13260539Y-13451484D02*
X13241491Y-13441960D01*
X13241491Y-13441960D02*
X13231967Y-13432436D01*
X13231967Y-13432436D02*
X13222443Y-13413388D01*
X13222443Y-13413388D02*
X13212920Y-13375293D01*
X13212920Y-13375293D02*
X13212920Y-13327674D01*
X13212920Y-13327674D02*
X13222443Y-13289579D01*
X13222443Y-13289579D02*
X13231967Y-13270531D01*
X13231967Y-13270531D02*
X13241491Y-13261008D01*
X13241491Y-13261008D02*
X13260539Y-13251484D01*
X13412920Y-13451484D02*
X13412920Y-13318150D01*
X13412920Y-13337198D02*
X13422443Y-13327674D01*
X13422443Y-13327674D02*
X13441491Y-13318150D01*
X13441491Y-13318150D02*
X13470063Y-13318150D01*
X13470063Y-13318150D02*
X13489110Y-13327674D01*
X13489110Y-13327674D02*
X13498634Y-13346722D01*
X13498634Y-13346722D02*
X13498634Y-13451484D01*
X13498634Y-13346722D02*
X13508158Y-13327674D01*
X13508158Y-13327674D02*
X13527205Y-13318150D01*
X13527205Y-13318150D02*
X13555777Y-13318150D01*
X13555777Y-13318150D02*
X13574824Y-13327674D01*
X13574824Y-13327674D02*
X13584348Y-13346722D01*
X13584348Y-13346722D02*
X13584348Y-13451484D01*
X13679586Y-13451484D02*
X13679586Y-13318150D01*
X13679586Y-13337198D02*
X13689110Y-13327674D01*
X13689110Y-13327674D02*
X13708158Y-13318150D01*
X13708158Y-13318150D02*
X13736729Y-13318150D01*
X13736729Y-13318150D02*
X13755777Y-13327674D01*
X13755777Y-13327674D02*
X13765301Y-13346722D01*
X13765301Y-13346722D02*
X13765301Y-13451484D01*
X13765301Y-13346722D02*
X13774824Y-13327674D01*
X13774824Y-13327674D02*
X13793872Y-13318150D01*
X13793872Y-13318150D02*
X13822443Y-13318150D01*
X13822443Y-13318150D02*
X13841491Y-13327674D01*
X13841491Y-13327674D02*
X13851015Y-13346722D01*
X13851015Y-13346722D02*
X13851015Y-13451484D01*
X14241491Y-13241960D02*
X14070063Y-13499103D01*
X14498634Y-13251484D02*
X14517682Y-13251484D01*
X14517682Y-13251484D02*
X14536729Y-13261008D01*
X14536729Y-13261008D02*
X14546253Y-13270531D01*
X14546253Y-13270531D02*
X14555777Y-13289579D01*
X14555777Y-13289579D02*
X14565301Y-13327674D01*
X14565301Y-13327674D02*
X14565301Y-13375293D01*
X14565301Y-13375293D02*
X14555777Y-13413388D01*
X14555777Y-13413388D02*
X14546253Y-13432436D01*
X14546253Y-13432436D02*
X14536729Y-13441960D01*
X14536729Y-13441960D02*
X14517682Y-13451484D01*
X14517682Y-13451484D02*
X14498634Y-13451484D01*
X14498634Y-13451484D02*
X14479586Y-13441960D01*
X14479586Y-13441960D02*
X14470063Y-13432436D01*
X14470063Y-13432436D02*
X14460539Y-13413388D01*
X14460539Y-13413388D02*
X14451015Y-13375293D01*
X14451015Y-13375293D02*
X14451015Y-13327674D01*
X14451015Y-13327674D02*
X14460539Y-13289579D01*
X14460539Y-13289579D02*
X14470063Y-13270531D01*
X14470063Y-13270531D02*
X14479586Y-13261008D01*
X14479586Y-13261008D02*
X14498634Y-13251484D01*
X14651015Y-13432436D02*
X14660539Y-13441960D01*
X14660539Y-13441960D02*
X14651015Y-13451484D01*
X14651015Y-13451484D02*
X14641491Y-13441960D01*
X14641491Y-13441960D02*
X14651015Y-13432436D01*
X14651015Y-13432436D02*
X14651015Y-13451484D01*
X14784348Y-13251484D02*
X14803396Y-13251484D01*
X14803396Y-13251484D02*
X14822444Y-13261008D01*
X14822444Y-13261008D02*
X14831967Y-13270531D01*
X14831967Y-13270531D02*
X14841491Y-13289579D01*
X14841491Y-13289579D02*
X14851015Y-13327674D01*
X14851015Y-13327674D02*
X14851015Y-13375293D01*
X14851015Y-13375293D02*
X14841491Y-13413388D01*
X14841491Y-13413388D02*
X14831967Y-13432436D01*
X14831967Y-13432436D02*
X14822444Y-13441960D01*
X14822444Y-13441960D02*
X14803396Y-13451484D01*
X14803396Y-13451484D02*
X14784348Y-13451484D01*
X14784348Y-13451484D02*
X14765301Y-13441960D01*
X14765301Y-13441960D02*
X14755777Y-13432436D01*
X14755777Y-13432436D02*
X14746253Y-13413388D01*
X14746253Y-13413388D02*
X14736729Y-13375293D01*
X14736729Y-13375293D02*
X14736729Y-13327674D01*
X14736729Y-13327674D02*
X14746253Y-13289579D01*
X14746253Y-13289579D02*
X14755777Y-13270531D01*
X14755777Y-13270531D02*
X14765301Y-13261008D01*
X14765301Y-13261008D02*
X14784348Y-13251484D01*
X14917682Y-13251484D02*
X15051015Y-13251484D01*
X15051015Y-13251484D02*
X14965301Y-13451484D01*
X15155777Y-13337198D02*
X15136729Y-13327674D01*
X15136729Y-13327674D02*
X15127206Y-13318150D01*
X15127206Y-13318150D02*
X15117682Y-13299103D01*
X15117682Y-13299103D02*
X15117682Y-13289579D01*
X15117682Y-13289579D02*
X15127206Y-13270531D01*
X15127206Y-13270531D02*
X15136729Y-13261008D01*
X15136729Y-13261008D02*
X15155777Y-13251484D01*
X15155777Y-13251484D02*
X15193872Y-13251484D01*
X15193872Y-13251484D02*
X15212920Y-13261008D01*
X15212920Y-13261008D02*
X15222444Y-13270531D01*
X15222444Y-13270531D02*
X15231967Y-13289579D01*
X15231967Y-13289579D02*
X15231967Y-13299103D01*
X15231967Y-13299103D02*
X15222444Y-13318150D01*
X15222444Y-13318150D02*
X15212920Y-13327674D01*
X15212920Y-13327674D02*
X15193872Y-13337198D01*
X15193872Y-13337198D02*
X15155777Y-13337198D01*
X15155777Y-13337198D02*
X15136729Y-13346722D01*
X15136729Y-13346722D02*
X15127206Y-13356246D01*
X15127206Y-13356246D02*
X15117682Y-13375293D01*
X15117682Y-13375293D02*
X15117682Y-13413388D01*
X15117682Y-13413388D02*
X15127206Y-13432436D01*
X15127206Y-13432436D02*
X15136729Y-13441960D01*
X15136729Y-13441960D02*
X15155777Y-13451484D01*
X15155777Y-13451484D02*
X15193872Y-13451484D01*
X15193872Y-13451484D02*
X15212920Y-13441960D01*
X15212920Y-13441960D02*
X15222444Y-13432436D01*
X15222444Y-13432436D02*
X15231967Y-13413388D01*
X15231967Y-13413388D02*
X15231967Y-13375293D01*
X15231967Y-13375293D02*
X15222444Y-13356246D01*
X15222444Y-13356246D02*
X15212920Y-13346722D01*
X15212920Y-13346722D02*
X15193872Y-13337198D01*
X15298634Y-13251484D02*
X15431967Y-13251484D01*
X15431967Y-13251484D02*
X15346253Y-13451484D01*
X15498634Y-13251484D02*
X15498634Y-13289579D01*
X15574825Y-13251484D02*
X15574825Y-13289579D01*
X15870063Y-13527674D02*
X15860539Y-13518150D01*
X15860539Y-13518150D02*
X15841491Y-13489579D01*
X15841491Y-13489579D02*
X15831968Y-13470531D01*
X15831968Y-13470531D02*
X15822444Y-13441960D01*
X15822444Y-13441960D02*
X15812920Y-13394341D01*
X15812920Y-13394341D02*
X15812920Y-13356246D01*
X15812920Y-13356246D02*
X15822444Y-13308627D01*
X15822444Y-13308627D02*
X15831968Y-13280055D01*
X15831968Y-13280055D02*
X15841491Y-13261008D01*
X15841491Y-13261008D02*
X15860539Y-13232436D01*
X15860539Y-13232436D02*
X15870063Y-13222912D01*
X16031968Y-13318150D02*
X16031968Y-13451484D01*
X15984348Y-13241960D02*
X15936729Y-13384817D01*
X15936729Y-13384817D02*
X16060539Y-13384817D01*
X16289110Y-13451484D02*
X16289110Y-13251484D01*
X16374825Y-13451484D02*
X16374825Y-13346722D01*
X16374825Y-13346722D02*
X16365301Y-13327674D01*
X16365301Y-13327674D02*
X16346253Y-13318150D01*
X16346253Y-13318150D02*
X16317682Y-13318150D01*
X16317682Y-13318150D02*
X16298634Y-13327674D01*
X16298634Y-13327674D02*
X16289110Y-13337198D01*
X16498634Y-13451484D02*
X16479587Y-13441960D01*
X16479587Y-13441960D02*
X16470063Y-13432436D01*
X16470063Y-13432436D02*
X16460539Y-13413388D01*
X16460539Y-13413388D02*
X16460539Y-13356246D01*
X16460539Y-13356246D02*
X16470063Y-13337198D01*
X16470063Y-13337198D02*
X16479587Y-13327674D01*
X16479587Y-13327674D02*
X16498634Y-13318150D01*
X16498634Y-13318150D02*
X16527206Y-13318150D01*
X16527206Y-13318150D02*
X16546253Y-13327674D01*
X16546253Y-13327674D02*
X16555777Y-13337198D01*
X16555777Y-13337198D02*
X16565301Y-13356246D01*
X16565301Y-13356246D02*
X16565301Y-13413388D01*
X16565301Y-13413388D02*
X16555777Y-13432436D01*
X16555777Y-13432436D02*
X16546253Y-13441960D01*
X16546253Y-13441960D02*
X16527206Y-13451484D01*
X16527206Y-13451484D02*
X16498634Y-13451484D01*
X16679587Y-13451484D02*
X16660539Y-13441960D01*
X16660539Y-13441960D02*
X16651015Y-13422912D01*
X16651015Y-13422912D02*
X16651015Y-13251484D01*
X16831968Y-13441960D02*
X16812920Y-13451484D01*
X16812920Y-13451484D02*
X16774825Y-13451484D01*
X16774825Y-13451484D02*
X16755777Y-13441960D01*
X16755777Y-13441960D02*
X16746253Y-13422912D01*
X16746253Y-13422912D02*
X16746253Y-13346722D01*
X16746253Y-13346722D02*
X16755777Y-13327674D01*
X16755777Y-13327674D02*
X16774825Y-13318150D01*
X16774825Y-13318150D02*
X16812920Y-13318150D01*
X16812920Y-13318150D02*
X16831968Y-13327674D01*
X16831968Y-13327674D02*
X16841492Y-13346722D01*
X16841492Y-13346722D02*
X16841492Y-13365769D01*
X16841492Y-13365769D02*
X16746253Y-13384817D01*
X16917682Y-13441960D02*
X16936730Y-13451484D01*
X16936730Y-13451484D02*
X16974825Y-13451484D01*
X16974825Y-13451484D02*
X16993873Y-13441960D01*
X16993873Y-13441960D02*
X17003396Y-13422912D01*
X17003396Y-13422912D02*
X17003396Y-13413388D01*
X17003396Y-13413388D02*
X16993873Y-13394341D01*
X16993873Y-13394341D02*
X16974825Y-13384817D01*
X16974825Y-13384817D02*
X16946253Y-13384817D01*
X16946253Y-13384817D02*
X16927206Y-13375293D01*
X16927206Y-13375293D02*
X16917682Y-13356246D01*
X16917682Y-13356246D02*
X16917682Y-13346722D01*
X16917682Y-13346722D02*
X16927206Y-13327674D01*
X16927206Y-13327674D02*
X16946253Y-13318150D01*
X16946253Y-13318150D02*
X16974825Y-13318150D01*
X16974825Y-13318150D02*
X16993873Y-13327674D01*
X17070063Y-13527674D02*
X17079587Y-13518150D01*
X17079587Y-13518150D02*
X17098634Y-13489579D01*
X17098634Y-13489579D02*
X17108158Y-13470531D01*
X17108158Y-13470531D02*
X17117682Y-13441960D01*
X17117682Y-13441960D02*
X17127206Y-13394341D01*
X17127206Y-13394341D02*
X17127206Y-13356246D01*
X17127206Y-13356246D02*
X17117682Y-13308627D01*
X17117682Y-13308627D02*
X17108158Y-13280055D01*
X17108158Y-13280055D02*
X17098634Y-13261008D01*
X17098634Y-13261008D02*
X17079587Y-13232436D01*
X17079587Y-13232436D02*
X17070063Y-13222912D01*
X17431968Y-13527674D02*
X17422444Y-13518150D01*
X17422444Y-13518150D02*
X17403396Y-13489579D01*
X17403396Y-13489579D02*
X17393873Y-13470531D01*
X17393873Y-13470531D02*
X17384349Y-13441960D01*
X17384349Y-13441960D02*
X17374825Y-13394341D01*
X17374825Y-13394341D02*
X17374825Y-13356246D01*
X17374825Y-13356246D02*
X17384349Y-13308627D01*
X17384349Y-13308627D02*
X17393873Y-13280055D01*
X17393873Y-13280055D02*
X17403396Y-13261008D01*
X17403396Y-13261008D02*
X17422444Y-13232436D01*
X17422444Y-13232436D02*
X17431968Y-13222912D01*
X17508158Y-13318150D02*
X17508158Y-13451484D01*
X17508158Y-13337198D02*
X17517682Y-13327674D01*
X17517682Y-13327674D02*
X17536730Y-13318150D01*
X17536730Y-13318150D02*
X17565301Y-13318150D01*
X17565301Y-13318150D02*
X17584349Y-13327674D01*
X17584349Y-13327674D02*
X17593873Y-13346722D01*
X17593873Y-13346722D02*
X17593873Y-13451484D01*
X17717682Y-13451484D02*
X17698634Y-13441960D01*
X17698634Y-13441960D02*
X17689111Y-13432436D01*
X17689111Y-13432436D02*
X17679587Y-13413388D01*
X17679587Y-13413388D02*
X17679587Y-13356246D01*
X17679587Y-13356246D02*
X17689111Y-13337198D01*
X17689111Y-13337198D02*
X17698634Y-13327674D01*
X17698634Y-13327674D02*
X17717682Y-13318150D01*
X17717682Y-13318150D02*
X17746254Y-13318150D01*
X17746254Y-13318150D02*
X17765301Y-13327674D01*
X17765301Y-13327674D02*
X17774825Y-13337198D01*
X17774825Y-13337198D02*
X17784349Y-13356246D01*
X17784349Y-13356246D02*
X17784349Y-13413388D01*
X17784349Y-13413388D02*
X17774825Y-13432436D01*
X17774825Y-13432436D02*
X17765301Y-13441960D01*
X17765301Y-13441960D02*
X17746254Y-13451484D01*
X17746254Y-13451484D02*
X17717682Y-13451484D01*
X17841492Y-13318150D02*
X17917682Y-13318150D01*
X17870063Y-13251484D02*
X17870063Y-13422912D01*
X17870063Y-13422912D02*
X17879587Y-13441960D01*
X17879587Y-13441960D02*
X17898634Y-13451484D01*
X17898634Y-13451484D02*
X17917682Y-13451484D01*
X18136730Y-13318150D02*
X18136730Y-13518150D01*
X18136730Y-13327674D02*
X18155777Y-13318150D01*
X18155777Y-13318150D02*
X18193873Y-13318150D01*
X18193873Y-13318150D02*
X18212920Y-13327674D01*
X18212920Y-13327674D02*
X18222444Y-13337198D01*
X18222444Y-13337198D02*
X18231968Y-13356246D01*
X18231968Y-13356246D02*
X18231968Y-13413388D01*
X18231968Y-13413388D02*
X18222444Y-13432436D01*
X18222444Y-13432436D02*
X18212920Y-13441960D01*
X18212920Y-13441960D02*
X18193873Y-13451484D01*
X18193873Y-13451484D02*
X18155777Y-13451484D01*
X18155777Y-13451484D02*
X18136730Y-13441960D01*
X18346254Y-13451484D02*
X18327206Y-13441960D01*
X18327206Y-13441960D02*
X18317682Y-13422912D01*
X18317682Y-13422912D02*
X18317682Y-13251484D01*
X18508158Y-13451484D02*
X18508158Y-13346722D01*
X18508158Y-13346722D02*
X18498635Y-13327674D01*
X18498635Y-13327674D02*
X18479587Y-13318150D01*
X18479587Y-13318150D02*
X18441492Y-13318150D01*
X18441492Y-13318150D02*
X18422444Y-13327674D01*
X18508158Y-13441960D02*
X18489111Y-13451484D01*
X18489111Y-13451484D02*
X18441492Y-13451484D01*
X18441492Y-13451484D02*
X18422444Y-13441960D01*
X18422444Y-13441960D02*
X18412920Y-13422912D01*
X18412920Y-13422912D02*
X18412920Y-13403865D01*
X18412920Y-13403865D02*
X18422444Y-13384817D01*
X18422444Y-13384817D02*
X18441492Y-13375293D01*
X18441492Y-13375293D02*
X18489111Y-13375293D01*
X18489111Y-13375293D02*
X18508158Y-13365769D01*
X18574825Y-13318150D02*
X18651015Y-13318150D01*
X18603396Y-13251484D02*
X18603396Y-13422912D01*
X18603396Y-13422912D02*
X18612920Y-13441960D01*
X18612920Y-13441960D02*
X18631968Y-13451484D01*
X18631968Y-13451484D02*
X18651015Y-13451484D01*
X18793873Y-13441960D02*
X18774825Y-13451484D01*
X18774825Y-13451484D02*
X18736730Y-13451484D01*
X18736730Y-13451484D02*
X18717682Y-13441960D01*
X18717682Y-13441960D02*
X18708158Y-13422912D01*
X18708158Y-13422912D02*
X18708158Y-13346722D01*
X18708158Y-13346722D02*
X18717682Y-13327674D01*
X18717682Y-13327674D02*
X18736730Y-13318150D01*
X18736730Y-13318150D02*
X18774825Y-13318150D01*
X18774825Y-13318150D02*
X18793873Y-13327674D01*
X18793873Y-13327674D02*
X18803396Y-13346722D01*
X18803396Y-13346722D02*
X18803396Y-13365769D01*
X18803396Y-13365769D02*
X18708158Y-13384817D01*
X18974825Y-13451484D02*
X18974825Y-13251484D01*
X18974825Y-13441960D02*
X18955777Y-13451484D01*
X18955777Y-13451484D02*
X18917682Y-13451484D01*
X18917682Y-13451484D02*
X18898635Y-13441960D01*
X18898635Y-13441960D02*
X18889111Y-13432436D01*
X18889111Y-13432436D02*
X18879587Y-13413388D01*
X18879587Y-13413388D02*
X18879587Y-13356246D01*
X18879587Y-13356246D02*
X18889111Y-13337198D01*
X18889111Y-13337198D02*
X18898635Y-13327674D01*
X18898635Y-13327674D02*
X18917682Y-13318150D01*
X18917682Y-13318150D02*
X18955777Y-13318150D01*
X18955777Y-13318150D02*
X18974825Y-13327674D01*
X19051016Y-13527674D02*
X19060539Y-13518150D01*
X19060539Y-13518150D02*
X19079587Y-13489579D01*
X19079587Y-13489579D02*
X19089111Y-13470531D01*
X19089111Y-13470531D02*
X19098635Y-13441960D01*
X19098635Y-13441960D02*
X19108158Y-13394341D01*
X19108158Y-13394341D02*
X19108158Y-13356246D01*
X19108158Y-13356246D02*
X19098635Y-13308627D01*
X19098635Y-13308627D02*
X19089111Y-13280055D01*
X19089111Y-13280055D02*
X19079587Y-13261008D01*
X19079587Y-13261008D02*
X19060539Y-13232436D01*
X19060539Y-13232436D02*
X19051016Y-13222912D01*
M02*
