%TF.GenerationSoftware,KiCad,Pcbnew,10.0.6-10.0.6~ubuntu26.04.1*%
%TF.CreationDate,2026-10-03T10:56:25+02:00*%
%TF.ProjectId,flashcat_p30,666c6173-6863-4617-945f-7033302e6b69,C*%
%TF.SameCoordinates,Original*%
%TF.FileFunction,Legend,Bot*%
%TF.FilePolarity,Positive*%
%FSLAX46Y46*%
G04 Gerber Fmt 4.6, Leading zero omitted, Abs format (unit mm)*
G04 Created by KiCad (PCBNEW 10.0.6-10.0.6~ubuntu26.04.1) date 2026-10-03 10:56:25*
%MOMM*%
%LPD*%
G01*
G04 APERTURE LIST*
G04 Aperture macros list*
%AMRoundRect*
0 Rectangle with rounded corners*
0 $1 Rounding radius*
0 $2 $3 $4 $5 $6 $7 $8 $9 X,Y pos of 4 corners*
0 Add a 4 corners polygon primitive as box body*
4,1,4,$2,$3,$4,$5,$6,$7,$8,$9,$2,$3,0*
0 Add four circle primitives for the rounded corners*
1,1,$1+$1,$2,$3*
1,1,$1+$1,$4,$5*
1,1,$1+$1,$6,$7*
1,1,$1+$1,$8,$9*
0 Add four rect primitives between the rounded corners*
20,1,$1+$1,$2,$3,$4,$5,0*
20,1,$1+$1,$4,$5,$6,$7,0*
20,1,$1+$1,$6,$7,$8,$9,0*
20,1,$1+$1,$8,$9,$2,$3,0*%
G04 Aperture macros list end*
%ADD10C,0.150000*%
%ADD11C,0.120000*%
%ADD12C,2.000000*%
%ADD13C,1.530000*%
%ADD14C,1.830000*%
%ADD15RoundRect,0.225000X-0.250000X0.225000X-0.250000X-0.225000X0.250000X-0.225000X0.250000X0.225000X0*%
%ADD16RoundRect,0.225000X0.225000X0.250000X-0.225000X0.250000X-0.225000X-0.250000X0.225000X-0.250000X0*%
%ADD17R,1.350000X1.350000*%
%ADD18C,1.350000*%
%ADD19RoundRect,0.150000X0.150000X-0.512500X0.150000X0.512500X-0.150000X0.512500X-0.150000X-0.512500X0*%
%ADD20RoundRect,0.200000X0.275000X-0.200000X0.275000X0.200000X-0.275000X0.200000X-0.275000X-0.200000X0*%
%ADD21RoundRect,0.225000X0.250000X-0.225000X0.250000X0.225000X-0.250000X0.225000X-0.250000X-0.225000X0*%
%ADD22RoundRect,0.225000X-0.225000X-0.250000X0.225000X-0.250000X0.225000X0.250000X-0.225000X0.250000X0*%
G04 APERTURE END LIST*
D10*
X131631009Y-94976189D02*
X131631009Y-94642856D01*
X132154819Y-94642856D02*
X131154819Y-94642856D01*
X131154819Y-94642856D02*
X131154819Y-95119046D01*
X132154819Y-95642856D02*
X132107200Y-95547618D01*
X132107200Y-95547618D02*
X132011961Y-95499999D01*
X132011961Y-95499999D02*
X131154819Y-95499999D01*
X132154819Y-96452380D02*
X131631009Y-96452380D01*
X131631009Y-96452380D02*
X131535771Y-96404761D01*
X131535771Y-96404761D02*
X131488152Y-96309523D01*
X131488152Y-96309523D02*
X131488152Y-96119047D01*
X131488152Y-96119047D02*
X131535771Y-96023809D01*
X132107200Y-96452380D02*
X132154819Y-96357142D01*
X132154819Y-96357142D02*
X132154819Y-96119047D01*
X132154819Y-96119047D02*
X132107200Y-96023809D01*
X132107200Y-96023809D02*
X132011961Y-95976190D01*
X132011961Y-95976190D02*
X131916723Y-95976190D01*
X131916723Y-95976190D02*
X131821485Y-96023809D01*
X131821485Y-96023809D02*
X131773866Y-96119047D01*
X131773866Y-96119047D02*
X131773866Y-96357142D01*
X131773866Y-96357142D02*
X131726247Y-96452380D01*
X132107200Y-96880952D02*
X132154819Y-96976190D01*
X132154819Y-96976190D02*
X132154819Y-97166666D01*
X132154819Y-97166666D02*
X132107200Y-97261904D01*
X132107200Y-97261904D02*
X132011961Y-97309523D01*
X132011961Y-97309523D02*
X131964342Y-97309523D01*
X131964342Y-97309523D02*
X131869104Y-97261904D01*
X131869104Y-97261904D02*
X131821485Y-97166666D01*
X131821485Y-97166666D02*
X131821485Y-97023809D01*
X131821485Y-97023809D02*
X131773866Y-96928571D01*
X131773866Y-96928571D02*
X131678628Y-96880952D01*
X131678628Y-96880952D02*
X131631009Y-96880952D01*
X131631009Y-96880952D02*
X131535771Y-96928571D01*
X131535771Y-96928571D02*
X131488152Y-97023809D01*
X131488152Y-97023809D02*
X131488152Y-97166666D01*
X131488152Y-97166666D02*
X131535771Y-97261904D01*
X132154819Y-97738095D02*
X131154819Y-97738095D01*
X132154819Y-98166666D02*
X131631009Y-98166666D01*
X131631009Y-98166666D02*
X131535771Y-98119047D01*
X131535771Y-98119047D02*
X131488152Y-98023809D01*
X131488152Y-98023809D02*
X131488152Y-97880952D01*
X131488152Y-97880952D02*
X131535771Y-97785714D01*
X131535771Y-97785714D02*
X131583390Y-97738095D01*
X132059580Y-99214285D02*
X132107200Y-99166666D01*
X132107200Y-99166666D02*
X132154819Y-99023809D01*
X132154819Y-99023809D02*
X132154819Y-98928571D01*
X132154819Y-98928571D02*
X132107200Y-98785714D01*
X132107200Y-98785714D02*
X132011961Y-98690476D01*
X132011961Y-98690476D02*
X131916723Y-98642857D01*
X131916723Y-98642857D02*
X131726247Y-98595238D01*
X131726247Y-98595238D02*
X131583390Y-98595238D01*
X131583390Y-98595238D02*
X131392914Y-98642857D01*
X131392914Y-98642857D02*
X131297676Y-98690476D01*
X131297676Y-98690476D02*
X131202438Y-98785714D01*
X131202438Y-98785714D02*
X131154819Y-98928571D01*
X131154819Y-98928571D02*
X131154819Y-99023809D01*
X131154819Y-99023809D02*
X131202438Y-99166666D01*
X131202438Y-99166666D02*
X131250057Y-99214285D01*
X131869104Y-99595238D02*
X131869104Y-100071428D01*
X132154819Y-99500000D02*
X131154819Y-99833333D01*
X131154819Y-99833333D02*
X132154819Y-100166666D01*
X131154819Y-100357143D02*
X131154819Y-100928571D01*
X132154819Y-100642857D02*
X131154819Y-100642857D01*
X132154819Y-102023810D02*
X131154819Y-102023810D01*
X131154819Y-102023810D02*
X131154819Y-102404762D01*
X131154819Y-102404762D02*
X131202438Y-102500000D01*
X131202438Y-102500000D02*
X131250057Y-102547619D01*
X131250057Y-102547619D02*
X131345295Y-102595238D01*
X131345295Y-102595238D02*
X131488152Y-102595238D01*
X131488152Y-102595238D02*
X131583390Y-102547619D01*
X131583390Y-102547619D02*
X131631009Y-102500000D01*
X131631009Y-102500000D02*
X131678628Y-102404762D01*
X131678628Y-102404762D02*
X131678628Y-102023810D01*
X131154819Y-102928572D02*
X131154819Y-103547619D01*
X131154819Y-103547619D02*
X131535771Y-103214286D01*
X131535771Y-103214286D02*
X131535771Y-103357143D01*
X131535771Y-103357143D02*
X131583390Y-103452381D01*
X131583390Y-103452381D02*
X131631009Y-103500000D01*
X131631009Y-103500000D02*
X131726247Y-103547619D01*
X131726247Y-103547619D02*
X131964342Y-103547619D01*
X131964342Y-103547619D02*
X132059580Y-103500000D01*
X132059580Y-103500000D02*
X132107200Y-103452381D01*
X132107200Y-103452381D02*
X132154819Y-103357143D01*
X132154819Y-103357143D02*
X132154819Y-103071429D01*
X132154819Y-103071429D02*
X132107200Y-102976191D01*
X132107200Y-102976191D02*
X132059580Y-102928572D01*
X131154819Y-104166667D02*
X131154819Y-104261905D01*
X131154819Y-104261905D02*
X131202438Y-104357143D01*
X131202438Y-104357143D02*
X131250057Y-104404762D01*
X131250057Y-104404762D02*
X131345295Y-104452381D01*
X131345295Y-104452381D02*
X131535771Y-104500000D01*
X131535771Y-104500000D02*
X131773866Y-104500000D01*
X131773866Y-104500000D02*
X131964342Y-104452381D01*
X131964342Y-104452381D02*
X132059580Y-104404762D01*
X132059580Y-104404762D02*
X132107200Y-104357143D01*
X132107200Y-104357143D02*
X132154819Y-104261905D01*
X132154819Y-104261905D02*
X132154819Y-104166667D01*
X132154819Y-104166667D02*
X132107200Y-104071429D01*
X132107200Y-104071429D02*
X132059580Y-104023810D01*
X132059580Y-104023810D02*
X131964342Y-103976191D01*
X131964342Y-103976191D02*
X131773866Y-103928572D01*
X131773866Y-103928572D02*
X131535771Y-103928572D01*
X131535771Y-103928572D02*
X131345295Y-103976191D01*
X131345295Y-103976191D02*
X131250057Y-104023810D01*
X131250057Y-104023810D02*
X131202438Y-104071429D01*
X131202438Y-104071429D02*
X131154819Y-104166667D01*
X131631009Y-105690477D02*
X131631009Y-106023810D01*
X132154819Y-106166667D02*
X132154819Y-105690477D01*
X132154819Y-105690477D02*
X131154819Y-105690477D01*
X131154819Y-105690477D02*
X131154819Y-106166667D01*
X132154819Y-107023810D02*
X131631009Y-107023810D01*
X131631009Y-107023810D02*
X131535771Y-106976191D01*
X131535771Y-106976191D02*
X131488152Y-106880953D01*
X131488152Y-106880953D02*
X131488152Y-106690477D01*
X131488152Y-106690477D02*
X131535771Y-106595239D01*
X132107200Y-107023810D02*
X132154819Y-106928572D01*
X132154819Y-106928572D02*
X132154819Y-106690477D01*
X132154819Y-106690477D02*
X132107200Y-106595239D01*
X132107200Y-106595239D02*
X132011961Y-106547620D01*
X132011961Y-106547620D02*
X131916723Y-106547620D01*
X131916723Y-106547620D02*
X131821485Y-106595239D01*
X131821485Y-106595239D02*
X131773866Y-106690477D01*
X131773866Y-106690477D02*
X131773866Y-106928572D01*
X131773866Y-106928572D02*
X131726247Y-107023810D01*
X132107200Y-107452382D02*
X132154819Y-107547620D01*
X132154819Y-107547620D02*
X132154819Y-107738096D01*
X132154819Y-107738096D02*
X132107200Y-107833334D01*
X132107200Y-107833334D02*
X132011961Y-107880953D01*
X132011961Y-107880953D02*
X131964342Y-107880953D01*
X131964342Y-107880953D02*
X131869104Y-107833334D01*
X131869104Y-107833334D02*
X131821485Y-107738096D01*
X131821485Y-107738096D02*
X131821485Y-107595239D01*
X131821485Y-107595239D02*
X131773866Y-107500001D01*
X131773866Y-107500001D02*
X131678628Y-107452382D01*
X131678628Y-107452382D02*
X131631009Y-107452382D01*
X131631009Y-107452382D02*
X131535771Y-107500001D01*
X131535771Y-107500001D02*
X131488152Y-107595239D01*
X131488152Y-107595239D02*
X131488152Y-107738096D01*
X131488152Y-107738096D02*
X131535771Y-107833334D01*
X131488152Y-108214287D02*
X132154819Y-108452382D01*
X131488152Y-108690477D02*
X132154819Y-108452382D01*
X132154819Y-108452382D02*
X132392914Y-108357144D01*
X132392914Y-108357144D02*
X132440533Y-108309525D01*
X132440533Y-108309525D02*
X132488152Y-108214287D01*
X131631009Y-110166668D02*
X131678628Y-110309525D01*
X131678628Y-110309525D02*
X131726247Y-110357144D01*
X131726247Y-110357144D02*
X131821485Y-110404763D01*
X131821485Y-110404763D02*
X131964342Y-110404763D01*
X131964342Y-110404763D02*
X132059580Y-110357144D01*
X132059580Y-110357144D02*
X132107200Y-110309525D01*
X132107200Y-110309525D02*
X132154819Y-110214287D01*
X132154819Y-110214287D02*
X132154819Y-109833335D01*
X132154819Y-109833335D02*
X131154819Y-109833335D01*
X131154819Y-109833335D02*
X131154819Y-110166668D01*
X131154819Y-110166668D02*
X131202438Y-110261906D01*
X131202438Y-110261906D02*
X131250057Y-110309525D01*
X131250057Y-110309525D02*
X131345295Y-110357144D01*
X131345295Y-110357144D02*
X131440533Y-110357144D01*
X131440533Y-110357144D02*
X131535771Y-110309525D01*
X131535771Y-110309525D02*
X131583390Y-110261906D01*
X131583390Y-110261906D02*
X131631009Y-110166668D01*
X131631009Y-110166668D02*
X131631009Y-109833335D01*
X131202438Y-111357144D02*
X131154819Y-111261906D01*
X131154819Y-111261906D02*
X131154819Y-111119049D01*
X131154819Y-111119049D02*
X131202438Y-110976192D01*
X131202438Y-110976192D02*
X131297676Y-110880954D01*
X131297676Y-110880954D02*
X131392914Y-110833335D01*
X131392914Y-110833335D02*
X131583390Y-110785716D01*
X131583390Y-110785716D02*
X131726247Y-110785716D01*
X131726247Y-110785716D02*
X131916723Y-110833335D01*
X131916723Y-110833335D02*
X132011961Y-110880954D01*
X132011961Y-110880954D02*
X132107200Y-110976192D01*
X132107200Y-110976192D02*
X132154819Y-111119049D01*
X132154819Y-111119049D02*
X132154819Y-111214287D01*
X132154819Y-111214287D02*
X132107200Y-111357144D01*
X132107200Y-111357144D02*
X132059580Y-111404763D01*
X132059580Y-111404763D02*
X131726247Y-111404763D01*
X131726247Y-111404763D02*
X131726247Y-111214287D01*
X131869104Y-111785716D02*
X131869104Y-112261906D01*
X132154819Y-111690478D02*
X131154819Y-112023811D01*
X131154819Y-112023811D02*
X132154819Y-112357144D01*
X131773866Y-112690478D02*
X131773866Y-113452383D01*
X131154819Y-114357144D02*
X131154819Y-114166668D01*
X131154819Y-114166668D02*
X131202438Y-114071430D01*
X131202438Y-114071430D02*
X131250057Y-114023811D01*
X131250057Y-114023811D02*
X131392914Y-113928573D01*
X131392914Y-113928573D02*
X131583390Y-113880954D01*
X131583390Y-113880954D02*
X131964342Y-113880954D01*
X131964342Y-113880954D02*
X132059580Y-113928573D01*
X132059580Y-113928573D02*
X132107200Y-113976192D01*
X132107200Y-113976192D02*
X132154819Y-114071430D01*
X132154819Y-114071430D02*
X132154819Y-114261906D01*
X132154819Y-114261906D02*
X132107200Y-114357144D01*
X132107200Y-114357144D02*
X132059580Y-114404763D01*
X132059580Y-114404763D02*
X131964342Y-114452382D01*
X131964342Y-114452382D02*
X131726247Y-114452382D01*
X131726247Y-114452382D02*
X131631009Y-114404763D01*
X131631009Y-114404763D02*
X131583390Y-114357144D01*
X131583390Y-114357144D02*
X131535771Y-114261906D01*
X131535771Y-114261906D02*
X131535771Y-114071430D01*
X131535771Y-114071430D02*
X131583390Y-113976192D01*
X131583390Y-113976192D02*
X131631009Y-113928573D01*
X131631009Y-113928573D02*
X131726247Y-113880954D01*
X131488152Y-115309525D02*
X132154819Y-115309525D01*
X131107200Y-115071430D02*
X131821485Y-114833335D01*
X131821485Y-114833335D02*
X131821485Y-115452382D01*
X133954819Y-94952381D02*
X132954819Y-94952381D01*
X133431009Y-94952381D02*
X133431009Y-95523809D01*
X133954819Y-95523809D02*
X132954819Y-95523809D01*
X133954819Y-96000000D02*
X132954819Y-96000000D01*
X132954819Y-96000000D02*
X133669104Y-96333333D01*
X133669104Y-96333333D02*
X132954819Y-96666666D01*
X132954819Y-96666666D02*
X133954819Y-96666666D01*
X133954819Y-97142857D02*
X132954819Y-97142857D01*
X133954819Y-98095237D02*
X133954819Y-97619047D01*
X133954819Y-97619047D02*
X132954819Y-97619047D01*
X132954819Y-98428571D02*
X133764342Y-98428571D01*
X133764342Y-98428571D02*
X133859580Y-98476190D01*
X133859580Y-98476190D02*
X133907200Y-98523809D01*
X133907200Y-98523809D02*
X133954819Y-98619047D01*
X133954819Y-98619047D02*
X133954819Y-98809523D01*
X133954819Y-98809523D02*
X133907200Y-98904761D01*
X133907200Y-98904761D02*
X133859580Y-98952380D01*
X133859580Y-98952380D02*
X133764342Y-98999999D01*
X133764342Y-98999999D02*
X132954819Y-98999999D01*
X133431009Y-100571428D02*
X133478628Y-100714285D01*
X133478628Y-100714285D02*
X133526247Y-100761904D01*
X133526247Y-100761904D02*
X133621485Y-100809523D01*
X133621485Y-100809523D02*
X133764342Y-100809523D01*
X133764342Y-100809523D02*
X133859580Y-100761904D01*
X133859580Y-100761904D02*
X133907200Y-100714285D01*
X133907200Y-100714285D02*
X133954819Y-100619047D01*
X133954819Y-100619047D02*
X133954819Y-100238095D01*
X133954819Y-100238095D02*
X132954819Y-100238095D01*
X132954819Y-100238095D02*
X132954819Y-100571428D01*
X132954819Y-100571428D02*
X133002438Y-100666666D01*
X133002438Y-100666666D02*
X133050057Y-100714285D01*
X133050057Y-100714285D02*
X133145295Y-100761904D01*
X133145295Y-100761904D02*
X133240533Y-100761904D01*
X133240533Y-100761904D02*
X133335771Y-100714285D01*
X133335771Y-100714285D02*
X133383390Y-100666666D01*
X133383390Y-100666666D02*
X133431009Y-100571428D01*
X133431009Y-100571428D02*
X133431009Y-100238095D01*
X133002438Y-101761904D02*
X132954819Y-101666666D01*
X132954819Y-101666666D02*
X132954819Y-101523809D01*
X132954819Y-101523809D02*
X133002438Y-101380952D01*
X133002438Y-101380952D02*
X133097676Y-101285714D01*
X133097676Y-101285714D02*
X133192914Y-101238095D01*
X133192914Y-101238095D02*
X133383390Y-101190476D01*
X133383390Y-101190476D02*
X133526247Y-101190476D01*
X133526247Y-101190476D02*
X133716723Y-101238095D01*
X133716723Y-101238095D02*
X133811961Y-101285714D01*
X133811961Y-101285714D02*
X133907200Y-101380952D01*
X133907200Y-101380952D02*
X133954819Y-101523809D01*
X133954819Y-101523809D02*
X133954819Y-101619047D01*
X133954819Y-101619047D02*
X133907200Y-101761904D01*
X133907200Y-101761904D02*
X133859580Y-101809523D01*
X133859580Y-101809523D02*
X133526247Y-101809523D01*
X133526247Y-101809523D02*
X133526247Y-101619047D01*
X133669104Y-102190476D02*
X133669104Y-102666666D01*
X133954819Y-102095238D02*
X132954819Y-102428571D01*
X132954819Y-102428571D02*
X133954819Y-102761904D01*
X132954819Y-103523809D02*
X132954819Y-103333333D01*
X132954819Y-103333333D02*
X133002438Y-103238095D01*
X133002438Y-103238095D02*
X133050057Y-103190476D01*
X133050057Y-103190476D02*
X133192914Y-103095238D01*
X133192914Y-103095238D02*
X133383390Y-103047619D01*
X133383390Y-103047619D02*
X133764342Y-103047619D01*
X133764342Y-103047619D02*
X133859580Y-103095238D01*
X133859580Y-103095238D02*
X133907200Y-103142857D01*
X133907200Y-103142857D02*
X133954819Y-103238095D01*
X133954819Y-103238095D02*
X133954819Y-103428571D01*
X133954819Y-103428571D02*
X133907200Y-103523809D01*
X133907200Y-103523809D02*
X133859580Y-103571428D01*
X133859580Y-103571428D02*
X133764342Y-103619047D01*
X133764342Y-103619047D02*
X133526247Y-103619047D01*
X133526247Y-103619047D02*
X133431009Y-103571428D01*
X133431009Y-103571428D02*
X133383390Y-103523809D01*
X133383390Y-103523809D02*
X133335771Y-103428571D01*
X133335771Y-103428571D02*
X133335771Y-103238095D01*
X133335771Y-103238095D02*
X133383390Y-103142857D01*
X133383390Y-103142857D02*
X133431009Y-103095238D01*
X133431009Y-103095238D02*
X133526247Y-103047619D01*
X133288152Y-104476190D02*
X133954819Y-104476190D01*
X132907200Y-104238095D02*
X133621485Y-104000000D01*
X133621485Y-104000000D02*
X133621485Y-104619047D01*
X133573866Y-105000000D02*
X133573866Y-105761905D01*
X133954819Y-106761904D02*
X133954819Y-106190476D01*
X133954819Y-106476190D02*
X132954819Y-106476190D01*
X132954819Y-106476190D02*
X133097676Y-106380952D01*
X133097676Y-106380952D02*
X133192914Y-106285714D01*
X133192914Y-106285714D02*
X133240533Y-106190476D01*
X133859580Y-107190476D02*
X133907200Y-107238095D01*
X133907200Y-107238095D02*
X133954819Y-107190476D01*
X133954819Y-107190476D02*
X133907200Y-107142857D01*
X133907200Y-107142857D02*
X133859580Y-107190476D01*
X133859580Y-107190476D02*
X133954819Y-107190476D01*
X132954819Y-107857142D02*
X132954819Y-107952380D01*
X132954819Y-107952380D02*
X133002438Y-108047618D01*
X133002438Y-108047618D02*
X133050057Y-108095237D01*
X133050057Y-108095237D02*
X133145295Y-108142856D01*
X133145295Y-108142856D02*
X133335771Y-108190475D01*
X133335771Y-108190475D02*
X133573866Y-108190475D01*
X133573866Y-108190475D02*
X133764342Y-108142856D01*
X133764342Y-108142856D02*
X133859580Y-108095237D01*
X133859580Y-108095237D02*
X133907200Y-108047618D01*
X133907200Y-108047618D02*
X133954819Y-107952380D01*
X133954819Y-107952380D02*
X133954819Y-107857142D01*
X133954819Y-107857142D02*
X133907200Y-107761904D01*
X133907200Y-107761904D02*
X133859580Y-107714285D01*
X133859580Y-107714285D02*
X133764342Y-107666666D01*
X133764342Y-107666666D02*
X133573866Y-107619047D01*
X133573866Y-107619047D02*
X133335771Y-107619047D01*
X133335771Y-107619047D02*
X133145295Y-107666666D01*
X133145295Y-107666666D02*
X133050057Y-107714285D01*
X133050057Y-107714285D02*
X133002438Y-107761904D01*
X133002438Y-107761904D02*
X132954819Y-107857142D01*
X133573866Y-108619047D02*
X133573866Y-109380952D01*
X132954819Y-109714285D02*
X132954819Y-110285713D01*
X133954819Y-109999999D02*
X132954819Y-109999999D01*
X133954819Y-110619047D02*
X132954819Y-110619047D01*
X132954819Y-110619047D02*
X132954819Y-110999999D01*
X132954819Y-110999999D02*
X133002438Y-111095237D01*
X133002438Y-111095237D02*
X133050057Y-111142856D01*
X133050057Y-111142856D02*
X133145295Y-111190475D01*
X133145295Y-111190475D02*
X133288152Y-111190475D01*
X133288152Y-111190475D02*
X133383390Y-111142856D01*
X133383390Y-111142856D02*
X133431009Y-111095237D01*
X133431009Y-111095237D02*
X133478628Y-110999999D01*
X133478628Y-110999999D02*
X133478628Y-110619047D01*
X133050057Y-111571428D02*
X133002438Y-111619047D01*
X133002438Y-111619047D02*
X132954819Y-111714285D01*
X132954819Y-111714285D02*
X132954819Y-111952380D01*
X132954819Y-111952380D02*
X133002438Y-112047618D01*
X133002438Y-112047618D02*
X133050057Y-112095237D01*
X133050057Y-112095237D02*
X133145295Y-112142856D01*
X133145295Y-112142856D02*
X133240533Y-112142856D01*
X133240533Y-112142856D02*
X133383390Y-112095237D01*
X133383390Y-112095237D02*
X133954819Y-111523809D01*
X133954819Y-111523809D02*
X133954819Y-112142856D01*
X133954819Y-113095237D02*
X133954819Y-112523809D01*
X133954819Y-112809523D02*
X132954819Y-112809523D01*
X132954819Y-112809523D02*
X133097676Y-112714285D01*
X133097676Y-112714285D02*
X133192914Y-112619047D01*
X133192914Y-112619047D02*
X133240533Y-112523809D01*
X133954819Y-113523809D02*
X132954819Y-113523809D01*
X132954819Y-113523809D02*
X133954819Y-114095237D01*
X133954819Y-114095237D02*
X132954819Y-114095237D01*
X133907200Y-114523809D02*
X133954819Y-114666666D01*
X133954819Y-114666666D02*
X133954819Y-114904761D01*
X133954819Y-114904761D02*
X133907200Y-114999999D01*
X133907200Y-114999999D02*
X133859580Y-115047618D01*
X133859580Y-115047618D02*
X133764342Y-115095237D01*
X133764342Y-115095237D02*
X133669104Y-115095237D01*
X133669104Y-115095237D02*
X133573866Y-115047618D01*
X133573866Y-115047618D02*
X133526247Y-114999999D01*
X133526247Y-114999999D02*
X133478628Y-114904761D01*
X133478628Y-114904761D02*
X133431009Y-114714285D01*
X133431009Y-114714285D02*
X133383390Y-114619047D01*
X133383390Y-114619047D02*
X133335771Y-114571428D01*
X133335771Y-114571428D02*
X133240533Y-114523809D01*
X133240533Y-114523809D02*
X133145295Y-114523809D01*
X133145295Y-114523809D02*
X133050057Y-114571428D01*
X133050057Y-114571428D02*
X133002438Y-114619047D01*
X133002438Y-114619047D02*
X132954819Y-114714285D01*
X132954819Y-114714285D02*
X132954819Y-114952380D01*
X132954819Y-114952380D02*
X133002438Y-115095237D01*
X164954819Y-98999999D02*
X164288152Y-98999999D01*
X164478628Y-98999999D02*
X164383390Y-99047618D01*
X164383390Y-99047618D02*
X164335771Y-99095237D01*
X164335771Y-99095237D02*
X164288152Y-99190475D01*
X164288152Y-99190475D02*
X164288152Y-99285713D01*
X164907200Y-99999999D02*
X164954819Y-99904761D01*
X164954819Y-99904761D02*
X164954819Y-99714285D01*
X164954819Y-99714285D02*
X164907200Y-99619047D01*
X164907200Y-99619047D02*
X164811961Y-99571428D01*
X164811961Y-99571428D02*
X164431009Y-99571428D01*
X164431009Y-99571428D02*
X164335771Y-99619047D01*
X164335771Y-99619047D02*
X164288152Y-99714285D01*
X164288152Y-99714285D02*
X164288152Y-99904761D01*
X164288152Y-99904761D02*
X164335771Y-99999999D01*
X164335771Y-99999999D02*
X164431009Y-100047618D01*
X164431009Y-100047618D02*
X164526247Y-100047618D01*
X164526247Y-100047618D02*
X164621485Y-99571428D01*
X164288152Y-100380952D02*
X164954819Y-100619047D01*
X164954819Y-100619047D02*
X164288152Y-100857142D01*
X164859580Y-102571428D02*
X164907200Y-102523809D01*
X164907200Y-102523809D02*
X164954819Y-102380952D01*
X164954819Y-102380952D02*
X164954819Y-102285714D01*
X164954819Y-102285714D02*
X164907200Y-102142857D01*
X164907200Y-102142857D02*
X164811961Y-102047619D01*
X164811961Y-102047619D02*
X164716723Y-102000000D01*
X164716723Y-102000000D02*
X164526247Y-101952381D01*
X164526247Y-101952381D02*
X164383390Y-101952381D01*
X164383390Y-101952381D02*
X164192914Y-102000000D01*
X164192914Y-102000000D02*
X164097676Y-102047619D01*
X164097676Y-102047619D02*
X164002438Y-102142857D01*
X164002438Y-102142857D02*
X163954819Y-102285714D01*
X163954819Y-102285714D02*
X163954819Y-102380952D01*
X163954819Y-102380952D02*
X164002438Y-102523809D01*
X164002438Y-102523809D02*
X164050057Y-102571428D01*
X164050057Y-104476191D02*
X164002438Y-104523810D01*
X164002438Y-104523810D02*
X163954819Y-104619048D01*
X163954819Y-104619048D02*
X163954819Y-104857143D01*
X163954819Y-104857143D02*
X164002438Y-104952381D01*
X164002438Y-104952381D02*
X164050057Y-105000000D01*
X164050057Y-105000000D02*
X164145295Y-105047619D01*
X164145295Y-105047619D02*
X164240533Y-105047619D01*
X164240533Y-105047619D02*
X164383390Y-105000000D01*
X164383390Y-105000000D02*
X164954819Y-104428572D01*
X164954819Y-104428572D02*
X164954819Y-105047619D01*
X163954819Y-105666667D02*
X163954819Y-105761905D01*
X163954819Y-105761905D02*
X164002438Y-105857143D01*
X164002438Y-105857143D02*
X164050057Y-105904762D01*
X164050057Y-105904762D02*
X164145295Y-105952381D01*
X164145295Y-105952381D02*
X164335771Y-106000000D01*
X164335771Y-106000000D02*
X164573866Y-106000000D01*
X164573866Y-106000000D02*
X164764342Y-105952381D01*
X164764342Y-105952381D02*
X164859580Y-105904762D01*
X164859580Y-105904762D02*
X164907200Y-105857143D01*
X164907200Y-105857143D02*
X164954819Y-105761905D01*
X164954819Y-105761905D02*
X164954819Y-105666667D01*
X164954819Y-105666667D02*
X164907200Y-105571429D01*
X164907200Y-105571429D02*
X164859580Y-105523810D01*
X164859580Y-105523810D02*
X164764342Y-105476191D01*
X164764342Y-105476191D02*
X164573866Y-105428572D01*
X164573866Y-105428572D02*
X164335771Y-105428572D01*
X164335771Y-105428572D02*
X164145295Y-105476191D01*
X164145295Y-105476191D02*
X164050057Y-105523810D01*
X164050057Y-105523810D02*
X164002438Y-105571429D01*
X164002438Y-105571429D02*
X163954819Y-105666667D01*
X164050057Y-106380953D02*
X164002438Y-106428572D01*
X164002438Y-106428572D02*
X163954819Y-106523810D01*
X163954819Y-106523810D02*
X163954819Y-106761905D01*
X163954819Y-106761905D02*
X164002438Y-106857143D01*
X164002438Y-106857143D02*
X164050057Y-106904762D01*
X164050057Y-106904762D02*
X164145295Y-106952381D01*
X164145295Y-106952381D02*
X164240533Y-106952381D01*
X164240533Y-106952381D02*
X164383390Y-106904762D01*
X164383390Y-106904762D02*
X164954819Y-106333334D01*
X164954819Y-106333334D02*
X164954819Y-106952381D01*
X163954819Y-107809524D02*
X163954819Y-107619048D01*
X163954819Y-107619048D02*
X164002438Y-107523810D01*
X164002438Y-107523810D02*
X164050057Y-107476191D01*
X164050057Y-107476191D02*
X164192914Y-107380953D01*
X164192914Y-107380953D02*
X164383390Y-107333334D01*
X164383390Y-107333334D02*
X164764342Y-107333334D01*
X164764342Y-107333334D02*
X164859580Y-107380953D01*
X164859580Y-107380953D02*
X164907200Y-107428572D01*
X164907200Y-107428572D02*
X164954819Y-107523810D01*
X164954819Y-107523810D02*
X164954819Y-107714286D01*
X164954819Y-107714286D02*
X164907200Y-107809524D01*
X164907200Y-107809524D02*
X164859580Y-107857143D01*
X164859580Y-107857143D02*
X164764342Y-107904762D01*
X164764342Y-107904762D02*
X164526247Y-107904762D01*
X164526247Y-107904762D02*
X164431009Y-107857143D01*
X164431009Y-107857143D02*
X164383390Y-107809524D01*
X164383390Y-107809524D02*
X164335771Y-107714286D01*
X164335771Y-107714286D02*
X164335771Y-107523810D01*
X164335771Y-107523810D02*
X164383390Y-107428572D01*
X164383390Y-107428572D02*
X164431009Y-107380953D01*
X164431009Y-107380953D02*
X164526247Y-107333334D01*
X164573866Y-108333334D02*
X164573866Y-109095239D01*
X164954819Y-110095238D02*
X164954819Y-109523810D01*
X164954819Y-109809524D02*
X163954819Y-109809524D01*
X163954819Y-109809524D02*
X164097676Y-109714286D01*
X164097676Y-109714286D02*
X164192914Y-109619048D01*
X164192914Y-109619048D02*
X164240533Y-109523810D01*
X163954819Y-110714286D02*
X163954819Y-110809524D01*
X163954819Y-110809524D02*
X164002438Y-110904762D01*
X164002438Y-110904762D02*
X164050057Y-110952381D01*
X164050057Y-110952381D02*
X164145295Y-111000000D01*
X164145295Y-111000000D02*
X164335771Y-111047619D01*
X164335771Y-111047619D02*
X164573866Y-111047619D01*
X164573866Y-111047619D02*
X164764342Y-111000000D01*
X164764342Y-111000000D02*
X164859580Y-110952381D01*
X164859580Y-110952381D02*
X164907200Y-110904762D01*
X164907200Y-110904762D02*
X164954819Y-110809524D01*
X164954819Y-110809524D02*
X164954819Y-110714286D01*
X164954819Y-110714286D02*
X164907200Y-110619048D01*
X164907200Y-110619048D02*
X164859580Y-110571429D01*
X164859580Y-110571429D02*
X164764342Y-110523810D01*
X164764342Y-110523810D02*
X164573866Y-110476191D01*
X164573866Y-110476191D02*
X164335771Y-110476191D01*
X164335771Y-110476191D02*
X164145295Y-110523810D01*
X164145295Y-110523810D02*
X164050057Y-110571429D01*
X164050057Y-110571429D02*
X164002438Y-110619048D01*
X164002438Y-110619048D02*
X163954819Y-110714286D01*
X146866666Y-111984580D02*
X146914285Y-112032200D01*
X146914285Y-112032200D02*
X147057142Y-112079819D01*
X147057142Y-112079819D02*
X147152380Y-112079819D01*
X147152380Y-112079819D02*
X147295237Y-112032200D01*
X147295237Y-112032200D02*
X147390475Y-111936961D01*
X147390475Y-111936961D02*
X147438094Y-111841723D01*
X147438094Y-111841723D02*
X147485713Y-111651247D01*
X147485713Y-111651247D02*
X147485713Y-111508390D01*
X147485713Y-111508390D02*
X147438094Y-111317914D01*
X147438094Y-111317914D02*
X147390475Y-111222676D01*
X147390475Y-111222676D02*
X147295237Y-111127438D01*
X147295237Y-111127438D02*
X147152380Y-111079819D01*
X147152380Y-111079819D02*
X147057142Y-111079819D01*
X147057142Y-111079819D02*
X146914285Y-111127438D01*
X146914285Y-111127438D02*
X146866666Y-111175057D01*
X146009523Y-111413152D02*
X146009523Y-112079819D01*
X146247618Y-111032200D02*
X146485713Y-111746485D01*
X146485713Y-111746485D02*
X145866666Y-111746485D01*
X143226667Y-106809580D02*
X143274286Y-106857200D01*
X143274286Y-106857200D02*
X143417143Y-106904819D01*
X143417143Y-106904819D02*
X143512381Y-106904819D01*
X143512381Y-106904819D02*
X143655238Y-106857200D01*
X143655238Y-106857200D02*
X143750476Y-106761961D01*
X143750476Y-106761961D02*
X143798095Y-106666723D01*
X143798095Y-106666723D02*
X143845714Y-106476247D01*
X143845714Y-106476247D02*
X143845714Y-106333390D01*
X143845714Y-106333390D02*
X143798095Y-106142914D01*
X143798095Y-106142914D02*
X143750476Y-106047676D01*
X143750476Y-106047676D02*
X143655238Y-105952438D01*
X143655238Y-105952438D02*
X143512381Y-105904819D01*
X143512381Y-105904819D02*
X143417143Y-105904819D01*
X143417143Y-105904819D02*
X143274286Y-105952438D01*
X143274286Y-105952438D02*
X143226667Y-106000057D01*
X142655238Y-106333390D02*
X142750476Y-106285771D01*
X142750476Y-106285771D02*
X142798095Y-106238152D01*
X142798095Y-106238152D02*
X142845714Y-106142914D01*
X142845714Y-106142914D02*
X142845714Y-106095295D01*
X142845714Y-106095295D02*
X142798095Y-106000057D01*
X142798095Y-106000057D02*
X142750476Y-105952438D01*
X142750476Y-105952438D02*
X142655238Y-105904819D01*
X142655238Y-105904819D02*
X142464762Y-105904819D01*
X142464762Y-105904819D02*
X142369524Y-105952438D01*
X142369524Y-105952438D02*
X142321905Y-106000057D01*
X142321905Y-106000057D02*
X142274286Y-106095295D01*
X142274286Y-106095295D02*
X142274286Y-106142914D01*
X142274286Y-106142914D02*
X142321905Y-106238152D01*
X142321905Y-106238152D02*
X142369524Y-106285771D01*
X142369524Y-106285771D02*
X142464762Y-106333390D01*
X142464762Y-106333390D02*
X142655238Y-106333390D01*
X142655238Y-106333390D02*
X142750476Y-106381009D01*
X142750476Y-106381009D02*
X142798095Y-106428628D01*
X142798095Y-106428628D02*
X142845714Y-106523866D01*
X142845714Y-106523866D02*
X142845714Y-106714342D01*
X142845714Y-106714342D02*
X142798095Y-106809580D01*
X142798095Y-106809580D02*
X142750476Y-106857200D01*
X142750476Y-106857200D02*
X142655238Y-106904819D01*
X142655238Y-106904819D02*
X142464762Y-106904819D01*
X142464762Y-106904819D02*
X142369524Y-106857200D01*
X142369524Y-106857200D02*
X142321905Y-106809580D01*
X142321905Y-106809580D02*
X142274286Y-106714342D01*
X142274286Y-106714342D02*
X142274286Y-106523866D01*
X142274286Y-106523866D02*
X142321905Y-106428628D01*
X142321905Y-106428628D02*
X142369524Y-106381009D01*
X142369524Y-106381009D02*
X142464762Y-106333390D01*
X143226667Y-102409580D02*
X143274286Y-102457200D01*
X143274286Y-102457200D02*
X143417143Y-102504819D01*
X143417143Y-102504819D02*
X143512381Y-102504819D01*
X143512381Y-102504819D02*
X143655238Y-102457200D01*
X143655238Y-102457200D02*
X143750476Y-102361961D01*
X143750476Y-102361961D02*
X143798095Y-102266723D01*
X143798095Y-102266723D02*
X143845714Y-102076247D01*
X143845714Y-102076247D02*
X143845714Y-101933390D01*
X143845714Y-101933390D02*
X143798095Y-101742914D01*
X143798095Y-101742914D02*
X143750476Y-101647676D01*
X143750476Y-101647676D02*
X143655238Y-101552438D01*
X143655238Y-101552438D02*
X143512381Y-101504819D01*
X143512381Y-101504819D02*
X143417143Y-101504819D01*
X143417143Y-101504819D02*
X143274286Y-101552438D01*
X143274286Y-101552438D02*
X143226667Y-101600057D01*
X142369524Y-101504819D02*
X142560000Y-101504819D01*
X142560000Y-101504819D02*
X142655238Y-101552438D01*
X142655238Y-101552438D02*
X142702857Y-101600057D01*
X142702857Y-101600057D02*
X142798095Y-101742914D01*
X142798095Y-101742914D02*
X142845714Y-101933390D01*
X142845714Y-101933390D02*
X142845714Y-102314342D01*
X142845714Y-102314342D02*
X142798095Y-102409580D01*
X142798095Y-102409580D02*
X142750476Y-102457200D01*
X142750476Y-102457200D02*
X142655238Y-102504819D01*
X142655238Y-102504819D02*
X142464762Y-102504819D01*
X142464762Y-102504819D02*
X142369524Y-102457200D01*
X142369524Y-102457200D02*
X142321905Y-102409580D01*
X142321905Y-102409580D02*
X142274286Y-102314342D01*
X142274286Y-102314342D02*
X142274286Y-102076247D01*
X142274286Y-102076247D02*
X142321905Y-101981009D01*
X142321905Y-101981009D02*
X142369524Y-101933390D01*
X142369524Y-101933390D02*
X142464762Y-101885771D01*
X142464762Y-101885771D02*
X142655238Y-101885771D01*
X142655238Y-101885771D02*
X142750476Y-101933390D01*
X142750476Y-101933390D02*
X142798095Y-101981009D01*
X142798095Y-101981009D02*
X142845714Y-102076247D01*
X125233333Y-119654819D02*
X125233333Y-120369104D01*
X125233333Y-120369104D02*
X125280952Y-120511961D01*
X125280952Y-120511961D02*
X125376190Y-120607200D01*
X125376190Y-120607200D02*
X125519047Y-120654819D01*
X125519047Y-120654819D02*
X125614285Y-120654819D01*
X124233333Y-120654819D02*
X124804761Y-120654819D01*
X124519047Y-120654819D02*
X124519047Y-119654819D01*
X124519047Y-119654819D02*
X124614285Y-119797676D01*
X124614285Y-119797676D02*
X124709523Y-119892914D01*
X124709523Y-119892914D02*
X124804761Y-119940533D01*
X151416666Y-111984580D02*
X151464285Y-112032200D01*
X151464285Y-112032200D02*
X151607142Y-112079819D01*
X151607142Y-112079819D02*
X151702380Y-112079819D01*
X151702380Y-112079819D02*
X151845237Y-112032200D01*
X151845237Y-112032200D02*
X151940475Y-111936961D01*
X151940475Y-111936961D02*
X151988094Y-111841723D01*
X151988094Y-111841723D02*
X152035713Y-111651247D01*
X152035713Y-111651247D02*
X152035713Y-111508390D01*
X152035713Y-111508390D02*
X151988094Y-111317914D01*
X151988094Y-111317914D02*
X151940475Y-111222676D01*
X151940475Y-111222676D02*
X151845237Y-111127438D01*
X151845237Y-111127438D02*
X151702380Y-111079819D01*
X151702380Y-111079819D02*
X151607142Y-111079819D01*
X151607142Y-111079819D02*
X151464285Y-111127438D01*
X151464285Y-111127438D02*
X151416666Y-111175057D01*
X151083332Y-111079819D02*
X150416666Y-111079819D01*
X150416666Y-111079819D02*
X150845237Y-112079819D01*
X142754820Y-90638095D02*
X143564343Y-90638095D01*
X143564343Y-90638095D02*
X143659581Y-90685714D01*
X143659581Y-90685714D02*
X143707201Y-90733333D01*
X143707201Y-90733333D02*
X143754820Y-90828571D01*
X143754820Y-90828571D02*
X143754820Y-91019047D01*
X143754820Y-91019047D02*
X143707201Y-91114285D01*
X143707201Y-91114285D02*
X143659581Y-91161904D01*
X143659581Y-91161904D02*
X143564343Y-91209523D01*
X143564343Y-91209523D02*
X142754820Y-91209523D01*
X142850058Y-91638095D02*
X142802439Y-91685714D01*
X142802439Y-91685714D02*
X142754820Y-91780952D01*
X142754820Y-91780952D02*
X142754820Y-92019047D01*
X142754820Y-92019047D02*
X142802439Y-92114285D01*
X142802439Y-92114285D02*
X142850058Y-92161904D01*
X142850058Y-92161904D02*
X142945296Y-92209523D01*
X142945296Y-92209523D02*
X143040534Y-92209523D01*
X143040534Y-92209523D02*
X143183391Y-92161904D01*
X143183391Y-92161904D02*
X143754820Y-91590476D01*
X143754820Y-91590476D02*
X143754820Y-92209523D01*
X144866666Y-121254819D02*
X145199999Y-120778628D01*
X145438094Y-121254819D02*
X145438094Y-120254819D01*
X145438094Y-120254819D02*
X145057142Y-120254819D01*
X145057142Y-120254819D02*
X144961904Y-120302438D01*
X144961904Y-120302438D02*
X144914285Y-120350057D01*
X144914285Y-120350057D02*
X144866666Y-120445295D01*
X144866666Y-120445295D02*
X144866666Y-120588152D01*
X144866666Y-120588152D02*
X144914285Y-120683390D01*
X144914285Y-120683390D02*
X144961904Y-120731009D01*
X144961904Y-120731009D02*
X145057142Y-120778628D01*
X145057142Y-120778628D02*
X145438094Y-120778628D01*
X143914285Y-121254819D02*
X144485713Y-121254819D01*
X144199999Y-121254819D02*
X144199999Y-120254819D01*
X144199999Y-120254819D02*
X144295237Y-120397676D01*
X144295237Y-120397676D02*
X144390475Y-120492914D01*
X144390475Y-120492914D02*
X144485713Y-120540533D01*
X149466666Y-89559580D02*
X149514285Y-89607200D01*
X149514285Y-89607200D02*
X149657142Y-89654819D01*
X149657142Y-89654819D02*
X149752380Y-89654819D01*
X149752380Y-89654819D02*
X149895237Y-89607200D01*
X149895237Y-89607200D02*
X149990475Y-89511961D01*
X149990475Y-89511961D02*
X150038094Y-89416723D01*
X150038094Y-89416723D02*
X150085713Y-89226247D01*
X150085713Y-89226247D02*
X150085713Y-89083390D01*
X150085713Y-89083390D02*
X150038094Y-88892914D01*
X150038094Y-88892914D02*
X149990475Y-88797676D01*
X149990475Y-88797676D02*
X149895237Y-88702438D01*
X149895237Y-88702438D02*
X149752380Y-88654819D01*
X149752380Y-88654819D02*
X149657142Y-88654819D01*
X149657142Y-88654819D02*
X149514285Y-88702438D01*
X149514285Y-88702438D02*
X149466666Y-88750057D01*
X149085713Y-88750057D02*
X149038094Y-88702438D01*
X149038094Y-88702438D02*
X148942856Y-88654819D01*
X148942856Y-88654819D02*
X148704761Y-88654819D01*
X148704761Y-88654819D02*
X148609523Y-88702438D01*
X148609523Y-88702438D02*
X148561904Y-88750057D01*
X148561904Y-88750057D02*
X148514285Y-88845295D01*
X148514285Y-88845295D02*
X148514285Y-88940533D01*
X148514285Y-88940533D02*
X148561904Y-89083390D01*
X148561904Y-89083390D02*
X149133332Y-89654819D01*
X149133332Y-89654819D02*
X148514285Y-89654819D01*
X142066666Y-89559580D02*
X142114285Y-89607200D01*
X142114285Y-89607200D02*
X142257142Y-89654819D01*
X142257142Y-89654819D02*
X142352380Y-89654819D01*
X142352380Y-89654819D02*
X142495237Y-89607200D01*
X142495237Y-89607200D02*
X142590475Y-89511961D01*
X142590475Y-89511961D02*
X142638094Y-89416723D01*
X142638094Y-89416723D02*
X142685713Y-89226247D01*
X142685713Y-89226247D02*
X142685713Y-89083390D01*
X142685713Y-89083390D02*
X142638094Y-88892914D01*
X142638094Y-88892914D02*
X142590475Y-88797676D01*
X142590475Y-88797676D02*
X142495237Y-88702438D01*
X142495237Y-88702438D02*
X142352380Y-88654819D01*
X142352380Y-88654819D02*
X142257142Y-88654819D01*
X142257142Y-88654819D02*
X142114285Y-88702438D01*
X142114285Y-88702438D02*
X142066666Y-88750057D01*
X141114285Y-89654819D02*
X141685713Y-89654819D01*
X141399999Y-89654819D02*
X141399999Y-88654819D01*
X141399999Y-88654819D02*
X141495237Y-88797676D01*
X141495237Y-88797676D02*
X141590475Y-88892914D01*
X141590475Y-88892914D02*
X141685713Y-88940533D01*
X154606665Y-108809580D02*
X154654284Y-108857200D01*
X154654284Y-108857200D02*
X154797141Y-108904819D01*
X154797141Y-108904819D02*
X154892379Y-108904819D01*
X154892379Y-108904819D02*
X155035236Y-108857200D01*
X155035236Y-108857200D02*
X155130474Y-108761961D01*
X155130474Y-108761961D02*
X155178093Y-108666723D01*
X155178093Y-108666723D02*
X155225712Y-108476247D01*
X155225712Y-108476247D02*
X155225712Y-108333390D01*
X155225712Y-108333390D02*
X155178093Y-108142914D01*
X155178093Y-108142914D02*
X155130474Y-108047676D01*
X155130474Y-108047676D02*
X155035236Y-107952438D01*
X155035236Y-107952438D02*
X154892379Y-107904819D01*
X154892379Y-107904819D02*
X154797141Y-107904819D01*
X154797141Y-107904819D02*
X154654284Y-107952438D01*
X154654284Y-107952438D02*
X154606665Y-108000057D01*
X153701903Y-107904819D02*
X154178093Y-107904819D01*
X154178093Y-107904819D02*
X154225712Y-108381009D01*
X154225712Y-108381009D02*
X154178093Y-108333390D01*
X154178093Y-108333390D02*
X154082855Y-108285771D01*
X154082855Y-108285771D02*
X153844760Y-108285771D01*
X153844760Y-108285771D02*
X153749522Y-108333390D01*
X153749522Y-108333390D02*
X153701903Y-108381009D01*
X153701903Y-108381009D02*
X153654284Y-108476247D01*
X153654284Y-108476247D02*
X153654284Y-108714342D01*
X153654284Y-108714342D02*
X153701903Y-108809580D01*
X153701903Y-108809580D02*
X153749522Y-108857200D01*
X153749522Y-108857200D02*
X153844760Y-108904819D01*
X153844760Y-108904819D02*
X154082855Y-108904819D01*
X154082855Y-108904819D02*
X154178093Y-108857200D01*
X154178093Y-108857200D02*
X154225712Y-108809580D01*
X172433333Y-119654819D02*
X172433333Y-120369104D01*
X172433333Y-120369104D02*
X172480952Y-120511961D01*
X172480952Y-120511961D02*
X172576190Y-120607200D01*
X172576190Y-120607200D02*
X172719047Y-120654819D01*
X172719047Y-120654819D02*
X172814285Y-120654819D01*
X172004761Y-119750057D02*
X171957142Y-119702438D01*
X171957142Y-119702438D02*
X171861904Y-119654819D01*
X171861904Y-119654819D02*
X171623809Y-119654819D01*
X171623809Y-119654819D02*
X171528571Y-119702438D01*
X171528571Y-119702438D02*
X171480952Y-119750057D01*
X171480952Y-119750057D02*
X171433333Y-119845295D01*
X171433333Y-119845295D02*
X171433333Y-119940533D01*
X171433333Y-119940533D02*
X171480952Y-120083390D01*
X171480952Y-120083390D02*
X172052380Y-120654819D01*
X172052380Y-120654819D02*
X171433333Y-120654819D01*
X147066666Y-121159580D02*
X147114285Y-121207200D01*
X147114285Y-121207200D02*
X147257142Y-121254819D01*
X147257142Y-121254819D02*
X147352380Y-121254819D01*
X147352380Y-121254819D02*
X147495237Y-121207200D01*
X147495237Y-121207200D02*
X147590475Y-121111961D01*
X147590475Y-121111961D02*
X147638094Y-121016723D01*
X147638094Y-121016723D02*
X147685713Y-120826247D01*
X147685713Y-120826247D02*
X147685713Y-120683390D01*
X147685713Y-120683390D02*
X147638094Y-120492914D01*
X147638094Y-120492914D02*
X147590475Y-120397676D01*
X147590475Y-120397676D02*
X147495237Y-120302438D01*
X147495237Y-120302438D02*
X147352380Y-120254819D01*
X147352380Y-120254819D02*
X147257142Y-120254819D01*
X147257142Y-120254819D02*
X147114285Y-120302438D01*
X147114285Y-120302438D02*
X147066666Y-120350057D01*
X146590475Y-121254819D02*
X146399999Y-121254819D01*
X146399999Y-121254819D02*
X146304761Y-121207200D01*
X146304761Y-121207200D02*
X146257142Y-121159580D01*
X146257142Y-121159580D02*
X146161904Y-121016723D01*
X146161904Y-121016723D02*
X146114285Y-120826247D01*
X146114285Y-120826247D02*
X146114285Y-120445295D01*
X146114285Y-120445295D02*
X146161904Y-120350057D01*
X146161904Y-120350057D02*
X146209523Y-120302438D01*
X146209523Y-120302438D02*
X146304761Y-120254819D01*
X146304761Y-120254819D02*
X146495237Y-120254819D01*
X146495237Y-120254819D02*
X146590475Y-120302438D01*
X146590475Y-120302438D02*
X146638094Y-120350057D01*
X146638094Y-120350057D02*
X146685713Y-120445295D01*
X146685713Y-120445295D02*
X146685713Y-120683390D01*
X146685713Y-120683390D02*
X146638094Y-120778628D01*
X146638094Y-120778628D02*
X146590475Y-120826247D01*
X146590475Y-120826247D02*
X146495237Y-120873866D01*
X146495237Y-120873866D02*
X146304761Y-120873866D01*
X146304761Y-120873866D02*
X146209523Y-120826247D01*
X146209523Y-120826247D02*
X146161904Y-120778628D01*
X146161904Y-120778628D02*
X146114285Y-120683390D01*
X149266666Y-121254819D02*
X149599999Y-120778628D01*
X149838094Y-121254819D02*
X149838094Y-120254819D01*
X149838094Y-120254819D02*
X149457142Y-120254819D01*
X149457142Y-120254819D02*
X149361904Y-120302438D01*
X149361904Y-120302438D02*
X149314285Y-120350057D01*
X149314285Y-120350057D02*
X149266666Y-120445295D01*
X149266666Y-120445295D02*
X149266666Y-120588152D01*
X149266666Y-120588152D02*
X149314285Y-120683390D01*
X149314285Y-120683390D02*
X149361904Y-120731009D01*
X149361904Y-120731009D02*
X149457142Y-120778628D01*
X149457142Y-120778628D02*
X149838094Y-120778628D01*
X148885713Y-120350057D02*
X148838094Y-120302438D01*
X148838094Y-120302438D02*
X148742856Y-120254819D01*
X148742856Y-120254819D02*
X148504761Y-120254819D01*
X148504761Y-120254819D02*
X148409523Y-120302438D01*
X148409523Y-120302438D02*
X148361904Y-120350057D01*
X148361904Y-120350057D02*
X148314285Y-120445295D01*
X148314285Y-120445295D02*
X148314285Y-120540533D01*
X148314285Y-120540533D02*
X148361904Y-120683390D01*
X148361904Y-120683390D02*
X148933332Y-121254819D01*
X148933332Y-121254819D02*
X148314285Y-121254819D01*
X154606665Y-103409580D02*
X154654284Y-103457200D01*
X154654284Y-103457200D02*
X154797141Y-103504819D01*
X154797141Y-103504819D02*
X154892379Y-103504819D01*
X154892379Y-103504819D02*
X155035236Y-103457200D01*
X155035236Y-103457200D02*
X155130474Y-103361961D01*
X155130474Y-103361961D02*
X155178093Y-103266723D01*
X155178093Y-103266723D02*
X155225712Y-103076247D01*
X155225712Y-103076247D02*
X155225712Y-102933390D01*
X155225712Y-102933390D02*
X155178093Y-102742914D01*
X155178093Y-102742914D02*
X155130474Y-102647676D01*
X155130474Y-102647676D02*
X155035236Y-102552438D01*
X155035236Y-102552438D02*
X154892379Y-102504819D01*
X154892379Y-102504819D02*
X154797141Y-102504819D01*
X154797141Y-102504819D02*
X154654284Y-102552438D01*
X154654284Y-102552438D02*
X154606665Y-102600057D01*
X154273331Y-102504819D02*
X153654284Y-102504819D01*
X153654284Y-102504819D02*
X153987617Y-102885771D01*
X153987617Y-102885771D02*
X153844760Y-102885771D01*
X153844760Y-102885771D02*
X153749522Y-102933390D01*
X153749522Y-102933390D02*
X153701903Y-102981009D01*
X153701903Y-102981009D02*
X153654284Y-103076247D01*
X153654284Y-103076247D02*
X153654284Y-103314342D01*
X153654284Y-103314342D02*
X153701903Y-103409580D01*
X153701903Y-103409580D02*
X153749522Y-103457200D01*
X153749522Y-103457200D02*
X153844760Y-103504819D01*
X153844760Y-103504819D02*
X154130474Y-103504819D01*
X154130474Y-103504819D02*
X154225712Y-103457200D01*
X154225712Y-103457200D02*
X154273331Y-103409580D01*
%TO.C,C4*%
D11*
X147690000Y-111484420D02*
X147690000Y-111765580D01*
X148710000Y-111484420D02*
X148710000Y-111765580D01*
%TO.C,C8*%
X143200580Y-104740000D02*
X142919420Y-104740000D01*
X143200580Y-105760000D02*
X142919420Y-105760000D01*
%TO.C,C6*%
X143200580Y-102740000D02*
X142919420Y-102740000D01*
X143200580Y-103760000D02*
X142919420Y-103760000D01*
%TO.C,J1*%
X125390000Y-90890000D02*
X125390000Y-119110000D01*
X127500000Y-90890000D02*
X125390000Y-90890000D01*
X127500000Y-93000000D02*
X127500000Y-90890000D01*
X129610000Y-90890000D02*
X128500000Y-90890000D01*
X129610000Y-92000000D02*
X129610000Y-90890000D01*
X129610000Y-93000000D02*
X127500000Y-93000000D01*
X129610000Y-93000000D02*
X129610000Y-119110000D01*
X129610000Y-119110000D02*
X125390000Y-119110000D01*
%TO.C,C7*%
X149240000Y-111484420D02*
X149240000Y-111765580D01*
X150260000Y-111484420D02*
X150260000Y-111765580D01*
%TO.C,U2*%
X144040000Y-90490000D02*
X144040000Y-92310000D01*
X144040000Y-92310000D02*
X144090000Y-92310000D01*
X144090000Y-90490000D02*
X144040000Y-90490000D01*
X145990000Y-90490000D02*
X145210000Y-90490000D01*
X147110000Y-92310000D02*
X147160000Y-92310000D01*
X147160000Y-90490000D02*
X147110000Y-90490000D01*
X147160000Y-92310000D02*
X147160000Y-90490000D01*
X147110000Y-92850000D02*
X147440000Y-93090000D01*
X147440000Y-92610000D01*
X147110000Y-92850000D01*
G36*
X147440000Y-93090000D02*
G01*
X147110000Y-92850000D01*
X147440000Y-92610000D01*
X147440000Y-93090000D01*
G37*
%TO.C,R1*%
X144177500Y-119137258D02*
X144177500Y-118662742D01*
X145222500Y-119137258D02*
X145222500Y-118662742D01*
%TO.C,C2*%
X148790000Y-91240580D02*
X148790000Y-90959420D01*
X149810000Y-91240580D02*
X149810000Y-90959420D01*
%TO.C,C1*%
X141390000Y-91240580D02*
X141390000Y-90959420D01*
X142410000Y-91240580D02*
X142410000Y-90959420D01*
%TO.C,C5*%
X154299420Y-106740000D02*
X154580580Y-106740000D01*
X154299420Y-107760000D02*
X154580580Y-107760000D01*
%TO.C,J2*%
X167390000Y-90890000D02*
X167390000Y-119110000D01*
X169500000Y-90890000D02*
X167390000Y-90890000D01*
X169500000Y-93000000D02*
X169500000Y-90890000D01*
X171610000Y-90890000D02*
X170500000Y-90890000D01*
X171610000Y-92000000D02*
X171610000Y-90890000D01*
X171610000Y-93000000D02*
X169500000Y-93000000D01*
X171610000Y-93000000D02*
X171610000Y-119110000D01*
X171610000Y-119110000D02*
X167390000Y-119110000D01*
%TO.C,C9*%
X146390000Y-119040580D02*
X146390000Y-118759420D01*
X147410000Y-119040580D02*
X147410000Y-118759420D01*
%TO.C,R2*%
X148577500Y-119137258D02*
X148577500Y-118662742D01*
X149622500Y-119137258D02*
X149622500Y-118662742D01*
%TO.C,C3*%
X154299420Y-103740000D02*
X154580580Y-103740000D01*
X154299420Y-104760000D02*
X154580580Y-104760000D01*
%TD*%
%LPC*%
D12*
%TO.C,U1*%
X159100000Y-116100000D03*
X159100000Y-93900000D03*
D13*
X154100000Y-115000000D03*
D14*
X154100000Y-95000000D03*
D13*
X142900000Y-115000000D03*
X142900000Y-95000000D03*
D12*
X137900000Y-116100000D03*
X137900000Y-93900000D03*
%TD*%
D15*
%TO.C,C4*%
X148200000Y-110850000D03*
X148200000Y-112400000D03*
%TD*%
D16*
%TO.C,C8*%
X143835000Y-105250000D03*
X142285000Y-105250000D03*
%TD*%
%TO.C,C6*%
X143835000Y-103250000D03*
X142285000Y-103250000D03*
%TD*%
D17*
%TO.C,J1*%
X128500000Y-92000000D03*
D18*
X126500000Y-92000000D03*
X128500000Y-94000000D03*
X126500000Y-94000000D03*
X128500000Y-96000000D03*
X126500000Y-96000000D03*
X128500000Y-98000000D03*
X126500000Y-98000000D03*
X128500000Y-100000000D03*
X126500000Y-100000000D03*
X128500000Y-102000000D03*
X126500000Y-102000000D03*
X128500000Y-104000000D03*
X126500000Y-104000000D03*
X128500000Y-106000000D03*
X126500000Y-106000000D03*
X128500000Y-108000000D03*
X126500000Y-108000000D03*
X128500000Y-110000000D03*
X126500000Y-110000000D03*
X128500000Y-112000000D03*
X126500000Y-112000000D03*
X128500000Y-114000000D03*
X126500000Y-114000000D03*
X128500000Y-116000000D03*
X126500000Y-116000000D03*
X128500000Y-118000000D03*
X126500000Y-118000000D03*
%TD*%
D15*
%TO.C,C7*%
X149750000Y-110850000D03*
X149750000Y-112400000D03*
%TD*%
D19*
%TO.C,U2*%
X146550000Y-92537500D03*
X145600000Y-92537500D03*
X144650000Y-92537500D03*
X144650000Y-90262500D03*
X146550000Y-90262500D03*
%TD*%
D20*
%TO.C,R1*%
X144700000Y-119725000D03*
X144700000Y-118075000D03*
%TD*%
D21*
%TO.C,C2*%
X149300000Y-91875000D03*
X149300000Y-90325000D03*
%TD*%
%TO.C,C1*%
X141900000Y-91875000D03*
X141900000Y-90325000D03*
%TD*%
D22*
%TO.C,C5*%
X153665000Y-107250000D03*
X155215000Y-107250000D03*
%TD*%
D17*
%TO.C,J2*%
X170500000Y-92000000D03*
D18*
X168500000Y-92000000D03*
X170500000Y-94000000D03*
X168500000Y-94000000D03*
X170500000Y-96000000D03*
X168500000Y-96000000D03*
X170500000Y-98000000D03*
X168500000Y-98000000D03*
X170500000Y-100000000D03*
X168500000Y-100000000D03*
X170500000Y-102000000D03*
X168500000Y-102000000D03*
X170500000Y-104000000D03*
X168500000Y-104000000D03*
X170500000Y-106000000D03*
X168500000Y-106000000D03*
X170500000Y-108000000D03*
X168500000Y-108000000D03*
X170500000Y-110000000D03*
X168500000Y-110000000D03*
X170500000Y-112000000D03*
X168500000Y-112000000D03*
X170500000Y-114000000D03*
X168500000Y-114000000D03*
X170500000Y-116000000D03*
X168500000Y-116000000D03*
X170500000Y-118000000D03*
X168500000Y-118000000D03*
%TD*%
D21*
%TO.C,C9*%
X146900000Y-119675000D03*
X146900000Y-118125000D03*
%TD*%
D20*
%TO.C,R2*%
X149100000Y-119725000D03*
X149100000Y-118075000D03*
%TD*%
D22*
%TO.C,C3*%
X153665000Y-104250000D03*
X155215000Y-104250000D03*
%TD*%
%LPD*%
M02*
