%TF.GenerationSoftware,KiCad,Pcbnew,10.0.6-10.0.6~ubuntu26.04.1*%
%TF.CreationDate,2026-10-02T21:59:32+02:00*%
%TF.ProjectId,flashcat_p30,666c6173-6863-4617-945f-7033302e6b69,C*%
%TF.SameCoordinates,Original*%
%TF.FileFunction,Legend,Top*%
%TF.FilePolarity,Positive*%
%FSLAX46Y46*%
G04 Gerber Fmt 4.6, Leading zero omitted, Abs format (unit mm)*
G04 Created by KiCad (PCBNEW 10.0.6-10.0.6~ubuntu26.04.1) date 2026-10-02 21:59:32*
%MOMM*%
%LPD*%
G01*
G04 APERTURE LIST*
%ADD10C,0.120000*%
%ADD11C,0.150000*%
%ADD12C,2.000000*%
%ADD13C,1.475000*%
%ADD14C,1.775000*%
%ADD15C,0.550000*%
%ADD16R,1.350000X1.350000*%
%ADD17C,1.350000*%
G04 APERTURE END LIST*
D10*
X125890476Y-89601950D02*
X125814286Y-89563855D01*
X125814286Y-89563855D02*
X125700000Y-89563855D01*
X125700000Y-89563855D02*
X125585714Y-89601950D01*
X125585714Y-89601950D02*
X125509524Y-89678140D01*
X125509524Y-89678140D02*
X125471429Y-89754331D01*
X125471429Y-89754331D02*
X125433333Y-89906712D01*
X125433333Y-89906712D02*
X125433333Y-90020998D01*
X125433333Y-90020998D02*
X125471429Y-90173379D01*
X125471429Y-90173379D02*
X125509524Y-90249569D01*
X125509524Y-90249569D02*
X125585714Y-90325760D01*
X125585714Y-90325760D02*
X125700000Y-90363855D01*
X125700000Y-90363855D02*
X125776191Y-90363855D01*
X125776191Y-90363855D02*
X125890476Y-90325760D01*
X125890476Y-90325760D02*
X125928572Y-90287664D01*
X125928572Y-90287664D02*
X125928572Y-90020998D01*
X125928572Y-90020998D02*
X125776191Y-90020998D01*
X126271429Y-90363855D02*
X126271429Y-89563855D01*
X126271429Y-89563855D02*
X126728572Y-90363855D01*
X126728572Y-90363855D02*
X126728572Y-89563855D01*
X127109524Y-90363855D02*
X127109524Y-89563855D01*
X127109524Y-89563855D02*
X127300000Y-89563855D01*
X127300000Y-89563855D02*
X127414286Y-89601950D01*
X127414286Y-89601950D02*
X127490476Y-89678140D01*
X127490476Y-89678140D02*
X127528571Y-89754331D01*
X127528571Y-89754331D02*
X127566667Y-89906712D01*
X127566667Y-89906712D02*
X127566667Y-90020998D01*
X127566667Y-90020998D02*
X127528571Y-90173379D01*
X127528571Y-90173379D02*
X127490476Y-90249569D01*
X127490476Y-90249569D02*
X127414286Y-90325760D01*
X127414286Y-90325760D02*
X127300000Y-90363855D01*
X127300000Y-90363855D02*
X127109524Y-90363855D01*
X167928571Y-90135283D02*
X168309524Y-90135283D01*
X167852381Y-90363855D02*
X168119048Y-89563855D01*
X168119048Y-89563855D02*
X168385714Y-90363855D01*
X168804762Y-89563855D02*
X168880952Y-89563855D01*
X168880952Y-89563855D02*
X168957143Y-89601950D01*
X168957143Y-89601950D02*
X168995238Y-89640045D01*
X168995238Y-89640045D02*
X169033333Y-89716236D01*
X169033333Y-89716236D02*
X169071428Y-89868617D01*
X169071428Y-89868617D02*
X169071428Y-90059093D01*
X169071428Y-90059093D02*
X169033333Y-90211474D01*
X169033333Y-90211474D02*
X168995238Y-90287664D01*
X168995238Y-90287664D02*
X168957143Y-90325760D01*
X168957143Y-90325760D02*
X168880952Y-90363855D01*
X168880952Y-90363855D02*
X168804762Y-90363855D01*
X168804762Y-90363855D02*
X168728571Y-90325760D01*
X168728571Y-90325760D02*
X168690476Y-90287664D01*
X168690476Y-90287664D02*
X168652381Y-90211474D01*
X168652381Y-90211474D02*
X168614285Y-90059093D01*
X168614285Y-90059093D02*
X168614285Y-89868617D01*
X168614285Y-89868617D02*
X168652381Y-89716236D01*
X168652381Y-89716236D02*
X168690476Y-89640045D01*
X168690476Y-89640045D02*
X168728571Y-89601950D01*
X168728571Y-89601950D02*
X168804762Y-89563855D01*
D11*
X132954819Y-106761904D02*
X132288152Y-106761904D01*
X132478628Y-106761904D02*
X132383390Y-106714285D01*
X132383390Y-106714285D02*
X132335771Y-106666666D01*
X132335771Y-106666666D02*
X132288152Y-106571428D01*
X132288152Y-106571428D02*
X132288152Y-106476190D01*
X132907200Y-105761904D02*
X132954819Y-105857142D01*
X132954819Y-105857142D02*
X132954819Y-106047618D01*
X132954819Y-106047618D02*
X132907200Y-106142856D01*
X132907200Y-106142856D02*
X132811961Y-106190475D01*
X132811961Y-106190475D02*
X132431009Y-106190475D01*
X132431009Y-106190475D02*
X132335771Y-106142856D01*
X132335771Y-106142856D02*
X132288152Y-106047618D01*
X132288152Y-106047618D02*
X132288152Y-105857142D01*
X132288152Y-105857142D02*
X132335771Y-105761904D01*
X132335771Y-105761904D02*
X132431009Y-105714285D01*
X132431009Y-105714285D02*
X132526247Y-105714285D01*
X132526247Y-105714285D02*
X132621485Y-106190475D01*
X132288152Y-105380951D02*
X132954819Y-105142856D01*
X132954819Y-105142856D02*
X132288152Y-104904761D01*
X132859580Y-103190475D02*
X132907200Y-103238094D01*
X132907200Y-103238094D02*
X132954819Y-103380951D01*
X132954819Y-103380951D02*
X132954819Y-103476189D01*
X132954819Y-103476189D02*
X132907200Y-103619046D01*
X132907200Y-103619046D02*
X132811961Y-103714284D01*
X132811961Y-103714284D02*
X132716723Y-103761903D01*
X132716723Y-103761903D02*
X132526247Y-103809522D01*
X132526247Y-103809522D02*
X132383390Y-103809522D01*
X132383390Y-103809522D02*
X132192914Y-103761903D01*
X132192914Y-103761903D02*
X132097676Y-103714284D01*
X132097676Y-103714284D02*
X132002438Y-103619046D01*
X132002438Y-103619046D02*
X131954819Y-103476189D01*
X131954819Y-103476189D02*
X131954819Y-103380951D01*
X131954819Y-103380951D02*
X132002438Y-103238094D01*
X132002438Y-103238094D02*
X132050057Y-103190475D01*
X164431009Y-115023810D02*
X164431009Y-115357143D01*
X164954819Y-115357143D02*
X163954819Y-115357143D01*
X163954819Y-115357143D02*
X163954819Y-114880953D01*
X164954819Y-114357143D02*
X164907200Y-114452381D01*
X164907200Y-114452381D02*
X164811961Y-114500000D01*
X164811961Y-114500000D02*
X163954819Y-114500000D01*
X164954819Y-113547619D02*
X164431009Y-113547619D01*
X164431009Y-113547619D02*
X164335771Y-113595238D01*
X164335771Y-113595238D02*
X164288152Y-113690476D01*
X164288152Y-113690476D02*
X164288152Y-113880952D01*
X164288152Y-113880952D02*
X164335771Y-113976190D01*
X164907200Y-113547619D02*
X164954819Y-113642857D01*
X164954819Y-113642857D02*
X164954819Y-113880952D01*
X164954819Y-113880952D02*
X164907200Y-113976190D01*
X164907200Y-113976190D02*
X164811961Y-114023809D01*
X164811961Y-114023809D02*
X164716723Y-114023809D01*
X164716723Y-114023809D02*
X164621485Y-113976190D01*
X164621485Y-113976190D02*
X164573866Y-113880952D01*
X164573866Y-113880952D02*
X164573866Y-113642857D01*
X164573866Y-113642857D02*
X164526247Y-113547619D01*
X164907200Y-113119047D02*
X164954819Y-113023809D01*
X164954819Y-113023809D02*
X164954819Y-112833333D01*
X164954819Y-112833333D02*
X164907200Y-112738095D01*
X164907200Y-112738095D02*
X164811961Y-112690476D01*
X164811961Y-112690476D02*
X164764342Y-112690476D01*
X164764342Y-112690476D02*
X164669104Y-112738095D01*
X164669104Y-112738095D02*
X164621485Y-112833333D01*
X164621485Y-112833333D02*
X164621485Y-112976190D01*
X164621485Y-112976190D02*
X164573866Y-113071428D01*
X164573866Y-113071428D02*
X164478628Y-113119047D01*
X164478628Y-113119047D02*
X164431009Y-113119047D01*
X164431009Y-113119047D02*
X164335771Y-113071428D01*
X164335771Y-113071428D02*
X164288152Y-112976190D01*
X164288152Y-112976190D02*
X164288152Y-112833333D01*
X164288152Y-112833333D02*
X164335771Y-112738095D01*
X164954819Y-112261904D02*
X163954819Y-112261904D01*
X164954819Y-111833333D02*
X164431009Y-111833333D01*
X164431009Y-111833333D02*
X164335771Y-111880952D01*
X164335771Y-111880952D02*
X164288152Y-111976190D01*
X164288152Y-111976190D02*
X164288152Y-112119047D01*
X164288152Y-112119047D02*
X164335771Y-112214285D01*
X164335771Y-112214285D02*
X164383390Y-112261904D01*
X164859580Y-110785714D02*
X164907200Y-110833333D01*
X164907200Y-110833333D02*
X164954819Y-110976190D01*
X164954819Y-110976190D02*
X164954819Y-111071428D01*
X164954819Y-111071428D02*
X164907200Y-111214285D01*
X164907200Y-111214285D02*
X164811961Y-111309523D01*
X164811961Y-111309523D02*
X164716723Y-111357142D01*
X164716723Y-111357142D02*
X164526247Y-111404761D01*
X164526247Y-111404761D02*
X164383390Y-111404761D01*
X164383390Y-111404761D02*
X164192914Y-111357142D01*
X164192914Y-111357142D02*
X164097676Y-111309523D01*
X164097676Y-111309523D02*
X164002438Y-111214285D01*
X164002438Y-111214285D02*
X163954819Y-111071428D01*
X163954819Y-111071428D02*
X163954819Y-110976190D01*
X163954819Y-110976190D02*
X164002438Y-110833333D01*
X164002438Y-110833333D02*
X164050057Y-110785714D01*
X164669104Y-110404761D02*
X164669104Y-109928571D01*
X164954819Y-110499999D02*
X163954819Y-110166666D01*
X163954819Y-110166666D02*
X164954819Y-109833333D01*
X163954819Y-109642856D02*
X163954819Y-109071428D01*
X164954819Y-109357142D02*
X163954819Y-109357142D01*
X164954819Y-107976189D02*
X163954819Y-107976189D01*
X163954819Y-107976189D02*
X163954819Y-107595237D01*
X163954819Y-107595237D02*
X164002438Y-107499999D01*
X164002438Y-107499999D02*
X164050057Y-107452380D01*
X164050057Y-107452380D02*
X164145295Y-107404761D01*
X164145295Y-107404761D02*
X164288152Y-107404761D01*
X164288152Y-107404761D02*
X164383390Y-107452380D01*
X164383390Y-107452380D02*
X164431009Y-107499999D01*
X164431009Y-107499999D02*
X164478628Y-107595237D01*
X164478628Y-107595237D02*
X164478628Y-107976189D01*
X163954819Y-107071427D02*
X163954819Y-106452380D01*
X163954819Y-106452380D02*
X164335771Y-106785713D01*
X164335771Y-106785713D02*
X164335771Y-106642856D01*
X164335771Y-106642856D02*
X164383390Y-106547618D01*
X164383390Y-106547618D02*
X164431009Y-106499999D01*
X164431009Y-106499999D02*
X164526247Y-106452380D01*
X164526247Y-106452380D02*
X164764342Y-106452380D01*
X164764342Y-106452380D02*
X164859580Y-106499999D01*
X164859580Y-106499999D02*
X164907200Y-106547618D01*
X164907200Y-106547618D02*
X164954819Y-106642856D01*
X164954819Y-106642856D02*
X164954819Y-106928570D01*
X164954819Y-106928570D02*
X164907200Y-107023808D01*
X164907200Y-107023808D02*
X164859580Y-107071427D01*
X163954819Y-105833332D02*
X163954819Y-105738094D01*
X163954819Y-105738094D02*
X164002438Y-105642856D01*
X164002438Y-105642856D02*
X164050057Y-105595237D01*
X164050057Y-105595237D02*
X164145295Y-105547618D01*
X164145295Y-105547618D02*
X164335771Y-105499999D01*
X164335771Y-105499999D02*
X164573866Y-105499999D01*
X164573866Y-105499999D02*
X164764342Y-105547618D01*
X164764342Y-105547618D02*
X164859580Y-105595237D01*
X164859580Y-105595237D02*
X164907200Y-105642856D01*
X164907200Y-105642856D02*
X164954819Y-105738094D01*
X164954819Y-105738094D02*
X164954819Y-105833332D01*
X164954819Y-105833332D02*
X164907200Y-105928570D01*
X164907200Y-105928570D02*
X164859580Y-105976189D01*
X164859580Y-105976189D02*
X164764342Y-106023808D01*
X164764342Y-106023808D02*
X164573866Y-106071427D01*
X164573866Y-106071427D02*
X164335771Y-106071427D01*
X164335771Y-106071427D02*
X164145295Y-106023808D01*
X164145295Y-106023808D02*
X164050057Y-105976189D01*
X164050057Y-105976189D02*
X164002438Y-105928570D01*
X164002438Y-105928570D02*
X163954819Y-105833332D01*
X164431009Y-104309522D02*
X164431009Y-103976189D01*
X164954819Y-103833332D02*
X164954819Y-104309522D01*
X164954819Y-104309522D02*
X163954819Y-104309522D01*
X163954819Y-104309522D02*
X163954819Y-103833332D01*
X164954819Y-102976189D02*
X164431009Y-102976189D01*
X164431009Y-102976189D02*
X164335771Y-103023808D01*
X164335771Y-103023808D02*
X164288152Y-103119046D01*
X164288152Y-103119046D02*
X164288152Y-103309522D01*
X164288152Y-103309522D02*
X164335771Y-103404760D01*
X164907200Y-102976189D02*
X164954819Y-103071427D01*
X164954819Y-103071427D02*
X164954819Y-103309522D01*
X164954819Y-103309522D02*
X164907200Y-103404760D01*
X164907200Y-103404760D02*
X164811961Y-103452379D01*
X164811961Y-103452379D02*
X164716723Y-103452379D01*
X164716723Y-103452379D02*
X164621485Y-103404760D01*
X164621485Y-103404760D02*
X164573866Y-103309522D01*
X164573866Y-103309522D02*
X164573866Y-103071427D01*
X164573866Y-103071427D02*
X164526247Y-102976189D01*
X164907200Y-102547617D02*
X164954819Y-102452379D01*
X164954819Y-102452379D02*
X164954819Y-102261903D01*
X164954819Y-102261903D02*
X164907200Y-102166665D01*
X164907200Y-102166665D02*
X164811961Y-102119046D01*
X164811961Y-102119046D02*
X164764342Y-102119046D01*
X164764342Y-102119046D02*
X164669104Y-102166665D01*
X164669104Y-102166665D02*
X164621485Y-102261903D01*
X164621485Y-102261903D02*
X164621485Y-102404760D01*
X164621485Y-102404760D02*
X164573866Y-102499998D01*
X164573866Y-102499998D02*
X164478628Y-102547617D01*
X164478628Y-102547617D02*
X164431009Y-102547617D01*
X164431009Y-102547617D02*
X164335771Y-102499998D01*
X164335771Y-102499998D02*
X164288152Y-102404760D01*
X164288152Y-102404760D02*
X164288152Y-102261903D01*
X164288152Y-102261903D02*
X164335771Y-102166665D01*
X164288152Y-101785712D02*
X164954819Y-101547617D01*
X164288152Y-101309522D02*
X164954819Y-101547617D01*
X164954819Y-101547617D02*
X165192914Y-101642855D01*
X165192914Y-101642855D02*
X165240533Y-101690474D01*
X165240533Y-101690474D02*
X165288152Y-101785712D01*
X164431009Y-99833331D02*
X164478628Y-99690474D01*
X164478628Y-99690474D02*
X164526247Y-99642855D01*
X164526247Y-99642855D02*
X164621485Y-99595236D01*
X164621485Y-99595236D02*
X164764342Y-99595236D01*
X164764342Y-99595236D02*
X164859580Y-99642855D01*
X164859580Y-99642855D02*
X164907200Y-99690474D01*
X164907200Y-99690474D02*
X164954819Y-99785712D01*
X164954819Y-99785712D02*
X164954819Y-100166664D01*
X164954819Y-100166664D02*
X163954819Y-100166664D01*
X163954819Y-100166664D02*
X163954819Y-99833331D01*
X163954819Y-99833331D02*
X164002438Y-99738093D01*
X164002438Y-99738093D02*
X164050057Y-99690474D01*
X164050057Y-99690474D02*
X164145295Y-99642855D01*
X164145295Y-99642855D02*
X164240533Y-99642855D01*
X164240533Y-99642855D02*
X164335771Y-99690474D01*
X164335771Y-99690474D02*
X164383390Y-99738093D01*
X164383390Y-99738093D02*
X164431009Y-99833331D01*
X164431009Y-99833331D02*
X164431009Y-100166664D01*
X164002438Y-98642855D02*
X163954819Y-98738093D01*
X163954819Y-98738093D02*
X163954819Y-98880950D01*
X163954819Y-98880950D02*
X164002438Y-99023807D01*
X164002438Y-99023807D02*
X164097676Y-99119045D01*
X164097676Y-99119045D02*
X164192914Y-99166664D01*
X164192914Y-99166664D02*
X164383390Y-99214283D01*
X164383390Y-99214283D02*
X164526247Y-99214283D01*
X164526247Y-99214283D02*
X164716723Y-99166664D01*
X164716723Y-99166664D02*
X164811961Y-99119045D01*
X164811961Y-99119045D02*
X164907200Y-99023807D01*
X164907200Y-99023807D02*
X164954819Y-98880950D01*
X164954819Y-98880950D02*
X164954819Y-98785712D01*
X164954819Y-98785712D02*
X164907200Y-98642855D01*
X164907200Y-98642855D02*
X164859580Y-98595236D01*
X164859580Y-98595236D02*
X164526247Y-98595236D01*
X164526247Y-98595236D02*
X164526247Y-98785712D01*
X164669104Y-98214283D02*
X164669104Y-97738093D01*
X164954819Y-98309521D02*
X163954819Y-97976188D01*
X163954819Y-97976188D02*
X164954819Y-97642855D01*
X164573866Y-97309521D02*
X164573866Y-96547617D01*
X163954819Y-95642855D02*
X163954819Y-95833331D01*
X163954819Y-95833331D02*
X164002438Y-95928569D01*
X164002438Y-95928569D02*
X164050057Y-95976188D01*
X164050057Y-95976188D02*
X164192914Y-96071426D01*
X164192914Y-96071426D02*
X164383390Y-96119045D01*
X164383390Y-96119045D02*
X164764342Y-96119045D01*
X164764342Y-96119045D02*
X164859580Y-96071426D01*
X164859580Y-96071426D02*
X164907200Y-96023807D01*
X164907200Y-96023807D02*
X164954819Y-95928569D01*
X164954819Y-95928569D02*
X164954819Y-95738093D01*
X164954819Y-95738093D02*
X164907200Y-95642855D01*
X164907200Y-95642855D02*
X164859580Y-95595236D01*
X164859580Y-95595236D02*
X164764342Y-95547617D01*
X164764342Y-95547617D02*
X164526247Y-95547617D01*
X164526247Y-95547617D02*
X164431009Y-95595236D01*
X164431009Y-95595236D02*
X164383390Y-95642855D01*
X164383390Y-95642855D02*
X164335771Y-95738093D01*
X164335771Y-95738093D02*
X164335771Y-95928569D01*
X164335771Y-95928569D02*
X164383390Y-96023807D01*
X164383390Y-96023807D02*
X164431009Y-96071426D01*
X164431009Y-96071426D02*
X164526247Y-96119045D01*
X164288152Y-94690474D02*
X164954819Y-94690474D01*
X163907200Y-94928569D02*
X164621485Y-95166664D01*
X164621485Y-95166664D02*
X164621485Y-94547617D01*
%TO.C,U1*%
D10*
X135380000Y-89880000D02*
X161620000Y-89880000D01*
X161620000Y-120120000D01*
X135380000Y-120120000D01*
X135380000Y-89880000D01*
X161900000Y-89600000D02*
X161900000Y-91600000D01*
X159900000Y-89600000D01*
X161900000Y-89600000D01*
G36*
X161900000Y-91600000D02*
G01*
X159900000Y-89600000D01*
X161900000Y-89600000D01*
X161900000Y-91600000D01*
G37*
%TD*%
%LPC*%
D12*
%TO.C,U1*%
X159100000Y-116100000D03*
X159100000Y-93900000D03*
D13*
X154100000Y-115000000D03*
D14*
X154100000Y-95000000D03*
D13*
X142900000Y-115000000D03*
X142900000Y-95000000D03*
D12*
X137900000Y-116100000D03*
X137900000Y-93900000D03*
D15*
X152250000Y-101750000D03*
X152250000Y-102750000D03*
X152250000Y-103750000D03*
X152250000Y-104750000D03*
X152250000Y-105750000D03*
X152250000Y-106750000D03*
X152250000Y-107750000D03*
X152250000Y-108750000D03*
X151250000Y-101750000D03*
X151250000Y-102750000D03*
X151250000Y-103750000D03*
X151250000Y-104750000D03*
X151250000Y-105750000D03*
X151250000Y-106750000D03*
X151250000Y-107750000D03*
X151250000Y-108750000D03*
X150250000Y-101750000D03*
X150250000Y-102750000D03*
X150250000Y-103750000D03*
X150250000Y-104750000D03*
X150250000Y-105750000D03*
X150250000Y-106750000D03*
X150250000Y-107750000D03*
X150250000Y-108750000D03*
X149250000Y-101750000D03*
X149250000Y-102750000D03*
X149250000Y-103750000D03*
X149250000Y-104750000D03*
X149250000Y-105750000D03*
X149250000Y-106750000D03*
X149250000Y-107750000D03*
X149250000Y-108750000D03*
X148250000Y-101750000D03*
X148250000Y-102750000D03*
X148250000Y-103750000D03*
X148250000Y-104750000D03*
X148250000Y-105750000D03*
X148250000Y-106750000D03*
X148250000Y-107750000D03*
X148250000Y-108750000D03*
X147250000Y-101750000D03*
X147250000Y-102750000D03*
X147250000Y-103750000D03*
X147250000Y-104750000D03*
X147250000Y-105750000D03*
X147250000Y-106750000D03*
X147250000Y-107750000D03*
X147250000Y-108750000D03*
X146250000Y-101750000D03*
X146250000Y-102750000D03*
X146250000Y-103750000D03*
X146250000Y-104750000D03*
X146250000Y-105750000D03*
X146250000Y-106750000D03*
X146250000Y-107750000D03*
X146250000Y-108750000D03*
X145250000Y-101750000D03*
X145250000Y-102750000D03*
X145250000Y-103750000D03*
X145250000Y-104750000D03*
X145250000Y-105750000D03*
X145250000Y-106750000D03*
X145250000Y-107750000D03*
X145250000Y-108750000D03*
%TD*%
D16*
%TO.C,J1*%
X128500000Y-92000000D03*
D17*
X126500000Y-92000000D03*
X128500000Y-94000000D03*
X126500000Y-94000000D03*
X128500000Y-96000000D03*
X126500000Y-96000000D03*
X128500000Y-98000000D03*
X126500000Y-98000000D03*
X128500000Y-100000000D03*
X126500000Y-100000000D03*
X128500000Y-102000000D03*
X126500000Y-102000000D03*
X128500000Y-104000000D03*
X126500000Y-104000000D03*
X128500000Y-106000000D03*
X126500000Y-106000000D03*
X128500000Y-108000000D03*
X126500000Y-108000000D03*
X128500000Y-110000000D03*
X126500000Y-110000000D03*
X128500000Y-112000000D03*
X126500000Y-112000000D03*
X128500000Y-114000000D03*
X126500000Y-114000000D03*
X128500000Y-116000000D03*
X126500000Y-116000000D03*
X128500000Y-118000000D03*
X126500000Y-118000000D03*
%TD*%
D16*
%TO.C,J2*%
X170500000Y-92000000D03*
D17*
X168500000Y-92000000D03*
X170500000Y-94000000D03*
X168500000Y-94000000D03*
X170500000Y-96000000D03*
X168500000Y-96000000D03*
X170500000Y-98000000D03*
X168500000Y-98000000D03*
X170500000Y-100000000D03*
X168500000Y-100000000D03*
X170500000Y-102000000D03*
X168500000Y-102000000D03*
X170500000Y-104000000D03*
X168500000Y-104000000D03*
X170500000Y-106000000D03*
X168500000Y-106000000D03*
X170500000Y-108000000D03*
X168500000Y-108000000D03*
X170500000Y-110000000D03*
X168500000Y-110000000D03*
X170500000Y-112000000D03*
X168500000Y-112000000D03*
X170500000Y-114000000D03*
X168500000Y-114000000D03*
X170500000Y-116000000D03*
X168500000Y-116000000D03*
X170500000Y-118000000D03*
X168500000Y-118000000D03*
%TD*%
%LPD*%
M02*
