%TF.GenerationSoftware,KiCad,Pcbnew,10.0.6-10.0.6~ubuntu26.04.1*%
%TF.CreationDate,2026-10-02T21:59:32+02:00*%
%TF.ProjectId,flashcat_p30,666c6173-6863-4617-945f-7033302e6b69,C*%
%TF.SameCoordinates,Original*%
%TF.FileFunction,Soldermask,Bot*%
%TF.FilePolarity,Negative*%
%FSLAX46Y46*%
G04 Gerber Fmt 4.6, Leading zero omitted, Abs format (unit mm)*
G04 Created by KiCad (PCBNEW 10.0.6-10.0.6~ubuntu26.04.1) date 2026-10-02 21:59:32*
%MOMM*%
%LPD*%
G01*
G04 APERTURE LIST*
G04 Aperture macros list*
%AMRoundRect*
0 Rectangle with rounded corners*
0 $1 Rounding radius*
0 $2 $3 $4 $5 $6 $7 $8 $9 X,Y pos of 4 corners*
0 Add a 4 corners polygon primitive as box body*
4,1,4,$2,$3,$4,$5,$6,$7,$8,$9,$2,$3,0*
0 Add four circle primitives for the rounded corners*
1,1,$1+$1,$2,$3*
1,1,$1+$1,$4,$5*
1,1,$1+$1,$6,$7*
1,1,$1+$1,$8,$9*
0 Add four rect primitives between the rounded corners*
20,1,$1+$1,$2,$3,$4,$5,0*
20,1,$1+$1,$4,$5,$6,$7,0*
20,1,$1+$1,$6,$7,$8,$9,0*
20,1,$1+$1,$8,$9,$2,$3,0*%
G04 Aperture macros list end*
%ADD10C,2.000000*%
%ADD11C,1.475000*%
%ADD12C,1.775000*%
%ADD13RoundRect,0.225000X-0.250000X0.225000X-0.250000X-0.225000X0.250000X-0.225000X0.250000X0.225000X0*%
%ADD14RoundRect,0.225000X0.225000X0.250000X-0.225000X0.250000X-0.225000X-0.250000X0.225000X-0.250000X0*%
%ADD15R,1.350000X1.350000*%
%ADD16C,1.350000*%
%ADD17RoundRect,0.150000X0.150000X-0.512500X0.150000X0.512500X-0.150000X0.512500X-0.150000X-0.512500X0*%
%ADD18RoundRect,0.200000X0.275000X-0.200000X0.275000X0.200000X-0.275000X0.200000X-0.275000X-0.200000X0*%
%ADD19RoundRect,0.225000X0.250000X-0.225000X0.250000X0.225000X-0.250000X0.225000X-0.250000X-0.225000X0*%
%ADD20RoundRect,0.225000X-0.225000X-0.250000X0.225000X-0.250000X0.225000X0.250000X-0.225000X0.250000X0*%
G04 APERTURE END LIST*
D10*
%TO.C,U1*%
X159100000Y-116100000D03*
X159100000Y-93900000D03*
D11*
X154100000Y-115000000D03*
D12*
X154100000Y-95000000D03*
D11*
X142900000Y-115000000D03*
X142900000Y-95000000D03*
D10*
X137900000Y-116100000D03*
X137900000Y-93900000D03*
%TD*%
D13*
%TO.C,C4*%
X148200000Y-110850000D03*
X148200000Y-112400000D03*
%TD*%
D14*
%TO.C,C8*%
X143835000Y-105250000D03*
X142285000Y-105250000D03*
%TD*%
%TO.C,C6*%
X143835000Y-103250000D03*
X142285000Y-103250000D03*
%TD*%
D15*
%TO.C,J1*%
X128500000Y-92000000D03*
D16*
X126500000Y-92000000D03*
X128500000Y-94000000D03*
X126500000Y-94000000D03*
X128500000Y-96000000D03*
X126500000Y-96000000D03*
X128500000Y-98000000D03*
X126500000Y-98000000D03*
X128500000Y-100000000D03*
X126500000Y-100000000D03*
X128500000Y-102000000D03*
X126500000Y-102000000D03*
X128500000Y-104000000D03*
X126500000Y-104000000D03*
X128500000Y-106000000D03*
X126500000Y-106000000D03*
X128500000Y-108000000D03*
X126500000Y-108000000D03*
X128500000Y-110000000D03*
X126500000Y-110000000D03*
X128500000Y-112000000D03*
X126500000Y-112000000D03*
X128500000Y-114000000D03*
X126500000Y-114000000D03*
X128500000Y-116000000D03*
X126500000Y-116000000D03*
X128500000Y-118000000D03*
X126500000Y-118000000D03*
%TD*%
D13*
%TO.C,C7*%
X149750000Y-110850000D03*
X149750000Y-112400000D03*
%TD*%
D17*
%TO.C,U2*%
X146550000Y-92537500D03*
X145600000Y-92537500D03*
X144650000Y-92537500D03*
X144650000Y-90262500D03*
X146550000Y-90262500D03*
%TD*%
D18*
%TO.C,R1*%
X144700000Y-119725000D03*
X144700000Y-118075000D03*
%TD*%
D19*
%TO.C,C2*%
X149300000Y-91875000D03*
X149300000Y-90325000D03*
%TD*%
%TO.C,C1*%
X141900000Y-91875000D03*
X141900000Y-90325000D03*
%TD*%
D20*
%TO.C,C5*%
X153665000Y-107250000D03*
X155215000Y-107250000D03*
%TD*%
D15*
%TO.C,J2*%
X170500000Y-92000000D03*
D16*
X168500000Y-92000000D03*
X170500000Y-94000000D03*
X168500000Y-94000000D03*
X170500000Y-96000000D03*
X168500000Y-96000000D03*
X170500000Y-98000000D03*
X168500000Y-98000000D03*
X170500000Y-100000000D03*
X168500000Y-100000000D03*
X170500000Y-102000000D03*
X168500000Y-102000000D03*
X170500000Y-104000000D03*
X168500000Y-104000000D03*
X170500000Y-106000000D03*
X168500000Y-106000000D03*
X170500000Y-108000000D03*
X168500000Y-108000000D03*
X170500000Y-110000000D03*
X168500000Y-110000000D03*
X170500000Y-112000000D03*
X168500000Y-112000000D03*
X170500000Y-114000000D03*
X168500000Y-114000000D03*
X170500000Y-116000000D03*
X168500000Y-116000000D03*
X170500000Y-118000000D03*
X168500000Y-118000000D03*
%TD*%
D19*
%TO.C,C9*%
X146900000Y-119675000D03*
X146900000Y-118125000D03*
%TD*%
D18*
%TO.C,R2*%
X149100000Y-119725000D03*
X149100000Y-118075000D03*
%TD*%
D20*
%TO.C,C3*%
X153665000Y-104250000D03*
X155215000Y-104250000D03*
%TD*%
M02*
