%TF.GenerationSoftware,KiCad,Pcbnew,10.0.6-10.0.6~ubuntu26.04.1*%
%TF.CreationDate,2026-09-30T21:19:09+02:00*%
%TF.ProjectId,flashcat_p30,666c6173-6863-4617-945f-7033302e6b69,B*%
%TF.SameCoordinates,Original*%
%TF.FileFunction,Copper,L1,Top*%
%TF.FilePolarity,Positive*%
%FSLAX46Y46*%
G04 Gerber Fmt 4.6, Leading zero omitted, Abs format (unit mm)*
G04 Created by KiCad (PCBNEW 10.0.6-10.0.6~ubuntu26.04.1) date 2026-09-30 21:19:09*
%MOMM*%
%LPD*%
G01*
G04 APERTURE LIST*
%TA.AperFunction,ComponentPad*%
%ADD10R,0.600000X0.600000*%
%TD*%
%TA.AperFunction,ComponentPad*%
%ADD11C,0.600000*%
%TD*%
%TA.AperFunction,ComponentPad*%
%ADD12R,1.350000X1.350000*%
%TD*%
%TA.AperFunction,ComponentPad*%
%ADD13C,1.350000*%
%TD*%
%TA.AperFunction,ViaPad*%
%ADD14C,0.500000*%
%TD*%
%TA.AperFunction,Conductor*%
%ADD15C,0.127000*%
%TD*%
G04 APERTURE END LIST*
D10*
%TO.P,U1,A1*%
%TO.N,/A1*%
X151910000Y-101590000D03*
D11*
%TO.P,U1,A2*%
%TO.N,/A6*%
X151910000Y-102590000D03*
%TO.P,U1,A3*%
%TO.N,/A8*%
X151910000Y-103590000D03*
%TO.P,U1,A4*%
%TO.N,VCC_PROG*%
X151910000Y-104590000D03*
%TO.P,U1,A5*%
%TO.N,/A13*%
X151910000Y-105590000D03*
%TO.P,U1,A6*%
%TO.N,+1V8*%
X151910000Y-106590000D03*
%TO.P,U1,A7*%
%TO.N,/A18*%
X151910000Y-107590000D03*
%TO.P,U1,A8*%
%TO.N,/A22*%
X151910000Y-108590000D03*
%TO.P,U1,B1*%
%TO.N,/A2*%
X150910000Y-101590000D03*
%TO.P,U1,B2*%
%TO.N,GND*%
X150910000Y-102590000D03*
%TO.P,U1,B3*%
%TO.N,/A9*%
X150910000Y-103590000D03*
%TO.P,U1,B4*%
%TO.N,/~{CE}*%
X150910000Y-104590000D03*
%TO.P,U1,B5*%
%TO.N,/A14*%
X150910000Y-105590000D03*
%TO.P,U1,B6*%
%TO.N,/A25*%
X150910000Y-106590000D03*
%TO.P,U1,B7*%
%TO.N,/A19*%
X150910000Y-107590000D03*
%TO.P,U1,B8*%
%TO.N,/A26*%
X150910000Y-108590000D03*
%TO.P,U1,C1*%
%TO.N,/A3*%
X149910000Y-101590000D03*
%TO.P,U1,C2*%
%TO.N,/A7*%
X149910000Y-102590000D03*
%TO.P,U1,C3*%
%TO.N,/A10*%
X149910000Y-103590000D03*
%TO.P,U1,C4*%
%TO.N,/A12*%
X149910000Y-104590000D03*
%TO.P,U1,C5*%
%TO.N,/A15*%
X149910000Y-105590000D03*
%TO.P,U1,C6*%
%TO.N,VCC_PROG*%
X149910000Y-106590000D03*
%TO.P,U1,C7*%
%TO.N,/A20*%
X149910000Y-107590000D03*
%TO.P,U1,C8*%
%TO.N,/A21*%
X149910000Y-108590000D03*
%TO.P,U1,D1*%
%TO.N,/A4*%
X148910000Y-101590000D03*
%TO.P,U1,D2*%
%TO.N,/A5*%
X148910000Y-102590000D03*
%TO.P,U1,D3*%
%TO.N,/A11*%
X148910000Y-103590000D03*
%TO.P,U1,D4*%
%TO.N,/~{RST}*%
X148910000Y-104590000D03*
%TO.P,U1,D5*%
%TO.N,VCC_PROG*%
X148910000Y-105590000D03*
%TO.P,U1,D6*%
X148910000Y-106590000D03*
%TO.P,U1,D7*%
%TO.N,/A16*%
X148910000Y-107590000D03*
%TO.P,U1,D8*%
%TO.N,/A17*%
X148910000Y-108590000D03*
%TO.P,U1,E1*%
%TO.N,/DQ8*%
X147910000Y-101590000D03*
%TO.P,U1,E2*%
%TO.N,/DQ1*%
X147910000Y-102590000D03*
%TO.P,U1,E3*%
%TO.N,/DQ9*%
X147910000Y-103590000D03*
%TO.P,U1,E4*%
%TO.N,/DQ3*%
X147910000Y-104590000D03*
%TO.P,U1,E5*%
%TO.N,/DQ4*%
X147910000Y-105590000D03*
%TO.P,U1,E6*%
%TO.N,GND*%
X147910000Y-106590000D03*
%TO.P,U1,E7*%
%TO.N,/DQ15*%
X147910000Y-107590000D03*
%TO.P,U1,E8*%
%TO.N,unconnected-(U1-RFU-PadE8)*%
X147910000Y-108590000D03*
%TO.P,U1,F1*%
%TO.N,unconnected-(U1-RFU-PadF1)*%
X146910000Y-101590000D03*
%TO.P,U1,F2*%
%TO.N,/DQ0*%
X146910000Y-102590000D03*
%TO.P,U1,F3*%
%TO.N,/DQ10*%
X146910000Y-103590000D03*
%TO.P,U1,F4*%
%TO.N,/DQ11*%
X146910000Y-104590000D03*
%TO.P,U1,F5*%
%TO.N,/DQ12*%
X146910000Y-105590000D03*
%TO.P,U1,F6*%
%TO.N,GND*%
X146910000Y-106590000D03*
%TO.P,U1,F7*%
%TO.N,/WAIT*%
X146910000Y-107590000D03*
%TO.P,U1,F8*%
%TO.N,/~{OE}*%
X146910000Y-108590000D03*
%TO.P,U1,G1*%
%TO.N,/A23*%
X145910000Y-101590000D03*
%TO.P,U1,G2*%
%TO.N,unconnected-(U1-RFU-PadG2)*%
X145910000Y-102590000D03*
%TO.P,U1,G3*%
%TO.N,/DQ2*%
X145910000Y-103590000D03*
%TO.P,U1,G4*%
%TO.N,VCC_PROG*%
X145910000Y-104590000D03*
%TO.P,U1,G5*%
%TO.N,/DQ5*%
X145910000Y-105590000D03*
%TO.P,U1,G6*%
%TO.N,/DQ6*%
X145910000Y-106590000D03*
%TO.P,U1,G7*%
%TO.N,/DQ14*%
X145910000Y-107590000D03*
%TO.P,U1,G8*%
%TO.N,/~{WE}*%
X145910000Y-108590000D03*
%TO.P,U1,H1*%
%TO.N,/A27*%
X144910000Y-101590000D03*
%TO.P,U1,H2*%
%TO.N,GND*%
X144910000Y-102590000D03*
%TO.P,U1,H3*%
%TO.N,+1V8*%
X144910000Y-103590000D03*
%TO.P,U1,H4*%
%TO.N,GND*%
X144910000Y-104590000D03*
%TO.P,U1,H5*%
%TO.N,/DQ13*%
X144910000Y-105590000D03*
%TO.P,U1,H6*%
%TO.N,GND*%
X144910000Y-106590000D03*
%TO.P,U1,H7*%
%TO.N,/DQ7*%
X144910000Y-107590000D03*
%TO.P,U1,H8*%
%TO.N,/A24*%
X144910000Y-108590000D03*
%TD*%
D12*
%TO.P,J1,1*%
%TO.N,VCC_PROG*%
X128500000Y-92000000D03*
D13*
%TO.P,J1,2*%
%TO.N,GND*%
X126500000Y-92000000D03*
%TO.P,J1,3*%
%TO.N,unconnected-(J1-VIO-Pad3)*%
X128500000Y-94000000D03*
%TO.P,J1,4*%
%TO.N,unconnected-(J1-VPP-Pad4)*%
X126500000Y-94000000D03*
%TO.P,J1,5*%
%TO.N,/~{OE}*%
X128500000Y-96000000D03*
%TO.P,J1,6*%
%TO.N,unconnected-(J1-CLE-Pad6)*%
X126500000Y-96000000D03*
%TO.P,J1,7*%
%TO.N,/~{WE}*%
X128500000Y-98000000D03*
%TO.P,J1,8*%
%TO.N,unconnected-(J1-ALE-Pad8)*%
X126500000Y-98000000D03*
%TO.P,J1,9*%
%TO.N,/~{CE}*%
X128500000Y-100000000D03*
%TO.P,J1,10*%
%TO.N,unconnected-(J1-RE{slash}B#-Pad10)*%
X126500000Y-100000000D03*
%TO.P,J1,11*%
%TO.N,unconnected-(J1-DQS-Pad11)*%
X128500000Y-102000000D03*
%TO.P,J1,12*%
%TO.N,/WAIT*%
X126500000Y-102000000D03*
%TO.P,J1,13*%
%TO.N,/DQ8*%
X128500000Y-104000000D03*
%TO.P,J1,14*%
%TO.N,/DQ0*%
X126500000Y-104000000D03*
%TO.P,J1,15*%
%TO.N,/DQ9*%
X128500000Y-106000000D03*
%TO.P,J1,16*%
%TO.N,/DQ1*%
X126500000Y-106000000D03*
%TO.P,J1,17*%
%TO.N,/DQ10*%
X128500000Y-108000000D03*
%TO.P,J1,18*%
%TO.N,/DQ2*%
X126500000Y-108000000D03*
%TO.P,J1,19*%
%TO.N,/DQ11*%
X128500000Y-110000000D03*
%TO.P,J1,20*%
%TO.N,/DQ3*%
X126500000Y-110000000D03*
%TO.P,J1,21*%
%TO.N,/DQ12*%
X128500000Y-112000000D03*
%TO.P,J1,22*%
%TO.N,/DQ4*%
X126500000Y-112000000D03*
%TO.P,J1,23*%
%TO.N,/DQ13*%
X128500000Y-114000000D03*
%TO.P,J1,24*%
%TO.N,/DQ5*%
X126500000Y-114000000D03*
%TO.P,J1,25*%
%TO.N,/DQ14*%
X128500000Y-116000000D03*
%TO.P,J1,26*%
%TO.N,/DQ6*%
X126500000Y-116000000D03*
%TO.P,J1,27*%
%TO.N,/DQ15*%
X128500000Y-118000000D03*
%TO.P,J1,28*%
%TO.N,/DQ7*%
X126500000Y-118000000D03*
%TD*%
D12*
%TO.P,J2,1*%
%TO.N,/A27*%
X170500000Y-92000000D03*
D13*
%TO.P,J2,2*%
%TO.N,unconnected-(J2-A0{slash}CE1-Pad2)*%
X168500000Y-92000000D03*
%TO.P,J2,3*%
%TO.N,/A26*%
X170500000Y-94000000D03*
%TO.P,J2,4*%
%TO.N,/A1*%
X168500000Y-94000000D03*
%TO.P,J2,5*%
%TO.N,/A25*%
X170500000Y-96000000D03*
%TO.P,J2,6*%
%TO.N,/A2*%
X168500000Y-96000000D03*
%TO.P,J2,7*%
%TO.N,/A24*%
X170500000Y-98000000D03*
%TO.P,J2,8*%
%TO.N,/A3*%
X168500000Y-98000000D03*
%TO.P,J2,9*%
%TO.N,/A23*%
X170500000Y-100000000D03*
%TO.P,J2,10*%
%TO.N,/A4*%
X168500000Y-100000000D03*
%TO.P,J2,11*%
%TO.N,/A22*%
X170500000Y-102000000D03*
%TO.P,J2,12*%
%TO.N,/A5*%
X168500000Y-102000000D03*
%TO.P,J2,13*%
%TO.N,/A21*%
X170500000Y-104000000D03*
%TO.P,J2,14*%
%TO.N,/A6*%
X168500000Y-104000000D03*
%TO.P,J2,15*%
%TO.N,/A20*%
X170500000Y-106000000D03*
%TO.P,J2,16*%
%TO.N,/A7*%
X168500000Y-106000000D03*
%TO.P,J2,17*%
%TO.N,/A19*%
X170500000Y-108000000D03*
%TO.P,J2,18*%
%TO.N,/A8*%
X168500000Y-108000000D03*
%TO.P,J2,19*%
%TO.N,/A18*%
X170500000Y-110000000D03*
%TO.P,J2,20*%
%TO.N,/A9*%
X168500000Y-110000000D03*
%TO.P,J2,21*%
%TO.N,/A17*%
X170500000Y-112000000D03*
%TO.P,J2,22*%
%TO.N,/A10*%
X168500000Y-112000000D03*
%TO.P,J2,23*%
%TO.N,/A16*%
X170500000Y-114000000D03*
%TO.P,J2,24*%
%TO.N,/A11*%
X168500000Y-114000000D03*
%TO.P,J2,25*%
%TO.N,/A15*%
X170500000Y-116000000D03*
%TO.P,J2,26*%
%TO.N,/A12*%
X168500000Y-116000000D03*
%TO.P,J2,27*%
%TO.N,/A14*%
X170500000Y-118000000D03*
%TO.P,J2,28*%
%TO.N,/A13*%
X168500000Y-118000000D03*
%TD*%
D14*
%TO.N,VCC_PROG*%
X145636100Y-121025000D03*
X142810000Y-105090000D03*
X142810000Y-91982700D03*
X146900000Y-111500000D03*
%TO.N,/A13*%
X164656300Y-105614000D03*
%TO.N,+1V8*%
X144966200Y-90120000D03*
%TO.N,/A22*%
X169432900Y-108882100D03*
%TO.N,GND*%
X140995001Y-105090000D03*
X144100000Y-88075000D03*
X155825000Y-104090000D03*
X155825000Y-107089999D03*
X140995001Y-103090000D03*
X149410000Y-113190000D03*
X140300001Y-91887500D03*
X147860000Y-113190000D03*
X136500000Y-88075000D03*
X146900000Y-118475000D03*
%TO.N,/A9*%
X165265100Y-103534200D03*
%TO.N,/~{CE}*%
X154151800Y-105340000D03*
X150938200Y-98816600D03*
%TO.N,/A14*%
X165896100Y-106907200D03*
%TO.N,/A25*%
X157470900Y-106508400D03*
%TO.N,/A12*%
X165164500Y-105090000D03*
%TO.N,/A15*%
X166466500Y-106063000D03*
%TO.N,/A21*%
X157078400Y-104627400D03*
%TO.N,/A11*%
X165249700Y-99057700D03*
%TO.N,/~{RST}*%
X145359700Y-118715300D03*
%TO.N,/A17*%
X150420300Y-110356000D03*
%TO.N,/DQ8*%
X131458900Y-100014400D03*
%TO.N,/DQ9*%
X131516000Y-101210100D03*
%TO.N,/DQ4*%
X137463200Y-111065400D03*
X148425600Y-111473300D03*
%TO.N,/DQ10*%
X132337400Y-102090100D03*
%TO.N,/DQ11*%
X142855700Y-106601500D03*
%TO.N,/WAIT*%
X127956000Y-119162200D03*
X148000100Y-119162200D03*
%TO.N,/~{OE}*%
X137403600Y-110176600D03*
%TO.N,/~{WE}*%
X140423800Y-110033300D03*
%TO.N,/DQ13*%
X141898200Y-111557800D03*
%TO.N,/DQ7*%
X143282800Y-119880000D03*
%TO.N,/A24*%
X147917000Y-109619100D03*
%TD*%
%TO.N,/A6*%
D15*
X152810000Y-102590000D02*
X167090000Y-102590000D01*
X151910000Y-102590000D02*
X152810000Y-102590000D01*
X167090000Y-102590000D02*
X168500000Y-104000000D01*
%TO.N,/A8*%
X151910000Y-103590000D02*
X152810000Y-103590000D01*
X168500000Y-108000000D02*
X168500000Y-107471100D01*
X168500000Y-107471100D02*
X164618900Y-103590000D01*
X164618900Y-103590000D02*
X152810000Y-103590000D01*
%TO.N,VCC_PROG*%
X148910000Y-105590000D02*
X148910000Y-106590000D01*
%TO.N,/A13*%
X164656300Y-105614000D02*
X164488100Y-105782200D01*
X164488100Y-105782200D02*
X153002200Y-105782200D01*
X151910000Y-105590000D02*
X152810000Y-105590000D01*
X153002200Y-105782200D02*
X152810000Y-105590000D01*
%TO.N,/A18*%
X168921500Y-109037000D02*
X169884500Y-110000000D01*
X151910000Y-107590000D02*
X152810000Y-107590000D01*
X169884500Y-110000000D02*
X170500000Y-110000000D01*
X166174600Y-109037000D02*
X168921500Y-109037000D01*
X152810000Y-107590000D02*
X164727600Y-107590000D01*
X164727600Y-107590000D02*
X166174600Y-109037000D01*
%TO.N,/~{CE}*%
X129683400Y-98816600D02*
X128500000Y-100000000D01*
X150910000Y-104590000D02*
X151410000Y-105090000D01*
X151410000Y-105090000D02*
X153210000Y-105090000D01*
X150938200Y-98816600D02*
X129683400Y-98816600D01*
X153901800Y-105090000D02*
X154151800Y-105340000D01*
X153210000Y-105090000D02*
X153901800Y-105090000D01*
%TO.N,/A14*%
X150910000Y-105590000D02*
X151410000Y-106090000D01*
X165055000Y-106066100D02*
X153233900Y-106066100D01*
X165896100Y-106907200D02*
X165055000Y-106066100D01*
X151410000Y-106090000D02*
X153210000Y-106090000D01*
X153233900Y-106066100D02*
X153210000Y-106090000D01*
%TO.N,/A25*%
X150910000Y-106590000D02*
X151410000Y-107089999D01*
X153791600Y-106508400D02*
X157470900Y-106508400D01*
X151410000Y-107089999D02*
X153210000Y-107089999D01*
X153210000Y-107090000D02*
X153791600Y-106508400D01*
%TO.N,/A19*%
X153210000Y-108090000D02*
X155068700Y-109948700D01*
X155068700Y-109948700D02*
X166889200Y-109948700D01*
X166889200Y-109948700D02*
X167810700Y-110870200D01*
X150910000Y-107590000D02*
X151410000Y-108090000D01*
X171372000Y-108872000D02*
X170500000Y-108000000D01*
X171372000Y-110432100D02*
X171372000Y-108872000D01*
X170933900Y-110870200D02*
X171372000Y-110432100D01*
X167810700Y-110870200D02*
X170933900Y-110870200D01*
X151410000Y-108090000D02*
X153210000Y-108090000D01*
%TO.N,/A7*%
X165589900Y-103089900D02*
X150409900Y-103089900D01*
X150409900Y-103089900D02*
X149910000Y-102590000D01*
X168500000Y-106000000D02*
X165589900Y-103089900D01*
%TO.N,/A10*%
X149910000Y-103590000D02*
X150410000Y-104090000D01*
X166831500Y-110331500D02*
X168500000Y-112000000D01*
X150410000Y-109385000D02*
X151356500Y-110331500D01*
X150410000Y-104090000D02*
X150410000Y-109385000D01*
X151356500Y-110331500D02*
X166831500Y-110331500D01*
%TO.N,/A4*%
X148910000Y-100690000D02*
X148910000Y-100405700D01*
X148910000Y-100405700D02*
X149545500Y-99770200D01*
X149545500Y-99770200D02*
X168270200Y-99770200D01*
X168270200Y-99770200D02*
X168500000Y-100000000D01*
X148910000Y-101590000D02*
X148910000Y-100690000D01*
%TO.N,/A5*%
X148910000Y-102590000D02*
X149410000Y-102090000D01*
X166525900Y-100025900D02*
X168500000Y-102000000D01*
X149410000Y-100290000D02*
X149674100Y-100025900D01*
X149410000Y-102090000D02*
X149410000Y-100290000D01*
X149674100Y-100025900D02*
X166525900Y-100025900D01*
%TO.N,/A16*%
X169500000Y-113000000D02*
X170500000Y-114000000D01*
X148910000Y-107590000D02*
X149410000Y-108090000D01*
X149410000Y-108090000D02*
X149410000Y-109890000D01*
X149410000Y-109890000D02*
X149410000Y-109971000D01*
X156339700Y-110800100D02*
X158539600Y-113000000D01*
X150239100Y-110800100D02*
X156339700Y-110800100D01*
X149410000Y-109971000D02*
X150239100Y-110800100D01*
X158539600Y-113000000D02*
X169500000Y-113000000D01*
%TO.N,/DQ1*%
X129059600Y-105000000D02*
X127500000Y-105000000D01*
X141612800Y-103097600D02*
X141001700Y-103708700D01*
X127500000Y-105000000D02*
X126500000Y-106000000D01*
X147910000Y-102590000D02*
X147402400Y-103097600D01*
X147402400Y-103097600D02*
X141612800Y-103097600D01*
X141001700Y-103708700D02*
X130350900Y-103708700D01*
X130350900Y-103708700D02*
X129059600Y-105000000D01*
%TO.N,/DQ4*%
X148010100Y-111057800D02*
X148425600Y-111473300D01*
X137470800Y-111057800D02*
X148010100Y-111057800D01*
X137463200Y-111065400D02*
X137470800Y-111057800D01*
%TO.N,/DQ15*%
X147910000Y-107590000D02*
X148410000Y-108090000D01*
X137280100Y-110623200D02*
X140026800Y-110623200D01*
X128500000Y-118000000D02*
X129903300Y-118000000D01*
X140026800Y-110623200D02*
X140134800Y-110731200D01*
X140134800Y-110731200D02*
X147568800Y-110731200D01*
X148410000Y-108090000D02*
X148410000Y-109890000D01*
X129903300Y-118000000D02*
X137280100Y-110623200D01*
X147568800Y-110731200D02*
X148410000Y-109890000D01*
%TO.N,/DQ0*%
X127410100Y-103089900D02*
X140369800Y-103089900D01*
X146410000Y-102090000D02*
X146910000Y-102590000D01*
X126500000Y-104000000D02*
X127410100Y-103089900D01*
X141369700Y-102090000D02*
X146410000Y-102090000D01*
X140369800Y-103089900D02*
X141369700Y-102090000D01*
%TO.N,/WAIT*%
X148000100Y-119162200D02*
X127956000Y-119162200D01*
%TO.N,/~{OE}*%
X139941800Y-110176600D02*
X140240700Y-110475500D01*
X140240700Y-110475500D02*
X145924500Y-110475500D01*
X146910000Y-108590000D02*
X146910000Y-109490000D01*
X145924500Y-110475500D02*
X146910000Y-109490000D01*
X137403600Y-110176600D02*
X139941800Y-110176600D01*
%TO.N,/A23*%
X147085500Y-99514500D02*
X165418200Y-99514500D01*
X165418200Y-99514500D02*
X165807700Y-99125000D01*
X165807700Y-99125000D02*
X169625000Y-99125000D01*
X169625000Y-99125000D02*
X170500000Y-100000000D01*
X145910000Y-101590000D02*
X145910000Y-100690000D01*
X145910000Y-100690000D02*
X147085500Y-99514500D01*
%TO.N,/DQ2*%
X136723600Y-104090000D02*
X143610000Y-104090000D01*
X127500000Y-107000000D02*
X133813600Y-107000000D01*
X145410000Y-104090000D02*
X143610000Y-104090000D01*
X126500000Y-108000000D02*
X127500000Y-107000000D01*
X145910000Y-103590000D02*
X145410000Y-104090000D01*
X133813600Y-107000000D02*
X136723600Y-104090000D01*
%TO.N,/DQ5*%
X127500000Y-113000000D02*
X126500000Y-114000000D01*
X145910000Y-105590000D02*
X145410000Y-106090000D01*
X135969600Y-106090000D02*
X129059600Y-113000000D01*
X129059600Y-113000000D02*
X127500000Y-113000000D01*
X145410000Y-106090000D02*
X143610000Y-106090000D01*
X143610000Y-106090000D02*
X135969600Y-106090000D01*
%TO.N,/DQ6*%
X127501500Y-114998500D02*
X126500000Y-116000000D01*
X138994000Y-107090000D02*
X131085500Y-114998500D01*
X145910000Y-106590000D02*
X145410000Y-107089999D01*
X143610000Y-107090000D02*
X138994000Y-107090000D01*
X145410000Y-107089999D02*
X143610000Y-107089999D01*
X131085500Y-114998500D02*
X127501500Y-114998500D01*
%TO.N,/DQ14*%
X145410000Y-108090000D02*
X145410000Y-109890000D01*
X130941100Y-116000000D02*
X128500000Y-116000000D01*
X140905900Y-109890000D02*
X140607000Y-109591100D01*
X140607000Y-109591100D02*
X137350000Y-109591100D01*
X145410000Y-109890000D02*
X140905900Y-109890000D01*
X145910000Y-107590000D02*
X145410000Y-108090000D01*
X137350000Y-109591100D02*
X130941100Y-116000000D01*
%TO.N,/~{WE}*%
X140423800Y-110033300D02*
X140567100Y-110176600D01*
X145910000Y-108590000D02*
X145910000Y-109490000D01*
X145537200Y-110176600D02*
X145910000Y-109803800D01*
X140567100Y-110176600D02*
X145537200Y-110176600D01*
X145910000Y-109803800D02*
X145910000Y-109490000D01*
%TO.N,/A27*%
X146341200Y-99258800D02*
X160331800Y-99258800D01*
X169632800Y-92108500D02*
X169632800Y-92000000D01*
X166723400Y-92867200D02*
X168874100Y-92867200D01*
X168874100Y-92867200D02*
X169632800Y-92108500D01*
X160331800Y-99258800D02*
X166723400Y-92867200D01*
X144910000Y-101590000D02*
X144910000Y-100690000D01*
X144910000Y-100690000D02*
X146341200Y-99258800D01*
X170500000Y-92000000D02*
X169632800Y-92000000D01*
%TD*%
%TA.AperFunction,Conductor*%
%TO.N,GND*%
G36*
X131124431Y-115281407D02*
G01*
X131160395Y-115330907D01*
X131160395Y-115392093D01*
X131136244Y-115431504D01*
X130860744Y-115707004D01*
X130806227Y-115734781D01*
X130790740Y-115736000D01*
X129404432Y-115736000D01*
X129346241Y-115717093D01*
X129312968Y-115674886D01*
X129279431Y-115593921D01*
X129275858Y-115585295D01*
X129275856Y-115585293D01*
X129275854Y-115585287D01*
X129220893Y-115503034D01*
X129180045Y-115441901D01*
X129169648Y-115431504D01*
X129141871Y-115376987D01*
X129151442Y-115316555D01*
X129194707Y-115273290D01*
X129239652Y-115262500D01*
X131066240Y-115262500D01*
X131124431Y-115281407D01*
G37*
%TD.AperFunction*%
%TA.AperFunction,Conductor*%
G36*
X142384798Y-106372907D02*
G01*
X142420762Y-106422407D01*
X142422233Y-106478624D01*
X142405200Y-106542188D01*
X142405200Y-106660811D01*
X142416070Y-106701376D01*
X142412869Y-106762478D01*
X142374364Y-106810028D01*
X142320444Y-106826000D01*
X138941485Y-106826000D01*
X138844458Y-106866189D01*
X138844456Y-106866190D01*
X138844456Y-106866191D01*
X134913766Y-110796882D01*
X131005144Y-114705504D01*
X130950627Y-114733281D01*
X130935140Y-114734500D01*
X129242652Y-114734500D01*
X129184461Y-114715593D01*
X129148497Y-114666093D01*
X129148497Y-114604907D01*
X129172648Y-114565496D01*
X129180045Y-114558099D01*
X129248188Y-114456115D01*
X129275854Y-114414712D01*
X129275860Y-114414700D01*
X129341855Y-114255374D01*
X129375500Y-114086229D01*
X129375500Y-113913771D01*
X129341855Y-113744626D01*
X129319856Y-113691515D01*
X129275860Y-113585299D01*
X129275854Y-113585287D01*
X129220893Y-113503034D01*
X129180045Y-113441901D01*
X129139120Y-113400976D01*
X129111343Y-113346459D01*
X129120914Y-113286027D01*
X129164179Y-113242762D01*
X129171217Y-113239517D01*
X129209144Y-113223808D01*
X136049957Y-106382996D01*
X136104474Y-106355219D01*
X136119961Y-106354000D01*
X142326607Y-106354000D01*
X142384798Y-106372907D01*
G37*
%TD.AperFunction*%
%TA.AperFunction,Conductor*%
G36*
X166739331Y-110614407D02*
G01*
X166751144Y-110624496D01*
X167673793Y-111547145D01*
X167701570Y-111601662D01*
X167695254Y-111655033D01*
X167658144Y-111744627D01*
X167624500Y-111913768D01*
X167624500Y-112086231D01*
X167658145Y-112255373D01*
X167658145Y-112255375D01*
X167724139Y-112414700D01*
X167724145Y-112414712D01*
X167792660Y-112517249D01*
X167819955Y-112558099D01*
X167819958Y-112558102D01*
X167828852Y-112566996D01*
X167856629Y-112621513D01*
X167847058Y-112681945D01*
X167803793Y-112725210D01*
X167758848Y-112736000D01*
X158689960Y-112736000D01*
X158631769Y-112717093D01*
X158619956Y-112707004D01*
X156677456Y-110764504D01*
X156649679Y-110709987D01*
X156659250Y-110649555D01*
X156702515Y-110606290D01*
X156747460Y-110595500D01*
X166681140Y-110595500D01*
X166739331Y-110614407D01*
G37*
%TD.AperFunction*%
%TA.AperFunction,Conductor*%
G36*
X169521648Y-110015758D02*
G01*
X169543276Y-110032128D01*
X169609999Y-110098851D01*
X169637091Y-110149539D01*
X169658142Y-110255365D01*
X169658145Y-110255375D01*
X169724139Y-110414700D01*
X169724141Y-110414703D01*
X169724142Y-110414705D01*
X169749194Y-110452198D01*
X169765803Y-110511085D01*
X169744626Y-110568489D01*
X169693753Y-110602483D01*
X169666879Y-110606200D01*
X169333121Y-110606200D01*
X169274930Y-110587293D01*
X169238966Y-110537793D01*
X169238966Y-110476607D01*
X169250804Y-110452200D01*
X169275858Y-110414705D01*
X169341855Y-110255374D01*
X169375500Y-110086229D01*
X169375500Y-110086224D01*
X169376177Y-110082821D01*
X169406073Y-110029437D01*
X169461638Y-110003821D01*
X169521648Y-110015758D01*
G37*
%TD.AperFunction*%
%TA.AperFunction,Conductor*%
G36*
X147483571Y-108856731D02*
G01*
X147495734Y-108873471D01*
X147509500Y-108897314D01*
X147602686Y-108990500D01*
X147705227Y-109049702D01*
X147746167Y-109095171D01*
X147752563Y-109156021D01*
X147721970Y-109209009D01*
X147705227Y-109221174D01*
X147640389Y-109258609D01*
X147556507Y-109342491D01*
X147497202Y-109445209D01*
X147480037Y-109509269D01*
X147466500Y-109559791D01*
X147466500Y-109678409D01*
X147484243Y-109744626D01*
X147497202Y-109792990D01*
X147556507Y-109895708D01*
X147556509Y-109895710D01*
X147556511Y-109895713D01*
X147640387Y-109979589D01*
X147723075Y-110027329D01*
X147764015Y-110072798D01*
X147770411Y-110133648D01*
X147743578Y-110183068D01*
X147488445Y-110438203D01*
X147433928Y-110465981D01*
X147418441Y-110467200D01*
X146545160Y-110467200D01*
X146486969Y-110448293D01*
X146451005Y-110398793D01*
X146451005Y-110337607D01*
X146475156Y-110298196D01*
X146639704Y-110133648D01*
X147133808Y-109639544D01*
X147146539Y-109608808D01*
X147174000Y-109542513D01*
X147174000Y-109072556D01*
X147192907Y-109014365D01*
X147212739Y-108994009D01*
X147217304Y-108990505D01*
X147217314Y-108990500D01*
X147310500Y-108897314D01*
X147324264Y-108873474D01*
X147369733Y-108832534D01*
X147430583Y-108826138D01*
X147483571Y-108856731D01*
G37*
%TD.AperFunction*%
%TA.AperFunction,Conductor*%
G36*
X164635431Y-107872907D02*
G01*
X164647244Y-107882996D01*
X166025056Y-109260808D01*
X166122087Y-109301000D01*
X166227113Y-109301000D01*
X167728887Y-109301000D01*
X167787078Y-109319907D01*
X167823042Y-109369407D01*
X167823042Y-109430593D01*
X167811204Y-109454997D01*
X167808013Y-109459774D01*
X167724145Y-109585288D01*
X167724139Y-109585299D01*
X167658145Y-109744624D01*
X167658145Y-109744626D01*
X167624500Y-109913768D01*
X167624500Y-110071639D01*
X167605593Y-110129830D01*
X167556093Y-110165794D01*
X167494907Y-110165794D01*
X167455497Y-110141643D01*
X167038743Y-109724891D01*
X166981904Y-109701347D01*
X166941713Y-109684700D01*
X166941712Y-109684700D01*
X155219061Y-109684700D01*
X155160870Y-109665793D01*
X155149057Y-109655704D01*
X154743480Y-109250127D01*
X153516353Y-108023001D01*
X153488578Y-107968487D01*
X153498149Y-107908055D01*
X153541414Y-107864790D01*
X153586359Y-107854000D01*
X164577240Y-107854000D01*
X164635431Y-107872907D01*
G37*
%TD.AperFunction*%
%TA.AperFunction,Conductor*%
G36*
X150082477Y-109081513D02*
G01*
X150130028Y-109120017D01*
X150146000Y-109173938D01*
X150146000Y-109437512D01*
X150186191Y-109534543D01*
X150394445Y-109742798D01*
X150422222Y-109797314D01*
X150412651Y-109857746D01*
X150369386Y-109901011D01*
X150350068Y-109908426D01*
X150246414Y-109936201D01*
X150246412Y-109936201D01*
X150246408Y-109936203D01*
X150143691Y-109995507D01*
X150059808Y-110079390D01*
X150055860Y-110084536D01*
X150053440Y-110082679D01*
X150017159Y-110115223D01*
X149956296Y-110121502D01*
X149907061Y-110094709D01*
X149702996Y-109890644D01*
X149675219Y-109836127D01*
X149674000Y-109820640D01*
X149674000Y-109173938D01*
X149692907Y-109115747D01*
X149742407Y-109079783D01*
X149798621Y-109078312D01*
X149844108Y-109090500D01*
X149844109Y-109090500D01*
X149975891Y-109090500D01*
X149975892Y-109090500D01*
X150021378Y-109078312D01*
X150082477Y-109081513D01*
G37*
%TD.AperFunction*%
%TA.AperFunction,Conductor*%
G36*
X153117831Y-108372907D02*
G01*
X153129644Y-108382996D01*
X154645143Y-109898496D01*
X154672920Y-109953013D01*
X154663349Y-110013445D01*
X154620084Y-110056710D01*
X154575139Y-110067500D01*
X151506860Y-110067500D01*
X151448669Y-110048593D01*
X151436856Y-110038504D01*
X150702996Y-109304644D01*
X150675219Y-109250127D01*
X150674000Y-109234640D01*
X150674000Y-109173938D01*
X150692907Y-109115747D01*
X150742407Y-109079783D01*
X150798621Y-109078312D01*
X150844108Y-109090500D01*
X150844109Y-109090500D01*
X150975890Y-109090500D01*
X150975892Y-109090500D01*
X151103186Y-109056392D01*
X151103188Y-109056390D01*
X151103190Y-109056390D01*
X151217309Y-108990503D01*
X151217309Y-108990502D01*
X151217314Y-108990500D01*
X151310500Y-108897314D01*
X151324264Y-108873474D01*
X151369733Y-108832534D01*
X151430583Y-108826138D01*
X151483571Y-108856731D01*
X151495734Y-108873471D01*
X151509500Y-108897314D01*
X151602686Y-108990500D01*
X151602688Y-108990501D01*
X151602690Y-108990503D01*
X151716810Y-109056390D01*
X151716808Y-109056390D01*
X151716812Y-109056391D01*
X151716814Y-109056392D01*
X151844108Y-109090500D01*
X151844110Y-109090500D01*
X151975890Y-109090500D01*
X151975892Y-109090500D01*
X152103186Y-109056392D01*
X152103188Y-109056390D01*
X152103190Y-109056390D01*
X152217309Y-108990503D01*
X152217309Y-108990502D01*
X152217314Y-108990500D01*
X152310500Y-108897314D01*
X152310503Y-108897309D01*
X152376390Y-108783190D01*
X152376390Y-108783188D01*
X152376392Y-108783186D01*
X152410500Y-108655892D01*
X152410500Y-108524108D01*
X152398312Y-108478621D01*
X152401515Y-108417521D01*
X152440020Y-108369971D01*
X152493939Y-108354000D01*
X153059640Y-108354000D01*
X153117831Y-108372907D01*
G37*
%TD.AperFunction*%
%TA.AperFunction,Conductor*%
G36*
X146483571Y-108856731D02*
G01*
X146495734Y-108873471D01*
X146509500Y-108897314D01*
X146602686Y-108990500D01*
X146602691Y-108990503D01*
X146607261Y-108994009D01*
X146641921Y-109044430D01*
X146646000Y-109072556D01*
X146646000Y-109339640D01*
X146627093Y-109397831D01*
X146617004Y-109409644D01*
X146343004Y-109683644D01*
X146288487Y-109711421D01*
X146228055Y-109701850D01*
X146184790Y-109658585D01*
X146174000Y-109613640D01*
X146174000Y-109072556D01*
X146192907Y-109014365D01*
X146212739Y-108994009D01*
X146217304Y-108990505D01*
X146217314Y-108990500D01*
X146310500Y-108897314D01*
X146324264Y-108873474D01*
X146369733Y-108832534D01*
X146430583Y-108826138D01*
X146483571Y-108856731D01*
G37*
%TD.AperFunction*%
%TA.AperFunction,Conductor*%
G36*
X144384252Y-107372906D02*
G01*
X144420216Y-107422406D01*
X144421688Y-107478621D01*
X144409500Y-107524108D01*
X144409500Y-107655892D01*
X144433276Y-107744626D01*
X144443609Y-107783190D01*
X144509496Y-107897309D01*
X144509498Y-107897311D01*
X144509500Y-107897314D01*
X144602686Y-107990500D01*
X144602688Y-107990501D01*
X144626525Y-108004264D01*
X144667465Y-108049734D01*
X144673860Y-108110584D01*
X144643267Y-108163572D01*
X144626525Y-108175736D01*
X144602688Y-108189498D01*
X144509496Y-108282690D01*
X144443609Y-108396809D01*
X144428091Y-108454724D01*
X144409500Y-108524108D01*
X144409500Y-108655892D01*
X144433070Y-108743857D01*
X144443609Y-108783190D01*
X144509496Y-108897309D01*
X144509498Y-108897311D01*
X144509500Y-108897314D01*
X144602686Y-108990500D01*
X144602688Y-108990501D01*
X144602690Y-108990503D01*
X144716810Y-109056390D01*
X144716808Y-109056390D01*
X144716812Y-109056391D01*
X144716814Y-109056392D01*
X144844108Y-109090500D01*
X144844110Y-109090500D01*
X144975891Y-109090500D01*
X144975892Y-109090500D01*
X145021378Y-109078312D01*
X145082477Y-109081513D01*
X145130028Y-109120017D01*
X145146000Y-109173938D01*
X145146000Y-109527000D01*
X145127093Y-109585191D01*
X145077593Y-109621155D01*
X145047000Y-109626000D01*
X141056260Y-109626000D01*
X140998069Y-109607093D01*
X140986257Y-109597004D01*
X140756543Y-109367291D01*
X140672518Y-109332487D01*
X140659513Y-109327100D01*
X137402512Y-109327100D01*
X137369261Y-109327100D01*
X137311070Y-109308193D01*
X137275106Y-109258693D01*
X137275106Y-109197507D01*
X137299257Y-109158096D01*
X139074357Y-107382996D01*
X139128874Y-107355219D01*
X139144361Y-107354000D01*
X143674036Y-107354000D01*
X143674044Y-107353999D01*
X144326061Y-107353999D01*
X144384252Y-107372906D01*
G37*
%TD.AperFunction*%
%TA.AperFunction,Conductor*%
G36*
X170037402Y-108743857D02*
G01*
X170085288Y-108775854D01*
X170085299Y-108775860D01*
X170143444Y-108799944D01*
X170244626Y-108841855D01*
X170413771Y-108875500D01*
X170413772Y-108875500D01*
X170586228Y-108875500D01*
X170586229Y-108875500D01*
X170755374Y-108841855D01*
X170844966Y-108804744D01*
X170905960Y-108799944D01*
X170952853Y-108826205D01*
X171079004Y-108952356D01*
X171106781Y-109006873D01*
X171108000Y-109022360D01*
X171108000Y-109168081D01*
X171089093Y-109226272D01*
X171039593Y-109262236D01*
X170978407Y-109262236D01*
X170953998Y-109250396D01*
X170914712Y-109224145D01*
X170914700Y-109224139D01*
X170755374Y-109158145D01*
X170586231Y-109124500D01*
X170586229Y-109124500D01*
X170413771Y-109124500D01*
X170413768Y-109124500D01*
X170244626Y-109158145D01*
X170244624Y-109158145D01*
X170085299Y-109224139D01*
X170085287Y-109224145D01*
X169941901Y-109319955D01*
X169941891Y-109319963D01*
X169829857Y-109431997D01*
X169775341Y-109459774D01*
X169714909Y-109450202D01*
X169689850Y-109431997D01*
X169668197Y-109410344D01*
X169640420Y-109355827D01*
X169649991Y-109295395D01*
X169688701Y-109254604D01*
X169709513Y-109242589D01*
X169793389Y-109158713D01*
X169813142Y-109124500D01*
X169852697Y-109055990D01*
X169852697Y-109055988D01*
X169852699Y-109055986D01*
X169883400Y-108941409D01*
X169883400Y-108826172D01*
X169902307Y-108767981D01*
X169951807Y-108732017D01*
X170012993Y-108732017D01*
X170037402Y-108743857D01*
G37*
%TD.AperFunction*%
%TA.AperFunction,Conductor*%
G36*
X166979774Y-106324226D02*
G01*
X167888698Y-107233150D01*
X167916475Y-107287667D01*
X167906904Y-107348099D01*
X167888698Y-107373158D01*
X167819958Y-107441897D01*
X167819955Y-107441901D01*
X167724145Y-107585287D01*
X167724139Y-107585299D01*
X167658145Y-107744624D01*
X167658145Y-107744626D01*
X167624500Y-107913768D01*
X167624500Y-108086231D01*
X167658145Y-108255373D01*
X167658145Y-108255375D01*
X167724139Y-108414700D01*
X167724145Y-108414712D01*
X167792660Y-108517249D01*
X167819955Y-108558099D01*
X167819958Y-108558102D01*
X167865852Y-108603996D01*
X167893629Y-108658513D01*
X167884058Y-108718945D01*
X167840793Y-108762210D01*
X167795848Y-108773000D01*
X166324960Y-108773000D01*
X166266769Y-108754093D01*
X166254956Y-108744004D01*
X165567344Y-108056392D01*
X164877144Y-107366192D01*
X164877142Y-107366191D01*
X164877141Y-107366190D01*
X164814417Y-107340209D01*
X164780113Y-107326000D01*
X164780112Y-107326000D01*
X153586360Y-107326000D01*
X153528169Y-107307093D01*
X153492205Y-107257593D01*
X153492205Y-107196407D01*
X153516357Y-107156996D01*
X153871958Y-106801396D01*
X153926474Y-106773619D01*
X153941961Y-106772400D01*
X157056791Y-106772400D01*
X157114982Y-106791307D01*
X157126788Y-106801390D01*
X157194287Y-106868889D01*
X157194289Y-106868890D01*
X157194291Y-106868892D01*
X157297010Y-106928197D01*
X157297011Y-106928197D01*
X157297014Y-106928199D01*
X157411591Y-106958900D01*
X157411593Y-106958900D01*
X157530207Y-106958900D01*
X157530209Y-106958900D01*
X157644786Y-106928199D01*
X157644788Y-106928197D01*
X157644790Y-106928197D01*
X157747508Y-106868892D01*
X157747508Y-106868891D01*
X157747513Y-106868889D01*
X157831389Y-106785013D01*
X157836481Y-106776194D01*
X157890697Y-106682290D01*
X157890697Y-106682288D01*
X157890699Y-106682286D01*
X157921400Y-106567709D01*
X157921400Y-106449091D01*
X157921399Y-106449090D01*
X157920553Y-106442659D01*
X157923551Y-106442264D01*
X157926133Y-106393565D01*
X157964667Y-106346039D01*
X158018536Y-106330100D01*
X164904640Y-106330100D01*
X164962831Y-106349007D01*
X164974644Y-106359096D01*
X165416604Y-106801056D01*
X165444381Y-106855573D01*
X165445600Y-106871060D01*
X165445600Y-106966509D01*
X165458976Y-107016429D01*
X165476302Y-107081090D01*
X165535607Y-107183808D01*
X165535609Y-107183810D01*
X165535611Y-107183813D01*
X165619487Y-107267689D01*
X165619489Y-107267690D01*
X165619491Y-107267692D01*
X165722210Y-107326997D01*
X165722211Y-107326997D01*
X165722214Y-107326999D01*
X165836791Y-107357700D01*
X165836793Y-107357700D01*
X165955407Y-107357700D01*
X165955409Y-107357700D01*
X166069986Y-107326999D01*
X166069988Y-107326997D01*
X166069990Y-107326997D01*
X166172708Y-107267692D01*
X166172708Y-107267691D01*
X166172713Y-107267689D01*
X166256589Y-107183813D01*
X166272072Y-107156996D01*
X166315897Y-107081090D01*
X166315897Y-107081088D01*
X166315899Y-107081086D01*
X166346600Y-106966509D01*
X166346600Y-106847891D01*
X166315899Y-106733314D01*
X166315897Y-106733311D01*
X166315897Y-106733309D01*
X166268559Y-106651318D01*
X166255837Y-106591470D01*
X166280723Y-106535574D01*
X166333711Y-106504981D01*
X166379917Y-106506191D01*
X166407191Y-106513500D01*
X166407192Y-106513500D01*
X166525807Y-106513500D01*
X166525809Y-106513500D01*
X166640386Y-106482799D01*
X166640388Y-106482797D01*
X166640390Y-106482797D01*
X166743108Y-106423492D01*
X166743108Y-106423491D01*
X166743113Y-106423489D01*
X166826989Y-106339613D01*
X166826992Y-106339607D01*
X166830940Y-106334464D01*
X166833397Y-106336349D01*
X166869313Y-106303874D01*
X166930150Y-106297350D01*
X166979774Y-106324226D01*
G37*
%TD.AperFunction*%
%TA.AperFunction,Conductor*%
G36*
X146483571Y-107856731D02*
G01*
X146495734Y-107873471D01*
X146509500Y-107897314D01*
X146602686Y-107990500D01*
X146602688Y-107990501D01*
X146626525Y-108004264D01*
X146667465Y-108049734D01*
X146673860Y-108110584D01*
X146643267Y-108163572D01*
X146626525Y-108175736D01*
X146602688Y-108189498D01*
X146509498Y-108282688D01*
X146495736Y-108306525D01*
X146450266Y-108347465D01*
X146389416Y-108353860D01*
X146336428Y-108323267D01*
X146324264Y-108306525D01*
X146310501Y-108282688D01*
X146310500Y-108282686D01*
X146217314Y-108189500D01*
X146193474Y-108175735D01*
X146152534Y-108130267D01*
X146146138Y-108069417D01*
X146176731Y-108016429D01*
X146193474Y-108004264D01*
X146217314Y-107990500D01*
X146310500Y-107897314D01*
X146324264Y-107873474D01*
X146369733Y-107832534D01*
X146430583Y-107826138D01*
X146483571Y-107856731D01*
G37*
%TD.AperFunction*%
%TA.AperFunction,Conductor*%
G36*
X147483571Y-107856731D02*
G01*
X147495734Y-107873471D01*
X147509500Y-107897314D01*
X147602686Y-107990500D01*
X147602688Y-107990501D01*
X147626525Y-108004264D01*
X147667465Y-108049734D01*
X147673860Y-108110584D01*
X147643267Y-108163572D01*
X147626525Y-108175736D01*
X147602688Y-108189498D01*
X147509498Y-108282688D01*
X147495736Y-108306525D01*
X147450266Y-108347465D01*
X147389416Y-108353860D01*
X147336428Y-108323267D01*
X147324264Y-108306525D01*
X147310501Y-108282688D01*
X147310500Y-108282686D01*
X147217314Y-108189500D01*
X147193474Y-108175735D01*
X147152534Y-108130267D01*
X147146138Y-108069417D01*
X147176731Y-108016429D01*
X147193474Y-108004264D01*
X147217314Y-107990500D01*
X147310500Y-107897314D01*
X147324264Y-107873474D01*
X147369733Y-107832534D01*
X147430583Y-107826138D01*
X147483571Y-107856731D01*
G37*
%TD.AperFunction*%
%TA.AperFunction,Conductor*%
G36*
X148483571Y-105856731D02*
G01*
X148495734Y-105873471D01*
X148509500Y-105897314D01*
X148602686Y-105990500D01*
X148602691Y-105990503D01*
X148607261Y-105994009D01*
X148616262Y-106007103D01*
X148628827Y-106016830D01*
X148633603Y-106032330D01*
X148641921Y-106044430D01*
X148641562Y-106058156D01*
X148646000Y-106072556D01*
X148646000Y-106107442D01*
X148627093Y-106165633D01*
X148607271Y-106185981D01*
X148602692Y-106189494D01*
X148602686Y-106189500D01*
X148509500Y-106282686D01*
X148509411Y-106282838D01*
X148505798Y-106287508D01*
X148480764Y-106304556D01*
X148455627Y-106321831D01*
X148455368Y-106321851D01*
X148455227Y-106321948D01*
X148454443Y-106321924D01*
X148414593Y-106325059D01*
X148390273Y-106321857D01*
X148122132Y-106589999D01*
X148390273Y-106858140D01*
X148414591Y-106854939D01*
X148474752Y-106866089D01*
X148506054Y-106892823D01*
X148509497Y-106897310D01*
X148509498Y-106897311D01*
X148509500Y-106897314D01*
X148602686Y-106990500D01*
X148602688Y-106990501D01*
X148626525Y-107004264D01*
X148667465Y-107049734D01*
X148673860Y-107110584D01*
X148643267Y-107163572D01*
X148626525Y-107175736D01*
X148602688Y-107189498D01*
X148509498Y-107282688D01*
X148495736Y-107306525D01*
X148450266Y-107347465D01*
X148389416Y-107353860D01*
X148336428Y-107323267D01*
X148324264Y-107306525D01*
X148313376Y-107287667D01*
X148310500Y-107282686D01*
X148217314Y-107189500D01*
X148217311Y-107189498D01*
X148217310Y-107189497D01*
X148212823Y-107186054D01*
X148178168Y-107135629D01*
X148174939Y-107094591D01*
X148178140Y-107070273D01*
X147909999Y-106802132D01*
X147641857Y-107070273D01*
X147645059Y-107094593D01*
X147633908Y-107154754D01*
X147607178Y-107186053D01*
X147602689Y-107189497D01*
X147509498Y-107282688D01*
X147495736Y-107306525D01*
X147450266Y-107347465D01*
X147389416Y-107353860D01*
X147336428Y-107323267D01*
X147324264Y-107306525D01*
X147313376Y-107287667D01*
X147310500Y-107282686D01*
X147217314Y-107189500D01*
X147217311Y-107189498D01*
X147217310Y-107189497D01*
X147212823Y-107186054D01*
X147178168Y-107135629D01*
X147174939Y-107094591D01*
X147178140Y-107070273D01*
X146909999Y-106802132D01*
X146641857Y-107070273D01*
X146645059Y-107094593D01*
X146633908Y-107154754D01*
X146607178Y-107186053D01*
X146602689Y-107189497D01*
X146509498Y-107282688D01*
X146495736Y-107306525D01*
X146450266Y-107347465D01*
X146389416Y-107353860D01*
X146336428Y-107323267D01*
X146324264Y-107306525D01*
X146313376Y-107287667D01*
X146310500Y-107282686D01*
X146217314Y-107189500D01*
X146193474Y-107175735D01*
X146152534Y-107130267D01*
X146146138Y-107069417D01*
X146176731Y-107016429D01*
X146193474Y-107004264D01*
X146217314Y-106990500D01*
X146310500Y-106897314D01*
X146310505Y-106897304D01*
X146313941Y-106892828D01*
X146364364Y-106858170D01*
X146405410Y-106854939D01*
X146429726Y-106858140D01*
X146697867Y-106590000D01*
X146663057Y-106555190D01*
X146735000Y-106555190D01*
X146735000Y-106624810D01*
X146761643Y-106689129D01*
X146810871Y-106738357D01*
X146875190Y-106765000D01*
X146944810Y-106765000D01*
X147009129Y-106738357D01*
X147058357Y-106689129D01*
X147085000Y-106624810D01*
X147085000Y-106589999D01*
X147122132Y-106589999D01*
X147390273Y-106858140D01*
X147397077Y-106857245D01*
X147422922Y-106857245D01*
X147429726Y-106858140D01*
X147697867Y-106590000D01*
X147663057Y-106555190D01*
X147735000Y-106555190D01*
X147735000Y-106624810D01*
X147761643Y-106689129D01*
X147810871Y-106738357D01*
X147875190Y-106765000D01*
X147944810Y-106765000D01*
X148009129Y-106738357D01*
X148058357Y-106689129D01*
X148085000Y-106624810D01*
X148085000Y-106555190D01*
X148058357Y-106490871D01*
X148009129Y-106441643D01*
X147944810Y-106415000D01*
X147875190Y-106415000D01*
X147810871Y-106441643D01*
X147761643Y-106490871D01*
X147735000Y-106555190D01*
X147663057Y-106555190D01*
X147429724Y-106321857D01*
X147422921Y-106322753D01*
X147397079Y-106322753D01*
X147390273Y-106321857D01*
X147122132Y-106589999D01*
X147085000Y-106589999D01*
X147085000Y-106555190D01*
X147058357Y-106490871D01*
X147009129Y-106441643D01*
X146944810Y-106415000D01*
X146875190Y-106415000D01*
X146810871Y-106441643D01*
X146761643Y-106490871D01*
X146735000Y-106555190D01*
X146663057Y-106555190D01*
X146429724Y-106321857D01*
X146405408Y-106325059D01*
X146345247Y-106313909D01*
X146313947Y-106287178D01*
X146310502Y-106282689D01*
X146310501Y-106282688D01*
X146310500Y-106282686D01*
X146217314Y-106189500D01*
X146193474Y-106175735D01*
X146152534Y-106130267D01*
X146146138Y-106069417D01*
X146176731Y-106016429D01*
X146193474Y-106004264D01*
X146217314Y-105990500D01*
X146310500Y-105897314D01*
X146324264Y-105873474D01*
X146369733Y-105832534D01*
X146430583Y-105826138D01*
X146483571Y-105856731D01*
X146495734Y-105873471D01*
X146509500Y-105897314D01*
X146602686Y-105990500D01*
X146602688Y-105990501D01*
X146602689Y-105990502D01*
X146607178Y-105993947D01*
X146641831Y-106044373D01*
X146645059Y-106085408D01*
X146641857Y-106109724D01*
X146910000Y-106377867D01*
X147178140Y-106109726D01*
X147174939Y-106085410D01*
X147186088Y-106025249D01*
X147212828Y-105993941D01*
X147217304Y-105990505D01*
X147217314Y-105990500D01*
X147310500Y-105897314D01*
X147324264Y-105873474D01*
X147369733Y-105832534D01*
X147430583Y-105826138D01*
X147483571Y-105856731D01*
X147495734Y-105873471D01*
X147509500Y-105897314D01*
X147602686Y-105990500D01*
X147602688Y-105990501D01*
X147602689Y-105990502D01*
X147607178Y-105993947D01*
X147641831Y-106044373D01*
X147645059Y-106085408D01*
X147641857Y-106109724D01*
X147910000Y-106377867D01*
X148178140Y-106109726D01*
X148174939Y-106085410D01*
X148178641Y-106065429D01*
X148177949Y-106045121D01*
X148184089Y-106036033D01*
X148186088Y-106025249D01*
X148211407Y-105995603D01*
X148212205Y-105994424D01*
X148217009Y-105990675D01*
X148217314Y-105990500D01*
X148310500Y-105897314D01*
X148324264Y-105873474D01*
X148369733Y-105832534D01*
X148430583Y-105826138D01*
X148483571Y-105856731D01*
G37*
%TD.AperFunction*%
%TA.AperFunction,Conductor*%
G36*
X149483571Y-106856731D02*
G01*
X149495734Y-106873471D01*
X149509500Y-106897314D01*
X149602686Y-106990500D01*
X149602688Y-106990501D01*
X149626525Y-107004264D01*
X149667465Y-107049734D01*
X149673860Y-107110584D01*
X149643267Y-107163572D01*
X149626525Y-107175736D01*
X149602688Y-107189498D01*
X149509498Y-107282688D01*
X149495736Y-107306525D01*
X149450266Y-107347465D01*
X149389416Y-107353860D01*
X149336428Y-107323267D01*
X149324264Y-107306525D01*
X149313376Y-107287667D01*
X149310500Y-107282686D01*
X149217314Y-107189500D01*
X149193474Y-107175735D01*
X149152534Y-107130267D01*
X149146138Y-107069417D01*
X149176731Y-107016429D01*
X149193474Y-107004264D01*
X149217314Y-106990500D01*
X149310500Y-106897314D01*
X149324264Y-106873474D01*
X149369733Y-106832534D01*
X149430583Y-106826138D01*
X149483571Y-106856731D01*
G37*
%TD.AperFunction*%
%TA.AperFunction,Conductor*%
G36*
X144333006Y-106372907D02*
G01*
X144368970Y-106422407D01*
X144370441Y-106478624D01*
X144360000Y-106517588D01*
X144360000Y-106662411D01*
X144370441Y-106701375D01*
X144367240Y-106762476D01*
X144328735Y-106810027D01*
X144274815Y-106825999D01*
X143545964Y-106825999D01*
X143545956Y-106826000D01*
X143390956Y-106826000D01*
X143332765Y-106807093D01*
X143296801Y-106757593D01*
X143295330Y-106701376D01*
X143295330Y-106701375D01*
X143306200Y-106660809D01*
X143306200Y-106542191D01*
X143289167Y-106478623D01*
X143292368Y-106417522D01*
X143330873Y-106369972D01*
X143384793Y-106354000D01*
X144274815Y-106354000D01*
X144333006Y-106372907D01*
G37*
%TD.AperFunction*%
%TA.AperFunction,Conductor*%
G36*
X153415730Y-106349007D02*
G01*
X153451694Y-106398507D01*
X153451694Y-106459693D01*
X153427543Y-106499103D01*
X153129645Y-106797002D01*
X153075128Y-106824780D01*
X153059641Y-106825999D01*
X152493939Y-106825999D01*
X152435748Y-106807092D01*
X152399784Y-106757592D01*
X152398312Y-106701378D01*
X152410500Y-106655892D01*
X152410500Y-106524108D01*
X152398312Y-106478621D01*
X152401515Y-106417521D01*
X152440020Y-106369971D01*
X152493939Y-106354000D01*
X153262513Y-106354000D01*
X153302020Y-106337636D01*
X153339905Y-106330100D01*
X153357539Y-106330100D01*
X153415730Y-106349007D01*
G37*
%TD.AperFunction*%
%TA.AperFunction,Conductor*%
G36*
X136286731Y-103991607D02*
G01*
X136322695Y-104041107D01*
X136322695Y-104102293D01*
X136298544Y-104141704D01*
X133733244Y-106707004D01*
X133678727Y-106734781D01*
X133663240Y-106736000D01*
X129241152Y-106736000D01*
X129182961Y-106717093D01*
X129146997Y-106667593D01*
X129146997Y-106606407D01*
X129171148Y-106566996D01*
X129180045Y-106558099D01*
X129262548Y-106434625D01*
X129275854Y-106414712D01*
X129275860Y-106414700D01*
X129303071Y-106349007D01*
X129341855Y-106255374D01*
X129375500Y-106086229D01*
X129375500Y-105913771D01*
X129341855Y-105744626D01*
X129304745Y-105655034D01*
X129275860Y-105585299D01*
X129275854Y-105585287D01*
X129216284Y-105496136D01*
X129180045Y-105441901D01*
X129139120Y-105400976D01*
X129111343Y-105346459D01*
X129120914Y-105286027D01*
X129164179Y-105242762D01*
X129171217Y-105239517D01*
X129209144Y-105223808D01*
X130431257Y-104001696D01*
X130485774Y-103973919D01*
X130501261Y-103972700D01*
X136228540Y-103972700D01*
X136286731Y-103991607D01*
G37*
%TD.AperFunction*%
%TA.AperFunction,Conductor*%
G36*
X165760286Y-105107798D02*
G01*
X165776371Y-105120823D01*
X166205273Y-105549725D01*
X166233050Y-105604242D01*
X166223479Y-105664674D01*
X166193379Y-105696400D01*
X166195036Y-105698560D01*
X166189890Y-105702508D01*
X166106007Y-105786391D01*
X166046702Y-105889109D01*
X166046701Y-105889114D01*
X166016000Y-106003691D01*
X166016000Y-106122309D01*
X166027303Y-106164492D01*
X166046701Y-106236887D01*
X166094041Y-106318881D01*
X166106762Y-106378729D01*
X166081875Y-106434625D01*
X166028887Y-106465218D01*
X165982682Y-106464008D01*
X165955409Y-106456700D01*
X165859960Y-106456700D01*
X165801769Y-106437793D01*
X165789956Y-106427704D01*
X165497807Y-106135555D01*
X165204544Y-105842292D01*
X165204542Y-105842291D01*
X165204541Y-105842290D01*
X165156020Y-105822192D01*
X165109494Y-105782455D01*
X165095211Y-105722960D01*
X165098278Y-105705111D01*
X165106800Y-105673309D01*
X165106800Y-105639500D01*
X165125707Y-105581309D01*
X165175207Y-105545345D01*
X165205800Y-105540500D01*
X165223807Y-105540500D01*
X165223809Y-105540500D01*
X165338386Y-105509799D01*
X165338388Y-105509797D01*
X165338390Y-105509797D01*
X165441108Y-105450492D01*
X165441108Y-105450491D01*
X165441113Y-105450489D01*
X165524989Y-105366613D01*
X165536625Y-105346459D01*
X165584297Y-105263890D01*
X165584297Y-105263888D01*
X165584299Y-105263886D01*
X165610741Y-105165201D01*
X165644064Y-105113890D01*
X165701186Y-105091963D01*
X165760286Y-105107798D01*
G37*
%TD.AperFunction*%
%TA.AperFunction,Conductor*%
G36*
X149483571Y-105856731D02*
G01*
X149495734Y-105873471D01*
X149509500Y-105897314D01*
X149602686Y-105990500D01*
X149608221Y-105993695D01*
X149626525Y-106004264D01*
X149667465Y-106049734D01*
X149673860Y-106110584D01*
X149643267Y-106163572D01*
X149626525Y-106175736D01*
X149602688Y-106189498D01*
X149509498Y-106282688D01*
X149495736Y-106306525D01*
X149450266Y-106347465D01*
X149389416Y-106353860D01*
X149336428Y-106323267D01*
X149324264Y-106306525D01*
X149310501Y-106282688D01*
X149310500Y-106282686D01*
X149217314Y-106189500D01*
X149217311Y-106189498D01*
X149217307Y-106189494D01*
X149212729Y-106185981D01*
X149178076Y-106135555D01*
X149174000Y-106107442D01*
X149174000Y-106072556D01*
X149192907Y-106014365D01*
X149212739Y-105994009D01*
X149217304Y-105990505D01*
X149217314Y-105990500D01*
X149310500Y-105897314D01*
X149324264Y-105873474D01*
X149369733Y-105832534D01*
X149430583Y-105826138D01*
X149483571Y-105856731D01*
G37*
%TD.AperFunction*%
%TA.AperFunction,Conductor*%
G36*
X165830972Y-103704324D02*
G01*
X166762989Y-104636342D01*
X167673793Y-105547146D01*
X167701570Y-105601663D01*
X167695254Y-105655034D01*
X167658144Y-105744627D01*
X167624500Y-105913768D01*
X167624500Y-105983240D01*
X167605593Y-106041431D01*
X167556093Y-106077395D01*
X167494907Y-106077395D01*
X167455496Y-106053244D01*
X165477764Y-104075512D01*
X165449987Y-104020995D01*
X165459558Y-103960563D01*
X165498267Y-103919772D01*
X165541713Y-103894689D01*
X165625589Y-103810813D01*
X165663802Y-103744627D01*
X165675233Y-103724829D01*
X165720702Y-103683888D01*
X165781553Y-103677492D01*
X165830972Y-103704324D01*
G37*
%TD.AperFunction*%
%TA.AperFunction,Conductor*%
G36*
X164526731Y-103872907D02*
G01*
X164538544Y-103882996D01*
X165133676Y-104478128D01*
X165161453Y-104532645D01*
X165151882Y-104593077D01*
X165108617Y-104636342D01*
X165089296Y-104643758D01*
X164990614Y-104670200D01*
X164990610Y-104670202D01*
X164887891Y-104729507D01*
X164804007Y-104813391D01*
X164744702Y-104916109D01*
X164734496Y-104954198D01*
X164721082Y-105004263D01*
X164714000Y-105030692D01*
X164714000Y-105064500D01*
X164695093Y-105122691D01*
X164645593Y-105158655D01*
X164615000Y-105163500D01*
X164596991Y-105163500D01*
X164526867Y-105182289D01*
X164482409Y-105194202D01*
X164379691Y-105253507D01*
X164295807Y-105337391D01*
X164236502Y-105440110D01*
X164236501Y-105440111D01*
X164235240Y-105444821D01*
X164201918Y-105496136D01*
X164144797Y-105518064D01*
X164139613Y-105518200D01*
X154699462Y-105518200D01*
X154641271Y-105499293D01*
X154605307Y-105449793D01*
X154604177Y-105406099D01*
X154601453Y-105405741D01*
X154602300Y-105399308D01*
X154602300Y-105280692D01*
X154598154Y-105265219D01*
X154571599Y-105166114D01*
X154571597Y-105166111D01*
X154571597Y-105166109D01*
X154512292Y-105063391D01*
X154512290Y-105063389D01*
X154512289Y-105063387D01*
X154428413Y-104979511D01*
X154428410Y-104979509D01*
X154428408Y-104979507D01*
X154325689Y-104920202D01*
X154325690Y-104920202D01*
X154310415Y-104916109D01*
X154211109Y-104889500D01*
X154115659Y-104889500D01*
X154059653Y-104871303D01*
X154059450Y-104871608D01*
X154058369Y-104870885D01*
X154057468Y-104870593D01*
X154055803Y-104869171D01*
X154051345Y-104866192D01*
X153992590Y-104841855D01*
X153954313Y-104826000D01*
X153954312Y-104826000D01*
X152493939Y-104826000D01*
X152435748Y-104807093D01*
X152399784Y-104757593D01*
X152395374Y-104717727D01*
X152396154Y-104709430D01*
X152410500Y-104655892D01*
X152410500Y-104568091D01*
X156627900Y-104568091D01*
X156627900Y-104686709D01*
X156651788Y-104775858D01*
X156658602Y-104801290D01*
X156717907Y-104904008D01*
X156717909Y-104904010D01*
X156717911Y-104904013D01*
X156801787Y-104987889D01*
X156801789Y-104987890D01*
X156801791Y-104987892D01*
X156904510Y-105047197D01*
X156904511Y-105047197D01*
X156904514Y-105047199D01*
X157019091Y-105077900D01*
X157019093Y-105077900D01*
X157137707Y-105077900D01*
X157137709Y-105077900D01*
X157252286Y-105047199D01*
X157252288Y-105047197D01*
X157252290Y-105047197D01*
X157355008Y-104987892D01*
X157355008Y-104987891D01*
X157355013Y-104987889D01*
X157438889Y-104904013D01*
X157491210Y-104813391D01*
X157498197Y-104801290D01*
X157498197Y-104801288D01*
X157498199Y-104801286D01*
X157528900Y-104686709D01*
X157528900Y-104568091D01*
X157498199Y-104453514D01*
X157498197Y-104453511D01*
X157498197Y-104453509D01*
X157438892Y-104350791D01*
X157438890Y-104350789D01*
X157438889Y-104350787D01*
X157355013Y-104266911D01*
X157355010Y-104266909D01*
X157355008Y-104266907D01*
X157252289Y-104207602D01*
X157252290Y-104207602D01*
X157238751Y-104203974D01*
X157137709Y-104176900D01*
X157019091Y-104176900D01*
X156948967Y-104195689D01*
X156904509Y-104207602D01*
X156801791Y-104266907D01*
X156717907Y-104350791D01*
X156658602Y-104453509D01*
X156651873Y-104478624D01*
X156627900Y-104568091D01*
X152410500Y-104568091D01*
X152410500Y-104524108D01*
X152376392Y-104396814D01*
X152376390Y-104396811D01*
X152376390Y-104396809D01*
X152310503Y-104282690D01*
X152310501Y-104282688D01*
X152310500Y-104282686D01*
X152217314Y-104189500D01*
X152193474Y-104175735D01*
X152152534Y-104130267D01*
X152146138Y-104069417D01*
X152176731Y-104016429D01*
X152193474Y-104004264D01*
X152217314Y-103990500D01*
X152310500Y-103897314D01*
X152310503Y-103897308D01*
X152314014Y-103892734D01*
X152364437Y-103858077D01*
X152392557Y-103854000D01*
X152757487Y-103854000D01*
X164468540Y-103854000D01*
X164526731Y-103872907D01*
G37*
%TD.AperFunction*%
%TA.AperFunction,Conductor*%
G36*
X146483571Y-104856731D02*
G01*
X146495734Y-104873471D01*
X146509500Y-104897314D01*
X146602686Y-104990500D01*
X146602688Y-104990501D01*
X146626525Y-105004264D01*
X146667465Y-105049734D01*
X146673860Y-105110584D01*
X146643267Y-105163572D01*
X146626525Y-105175736D01*
X146602688Y-105189498D01*
X146509498Y-105282688D01*
X146495736Y-105306525D01*
X146450266Y-105347465D01*
X146389416Y-105353860D01*
X146336428Y-105323267D01*
X146324264Y-105306525D01*
X146312429Y-105286027D01*
X146310500Y-105282686D01*
X146217314Y-105189500D01*
X146193474Y-105175735D01*
X146152534Y-105130267D01*
X146146138Y-105069417D01*
X146176731Y-105016429D01*
X146193474Y-105004264D01*
X146217314Y-104990500D01*
X146310500Y-104897314D01*
X146324264Y-104873474D01*
X146369733Y-104832534D01*
X146430583Y-104826138D01*
X146483571Y-104856731D01*
G37*
%TD.AperFunction*%
%TA.AperFunction,Conductor*%
G36*
X147483571Y-104856731D02*
G01*
X147495734Y-104873471D01*
X147509500Y-104897314D01*
X147602686Y-104990500D01*
X147602688Y-104990501D01*
X147626525Y-105004264D01*
X147667465Y-105049734D01*
X147673860Y-105110584D01*
X147643267Y-105163572D01*
X147626525Y-105175736D01*
X147602688Y-105189498D01*
X147509498Y-105282688D01*
X147495736Y-105306525D01*
X147450266Y-105347465D01*
X147389416Y-105353860D01*
X147336428Y-105323267D01*
X147324264Y-105306525D01*
X147312429Y-105286027D01*
X147310500Y-105282686D01*
X147217314Y-105189500D01*
X147193474Y-105175735D01*
X147152534Y-105130267D01*
X147146138Y-105069417D01*
X147176731Y-105016429D01*
X147193474Y-105004264D01*
X147217314Y-104990500D01*
X147310500Y-104897314D01*
X147324264Y-104873474D01*
X147369733Y-104832534D01*
X147430583Y-104826138D01*
X147483571Y-104856731D01*
G37*
%TD.AperFunction*%
%TA.AperFunction,Conductor*%
G36*
X148483571Y-104856731D02*
G01*
X148495734Y-104873471D01*
X148509500Y-104897314D01*
X148602686Y-104990500D01*
X148602688Y-104990501D01*
X148626525Y-105004264D01*
X148667465Y-105049734D01*
X148673860Y-105110584D01*
X148643267Y-105163572D01*
X148626525Y-105175736D01*
X148602688Y-105189498D01*
X148509498Y-105282688D01*
X148495736Y-105306525D01*
X148450266Y-105347465D01*
X148389416Y-105353860D01*
X148336428Y-105323267D01*
X148324264Y-105306525D01*
X148312429Y-105286027D01*
X148310500Y-105282686D01*
X148217314Y-105189500D01*
X148193474Y-105175735D01*
X148152534Y-105130267D01*
X148146138Y-105069417D01*
X148176731Y-105016429D01*
X148193474Y-105004264D01*
X148217314Y-104990500D01*
X148310500Y-104897314D01*
X148324264Y-104873474D01*
X148369733Y-104832534D01*
X148430583Y-104826138D01*
X148483571Y-104856731D01*
G37*
%TD.AperFunction*%
%TA.AperFunction,Conductor*%
G36*
X149483571Y-104856731D02*
G01*
X149495734Y-104873471D01*
X149509500Y-104897314D01*
X149602686Y-104990500D01*
X149602688Y-104990501D01*
X149626525Y-105004264D01*
X149667465Y-105049734D01*
X149673860Y-105110584D01*
X149643267Y-105163572D01*
X149626525Y-105175736D01*
X149602688Y-105189498D01*
X149509498Y-105282688D01*
X149495736Y-105306525D01*
X149450266Y-105347465D01*
X149389416Y-105353860D01*
X149336428Y-105323267D01*
X149324264Y-105306525D01*
X149312429Y-105286027D01*
X149310500Y-105282686D01*
X149217314Y-105189500D01*
X149193474Y-105175735D01*
X149152534Y-105130267D01*
X149146138Y-105069417D01*
X149176731Y-105016429D01*
X149193474Y-105004264D01*
X149217314Y-104990500D01*
X149310500Y-104897314D01*
X149324264Y-104873474D01*
X149369733Y-104832534D01*
X149430583Y-104826138D01*
X149483571Y-104856731D01*
G37*
%TD.AperFunction*%
%TA.AperFunction,Conductor*%
G36*
X146483571Y-103856731D02*
G01*
X146495734Y-103873471D01*
X146509500Y-103897314D01*
X146602686Y-103990500D01*
X146608221Y-103993695D01*
X146626525Y-104004264D01*
X146667465Y-104049734D01*
X146673860Y-104110584D01*
X146643267Y-104163572D01*
X146626525Y-104175736D01*
X146602688Y-104189498D01*
X146509498Y-104282688D01*
X146495736Y-104306525D01*
X146450266Y-104347465D01*
X146389416Y-104353860D01*
X146336428Y-104323267D01*
X146324264Y-104306525D01*
X146310501Y-104282688D01*
X146310500Y-104282686D01*
X146217314Y-104189500D01*
X146193474Y-104175735D01*
X146152534Y-104130267D01*
X146146138Y-104069417D01*
X146176731Y-104016429D01*
X146193474Y-104004264D01*
X146217314Y-103990500D01*
X146310500Y-103897314D01*
X146324264Y-103873474D01*
X146369733Y-103832534D01*
X146430583Y-103826138D01*
X146483571Y-103856731D01*
G37*
%TD.AperFunction*%
%TA.AperFunction,Conductor*%
G36*
X147483571Y-103856731D02*
G01*
X147495734Y-103873471D01*
X147509500Y-103897314D01*
X147602686Y-103990500D01*
X147608221Y-103993695D01*
X147626525Y-104004264D01*
X147667465Y-104049734D01*
X147673860Y-104110584D01*
X147643267Y-104163572D01*
X147626525Y-104175736D01*
X147602688Y-104189498D01*
X147509498Y-104282688D01*
X147495736Y-104306525D01*
X147450266Y-104347465D01*
X147389416Y-104353860D01*
X147336428Y-104323267D01*
X147324264Y-104306525D01*
X147310501Y-104282688D01*
X147310500Y-104282686D01*
X147217314Y-104189500D01*
X147193474Y-104175735D01*
X147152534Y-104130267D01*
X147146138Y-104069417D01*
X147176731Y-104016429D01*
X147193474Y-104004264D01*
X147217314Y-103990500D01*
X147310500Y-103897314D01*
X147324264Y-103873474D01*
X147369733Y-103832534D01*
X147430583Y-103826138D01*
X147483571Y-103856731D01*
G37*
%TD.AperFunction*%
%TA.AperFunction,Conductor*%
G36*
X148483571Y-103856731D02*
G01*
X148495734Y-103873471D01*
X148509500Y-103897314D01*
X148602686Y-103990500D01*
X148608221Y-103993695D01*
X148626525Y-104004264D01*
X148667465Y-104049734D01*
X148673860Y-104110584D01*
X148643267Y-104163572D01*
X148626525Y-104175736D01*
X148602688Y-104189498D01*
X148509498Y-104282688D01*
X148495736Y-104306525D01*
X148450266Y-104347465D01*
X148389416Y-104353860D01*
X148336428Y-104323267D01*
X148324264Y-104306525D01*
X148310501Y-104282688D01*
X148310500Y-104282686D01*
X148217314Y-104189500D01*
X148193474Y-104175735D01*
X148152534Y-104130267D01*
X148146138Y-104069417D01*
X148176731Y-104016429D01*
X148193474Y-104004264D01*
X148217314Y-103990500D01*
X148310500Y-103897314D01*
X148324264Y-103873474D01*
X148369733Y-103832534D01*
X148430583Y-103826138D01*
X148483571Y-103856731D01*
G37*
%TD.AperFunction*%
%TA.AperFunction,Conductor*%
G36*
X149483571Y-103856731D02*
G01*
X149495734Y-103873471D01*
X149509500Y-103897314D01*
X149602686Y-103990500D01*
X149608221Y-103993695D01*
X149626525Y-104004264D01*
X149667465Y-104049734D01*
X149673860Y-104110584D01*
X149643267Y-104163572D01*
X149626525Y-104175736D01*
X149602688Y-104189498D01*
X149509498Y-104282688D01*
X149495736Y-104306525D01*
X149450266Y-104347465D01*
X149389416Y-104353860D01*
X149336428Y-104323267D01*
X149324264Y-104306525D01*
X149310501Y-104282688D01*
X149310500Y-104282686D01*
X149217314Y-104189500D01*
X149193474Y-104175735D01*
X149152534Y-104130267D01*
X149146138Y-104069417D01*
X149176731Y-104016429D01*
X149193474Y-104004264D01*
X149217314Y-103990500D01*
X149310500Y-103897314D01*
X149324264Y-103873474D01*
X149369733Y-103832534D01*
X149430583Y-103826138D01*
X149483571Y-103856731D01*
G37*
%TD.AperFunction*%
%TA.AperFunction,Conductor*%
G36*
X151483571Y-103856731D02*
G01*
X151495734Y-103873471D01*
X151509500Y-103897314D01*
X151602686Y-103990500D01*
X151608221Y-103993695D01*
X151626525Y-104004264D01*
X151667465Y-104049734D01*
X151673860Y-104110584D01*
X151643267Y-104163572D01*
X151626525Y-104175736D01*
X151602688Y-104189498D01*
X151509498Y-104282688D01*
X151495736Y-104306525D01*
X151450266Y-104347465D01*
X151389416Y-104353860D01*
X151336428Y-104323267D01*
X151324264Y-104306525D01*
X151310501Y-104282688D01*
X151310500Y-104282686D01*
X151217314Y-104189500D01*
X151193474Y-104175735D01*
X151152534Y-104130267D01*
X151146138Y-104069417D01*
X151176731Y-104016429D01*
X151193474Y-104004264D01*
X151217314Y-103990500D01*
X151310500Y-103897314D01*
X151324264Y-103873474D01*
X151369733Y-103832534D01*
X151430583Y-103826138D01*
X151483571Y-103856731D01*
G37*
%TD.AperFunction*%
%TA.AperFunction,Conductor*%
G36*
X130151531Y-103372807D02*
G01*
X130187495Y-103422307D01*
X130187495Y-103483493D01*
X130163345Y-103522901D01*
X129853713Y-103832534D01*
X129544504Y-104141743D01*
X129489987Y-104169520D01*
X129429555Y-104159949D01*
X129386290Y-104116684D01*
X129375500Y-104071739D01*
X129375500Y-103913772D01*
X129375499Y-103913768D01*
X129341855Y-103744626D01*
X129305873Y-103657758D01*
X129275860Y-103585299D01*
X129275854Y-103585287D01*
X129224146Y-103507902D01*
X129207537Y-103449014D01*
X129228714Y-103391610D01*
X129279588Y-103357617D01*
X129306461Y-103353900D01*
X130093340Y-103353900D01*
X130151531Y-103372807D01*
G37*
%TD.AperFunction*%
%TA.AperFunction,Conductor*%
G36*
X144382216Y-103380507D02*
G01*
X144418180Y-103430007D01*
X144419651Y-103486220D01*
X144409500Y-103524108D01*
X144409500Y-103655892D01*
X144420356Y-103696407D01*
X144421688Y-103701377D01*
X144418485Y-103762479D01*
X144379980Y-103810029D01*
X144326061Y-103826000D01*
X141496759Y-103826000D01*
X141438568Y-103807093D01*
X141402604Y-103757593D01*
X141402604Y-103696407D01*
X141426756Y-103656996D01*
X141490244Y-103593509D01*
X141693157Y-103390596D01*
X141747673Y-103362819D01*
X141763160Y-103361600D01*
X144324025Y-103361600D01*
X144382216Y-103380507D01*
G37*
%TD.AperFunction*%
%TA.AperFunction,Conductor*%
G36*
X144333006Y-102372907D02*
G01*
X144368970Y-102422407D01*
X144370441Y-102478624D01*
X144360000Y-102517588D01*
X144360000Y-102662408D01*
X144372478Y-102708977D01*
X144369275Y-102770079D01*
X144330770Y-102817628D01*
X144276851Y-102833600D01*
X141560285Y-102833600D01*
X141463258Y-102873789D01*
X141463256Y-102873790D01*
X141463256Y-102873791D01*
X141178903Y-103158145D01*
X140921344Y-103415704D01*
X140866827Y-103443481D01*
X140851340Y-103444700D01*
X140627359Y-103444700D01*
X140569168Y-103425793D01*
X140533204Y-103376293D01*
X140533204Y-103315107D01*
X140557353Y-103275698D01*
X141450056Y-102382996D01*
X141504573Y-102355219D01*
X141520060Y-102354000D01*
X144274815Y-102354000D01*
X144333006Y-102372907D01*
G37*
%TD.AperFunction*%
%TA.AperFunction,Conductor*%
G36*
X148483571Y-102856731D02*
G01*
X148495734Y-102873471D01*
X148509500Y-102897314D01*
X148602686Y-102990500D01*
X148602688Y-102990501D01*
X148626525Y-103004264D01*
X148667465Y-103049734D01*
X148673860Y-103110584D01*
X148643267Y-103163572D01*
X148626525Y-103175736D01*
X148602688Y-103189498D01*
X148509498Y-103282688D01*
X148495736Y-103306525D01*
X148450266Y-103347465D01*
X148389416Y-103353860D01*
X148336428Y-103323267D01*
X148324264Y-103306525D01*
X148310501Y-103282688D01*
X148310500Y-103282686D01*
X148217314Y-103189500D01*
X148193474Y-103175735D01*
X148152534Y-103130267D01*
X148146138Y-103069417D01*
X148176731Y-103016429D01*
X148193474Y-103004264D01*
X148217314Y-102990500D01*
X148310500Y-102897314D01*
X148324264Y-102873474D01*
X148369733Y-102832534D01*
X148430583Y-102826138D01*
X148483571Y-102856731D01*
G37*
%TD.AperFunction*%
%TA.AperFunction,Conductor*%
G36*
X149483571Y-102856731D02*
G01*
X149495734Y-102873471D01*
X149509500Y-102897314D01*
X149602686Y-102990500D01*
X149602688Y-102990501D01*
X149626525Y-103004264D01*
X149667465Y-103049734D01*
X149673860Y-103110584D01*
X149643267Y-103163572D01*
X149626525Y-103175736D01*
X149602688Y-103189498D01*
X149509498Y-103282688D01*
X149495736Y-103306525D01*
X149450266Y-103347465D01*
X149389416Y-103353860D01*
X149336428Y-103323267D01*
X149324264Y-103306525D01*
X149310501Y-103282688D01*
X149310500Y-103282686D01*
X149217314Y-103189500D01*
X149193474Y-103175735D01*
X149152534Y-103130267D01*
X149146138Y-103069417D01*
X149176731Y-103016429D01*
X149193474Y-103004264D01*
X149217314Y-102990500D01*
X149310500Y-102897314D01*
X149324264Y-102873474D01*
X149369733Y-102832534D01*
X149430583Y-102826138D01*
X149483571Y-102856731D01*
G37*
%TD.AperFunction*%
%TA.AperFunction,Conductor*%
G36*
X150483571Y-101856731D02*
G01*
X150495734Y-101873471D01*
X150509500Y-101897314D01*
X150602686Y-101990500D01*
X150602688Y-101990501D01*
X150602689Y-101990502D01*
X150607178Y-101993947D01*
X150641831Y-102044373D01*
X150645059Y-102085408D01*
X150641857Y-102109724D01*
X150910000Y-102377867D01*
X151178140Y-102109726D01*
X151174939Y-102085410D01*
X151186088Y-102025249D01*
X151212828Y-101993941D01*
X151217305Y-101990505D01*
X151217314Y-101990500D01*
X151263192Y-101944621D01*
X151317706Y-101916845D01*
X151378138Y-101926416D01*
X151413396Y-101961673D01*
X151415716Y-101960124D01*
X151462935Y-102030792D01*
X151465448Y-102034552D01*
X151465451Y-102034554D01*
X151539876Y-102084284D01*
X151537635Y-102087637D01*
X151569723Y-102114978D01*
X151584077Y-102174455D01*
X151560729Y-102231011D01*
X151555377Y-102236808D01*
X151509501Y-102282684D01*
X151506053Y-102287178D01*
X151455627Y-102321831D01*
X151414593Y-102325059D01*
X151390274Y-102321857D01*
X151086070Y-102626062D01*
X151084056Y-102627087D01*
X151085000Y-102624810D01*
X151085000Y-102555190D01*
X151058357Y-102490871D01*
X151009129Y-102441643D01*
X150944810Y-102415000D01*
X150875190Y-102415000D01*
X150810871Y-102441643D01*
X150761643Y-102490871D01*
X150735000Y-102555190D01*
X150735000Y-102624810D01*
X150736202Y-102627712D01*
X150733931Y-102626062D01*
X150429725Y-102321857D01*
X150405408Y-102325059D01*
X150345247Y-102313909D01*
X150313947Y-102287178D01*
X150310502Y-102282689D01*
X150310501Y-102282688D01*
X150310500Y-102282686D01*
X150217314Y-102189500D01*
X150193474Y-102175735D01*
X150152534Y-102130267D01*
X150146138Y-102069417D01*
X150176731Y-102016429D01*
X150193474Y-102004264D01*
X150217314Y-101990500D01*
X150310500Y-101897314D01*
X150324264Y-101873474D01*
X150369733Y-101832534D01*
X150430583Y-101826138D01*
X150483571Y-101856731D01*
G37*
%TD.AperFunction*%
%TA.AperFunction,Conductor*%
G36*
X147483571Y-101856731D02*
G01*
X147495734Y-101873471D01*
X147509500Y-101897314D01*
X147602686Y-101990500D01*
X147608221Y-101993695D01*
X147626525Y-102004264D01*
X147667465Y-102049734D01*
X147673860Y-102110584D01*
X147643267Y-102163572D01*
X147626525Y-102175736D01*
X147602688Y-102189498D01*
X147509498Y-102282688D01*
X147495736Y-102306525D01*
X147450266Y-102347465D01*
X147389416Y-102353860D01*
X147336428Y-102323267D01*
X147324264Y-102306525D01*
X147310501Y-102282688D01*
X147310500Y-102282686D01*
X147217314Y-102189500D01*
X147193474Y-102175735D01*
X147152534Y-102130267D01*
X147146138Y-102069417D01*
X147176731Y-102016429D01*
X147193474Y-102004264D01*
X147217314Y-101990500D01*
X147310500Y-101897314D01*
X147324264Y-101873474D01*
X147369733Y-101832534D01*
X147430583Y-101826138D01*
X147483571Y-101856731D01*
G37*
%TD.AperFunction*%
%TA.AperFunction,Conductor*%
G36*
X148483571Y-101856731D02*
G01*
X148495734Y-101873471D01*
X148509500Y-101897314D01*
X148602686Y-101990500D01*
X148608221Y-101993695D01*
X148626525Y-102004264D01*
X148667465Y-102049734D01*
X148673860Y-102110584D01*
X148643267Y-102163572D01*
X148626525Y-102175736D01*
X148602688Y-102189498D01*
X148509498Y-102282688D01*
X148495736Y-102306525D01*
X148450266Y-102347465D01*
X148389416Y-102353860D01*
X148336428Y-102323267D01*
X148324264Y-102306525D01*
X148310501Y-102282688D01*
X148310500Y-102282686D01*
X148217314Y-102189500D01*
X148193474Y-102175735D01*
X148152534Y-102130267D01*
X148146138Y-102069417D01*
X148176731Y-102016429D01*
X148193474Y-102004264D01*
X148217314Y-101990500D01*
X148310500Y-101897314D01*
X148324264Y-101873474D01*
X148369733Y-101832534D01*
X148430583Y-101826138D01*
X148483571Y-101856731D01*
G37*
%TD.AperFunction*%
%TA.AperFunction,Conductor*%
G36*
X145628315Y-100441779D02*
G01*
X145671580Y-100485044D01*
X145681151Y-100545476D01*
X145674834Y-100567874D01*
X145646000Y-100637486D01*
X145646000Y-101107442D01*
X145627093Y-101165633D01*
X145607271Y-101185981D01*
X145602692Y-101189494D01*
X145509498Y-101282688D01*
X145495736Y-101306525D01*
X145450266Y-101347465D01*
X145389416Y-101353860D01*
X145336428Y-101323267D01*
X145324264Y-101306525D01*
X145310501Y-101282688D01*
X145310500Y-101282686D01*
X145217314Y-101189500D01*
X145217311Y-101189498D01*
X145217307Y-101189494D01*
X145212729Y-101185981D01*
X145178076Y-101135555D01*
X145174000Y-101107442D01*
X145174000Y-100840360D01*
X145192907Y-100782169D01*
X145202996Y-100770357D01*
X145513366Y-100459986D01*
X145567883Y-100432208D01*
X145628315Y-100441779D01*
G37*
%TD.AperFunction*%
%TA.AperFunction,Conductor*%
G36*
X148983031Y-99797407D02*
G01*
X149018995Y-99846907D01*
X149018995Y-99908093D01*
X148994844Y-99947502D01*
X148760456Y-100181892D01*
X148760455Y-100181891D01*
X148686191Y-100256156D01*
X148646000Y-100353187D01*
X148646000Y-101107442D01*
X148627093Y-101165633D01*
X148607271Y-101185981D01*
X148602692Y-101189494D01*
X148509498Y-101282688D01*
X148495736Y-101306525D01*
X148450266Y-101347465D01*
X148389416Y-101353860D01*
X148336428Y-101323267D01*
X148324264Y-101306525D01*
X148310501Y-101282688D01*
X148310500Y-101282686D01*
X148217314Y-101189500D01*
X148217311Y-101189498D01*
X148217309Y-101189496D01*
X148103189Y-101123609D01*
X148103191Y-101123609D01*
X148042853Y-101107442D01*
X147975892Y-101089500D01*
X147844108Y-101089500D01*
X147777147Y-101107442D01*
X147716809Y-101123609D01*
X147602690Y-101189496D01*
X147509498Y-101282688D01*
X147495736Y-101306525D01*
X147450266Y-101347465D01*
X147389416Y-101353860D01*
X147336428Y-101323267D01*
X147324264Y-101306525D01*
X147310501Y-101282688D01*
X147310500Y-101282686D01*
X147217314Y-101189500D01*
X147217311Y-101189498D01*
X147217309Y-101189496D01*
X147103189Y-101123609D01*
X147103191Y-101123609D01*
X147042853Y-101107442D01*
X146975892Y-101089500D01*
X146844108Y-101089500D01*
X146777147Y-101107442D01*
X146716809Y-101123609D01*
X146602690Y-101189496D01*
X146509498Y-101282688D01*
X146495736Y-101306525D01*
X146450266Y-101347465D01*
X146389416Y-101353860D01*
X146336428Y-101323267D01*
X146324264Y-101306525D01*
X146310501Y-101282688D01*
X146310500Y-101282686D01*
X146217314Y-101189500D01*
X146217311Y-101189498D01*
X146217307Y-101189494D01*
X146212729Y-101185981D01*
X146178076Y-101135555D01*
X146174000Y-101107442D01*
X146174000Y-100840360D01*
X146192907Y-100782169D01*
X146202996Y-100770356D01*
X147165856Y-99807496D01*
X147220373Y-99779719D01*
X147235860Y-99778500D01*
X148924840Y-99778500D01*
X148983031Y-99797407D01*
G37*
%TD.AperFunction*%
%TA.AperFunction,Conductor*%
G36*
X173004842Y-86800976D02*
G01*
X173126764Y-86812985D01*
X173145795Y-86816771D01*
X173166117Y-86822935D01*
X173258360Y-86850916D01*
X173276277Y-86858337D01*
X173380026Y-86913792D01*
X173396157Y-86924571D01*
X173487083Y-86999193D01*
X173500806Y-87012916D01*
X173575428Y-87103842D01*
X173586208Y-87119976D01*
X173641659Y-87223718D01*
X173649084Y-87241643D01*
X173683228Y-87354204D01*
X173687014Y-87373237D01*
X173699023Y-87495157D01*
X173699500Y-87504861D01*
X173699500Y-122495138D01*
X173699023Y-122504842D01*
X173687014Y-122626762D01*
X173683228Y-122645795D01*
X173649084Y-122758356D01*
X173641657Y-122776288D01*
X173586210Y-122880021D01*
X173575428Y-122896157D01*
X173500806Y-122987083D01*
X173487083Y-123000806D01*
X173396157Y-123075428D01*
X173380021Y-123086210D01*
X173328154Y-123113933D01*
X173276285Y-123141658D01*
X173258356Y-123149084D01*
X173145795Y-123183228D01*
X173126763Y-123187014D01*
X173020719Y-123197459D01*
X173004841Y-123199023D01*
X172995139Y-123199500D01*
X124004861Y-123199500D01*
X123995157Y-123199023D01*
X123873237Y-123187014D01*
X123854204Y-123183228D01*
X123741643Y-123149084D01*
X123723718Y-123141659D01*
X123619976Y-123086208D01*
X123603842Y-123075428D01*
X123512916Y-123000806D01*
X123499193Y-122987083D01*
X123424571Y-122896157D01*
X123413792Y-122880026D01*
X123358337Y-122776277D01*
X123350916Y-122758360D01*
X123316771Y-122645795D01*
X123312985Y-122626762D01*
X123300977Y-122504842D01*
X123300500Y-122495138D01*
X123300500Y-120965691D01*
X145185600Y-120965691D01*
X145185600Y-121084309D01*
X145212674Y-121185351D01*
X145216302Y-121198890D01*
X145275607Y-121301608D01*
X145275609Y-121301610D01*
X145275611Y-121301613D01*
X145359487Y-121385489D01*
X145359489Y-121385490D01*
X145359491Y-121385492D01*
X145462210Y-121444797D01*
X145462211Y-121444797D01*
X145462214Y-121444799D01*
X145576791Y-121475500D01*
X145576793Y-121475500D01*
X145695407Y-121475500D01*
X145695409Y-121475500D01*
X145809986Y-121444799D01*
X145809988Y-121444797D01*
X145809990Y-121444797D01*
X145912708Y-121385492D01*
X145912708Y-121385491D01*
X145912713Y-121385489D01*
X145996589Y-121301613D01*
X146055899Y-121198886D01*
X146086600Y-121084309D01*
X146086600Y-120965691D01*
X146055899Y-120851114D01*
X146055897Y-120851111D01*
X146055897Y-120851109D01*
X145996592Y-120748391D01*
X145996590Y-120748389D01*
X145996589Y-120748387D01*
X145912713Y-120664511D01*
X145912710Y-120664509D01*
X145912708Y-120664507D01*
X145809989Y-120605202D01*
X145809990Y-120605202D01*
X145796451Y-120601574D01*
X145695409Y-120574500D01*
X145576791Y-120574500D01*
X145506667Y-120593289D01*
X145462209Y-120605202D01*
X145359491Y-120664507D01*
X145275607Y-120748391D01*
X145216302Y-120851109D01*
X145216301Y-120851114D01*
X145185600Y-120965691D01*
X123300500Y-120965691D01*
X123300500Y-117913768D01*
X125624500Y-117913768D01*
X125624500Y-118086231D01*
X125658145Y-118255373D01*
X125658145Y-118255375D01*
X125724139Y-118414700D01*
X125724145Y-118414712D01*
X125792660Y-118517249D01*
X125819955Y-118558099D01*
X125941901Y-118680045D01*
X125989276Y-118711700D01*
X126085287Y-118775854D01*
X126085299Y-118775860D01*
X126144153Y-118800238D01*
X126244626Y-118841855D01*
X126413771Y-118875500D01*
X126413772Y-118875500D01*
X126586228Y-118875500D01*
X126586229Y-118875500D01*
X126755374Y-118841855D01*
X126914705Y-118775858D01*
X126914707Y-118775856D01*
X126914712Y-118775854D01*
X126979714Y-118732420D01*
X127058099Y-118680045D01*
X127180045Y-118558099D01*
X127259834Y-118438687D01*
X127275854Y-118414712D01*
X127275859Y-118414703D01*
X127341855Y-118255374D01*
X127375500Y-118086229D01*
X127375500Y-117913771D01*
X127341855Y-117744626D01*
X127275858Y-117585295D01*
X127275854Y-117585287D01*
X127220893Y-117503034D01*
X127180045Y-117441901D01*
X127058099Y-117319955D01*
X127017249Y-117292660D01*
X126914712Y-117224145D01*
X126914700Y-117224139D01*
X126755374Y-117158145D01*
X126586231Y-117124500D01*
X126586229Y-117124500D01*
X126413771Y-117124500D01*
X126413768Y-117124500D01*
X126244626Y-117158145D01*
X126244624Y-117158145D01*
X126085299Y-117224139D01*
X126085287Y-117224145D01*
X125941901Y-117319955D01*
X125941897Y-117319958D01*
X125819958Y-117441897D01*
X125819955Y-117441901D01*
X125724145Y-117585287D01*
X125724139Y-117585299D01*
X125658145Y-117744624D01*
X125658145Y-117744626D01*
X125624500Y-117913768D01*
X123300500Y-117913768D01*
X123300500Y-111913768D01*
X125624500Y-111913768D01*
X125624500Y-112086231D01*
X125658145Y-112255373D01*
X125658145Y-112255375D01*
X125724139Y-112414700D01*
X125724145Y-112414712D01*
X125792660Y-112517249D01*
X125819955Y-112558099D01*
X125941901Y-112680045D01*
X125997347Y-112717093D01*
X126085287Y-112775854D01*
X126085299Y-112775860D01*
X126144153Y-112800238D01*
X126244626Y-112841855D01*
X126413771Y-112875500D01*
X126413772Y-112875500D01*
X126586228Y-112875500D01*
X126586229Y-112875500D01*
X126755374Y-112841855D01*
X126914705Y-112775858D01*
X126914707Y-112775856D01*
X126914712Y-112775854D01*
X126956740Y-112747771D01*
X127058099Y-112680045D01*
X127180045Y-112558099D01*
X127248188Y-112456115D01*
X127275854Y-112414712D01*
X127275860Y-112414700D01*
X127341855Y-112255374D01*
X127375500Y-112086229D01*
X127375500Y-111913771D01*
X127341855Y-111744626D01*
X127312554Y-111673886D01*
X127275860Y-111585299D01*
X127275854Y-111585287D01*
X127208976Y-111485199D01*
X127180045Y-111441901D01*
X127058099Y-111319955D01*
X127013051Y-111289855D01*
X126914712Y-111224145D01*
X126914700Y-111224139D01*
X126755374Y-111158145D01*
X126586231Y-111124500D01*
X126586229Y-111124500D01*
X126413771Y-111124500D01*
X126413768Y-111124500D01*
X126244626Y-111158145D01*
X126244624Y-111158145D01*
X126085299Y-111224139D01*
X126085287Y-111224145D01*
X125941901Y-111319955D01*
X125941897Y-111319958D01*
X125819958Y-111441897D01*
X125819955Y-111441901D01*
X125724145Y-111585287D01*
X125724139Y-111585299D01*
X125658145Y-111744624D01*
X125658145Y-111744626D01*
X125624500Y-111913768D01*
X123300500Y-111913768D01*
X123300500Y-109913768D01*
X125624500Y-109913768D01*
X125624500Y-110086231D01*
X125658145Y-110255373D01*
X125658145Y-110255375D01*
X125724139Y-110414700D01*
X125724145Y-110414712D01*
X125788541Y-110511085D01*
X125819955Y-110558099D01*
X125941901Y-110680045D01*
X126003034Y-110720893D01*
X126085287Y-110775854D01*
X126085299Y-110775860D01*
X126128611Y-110793800D01*
X126244626Y-110841855D01*
X126413771Y-110875500D01*
X126413772Y-110875500D01*
X126586228Y-110875500D01*
X126586229Y-110875500D01*
X126755374Y-110841855D01*
X126914705Y-110775858D01*
X126914707Y-110775856D01*
X126914712Y-110775854D01*
X126956115Y-110748188D01*
X127058099Y-110680045D01*
X127180045Y-110558099D01*
X127260157Y-110438203D01*
X127275854Y-110414712D01*
X127275860Y-110414700D01*
X127308938Y-110334842D01*
X127341855Y-110255374D01*
X127375500Y-110086229D01*
X127375500Y-109913771D01*
X127375499Y-109913768D01*
X127624500Y-109913768D01*
X127624500Y-110086231D01*
X127658145Y-110255373D01*
X127658145Y-110255375D01*
X127724139Y-110414700D01*
X127724145Y-110414712D01*
X127788541Y-110511085D01*
X127819955Y-110558099D01*
X127941901Y-110680045D01*
X128003034Y-110720893D01*
X128085287Y-110775854D01*
X128085299Y-110775860D01*
X128128611Y-110793800D01*
X128244626Y-110841855D01*
X128413771Y-110875500D01*
X128413772Y-110875500D01*
X128586228Y-110875500D01*
X128586229Y-110875500D01*
X128755374Y-110841855D01*
X128914705Y-110775858D01*
X128914707Y-110775856D01*
X128914712Y-110775854D01*
X128956115Y-110748188D01*
X129058099Y-110680045D01*
X129180045Y-110558099D01*
X129260157Y-110438203D01*
X129275854Y-110414712D01*
X129275860Y-110414700D01*
X129308938Y-110334842D01*
X129341855Y-110255374D01*
X129375500Y-110086229D01*
X129375500Y-109913771D01*
X129341855Y-109744626D01*
X129298329Y-109639544D01*
X129275860Y-109585299D01*
X129275854Y-109585287D01*
X129191987Y-109459774D01*
X129180045Y-109441901D01*
X129058099Y-109319955D01*
X129017249Y-109292660D01*
X128914712Y-109224145D01*
X128914700Y-109224139D01*
X128755374Y-109158145D01*
X128586231Y-109124500D01*
X128586229Y-109124500D01*
X128413771Y-109124500D01*
X128413768Y-109124500D01*
X128244626Y-109158145D01*
X128244624Y-109158145D01*
X128085299Y-109224139D01*
X128085287Y-109224145D01*
X127941901Y-109319955D01*
X127941897Y-109319958D01*
X127819958Y-109441897D01*
X127819955Y-109441901D01*
X127724145Y-109585287D01*
X127724139Y-109585299D01*
X127658145Y-109744624D01*
X127658145Y-109744626D01*
X127624500Y-109913768D01*
X127375499Y-109913768D01*
X127341855Y-109744626D01*
X127298329Y-109639544D01*
X127275860Y-109585299D01*
X127275854Y-109585287D01*
X127191987Y-109459774D01*
X127180045Y-109441901D01*
X127058099Y-109319955D01*
X127017249Y-109292660D01*
X126914712Y-109224145D01*
X126914700Y-109224139D01*
X126755374Y-109158145D01*
X126586231Y-109124500D01*
X126586229Y-109124500D01*
X126413771Y-109124500D01*
X126413768Y-109124500D01*
X126244626Y-109158145D01*
X126244624Y-109158145D01*
X126085299Y-109224139D01*
X126085287Y-109224145D01*
X125941901Y-109319955D01*
X125941897Y-109319958D01*
X125819958Y-109441897D01*
X125819955Y-109441901D01*
X125724145Y-109585287D01*
X125724139Y-109585299D01*
X125658145Y-109744624D01*
X125658145Y-109744626D01*
X125624500Y-109913768D01*
X123300500Y-109913768D01*
X123300500Y-103913768D01*
X125624500Y-103913768D01*
X125624500Y-104086231D01*
X125658145Y-104255373D01*
X125658145Y-104255375D01*
X125724139Y-104414700D01*
X125724145Y-104414712D01*
X125792660Y-104517249D01*
X125819955Y-104558099D01*
X125941901Y-104680045D01*
X125998296Y-104717727D01*
X126085287Y-104775854D01*
X126085299Y-104775860D01*
X126102986Y-104783186D01*
X126244626Y-104841855D01*
X126413771Y-104875500D01*
X126413772Y-104875500D01*
X126586228Y-104875500D01*
X126586229Y-104875500D01*
X126755374Y-104841855D01*
X126914705Y-104775858D01*
X126914707Y-104775856D01*
X126914712Y-104775854D01*
X126971061Y-104738202D01*
X127058099Y-104680045D01*
X127180045Y-104558099D01*
X127270712Y-104422407D01*
X127275854Y-104414712D01*
X127275860Y-104414700D01*
X127341855Y-104255374D01*
X127375500Y-104086229D01*
X127375500Y-103913771D01*
X127341855Y-103744626D01*
X127305873Y-103657758D01*
X127304745Y-103655034D01*
X127299944Y-103594038D01*
X127326204Y-103547147D01*
X127490457Y-103382896D01*
X127544974Y-103355119D01*
X127560460Y-103353900D01*
X127693539Y-103353900D01*
X127751730Y-103372807D01*
X127787694Y-103422307D01*
X127787694Y-103483493D01*
X127775854Y-103507902D01*
X127724145Y-103585287D01*
X127724139Y-103585299D01*
X127658145Y-103744624D01*
X127658145Y-103744626D01*
X127624500Y-103913768D01*
X127624500Y-104086231D01*
X127658145Y-104255373D01*
X127658145Y-104255375D01*
X127724139Y-104414700D01*
X127724145Y-104414712D01*
X127792660Y-104517249D01*
X127819955Y-104558099D01*
X127819958Y-104558102D01*
X127828852Y-104566996D01*
X127856629Y-104621513D01*
X127847058Y-104681945D01*
X127803793Y-104725210D01*
X127758848Y-104736000D01*
X127447487Y-104736000D01*
X127419063Y-104747772D01*
X127419062Y-104747771D01*
X127350460Y-104776189D01*
X127350458Y-104776190D01*
X127350456Y-104776191D01*
X127350454Y-104776192D01*
X127350452Y-104776194D01*
X126952852Y-105173794D01*
X126898336Y-105201571D01*
X126844964Y-105195254D01*
X126755374Y-105158145D01*
X126586231Y-105124500D01*
X126586229Y-105124500D01*
X126413771Y-105124500D01*
X126413768Y-105124500D01*
X126244626Y-105158145D01*
X126244624Y-105158145D01*
X126085299Y-105224139D01*
X126085287Y-105224145D01*
X125941901Y-105319955D01*
X125941897Y-105319958D01*
X125819958Y-105441897D01*
X125819955Y-105441901D01*
X125724145Y-105585287D01*
X125724139Y-105585299D01*
X125658145Y-105744624D01*
X125658145Y-105744626D01*
X125624500Y-105913768D01*
X125624500Y-106086231D01*
X125658145Y-106255373D01*
X125658145Y-106255375D01*
X125724139Y-106414700D01*
X125724145Y-106414712D01*
X125785272Y-106506192D01*
X125819955Y-106558099D01*
X125941901Y-106680045D01*
X125982248Y-106707004D01*
X126085287Y-106775854D01*
X126085299Y-106775860D01*
X126102986Y-106783186D01*
X126244626Y-106841855D01*
X126413771Y-106875500D01*
X126413772Y-106875500D01*
X126586228Y-106875500D01*
X126586229Y-106875500D01*
X126755374Y-106841855D01*
X126914705Y-106775858D01*
X126914707Y-106775856D01*
X126914712Y-106775854D01*
X126970829Y-106738357D01*
X127058099Y-106680045D01*
X127180045Y-106558099D01*
X127262548Y-106434625D01*
X127275854Y-106414712D01*
X127275860Y-106414700D01*
X127303071Y-106349007D01*
X127341855Y-106255374D01*
X127375500Y-106086229D01*
X127375500Y-105913771D01*
X127341855Y-105744626D01*
X127305100Y-105655892D01*
X127304745Y-105655034D01*
X127299944Y-105594038D01*
X127326204Y-105547147D01*
X127580357Y-105292996D01*
X127634873Y-105265219D01*
X127650360Y-105264000D01*
X127758848Y-105264000D01*
X127817039Y-105282907D01*
X127853003Y-105332407D01*
X127853003Y-105393593D01*
X127828852Y-105433004D01*
X127819958Y-105441897D01*
X127819955Y-105441901D01*
X127724145Y-105585287D01*
X127724139Y-105585299D01*
X127658145Y-105744624D01*
X127658145Y-105744626D01*
X127624500Y-105913768D01*
X127624500Y-106086231D01*
X127658145Y-106255373D01*
X127658145Y-106255375D01*
X127724139Y-106414700D01*
X127724145Y-106414712D01*
X127785272Y-106506192D01*
X127819955Y-106558099D01*
X127819958Y-106558102D01*
X127828852Y-106566996D01*
X127856629Y-106621513D01*
X127847058Y-106681945D01*
X127803793Y-106725210D01*
X127758848Y-106736000D01*
X127447487Y-106736000D01*
X127419063Y-106747772D01*
X127419062Y-106747771D01*
X127350460Y-106776189D01*
X127350458Y-106776190D01*
X127350456Y-106776191D01*
X127350454Y-106776192D01*
X127350452Y-106776194D01*
X126952852Y-107173794D01*
X126898336Y-107201571D01*
X126844964Y-107195254D01*
X126755374Y-107158145D01*
X126586231Y-107124500D01*
X126586229Y-107124500D01*
X126413771Y-107124500D01*
X126413768Y-107124500D01*
X126244626Y-107158145D01*
X126244624Y-107158145D01*
X126085299Y-107224139D01*
X126085287Y-107224145D01*
X125941901Y-107319955D01*
X125941897Y-107319958D01*
X125819958Y-107441897D01*
X125819955Y-107441901D01*
X125724145Y-107585287D01*
X125724139Y-107585299D01*
X125658145Y-107744624D01*
X125658145Y-107744626D01*
X125624500Y-107913768D01*
X125624500Y-108086231D01*
X125658145Y-108255373D01*
X125658145Y-108255375D01*
X125724139Y-108414700D01*
X125724145Y-108414712D01*
X125792660Y-108517249D01*
X125819955Y-108558099D01*
X125941901Y-108680045D01*
X126000119Y-108718945D01*
X126085287Y-108775854D01*
X126085299Y-108775860D01*
X126143444Y-108799944D01*
X126244626Y-108841855D01*
X126413771Y-108875500D01*
X126413772Y-108875500D01*
X126586228Y-108875500D01*
X126586229Y-108875500D01*
X126755374Y-108841855D01*
X126914705Y-108775858D01*
X126914707Y-108775856D01*
X126914712Y-108775854D01*
X126962598Y-108743857D01*
X127058099Y-108680045D01*
X127180045Y-108558099D01*
X127251168Y-108451656D01*
X127275854Y-108414712D01*
X127275860Y-108414700D01*
X127302314Y-108350834D01*
X127341855Y-108255374D01*
X127375500Y-108086229D01*
X127375500Y-107913771D01*
X127341855Y-107744626D01*
X127305100Y-107655892D01*
X127304745Y-107655034D01*
X127299944Y-107594038D01*
X127326204Y-107547147D01*
X127580357Y-107292996D01*
X127634873Y-107265219D01*
X127650360Y-107264000D01*
X127758848Y-107264000D01*
X127817039Y-107282907D01*
X127853003Y-107332407D01*
X127853003Y-107393593D01*
X127828852Y-107433004D01*
X127819958Y-107441897D01*
X127819955Y-107441901D01*
X127724145Y-107585287D01*
X127724139Y-107585299D01*
X127658145Y-107744624D01*
X127658145Y-107744626D01*
X127624500Y-107913768D01*
X127624500Y-108086231D01*
X127658145Y-108255373D01*
X127658145Y-108255375D01*
X127724139Y-108414700D01*
X127724145Y-108414712D01*
X127792660Y-108517249D01*
X127819955Y-108558099D01*
X127941901Y-108680045D01*
X128000119Y-108718945D01*
X128085287Y-108775854D01*
X128085299Y-108775860D01*
X128143444Y-108799944D01*
X128244626Y-108841855D01*
X128413771Y-108875500D01*
X128413772Y-108875500D01*
X128586228Y-108875500D01*
X128586229Y-108875500D01*
X128755374Y-108841855D01*
X128914705Y-108775858D01*
X128914707Y-108775856D01*
X128914712Y-108775854D01*
X128962598Y-108743857D01*
X129058099Y-108680045D01*
X129180045Y-108558099D01*
X129251168Y-108451656D01*
X129275854Y-108414712D01*
X129275860Y-108414700D01*
X129302314Y-108350834D01*
X129341855Y-108255374D01*
X129375500Y-108086229D01*
X129375500Y-107913771D01*
X129341855Y-107744626D01*
X129304745Y-107655034D01*
X129275860Y-107585299D01*
X129275854Y-107585287D01*
X129220893Y-107503034D01*
X129180045Y-107441901D01*
X129171148Y-107433004D01*
X129143371Y-107378487D01*
X129152942Y-107318055D01*
X129196207Y-107274790D01*
X129241152Y-107264000D01*
X133866112Y-107264000D01*
X133866113Y-107264000D01*
X133963144Y-107223808D01*
X136156261Y-105030691D01*
X142359500Y-105030691D01*
X142359500Y-105149309D01*
X142383669Y-105239507D01*
X142390202Y-105263890D01*
X142449507Y-105366608D01*
X142449509Y-105366610D01*
X142449511Y-105366613D01*
X142533387Y-105450489D01*
X142533389Y-105450490D01*
X142533391Y-105450492D01*
X142636110Y-105509797D01*
X142636111Y-105509797D01*
X142636114Y-105509799D01*
X142750691Y-105540500D01*
X142750693Y-105540500D01*
X142869307Y-105540500D01*
X142869309Y-105540500D01*
X142983886Y-105509799D01*
X142983888Y-105509797D01*
X142983890Y-105509797D01*
X143086608Y-105450492D01*
X143086608Y-105450491D01*
X143086613Y-105450489D01*
X143170489Y-105366613D01*
X143182125Y-105346459D01*
X143229797Y-105263890D01*
X143229797Y-105263888D01*
X143229799Y-105263886D01*
X143260500Y-105149309D01*
X143260500Y-105030691D01*
X143229799Y-104916114D01*
X143229797Y-104916111D01*
X143229797Y-104916109D01*
X143170492Y-104813391D01*
X143170490Y-104813389D01*
X143170489Y-104813387D01*
X143086613Y-104729511D01*
X143086610Y-104729509D01*
X143086608Y-104729507D01*
X142983889Y-104670202D01*
X142983890Y-104670202D01*
X142966622Y-104665575D01*
X142869309Y-104639500D01*
X142750691Y-104639500D01*
X142689516Y-104655892D01*
X142636109Y-104670202D01*
X142533391Y-104729507D01*
X142449507Y-104813391D01*
X142390202Y-104916109D01*
X142379996Y-104954198D01*
X142359500Y-105030691D01*
X136156261Y-105030691D01*
X136803956Y-104382996D01*
X136858473Y-104355219D01*
X136873960Y-104354000D01*
X144274815Y-104354000D01*
X144333006Y-104372907D01*
X144368970Y-104422407D01*
X144370441Y-104478624D01*
X144360000Y-104517588D01*
X144360000Y-104662407D01*
X144397482Y-104802292D01*
X144429726Y-104858139D01*
X144733929Y-104553937D01*
X144735944Y-104552910D01*
X144735000Y-104555190D01*
X144735000Y-104624810D01*
X144761643Y-104689129D01*
X144810871Y-104738357D01*
X144875190Y-104765000D01*
X144944810Y-104765000D01*
X145009129Y-104738357D01*
X145058357Y-104689129D01*
X145085000Y-104624810D01*
X145085000Y-104555190D01*
X145083797Y-104552287D01*
X145086068Y-104553937D01*
X145390272Y-104858140D01*
X145414591Y-104854939D01*
X145474752Y-104866089D01*
X145506054Y-104892823D01*
X145509497Y-104897310D01*
X145509498Y-104897311D01*
X145509500Y-104897314D01*
X145602686Y-104990500D01*
X145602688Y-104990501D01*
X145626525Y-105004264D01*
X145667465Y-105049734D01*
X145673860Y-105110584D01*
X145643267Y-105163572D01*
X145626525Y-105175736D01*
X145602688Y-105189498D01*
X145509498Y-105282688D01*
X145495736Y-105306525D01*
X145450266Y-105347465D01*
X145389416Y-105353860D01*
X145336428Y-105323267D01*
X145324264Y-105306525D01*
X145312429Y-105286027D01*
X145310500Y-105282686D01*
X145217314Y-105189500D01*
X145217311Y-105189498D01*
X145217310Y-105189497D01*
X145212823Y-105186054D01*
X145178168Y-105135629D01*
X145174939Y-105094591D01*
X145178140Y-105070273D01*
X144909999Y-104802132D01*
X144641857Y-105070273D01*
X144645059Y-105094593D01*
X144633908Y-105154754D01*
X144607178Y-105186053D01*
X144602689Y-105189497D01*
X144509496Y-105282690D01*
X144443609Y-105396809D01*
X144441216Y-105405741D01*
X144409500Y-105524108D01*
X144409500Y-105655892D01*
X144414167Y-105673308D01*
X144421688Y-105701377D01*
X144418485Y-105762479D01*
X144379980Y-105810029D01*
X144326061Y-105826000D01*
X143662513Y-105826000D01*
X135917087Y-105826000D01*
X135917084Y-105826000D01*
X135917084Y-105826001D01*
X135909333Y-105829212D01*
X135909330Y-105829213D01*
X135820058Y-105866189D01*
X129544504Y-112141743D01*
X129489987Y-112169520D01*
X129429555Y-112159949D01*
X129386290Y-112116684D01*
X129375500Y-112071739D01*
X129375500Y-111913772D01*
X129375499Y-111913768D01*
X129371388Y-111893099D01*
X129341855Y-111744626D01*
X129312554Y-111673886D01*
X129275860Y-111585299D01*
X129275854Y-111585287D01*
X129208976Y-111485199D01*
X129180045Y-111441901D01*
X129058099Y-111319955D01*
X129013051Y-111289855D01*
X128914712Y-111224145D01*
X128914700Y-111224139D01*
X128755374Y-111158145D01*
X128586231Y-111124500D01*
X128586229Y-111124500D01*
X128413771Y-111124500D01*
X128413768Y-111124500D01*
X128244626Y-111158145D01*
X128244624Y-111158145D01*
X128085299Y-111224139D01*
X128085287Y-111224145D01*
X127941901Y-111319955D01*
X127941897Y-111319958D01*
X127819958Y-111441897D01*
X127819955Y-111441901D01*
X127724145Y-111585287D01*
X127724139Y-111585299D01*
X127658145Y-111744624D01*
X127658145Y-111744626D01*
X127624500Y-111913768D01*
X127624500Y-112086231D01*
X127658145Y-112255373D01*
X127658145Y-112255375D01*
X127724139Y-112414700D01*
X127724145Y-112414712D01*
X127792660Y-112517249D01*
X127819955Y-112558099D01*
X127819958Y-112558102D01*
X127828852Y-112566996D01*
X127856629Y-112621513D01*
X127847058Y-112681945D01*
X127803793Y-112725210D01*
X127758848Y-112736000D01*
X127447487Y-112736000D01*
X127419063Y-112747772D01*
X127419062Y-112747771D01*
X127350460Y-112776189D01*
X127350458Y-112776190D01*
X127350456Y-112776191D01*
X127350454Y-112776192D01*
X127350452Y-112776194D01*
X126952852Y-113173794D01*
X126898336Y-113201571D01*
X126844964Y-113195254D01*
X126755374Y-113158145D01*
X126586231Y-113124500D01*
X126586229Y-113124500D01*
X126413771Y-113124500D01*
X126413768Y-113124500D01*
X126244626Y-113158145D01*
X126244624Y-113158145D01*
X126085299Y-113224139D01*
X126085287Y-113224145D01*
X125941901Y-113319955D01*
X125941897Y-113319958D01*
X125819958Y-113441897D01*
X125819955Y-113441901D01*
X125724145Y-113585287D01*
X125724139Y-113585299D01*
X125658145Y-113744624D01*
X125658145Y-113744626D01*
X125624500Y-113913768D01*
X125624500Y-114086231D01*
X125658145Y-114255373D01*
X125658145Y-114255375D01*
X125724139Y-114414700D01*
X125724145Y-114414712D01*
X125792660Y-114517249D01*
X125819955Y-114558099D01*
X125941901Y-114680045D01*
X125995102Y-114715593D01*
X126085287Y-114775854D01*
X126085299Y-114775860D01*
X126144153Y-114800238D01*
X126244626Y-114841855D01*
X126413771Y-114875500D01*
X126413772Y-114875500D01*
X126586228Y-114875500D01*
X126586229Y-114875500D01*
X126755374Y-114841855D01*
X126914705Y-114775858D01*
X126914707Y-114775856D01*
X126914712Y-114775854D01*
X126976601Y-114734500D01*
X127058099Y-114680045D01*
X127180045Y-114558099D01*
X127248188Y-114456115D01*
X127275854Y-114414712D01*
X127275860Y-114414700D01*
X127341855Y-114255374D01*
X127375500Y-114086229D01*
X127375500Y-113913771D01*
X127341855Y-113744626D01*
X127324188Y-113701974D01*
X127304745Y-113655034D01*
X127299944Y-113594038D01*
X127326204Y-113547147D01*
X127580357Y-113292996D01*
X127634873Y-113265219D01*
X127650360Y-113264000D01*
X127758848Y-113264000D01*
X127817039Y-113282907D01*
X127853003Y-113332407D01*
X127853003Y-113393593D01*
X127828852Y-113433004D01*
X127819958Y-113441897D01*
X127819955Y-113441901D01*
X127724145Y-113585287D01*
X127724139Y-113585299D01*
X127658145Y-113744624D01*
X127658145Y-113744626D01*
X127624500Y-113913768D01*
X127624500Y-114086231D01*
X127658145Y-114255373D01*
X127658145Y-114255375D01*
X127724139Y-114414700D01*
X127724145Y-114414712D01*
X127792660Y-114517249D01*
X127819955Y-114558099D01*
X127819958Y-114558102D01*
X127827352Y-114565496D01*
X127855129Y-114620013D01*
X127845558Y-114680445D01*
X127802293Y-114723710D01*
X127757348Y-114734500D01*
X127448987Y-114734500D01*
X127420563Y-114746272D01*
X127420562Y-114746271D01*
X127351960Y-114774689D01*
X127351958Y-114774690D01*
X127351956Y-114774691D01*
X127351954Y-114774692D01*
X127351952Y-114774694D01*
X126952852Y-115173794D01*
X126898336Y-115201571D01*
X126844964Y-115195254D01*
X126755374Y-115158145D01*
X126586231Y-115124500D01*
X126586229Y-115124500D01*
X126413771Y-115124500D01*
X126413768Y-115124500D01*
X126244626Y-115158145D01*
X126244624Y-115158145D01*
X126085299Y-115224139D01*
X126085287Y-115224145D01*
X125941901Y-115319955D01*
X125941897Y-115319958D01*
X125819958Y-115441897D01*
X125819955Y-115441901D01*
X125724145Y-115585287D01*
X125724139Y-115585299D01*
X125658145Y-115744624D01*
X125658145Y-115744626D01*
X125624500Y-115913768D01*
X125624500Y-116086231D01*
X125658145Y-116255373D01*
X125658145Y-116255375D01*
X125724139Y-116414700D01*
X125724145Y-116414712D01*
X125792660Y-116517249D01*
X125819955Y-116558099D01*
X125941901Y-116680045D01*
X126003034Y-116720893D01*
X126085287Y-116775854D01*
X126085299Y-116775860D01*
X126144153Y-116800238D01*
X126244626Y-116841855D01*
X126413771Y-116875500D01*
X126413772Y-116875500D01*
X126586228Y-116875500D01*
X126586229Y-116875500D01*
X126755374Y-116841855D01*
X126914705Y-116775858D01*
X126914707Y-116775856D01*
X126914712Y-116775854D01*
X126956115Y-116748188D01*
X127058099Y-116680045D01*
X127180045Y-116558099D01*
X127270074Y-116423362D01*
X127275854Y-116414712D01*
X127275859Y-116414703D01*
X127341855Y-116255374D01*
X127375500Y-116086229D01*
X127375500Y-115913771D01*
X127341855Y-115744626D01*
X127304745Y-115655034D01*
X127299944Y-115594038D01*
X127326204Y-115547147D01*
X127581857Y-115291496D01*
X127636373Y-115263719D01*
X127651860Y-115262500D01*
X127760348Y-115262500D01*
X127818539Y-115281407D01*
X127854503Y-115330907D01*
X127854503Y-115392093D01*
X127830352Y-115431504D01*
X127819958Y-115441897D01*
X127819955Y-115441901D01*
X127724145Y-115585287D01*
X127724139Y-115585299D01*
X127658145Y-115744624D01*
X127658145Y-115744626D01*
X127624500Y-115913768D01*
X127624500Y-116086231D01*
X127658145Y-116255373D01*
X127658145Y-116255375D01*
X127724139Y-116414700D01*
X127724145Y-116414712D01*
X127792660Y-116517249D01*
X127819955Y-116558099D01*
X127941901Y-116680045D01*
X128003034Y-116720893D01*
X128085287Y-116775854D01*
X128085299Y-116775860D01*
X128144153Y-116800238D01*
X128244626Y-116841855D01*
X128413771Y-116875500D01*
X128413772Y-116875500D01*
X128586228Y-116875500D01*
X128586229Y-116875500D01*
X128755374Y-116841855D01*
X128914705Y-116775858D01*
X128914707Y-116775856D01*
X128914712Y-116775854D01*
X128956115Y-116748188D01*
X129058099Y-116680045D01*
X129180045Y-116558099D01*
X129270074Y-116423362D01*
X129275854Y-116414712D01*
X129275855Y-116414708D01*
X129275858Y-116414705D01*
X129312968Y-116325114D01*
X129352705Y-116278589D01*
X129404432Y-116264000D01*
X130993612Y-116264000D01*
X130993613Y-116264000D01*
X130998690Y-116261896D01*
X131059684Y-116257092D01*
X131111856Y-116289057D01*
X131135274Y-116345584D01*
X131120995Y-116405080D01*
X131106584Y-116423362D01*
X129822944Y-117707004D01*
X129768427Y-117734781D01*
X129752940Y-117736000D01*
X129404432Y-117736000D01*
X129346241Y-117717093D01*
X129312968Y-117674886D01*
X129299891Y-117643316D01*
X129275858Y-117585295D01*
X129275856Y-117585293D01*
X129275854Y-117585287D01*
X129220893Y-117503034D01*
X129180045Y-117441901D01*
X129058099Y-117319955D01*
X129017249Y-117292660D01*
X128914712Y-117224145D01*
X128914700Y-117224139D01*
X128755374Y-117158145D01*
X128586231Y-117124500D01*
X128586229Y-117124500D01*
X128413771Y-117124500D01*
X128413768Y-117124500D01*
X128244626Y-117158145D01*
X128244624Y-117158145D01*
X128085299Y-117224139D01*
X128085287Y-117224145D01*
X127941901Y-117319955D01*
X127941897Y-117319958D01*
X127819958Y-117441897D01*
X127819955Y-117441901D01*
X127724145Y-117585287D01*
X127724139Y-117585299D01*
X127658145Y-117744624D01*
X127658145Y-117744626D01*
X127624500Y-117913768D01*
X127624500Y-118086231D01*
X127658145Y-118255373D01*
X127658145Y-118255375D01*
X127724139Y-118414700D01*
X127724145Y-118414712D01*
X127792660Y-118517249D01*
X127819955Y-118558099D01*
X127819958Y-118558102D01*
X127836062Y-118574206D01*
X127863839Y-118628723D01*
X127854268Y-118689155D01*
X127811003Y-118732420D01*
X127791687Y-118739835D01*
X127782114Y-118742400D01*
X127782110Y-118742402D01*
X127679391Y-118801707D01*
X127595507Y-118885591D01*
X127536202Y-118988309D01*
X127536201Y-118988314D01*
X127505500Y-119102891D01*
X127505500Y-119221509D01*
X127532574Y-119322551D01*
X127536202Y-119336090D01*
X127595507Y-119438808D01*
X127595509Y-119438810D01*
X127595511Y-119438813D01*
X127679387Y-119522689D01*
X127679389Y-119522690D01*
X127679391Y-119522692D01*
X127782110Y-119581997D01*
X127782111Y-119581997D01*
X127782114Y-119581999D01*
X127896691Y-119612700D01*
X127896693Y-119612700D01*
X128015307Y-119612700D01*
X128015309Y-119612700D01*
X128129886Y-119581999D01*
X128129888Y-119581997D01*
X128129890Y-119581997D01*
X128232608Y-119522692D01*
X128232608Y-119522691D01*
X128232613Y-119522689D01*
X128300107Y-119455194D01*
X128354622Y-119427419D01*
X128370109Y-119426200D01*
X142860491Y-119426200D01*
X142918682Y-119445107D01*
X142954646Y-119494607D01*
X142954646Y-119555793D01*
X142930496Y-119595201D01*
X142922311Y-119603387D01*
X142922308Y-119603390D01*
X142922307Y-119603391D01*
X142863002Y-119706109D01*
X142863001Y-119706114D01*
X142832300Y-119820691D01*
X142832300Y-119939309D01*
X142859374Y-120040351D01*
X142863002Y-120053890D01*
X142922307Y-120156608D01*
X142922309Y-120156610D01*
X142922311Y-120156613D01*
X143006187Y-120240489D01*
X143006189Y-120240490D01*
X143006191Y-120240492D01*
X143108910Y-120299797D01*
X143108911Y-120299797D01*
X143108914Y-120299799D01*
X143223491Y-120330500D01*
X143223493Y-120330500D01*
X143342107Y-120330500D01*
X143342109Y-120330500D01*
X143456686Y-120299799D01*
X143456688Y-120299797D01*
X143456690Y-120299797D01*
X143559408Y-120240492D01*
X143559408Y-120240491D01*
X143559413Y-120240489D01*
X143643289Y-120156613D01*
X143702599Y-120053886D01*
X143733300Y-119939309D01*
X143733300Y-119820691D01*
X143702599Y-119706114D01*
X143702597Y-119706111D01*
X143702597Y-119706109D01*
X143643292Y-119603391D01*
X143643290Y-119603389D01*
X143643289Y-119603387D01*
X143635103Y-119595201D01*
X143607328Y-119540687D01*
X143616899Y-119480255D01*
X143660164Y-119436990D01*
X143705109Y-119426200D01*
X147585991Y-119426200D01*
X147644182Y-119445107D01*
X147655988Y-119455190D01*
X147723487Y-119522689D01*
X147723489Y-119522690D01*
X147723491Y-119522692D01*
X147826210Y-119581997D01*
X147826211Y-119581997D01*
X147826214Y-119581999D01*
X147940791Y-119612700D01*
X147940793Y-119612700D01*
X148059407Y-119612700D01*
X148059409Y-119612700D01*
X148173986Y-119581999D01*
X148173988Y-119581997D01*
X148173990Y-119581997D01*
X148276708Y-119522692D01*
X148276708Y-119522691D01*
X148276713Y-119522689D01*
X148360589Y-119438813D01*
X148365966Y-119429500D01*
X148419897Y-119336090D01*
X148419897Y-119336088D01*
X148419899Y-119336086D01*
X148450600Y-119221509D01*
X148450600Y-119102891D01*
X148419899Y-118988314D01*
X148419897Y-118988311D01*
X148419897Y-118988309D01*
X148360592Y-118885591D01*
X148360590Y-118885589D01*
X148360589Y-118885587D01*
X148276713Y-118801711D01*
X148276710Y-118801709D01*
X148276708Y-118801707D01*
X148173989Y-118742402D01*
X148173990Y-118742402D01*
X148160451Y-118738774D01*
X148059409Y-118711700D01*
X147940791Y-118711700D01*
X147870667Y-118730489D01*
X147826209Y-118742402D01*
X147723491Y-118801707D01*
X147723490Y-118801708D01*
X147723487Y-118801710D01*
X147723487Y-118801711D01*
X147655992Y-118869205D01*
X147601478Y-118896981D01*
X147585991Y-118898200D01*
X145906103Y-118898200D01*
X145847912Y-118879293D01*
X145811948Y-118829793D01*
X145810676Y-118781215D01*
X145809353Y-118781041D01*
X145810200Y-118774608D01*
X145810200Y-118655992D01*
X145810200Y-118655991D01*
X145779499Y-118541414D01*
X145779497Y-118541411D01*
X145779497Y-118541409D01*
X145720192Y-118438691D01*
X145720190Y-118438689D01*
X145720189Y-118438687D01*
X145636313Y-118354811D01*
X145636310Y-118354809D01*
X145636308Y-118354807D01*
X145533589Y-118295502D01*
X145533590Y-118295502D01*
X145520051Y-118291874D01*
X145419009Y-118264800D01*
X145300391Y-118264800D01*
X145230267Y-118283589D01*
X145185809Y-118295502D01*
X145083091Y-118354807D01*
X144999207Y-118438691D01*
X144939902Y-118541409D01*
X144935430Y-118558099D01*
X144916507Y-118628723D01*
X144909200Y-118655992D01*
X144909200Y-118774608D01*
X144910047Y-118781041D01*
X144908522Y-118781241D01*
X144905722Y-118834678D01*
X144867217Y-118882228D01*
X144813297Y-118898200D01*
X129057966Y-118898200D01*
X128999775Y-118879293D01*
X128963811Y-118829793D01*
X128963811Y-118768607D01*
X128999775Y-118719107D01*
X129002964Y-118716885D01*
X129010724Y-118711700D01*
X129058099Y-118680045D01*
X129180045Y-118558099D01*
X129259834Y-118438687D01*
X129275854Y-118414712D01*
X129275855Y-118414708D01*
X129275858Y-118414705D01*
X129312968Y-118325114D01*
X129352705Y-118278589D01*
X129404432Y-118264000D01*
X129955812Y-118264000D01*
X129955813Y-118264000D01*
X130052844Y-118223808D01*
X130362884Y-117913768D01*
X167624500Y-117913768D01*
X167624500Y-118086231D01*
X167658145Y-118255373D01*
X167658145Y-118255375D01*
X167724139Y-118414700D01*
X167724145Y-118414712D01*
X167792660Y-118517249D01*
X167819955Y-118558099D01*
X167941901Y-118680045D01*
X167989276Y-118711700D01*
X168085287Y-118775854D01*
X168085299Y-118775860D01*
X168144153Y-118800238D01*
X168244626Y-118841855D01*
X168413771Y-118875500D01*
X168413772Y-118875500D01*
X168586228Y-118875500D01*
X168586229Y-118875500D01*
X168755374Y-118841855D01*
X168914705Y-118775858D01*
X168914707Y-118775856D01*
X168914712Y-118775854D01*
X168979714Y-118732420D01*
X169058099Y-118680045D01*
X169180045Y-118558099D01*
X169259834Y-118438687D01*
X169275854Y-118414712D01*
X169275859Y-118414703D01*
X169341855Y-118255374D01*
X169375500Y-118086229D01*
X169375500Y-117913771D01*
X169375499Y-117913768D01*
X169624500Y-117913768D01*
X169624500Y-118086231D01*
X169658145Y-118255373D01*
X169658145Y-118255375D01*
X169724139Y-118414700D01*
X169724145Y-118414712D01*
X169792660Y-118517249D01*
X169819955Y-118558099D01*
X169941901Y-118680045D01*
X169989276Y-118711700D01*
X170085287Y-118775854D01*
X170085299Y-118775860D01*
X170144153Y-118800238D01*
X170244626Y-118841855D01*
X170413771Y-118875500D01*
X170413772Y-118875500D01*
X170586228Y-118875500D01*
X170586229Y-118875500D01*
X170755374Y-118841855D01*
X170914705Y-118775858D01*
X170914707Y-118775856D01*
X170914712Y-118775854D01*
X170979714Y-118732420D01*
X171058099Y-118680045D01*
X171180045Y-118558099D01*
X171259834Y-118438687D01*
X171275854Y-118414712D01*
X171275859Y-118414703D01*
X171341855Y-118255374D01*
X171375500Y-118086229D01*
X171375500Y-117913771D01*
X171341855Y-117744626D01*
X171275858Y-117585295D01*
X171275854Y-117585287D01*
X171220893Y-117503034D01*
X171180045Y-117441901D01*
X171058099Y-117319955D01*
X171017249Y-117292660D01*
X170914712Y-117224145D01*
X170914700Y-117224139D01*
X170755374Y-117158145D01*
X170586231Y-117124500D01*
X170586229Y-117124500D01*
X170413771Y-117124500D01*
X170413768Y-117124500D01*
X170244626Y-117158145D01*
X170244624Y-117158145D01*
X170085299Y-117224139D01*
X170085287Y-117224145D01*
X169941901Y-117319955D01*
X169941897Y-117319958D01*
X169819958Y-117441897D01*
X169819955Y-117441901D01*
X169724145Y-117585287D01*
X169724139Y-117585299D01*
X169658145Y-117744624D01*
X169658145Y-117744626D01*
X169624500Y-117913768D01*
X169375499Y-117913768D01*
X169341855Y-117744626D01*
X169275858Y-117585295D01*
X169275854Y-117585287D01*
X169220893Y-117503034D01*
X169180045Y-117441901D01*
X169058099Y-117319955D01*
X169017249Y-117292660D01*
X168914712Y-117224145D01*
X168914700Y-117224139D01*
X168755374Y-117158145D01*
X168586231Y-117124500D01*
X168586229Y-117124500D01*
X168413771Y-117124500D01*
X168413768Y-117124500D01*
X168244626Y-117158145D01*
X168244624Y-117158145D01*
X168085299Y-117224139D01*
X168085287Y-117224145D01*
X167941901Y-117319955D01*
X167941897Y-117319958D01*
X167819958Y-117441897D01*
X167819955Y-117441901D01*
X167724145Y-117585287D01*
X167724139Y-117585299D01*
X167658145Y-117744624D01*
X167658145Y-117744626D01*
X167624500Y-117913768D01*
X130362884Y-117913768D01*
X132362884Y-115913768D01*
X167624500Y-115913768D01*
X167624500Y-116086231D01*
X167658145Y-116255373D01*
X167658145Y-116255375D01*
X167724139Y-116414700D01*
X167724145Y-116414712D01*
X167792660Y-116517249D01*
X167819955Y-116558099D01*
X167941901Y-116680045D01*
X168003034Y-116720893D01*
X168085287Y-116775854D01*
X168085299Y-116775860D01*
X168144153Y-116800238D01*
X168244626Y-116841855D01*
X168413771Y-116875500D01*
X168413772Y-116875500D01*
X168586228Y-116875500D01*
X168586229Y-116875500D01*
X168755374Y-116841855D01*
X168914705Y-116775858D01*
X168914707Y-116775856D01*
X168914712Y-116775854D01*
X168956115Y-116748188D01*
X169058099Y-116680045D01*
X169180045Y-116558099D01*
X169270074Y-116423362D01*
X169275854Y-116414712D01*
X169275859Y-116414703D01*
X169341855Y-116255374D01*
X169375500Y-116086229D01*
X169375500Y-115913771D01*
X169375499Y-115913768D01*
X169624500Y-115913768D01*
X169624500Y-116086231D01*
X169658145Y-116255373D01*
X169658145Y-116255375D01*
X169724139Y-116414700D01*
X169724145Y-116414712D01*
X169792660Y-116517249D01*
X169819955Y-116558099D01*
X169941901Y-116680045D01*
X170003034Y-116720893D01*
X170085287Y-116775854D01*
X170085299Y-116775860D01*
X170144153Y-116800238D01*
X170244626Y-116841855D01*
X170413771Y-116875500D01*
X170413772Y-116875500D01*
X170586228Y-116875500D01*
X170586229Y-116875500D01*
X170755374Y-116841855D01*
X170914705Y-116775858D01*
X170914707Y-116775856D01*
X170914712Y-116775854D01*
X170956115Y-116748188D01*
X171058099Y-116680045D01*
X171180045Y-116558099D01*
X171270074Y-116423362D01*
X171275854Y-116414712D01*
X171275859Y-116414703D01*
X171341855Y-116255374D01*
X171375500Y-116086229D01*
X171375500Y-115913771D01*
X171341855Y-115744626D01*
X171304745Y-115655034D01*
X171275860Y-115585299D01*
X171275854Y-115585287D01*
X171220893Y-115503034D01*
X171180045Y-115441901D01*
X171058099Y-115319955D01*
X171000408Y-115281407D01*
X170914712Y-115224145D01*
X170914700Y-115224139D01*
X170755374Y-115158145D01*
X170586231Y-115124500D01*
X170586229Y-115124500D01*
X170413771Y-115124500D01*
X170413768Y-115124500D01*
X170244626Y-115158145D01*
X170244624Y-115158145D01*
X170085299Y-115224139D01*
X170085287Y-115224145D01*
X169941901Y-115319955D01*
X169941897Y-115319958D01*
X169819958Y-115441897D01*
X169819955Y-115441901D01*
X169724145Y-115585287D01*
X169724139Y-115585299D01*
X169658145Y-115744624D01*
X169658145Y-115744626D01*
X169624500Y-115913768D01*
X169375499Y-115913768D01*
X169341855Y-115744626D01*
X169304745Y-115655034D01*
X169275860Y-115585299D01*
X169275854Y-115585287D01*
X169220893Y-115503034D01*
X169180045Y-115441901D01*
X169058099Y-115319955D01*
X169000408Y-115281407D01*
X168914712Y-115224145D01*
X168914700Y-115224139D01*
X168755374Y-115158145D01*
X168586231Y-115124500D01*
X168586229Y-115124500D01*
X168413771Y-115124500D01*
X168413768Y-115124500D01*
X168244626Y-115158145D01*
X168244624Y-115158145D01*
X168085299Y-115224139D01*
X168085287Y-115224145D01*
X167941901Y-115319955D01*
X167941897Y-115319958D01*
X167819958Y-115441897D01*
X167819955Y-115441901D01*
X167724145Y-115585287D01*
X167724139Y-115585299D01*
X167658145Y-115744624D01*
X167658145Y-115744626D01*
X167624500Y-115913768D01*
X132362884Y-115913768D01*
X135375072Y-112901579D01*
X139249500Y-112901579D01*
X139249500Y-113098420D01*
X139280289Y-113292821D01*
X139341116Y-113480025D01*
X139430286Y-113655034D01*
X139430476Y-113655405D01*
X139546172Y-113814646D01*
X139685354Y-113953828D01*
X139844595Y-114069524D01*
X140019975Y-114158884D01*
X140207174Y-114219709D01*
X140207175Y-114219709D01*
X140207178Y-114219710D01*
X140401580Y-114250500D01*
X140401583Y-114250500D01*
X140598420Y-114250500D01*
X140792821Y-114219710D01*
X140792822Y-114219709D01*
X140792826Y-114219709D01*
X140980025Y-114158884D01*
X141155405Y-114069524D01*
X141314646Y-113953828D01*
X141453828Y-113814646D01*
X141569524Y-113655405D01*
X141658884Y-113480025D01*
X141719709Y-113292826D01*
X141722566Y-113274790D01*
X141750500Y-113098420D01*
X141750500Y-112901579D01*
X141719710Y-112707178D01*
X141719709Y-112707174D01*
X141658884Y-112519975D01*
X141569524Y-112344595D01*
X141453828Y-112185354D01*
X141314646Y-112046172D01*
X141155405Y-111930476D01*
X141155404Y-111930475D01*
X141155402Y-111930474D01*
X140980025Y-111841116D01*
X140792821Y-111780289D01*
X140598420Y-111749500D01*
X140598417Y-111749500D01*
X140401583Y-111749500D01*
X140401580Y-111749500D01*
X140207178Y-111780289D01*
X140019974Y-111841116D01*
X139844597Y-111930474D01*
X139685355Y-112046171D01*
X139546171Y-112185355D01*
X139430474Y-112344597D01*
X139341116Y-112519974D01*
X139280289Y-112707178D01*
X139249500Y-112901579D01*
X135375072Y-112901579D01*
X136949963Y-111326688D01*
X137004478Y-111298913D01*
X137064910Y-111308484D01*
X137096596Y-111338524D01*
X137098760Y-111336864D01*
X137102708Y-111342009D01*
X137102709Y-111342010D01*
X137102711Y-111342013D01*
X137186587Y-111425889D01*
X137186589Y-111425890D01*
X137186591Y-111425892D01*
X137289310Y-111485197D01*
X137289311Y-111485197D01*
X137289314Y-111485199D01*
X137403891Y-111515900D01*
X137403893Y-111515900D01*
X137522507Y-111515900D01*
X137522509Y-111515900D01*
X137637086Y-111485199D01*
X137637088Y-111485197D01*
X137637090Y-111485197D01*
X137739808Y-111425892D01*
X137739808Y-111425891D01*
X137739813Y-111425889D01*
X137814907Y-111350794D01*
X137869422Y-111323019D01*
X137884909Y-111321800D01*
X141366025Y-111321800D01*
X141424216Y-111340707D01*
X141460180Y-111390207D01*
X141461651Y-111446421D01*
X141447700Y-111498491D01*
X141447700Y-111617109D01*
X141462915Y-111673890D01*
X141478402Y-111731690D01*
X141537707Y-111834408D01*
X141537709Y-111834410D01*
X141537711Y-111834413D01*
X141621587Y-111918289D01*
X141621589Y-111918290D01*
X141621591Y-111918292D01*
X141724310Y-111977597D01*
X141724311Y-111977597D01*
X141724314Y-111977599D01*
X141838891Y-112008300D01*
X141838893Y-112008300D01*
X141957507Y-112008300D01*
X141957509Y-112008300D01*
X142072086Y-111977599D01*
X142072088Y-111977597D01*
X142072090Y-111977597D01*
X142174808Y-111918292D01*
X142174808Y-111918291D01*
X142174813Y-111918289D01*
X142258689Y-111834413D01*
X142307476Y-111749913D01*
X142317997Y-111731690D01*
X142317997Y-111731688D01*
X142317999Y-111731686D01*
X142348700Y-111617109D01*
X142348700Y-111498491D01*
X142334748Y-111446421D01*
X142337951Y-111385321D01*
X142376456Y-111337772D01*
X142430375Y-111321800D01*
X146352338Y-111321800D01*
X146410529Y-111340707D01*
X146446493Y-111390207D01*
X146447622Y-111433900D01*
X146450347Y-111434259D01*
X146449500Y-111440690D01*
X146449500Y-111440691D01*
X146449500Y-111559309D01*
X146458774Y-111593920D01*
X146480202Y-111673890D01*
X146539507Y-111776608D01*
X146539509Y-111776610D01*
X146539511Y-111776613D01*
X146623387Y-111860489D01*
X146623389Y-111860490D01*
X146623391Y-111860492D01*
X146726110Y-111919797D01*
X146726111Y-111919797D01*
X146726114Y-111919799D01*
X146840691Y-111950500D01*
X146840693Y-111950500D01*
X146959307Y-111950500D01*
X146959309Y-111950500D01*
X147073886Y-111919799D01*
X147073888Y-111919797D01*
X147073890Y-111919797D01*
X147176608Y-111860492D01*
X147176608Y-111860491D01*
X147176613Y-111860489D01*
X147260489Y-111776613D01*
X147274710Y-111751982D01*
X147319797Y-111673890D01*
X147319797Y-111673888D01*
X147319799Y-111673886D01*
X147350500Y-111559309D01*
X147350500Y-111440691D01*
X147350499Y-111440690D01*
X147349653Y-111434259D01*
X147352705Y-111433857D01*
X147355214Y-111385383D01*
X147393688Y-111337807D01*
X147447662Y-111321800D01*
X147859741Y-111321800D01*
X147917932Y-111340707D01*
X147929735Y-111350787D01*
X147946105Y-111367158D01*
X147973881Y-111421672D01*
X147975100Y-111437159D01*
X147975100Y-111532609D01*
X147993603Y-111601662D01*
X148005802Y-111647190D01*
X148065107Y-111749908D01*
X148065109Y-111749910D01*
X148065111Y-111749913D01*
X148148987Y-111833789D01*
X148148989Y-111833790D01*
X148148991Y-111833792D01*
X148251710Y-111893097D01*
X148251711Y-111893097D01*
X148251714Y-111893099D01*
X148366291Y-111923800D01*
X148366293Y-111923800D01*
X148484907Y-111923800D01*
X148484909Y-111923800D01*
X148599486Y-111893099D01*
X148599488Y-111893097D01*
X148599490Y-111893097D01*
X148702208Y-111833792D01*
X148702208Y-111833791D01*
X148702213Y-111833789D01*
X148786089Y-111749913D01*
X148786092Y-111749908D01*
X148845397Y-111647190D01*
X148845397Y-111647188D01*
X148845399Y-111647186D01*
X148876100Y-111532609D01*
X148876100Y-111413991D01*
X148845399Y-111299414D01*
X148845397Y-111299411D01*
X148845397Y-111299409D01*
X148786092Y-111196691D01*
X148786090Y-111196689D01*
X148786089Y-111196687D01*
X148702213Y-111112811D01*
X148702210Y-111112809D01*
X148702208Y-111112807D01*
X148599489Y-111053502D01*
X148599490Y-111053502D01*
X148585951Y-111049874D01*
X148484909Y-111022800D01*
X148389460Y-111022800D01*
X148331269Y-111003893D01*
X148319457Y-110993804D01*
X148159643Y-110833991D01*
X148070055Y-110796882D01*
X148023529Y-110757145D01*
X148009246Y-110697650D01*
X148032661Y-110641122D01*
X148037924Y-110635427D01*
X148633808Y-110039544D01*
X148640448Y-110023513D01*
X148640449Y-110023511D01*
X148640449Y-110023510D01*
X148674000Y-109942513D01*
X148674000Y-109173938D01*
X148692907Y-109115747D01*
X148742407Y-109079783D01*
X148798621Y-109078312D01*
X148844108Y-109090500D01*
X148844109Y-109090500D01*
X148975891Y-109090500D01*
X148975892Y-109090500D01*
X149021378Y-109078312D01*
X149082477Y-109081513D01*
X149130028Y-109120017D01*
X149146000Y-109173938D01*
X149146000Y-109837487D01*
X149146000Y-109918487D01*
X149146000Y-110023513D01*
X149156389Y-110048593D01*
X149186190Y-110120541D01*
X149186191Y-110120542D01*
X149186192Y-110120544D01*
X150015292Y-110949644D01*
X150015291Y-110949644D01*
X150059452Y-110993804D01*
X150089556Y-111023908D01*
X150186587Y-111064100D01*
X156189340Y-111064100D01*
X156247531Y-111083007D01*
X156259344Y-111093096D01*
X156760016Y-111593768D01*
X156787793Y-111648285D01*
X156778222Y-111708717D01*
X156734957Y-111751982D01*
X156674526Y-111761553D01*
X156598421Y-111749500D01*
X156598417Y-111749500D01*
X156401583Y-111749500D01*
X156401580Y-111749500D01*
X156207178Y-111780289D01*
X156019974Y-111841116D01*
X155844597Y-111930474D01*
X155685355Y-112046171D01*
X155546171Y-112185355D01*
X155430474Y-112344597D01*
X155341116Y-112519974D01*
X155280289Y-112707178D01*
X155249500Y-112901579D01*
X155249500Y-113098420D01*
X155280289Y-113292821D01*
X155341116Y-113480025D01*
X155430286Y-113655034D01*
X155430476Y-113655405D01*
X155546172Y-113814646D01*
X155685354Y-113953828D01*
X155844595Y-114069524D01*
X156019975Y-114158884D01*
X156207174Y-114219709D01*
X156207175Y-114219709D01*
X156207178Y-114219710D01*
X156401580Y-114250500D01*
X156401583Y-114250500D01*
X156598420Y-114250500D01*
X156792821Y-114219710D01*
X156792822Y-114219709D01*
X156792826Y-114219709D01*
X156980025Y-114158884D01*
X157155405Y-114069524D01*
X157314646Y-113953828D01*
X157453828Y-113814646D01*
X157569524Y-113655405D01*
X157658884Y-113480025D01*
X157719709Y-113292826D01*
X157722566Y-113274790D01*
X157750500Y-113098420D01*
X157750500Y-112901579D01*
X157738446Y-112825474D01*
X157748017Y-112765042D01*
X157791282Y-112721777D01*
X157851714Y-112712206D01*
X157906231Y-112739983D01*
X158315792Y-113149544D01*
X158315791Y-113149544D01*
X158361502Y-113195254D01*
X158390056Y-113223808D01*
X158487087Y-113264000D01*
X167758848Y-113264000D01*
X167817039Y-113282907D01*
X167853003Y-113332407D01*
X167853003Y-113393593D01*
X167828852Y-113433004D01*
X167819958Y-113441897D01*
X167819955Y-113441901D01*
X167724145Y-113585287D01*
X167724139Y-113585299D01*
X167658145Y-113744624D01*
X167658145Y-113744626D01*
X167624500Y-113913768D01*
X167624500Y-114086231D01*
X167658145Y-114255373D01*
X167658145Y-114255375D01*
X167724139Y-114414700D01*
X167724145Y-114414712D01*
X167792660Y-114517249D01*
X167819955Y-114558099D01*
X167941901Y-114680045D01*
X167995102Y-114715593D01*
X168085287Y-114775854D01*
X168085299Y-114775860D01*
X168144153Y-114800238D01*
X168244626Y-114841855D01*
X168413771Y-114875500D01*
X168413772Y-114875500D01*
X168586228Y-114875500D01*
X168586229Y-114875500D01*
X168755374Y-114841855D01*
X168914705Y-114775858D01*
X168914707Y-114775856D01*
X168914712Y-114775854D01*
X168976601Y-114734500D01*
X169058099Y-114680045D01*
X169180045Y-114558099D01*
X169248188Y-114456115D01*
X169275854Y-114414712D01*
X169275860Y-114414700D01*
X169341855Y-114255374D01*
X169375500Y-114086229D01*
X169375500Y-113913771D01*
X169341855Y-113744626D01*
X169319856Y-113691515D01*
X169275860Y-113585299D01*
X169275854Y-113585287D01*
X169220893Y-113503034D01*
X169180045Y-113441901D01*
X169171148Y-113433004D01*
X169143371Y-113378487D01*
X169152942Y-113318055D01*
X169196207Y-113274790D01*
X169241152Y-113264000D01*
X169349641Y-113264000D01*
X169407832Y-113282907D01*
X169419645Y-113292997D01*
X169673794Y-113547147D01*
X169701571Y-113601663D01*
X169695254Y-113655035D01*
X169658145Y-113744624D01*
X169658145Y-113744626D01*
X169624500Y-113913768D01*
X169624500Y-114086231D01*
X169658145Y-114255373D01*
X169658145Y-114255375D01*
X169724139Y-114414700D01*
X169724145Y-114414712D01*
X169792660Y-114517249D01*
X169819955Y-114558099D01*
X169941901Y-114680045D01*
X169995102Y-114715593D01*
X170085287Y-114775854D01*
X170085299Y-114775860D01*
X170144153Y-114800238D01*
X170244626Y-114841855D01*
X170413771Y-114875500D01*
X170413772Y-114875500D01*
X170586228Y-114875500D01*
X170586229Y-114875500D01*
X170755374Y-114841855D01*
X170914705Y-114775858D01*
X170914707Y-114775856D01*
X170914712Y-114775854D01*
X170976601Y-114734500D01*
X171058099Y-114680045D01*
X171180045Y-114558099D01*
X171248188Y-114456115D01*
X171275854Y-114414712D01*
X171275860Y-114414700D01*
X171341855Y-114255374D01*
X171375500Y-114086229D01*
X171375500Y-113913771D01*
X171341855Y-113744626D01*
X171319856Y-113691515D01*
X171275860Y-113585299D01*
X171275854Y-113585287D01*
X171220893Y-113503034D01*
X171180045Y-113441901D01*
X171058099Y-113319955D01*
X171017249Y-113292660D01*
X170914712Y-113224145D01*
X170914700Y-113224139D01*
X170755374Y-113158145D01*
X170586231Y-113124500D01*
X170586229Y-113124500D01*
X170413771Y-113124500D01*
X170413768Y-113124500D01*
X170244626Y-113158145D01*
X170244624Y-113158145D01*
X170155035Y-113195254D01*
X170094038Y-113200054D01*
X170047147Y-113173794D01*
X169649543Y-112776191D01*
X169580930Y-112747771D01*
X169552513Y-112736000D01*
X169552512Y-112736000D01*
X169241152Y-112736000D01*
X169182961Y-112717093D01*
X169146997Y-112667593D01*
X169146997Y-112606407D01*
X169171148Y-112566996D01*
X169180045Y-112558099D01*
X169248188Y-112456115D01*
X169275854Y-112414712D01*
X169275860Y-112414700D01*
X169341855Y-112255374D01*
X169375500Y-112086229D01*
X169375500Y-111913771D01*
X169341855Y-111744626D01*
X169312554Y-111673886D01*
X169275860Y-111585299D01*
X169275854Y-111585287D01*
X169208976Y-111485199D01*
X169180045Y-111441901D01*
X169058099Y-111319955D01*
X169051452Y-111315513D01*
X169013574Y-111267467D01*
X169011172Y-111206328D01*
X169045164Y-111155454D01*
X169102567Y-111134276D01*
X169106455Y-111134200D01*
X169893545Y-111134200D01*
X169951736Y-111153107D01*
X169987700Y-111202607D01*
X169987700Y-111263793D01*
X169951736Y-111313293D01*
X169948582Y-111315490D01*
X169941926Y-111319937D01*
X169941898Y-111319957D01*
X169819958Y-111441897D01*
X169819955Y-111441901D01*
X169724145Y-111585287D01*
X169724139Y-111585299D01*
X169658145Y-111744624D01*
X169658145Y-111744626D01*
X169624500Y-111913768D01*
X169624500Y-112086231D01*
X169658145Y-112255373D01*
X169658145Y-112255375D01*
X169724139Y-112414700D01*
X169724145Y-112414712D01*
X169792660Y-112517249D01*
X169819955Y-112558099D01*
X169941901Y-112680045D01*
X169997347Y-112717093D01*
X170085287Y-112775854D01*
X170085299Y-112775860D01*
X170144153Y-112800238D01*
X170244626Y-112841855D01*
X170413771Y-112875500D01*
X170413772Y-112875500D01*
X170586228Y-112875500D01*
X170586229Y-112875500D01*
X170755374Y-112841855D01*
X170914705Y-112775858D01*
X170914707Y-112775856D01*
X170914712Y-112775854D01*
X170956740Y-112747771D01*
X171058099Y-112680045D01*
X171180045Y-112558099D01*
X171248188Y-112456115D01*
X171275854Y-112414712D01*
X171275860Y-112414700D01*
X171341855Y-112255374D01*
X171375500Y-112086229D01*
X171375500Y-111913771D01*
X171341855Y-111744626D01*
X171312554Y-111673886D01*
X171275860Y-111585299D01*
X171275854Y-111585287D01*
X171208976Y-111485199D01*
X171180045Y-111441901D01*
X171058099Y-111319955D01*
X171013050Y-111289854D01*
X170975172Y-111241805D01*
X170972770Y-111180667D01*
X171006763Y-111129793D01*
X171030168Y-111116076D01*
X171047252Y-111108998D01*
X171083444Y-111094008D01*
X171595809Y-110581644D01*
X171636000Y-110484613D01*
X171636000Y-110379587D01*
X171636000Y-108819487D01*
X171595808Y-108722456D01*
X171581566Y-108708214D01*
X171521544Y-108648191D01*
X171521544Y-108648192D01*
X171326205Y-108452853D01*
X171298428Y-108398336D01*
X171304744Y-108344966D01*
X171341855Y-108255374D01*
X171375500Y-108086229D01*
X171375500Y-107913771D01*
X171341855Y-107744626D01*
X171304745Y-107655034D01*
X171275860Y-107585299D01*
X171275854Y-107585287D01*
X171220893Y-107503034D01*
X171180045Y-107441901D01*
X171058099Y-107319955D01*
X171002322Y-107282686D01*
X170914712Y-107224145D01*
X170914700Y-107224139D01*
X170755374Y-107158145D01*
X170586231Y-107124500D01*
X170586229Y-107124500D01*
X170413771Y-107124500D01*
X170413768Y-107124500D01*
X170244626Y-107158145D01*
X170244624Y-107158145D01*
X170085299Y-107224139D01*
X170085287Y-107224145D01*
X169941901Y-107319955D01*
X169941897Y-107319958D01*
X169819958Y-107441897D01*
X169819955Y-107441901D01*
X169724145Y-107585287D01*
X169724139Y-107585299D01*
X169658145Y-107744624D01*
X169658145Y-107744626D01*
X169624500Y-107913768D01*
X169624500Y-108086231D01*
X169658145Y-108255373D01*
X169658145Y-108255375D01*
X169684145Y-108318144D01*
X169688946Y-108379140D01*
X169656976Y-108431309D01*
X169600448Y-108454724D01*
X169567058Y-108451656D01*
X169492209Y-108431600D01*
X169417024Y-108431600D01*
X169358833Y-108412693D01*
X169322869Y-108363193D01*
X169322869Y-108302007D01*
X169325559Y-108294715D01*
X169330540Y-108282690D01*
X169341855Y-108255374D01*
X169375500Y-108086229D01*
X169375500Y-107913771D01*
X169341855Y-107744626D01*
X169304745Y-107655034D01*
X169275860Y-107585299D01*
X169275854Y-107585287D01*
X169220893Y-107503034D01*
X169180045Y-107441901D01*
X169058099Y-107319955D01*
X169002322Y-107282686D01*
X168914712Y-107224145D01*
X168914700Y-107224139D01*
X168755374Y-107158145D01*
X168586231Y-107124500D01*
X168586229Y-107124500D01*
X168567760Y-107124500D01*
X168509569Y-107105593D01*
X168497756Y-107095504D01*
X168446756Y-107044504D01*
X168418979Y-106989987D01*
X168428550Y-106929555D01*
X168471815Y-106886290D01*
X168516760Y-106875500D01*
X168586228Y-106875500D01*
X168586229Y-106875500D01*
X168755374Y-106841855D01*
X168914705Y-106775858D01*
X168914707Y-106775856D01*
X168914712Y-106775854D01*
X168970829Y-106738357D01*
X169058099Y-106680045D01*
X169180045Y-106558099D01*
X169262548Y-106434625D01*
X169275854Y-106414712D01*
X169275860Y-106414700D01*
X169303071Y-106349007D01*
X169341855Y-106255374D01*
X169375500Y-106086229D01*
X169375500Y-105913771D01*
X169375499Y-105913768D01*
X169624500Y-105913768D01*
X169624500Y-106086231D01*
X169658145Y-106255373D01*
X169658145Y-106255375D01*
X169724139Y-106414700D01*
X169724145Y-106414712D01*
X169785272Y-106506192D01*
X169819955Y-106558099D01*
X169941901Y-106680045D01*
X169982248Y-106707004D01*
X170085287Y-106775854D01*
X170085299Y-106775860D01*
X170102986Y-106783186D01*
X170244626Y-106841855D01*
X170413771Y-106875500D01*
X170413772Y-106875500D01*
X170586228Y-106875500D01*
X170586229Y-106875500D01*
X170755374Y-106841855D01*
X170914705Y-106775858D01*
X170914707Y-106775856D01*
X170914712Y-106775854D01*
X170970829Y-106738357D01*
X171058099Y-106680045D01*
X171180045Y-106558099D01*
X171262548Y-106434625D01*
X171275854Y-106414712D01*
X171275860Y-106414700D01*
X171303071Y-106349007D01*
X171341855Y-106255374D01*
X171375500Y-106086229D01*
X171375500Y-105913771D01*
X171341855Y-105744626D01*
X171304745Y-105655034D01*
X171275860Y-105585299D01*
X171275854Y-105585287D01*
X171216284Y-105496136D01*
X171180045Y-105441901D01*
X171058099Y-105319955D01*
X171017249Y-105292660D01*
X170914712Y-105224145D01*
X170914700Y-105224139D01*
X170755374Y-105158145D01*
X170586231Y-105124500D01*
X170586229Y-105124500D01*
X170413771Y-105124500D01*
X170413768Y-105124500D01*
X170244626Y-105158145D01*
X170244624Y-105158145D01*
X170085299Y-105224139D01*
X170085287Y-105224145D01*
X169941901Y-105319955D01*
X169941897Y-105319958D01*
X169819958Y-105441897D01*
X169819955Y-105441901D01*
X169724145Y-105585287D01*
X169724139Y-105585299D01*
X169658145Y-105744624D01*
X169658145Y-105744626D01*
X169624500Y-105913768D01*
X169375499Y-105913768D01*
X169341855Y-105744626D01*
X169304745Y-105655034D01*
X169275860Y-105585299D01*
X169275854Y-105585287D01*
X169216284Y-105496136D01*
X169180045Y-105441901D01*
X169058099Y-105319955D01*
X169017249Y-105292660D01*
X168914712Y-105224145D01*
X168914700Y-105224139D01*
X168755374Y-105158145D01*
X168586231Y-105124500D01*
X168586229Y-105124500D01*
X168413771Y-105124500D01*
X168413768Y-105124500D01*
X168244627Y-105158144D01*
X168155034Y-105195254D01*
X168094037Y-105200053D01*
X168047146Y-105173793D01*
X167509695Y-104636342D01*
X165896353Y-103023001D01*
X165868578Y-102968487D01*
X165878149Y-102908055D01*
X165921414Y-102864790D01*
X165966359Y-102854000D01*
X166939640Y-102854000D01*
X166997831Y-102872907D01*
X167009644Y-102882996D01*
X167673793Y-103547145D01*
X167701570Y-103601662D01*
X167695254Y-103655033D01*
X167658144Y-103744627D01*
X167624500Y-103913768D01*
X167624500Y-104086231D01*
X167658145Y-104255373D01*
X167658145Y-104255375D01*
X167724139Y-104414700D01*
X167724145Y-104414712D01*
X167792660Y-104517249D01*
X167819955Y-104558099D01*
X167941901Y-104680045D01*
X167998296Y-104717727D01*
X168085287Y-104775854D01*
X168085299Y-104775860D01*
X168102986Y-104783186D01*
X168244626Y-104841855D01*
X168413771Y-104875500D01*
X168413772Y-104875500D01*
X168586228Y-104875500D01*
X168586229Y-104875500D01*
X168755374Y-104841855D01*
X168914705Y-104775858D01*
X168914707Y-104775856D01*
X168914712Y-104775854D01*
X168971061Y-104738202D01*
X169058099Y-104680045D01*
X169180045Y-104558099D01*
X169270712Y-104422407D01*
X169275854Y-104414712D01*
X169275860Y-104414700D01*
X169341855Y-104255374D01*
X169375500Y-104086229D01*
X169375500Y-103913771D01*
X169375499Y-103913768D01*
X169624500Y-103913768D01*
X169624500Y-104086231D01*
X169658145Y-104255373D01*
X169658145Y-104255375D01*
X169724139Y-104414700D01*
X169724145Y-104414712D01*
X169792660Y-104517249D01*
X169819955Y-104558099D01*
X169941901Y-104680045D01*
X169998296Y-104717727D01*
X170085287Y-104775854D01*
X170085299Y-104775860D01*
X170102986Y-104783186D01*
X170244626Y-104841855D01*
X170413771Y-104875500D01*
X170413772Y-104875500D01*
X170586228Y-104875500D01*
X170586229Y-104875500D01*
X170755374Y-104841855D01*
X170914705Y-104775858D01*
X170914707Y-104775856D01*
X170914712Y-104775854D01*
X170971061Y-104738202D01*
X171058099Y-104680045D01*
X171180045Y-104558099D01*
X171270712Y-104422407D01*
X171275854Y-104414712D01*
X171275860Y-104414700D01*
X171341855Y-104255374D01*
X171375500Y-104086229D01*
X171375500Y-103913771D01*
X171341855Y-103744626D01*
X171305873Y-103657758D01*
X171275860Y-103585299D01*
X171275854Y-103585287D01*
X171220893Y-103503034D01*
X171180045Y-103441901D01*
X171058099Y-103319955D01*
X170991861Y-103275696D01*
X170914712Y-103224145D01*
X170914700Y-103224139D01*
X170755374Y-103158145D01*
X170586231Y-103124500D01*
X170586229Y-103124500D01*
X170413771Y-103124500D01*
X170413768Y-103124500D01*
X170244626Y-103158145D01*
X170244624Y-103158145D01*
X170085299Y-103224139D01*
X170085287Y-103224145D01*
X169941901Y-103319955D01*
X169941897Y-103319958D01*
X169819958Y-103441897D01*
X169819955Y-103441901D01*
X169724145Y-103585287D01*
X169724139Y-103585299D01*
X169658145Y-103744624D01*
X169658145Y-103744626D01*
X169624500Y-103913768D01*
X169375499Y-103913768D01*
X169341855Y-103744626D01*
X169305873Y-103657758D01*
X169275860Y-103585299D01*
X169275854Y-103585287D01*
X169220893Y-103503034D01*
X169180045Y-103441901D01*
X169058099Y-103319955D01*
X168991861Y-103275696D01*
X168914712Y-103224145D01*
X168914700Y-103224139D01*
X168755374Y-103158145D01*
X168586231Y-103124500D01*
X168586229Y-103124500D01*
X168413771Y-103124500D01*
X168413768Y-103124500D01*
X168244627Y-103158144D01*
X168155033Y-103195254D01*
X168094036Y-103200053D01*
X168047145Y-103173793D01*
X167643431Y-102770079D01*
X167239544Y-102366192D01*
X167239542Y-102366191D01*
X167239541Y-102366190D01*
X167176817Y-102340209D01*
X167142513Y-102326000D01*
X167142512Y-102326000D01*
X152392557Y-102326000D01*
X152334366Y-102307093D01*
X152314014Y-102287266D01*
X152310502Y-102282689D01*
X152310501Y-102282688D01*
X152310500Y-102282686D01*
X152264620Y-102236806D01*
X152236845Y-102182292D01*
X152246416Y-102121860D01*
X152281673Y-102086602D01*
X152280124Y-102084284D01*
X152288231Y-102078867D01*
X152354552Y-102034552D01*
X152398867Y-101968231D01*
X152410500Y-101909748D01*
X152410500Y-101270252D01*
X152398867Y-101211769D01*
X152354552Y-101145448D01*
X152354548Y-101145445D01*
X152288233Y-101101134D01*
X152288231Y-101101133D01*
X152288228Y-101101132D01*
X152288227Y-101101132D01*
X152229758Y-101089501D01*
X152229748Y-101089500D01*
X151590252Y-101089500D01*
X151590251Y-101089500D01*
X151590241Y-101089501D01*
X151531772Y-101101132D01*
X151531766Y-101101134D01*
X151465451Y-101145445D01*
X151465445Y-101145451D01*
X151415716Y-101219876D01*
X151412378Y-101217645D01*
X151384877Y-101249812D01*
X151325375Y-101264064D01*
X151268859Y-101240619D01*
X151263203Y-101235389D01*
X151217314Y-101189500D01*
X151217311Y-101189498D01*
X151217309Y-101189496D01*
X151103189Y-101123609D01*
X151103191Y-101123609D01*
X151042853Y-101107442D01*
X150975892Y-101089500D01*
X150844108Y-101089500D01*
X150777147Y-101107442D01*
X150716809Y-101123609D01*
X150602690Y-101189496D01*
X150509498Y-101282688D01*
X150495736Y-101306525D01*
X150450266Y-101347465D01*
X150389416Y-101353860D01*
X150336428Y-101323267D01*
X150324264Y-101306525D01*
X150310501Y-101282688D01*
X150310500Y-101282686D01*
X150217314Y-101189500D01*
X150217311Y-101189498D01*
X150217309Y-101189496D01*
X150103189Y-101123609D01*
X150103191Y-101123609D01*
X150042853Y-101107442D01*
X149975892Y-101089500D01*
X149844108Y-101089500D01*
X149798621Y-101101687D01*
X149737521Y-101098485D01*
X149689971Y-101059980D01*
X149674000Y-101006061D01*
X149674000Y-100440359D01*
X149692907Y-100382168D01*
X149702997Y-100370355D01*
X149754457Y-100318896D01*
X149808974Y-100291119D01*
X149824460Y-100289900D01*
X166375540Y-100289900D01*
X166433731Y-100308807D01*
X166445544Y-100318896D01*
X167673793Y-101547145D01*
X167701570Y-101601662D01*
X167695254Y-101655033D01*
X167658144Y-101744627D01*
X167624500Y-101913768D01*
X167624500Y-102086231D01*
X167658145Y-102255373D01*
X167658145Y-102255375D01*
X167724139Y-102414700D01*
X167724145Y-102414712D01*
X167787747Y-102509897D01*
X167819955Y-102558099D01*
X167941901Y-102680045D01*
X168003034Y-102720893D01*
X168085287Y-102775854D01*
X168085299Y-102775860D01*
X168144153Y-102800238D01*
X168244626Y-102841855D01*
X168413771Y-102875500D01*
X168413772Y-102875500D01*
X168586228Y-102875500D01*
X168586229Y-102875500D01*
X168755374Y-102841855D01*
X168914705Y-102775858D01*
X168914707Y-102775856D01*
X168914712Y-102775854D01*
X168971061Y-102738202D01*
X169058099Y-102680045D01*
X169180045Y-102558099D01*
X169270712Y-102422407D01*
X169275854Y-102414712D01*
X169275860Y-102414700D01*
X169295739Y-102366708D01*
X169341855Y-102255374D01*
X169375500Y-102086229D01*
X169375500Y-101913771D01*
X169375499Y-101913768D01*
X169624500Y-101913768D01*
X169624500Y-102086231D01*
X169658145Y-102255373D01*
X169658145Y-102255375D01*
X169724139Y-102414700D01*
X169724145Y-102414712D01*
X169787747Y-102509897D01*
X169819955Y-102558099D01*
X169941901Y-102680045D01*
X170003034Y-102720893D01*
X170085287Y-102775854D01*
X170085299Y-102775860D01*
X170144153Y-102800238D01*
X170244626Y-102841855D01*
X170413771Y-102875500D01*
X170413772Y-102875500D01*
X170586228Y-102875500D01*
X170586229Y-102875500D01*
X170755374Y-102841855D01*
X170914705Y-102775858D01*
X170914707Y-102775856D01*
X170914712Y-102775854D01*
X170971061Y-102738202D01*
X171058099Y-102680045D01*
X171180045Y-102558099D01*
X171270712Y-102422407D01*
X171275854Y-102414712D01*
X171275860Y-102414700D01*
X171295739Y-102366708D01*
X171341855Y-102255374D01*
X171375500Y-102086229D01*
X171375500Y-101913771D01*
X171341855Y-101744626D01*
X171305099Y-101655890D01*
X171275860Y-101585299D01*
X171275854Y-101585287D01*
X171209984Y-101486708D01*
X171180045Y-101441901D01*
X171058099Y-101319955D01*
X171002322Y-101282686D01*
X170914712Y-101224145D01*
X170914700Y-101224139D01*
X170755374Y-101158145D01*
X170586231Y-101124500D01*
X170586229Y-101124500D01*
X170413771Y-101124500D01*
X170413768Y-101124500D01*
X170244626Y-101158145D01*
X170244624Y-101158145D01*
X170085299Y-101224139D01*
X170085287Y-101224145D01*
X169941901Y-101319955D01*
X169941897Y-101319958D01*
X169819958Y-101441897D01*
X169819955Y-101441901D01*
X169724145Y-101585287D01*
X169724139Y-101585299D01*
X169658145Y-101744624D01*
X169658145Y-101744626D01*
X169624500Y-101913768D01*
X169375499Y-101913768D01*
X169341855Y-101744626D01*
X169305099Y-101655890D01*
X169275860Y-101585299D01*
X169275854Y-101585287D01*
X169209984Y-101486708D01*
X169180045Y-101441901D01*
X169058099Y-101319955D01*
X169002322Y-101282686D01*
X168914712Y-101224145D01*
X168914700Y-101224139D01*
X168755374Y-101158145D01*
X168586231Y-101124500D01*
X168586229Y-101124500D01*
X168413771Y-101124500D01*
X168413768Y-101124500D01*
X168244627Y-101158144D01*
X168155033Y-101195254D01*
X168094036Y-101200053D01*
X168047145Y-101173793D01*
X167076556Y-100203204D01*
X167048779Y-100148687D01*
X167058350Y-100088255D01*
X167101615Y-100044990D01*
X167146560Y-100034200D01*
X167532903Y-100034200D01*
X167591094Y-100053107D01*
X167627058Y-100102607D01*
X167630001Y-100113886D01*
X167658145Y-100255373D01*
X167658145Y-100255375D01*
X167724139Y-100414700D01*
X167724145Y-100414712D01*
X167771141Y-100485044D01*
X167819955Y-100558099D01*
X167941901Y-100680045D01*
X168003034Y-100720893D01*
X168085287Y-100775854D01*
X168085299Y-100775860D01*
X168120166Y-100790302D01*
X168244626Y-100841855D01*
X168413771Y-100875500D01*
X168413772Y-100875500D01*
X168586228Y-100875500D01*
X168586229Y-100875500D01*
X168755374Y-100841855D01*
X168914705Y-100775858D01*
X168914707Y-100775856D01*
X168914712Y-100775854D01*
X168956115Y-100748188D01*
X169058099Y-100680045D01*
X169180045Y-100558099D01*
X169258717Y-100440359D01*
X169275854Y-100414712D01*
X169275860Y-100414700D01*
X169294228Y-100370355D01*
X169341855Y-100255374D01*
X169375500Y-100086229D01*
X169375500Y-99913771D01*
X169341855Y-99744626D01*
X169304278Y-99653907D01*
X169275860Y-99585299D01*
X169275854Y-99585288D01*
X169247599Y-99543002D01*
X169230990Y-99484114D01*
X169252167Y-99426710D01*
X169303041Y-99392717D01*
X169329914Y-99389000D01*
X169474641Y-99389000D01*
X169532832Y-99407907D01*
X169544637Y-99417989D01*
X169673795Y-99547148D01*
X169701571Y-99601662D01*
X169695255Y-99655034D01*
X169658144Y-99744629D01*
X169624500Y-99913768D01*
X169624500Y-100086231D01*
X169658145Y-100255373D01*
X169658145Y-100255375D01*
X169724139Y-100414700D01*
X169724145Y-100414712D01*
X169771141Y-100485044D01*
X169819955Y-100558099D01*
X169941901Y-100680045D01*
X170003034Y-100720893D01*
X170085287Y-100775854D01*
X170085299Y-100775860D01*
X170120166Y-100790302D01*
X170244626Y-100841855D01*
X170413771Y-100875500D01*
X170413772Y-100875500D01*
X170586228Y-100875500D01*
X170586229Y-100875500D01*
X170755374Y-100841855D01*
X170914705Y-100775858D01*
X170914707Y-100775856D01*
X170914712Y-100775854D01*
X170956115Y-100748188D01*
X171058099Y-100680045D01*
X171180045Y-100558099D01*
X171258717Y-100440359D01*
X171275854Y-100414712D01*
X171275860Y-100414700D01*
X171294228Y-100370355D01*
X171341855Y-100255374D01*
X171375500Y-100086229D01*
X171375500Y-99913771D01*
X171341855Y-99744626D01*
X171304278Y-99653907D01*
X171275860Y-99585299D01*
X171275854Y-99585287D01*
X171208251Y-99484114D01*
X171180045Y-99441901D01*
X171058099Y-99319955D01*
X171017249Y-99292660D01*
X170914712Y-99224145D01*
X170914700Y-99224139D01*
X170755374Y-99158145D01*
X170586231Y-99124500D01*
X170586229Y-99124500D01*
X170413771Y-99124500D01*
X170413768Y-99124500D01*
X170244626Y-99158145D01*
X170244624Y-99158145D01*
X170155035Y-99195254D01*
X170094038Y-99200054D01*
X170047147Y-99173794D01*
X169774543Y-98901191D01*
X169712516Y-98875499D01*
X169677513Y-98861000D01*
X169677512Y-98861000D01*
X169113639Y-98861000D01*
X169055448Y-98842093D01*
X169019484Y-98792593D01*
X169019484Y-98731407D01*
X169054463Y-98683262D01*
X169054348Y-98683122D01*
X169054885Y-98682680D01*
X169055448Y-98681907D01*
X169057973Y-98680147D01*
X169058089Y-98680051D01*
X169058099Y-98680045D01*
X169180045Y-98558099D01*
X169248194Y-98456107D01*
X169275854Y-98414712D01*
X169275860Y-98414700D01*
X169295991Y-98366100D01*
X169341855Y-98255374D01*
X169375500Y-98086229D01*
X169375500Y-97913771D01*
X169375499Y-97913768D01*
X169624500Y-97913768D01*
X169624500Y-98086231D01*
X169658145Y-98255373D01*
X169658145Y-98255375D01*
X169724139Y-98414700D01*
X169724145Y-98414712D01*
X169792660Y-98517249D01*
X169819955Y-98558099D01*
X169941901Y-98680045D01*
X170003034Y-98720893D01*
X170085287Y-98775854D01*
X170085299Y-98775860D01*
X170116716Y-98788873D01*
X170244626Y-98841855D01*
X170413771Y-98875500D01*
X170413772Y-98875500D01*
X170586228Y-98875500D01*
X170586229Y-98875500D01*
X170755374Y-98841855D01*
X170914705Y-98775858D01*
X170914707Y-98775856D01*
X170914712Y-98775854D01*
X170981230Y-98731407D01*
X171058099Y-98680045D01*
X171180045Y-98558099D01*
X171248194Y-98456107D01*
X171275854Y-98414712D01*
X171275860Y-98414700D01*
X171295991Y-98366100D01*
X171341855Y-98255374D01*
X171375500Y-98086229D01*
X171375500Y-97913771D01*
X171341855Y-97744626D01*
X171319856Y-97691515D01*
X171275860Y-97585299D01*
X171275854Y-97585287D01*
X171220893Y-97503034D01*
X171180045Y-97441901D01*
X171058099Y-97319955D01*
X171017249Y-97292660D01*
X170914712Y-97224145D01*
X170914700Y-97224139D01*
X170755374Y-97158145D01*
X170586231Y-97124500D01*
X170586229Y-97124500D01*
X170413771Y-97124500D01*
X170413768Y-97124500D01*
X170244626Y-97158145D01*
X170244624Y-97158145D01*
X170085299Y-97224139D01*
X170085287Y-97224145D01*
X169941901Y-97319955D01*
X169941897Y-97319958D01*
X169819958Y-97441897D01*
X169819955Y-97441901D01*
X169724145Y-97585287D01*
X169724139Y-97585299D01*
X169658145Y-97744624D01*
X169658145Y-97744626D01*
X169624500Y-97913768D01*
X169375499Y-97913768D01*
X169341855Y-97744626D01*
X169319856Y-97691515D01*
X169275860Y-97585299D01*
X169275854Y-97585287D01*
X169220893Y-97503034D01*
X169180045Y-97441901D01*
X169058099Y-97319955D01*
X169017249Y-97292660D01*
X168914712Y-97224145D01*
X168914700Y-97224139D01*
X168755374Y-97158145D01*
X168586231Y-97124500D01*
X168586229Y-97124500D01*
X168413771Y-97124500D01*
X168413768Y-97124500D01*
X168244626Y-97158145D01*
X168244624Y-97158145D01*
X168085299Y-97224139D01*
X168085287Y-97224145D01*
X167941901Y-97319955D01*
X167941897Y-97319958D01*
X167819958Y-97441897D01*
X167819955Y-97441901D01*
X167724145Y-97585287D01*
X167724139Y-97585299D01*
X167658145Y-97744624D01*
X167658145Y-97744626D01*
X167624500Y-97913768D01*
X167624500Y-98086231D01*
X167658145Y-98255373D01*
X167658145Y-98255375D01*
X167724139Y-98414700D01*
X167724145Y-98414712D01*
X167792660Y-98517249D01*
X167819955Y-98558099D01*
X167941901Y-98680045D01*
X167941905Y-98680048D01*
X167945652Y-98683122D01*
X167944846Y-98684103D01*
X167979242Y-98727735D01*
X167981644Y-98788873D01*
X167947651Y-98839747D01*
X167890247Y-98860924D01*
X167886361Y-98861000D01*
X165755185Y-98861000D01*
X165745622Y-98862902D01*
X165745368Y-98861628D01*
X165694610Y-98865618D01*
X165642445Y-98833643D01*
X165631996Y-98818857D01*
X165610190Y-98781089D01*
X165610189Y-98781087D01*
X165526313Y-98697211D01*
X165526310Y-98697209D01*
X165526308Y-98697207D01*
X165423589Y-98637902D01*
X165423590Y-98637902D01*
X165410051Y-98634274D01*
X165309009Y-98607200D01*
X165190391Y-98607200D01*
X165120267Y-98625989D01*
X165075809Y-98637902D01*
X164973091Y-98697207D01*
X164889207Y-98781091D01*
X164829902Y-98883809D01*
X164818492Y-98926393D01*
X164799200Y-98998391D01*
X164799200Y-99117009D01*
X164801207Y-99124500D01*
X164801576Y-99125875D01*
X164798375Y-99186977D01*
X164759871Y-99234527D01*
X164705950Y-99250500D01*
X160952460Y-99250500D01*
X160894269Y-99231593D01*
X160858305Y-99182093D01*
X160858305Y-99120907D01*
X160882456Y-99081496D01*
X164050184Y-95913768D01*
X167624500Y-95913768D01*
X167624500Y-96086231D01*
X167658145Y-96255373D01*
X167658145Y-96255375D01*
X167724139Y-96414700D01*
X167724145Y-96414712D01*
X167792660Y-96517249D01*
X167819955Y-96558099D01*
X167941901Y-96680045D01*
X168003034Y-96720893D01*
X168085287Y-96775854D01*
X168085299Y-96775860D01*
X168144153Y-96800238D01*
X168244626Y-96841855D01*
X168413771Y-96875500D01*
X168413772Y-96875500D01*
X168586228Y-96875500D01*
X168586229Y-96875500D01*
X168755374Y-96841855D01*
X168914705Y-96775858D01*
X168914707Y-96775856D01*
X168914712Y-96775854D01*
X168956115Y-96748188D01*
X169058099Y-96680045D01*
X169180045Y-96558099D01*
X169248188Y-96456115D01*
X169275854Y-96414712D01*
X169275860Y-96414700D01*
X169341855Y-96255374D01*
X169375500Y-96086229D01*
X169375500Y-95913771D01*
X169375499Y-95913768D01*
X169624500Y-95913768D01*
X169624500Y-96086231D01*
X169658145Y-96255373D01*
X169658145Y-96255375D01*
X169724139Y-96414700D01*
X169724145Y-96414712D01*
X169792660Y-96517249D01*
X169819955Y-96558099D01*
X169941901Y-96680045D01*
X170003034Y-96720893D01*
X170085287Y-96775854D01*
X170085299Y-96775860D01*
X170144153Y-96800238D01*
X170244626Y-96841855D01*
X170413771Y-96875500D01*
X170413772Y-96875500D01*
X170586228Y-96875500D01*
X170586229Y-96875500D01*
X170755374Y-96841855D01*
X170914705Y-96775858D01*
X170914707Y-96775856D01*
X170914712Y-96775854D01*
X170956115Y-96748188D01*
X171058099Y-96680045D01*
X171180045Y-96558099D01*
X171248188Y-96456115D01*
X171275854Y-96414712D01*
X171275860Y-96414700D01*
X171341855Y-96255374D01*
X171375500Y-96086229D01*
X171375500Y-95913771D01*
X171341855Y-95744626D01*
X171275858Y-95585295D01*
X171275854Y-95585287D01*
X171220893Y-95503034D01*
X171180045Y-95441901D01*
X171058099Y-95319955D01*
X171017249Y-95292660D01*
X170914712Y-95224145D01*
X170914700Y-95224139D01*
X170755374Y-95158145D01*
X170586231Y-95124500D01*
X170586229Y-95124500D01*
X170413771Y-95124500D01*
X170413768Y-95124500D01*
X170244626Y-95158145D01*
X170244624Y-95158145D01*
X170085299Y-95224139D01*
X170085287Y-95224145D01*
X169941901Y-95319955D01*
X169941897Y-95319958D01*
X169819958Y-95441897D01*
X169819955Y-95441901D01*
X169724145Y-95585287D01*
X169724139Y-95585299D01*
X169658145Y-95744624D01*
X169658145Y-95744626D01*
X169624500Y-95913768D01*
X169375499Y-95913768D01*
X169341855Y-95744626D01*
X169275858Y-95585295D01*
X169275854Y-95585287D01*
X169220893Y-95503034D01*
X169180045Y-95441901D01*
X169058099Y-95319955D01*
X169017249Y-95292660D01*
X168914712Y-95224145D01*
X168914700Y-95224139D01*
X168755374Y-95158145D01*
X168586231Y-95124500D01*
X168586229Y-95124500D01*
X168413771Y-95124500D01*
X168413768Y-95124500D01*
X168244626Y-95158145D01*
X168244624Y-95158145D01*
X168085299Y-95224139D01*
X168085287Y-95224145D01*
X167941901Y-95319955D01*
X167941897Y-95319958D01*
X167819958Y-95441897D01*
X167819955Y-95441901D01*
X167724145Y-95585287D01*
X167724139Y-95585299D01*
X167658145Y-95744624D01*
X167658145Y-95744626D01*
X167624500Y-95913768D01*
X164050184Y-95913768D01*
X166803756Y-93160196D01*
X166858273Y-93132419D01*
X166873760Y-93131200D01*
X167898034Y-93131200D01*
X167956225Y-93150107D01*
X167992189Y-93199607D01*
X167992189Y-93260793D01*
X167956225Y-93310293D01*
X167953066Y-93312494D01*
X167941901Y-93319955D01*
X167941897Y-93319958D01*
X167819958Y-93441897D01*
X167819955Y-93441901D01*
X167724145Y-93585287D01*
X167724139Y-93585299D01*
X167658145Y-93744624D01*
X167658145Y-93744626D01*
X167624500Y-93913768D01*
X167624500Y-94086231D01*
X167658145Y-94255373D01*
X167658145Y-94255375D01*
X167724139Y-94414700D01*
X167724145Y-94414712D01*
X167792660Y-94517249D01*
X167819955Y-94558099D01*
X167941901Y-94680045D01*
X168003034Y-94720893D01*
X168085287Y-94775854D01*
X168085299Y-94775860D01*
X168144153Y-94800238D01*
X168244626Y-94841855D01*
X168413771Y-94875500D01*
X168413772Y-94875500D01*
X168586228Y-94875500D01*
X168586229Y-94875500D01*
X168755374Y-94841855D01*
X168914705Y-94775858D01*
X168914707Y-94775856D01*
X168914712Y-94775854D01*
X168956115Y-94748188D01*
X169058099Y-94680045D01*
X169180045Y-94558099D01*
X169248188Y-94456115D01*
X169275854Y-94414712D01*
X169275860Y-94414700D01*
X169341855Y-94255374D01*
X169375500Y-94086229D01*
X169375500Y-93913771D01*
X169375499Y-93913768D01*
X169624500Y-93913768D01*
X169624500Y-94086231D01*
X169658145Y-94255373D01*
X169658145Y-94255375D01*
X169724139Y-94414700D01*
X169724145Y-94414712D01*
X169792660Y-94517249D01*
X169819955Y-94558099D01*
X169941901Y-94680045D01*
X170003034Y-94720893D01*
X170085287Y-94775854D01*
X170085299Y-94775860D01*
X170144153Y-94800238D01*
X170244626Y-94841855D01*
X170413771Y-94875500D01*
X170413772Y-94875500D01*
X170586228Y-94875500D01*
X170586229Y-94875500D01*
X170755374Y-94841855D01*
X170914705Y-94775858D01*
X170914707Y-94775856D01*
X170914712Y-94775854D01*
X170956115Y-94748188D01*
X171058099Y-94680045D01*
X171180045Y-94558099D01*
X171248188Y-94456115D01*
X171275854Y-94414712D01*
X171275860Y-94414700D01*
X171341855Y-94255374D01*
X171375500Y-94086229D01*
X171375500Y-93913771D01*
X171341855Y-93744626D01*
X171275858Y-93585295D01*
X171275854Y-93585287D01*
X171220893Y-93503034D01*
X171180045Y-93441901D01*
X171058099Y-93319955D01*
X171017249Y-93292660D01*
X170914712Y-93224145D01*
X170914700Y-93224139D01*
X170755374Y-93158145D01*
X170586231Y-93124500D01*
X170586229Y-93124500D01*
X170413771Y-93124500D01*
X170413768Y-93124500D01*
X170244626Y-93158145D01*
X170244624Y-93158145D01*
X170085299Y-93224139D01*
X170085287Y-93224145D01*
X169941901Y-93319955D01*
X169941897Y-93319958D01*
X169819958Y-93441897D01*
X169819955Y-93441901D01*
X169724145Y-93585287D01*
X169724139Y-93585299D01*
X169658145Y-93744624D01*
X169658145Y-93744626D01*
X169624500Y-93913768D01*
X169375499Y-93913768D01*
X169341855Y-93744626D01*
X169275858Y-93585295D01*
X169275854Y-93585287D01*
X169220893Y-93503034D01*
X169180045Y-93441901D01*
X169058099Y-93319955D01*
X168987395Y-93272712D01*
X168949516Y-93224662D01*
X168947114Y-93163524D01*
X168981107Y-93112650D01*
X169004507Y-93098934D01*
X169023644Y-93091008D01*
X169459589Y-92655062D01*
X169514104Y-92627287D01*
X169574536Y-92636858D01*
X169617801Y-92680123D01*
X169626688Y-92705752D01*
X169635859Y-92751856D01*
X169636133Y-92753231D01*
X169680448Y-92819552D01*
X169746769Y-92863867D01*
X169791231Y-92872711D01*
X169805241Y-92875498D01*
X169805246Y-92875498D01*
X169805252Y-92875500D01*
X169805253Y-92875500D01*
X171194747Y-92875500D01*
X171194748Y-92875500D01*
X171253231Y-92863867D01*
X171319552Y-92819552D01*
X171363867Y-92753231D01*
X171375500Y-92694748D01*
X171375500Y-91305252D01*
X171363867Y-91246769D01*
X171319552Y-91180448D01*
X171319548Y-91180445D01*
X171253233Y-91136134D01*
X171253231Y-91136133D01*
X171253228Y-91136132D01*
X171253227Y-91136132D01*
X171194758Y-91124501D01*
X171194748Y-91124500D01*
X169805252Y-91124500D01*
X169805251Y-91124500D01*
X169805241Y-91124501D01*
X169746772Y-91136132D01*
X169746766Y-91136134D01*
X169680451Y-91180445D01*
X169680445Y-91180451D01*
X169636134Y-91246766D01*
X169636132Y-91246772D01*
X169624501Y-91305241D01*
X169624500Y-91305253D01*
X169624500Y-91651536D01*
X169605593Y-91709727D01*
X169563386Y-91743000D01*
X169483253Y-91776192D01*
X169483042Y-91776334D01*
X169482636Y-91776448D01*
X169474248Y-91779923D01*
X169473836Y-91778929D01*
X169424153Y-91792937D01*
X169366751Y-91771756D01*
X169336583Y-91731899D01*
X169325891Y-91706087D01*
X169291149Y-91622211D01*
X169275860Y-91585299D01*
X169275854Y-91585287D01*
X169220893Y-91503034D01*
X169180045Y-91441901D01*
X169058099Y-91319955D01*
X169017249Y-91292660D01*
X168914712Y-91224145D01*
X168914700Y-91224139D01*
X168755374Y-91158145D01*
X168586231Y-91124500D01*
X168586229Y-91124500D01*
X168413771Y-91124500D01*
X168413768Y-91124500D01*
X168244626Y-91158145D01*
X168244624Y-91158145D01*
X168085299Y-91224139D01*
X168085287Y-91224145D01*
X167941901Y-91319955D01*
X167941897Y-91319958D01*
X167819958Y-91441897D01*
X167819955Y-91441901D01*
X167724145Y-91585287D01*
X167724139Y-91585299D01*
X167658145Y-91744624D01*
X167658145Y-91744626D01*
X167624500Y-91913768D01*
X167624500Y-92086231D01*
X167658145Y-92255373D01*
X167658145Y-92255375D01*
X167724139Y-92414700D01*
X167724145Y-92414712D01*
X167747189Y-92449198D01*
X167763798Y-92508086D01*
X167742621Y-92565490D01*
X167691747Y-92599483D01*
X167664874Y-92603200D01*
X166670887Y-92603200D01*
X166645543Y-92613697D01*
X166573858Y-92643390D01*
X160251444Y-98965804D01*
X160196927Y-98993581D01*
X160181440Y-98994800D01*
X151485862Y-98994800D01*
X151427671Y-98975893D01*
X151391707Y-98926393D01*
X151390577Y-98882699D01*
X151387853Y-98882341D01*
X151388700Y-98875908D01*
X151388700Y-98757292D01*
X151380780Y-98727735D01*
X151357999Y-98642714D01*
X151357997Y-98642711D01*
X151357997Y-98642709D01*
X151298692Y-98539991D01*
X151298690Y-98539989D01*
X151298689Y-98539987D01*
X151214813Y-98456111D01*
X151214810Y-98456109D01*
X151214808Y-98456107D01*
X151112089Y-98396802D01*
X151112090Y-98396802D01*
X151098551Y-98393174D01*
X150997509Y-98366100D01*
X150878891Y-98366100D01*
X150808767Y-98384889D01*
X150764309Y-98396802D01*
X150661591Y-98456107D01*
X150661590Y-98456108D01*
X150661587Y-98456110D01*
X150661587Y-98456111D01*
X150594092Y-98523605D01*
X150539578Y-98551381D01*
X150524091Y-98552600D01*
X129630887Y-98552600D01*
X129602467Y-98564371D01*
X129533856Y-98592791D01*
X128952852Y-99173793D01*
X128898336Y-99201570D01*
X128844965Y-99195254D01*
X128755372Y-99158144D01*
X128586231Y-99124500D01*
X128586229Y-99124500D01*
X128413771Y-99124500D01*
X128413768Y-99124500D01*
X128244626Y-99158145D01*
X128244624Y-99158145D01*
X128085299Y-99224139D01*
X128085287Y-99224145D01*
X127941901Y-99319955D01*
X127941897Y-99319958D01*
X127819958Y-99441897D01*
X127819955Y-99441901D01*
X127724145Y-99585287D01*
X127724139Y-99585299D01*
X127658145Y-99744624D01*
X127658145Y-99744626D01*
X127624500Y-99913768D01*
X127624500Y-100086231D01*
X127658145Y-100255373D01*
X127658145Y-100255375D01*
X127724139Y-100414700D01*
X127724145Y-100414712D01*
X127771141Y-100485044D01*
X127819955Y-100558099D01*
X127941901Y-100680045D01*
X128003034Y-100720893D01*
X128085287Y-100775854D01*
X128085299Y-100775860D01*
X128120166Y-100790302D01*
X128244626Y-100841855D01*
X128413771Y-100875500D01*
X128413772Y-100875500D01*
X128586228Y-100875500D01*
X128586229Y-100875500D01*
X128755374Y-100841855D01*
X128914705Y-100775858D01*
X128914707Y-100775856D01*
X128914712Y-100775854D01*
X128956115Y-100748188D01*
X129058099Y-100680045D01*
X129180045Y-100558099D01*
X129258717Y-100440359D01*
X129275854Y-100414712D01*
X129275860Y-100414700D01*
X129294228Y-100370355D01*
X129341855Y-100255374D01*
X129375500Y-100086229D01*
X129375500Y-99955091D01*
X131008400Y-99955091D01*
X131008400Y-100073709D01*
X131035474Y-100174751D01*
X131039102Y-100188290D01*
X131098407Y-100291008D01*
X131098409Y-100291010D01*
X131098411Y-100291013D01*
X131182287Y-100374889D01*
X131182289Y-100374890D01*
X131182291Y-100374892D01*
X131285010Y-100434197D01*
X131285011Y-100434197D01*
X131285014Y-100434199D01*
X131399591Y-100464900D01*
X131399593Y-100464900D01*
X131518207Y-100464900D01*
X131518209Y-100464900D01*
X131632786Y-100434199D01*
X131632788Y-100434197D01*
X131632790Y-100434197D01*
X131735508Y-100374892D01*
X131735508Y-100374891D01*
X131735513Y-100374889D01*
X131819389Y-100291013D01*
X131839965Y-100255375D01*
X131878697Y-100188290D01*
X131878697Y-100188288D01*
X131878699Y-100188286D01*
X131909400Y-100073709D01*
X131909400Y-99955091D01*
X131878699Y-99840514D01*
X131878697Y-99840511D01*
X131878697Y-99840509D01*
X131819392Y-99737791D01*
X131819390Y-99737789D01*
X131819389Y-99737787D01*
X131735513Y-99653911D01*
X131735510Y-99653909D01*
X131735508Y-99653907D01*
X131632789Y-99594602D01*
X131632790Y-99594602D01*
X131619251Y-99590974D01*
X131518209Y-99563900D01*
X131399591Y-99563900D01*
X131329467Y-99582689D01*
X131285009Y-99594602D01*
X131182291Y-99653907D01*
X131098407Y-99737791D01*
X131039102Y-99840509D01*
X131039101Y-99840514D01*
X131008400Y-99955091D01*
X129375500Y-99955091D01*
X129375500Y-99913771D01*
X129341855Y-99744626D01*
X129304744Y-99655033D01*
X129299944Y-99594038D01*
X129326206Y-99547145D01*
X129763757Y-99109596D01*
X129818273Y-99081819D01*
X129833760Y-99080600D01*
X145907040Y-99080600D01*
X145965231Y-99099507D01*
X146001195Y-99149007D01*
X146001195Y-99210193D01*
X145977044Y-99249604D01*
X144760456Y-100466192D01*
X144760455Y-100466191D01*
X144686191Y-100540456D01*
X144646000Y-100637487D01*
X144646000Y-101107442D01*
X144627093Y-101165633D01*
X144607271Y-101185981D01*
X144602692Y-101189494D01*
X144509496Y-101282690D01*
X144443609Y-101396809D01*
X144443608Y-101396814D01*
X144409500Y-101524108D01*
X144409500Y-101655892D01*
X144421688Y-101701377D01*
X144418485Y-101762479D01*
X144379980Y-101810029D01*
X144326061Y-101826000D01*
X141422212Y-101826000D01*
X141317187Y-101826000D01*
X141301413Y-101832534D01*
X141220158Y-101866190D01*
X140289444Y-102796904D01*
X140234927Y-102824681D01*
X140219440Y-102825900D01*
X129151252Y-102825900D01*
X129093061Y-102806993D01*
X129057097Y-102757493D01*
X129057097Y-102696307D01*
X129081248Y-102656896D01*
X129113334Y-102624810D01*
X129180045Y-102558099D01*
X129270712Y-102422407D01*
X129275854Y-102414712D01*
X129275860Y-102414700D01*
X129295739Y-102366708D01*
X129341855Y-102255374D01*
X129375500Y-102086229D01*
X129375500Y-102030791D01*
X131886900Y-102030791D01*
X131886900Y-102149409D01*
X131908765Y-102231011D01*
X131917602Y-102263990D01*
X131976907Y-102366708D01*
X131976909Y-102366710D01*
X131976911Y-102366713D01*
X132060787Y-102450589D01*
X132060789Y-102450590D01*
X132060791Y-102450592D01*
X132163510Y-102509897D01*
X132163511Y-102509897D01*
X132163514Y-102509899D01*
X132278091Y-102540600D01*
X132278093Y-102540600D01*
X132396707Y-102540600D01*
X132396709Y-102540600D01*
X132511286Y-102509899D01*
X132511288Y-102509897D01*
X132511290Y-102509897D01*
X132614008Y-102450592D01*
X132614008Y-102450591D01*
X132614013Y-102450589D01*
X132697889Y-102366713D01*
X132746401Y-102282689D01*
X132757197Y-102263990D01*
X132757197Y-102263988D01*
X132757199Y-102263986D01*
X132787900Y-102149409D01*
X132787900Y-102030791D01*
X132757199Y-101916214D01*
X132757197Y-101916211D01*
X132757197Y-101916209D01*
X132697892Y-101813491D01*
X132697890Y-101813489D01*
X132697889Y-101813487D01*
X132614013Y-101729611D01*
X132614010Y-101729609D01*
X132614008Y-101729607D01*
X132511289Y-101670302D01*
X132511290Y-101670302D01*
X132497751Y-101666674D01*
X132396709Y-101639600D01*
X132278091Y-101639600D01*
X132217289Y-101655892D01*
X132163509Y-101670302D01*
X132060791Y-101729607D01*
X131976907Y-101813491D01*
X131917602Y-101916209D01*
X131917601Y-101916214D01*
X131886900Y-102030791D01*
X129375500Y-102030791D01*
X129375500Y-101913771D01*
X129341855Y-101744626D01*
X129305099Y-101655890D01*
X129275860Y-101585299D01*
X129275854Y-101585287D01*
X129209984Y-101486708D01*
X129180045Y-101441901D01*
X129058099Y-101319955D01*
X128982449Y-101269407D01*
X128918410Y-101226617D01*
X128918409Y-101226616D01*
X128918408Y-101226616D01*
X128914708Y-101224144D01*
X128914700Y-101224139D01*
X128755374Y-101158145D01*
X128718403Y-101150791D01*
X131065500Y-101150791D01*
X131065500Y-101269409D01*
X131086415Y-101347465D01*
X131096202Y-101383990D01*
X131155507Y-101486708D01*
X131155509Y-101486710D01*
X131155511Y-101486713D01*
X131239387Y-101570589D01*
X131239389Y-101570590D01*
X131239391Y-101570592D01*
X131342110Y-101629897D01*
X131342111Y-101629897D01*
X131342114Y-101629899D01*
X131456691Y-101660600D01*
X131456693Y-101660600D01*
X131575307Y-101660600D01*
X131575309Y-101660600D01*
X131689886Y-101629899D01*
X131689888Y-101629897D01*
X131689890Y-101629897D01*
X131792608Y-101570592D01*
X131792608Y-101570591D01*
X131792613Y-101570589D01*
X131876489Y-101486713D01*
X131876492Y-101486708D01*
X131935797Y-101383990D01*
X131935797Y-101383988D01*
X131935799Y-101383986D01*
X131966500Y-101269409D01*
X131966500Y-101150791D01*
X131935799Y-101036214D01*
X131935797Y-101036211D01*
X131935797Y-101036209D01*
X131876492Y-100933491D01*
X131876490Y-100933489D01*
X131876489Y-100933487D01*
X131792613Y-100849611D01*
X131792610Y-100849609D01*
X131792608Y-100849607D01*
X131689889Y-100790302D01*
X131689890Y-100790302D01*
X131659537Y-100782169D01*
X131575309Y-100759600D01*
X131456691Y-100759600D01*
X131416546Y-100770357D01*
X131342109Y-100790302D01*
X131239391Y-100849607D01*
X131155507Y-100933491D01*
X131096202Y-101036209D01*
X131096201Y-101036214D01*
X131065500Y-101150791D01*
X128718403Y-101150791D01*
X128586231Y-101124500D01*
X128586229Y-101124500D01*
X128413771Y-101124500D01*
X128413768Y-101124500D01*
X128244626Y-101158145D01*
X128244624Y-101158145D01*
X128085299Y-101224139D01*
X128085287Y-101224145D01*
X127941901Y-101319955D01*
X127941897Y-101319958D01*
X127819958Y-101441897D01*
X127819955Y-101441901D01*
X127724145Y-101585287D01*
X127724139Y-101585299D01*
X127658145Y-101744624D01*
X127658145Y-101744626D01*
X127624500Y-101913768D01*
X127624500Y-102086231D01*
X127658145Y-102255373D01*
X127658145Y-102255375D01*
X127724139Y-102414700D01*
X127724145Y-102414712D01*
X127787747Y-102509897D01*
X127819955Y-102558099D01*
X127819958Y-102558102D01*
X127918752Y-102656896D01*
X127946529Y-102711413D01*
X127936958Y-102771845D01*
X127893693Y-102815110D01*
X127848748Y-102825900D01*
X127357587Y-102825900D01*
X127338998Y-102833600D01*
X127338997Y-102833600D01*
X127260558Y-102866089D01*
X127260552Y-102866093D01*
X126952851Y-103173794D01*
X126898335Y-103201571D01*
X126844964Y-103195254D01*
X126755374Y-103158145D01*
X126755372Y-103158144D01*
X126586231Y-103124500D01*
X126586229Y-103124500D01*
X126413771Y-103124500D01*
X126413768Y-103124500D01*
X126244626Y-103158145D01*
X126244624Y-103158145D01*
X126085299Y-103224139D01*
X126085287Y-103224145D01*
X125941901Y-103319955D01*
X125941897Y-103319958D01*
X125819958Y-103441897D01*
X125819955Y-103441901D01*
X125724145Y-103585287D01*
X125724139Y-103585299D01*
X125658145Y-103744624D01*
X125658145Y-103744626D01*
X125624500Y-103913768D01*
X123300500Y-103913768D01*
X123300500Y-101913768D01*
X125624500Y-101913768D01*
X125624500Y-102086231D01*
X125658145Y-102255373D01*
X125658145Y-102255375D01*
X125724139Y-102414700D01*
X125724145Y-102414712D01*
X125787747Y-102509897D01*
X125819955Y-102558099D01*
X125941901Y-102680045D01*
X126003034Y-102720893D01*
X126085287Y-102775854D01*
X126085299Y-102775860D01*
X126144153Y-102800238D01*
X126244626Y-102841855D01*
X126413771Y-102875500D01*
X126413772Y-102875500D01*
X126586228Y-102875500D01*
X126586229Y-102875500D01*
X126755374Y-102841855D01*
X126914705Y-102775858D01*
X126914707Y-102775856D01*
X126914712Y-102775854D01*
X126971061Y-102738202D01*
X127058099Y-102680045D01*
X127180045Y-102558099D01*
X127270712Y-102422407D01*
X127275854Y-102414712D01*
X127275860Y-102414700D01*
X127295739Y-102366708D01*
X127341855Y-102255374D01*
X127375500Y-102086229D01*
X127375500Y-101913771D01*
X127341855Y-101744626D01*
X127305099Y-101655890D01*
X127275860Y-101585299D01*
X127275854Y-101585287D01*
X127209984Y-101486708D01*
X127180045Y-101441901D01*
X127058099Y-101319955D01*
X127002322Y-101282686D01*
X126914712Y-101224145D01*
X126914700Y-101224139D01*
X126755374Y-101158145D01*
X126586231Y-101124500D01*
X126586229Y-101124500D01*
X126413771Y-101124500D01*
X126413768Y-101124500D01*
X126244626Y-101158145D01*
X126244624Y-101158145D01*
X126085299Y-101224139D01*
X126085287Y-101224145D01*
X125941901Y-101319955D01*
X125941897Y-101319958D01*
X125819958Y-101441897D01*
X125819955Y-101441901D01*
X125724145Y-101585287D01*
X125724139Y-101585299D01*
X125658145Y-101744624D01*
X125658145Y-101744626D01*
X125624500Y-101913768D01*
X123300500Y-101913768D01*
X123300500Y-99913768D01*
X125624500Y-99913768D01*
X125624500Y-100086231D01*
X125658145Y-100255373D01*
X125658145Y-100255375D01*
X125724139Y-100414700D01*
X125724145Y-100414712D01*
X125771141Y-100485044D01*
X125819955Y-100558099D01*
X125941901Y-100680045D01*
X126003034Y-100720893D01*
X126085287Y-100775854D01*
X126085299Y-100775860D01*
X126120166Y-100790302D01*
X126244626Y-100841855D01*
X126413771Y-100875500D01*
X126413772Y-100875500D01*
X126586228Y-100875500D01*
X126586229Y-100875500D01*
X126755374Y-100841855D01*
X126914705Y-100775858D01*
X126914707Y-100775856D01*
X126914712Y-100775854D01*
X126956115Y-100748188D01*
X127058099Y-100680045D01*
X127180045Y-100558099D01*
X127258717Y-100440359D01*
X127275854Y-100414712D01*
X127275860Y-100414700D01*
X127294228Y-100370355D01*
X127341855Y-100255374D01*
X127375500Y-100086229D01*
X127375500Y-99913771D01*
X127341855Y-99744626D01*
X127304278Y-99653907D01*
X127275860Y-99585299D01*
X127275854Y-99585287D01*
X127208251Y-99484114D01*
X127180045Y-99441901D01*
X127058099Y-99319955D01*
X127017249Y-99292660D01*
X126914712Y-99224145D01*
X126914700Y-99224139D01*
X126755374Y-99158145D01*
X126586231Y-99124500D01*
X126586229Y-99124500D01*
X126413771Y-99124500D01*
X126413768Y-99124500D01*
X126244626Y-99158145D01*
X126244624Y-99158145D01*
X126085299Y-99224139D01*
X126085287Y-99224145D01*
X125941901Y-99319955D01*
X125941897Y-99319958D01*
X125819958Y-99441897D01*
X125819955Y-99441901D01*
X125724145Y-99585287D01*
X125724139Y-99585299D01*
X125658145Y-99744624D01*
X125658145Y-99744626D01*
X125624500Y-99913768D01*
X123300500Y-99913768D01*
X123300500Y-97913768D01*
X125624500Y-97913768D01*
X125624500Y-98086231D01*
X125658145Y-98255373D01*
X125658145Y-98255375D01*
X125724139Y-98414700D01*
X125724145Y-98414712D01*
X125792660Y-98517249D01*
X125819955Y-98558099D01*
X125941901Y-98680045D01*
X126003034Y-98720893D01*
X126085287Y-98775854D01*
X126085299Y-98775860D01*
X126116716Y-98788873D01*
X126244626Y-98841855D01*
X126413771Y-98875500D01*
X126413772Y-98875500D01*
X126586228Y-98875500D01*
X126586229Y-98875500D01*
X126755374Y-98841855D01*
X126914705Y-98775858D01*
X126914707Y-98775856D01*
X126914712Y-98775854D01*
X126981230Y-98731407D01*
X127058099Y-98680045D01*
X127180045Y-98558099D01*
X127248194Y-98456107D01*
X127275854Y-98414712D01*
X127275860Y-98414700D01*
X127295991Y-98366100D01*
X127341855Y-98255374D01*
X127375500Y-98086229D01*
X127375500Y-97913771D01*
X127375499Y-97913768D01*
X127624500Y-97913768D01*
X127624500Y-98086231D01*
X127658145Y-98255373D01*
X127658145Y-98255375D01*
X127724139Y-98414700D01*
X127724145Y-98414712D01*
X127792660Y-98517249D01*
X127819955Y-98558099D01*
X127941901Y-98680045D01*
X128003034Y-98720893D01*
X128085287Y-98775854D01*
X128085299Y-98775860D01*
X128116716Y-98788873D01*
X128244626Y-98841855D01*
X128413771Y-98875500D01*
X128413772Y-98875500D01*
X128586228Y-98875500D01*
X128586229Y-98875500D01*
X128755374Y-98841855D01*
X128914705Y-98775858D01*
X128914707Y-98775856D01*
X128914712Y-98775854D01*
X128981230Y-98731407D01*
X129058099Y-98680045D01*
X129180045Y-98558099D01*
X129248194Y-98456107D01*
X129275854Y-98414712D01*
X129275860Y-98414700D01*
X129295991Y-98366100D01*
X129341855Y-98255374D01*
X129375500Y-98086229D01*
X129375500Y-97913771D01*
X129341855Y-97744626D01*
X129319856Y-97691515D01*
X129275860Y-97585299D01*
X129275854Y-97585287D01*
X129220893Y-97503034D01*
X129180045Y-97441901D01*
X129058099Y-97319955D01*
X129017249Y-97292660D01*
X128914712Y-97224145D01*
X128914700Y-97224139D01*
X128755374Y-97158145D01*
X128586231Y-97124500D01*
X128586229Y-97124500D01*
X128413771Y-97124500D01*
X128413768Y-97124500D01*
X128244626Y-97158145D01*
X128244624Y-97158145D01*
X128085299Y-97224139D01*
X128085287Y-97224145D01*
X127941901Y-97319955D01*
X127941897Y-97319958D01*
X127819958Y-97441897D01*
X127819955Y-97441901D01*
X127724145Y-97585287D01*
X127724139Y-97585299D01*
X127658145Y-97744624D01*
X127658145Y-97744626D01*
X127624500Y-97913768D01*
X127375499Y-97913768D01*
X127341855Y-97744626D01*
X127319856Y-97691515D01*
X127275860Y-97585299D01*
X127275854Y-97585287D01*
X127220893Y-97503034D01*
X127180045Y-97441901D01*
X127058099Y-97319955D01*
X127017249Y-97292660D01*
X126914712Y-97224145D01*
X126914700Y-97224139D01*
X126755374Y-97158145D01*
X126586231Y-97124500D01*
X126586229Y-97124500D01*
X126413771Y-97124500D01*
X126413768Y-97124500D01*
X126244626Y-97158145D01*
X126244624Y-97158145D01*
X126085299Y-97224139D01*
X126085287Y-97224145D01*
X125941901Y-97319955D01*
X125941897Y-97319958D01*
X125819958Y-97441897D01*
X125819955Y-97441901D01*
X125724145Y-97585287D01*
X125724139Y-97585299D01*
X125658145Y-97744624D01*
X125658145Y-97744626D01*
X125624500Y-97913768D01*
X123300500Y-97913768D01*
X123300500Y-96901579D01*
X139249500Y-96901579D01*
X139249500Y-97098420D01*
X139280289Y-97292821D01*
X139328727Y-97441897D01*
X139341116Y-97480025D01*
X139430476Y-97655405D01*
X139546172Y-97814646D01*
X139685354Y-97953828D01*
X139844595Y-98069524D01*
X140019975Y-98158884D01*
X140207174Y-98219709D01*
X140207175Y-98219709D01*
X140207178Y-98219710D01*
X140401580Y-98250500D01*
X140401583Y-98250500D01*
X140598420Y-98250500D01*
X140792821Y-98219710D01*
X140792822Y-98219709D01*
X140792826Y-98219709D01*
X140980025Y-98158884D01*
X141155405Y-98069524D01*
X141314646Y-97953828D01*
X141453828Y-97814646D01*
X141569524Y-97655405D01*
X141658884Y-97480025D01*
X141719709Y-97292826D01*
X141730587Y-97224145D01*
X141750500Y-97098420D01*
X141750500Y-96901579D01*
X154249500Y-96901579D01*
X154249500Y-97098420D01*
X154280289Y-97292821D01*
X154328727Y-97441897D01*
X154341116Y-97480025D01*
X154430476Y-97655405D01*
X154546172Y-97814646D01*
X154685354Y-97953828D01*
X154844595Y-98069524D01*
X155019975Y-98158884D01*
X155207174Y-98219709D01*
X155207175Y-98219709D01*
X155207178Y-98219710D01*
X155401580Y-98250500D01*
X155401583Y-98250500D01*
X155598420Y-98250500D01*
X155792821Y-98219710D01*
X155792822Y-98219709D01*
X155792826Y-98219709D01*
X155980025Y-98158884D01*
X156155405Y-98069524D01*
X156314646Y-97953828D01*
X156453828Y-97814646D01*
X156569524Y-97655405D01*
X156658884Y-97480025D01*
X156719709Y-97292826D01*
X156730587Y-97224145D01*
X156750500Y-97098420D01*
X156750500Y-96901579D01*
X156719710Y-96707178D01*
X156671271Y-96558099D01*
X156658884Y-96519975D01*
X156569524Y-96344595D01*
X156453828Y-96185354D01*
X156314646Y-96046172D01*
X156155405Y-95930476D01*
X156155404Y-95930475D01*
X156155402Y-95930474D01*
X155980025Y-95841116D01*
X155792821Y-95780289D01*
X155598420Y-95749500D01*
X155598417Y-95749500D01*
X155401583Y-95749500D01*
X155401580Y-95749500D01*
X155207178Y-95780289D01*
X155019974Y-95841116D01*
X154844597Y-95930474D01*
X154685355Y-96046171D01*
X154546171Y-96185355D01*
X154430474Y-96344597D01*
X154341116Y-96519974D01*
X154280289Y-96707178D01*
X154249500Y-96901579D01*
X141750500Y-96901579D01*
X141719710Y-96707178D01*
X141671271Y-96558099D01*
X141658884Y-96519975D01*
X141569524Y-96344595D01*
X141453828Y-96185354D01*
X141314646Y-96046172D01*
X141155405Y-95930476D01*
X141155404Y-95930475D01*
X141155402Y-95930474D01*
X140980025Y-95841116D01*
X140792821Y-95780289D01*
X140598420Y-95749500D01*
X140598417Y-95749500D01*
X140401583Y-95749500D01*
X140401580Y-95749500D01*
X140207178Y-95780289D01*
X140019974Y-95841116D01*
X139844597Y-95930474D01*
X139685355Y-96046171D01*
X139546171Y-96185355D01*
X139430474Y-96344597D01*
X139341116Y-96519974D01*
X139280289Y-96707178D01*
X139249500Y-96901579D01*
X123300500Y-96901579D01*
X123300500Y-95913768D01*
X125624500Y-95913768D01*
X125624500Y-96086231D01*
X125658145Y-96255373D01*
X125658145Y-96255375D01*
X125724139Y-96414700D01*
X125724145Y-96414712D01*
X125792660Y-96517249D01*
X125819955Y-96558099D01*
X125941901Y-96680045D01*
X126003034Y-96720893D01*
X126085287Y-96775854D01*
X126085299Y-96775860D01*
X126144153Y-96800238D01*
X126244626Y-96841855D01*
X126413771Y-96875500D01*
X126413772Y-96875500D01*
X126586228Y-96875500D01*
X126586229Y-96875500D01*
X126755374Y-96841855D01*
X126914705Y-96775858D01*
X126914707Y-96775856D01*
X126914712Y-96775854D01*
X126956115Y-96748188D01*
X127058099Y-96680045D01*
X127180045Y-96558099D01*
X127248188Y-96456115D01*
X127275854Y-96414712D01*
X127275860Y-96414700D01*
X127341855Y-96255374D01*
X127375500Y-96086229D01*
X127375500Y-95913771D01*
X127375499Y-95913768D01*
X127624500Y-95913768D01*
X127624500Y-96086231D01*
X127658145Y-96255373D01*
X127658145Y-96255375D01*
X127724139Y-96414700D01*
X127724145Y-96414712D01*
X127792660Y-96517249D01*
X127819955Y-96558099D01*
X127941901Y-96680045D01*
X128003034Y-96720893D01*
X128085287Y-96775854D01*
X128085299Y-96775860D01*
X128144153Y-96800238D01*
X128244626Y-96841855D01*
X128413771Y-96875500D01*
X128413772Y-96875500D01*
X128586228Y-96875500D01*
X128586229Y-96875500D01*
X128755374Y-96841855D01*
X128914705Y-96775858D01*
X128914707Y-96775856D01*
X128914712Y-96775854D01*
X128956115Y-96748188D01*
X129058099Y-96680045D01*
X129180045Y-96558099D01*
X129248188Y-96456115D01*
X129275854Y-96414712D01*
X129275860Y-96414700D01*
X129341855Y-96255374D01*
X129375500Y-96086229D01*
X129375500Y-95913771D01*
X129341855Y-95744626D01*
X129275858Y-95585295D01*
X129275854Y-95585287D01*
X129220893Y-95503034D01*
X129180045Y-95441901D01*
X129058099Y-95319955D01*
X129017249Y-95292660D01*
X128914712Y-95224145D01*
X128914700Y-95224139D01*
X128755374Y-95158145D01*
X128586231Y-95124500D01*
X128586229Y-95124500D01*
X128413771Y-95124500D01*
X128413768Y-95124500D01*
X128244626Y-95158145D01*
X128244624Y-95158145D01*
X128085299Y-95224139D01*
X128085287Y-95224145D01*
X127941901Y-95319955D01*
X127941897Y-95319958D01*
X127819958Y-95441897D01*
X127819955Y-95441901D01*
X127724145Y-95585287D01*
X127724139Y-95585299D01*
X127658145Y-95744624D01*
X127658145Y-95744626D01*
X127624500Y-95913768D01*
X127375499Y-95913768D01*
X127341855Y-95744626D01*
X127275858Y-95585295D01*
X127275854Y-95585287D01*
X127220893Y-95503034D01*
X127180045Y-95441901D01*
X127058099Y-95319955D01*
X127017249Y-95292660D01*
X126914712Y-95224145D01*
X126914700Y-95224139D01*
X126755374Y-95158145D01*
X126586231Y-95124500D01*
X126586229Y-95124500D01*
X126413771Y-95124500D01*
X126413768Y-95124500D01*
X126244626Y-95158145D01*
X126244624Y-95158145D01*
X126085299Y-95224139D01*
X126085287Y-95224145D01*
X125941901Y-95319955D01*
X125941897Y-95319958D01*
X125819958Y-95441897D01*
X125819955Y-95441901D01*
X125724145Y-95585287D01*
X125724139Y-95585299D01*
X125658145Y-95744624D01*
X125658145Y-95744626D01*
X125624500Y-95913768D01*
X123300500Y-95913768D01*
X123300500Y-93913768D01*
X125624500Y-93913768D01*
X125624500Y-94086231D01*
X125658145Y-94255373D01*
X125658145Y-94255375D01*
X125724139Y-94414700D01*
X125724145Y-94414712D01*
X125792660Y-94517249D01*
X125819955Y-94558099D01*
X125941901Y-94680045D01*
X126003034Y-94720893D01*
X126085287Y-94775854D01*
X126085299Y-94775860D01*
X126144153Y-94800238D01*
X126244626Y-94841855D01*
X126413771Y-94875500D01*
X126413772Y-94875500D01*
X126586228Y-94875500D01*
X126586229Y-94875500D01*
X126755374Y-94841855D01*
X126914705Y-94775858D01*
X126914707Y-94775856D01*
X126914712Y-94775854D01*
X126956115Y-94748188D01*
X127058099Y-94680045D01*
X127180045Y-94558099D01*
X127248188Y-94456115D01*
X127275854Y-94414712D01*
X127275860Y-94414700D01*
X127341855Y-94255374D01*
X127375500Y-94086229D01*
X127375500Y-93913771D01*
X127375499Y-93913768D01*
X127624500Y-93913768D01*
X127624500Y-94086231D01*
X127658145Y-94255373D01*
X127658145Y-94255375D01*
X127724139Y-94414700D01*
X127724145Y-94414712D01*
X127792660Y-94517249D01*
X127819955Y-94558099D01*
X127941901Y-94680045D01*
X128003034Y-94720893D01*
X128085287Y-94775854D01*
X128085299Y-94775860D01*
X128144153Y-94800238D01*
X128244626Y-94841855D01*
X128413771Y-94875500D01*
X128413772Y-94875500D01*
X128586228Y-94875500D01*
X128586229Y-94875500D01*
X128755374Y-94841855D01*
X128914705Y-94775858D01*
X128914707Y-94775856D01*
X128914712Y-94775854D01*
X128956115Y-94748188D01*
X129058099Y-94680045D01*
X129180045Y-94558099D01*
X129248188Y-94456115D01*
X129275854Y-94414712D01*
X129275860Y-94414700D01*
X129341855Y-94255374D01*
X129375500Y-94086229D01*
X129375500Y-93913771D01*
X129341855Y-93744626D01*
X129275858Y-93585295D01*
X129275854Y-93585287D01*
X129220893Y-93503034D01*
X129180045Y-93441901D01*
X129058099Y-93319955D01*
X129017249Y-93292660D01*
X128914712Y-93224145D01*
X128914700Y-93224139D01*
X128755374Y-93158145D01*
X128586231Y-93124500D01*
X128586229Y-93124500D01*
X128413771Y-93124500D01*
X128413768Y-93124500D01*
X128244626Y-93158145D01*
X128244624Y-93158145D01*
X128085299Y-93224139D01*
X128085287Y-93224145D01*
X127941901Y-93319955D01*
X127941897Y-93319958D01*
X127819958Y-93441897D01*
X127819955Y-93441901D01*
X127724145Y-93585287D01*
X127724139Y-93585299D01*
X127658145Y-93744624D01*
X127658145Y-93744626D01*
X127624500Y-93913768D01*
X127375499Y-93913768D01*
X127341855Y-93744626D01*
X127275858Y-93585295D01*
X127275854Y-93585287D01*
X127220893Y-93503034D01*
X127180045Y-93441901D01*
X127058099Y-93319955D01*
X127017249Y-93292660D01*
X126914712Y-93224145D01*
X126914700Y-93224139D01*
X126755374Y-93158145D01*
X126586231Y-93124500D01*
X126586229Y-93124500D01*
X126413771Y-93124500D01*
X126413768Y-93124500D01*
X126244626Y-93158145D01*
X126244624Y-93158145D01*
X126085299Y-93224139D01*
X126085287Y-93224145D01*
X125941901Y-93319955D01*
X125941897Y-93319958D01*
X125819958Y-93441897D01*
X125819955Y-93441901D01*
X125724145Y-93585287D01*
X125724139Y-93585299D01*
X125658145Y-93744624D01*
X125658145Y-93744626D01*
X125624500Y-93913768D01*
X123300500Y-93913768D01*
X123300500Y-91908892D01*
X125575000Y-91908892D01*
X125575000Y-92091107D01*
X125610547Y-92269812D01*
X125610547Y-92269814D01*
X125680273Y-92438149D01*
X125748142Y-92539723D01*
X126129532Y-92158332D01*
X126179920Y-92245606D01*
X126254394Y-92320080D01*
X126341665Y-92370465D01*
X125960275Y-92751856D01*
X126061840Y-92819721D01*
X126061852Y-92819727D01*
X126230186Y-92889452D01*
X126408892Y-92924999D01*
X126408896Y-92925000D01*
X126591104Y-92925000D01*
X126591107Y-92924999D01*
X126769812Y-92889452D01*
X126769814Y-92889452D01*
X126938149Y-92819726D01*
X127039723Y-92751856D01*
X126658333Y-92370466D01*
X126745606Y-92320080D01*
X126820080Y-92245606D01*
X126870466Y-92158333D01*
X127251856Y-92539723D01*
X127319726Y-92438149D01*
X127389452Y-92269814D01*
X127389452Y-92269812D01*
X127424999Y-92091107D01*
X127425000Y-92091103D01*
X127425000Y-91908896D01*
X127424999Y-91908892D01*
X127389452Y-91730187D01*
X127389452Y-91730185D01*
X127319727Y-91561852D01*
X127319721Y-91561840D01*
X127251856Y-91460275D01*
X126870465Y-91841665D01*
X126820080Y-91754394D01*
X126745606Y-91679920D01*
X126658332Y-91629532D01*
X126982612Y-91305253D01*
X127624500Y-91305253D01*
X127624500Y-92694746D01*
X127624501Y-92694758D01*
X127635859Y-92751856D01*
X127636133Y-92753231D01*
X127680448Y-92819552D01*
X127746769Y-92863867D01*
X127791231Y-92872711D01*
X127805241Y-92875498D01*
X127805246Y-92875498D01*
X127805252Y-92875500D01*
X127805253Y-92875500D01*
X129194747Y-92875500D01*
X129194748Y-92875500D01*
X129253231Y-92863867D01*
X129319552Y-92819552D01*
X129363867Y-92753231D01*
X129375500Y-92694748D01*
X129375500Y-91923391D01*
X142359500Y-91923391D01*
X142359500Y-92042009D01*
X142372655Y-92091103D01*
X142390202Y-92156590D01*
X142449507Y-92259308D01*
X142449509Y-92259310D01*
X142449511Y-92259313D01*
X142533387Y-92343189D01*
X142533389Y-92343190D01*
X142533391Y-92343192D01*
X142636110Y-92402497D01*
X142636111Y-92402497D01*
X142636114Y-92402499D01*
X142750691Y-92433200D01*
X142750693Y-92433200D01*
X142869307Y-92433200D01*
X142869309Y-92433200D01*
X142983886Y-92402499D01*
X142983888Y-92402497D01*
X142983890Y-92402497D01*
X143086608Y-92343192D01*
X143086608Y-92343191D01*
X143086613Y-92343189D01*
X143170489Y-92259313D01*
X143229799Y-92156586D01*
X143260500Y-92042009D01*
X143260500Y-91923391D01*
X143229799Y-91808814D01*
X143229797Y-91808811D01*
X143229797Y-91808809D01*
X143170492Y-91706091D01*
X143170490Y-91706089D01*
X143170489Y-91706087D01*
X143086613Y-91622211D01*
X143086610Y-91622209D01*
X143086608Y-91622207D01*
X142983889Y-91562902D01*
X142983890Y-91562902D01*
X142970351Y-91559274D01*
X142869309Y-91532200D01*
X142750691Y-91532200D01*
X142680567Y-91550989D01*
X142636109Y-91562902D01*
X142533391Y-91622207D01*
X142449507Y-91706091D01*
X142390202Y-91808809D01*
X142379043Y-91850456D01*
X142359500Y-91923391D01*
X129375500Y-91923391D01*
X129375500Y-91305252D01*
X129363867Y-91246769D01*
X129319552Y-91180448D01*
X129319548Y-91180445D01*
X129253233Y-91136134D01*
X129253231Y-91136133D01*
X129253228Y-91136132D01*
X129253227Y-91136132D01*
X129194758Y-91124501D01*
X129194748Y-91124500D01*
X127805252Y-91124500D01*
X127805251Y-91124500D01*
X127805241Y-91124501D01*
X127746772Y-91136132D01*
X127746766Y-91136134D01*
X127680451Y-91180445D01*
X127680445Y-91180451D01*
X127636134Y-91246766D01*
X127636132Y-91246772D01*
X127624501Y-91305241D01*
X127624500Y-91305253D01*
X126982612Y-91305253D01*
X127039723Y-91248142D01*
X126938149Y-91180273D01*
X126769813Y-91110547D01*
X126591107Y-91075000D01*
X126408892Y-91075000D01*
X126230187Y-91110547D01*
X126230185Y-91110547D01*
X126061850Y-91180273D01*
X125960275Y-91248142D01*
X126341666Y-91629533D01*
X126254394Y-91679920D01*
X126179920Y-91754394D01*
X126129533Y-91841666D01*
X125748142Y-91460275D01*
X125680273Y-91561850D01*
X125610547Y-91730185D01*
X125610547Y-91730187D01*
X125575000Y-91908892D01*
X123300500Y-91908892D01*
X123300500Y-90060691D01*
X144515700Y-90060691D01*
X144515700Y-90179309D01*
X144542774Y-90280351D01*
X144546402Y-90293890D01*
X144605707Y-90396608D01*
X144605709Y-90396610D01*
X144605711Y-90396613D01*
X144689587Y-90480489D01*
X144689589Y-90480490D01*
X144689591Y-90480492D01*
X144792310Y-90539797D01*
X144792311Y-90539797D01*
X144792314Y-90539799D01*
X144906891Y-90570500D01*
X144906893Y-90570500D01*
X145025507Y-90570500D01*
X145025509Y-90570500D01*
X145140086Y-90539799D01*
X145140088Y-90539797D01*
X145140090Y-90539797D01*
X145242808Y-90480492D01*
X145242808Y-90480491D01*
X145242813Y-90480489D01*
X145326689Y-90396613D01*
X145385999Y-90293886D01*
X145416700Y-90179309D01*
X145416700Y-90060691D01*
X145385999Y-89946114D01*
X145385997Y-89946111D01*
X145385997Y-89946109D01*
X145326692Y-89843391D01*
X145326690Y-89843389D01*
X145326689Y-89843387D01*
X145242813Y-89759511D01*
X145242810Y-89759509D01*
X145242808Y-89759507D01*
X145140089Y-89700202D01*
X145140090Y-89700202D01*
X145126551Y-89696574D01*
X145025509Y-89669500D01*
X144906891Y-89669500D01*
X144836767Y-89688289D01*
X144792309Y-89700202D01*
X144689591Y-89759507D01*
X144605707Y-89843391D01*
X144546402Y-89946109D01*
X144546401Y-89946114D01*
X144515700Y-90060691D01*
X123300500Y-90060691D01*
X123300500Y-87504861D01*
X123300977Y-87495157D01*
X123312985Y-87373237D01*
X123316771Y-87354204D01*
X123350918Y-87241635D01*
X123358335Y-87223726D01*
X123413795Y-87119968D01*
X123424567Y-87103846D01*
X123499195Y-87012913D01*
X123512913Y-86999195D01*
X123603846Y-86924567D01*
X123619968Y-86913795D01*
X123723726Y-86858335D01*
X123741635Y-86850918D01*
X123854205Y-86816770D01*
X123873233Y-86812985D01*
X123995157Y-86800976D01*
X124004861Y-86800500D01*
X124047594Y-86800500D01*
X172952406Y-86800500D01*
X172995139Y-86800500D01*
X173004842Y-86800976D01*
G37*
%TD.AperFunction*%
%TD*%
M02*
