M48
; DRILL file KiCad 10.0.6-10.0.6~ubuntu26.04.1 date 2026-09-29T06:23:19
; FORMAT={-:-/ absolute / metric / decimal}
; #@! TF.CreationDate,2026-09-29T06:23:19+02:00
; #@! TF.GenerationSoftware,Kicad,Pcbnew,10.0.6-10.0.6~ubuntu26.04.1
; #@! TF.FileFunction,Plated,1,4,PTH
FMAT,2
METRIC
; #@! TA.AperFunction,Plated,PTH,ViaDrill
T1C0.300
; #@! TA.AperFunction,Plated,PTH,ComponentDrill
T2C0.350
; #@! TA.AperFunction,Plated,PTH,ComponentDrill
T3C0.800
%
G90
G05
T1
X125.631Y-119.162
X127.456Y-109.044
X129.949Y-100.087
X136.5Y-88.075
X136.653Y-110.69
X137.325Y-109.555
X140.015Y-109.442
X140.3Y-91.888
X140.933Y-107.888
X140.995Y-103.09
X140.995Y-105.09
X141.978Y-117.573
X141.996Y-98.465
X142.81Y-91.983
X142.81Y-105.09
X144.1Y-88.075
X144.227Y-109.31
X145.395Y-120.405
X146.579Y-90.12
X146.9Y-111.5
X146.9Y-118.475
X146.909Y-100.4
X147.86Y-113.19
X148.0Y-119.162
X148.41Y-117.385
X148.883Y-114.92
X149.41Y-113.19
X150.609Y-111.352
X151.218Y-99.11
X155.825Y-104.09
X155.825Y-107.09
X156.586Y-104.361
X157.549Y-106.648
X165.687Y-105.59
X166.825Y-104.864
X166.827Y-106.152
X167.051Y-103.09
X167.146Y-107.445
X169.388Y-108.884
X171.415Y-105.0
T2
X144.91Y-101.59
X144.91Y-102.59
X144.91Y-103.59
X144.91Y-104.59
X144.91Y-105.59
X144.91Y-106.59
X144.91Y-107.59
X144.91Y-108.59
X145.91Y-101.59
X145.91Y-102.59
X145.91Y-103.59
X145.91Y-104.59
X145.91Y-105.59
X145.91Y-106.59
X145.91Y-107.59
X145.91Y-108.59
X146.91Y-101.59
X146.91Y-102.59
X146.91Y-103.59
X146.91Y-104.59
X146.91Y-105.59
X146.91Y-106.59
X146.91Y-107.59
X146.91Y-108.59
X147.91Y-101.59
X147.91Y-102.59
X147.91Y-103.59
X147.91Y-104.59
X147.91Y-105.59
X147.91Y-106.59
X147.91Y-107.59
X147.91Y-108.59
X148.91Y-101.59
X148.91Y-102.59
X148.91Y-103.59
X148.91Y-104.59
X148.91Y-105.59
X148.91Y-106.59
X148.91Y-107.59
X148.91Y-108.59
X149.91Y-101.59
X149.91Y-102.59
X149.91Y-103.59
X149.91Y-104.59
X149.91Y-105.59
X149.91Y-106.59
X149.91Y-107.59
X149.91Y-108.59
X150.91Y-101.59
X150.91Y-102.59
X150.91Y-103.59
X150.91Y-104.59
X150.91Y-105.59
X150.91Y-106.59
X150.91Y-107.59
X150.91Y-108.59
X151.91Y-101.59
X151.91Y-102.59
X151.91Y-103.59
X151.91Y-104.59
X151.91Y-105.59
X151.91Y-106.59
X151.91Y-107.59
X151.91Y-108.59
T3
X126.5Y-92.0
X126.5Y-94.0
X126.5Y-96.0
X126.5Y-98.0
X126.5Y-100.0
X126.5Y-102.0
X126.5Y-104.0
X126.5Y-106.0
X126.5Y-108.0
X126.5Y-110.0
X126.5Y-112.0
X126.5Y-114.0
X126.5Y-116.0
X126.5Y-118.0
X128.5Y-92.0
X128.5Y-94.0
X128.5Y-96.0
X128.5Y-98.0
X128.5Y-100.0
X128.5Y-102.0
X128.5Y-104.0
X128.5Y-106.0
X128.5Y-108.0
X128.5Y-110.0
X128.5Y-112.0
X128.5Y-114.0
X128.5Y-116.0
X128.5Y-118.0
X168.5Y-92.0
X168.5Y-94.0
X168.5Y-96.0
X168.5Y-98.0
X168.5Y-100.0
X168.5Y-102.0
X168.5Y-104.0
X168.5Y-106.0
X168.5Y-108.0
X168.5Y-110.0
X168.5Y-112.0
X168.5Y-114.0
X168.5Y-116.0
X168.5Y-118.0
X170.5Y-92.0
X170.5Y-94.0
X170.5Y-96.0
X170.5Y-98.0
X170.5Y-100.0
X170.5Y-102.0
X170.5Y-104.0
X170.5Y-106.0
X170.5Y-108.0
X170.5Y-110.0
X170.5Y-112.0
X170.5Y-114.0
X170.5Y-116.0
X170.5Y-118.0
M30
