%TF.GenerationSoftware,KiCad,Pcbnew,10.0.6-10.0.6~ubuntu26.04.1*%
%TF.CreationDate,2026-10-03T10:34:16+02:00*%
%TF.ProjectId,flashcat_p30,666c6173-6863-4617-945f-7033302e6b69,C*%
%TF.SameCoordinates,Original*%
%TF.FileFunction,Copper,L1,Top*%
%TF.FilePolarity,Positive*%
%FSLAX46Y46*%
G04 Gerber Fmt 4.6, Leading zero omitted, Abs format (unit mm)*
G04 Created by KiCad (PCBNEW 10.0.6-10.0.6~ubuntu26.04.1) date 2026-10-03 10:34:16*
%MOMM*%
%LPD*%
G01*
G04 APERTURE LIST*
%TA.AperFunction,SMDPad,CuDef*%
%ADD10C,0.550000*%
%TD*%
%TA.AperFunction,ComponentPad*%
%ADD11R,1.350000X1.350000*%
%TD*%
%TA.AperFunction,ComponentPad*%
%ADD12C,1.350000*%
%TD*%
%TA.AperFunction,ViaPad*%
%ADD13C,0.500000*%
%TD*%
%TA.AperFunction,Conductor*%
%ADD14C,0.127000*%
%TD*%
G04 APERTURE END LIST*
D10*
%TO.P,U1,A1*%
%TO.N,/A1*%
X152250000Y-101750000D03*
%TO.P,U1,A2*%
%TO.N,/A6*%
X152250000Y-102750000D03*
%TO.P,U1,A3*%
%TO.N,/A8*%
X152250000Y-103750000D03*
%TO.P,U1,A4*%
%TO.N,VCC_PROG*%
X152250000Y-104750000D03*
%TO.P,U1,A5*%
%TO.N,/A13*%
X152250000Y-105750000D03*
%TO.P,U1,A6*%
%TO.N,+1V8*%
X152250000Y-106750000D03*
%TO.P,U1,A7*%
%TO.N,/A18*%
X152250000Y-107750000D03*
%TO.P,U1,A8*%
%TO.N,/A22*%
X152250000Y-108750000D03*
%TO.P,U1,B1*%
%TO.N,/A2*%
X151250000Y-101750000D03*
%TO.P,U1,B2*%
%TO.N,GND*%
X151250000Y-102750000D03*
%TO.P,U1,B3*%
%TO.N,/A9*%
X151250000Y-103750000D03*
%TO.P,U1,B4*%
%TO.N,/~{CE}*%
X151250000Y-104750000D03*
%TO.P,U1,B5*%
%TO.N,/A14*%
X151250000Y-105750000D03*
%TO.P,U1,B6*%
%TO.N,/A25*%
X151250000Y-106750000D03*
%TO.P,U1,B7*%
%TO.N,/A19*%
X151250000Y-107750000D03*
%TO.P,U1,B8*%
%TO.N,/A26*%
X151250000Y-108750000D03*
%TO.P,U1,C1*%
%TO.N,/A3*%
X150250000Y-101750000D03*
%TO.P,U1,C2*%
%TO.N,/A7*%
X150250000Y-102750000D03*
%TO.P,U1,C3*%
%TO.N,/A10*%
X150250000Y-103750000D03*
%TO.P,U1,C4*%
%TO.N,/A12*%
X150250000Y-104750000D03*
%TO.P,U1,C5*%
%TO.N,/A15*%
X150250000Y-105750000D03*
%TO.P,U1,C6*%
%TO.N,VCC_PROG*%
X150250000Y-106750000D03*
%TO.P,U1,C7*%
%TO.N,/A20*%
X150250000Y-107750000D03*
%TO.P,U1,C8*%
%TO.N,/A21*%
X150250000Y-108750000D03*
%TO.P,U1,D1*%
%TO.N,/A4*%
X149250000Y-101750000D03*
%TO.P,U1,D2*%
%TO.N,/A5*%
X149250000Y-102750000D03*
%TO.P,U1,D3*%
%TO.N,/A11*%
X149250000Y-103750000D03*
%TO.P,U1,D4*%
%TO.N,/~{RST}*%
X149250000Y-104750000D03*
%TO.P,U1,D5*%
%TO.N,VCC_PROG*%
X149250000Y-105750000D03*
%TO.P,U1,D6*%
X149250000Y-106750000D03*
%TO.P,U1,D7*%
%TO.N,/A16*%
X149250000Y-107750000D03*
%TO.P,U1,D8*%
%TO.N,/A17*%
X149250000Y-108750000D03*
%TO.P,U1,E1*%
%TO.N,/DQ8*%
X148250000Y-101750000D03*
%TO.P,U1,E2*%
%TO.N,/DQ1*%
X148250000Y-102750000D03*
%TO.P,U1,E3*%
%TO.N,/DQ9*%
X148250000Y-103750000D03*
%TO.P,U1,E4*%
%TO.N,/DQ3*%
X148250000Y-104750000D03*
%TO.P,U1,E5*%
%TO.N,/DQ4*%
X148250000Y-105750000D03*
%TO.P,U1,E6*%
%TO.N,GND*%
X148250000Y-106750000D03*
%TO.P,U1,E7*%
%TO.N,/DQ15*%
X148250000Y-107750000D03*
%TO.P,U1,E8*%
%TO.N,unconnected-(U1-RFU-PadE8)*%
X148250000Y-108750000D03*
%TO.P,U1,F1*%
%TO.N,unconnected-(U1-RFU-PadF1)*%
X147250000Y-101750000D03*
%TO.P,U1,F2*%
%TO.N,/DQ0*%
X147250000Y-102750000D03*
%TO.P,U1,F3*%
%TO.N,/DQ10*%
X147250000Y-103750000D03*
%TO.P,U1,F4*%
%TO.N,/DQ11*%
X147250000Y-104750000D03*
%TO.P,U1,F5*%
%TO.N,/DQ12*%
X147250000Y-105750000D03*
%TO.P,U1,F6*%
%TO.N,GND*%
X147250000Y-106750000D03*
%TO.P,U1,F7*%
%TO.N,/WAIT*%
X147250000Y-107750000D03*
%TO.P,U1,F8*%
%TO.N,/~{OE}*%
X147250000Y-108750000D03*
%TO.P,U1,G1*%
%TO.N,/A23*%
X146250000Y-101750000D03*
%TO.P,U1,G2*%
%TO.N,unconnected-(U1-RFU-PadG2)*%
X146250000Y-102750000D03*
%TO.P,U1,G3*%
%TO.N,/DQ2*%
X146250000Y-103750000D03*
%TO.P,U1,G4*%
%TO.N,VCC_PROG*%
X146250000Y-104750000D03*
%TO.P,U1,G5*%
%TO.N,/DQ5*%
X146250000Y-105750000D03*
%TO.P,U1,G6*%
%TO.N,/DQ6*%
X146250000Y-106750000D03*
%TO.P,U1,G7*%
%TO.N,/DQ14*%
X146250000Y-107750000D03*
%TO.P,U1,G8*%
%TO.N,/~{WE}*%
X146250000Y-108750000D03*
%TO.P,U1,H1*%
%TO.N,/A27*%
X145250000Y-101750000D03*
%TO.P,U1,H2*%
%TO.N,GND*%
X145250000Y-102750000D03*
%TO.P,U1,H3*%
%TO.N,+1V8*%
X145250000Y-103750000D03*
%TO.P,U1,H4*%
%TO.N,GND*%
X145250000Y-104750000D03*
%TO.P,U1,H5*%
%TO.N,/DQ13*%
X145250000Y-105750000D03*
%TO.P,U1,H6*%
%TO.N,GND*%
X145250000Y-106750000D03*
%TO.P,U1,H7*%
%TO.N,/DQ7*%
X145250000Y-107750000D03*
%TO.P,U1,H8*%
%TO.N,/A24*%
X145250000Y-108750000D03*
%TD*%
D11*
%TO.P,J1,1*%
%TO.N,VCC_PROG*%
X128500000Y-92000000D03*
D12*
%TO.P,J1,2*%
%TO.N,GND*%
X126500000Y-92000000D03*
%TO.P,J1,3*%
%TO.N,unconnected-(J1-VIO-Pad3)*%
X128500000Y-94000000D03*
%TO.P,J1,4*%
%TO.N,unconnected-(J1-VPP-Pad4)*%
X126500000Y-94000000D03*
%TO.P,J1,5*%
%TO.N,/~{OE}*%
X128500000Y-96000000D03*
%TO.P,J1,6*%
%TO.N,unconnected-(J1-CLE-Pad6)*%
X126500000Y-96000000D03*
%TO.P,J1,7*%
%TO.N,/~{WE}*%
X128500000Y-98000000D03*
%TO.P,J1,8*%
%TO.N,unconnected-(J1-ALE-Pad8)*%
X126500000Y-98000000D03*
%TO.P,J1,9*%
%TO.N,/~{CE}*%
X128500000Y-100000000D03*
%TO.P,J1,10*%
%TO.N,unconnected-(J1-RE{slash}B#-Pad10)*%
X126500000Y-100000000D03*
%TO.P,J1,11*%
%TO.N,unconnected-(J1-DQS-Pad11)*%
X128500000Y-102000000D03*
%TO.P,J1,12*%
%TO.N,/WAIT*%
X126500000Y-102000000D03*
%TO.P,J1,13*%
%TO.N,/DQ8*%
X128500000Y-104000000D03*
%TO.P,J1,14*%
%TO.N,/DQ0*%
X126500000Y-104000000D03*
%TO.P,J1,15*%
%TO.N,/DQ9*%
X128500000Y-106000000D03*
%TO.P,J1,16*%
%TO.N,/DQ1*%
X126500000Y-106000000D03*
%TO.P,J1,17*%
%TO.N,/DQ10*%
X128500000Y-108000000D03*
%TO.P,J1,18*%
%TO.N,/DQ2*%
X126500000Y-108000000D03*
%TO.P,J1,19*%
%TO.N,/DQ11*%
X128500000Y-110000000D03*
%TO.P,J1,20*%
%TO.N,/DQ3*%
X126500000Y-110000000D03*
%TO.P,J1,21*%
%TO.N,/DQ12*%
X128500000Y-112000000D03*
%TO.P,J1,22*%
%TO.N,/DQ4*%
X126500000Y-112000000D03*
%TO.P,J1,23*%
%TO.N,/DQ13*%
X128500000Y-114000000D03*
%TO.P,J1,24*%
%TO.N,/DQ5*%
X126500000Y-114000000D03*
%TO.P,J1,25*%
%TO.N,/DQ14*%
X128500000Y-116000000D03*
%TO.P,J1,26*%
%TO.N,/DQ6*%
X126500000Y-116000000D03*
%TO.P,J1,27*%
%TO.N,/DQ15*%
X128500000Y-118000000D03*
%TO.P,J1,28*%
%TO.N,/DQ7*%
X126500000Y-118000000D03*
%TD*%
D11*
%TO.P,J2,1*%
%TO.N,/A27*%
X170500000Y-92000000D03*
D12*
%TO.P,J2,2*%
%TO.N,unconnected-(J2-A0{slash}CE1-Pad2)*%
X168500000Y-92000000D03*
%TO.P,J2,3*%
%TO.N,/A26*%
X170500000Y-94000000D03*
%TO.P,J2,4*%
%TO.N,/A1*%
X168500000Y-94000000D03*
%TO.P,J2,5*%
%TO.N,/A25*%
X170500000Y-96000000D03*
%TO.P,J2,6*%
%TO.N,/A2*%
X168500000Y-96000000D03*
%TO.P,J2,7*%
%TO.N,/A24*%
X170500000Y-98000000D03*
%TO.P,J2,8*%
%TO.N,/A3*%
X168500000Y-98000000D03*
%TO.P,J2,9*%
%TO.N,/A23*%
X170500000Y-100000000D03*
%TO.P,J2,10*%
%TO.N,/A4*%
X168500000Y-100000000D03*
%TO.P,J2,11*%
%TO.N,/A22*%
X170500000Y-102000000D03*
%TO.P,J2,12*%
%TO.N,/A5*%
X168500000Y-102000000D03*
%TO.P,J2,13*%
%TO.N,/A21*%
X170500000Y-104000000D03*
%TO.P,J2,14*%
%TO.N,/A6*%
X168500000Y-104000000D03*
%TO.P,J2,15*%
%TO.N,/A20*%
X170500000Y-106000000D03*
%TO.P,J2,16*%
%TO.N,/A7*%
X168500000Y-106000000D03*
%TO.P,J2,17*%
%TO.N,/A19*%
X170500000Y-108000000D03*
%TO.P,J2,18*%
%TO.N,/A8*%
X168500000Y-108000000D03*
%TO.P,J2,19*%
%TO.N,/A18*%
X170500000Y-110000000D03*
%TO.P,J2,20*%
%TO.N,/A9*%
X168500000Y-110000000D03*
%TO.P,J2,21*%
%TO.N,/A17*%
X170500000Y-112000000D03*
%TO.P,J2,22*%
%TO.N,/A10*%
X168500000Y-112000000D03*
%TO.P,J2,23*%
%TO.N,/A16*%
X170500000Y-114000000D03*
%TO.P,J2,24*%
%TO.N,/A11*%
X168500000Y-114000000D03*
%TO.P,J2,25*%
%TO.N,/A15*%
X170500000Y-116000000D03*
%TO.P,J2,26*%
%TO.N,/A12*%
X168500000Y-116000000D03*
%TO.P,J2,27*%
%TO.N,/A14*%
X170500000Y-118000000D03*
%TO.P,J2,28*%
%TO.N,/A13*%
X168500000Y-118000000D03*
%TD*%
D13*
%TO.N,VCC_PROG*%
X147240000Y-111660000D03*
X146250000Y-104750000D03*
X150250000Y-106750000D03*
X147694000Y-117573400D03*
X152250000Y-104750000D03*
X143150000Y-105250000D03*
X149250000Y-106750000D03*
X152250000Y-92537500D03*
%TO.N,/A13*%
X162248400Y-106155400D03*
%TO.N,+1V8*%
X147750000Y-91990700D03*
X152250000Y-106750000D03*
X145250000Y-103750000D03*
%TO.N,/A18*%
X162709300Y-109059700D03*
%TO.N,/A22*%
X155198300Y-102870500D03*
X153427200Y-109102300D03*
%TO.N,GND*%
X145250000Y-102750000D03*
X156164999Y-104250000D03*
X145600000Y-93487500D03*
X141335001Y-105250000D03*
X151250000Y-102750000D03*
X149750000Y-113350000D03*
X141335001Y-103250000D03*
X156164999Y-107250000D03*
X149300000Y-89375000D03*
X148200000Y-113350000D03*
X146900000Y-117175000D03*
X145250000Y-106750000D03*
X141900000Y-89375000D03*
X147250000Y-106750000D03*
X148250000Y-106750000D03*
X145250000Y-104750000D03*
%TO.N,/A9*%
X165968800Y-106793600D03*
%TO.N,/~{CE}*%
X154335100Y-105500000D03*
X153461700Y-100199600D03*
%TO.N,/A14*%
X159184800Y-106403600D03*
%TO.N,/A25*%
X166668500Y-107488300D03*
%TO.N,/A26*%
X151651300Y-109289600D03*
%TO.N,/A3*%
X150876500Y-99009100D03*
%TO.N,/A10*%
X150750100Y-109365900D03*
%TO.N,/A12*%
X164365300Y-105057800D03*
X150250000Y-104750000D03*
%TO.N,/A15*%
X150250000Y-105750000D03*
X165340000Y-107017100D03*
%TO.N,/A20*%
X150250000Y-107750000D03*
%TO.N,/A21*%
X154291200Y-109909100D03*
X155515700Y-105632000D03*
%TO.N,/A4*%
X149250000Y-100614600D03*
X154343100Y-100724600D03*
%TO.N,/A5*%
X149921100Y-99757400D03*
%TO.N,/A11*%
X149250000Y-103750000D03*
X164897700Y-103312700D03*
%TO.N,/~{RST}*%
X148228800Y-119715200D03*
X149250000Y-104750000D03*
X148298300Y-109813900D03*
%TO.N,/DQ8*%
X146829000Y-100939800D03*
%TO.N,/DQ9*%
X148250000Y-103750000D03*
X129566500Y-100173000D03*
%TO.N,/DQ3*%
X148250000Y-104750000D03*
%TO.N,/DQ4*%
X144582300Y-113000000D03*
X148250000Y-105750000D03*
%TO.N,/DQ10*%
X147250000Y-103750000D03*
%TO.N,/DQ11*%
X147250000Y-104750000D03*
%TO.N,/DQ12*%
X147250000Y-105750000D03*
%TO.N,/WAIT*%
X148600000Y-116950000D03*
X129493900Y-118677700D03*
%TO.N,/~{OE}*%
X144626800Y-111897900D03*
X130014000Y-109549700D03*
%TO.N,/A23*%
X148878400Y-99063500D03*
%TO.N,/~{WE}*%
X146232900Y-109416500D03*
%TO.N,/DQ7*%
X129375100Y-115380800D03*
%TO.N,/A24*%
X144585000Y-108761400D03*
X151802600Y-98867200D03*
%TD*%
%TO.N,/A1*%
D14*
X168739000Y-97000000D02*
X157370800Y-97000000D01*
X157370800Y-97000000D02*
X153150000Y-101220800D01*
X152250000Y-101750000D02*
X153150000Y-101750000D01*
X168500000Y-94000000D02*
X169432800Y-94932800D01*
X169432800Y-94932800D02*
X169432800Y-96306200D01*
X153150000Y-101220800D02*
X153150000Y-101750000D01*
X169432800Y-96306200D02*
X168739000Y-97000000D01*
%TO.N,/A6*%
X168500000Y-104000000D02*
X166928300Y-102428300D01*
X166928300Y-102428300D02*
X153471700Y-102428300D01*
X153471700Y-102428300D02*
X153150000Y-102750000D01*
X152250000Y-102750000D02*
X153150000Y-102750000D01*
%TO.N,/A8*%
X164250000Y-103750000D02*
X153150000Y-103750000D01*
X168500000Y-108000000D02*
X164250000Y-103750000D01*
X152250000Y-103750000D02*
X153150000Y-103750000D01*
%TO.N,VCC_PROG*%
X149250000Y-105750000D02*
X149250000Y-106750000D01*
%TO.N,/A13*%
X162054400Y-105961400D02*
X157924500Y-105961400D01*
X157793400Y-106092500D02*
X153754000Y-106092500D01*
X157924500Y-105961400D02*
X157793400Y-106092500D01*
X153754000Y-106092500D02*
X153411500Y-105750000D01*
X152250000Y-105750000D02*
X153150000Y-105750000D01*
X153411500Y-105750000D02*
X153150000Y-105750000D01*
X162248400Y-106155400D02*
X162054400Y-105961400D01*
%TO.N,/A18*%
X153150000Y-107750000D02*
X161399600Y-107750000D01*
X161399600Y-107750000D02*
X162709300Y-109059700D01*
X152250000Y-107750000D02*
X153150000Y-107750000D01*
%TO.N,/A22*%
X153427200Y-109102300D02*
X152602300Y-109102300D01*
X152602300Y-109102300D02*
X152250000Y-108750000D01*
%TO.N,/A2*%
X168350000Y-96150000D02*
X168500000Y-96000000D01*
X151250000Y-100850000D02*
X155950000Y-96150000D01*
X155950000Y-96150000D02*
X168350000Y-96150000D01*
X151250000Y-101750000D02*
X151250000Y-100850000D01*
%TO.N,/A9*%
X155108500Y-104250000D02*
X153550000Y-104250000D01*
X151250000Y-103750000D02*
X151750000Y-104250000D01*
X164880900Y-105705700D02*
X156564200Y-105705700D01*
X151750000Y-104250000D02*
X153550000Y-104250000D01*
X156564200Y-105705700D02*
X155108500Y-104250000D01*
X165968800Y-106793600D02*
X164880900Y-105705700D01*
%TO.N,/~{CE}*%
X151750000Y-105250000D02*
X153550000Y-105250000D01*
X154085100Y-105250000D02*
X153550000Y-105250000D01*
X154335100Y-105500000D02*
X154085100Y-105250000D01*
X151250000Y-104750000D02*
X151750000Y-105250000D01*
%TO.N,/A14*%
X151750000Y-106250000D02*
X153550000Y-106250000D01*
X159184800Y-106403600D02*
X153703600Y-106403600D01*
X151250000Y-105750000D02*
X151750000Y-106250000D01*
X153703600Y-106403600D02*
X153550000Y-106250000D01*
%TO.N,/A25*%
X158716400Y-107488300D02*
X166668500Y-107488300D01*
X158032600Y-106804500D02*
X158716400Y-107488300D01*
X151250000Y-106750000D02*
X151750000Y-107250000D01*
X153995500Y-106804500D02*
X158032600Y-106804500D01*
X151750000Y-107250000D02*
X153550000Y-107250000D01*
X153550000Y-107250000D02*
X153995500Y-106804500D01*
%TO.N,/A19*%
X169462500Y-109037500D02*
X163385300Y-109037500D01*
X162878700Y-109544100D02*
X154844100Y-109544100D01*
X163385300Y-109037500D02*
X162878700Y-109544100D01*
X151250000Y-107750000D02*
X151750000Y-108250000D01*
X154844100Y-109544100D02*
X153550000Y-108250000D01*
X151750000Y-108250000D02*
X153550000Y-108250000D01*
X170500000Y-108000000D02*
X169462500Y-109037500D01*
%TO.N,/A26*%
X151250000Y-108750000D02*
X151250000Y-108888300D01*
X151250000Y-108888300D02*
X151651300Y-109289600D01*
X151250000Y-108750000D02*
X151250000Y-108888300D01*
%TO.N,/A3*%
X150250000Y-100850000D02*
X150363300Y-100736700D01*
X150250000Y-101750000D02*
X150250000Y-100850000D01*
X150363300Y-100736700D02*
X150363300Y-99522300D01*
X150363300Y-99522300D02*
X150876500Y-99009100D01*
%TO.N,/A7*%
X155015200Y-103312700D02*
X161859700Y-103312700D01*
X154942600Y-103240100D02*
X155015200Y-103312700D01*
X161859700Y-103312700D02*
X162352100Y-102820300D01*
X150740100Y-103240100D02*
X154942600Y-103240100D01*
X162352100Y-102820300D02*
X165320300Y-102820300D01*
X165320300Y-102820300D02*
X168500000Y-106000000D01*
X150250000Y-102750000D02*
X150740100Y-103240100D01*
%TO.N,/A10*%
X150750100Y-104250100D02*
X150250000Y-103750000D01*
X150750100Y-109365900D02*
X150750100Y-104250100D01*
%TO.N,/A21*%
X154291200Y-109909100D02*
X150509100Y-109909100D01*
X150250000Y-108750000D02*
X150250000Y-109650000D01*
X150509100Y-109909100D02*
X150250000Y-109650000D01*
%TO.N,/A4*%
X167775400Y-100724600D02*
X168500000Y-100000000D01*
X149250000Y-101750000D02*
X149250000Y-100850000D01*
X149250000Y-100850000D02*
X149250000Y-100614600D01*
X154343100Y-100724600D02*
X167775400Y-100724600D01*
%TO.N,/A5*%
X149921100Y-99757400D02*
X149750000Y-99928500D01*
X149250000Y-102750000D02*
X149750000Y-102250000D01*
X149750000Y-99928500D02*
X149750000Y-100450000D01*
X149750000Y-102250000D02*
X149750000Y-100450000D01*
%TO.N,/A16*%
X171374200Y-111562400D02*
X170811800Y-111000000D01*
X171374200Y-113125800D02*
X171374200Y-111562400D01*
X149250000Y-107750000D02*
X149750000Y-108250000D01*
X170811800Y-111000000D02*
X150700000Y-111000000D01*
X149750000Y-108250000D02*
X149750000Y-110050000D01*
X150700000Y-111000000D02*
X149750000Y-110050000D01*
X170500000Y-114000000D02*
X171374200Y-113125800D01*
%TO.N,/A17*%
X149250000Y-108750000D02*
X149250000Y-109650000D01*
X149250000Y-109958900D02*
X152191700Y-112900600D01*
X169599400Y-112900600D02*
X170500000Y-112000000D01*
X152191700Y-112900600D02*
X169599400Y-112900600D01*
X149250000Y-109650000D02*
X149250000Y-109958900D01*
%TO.N,/DQ8*%
X147875500Y-100194300D02*
X147574500Y-100194300D01*
X148250000Y-100568800D02*
X147875500Y-100194300D01*
X147574500Y-100194300D02*
X146829000Y-100939800D01*
X148250000Y-101750000D02*
X148250000Y-100850000D01*
X148250000Y-100850000D02*
X148250000Y-100568800D01*
%TO.N,/DQ1*%
X142502700Y-103219200D02*
X142009200Y-103712700D01*
X129059600Y-105000000D02*
X127500000Y-105000000D01*
X130346900Y-103712700D02*
X129059600Y-105000000D01*
X142009200Y-103712700D02*
X130346900Y-103712700D01*
X147780800Y-103219200D02*
X142502700Y-103219200D01*
X127500000Y-105000000D02*
X126500000Y-106000000D01*
X148250000Y-102750000D02*
X147780800Y-103219200D01*
%TO.N,/DQ15*%
X146750000Y-107525700D02*
X146750000Y-109591200D01*
X137992700Y-118000000D02*
X128500000Y-118000000D01*
X144184600Y-111808100D02*
X137992700Y-118000000D01*
X144885500Y-111455700D02*
X144443700Y-111455700D01*
X148250000Y-107750000D02*
X147750000Y-107250000D01*
X147025700Y-107250000D02*
X146750000Y-107525700D01*
X147750000Y-107250000D02*
X147025700Y-107250000D01*
X144184600Y-111714800D02*
X144184600Y-111808100D01*
X144443700Y-111455700D02*
X144184600Y-111714800D01*
X146750000Y-109591200D02*
X144885500Y-111455700D01*
%TO.N,/DQ0*%
X126500000Y-104000000D02*
X127613000Y-102887000D01*
X136558200Y-102887000D02*
X137195200Y-102250000D01*
X146750000Y-102250000D02*
X147250000Y-102750000D01*
X137195200Y-102250000D02*
X146750000Y-102250000D01*
X127613000Y-102887000D02*
X136558200Y-102887000D01*
%TO.N,/WAIT*%
X147250000Y-107750000D02*
X147750000Y-108250000D01*
X147349700Y-116100000D02*
X144772000Y-118677700D01*
X147750000Y-108250000D02*
X147750000Y-110050000D01*
X144772000Y-118677700D02*
X129493900Y-118677700D01*
X147750000Y-116100000D02*
X147349700Y-116100000D01*
X147750000Y-110050000D02*
X147750000Y-116100000D01*
X147750000Y-116100000D02*
X148600000Y-116950000D01*
%TO.N,/~{OE}*%
X144626800Y-111897900D02*
X145002100Y-111897900D01*
X147250000Y-108750000D02*
X147250000Y-109650000D01*
X145002100Y-111897900D02*
X147250000Y-109650000D01*
%TO.N,/A23*%
X146250000Y-100850000D02*
X148036500Y-99063500D01*
X146250000Y-101750000D02*
X146250000Y-100850000D01*
X148036500Y-99063500D02*
X148878400Y-99063500D01*
%TO.N,/DQ2*%
X145750000Y-104250000D02*
X143950000Y-104250000D01*
X139203100Y-104250000D02*
X143950000Y-104250000D01*
X126500000Y-108000000D02*
X127500000Y-107000000D01*
X127500000Y-107000000D02*
X136453100Y-107000000D01*
X136453100Y-107000000D02*
X139203100Y-104250000D01*
X146250000Y-103750000D02*
X145750000Y-104250000D01*
%TO.N,/DQ5*%
X146250000Y-105750000D02*
X145750000Y-106250000D01*
X137200000Y-113000000D02*
X127500000Y-113000000D01*
X143950000Y-106250000D02*
X137200000Y-113000000D01*
X145750000Y-106250000D02*
X143950000Y-106250000D01*
X127500000Y-113000000D02*
X126500000Y-114000000D01*
%TO.N,/DQ6*%
X146250000Y-106750000D02*
X145750000Y-107250000D01*
X143436600Y-107250000D02*
X135749100Y-114937500D01*
X127562500Y-114937500D02*
X126500000Y-116000000D01*
X135749100Y-114937500D02*
X127562500Y-114937500D01*
X145750000Y-107250000D02*
X143950000Y-107250000D01*
X143950000Y-107250000D02*
X143436600Y-107250000D01*
%TO.N,/DQ14*%
X141509500Y-110050000D02*
X145750000Y-110050000D01*
X135559500Y-116000000D02*
X141509500Y-110050000D01*
X128500000Y-116000000D02*
X135559500Y-116000000D01*
X146250000Y-107750000D02*
X145750000Y-108250000D01*
X145750000Y-108250000D02*
X145750000Y-110050000D01*
%TO.N,/~{WE}*%
X146250000Y-108750000D02*
X146250000Y-109650000D01*
X146250000Y-108750000D02*
X146250000Y-109399400D01*
X146250000Y-109399400D02*
X146232900Y-109416500D01*
%TO.N,/A27*%
X145250000Y-100850000D02*
X147727100Y-98372900D01*
X168874100Y-92867200D02*
X169632800Y-92108500D01*
X152901100Y-98372900D02*
X155981800Y-95292200D01*
X155981800Y-95292200D02*
X164810300Y-95292200D01*
X170500000Y-92000000D02*
X169632800Y-92000000D01*
X167235300Y-92867200D02*
X168874100Y-92867200D01*
X145250000Y-101750000D02*
X145250000Y-100850000D01*
X147727100Y-98372900D02*
X152901100Y-98372900D01*
X164810300Y-95292200D02*
X167235300Y-92867200D01*
X169632800Y-92108500D02*
X169632800Y-92000000D01*
%TO.N,/DQ13*%
X125628800Y-113637800D02*
X125628800Y-114431000D01*
X144350000Y-105750000D02*
X143809100Y-105750000D01*
X127410100Y-111793000D02*
X127410100Y-112351500D01*
X128203100Y-111000000D02*
X127410100Y-111793000D01*
X143809100Y-105750000D02*
X138559100Y-111000000D01*
X127410100Y-112351500D02*
X126761400Y-113000200D01*
X138559100Y-111000000D02*
X128203100Y-111000000D01*
X126761400Y-113000200D02*
X126266400Y-113000200D01*
X125628800Y-114431000D02*
X126098800Y-114901000D01*
X127969600Y-114000000D02*
X128500000Y-114000000D01*
X145250000Y-105750000D02*
X144350000Y-105750000D01*
X127068600Y-114901000D02*
X127969600Y-114000000D01*
X126098800Y-114901000D02*
X127068600Y-114901000D01*
X126266400Y-113000200D02*
X125628800Y-113637800D01*
%TO.N,/DQ7*%
X144350000Y-107750000D02*
X143425000Y-107750000D01*
X143425000Y-107750000D02*
X135794200Y-115380800D01*
X145250000Y-107750000D02*
X144350000Y-107750000D01*
X135794200Y-115380800D02*
X129375100Y-115380800D01*
%TO.N,/A24*%
X145238600Y-108761400D02*
X145250000Y-108750000D01*
X144585000Y-108761400D02*
X145238600Y-108761400D01*
%TD*%
%TA.AperFunction,Conductor*%
%TO.N,GND*%
G36*
X148823571Y-105966728D02*
G01*
X148835733Y-105983469D01*
X148869505Y-106041964D01*
X148957005Y-106129464D01*
X148984781Y-106183979D01*
X148986000Y-106199466D01*
X148986000Y-106300534D01*
X148967093Y-106358725D01*
X148957009Y-106370531D01*
X148912841Y-106414700D01*
X148869504Y-106458037D01*
X148864312Y-106467030D01*
X148818840Y-106507968D01*
X148757989Y-106514360D01*
X148739722Y-106503812D01*
X148711971Y-106500159D01*
X148462132Y-106749999D01*
X148711973Y-106999840D01*
X148732661Y-106997116D01*
X148738303Y-106992036D01*
X148799153Y-106985636D01*
X148852144Y-107016224D01*
X148864313Y-107032972D01*
X148867101Y-107037800D01*
X148869505Y-107041964D01*
X148958036Y-107130495D01*
X149016527Y-107164264D01*
X149057467Y-107209733D01*
X149063863Y-107270583D01*
X149033270Y-107323571D01*
X149016530Y-107335733D01*
X148958036Y-107369505D01*
X148869505Y-107458036D01*
X148835735Y-107516527D01*
X148790267Y-107557467D01*
X148729417Y-107563863D01*
X148676429Y-107533270D01*
X148664266Y-107516530D01*
X148630495Y-107458036D01*
X148541964Y-107369505D01*
X148536181Y-107366166D01*
X148532972Y-107364313D01*
X148492032Y-107318843D01*
X148485638Y-107257992D01*
X148496187Y-107239721D01*
X148499840Y-107211972D01*
X148143935Y-106856066D01*
X147788026Y-106500158D01*
X147762922Y-106503464D01*
X147737076Y-106503464D01*
X147711971Y-106500158D01*
X147426070Y-106786061D01*
X147371553Y-106813839D01*
X147311121Y-106804268D01*
X147286063Y-106786062D01*
X147250000Y-106750000D01*
X147213937Y-106786062D01*
X147159420Y-106813839D01*
X147098988Y-106804267D01*
X147073931Y-106786062D01*
X146788027Y-106500158D01*
X146767329Y-106502884D01*
X146761686Y-106507965D01*
X146700836Y-106514360D01*
X146647848Y-106483767D01*
X146635683Y-106467022D01*
X146630496Y-106458038D01*
X146630495Y-106458036D01*
X146541964Y-106369505D01*
X146483472Y-106335735D01*
X146442532Y-106290268D01*
X146436136Y-106229418D01*
X146466728Y-106176429D01*
X146483469Y-106164266D01*
X146541964Y-106130495D01*
X146630495Y-106041964D01*
X146664264Y-105983472D01*
X146709732Y-105942532D01*
X146770582Y-105936136D01*
X146823571Y-105966728D01*
X146835733Y-105983469D01*
X146869505Y-106041964D01*
X146958036Y-106130495D01*
X146958038Y-106130496D01*
X146967022Y-106135683D01*
X147007964Y-106181151D01*
X147014361Y-106242001D01*
X147003813Y-106260270D01*
X147000159Y-106288026D01*
X147250000Y-106537867D01*
X147499840Y-106288027D01*
X147497114Y-106267329D01*
X147492034Y-106261686D01*
X147485639Y-106200836D01*
X147516232Y-106147848D01*
X147532969Y-106135687D01*
X147541964Y-106130495D01*
X147630495Y-106041964D01*
X147664264Y-105983472D01*
X147709732Y-105942532D01*
X147770582Y-105936136D01*
X147823571Y-105966728D01*
X147835733Y-105983469D01*
X147869505Y-106041964D01*
X147958036Y-106130495D01*
X147958038Y-106130496D01*
X147967022Y-106135683D01*
X148007964Y-106181151D01*
X148014361Y-106242001D01*
X148003813Y-106260270D01*
X148000159Y-106288026D01*
X148250000Y-106537867D01*
X148499840Y-106288027D01*
X148497114Y-106267329D01*
X148492034Y-106261686D01*
X148485639Y-106200836D01*
X148516232Y-106147848D01*
X148532969Y-106135687D01*
X148541964Y-106130495D01*
X148630495Y-106041964D01*
X148664264Y-105983472D01*
X148709732Y-105942532D01*
X148770582Y-105936136D01*
X148823571Y-105966728D01*
G37*
%TD.AperFunction*%
%TA.AperFunction,Conductor*%
G36*
X157940431Y-107087407D02*
G01*
X157952244Y-107097496D01*
X158171744Y-107316996D01*
X158199521Y-107371513D01*
X158189950Y-107431945D01*
X158146685Y-107475210D01*
X158101740Y-107486000D01*
X153926359Y-107486000D01*
X153868168Y-107467093D01*
X153832204Y-107417593D01*
X153832204Y-107356407D01*
X153856356Y-107316996D01*
X154075857Y-107097496D01*
X154130373Y-107069719D01*
X154145860Y-107068500D01*
X157882240Y-107068500D01*
X157940431Y-107087407D01*
G37*
%TD.AperFunction*%
%TA.AperFunction,Conductor*%
G36*
X164157831Y-104032907D02*
G01*
X164169644Y-104042996D01*
X164585916Y-104459268D01*
X164613693Y-104513785D01*
X164604122Y-104574217D01*
X164560857Y-104617482D01*
X164500425Y-104627053D01*
X164490289Y-104624899D01*
X164477652Y-104621513D01*
X164424609Y-104607300D01*
X164305991Y-104607300D01*
X164252948Y-104621513D01*
X164191409Y-104638002D01*
X164088691Y-104697307D01*
X164004807Y-104781191D01*
X163945502Y-104883909D01*
X163931508Y-104936136D01*
X163914800Y-104998491D01*
X163914800Y-105117109D01*
X163945501Y-105231686D01*
X163945502Y-105231688D01*
X163981016Y-105293199D01*
X163993738Y-105353047D01*
X163968852Y-105408943D01*
X163915864Y-105439536D01*
X163895280Y-105441700D01*
X156714561Y-105441700D01*
X156656370Y-105422793D01*
X156644557Y-105412704D01*
X156348960Y-105117107D01*
X155414853Y-104183001D01*
X155387078Y-104128487D01*
X155396649Y-104068055D01*
X155439914Y-104024790D01*
X155484859Y-104014000D01*
X164099640Y-104014000D01*
X164157831Y-104032907D01*
G37*
%TD.AperFunction*%
%TA.AperFunction,Conductor*%
G36*
X144698888Y-102532907D02*
G01*
X144734852Y-102582407D01*
X144736323Y-102638624D01*
X144725000Y-102680879D01*
X144725000Y-102819118D01*
X144724999Y-102819118D01*
X144728070Y-102830575D01*
X144724869Y-102891677D01*
X144686365Y-102939227D01*
X144632444Y-102955200D01*
X142450187Y-102955200D01*
X142445376Y-102957193D01*
X142353156Y-102995391D01*
X141928843Y-103419704D01*
X141874327Y-103447481D01*
X141858840Y-103448700D01*
X130399412Y-103448700D01*
X130294387Y-103448700D01*
X130271848Y-103458036D01*
X130197356Y-103488891D01*
X129544503Y-104141743D01*
X129489987Y-104169520D01*
X129429555Y-104159949D01*
X129386290Y-104116684D01*
X129375500Y-104071739D01*
X129375500Y-103913772D01*
X129375499Y-103913768D01*
X129368322Y-103877687D01*
X129341855Y-103744626D01*
X129304745Y-103655034D01*
X129275860Y-103585299D01*
X129275854Y-103585287D01*
X129217676Y-103498220D01*
X129180045Y-103441901D01*
X129058148Y-103320004D01*
X129030371Y-103265487D01*
X129039942Y-103205055D01*
X129083207Y-103161790D01*
X129128152Y-103151000D01*
X136610712Y-103151000D01*
X136610713Y-103151000D01*
X136707744Y-103110808D01*
X137275556Y-102542996D01*
X137330073Y-102515219D01*
X137345560Y-102514000D01*
X144640697Y-102514000D01*
X144698888Y-102532907D01*
G37*
%TD.AperFunction*%
%TA.AperFunction,Conductor*%
G36*
X151823571Y-101966728D02*
G01*
X151835733Y-101983469D01*
X151869505Y-102041964D01*
X151958036Y-102130495D01*
X152016527Y-102164264D01*
X152057467Y-102209733D01*
X152063863Y-102270583D01*
X152033270Y-102323571D01*
X152016530Y-102335733D01*
X151958038Y-102369504D01*
X151958036Y-102369505D01*
X151869504Y-102458037D01*
X151864312Y-102467030D01*
X151818840Y-102507968D01*
X151757989Y-102514360D01*
X151739722Y-102503812D01*
X151711971Y-102500159D01*
X151426070Y-102786061D01*
X151371553Y-102813839D01*
X151311121Y-102804268D01*
X151286063Y-102786062D01*
X151250000Y-102750000D01*
X151213937Y-102786062D01*
X151159420Y-102813839D01*
X151098988Y-102804267D01*
X151073931Y-102786062D01*
X150788027Y-102500158D01*
X150767329Y-102502884D01*
X150761686Y-102507965D01*
X150700836Y-102514360D01*
X150647848Y-102483767D01*
X150635683Y-102467022D01*
X150630496Y-102458038D01*
X150630495Y-102458036D01*
X150541964Y-102369505D01*
X150483472Y-102335735D01*
X150442532Y-102290268D01*
X150436136Y-102229418D01*
X150466728Y-102176429D01*
X150483469Y-102164266D01*
X150541964Y-102130495D01*
X150630495Y-102041964D01*
X150664264Y-101983472D01*
X150709732Y-101942532D01*
X150770582Y-101936136D01*
X150823571Y-101966728D01*
X150835733Y-101983469D01*
X150869505Y-102041964D01*
X150958036Y-102130495D01*
X150958038Y-102130496D01*
X150967022Y-102135683D01*
X151007964Y-102181151D01*
X151014361Y-102242001D01*
X151003813Y-102260270D01*
X151000159Y-102288026D01*
X151250000Y-102537867D01*
X151499840Y-102288027D01*
X151497114Y-102267329D01*
X151492034Y-102261686D01*
X151485639Y-102200836D01*
X151516232Y-102147848D01*
X151532969Y-102135687D01*
X151541964Y-102130495D01*
X151630495Y-102041964D01*
X151664264Y-101983472D01*
X151709732Y-101942532D01*
X151770582Y-101936136D01*
X151823571Y-101966728D01*
G37*
%TD.AperFunction*%
%TA.AperFunction,Conductor*%
G36*
X173004842Y-88800976D02*
G01*
X173126764Y-88812985D01*
X173145795Y-88816771D01*
X173166117Y-88822935D01*
X173258360Y-88850916D01*
X173276277Y-88858337D01*
X173380026Y-88913792D01*
X173396157Y-88924571D01*
X173487083Y-88999193D01*
X173500806Y-89012916D01*
X173575428Y-89103842D01*
X173586208Y-89119976D01*
X173641659Y-89223718D01*
X173649084Y-89241643D01*
X173683228Y-89354204D01*
X173687014Y-89373237D01*
X173699023Y-89495157D01*
X173699500Y-89504861D01*
X173699500Y-120495138D01*
X173699023Y-120504842D01*
X173687014Y-120626762D01*
X173683228Y-120645795D01*
X173649084Y-120758356D01*
X173641657Y-120776288D01*
X173586210Y-120880021D01*
X173575428Y-120896157D01*
X173500806Y-120987083D01*
X173487083Y-121000806D01*
X173396157Y-121075428D01*
X173380021Y-121086210D01*
X173328154Y-121113933D01*
X173276285Y-121141658D01*
X173258356Y-121149084D01*
X173145795Y-121183228D01*
X173126763Y-121187014D01*
X173020719Y-121197459D01*
X173004841Y-121199023D01*
X172995139Y-121199500D01*
X124004861Y-121199500D01*
X123995157Y-121199023D01*
X123873237Y-121187014D01*
X123854204Y-121183228D01*
X123741643Y-121149084D01*
X123723718Y-121141659D01*
X123619976Y-121086208D01*
X123603842Y-121075428D01*
X123512916Y-121000806D01*
X123499193Y-120987083D01*
X123424571Y-120896157D01*
X123413792Y-120880026D01*
X123358337Y-120776277D01*
X123350916Y-120758360D01*
X123316771Y-120645795D01*
X123312985Y-120626762D01*
X123300977Y-120504842D01*
X123300500Y-120495138D01*
X123300500Y-119655891D01*
X147778300Y-119655891D01*
X147778300Y-119774509D01*
X147805374Y-119875551D01*
X147809002Y-119889090D01*
X147868307Y-119991808D01*
X147868309Y-119991810D01*
X147868311Y-119991813D01*
X147952187Y-120075689D01*
X147952189Y-120075690D01*
X147952191Y-120075692D01*
X148054910Y-120134997D01*
X148054911Y-120134997D01*
X148054914Y-120134999D01*
X148169491Y-120165700D01*
X148169493Y-120165700D01*
X148288107Y-120165700D01*
X148288109Y-120165700D01*
X148402686Y-120134999D01*
X148402688Y-120134997D01*
X148402690Y-120134997D01*
X148505408Y-120075692D01*
X148505408Y-120075691D01*
X148505413Y-120075689D01*
X148589289Y-119991813D01*
X148648599Y-119889086D01*
X148679300Y-119774509D01*
X148679300Y-119655891D01*
X148648599Y-119541314D01*
X148648597Y-119541311D01*
X148648597Y-119541309D01*
X148589292Y-119438591D01*
X148589290Y-119438589D01*
X148589289Y-119438587D01*
X148505413Y-119354711D01*
X148505410Y-119354709D01*
X148505408Y-119354707D01*
X148402689Y-119295402D01*
X148402690Y-119295402D01*
X148389151Y-119291774D01*
X148288109Y-119264700D01*
X148169491Y-119264700D01*
X148099367Y-119283489D01*
X148054909Y-119295402D01*
X147952191Y-119354707D01*
X147868307Y-119438591D01*
X147809002Y-119541309D01*
X147809001Y-119541314D01*
X147778300Y-119655891D01*
X123300500Y-119655891D01*
X123300500Y-117913768D01*
X125624500Y-117913768D01*
X125624500Y-118086231D01*
X125658145Y-118255373D01*
X125658145Y-118255375D01*
X125724139Y-118414700D01*
X125724145Y-118414712D01*
X125792660Y-118517249D01*
X125819955Y-118558099D01*
X125941901Y-118680045D01*
X126003034Y-118720893D01*
X126085287Y-118775854D01*
X126085299Y-118775860D01*
X126144153Y-118800238D01*
X126244626Y-118841855D01*
X126413771Y-118875500D01*
X126413772Y-118875500D01*
X126586228Y-118875500D01*
X126586229Y-118875500D01*
X126755374Y-118841855D01*
X126914705Y-118775858D01*
X126914707Y-118775856D01*
X126914712Y-118775854D01*
X126956115Y-118748188D01*
X127058099Y-118680045D01*
X127180045Y-118558099D01*
X127248188Y-118456115D01*
X127275854Y-118414712D01*
X127275860Y-118414700D01*
X127329953Y-118284107D01*
X127341855Y-118255374D01*
X127375500Y-118086229D01*
X127375500Y-117913771D01*
X127341855Y-117744626D01*
X127275858Y-117585295D01*
X127275854Y-117585287D01*
X127220893Y-117503034D01*
X127180045Y-117441901D01*
X127058099Y-117319955D01*
X126984745Y-117270941D01*
X126914712Y-117224145D01*
X126914700Y-117224139D01*
X126755374Y-117158145D01*
X126586231Y-117124500D01*
X126586229Y-117124500D01*
X126413771Y-117124500D01*
X126413768Y-117124500D01*
X126244626Y-117158145D01*
X126244624Y-117158145D01*
X126085299Y-117224139D01*
X126085287Y-117224145D01*
X125941901Y-117319955D01*
X125941897Y-117319958D01*
X125819958Y-117441897D01*
X125819955Y-117441901D01*
X125724145Y-117585287D01*
X125724139Y-117585299D01*
X125658145Y-117744624D01*
X125658145Y-117744626D01*
X125624500Y-117913768D01*
X123300500Y-117913768D01*
X123300500Y-113585287D01*
X125364800Y-113585287D01*
X125364800Y-114378487D01*
X125364800Y-114483513D01*
X125378808Y-114517330D01*
X125404991Y-114580543D01*
X125874991Y-115050544D01*
X125949256Y-115124808D01*
X125953890Y-115126728D01*
X126000416Y-115166464D01*
X126014700Y-115225959D01*
X125991286Y-115282487D01*
X125971007Y-115300507D01*
X125941901Y-115319954D01*
X125819958Y-115441897D01*
X125819955Y-115441901D01*
X125724145Y-115585287D01*
X125724139Y-115585299D01*
X125658145Y-115744624D01*
X125658145Y-115744626D01*
X125624500Y-115913768D01*
X125624500Y-116086231D01*
X125658145Y-116255373D01*
X125658145Y-116255375D01*
X125724139Y-116414700D01*
X125724145Y-116414712D01*
X125792660Y-116517249D01*
X125819955Y-116558099D01*
X125941901Y-116680045D01*
X126003034Y-116720893D01*
X126085287Y-116775854D01*
X126085299Y-116775860D01*
X126144153Y-116800238D01*
X126244626Y-116841855D01*
X126413771Y-116875500D01*
X126413772Y-116875500D01*
X126586228Y-116875500D01*
X126586229Y-116875500D01*
X126755374Y-116841855D01*
X126914705Y-116775858D01*
X126914707Y-116775856D01*
X126914712Y-116775854D01*
X126956115Y-116748188D01*
X127058099Y-116680045D01*
X127180045Y-116558099D01*
X127248188Y-116456115D01*
X127275854Y-116414712D01*
X127275859Y-116414703D01*
X127341855Y-116255374D01*
X127375500Y-116086229D01*
X127375500Y-115913771D01*
X127341855Y-115744626D01*
X127304745Y-115655034D01*
X127299944Y-115594038D01*
X127326204Y-115547147D01*
X127642857Y-115230496D01*
X127697373Y-115202719D01*
X127712860Y-115201500D01*
X127821348Y-115201500D01*
X127879539Y-115220407D01*
X127915503Y-115269907D01*
X127915503Y-115331093D01*
X127891352Y-115370504D01*
X127819958Y-115441897D01*
X127819955Y-115441901D01*
X127724145Y-115585287D01*
X127724139Y-115585299D01*
X127658145Y-115744624D01*
X127658145Y-115744626D01*
X127624500Y-115913768D01*
X127624500Y-116086231D01*
X127658145Y-116255373D01*
X127658145Y-116255375D01*
X127724139Y-116414700D01*
X127724145Y-116414712D01*
X127792660Y-116517249D01*
X127819955Y-116558099D01*
X127941901Y-116680045D01*
X128003034Y-116720893D01*
X128085287Y-116775854D01*
X128085299Y-116775860D01*
X128144153Y-116800238D01*
X128244626Y-116841855D01*
X128413771Y-116875500D01*
X128413772Y-116875500D01*
X128586228Y-116875500D01*
X128586229Y-116875500D01*
X128755374Y-116841855D01*
X128914705Y-116775858D01*
X128914707Y-116775856D01*
X128914712Y-116775854D01*
X128956115Y-116748188D01*
X129058099Y-116680045D01*
X129180045Y-116558099D01*
X129248188Y-116456115D01*
X129275854Y-116414712D01*
X129275855Y-116414708D01*
X129275858Y-116414705D01*
X129312968Y-116325114D01*
X129352705Y-116278589D01*
X129404432Y-116264000D01*
X135612012Y-116264000D01*
X135612013Y-116264000D01*
X135709044Y-116223808D01*
X141589857Y-110342996D01*
X141644374Y-110315219D01*
X141659861Y-110314000D01*
X145414840Y-110314000D01*
X145473031Y-110332907D01*
X145508995Y-110382407D01*
X145508995Y-110443593D01*
X145484844Y-110483004D01*
X144805144Y-111162704D01*
X144750627Y-111190481D01*
X144735140Y-111191700D01*
X144391187Y-111191700D01*
X144362763Y-111203472D01*
X144362762Y-111203471D01*
X144294160Y-111231889D01*
X144294156Y-111231891D01*
X144035056Y-111490992D01*
X144035055Y-111490991D01*
X143960791Y-111565256D01*
X143920599Y-111662289D01*
X143918697Y-111671852D01*
X143916177Y-111671350D01*
X143901693Y-111715929D01*
X143891604Y-111727742D01*
X139254907Y-116364438D01*
X139200390Y-116392215D01*
X139139958Y-116382644D01*
X139096693Y-116339379D01*
X139087122Y-116278947D01*
X139100500Y-116194483D01*
X139100500Y-116005515D01*
X139070941Y-115818886D01*
X139048543Y-115749953D01*
X139012547Y-115639168D01*
X138926760Y-115470801D01*
X138815690Y-115317927D01*
X138682073Y-115184310D01*
X138529199Y-115073240D01*
X138529198Y-115073239D01*
X138529196Y-115073238D01*
X138360832Y-114987453D01*
X138181113Y-114929058D01*
X137994484Y-114899500D01*
X137994481Y-114899500D01*
X137805519Y-114899500D01*
X137805516Y-114899500D01*
X137618886Y-114929058D01*
X137439167Y-114987453D01*
X137270803Y-115073238D01*
X137117928Y-115184309D01*
X136984309Y-115317928D01*
X136873238Y-115470803D01*
X136787453Y-115639167D01*
X136729058Y-115818886D01*
X136699500Y-116005515D01*
X136699500Y-116194484D01*
X136729058Y-116381113D01*
X136787453Y-116560832D01*
X136848192Y-116680041D01*
X136873240Y-116729199D01*
X136984310Y-116882073D01*
X137117927Y-117015690D01*
X137270801Y-117126760D01*
X137439168Y-117212547D01*
X137618882Y-117270940D01*
X137618883Y-117270940D01*
X137618886Y-117270941D01*
X137805516Y-117300500D01*
X137805519Y-117300500D01*
X137994484Y-117300500D01*
X138078949Y-117287122D01*
X138139381Y-117296693D01*
X138182646Y-117339958D01*
X138192217Y-117400390D01*
X138164440Y-117454906D01*
X137912345Y-117707003D01*
X137857828Y-117734781D01*
X137842341Y-117736000D01*
X129404432Y-117736000D01*
X129346241Y-117717093D01*
X129312968Y-117674886D01*
X129299891Y-117643316D01*
X129275858Y-117585295D01*
X129275856Y-117585293D01*
X129275854Y-117585287D01*
X129220893Y-117503034D01*
X129180045Y-117441901D01*
X129058099Y-117319955D01*
X128984745Y-117270941D01*
X128914712Y-117224145D01*
X128914700Y-117224139D01*
X128755374Y-117158145D01*
X128586231Y-117124500D01*
X128586229Y-117124500D01*
X128413771Y-117124500D01*
X128413768Y-117124500D01*
X128244626Y-117158145D01*
X128244624Y-117158145D01*
X128085299Y-117224139D01*
X128085287Y-117224145D01*
X127941901Y-117319955D01*
X127941897Y-117319958D01*
X127819958Y-117441897D01*
X127819955Y-117441901D01*
X127724145Y-117585287D01*
X127724139Y-117585299D01*
X127658145Y-117744624D01*
X127658145Y-117744626D01*
X127624500Y-117913768D01*
X127624500Y-118086231D01*
X127658145Y-118255373D01*
X127658145Y-118255375D01*
X127724139Y-118414700D01*
X127724145Y-118414712D01*
X127792660Y-118517249D01*
X127819955Y-118558099D01*
X127941901Y-118680045D01*
X128003034Y-118720893D01*
X128085287Y-118775854D01*
X128085299Y-118775860D01*
X128144153Y-118800238D01*
X128244626Y-118841855D01*
X128413771Y-118875500D01*
X128413772Y-118875500D01*
X128586228Y-118875500D01*
X128586229Y-118875500D01*
X128755374Y-118841855D01*
X128914705Y-118775858D01*
X128917806Y-118773785D01*
X128976688Y-118757170D01*
X129034095Y-118778339D01*
X129068095Y-118829207D01*
X129068442Y-118830468D01*
X129074101Y-118851588D01*
X129074102Y-118851589D01*
X129133407Y-118954308D01*
X129133409Y-118954310D01*
X129133411Y-118954313D01*
X129217287Y-119038189D01*
X129217289Y-119038190D01*
X129217291Y-119038192D01*
X129320010Y-119097497D01*
X129320011Y-119097497D01*
X129320014Y-119097499D01*
X129434591Y-119128200D01*
X129434593Y-119128200D01*
X129553207Y-119128200D01*
X129553209Y-119128200D01*
X129667786Y-119097499D01*
X129667788Y-119097497D01*
X129667790Y-119097497D01*
X129770508Y-119038192D01*
X129770508Y-119038191D01*
X129770513Y-119038189D01*
X129838007Y-118970694D01*
X129892522Y-118942919D01*
X129908009Y-118941700D01*
X144824512Y-118941700D01*
X144824513Y-118941700D01*
X144921544Y-118901508D01*
X146308961Y-117514091D01*
X147243500Y-117514091D01*
X147243500Y-117632709D01*
X147263407Y-117707003D01*
X147274202Y-117747290D01*
X147333507Y-117850008D01*
X147333509Y-117850010D01*
X147333511Y-117850013D01*
X147417387Y-117933889D01*
X147417389Y-117933890D01*
X147417391Y-117933892D01*
X147520110Y-117993197D01*
X147520111Y-117993197D01*
X147520114Y-117993199D01*
X147634691Y-118023900D01*
X147634693Y-118023900D01*
X147753307Y-118023900D01*
X147753309Y-118023900D01*
X147867886Y-117993199D01*
X147867888Y-117993197D01*
X147867890Y-117993197D01*
X147970608Y-117933892D01*
X147970608Y-117933891D01*
X147970613Y-117933889D01*
X147990734Y-117913768D01*
X167624500Y-117913768D01*
X167624500Y-118086231D01*
X167658145Y-118255373D01*
X167658145Y-118255375D01*
X167724139Y-118414700D01*
X167724145Y-118414712D01*
X167792660Y-118517249D01*
X167819955Y-118558099D01*
X167941901Y-118680045D01*
X168003034Y-118720893D01*
X168085287Y-118775854D01*
X168085299Y-118775860D01*
X168144153Y-118800238D01*
X168244626Y-118841855D01*
X168413771Y-118875500D01*
X168413772Y-118875500D01*
X168586228Y-118875500D01*
X168586229Y-118875500D01*
X168755374Y-118841855D01*
X168914705Y-118775858D01*
X168914707Y-118775856D01*
X168914712Y-118775854D01*
X168956115Y-118748188D01*
X169058099Y-118680045D01*
X169180045Y-118558099D01*
X169248188Y-118456115D01*
X169275854Y-118414712D01*
X169275860Y-118414700D01*
X169329953Y-118284107D01*
X169341855Y-118255374D01*
X169375500Y-118086229D01*
X169375500Y-117913771D01*
X169375499Y-117913768D01*
X169624500Y-117913768D01*
X169624500Y-118086231D01*
X169658145Y-118255373D01*
X169658145Y-118255375D01*
X169724139Y-118414700D01*
X169724145Y-118414712D01*
X169792660Y-118517249D01*
X169819955Y-118558099D01*
X169941901Y-118680045D01*
X170003034Y-118720893D01*
X170085287Y-118775854D01*
X170085299Y-118775860D01*
X170144153Y-118800238D01*
X170244626Y-118841855D01*
X170413771Y-118875500D01*
X170413772Y-118875500D01*
X170586228Y-118875500D01*
X170586229Y-118875500D01*
X170755374Y-118841855D01*
X170914705Y-118775858D01*
X170914707Y-118775856D01*
X170914712Y-118775854D01*
X170956115Y-118748188D01*
X171058099Y-118680045D01*
X171180045Y-118558099D01*
X171248188Y-118456115D01*
X171275854Y-118414712D01*
X171275860Y-118414700D01*
X171329953Y-118284107D01*
X171341855Y-118255374D01*
X171375500Y-118086229D01*
X171375500Y-117913771D01*
X171341855Y-117744626D01*
X171275858Y-117585295D01*
X171275854Y-117585287D01*
X171220893Y-117503034D01*
X171180045Y-117441901D01*
X171058099Y-117319955D01*
X170984745Y-117270941D01*
X170914712Y-117224145D01*
X170914700Y-117224139D01*
X170755374Y-117158145D01*
X170586231Y-117124500D01*
X170586229Y-117124500D01*
X170413771Y-117124500D01*
X170413768Y-117124500D01*
X170244626Y-117158145D01*
X170244624Y-117158145D01*
X170085299Y-117224139D01*
X170085287Y-117224145D01*
X169941901Y-117319955D01*
X169941897Y-117319958D01*
X169819958Y-117441897D01*
X169819955Y-117441901D01*
X169724145Y-117585287D01*
X169724139Y-117585299D01*
X169658145Y-117744624D01*
X169658145Y-117744626D01*
X169624500Y-117913768D01*
X169375499Y-117913768D01*
X169341855Y-117744626D01*
X169275858Y-117585295D01*
X169275854Y-117585287D01*
X169220893Y-117503034D01*
X169180045Y-117441901D01*
X169058099Y-117319955D01*
X168984745Y-117270941D01*
X168914712Y-117224145D01*
X168914700Y-117224139D01*
X168755374Y-117158145D01*
X168586231Y-117124500D01*
X168586229Y-117124500D01*
X168413771Y-117124500D01*
X168413768Y-117124500D01*
X168244626Y-117158145D01*
X168244624Y-117158145D01*
X168085299Y-117224139D01*
X168085287Y-117224145D01*
X167941901Y-117319955D01*
X167941897Y-117319958D01*
X167819958Y-117441897D01*
X167819955Y-117441901D01*
X167724145Y-117585287D01*
X167724139Y-117585299D01*
X167658145Y-117744624D01*
X167658145Y-117744626D01*
X167624500Y-117913768D01*
X147990734Y-117913768D01*
X148054489Y-117850013D01*
X148113799Y-117747286D01*
X148144500Y-117632709D01*
X148144500Y-117514091D01*
X148113799Y-117399514D01*
X148113797Y-117399511D01*
X148113797Y-117399509D01*
X148082725Y-117345692D01*
X148082719Y-117345682D01*
X148054489Y-117296787D01*
X147970613Y-117212911D01*
X147970610Y-117212909D01*
X147970608Y-117212907D01*
X147867889Y-117153602D01*
X147867890Y-117153602D01*
X147854351Y-117149974D01*
X147753309Y-117122900D01*
X147634691Y-117122900D01*
X147564567Y-117141689D01*
X147520109Y-117153602D01*
X147417391Y-117212907D01*
X147333507Y-117296791D01*
X147274202Y-117399509D01*
X147262844Y-117441897D01*
X147243500Y-117514091D01*
X146308961Y-117514091D01*
X147430056Y-116392996D01*
X147484573Y-116365219D01*
X147500060Y-116364000D01*
X147599640Y-116364000D01*
X147657831Y-116382907D01*
X147669643Y-116392995D01*
X148120504Y-116843857D01*
X148148281Y-116898373D01*
X148149500Y-116913860D01*
X148149500Y-117009309D01*
X148151210Y-117015690D01*
X148180201Y-117123887D01*
X148203818Y-117164792D01*
X148239511Y-117226613D01*
X148323387Y-117310489D01*
X148323389Y-117310490D01*
X148323391Y-117310492D01*
X148426110Y-117369797D01*
X148426111Y-117369797D01*
X148426114Y-117369799D01*
X148540691Y-117400500D01*
X148540693Y-117400500D01*
X148659307Y-117400500D01*
X148659309Y-117400500D01*
X148773886Y-117369799D01*
X148773888Y-117369797D01*
X148773890Y-117369797D01*
X148876608Y-117310492D01*
X148876608Y-117310491D01*
X148876613Y-117310489D01*
X148960489Y-117226613D01*
X148996182Y-117164792D01*
X149019797Y-117123890D01*
X149019798Y-117123887D01*
X149019799Y-117123886D01*
X149050500Y-117009309D01*
X149050500Y-116890691D01*
X149019799Y-116776114D01*
X149019797Y-116776111D01*
X149019797Y-116776109D01*
X148960492Y-116673391D01*
X148960490Y-116673389D01*
X148960489Y-116673387D01*
X148876613Y-116589511D01*
X148876610Y-116589509D01*
X148876608Y-116589507D01*
X148773889Y-116530202D01*
X148773890Y-116530202D01*
X148760351Y-116526574D01*
X148659309Y-116499500D01*
X148563861Y-116499500D01*
X148505670Y-116480593D01*
X148493857Y-116470504D01*
X148042996Y-116019643D01*
X148035798Y-116005515D01*
X157899500Y-116005515D01*
X157899500Y-116194484D01*
X157929058Y-116381113D01*
X157987453Y-116560832D01*
X158048192Y-116680041D01*
X158073240Y-116729199D01*
X158184310Y-116882073D01*
X158317927Y-117015690D01*
X158470801Y-117126760D01*
X158639168Y-117212547D01*
X158818882Y-117270940D01*
X158818883Y-117270940D01*
X158818886Y-117270941D01*
X159005516Y-117300500D01*
X159005519Y-117300500D01*
X159194484Y-117300500D01*
X159381113Y-117270941D01*
X159381114Y-117270940D01*
X159381118Y-117270940D01*
X159560832Y-117212547D01*
X159729199Y-117126760D01*
X159882073Y-117015690D01*
X160015690Y-116882073D01*
X160126760Y-116729199D01*
X160212547Y-116560832D01*
X160270940Y-116381118D01*
X160287179Y-116278589D01*
X160300500Y-116194484D01*
X160300500Y-116005515D01*
X160287652Y-115924394D01*
X160285969Y-115913768D01*
X167624500Y-115913768D01*
X167624500Y-116086231D01*
X167658145Y-116255373D01*
X167658145Y-116255375D01*
X167724139Y-116414700D01*
X167724145Y-116414712D01*
X167792660Y-116517249D01*
X167819955Y-116558099D01*
X167941901Y-116680045D01*
X168003034Y-116720893D01*
X168085287Y-116775854D01*
X168085299Y-116775860D01*
X168144153Y-116800238D01*
X168244626Y-116841855D01*
X168413771Y-116875500D01*
X168413772Y-116875500D01*
X168586228Y-116875500D01*
X168586229Y-116875500D01*
X168755374Y-116841855D01*
X168914705Y-116775858D01*
X168914707Y-116775856D01*
X168914712Y-116775854D01*
X168956115Y-116748188D01*
X169058099Y-116680045D01*
X169180045Y-116558099D01*
X169248188Y-116456115D01*
X169275854Y-116414712D01*
X169275859Y-116414703D01*
X169341855Y-116255374D01*
X169375500Y-116086229D01*
X169375500Y-115913771D01*
X169375499Y-115913768D01*
X169624500Y-115913768D01*
X169624500Y-116086231D01*
X169658145Y-116255373D01*
X169658145Y-116255375D01*
X169724139Y-116414700D01*
X169724145Y-116414712D01*
X169792660Y-116517249D01*
X169819955Y-116558099D01*
X169941901Y-116680045D01*
X170003034Y-116720893D01*
X170085287Y-116775854D01*
X170085299Y-116775860D01*
X170144153Y-116800238D01*
X170244626Y-116841855D01*
X170413771Y-116875500D01*
X170413772Y-116875500D01*
X170586228Y-116875500D01*
X170586229Y-116875500D01*
X170755374Y-116841855D01*
X170914705Y-116775858D01*
X170914707Y-116775856D01*
X170914712Y-116775854D01*
X170956115Y-116748188D01*
X171058099Y-116680045D01*
X171180045Y-116558099D01*
X171248188Y-116456115D01*
X171275854Y-116414712D01*
X171275859Y-116414703D01*
X171341855Y-116255374D01*
X171375500Y-116086229D01*
X171375500Y-115913771D01*
X171341855Y-115744626D01*
X171298173Y-115639168D01*
X171275860Y-115585299D01*
X171275854Y-115585287D01*
X171220893Y-115503034D01*
X171180045Y-115441901D01*
X171058099Y-115319955D01*
X171017249Y-115292660D01*
X170914712Y-115224145D01*
X170914700Y-115224139D01*
X170755374Y-115158145D01*
X170586231Y-115124500D01*
X170586229Y-115124500D01*
X170413771Y-115124500D01*
X170413768Y-115124500D01*
X170244626Y-115158145D01*
X170244624Y-115158145D01*
X170085299Y-115224139D01*
X170085287Y-115224145D01*
X169941901Y-115319955D01*
X169941897Y-115319958D01*
X169819958Y-115441897D01*
X169819955Y-115441901D01*
X169724145Y-115585287D01*
X169724139Y-115585299D01*
X169658145Y-115744624D01*
X169658145Y-115744626D01*
X169624500Y-115913768D01*
X169375499Y-115913768D01*
X169341855Y-115744626D01*
X169298173Y-115639168D01*
X169275860Y-115585299D01*
X169275854Y-115585287D01*
X169220893Y-115503034D01*
X169180045Y-115441901D01*
X169058099Y-115319955D01*
X169017249Y-115292660D01*
X168914712Y-115224145D01*
X168914700Y-115224139D01*
X168755374Y-115158145D01*
X168586231Y-115124500D01*
X168586229Y-115124500D01*
X168413771Y-115124500D01*
X168413768Y-115124500D01*
X168244626Y-115158145D01*
X168244624Y-115158145D01*
X168085299Y-115224139D01*
X168085287Y-115224145D01*
X167941901Y-115319955D01*
X167941897Y-115319958D01*
X167819958Y-115441897D01*
X167819955Y-115441901D01*
X167724145Y-115585287D01*
X167724139Y-115585299D01*
X167658145Y-115744624D01*
X167658145Y-115744626D01*
X167624500Y-115913768D01*
X160285969Y-115913768D01*
X160270941Y-115818886D01*
X160248543Y-115749953D01*
X160212547Y-115639168D01*
X160126760Y-115470801D01*
X160015690Y-115317927D01*
X159882073Y-115184310D01*
X159729199Y-115073240D01*
X159729198Y-115073239D01*
X159729196Y-115073238D01*
X159560832Y-114987453D01*
X159381113Y-114929058D01*
X159194484Y-114899500D01*
X159194481Y-114899500D01*
X159005519Y-114899500D01*
X159005516Y-114899500D01*
X158818886Y-114929058D01*
X158639167Y-114987453D01*
X158470803Y-115073238D01*
X158317928Y-115184309D01*
X158184309Y-115317928D01*
X158073238Y-115470803D01*
X157987453Y-115639167D01*
X157929058Y-115818886D01*
X157899500Y-116005515D01*
X148035798Y-116005515D01*
X148015219Y-115965126D01*
X148014000Y-115949639D01*
X148014000Y-114904904D01*
X153134500Y-114904904D01*
X153134500Y-115095095D01*
X153171602Y-115281624D01*
X153244384Y-115457335D01*
X153335726Y-115594038D01*
X153350047Y-115615471D01*
X153484529Y-115749953D01*
X153642664Y-115855615D01*
X153818374Y-115928397D01*
X154004907Y-115965500D01*
X154004908Y-115965500D01*
X154195092Y-115965500D01*
X154195093Y-115965500D01*
X154381626Y-115928397D01*
X154557336Y-115855615D01*
X154715471Y-115749953D01*
X154849953Y-115615471D01*
X154955615Y-115457336D01*
X155028397Y-115281626D01*
X155065500Y-115095093D01*
X155065500Y-114904907D01*
X155028397Y-114718374D01*
X154955615Y-114542664D01*
X154849953Y-114384529D01*
X154715471Y-114250047D01*
X154557336Y-114144385D01*
X154557337Y-114144385D01*
X154557335Y-114144384D01*
X154381624Y-114071602D01*
X154195095Y-114034500D01*
X154195093Y-114034500D01*
X154004907Y-114034500D01*
X154004904Y-114034500D01*
X153818375Y-114071602D01*
X153642664Y-114144384D01*
X153484532Y-114250044D01*
X153350044Y-114384532D01*
X153244384Y-114542664D01*
X153171602Y-114718375D01*
X153134500Y-114904904D01*
X148014000Y-114904904D01*
X148014000Y-110333132D01*
X148032907Y-110274941D01*
X148082407Y-110238977D01*
X148138622Y-110237506D01*
X148238991Y-110264400D01*
X148238992Y-110264400D01*
X148357607Y-110264400D01*
X148357609Y-110264400D01*
X148472186Y-110233699D01*
X148472188Y-110233697D01*
X148472190Y-110233697D01*
X148574908Y-110174392D01*
X148574908Y-110174391D01*
X148574913Y-110174389D01*
X148658789Y-110090513D01*
X148661261Y-110086231D01*
X148718097Y-109987790D01*
X148718097Y-109987788D01*
X148718099Y-109987786D01*
X148748800Y-109873209D01*
X148748800Y-109754591D01*
X148718099Y-109640014D01*
X148718097Y-109640011D01*
X148718097Y-109640009D01*
X148658792Y-109537291D01*
X148658790Y-109537289D01*
X148658789Y-109537287D01*
X148574913Y-109453411D01*
X148574910Y-109453409D01*
X148574908Y-109453407D01*
X148472189Y-109394102D01*
X148472187Y-109394101D01*
X148434659Y-109384045D01*
X148383346Y-109350721D01*
X148361420Y-109293599D01*
X148377256Y-109234498D01*
X148424807Y-109195994D01*
X148432825Y-109193389D01*
X148433527Y-109193097D01*
X148433536Y-109193095D01*
X148541964Y-109130495D01*
X148630495Y-109041964D01*
X148664264Y-108983472D01*
X148709732Y-108942532D01*
X148770582Y-108936136D01*
X148823571Y-108966728D01*
X148835733Y-108983469D01*
X148869505Y-109041964D01*
X148957005Y-109129464D01*
X148984781Y-109183979D01*
X148986000Y-109199466D01*
X148986000Y-109597487D01*
X148986000Y-109906387D01*
X148986000Y-110011413D01*
X149000209Y-110045717D01*
X149026190Y-110108441D01*
X149026191Y-110108442D01*
X149026192Y-110108444D01*
X151967892Y-113050144D01*
X151967891Y-113050144D01*
X152042156Y-113124408D01*
X152139187Y-113164600D01*
X167858248Y-113164600D01*
X167916439Y-113183507D01*
X167952403Y-113233007D01*
X167952403Y-113294193D01*
X167928252Y-113333604D01*
X167819958Y-113441897D01*
X167819955Y-113441901D01*
X167724145Y-113585287D01*
X167724139Y-113585299D01*
X167658145Y-113744624D01*
X167658145Y-113744626D01*
X167624500Y-113913768D01*
X167624500Y-114086231D01*
X167636068Y-114144384D01*
X167657901Y-114254149D01*
X167658145Y-114255373D01*
X167658145Y-114255375D01*
X167724139Y-114414700D01*
X167724145Y-114414712D01*
X167780549Y-114499124D01*
X167819955Y-114558099D01*
X167941901Y-114680045D01*
X167999261Y-114718372D01*
X168085287Y-114775854D01*
X168085299Y-114775860D01*
X168144153Y-114800238D01*
X168244626Y-114841855D01*
X168413771Y-114875500D01*
X168413772Y-114875500D01*
X168586228Y-114875500D01*
X168586229Y-114875500D01*
X168755374Y-114841855D01*
X168914705Y-114775858D01*
X168914707Y-114775856D01*
X168914712Y-114775854D01*
X168956115Y-114748188D01*
X169058099Y-114680045D01*
X169180045Y-114558099D01*
X169248188Y-114456115D01*
X169275854Y-114414712D01*
X169275860Y-114414700D01*
X169290860Y-114378487D01*
X169341855Y-114255374D01*
X169375500Y-114086229D01*
X169375500Y-113913771D01*
X169341855Y-113744626D01*
X169304745Y-113655034D01*
X169275860Y-113585299D01*
X169275854Y-113585287D01*
X169211018Y-113488256D01*
X169180045Y-113441901D01*
X169071748Y-113333604D01*
X169043971Y-113279087D01*
X169053542Y-113218655D01*
X169096807Y-113175390D01*
X169141752Y-113164600D01*
X169651912Y-113164600D01*
X169651913Y-113164600D01*
X169748944Y-113124408D01*
X170047148Y-112826203D01*
X170101663Y-112798428D01*
X170155033Y-112804744D01*
X170244626Y-112841855D01*
X170413771Y-112875500D01*
X170413772Y-112875500D01*
X170586228Y-112875500D01*
X170586229Y-112875500D01*
X170755374Y-112841855D01*
X170914705Y-112775858D01*
X170956199Y-112748132D01*
X171015085Y-112731524D01*
X171072489Y-112752701D01*
X171106483Y-112803574D01*
X171110200Y-112830448D01*
X171110200Y-112975440D01*
X171091293Y-113033631D01*
X171081204Y-113045443D01*
X170952852Y-113173794D01*
X170898337Y-113201571D01*
X170844965Y-113195254D01*
X170755374Y-113158145D01*
X170586231Y-113124500D01*
X170586229Y-113124500D01*
X170413771Y-113124500D01*
X170413768Y-113124500D01*
X170244626Y-113158145D01*
X170244624Y-113158145D01*
X170085299Y-113224139D01*
X170085287Y-113224145D01*
X169941901Y-113319955D01*
X169941897Y-113319958D01*
X169819958Y-113441897D01*
X169819955Y-113441901D01*
X169724145Y-113585287D01*
X169724139Y-113585299D01*
X169658145Y-113744624D01*
X169658145Y-113744626D01*
X169624500Y-113913768D01*
X169624500Y-114086231D01*
X169636068Y-114144384D01*
X169657901Y-114254149D01*
X169658145Y-114255373D01*
X169658145Y-114255375D01*
X169724139Y-114414700D01*
X169724145Y-114414712D01*
X169780549Y-114499124D01*
X169819955Y-114558099D01*
X169941901Y-114680045D01*
X169999261Y-114718372D01*
X170085287Y-114775854D01*
X170085299Y-114775860D01*
X170144153Y-114800238D01*
X170244626Y-114841855D01*
X170413771Y-114875500D01*
X170413772Y-114875500D01*
X170586228Y-114875500D01*
X170586229Y-114875500D01*
X170755374Y-114841855D01*
X170914705Y-114775858D01*
X170914707Y-114775856D01*
X170914712Y-114775854D01*
X170956115Y-114748188D01*
X171058099Y-114680045D01*
X171180045Y-114558099D01*
X171248188Y-114456115D01*
X171275854Y-114414712D01*
X171275860Y-114414700D01*
X171290860Y-114378487D01*
X171341855Y-114255374D01*
X171375500Y-114086229D01*
X171375500Y-113913771D01*
X171341855Y-113744626D01*
X171304744Y-113655033D01*
X171299944Y-113594038D01*
X171326206Y-113547145D01*
X171431454Y-113441897D01*
X171598008Y-113275344D01*
X171602707Y-113264000D01*
X171638200Y-113178313D01*
X171638200Y-111509887D01*
X171625034Y-111478101D01*
X171598009Y-111412856D01*
X171027759Y-110842607D01*
X170999984Y-110788093D01*
X171009555Y-110727661D01*
X171042764Y-110690291D01*
X171058099Y-110680045D01*
X171180045Y-110558099D01*
X171256556Y-110443593D01*
X171275854Y-110414712D01*
X171275860Y-110414700D01*
X171305930Y-110342104D01*
X171341855Y-110255374D01*
X171375500Y-110086229D01*
X171375500Y-109913771D01*
X171341855Y-109744626D01*
X171300125Y-109643881D01*
X171275860Y-109585299D01*
X171275854Y-109585287D01*
X171211717Y-109489301D01*
X171180045Y-109441901D01*
X171058099Y-109319955D01*
X170998452Y-109280100D01*
X170914712Y-109224145D01*
X170914700Y-109224139D01*
X170755374Y-109158145D01*
X170586231Y-109124500D01*
X170586229Y-109124500D01*
X170413771Y-109124500D01*
X170413768Y-109124500D01*
X170244626Y-109158145D01*
X170244624Y-109158145D01*
X170085299Y-109224139D01*
X170085287Y-109224145D01*
X169941901Y-109319955D01*
X169941897Y-109319958D01*
X169819958Y-109441897D01*
X169819955Y-109441901D01*
X169724145Y-109585287D01*
X169724139Y-109585299D01*
X169658145Y-109744624D01*
X169658145Y-109744626D01*
X169624500Y-109913768D01*
X169624500Y-109913771D01*
X169624500Y-110086229D01*
X169654883Y-110238977D01*
X169658145Y-110255373D01*
X169658145Y-110255375D01*
X169724139Y-110414700D01*
X169724145Y-110414712D01*
X169792660Y-110517249D01*
X169819955Y-110558099D01*
X169819958Y-110558102D01*
X169828852Y-110566996D01*
X169856629Y-110621513D01*
X169847058Y-110681945D01*
X169803793Y-110725210D01*
X169758848Y-110736000D01*
X169241152Y-110736000D01*
X169182961Y-110717093D01*
X169146997Y-110667593D01*
X169146997Y-110606407D01*
X169171148Y-110566996D01*
X169180045Y-110558099D01*
X169256556Y-110443593D01*
X169275854Y-110414712D01*
X169275860Y-110414700D01*
X169305930Y-110342104D01*
X169341855Y-110255374D01*
X169375500Y-110086229D01*
X169375500Y-109913771D01*
X169341855Y-109744626D01*
X169300125Y-109643881D01*
X169275860Y-109585299D01*
X169275854Y-109585287D01*
X169189133Y-109455502D01*
X169172524Y-109396614D01*
X169193701Y-109339210D01*
X169244575Y-109305217D01*
X169271448Y-109301500D01*
X169515012Y-109301500D01*
X169515013Y-109301500D01*
X169612044Y-109261308D01*
X170047148Y-108826203D01*
X170101663Y-108798428D01*
X170155033Y-108804744D01*
X170244626Y-108841855D01*
X170413771Y-108875500D01*
X170413772Y-108875500D01*
X170586228Y-108875500D01*
X170586229Y-108875500D01*
X170755374Y-108841855D01*
X170914705Y-108775858D01*
X170914707Y-108775856D01*
X170914712Y-108775854D01*
X170965666Y-108741807D01*
X171058099Y-108680045D01*
X171180045Y-108558099D01*
X171263354Y-108433419D01*
X171275854Y-108414712D01*
X171275860Y-108414700D01*
X171282458Y-108398771D01*
X171341855Y-108255374D01*
X171375500Y-108086229D01*
X171375500Y-107913771D01*
X171341855Y-107744626D01*
X171282638Y-107601663D01*
X171275860Y-107585299D01*
X171275854Y-107585287D01*
X171215604Y-107495119D01*
X171180045Y-107441901D01*
X171058099Y-107319955D01*
X171002578Y-107282857D01*
X170914712Y-107224145D01*
X170914700Y-107224139D01*
X170755374Y-107158145D01*
X170586231Y-107124500D01*
X170586229Y-107124500D01*
X170413771Y-107124500D01*
X170413768Y-107124500D01*
X170244626Y-107158145D01*
X170244624Y-107158145D01*
X170085299Y-107224139D01*
X170085287Y-107224145D01*
X169941901Y-107319955D01*
X169941897Y-107319958D01*
X169819958Y-107441897D01*
X169819955Y-107441901D01*
X169724145Y-107585287D01*
X169724139Y-107585299D01*
X169658145Y-107744624D01*
X169658145Y-107744626D01*
X169624500Y-107913768D01*
X169624500Y-108086231D01*
X169658145Y-108255373D01*
X169658145Y-108255375D01*
X169695254Y-108344964D01*
X169700055Y-108405960D01*
X169673794Y-108452852D01*
X169596675Y-108529972D01*
X169446603Y-108680045D01*
X169382145Y-108744503D01*
X169327628Y-108772281D01*
X169312141Y-108773500D01*
X169203652Y-108773500D01*
X169145461Y-108754593D01*
X169109497Y-108705093D01*
X169109497Y-108643907D01*
X169133648Y-108604496D01*
X169155737Y-108582407D01*
X169180045Y-108558099D01*
X169263354Y-108433419D01*
X169275854Y-108414712D01*
X169275860Y-108414700D01*
X169282458Y-108398771D01*
X169341855Y-108255374D01*
X169375500Y-108086229D01*
X169375500Y-107913771D01*
X169341855Y-107744626D01*
X169282638Y-107601663D01*
X169275860Y-107585299D01*
X169275854Y-107585287D01*
X169215604Y-107495119D01*
X169180045Y-107441901D01*
X169058099Y-107319955D01*
X169002578Y-107282857D01*
X168914712Y-107224145D01*
X168914700Y-107224139D01*
X168755374Y-107158145D01*
X168586231Y-107124500D01*
X168586229Y-107124500D01*
X168413771Y-107124500D01*
X168413768Y-107124500D01*
X168244627Y-107158144D01*
X168155034Y-107195254D01*
X168094037Y-107200053D01*
X168047146Y-107173793D01*
X167242857Y-106369504D01*
X164805553Y-103932201D01*
X164777778Y-103877687D01*
X164787349Y-103817255D01*
X164830614Y-103773990D01*
X164875559Y-103763200D01*
X164957007Y-103763200D01*
X164957009Y-103763200D01*
X165071586Y-103732499D01*
X165071588Y-103732497D01*
X165071590Y-103732497D01*
X165174308Y-103673192D01*
X165174308Y-103673191D01*
X165174313Y-103673189D01*
X165258189Y-103589313D01*
X165260509Y-103585295D01*
X165317497Y-103486590D01*
X165317497Y-103486588D01*
X165317499Y-103486586D01*
X165335615Y-103418976D01*
X165368938Y-103367664D01*
X165426060Y-103345737D01*
X165485160Y-103361573D01*
X165501244Y-103374596D01*
X166621765Y-104495118D01*
X167673793Y-105547146D01*
X167701570Y-105601663D01*
X167695254Y-105655034D01*
X167658144Y-105744627D01*
X167624500Y-105913768D01*
X167624500Y-106086231D01*
X167658145Y-106255373D01*
X167658145Y-106255375D01*
X167724139Y-106414700D01*
X167724145Y-106414712D01*
X167786456Y-106507965D01*
X167819955Y-106558099D01*
X167941901Y-106680045D01*
X167982248Y-106707004D01*
X168085287Y-106775854D01*
X168085299Y-106775860D01*
X168139422Y-106798278D01*
X168244626Y-106841855D01*
X168413771Y-106875500D01*
X168413772Y-106875500D01*
X168586228Y-106875500D01*
X168586229Y-106875500D01*
X168755374Y-106841855D01*
X168914705Y-106775858D01*
X168914707Y-106775856D01*
X168914712Y-106775854D01*
X168957210Y-106747457D01*
X169058099Y-106680045D01*
X169180045Y-106558099D01*
X169248188Y-106456115D01*
X169275854Y-106414712D01*
X169275860Y-106414700D01*
X169341855Y-106255374D01*
X169375500Y-106086229D01*
X169375500Y-105913771D01*
X169375499Y-105913768D01*
X169624500Y-105913768D01*
X169624500Y-106086231D01*
X169658145Y-106255373D01*
X169658145Y-106255375D01*
X169724139Y-106414700D01*
X169724145Y-106414712D01*
X169786456Y-106507965D01*
X169819955Y-106558099D01*
X169941901Y-106680045D01*
X169982248Y-106707004D01*
X170085287Y-106775854D01*
X170085299Y-106775860D01*
X170139422Y-106798278D01*
X170244626Y-106841855D01*
X170413771Y-106875500D01*
X170413772Y-106875500D01*
X170586228Y-106875500D01*
X170586229Y-106875500D01*
X170755374Y-106841855D01*
X170914705Y-106775858D01*
X170914707Y-106775856D01*
X170914712Y-106775854D01*
X170957210Y-106747457D01*
X171058099Y-106680045D01*
X171180045Y-106558099D01*
X171248188Y-106456115D01*
X171275854Y-106414712D01*
X171275860Y-106414700D01*
X171341855Y-106255374D01*
X171375500Y-106086229D01*
X171375500Y-105913771D01*
X171341855Y-105744626D01*
X171282638Y-105601663D01*
X171275860Y-105585299D01*
X171275854Y-105585287D01*
X171209511Y-105486000D01*
X171180045Y-105441901D01*
X171058099Y-105319955D01*
X171013669Y-105290268D01*
X170914712Y-105224145D01*
X170914700Y-105224139D01*
X170755374Y-105158145D01*
X170586231Y-105124500D01*
X170586229Y-105124500D01*
X170413771Y-105124500D01*
X170413768Y-105124500D01*
X170244626Y-105158145D01*
X170244624Y-105158145D01*
X170085299Y-105224139D01*
X170085287Y-105224145D01*
X169941901Y-105319955D01*
X169941897Y-105319958D01*
X169819958Y-105441897D01*
X169819955Y-105441901D01*
X169724145Y-105585287D01*
X169724139Y-105585299D01*
X169658145Y-105744624D01*
X169658145Y-105744626D01*
X169624500Y-105913768D01*
X169375499Y-105913768D01*
X169341855Y-105744626D01*
X169282638Y-105601663D01*
X169275860Y-105585299D01*
X169275854Y-105585287D01*
X169209511Y-105486000D01*
X169180045Y-105441901D01*
X169058099Y-105319955D01*
X169013669Y-105290268D01*
X168914712Y-105224145D01*
X168914700Y-105224139D01*
X168755374Y-105158145D01*
X168586231Y-105124500D01*
X168586229Y-105124500D01*
X168413771Y-105124500D01*
X168413768Y-105124500D01*
X168244627Y-105158144D01*
X168155034Y-105195254D01*
X168094037Y-105200053D01*
X168047146Y-105173793D01*
X166898143Y-104024790D01*
X165734655Y-102861303D01*
X165706879Y-102806787D01*
X165716450Y-102746355D01*
X165759715Y-102703090D01*
X165804660Y-102692300D01*
X166777940Y-102692300D01*
X166836131Y-102711207D01*
X166847944Y-102721296D01*
X167673793Y-103547145D01*
X167701570Y-103601662D01*
X167695254Y-103655033D01*
X167658144Y-103744627D01*
X167624500Y-103913768D01*
X167624500Y-104086231D01*
X167658145Y-104255373D01*
X167658145Y-104255375D01*
X167724139Y-104414700D01*
X167724145Y-104414712D01*
X167777872Y-104495118D01*
X167819955Y-104558099D01*
X167941901Y-104680045D01*
X168003034Y-104720893D01*
X168085287Y-104775854D01*
X168085299Y-104775860D01*
X168142372Y-104799500D01*
X168244626Y-104841855D01*
X168413771Y-104875500D01*
X168413772Y-104875500D01*
X168586228Y-104875500D01*
X168586229Y-104875500D01*
X168755374Y-104841855D01*
X168914705Y-104775858D01*
X168914707Y-104775856D01*
X168914712Y-104775854D01*
X168956740Y-104747771D01*
X169058099Y-104680045D01*
X169180045Y-104558099D01*
X169248188Y-104456115D01*
X169275854Y-104414712D01*
X169275860Y-104414700D01*
X169341855Y-104255374D01*
X169375500Y-104086229D01*
X169375500Y-103913771D01*
X169375499Y-103913768D01*
X169624500Y-103913768D01*
X169624500Y-104086231D01*
X169658145Y-104255373D01*
X169658145Y-104255375D01*
X169724139Y-104414700D01*
X169724145Y-104414712D01*
X169777872Y-104495118D01*
X169819955Y-104558099D01*
X169941901Y-104680045D01*
X170003034Y-104720893D01*
X170085287Y-104775854D01*
X170085299Y-104775860D01*
X170142372Y-104799500D01*
X170244626Y-104841855D01*
X170413771Y-104875500D01*
X170413772Y-104875500D01*
X170586228Y-104875500D01*
X170586229Y-104875500D01*
X170755374Y-104841855D01*
X170914705Y-104775858D01*
X170914707Y-104775856D01*
X170914712Y-104775854D01*
X170956740Y-104747771D01*
X171058099Y-104680045D01*
X171180045Y-104558099D01*
X171248188Y-104456115D01*
X171275854Y-104414712D01*
X171275860Y-104414700D01*
X171341855Y-104255374D01*
X171375500Y-104086229D01*
X171375500Y-103913771D01*
X171341855Y-103744626D01*
X171304745Y-103655034D01*
X171275860Y-103585299D01*
X171275854Y-103585287D01*
X171217676Y-103498220D01*
X171180045Y-103441901D01*
X171058099Y-103319955D01*
X170999190Y-103280593D01*
X170914712Y-103224145D01*
X170914700Y-103224139D01*
X170755374Y-103158145D01*
X170586231Y-103124500D01*
X170586229Y-103124500D01*
X170413771Y-103124500D01*
X170413768Y-103124500D01*
X170244626Y-103158145D01*
X170244624Y-103158145D01*
X170085299Y-103224139D01*
X170085287Y-103224145D01*
X169941901Y-103319955D01*
X169941897Y-103319958D01*
X169819958Y-103441897D01*
X169819955Y-103441901D01*
X169724145Y-103585287D01*
X169724139Y-103585299D01*
X169658145Y-103744624D01*
X169658145Y-103744626D01*
X169624500Y-103913768D01*
X169375499Y-103913768D01*
X169341855Y-103744626D01*
X169304745Y-103655034D01*
X169275860Y-103585299D01*
X169275854Y-103585287D01*
X169217676Y-103498220D01*
X169180045Y-103441901D01*
X169058099Y-103319955D01*
X168999190Y-103280593D01*
X168914712Y-103224145D01*
X168914700Y-103224139D01*
X168755374Y-103158145D01*
X168586231Y-103124500D01*
X168586229Y-103124500D01*
X168413771Y-103124500D01*
X168413768Y-103124500D01*
X168244627Y-103158144D01*
X168155033Y-103195254D01*
X168094036Y-103200053D01*
X168047145Y-103173793D01*
X167565652Y-102692300D01*
X167077844Y-102204492D01*
X167077842Y-102204491D01*
X167077841Y-102204490D01*
X167009230Y-102176071D01*
X166980813Y-102164300D01*
X153419187Y-102164300D01*
X153390763Y-102176072D01*
X153390762Y-102176071D01*
X153322160Y-102204489D01*
X153322157Y-102204490D01*
X153322156Y-102204491D01*
X153322155Y-102204491D01*
X153322153Y-102204493D01*
X153069645Y-102457003D01*
X153015128Y-102484781D01*
X152999641Y-102486000D01*
X152699466Y-102486000D01*
X152641275Y-102467093D01*
X152629468Y-102457009D01*
X152541964Y-102369505D01*
X152483472Y-102335735D01*
X152442532Y-102290268D01*
X152436136Y-102229418D01*
X152466728Y-102176429D01*
X152483469Y-102164266D01*
X152541964Y-102130495D01*
X152629464Y-102042994D01*
X152683979Y-102015219D01*
X152699466Y-102014000D01*
X153202512Y-102014000D01*
X153202513Y-102014000D01*
X153299544Y-101973808D01*
X153359584Y-101913768D01*
X167624500Y-101913768D01*
X167624500Y-102086231D01*
X167658145Y-102255373D01*
X167658145Y-102255375D01*
X167724139Y-102414700D01*
X167724145Y-102414712D01*
X167786456Y-102507965D01*
X167819955Y-102558099D01*
X167941901Y-102680045D01*
X167984198Y-102708307D01*
X168085287Y-102775854D01*
X168085299Y-102775860D01*
X168144153Y-102800238D01*
X168244626Y-102841855D01*
X168413771Y-102875500D01*
X168413772Y-102875500D01*
X168586228Y-102875500D01*
X168586229Y-102875500D01*
X168755374Y-102841855D01*
X168914705Y-102775858D01*
X168914707Y-102775856D01*
X168914712Y-102775854D01*
X168958859Y-102746355D01*
X169058099Y-102680045D01*
X169180045Y-102558099D01*
X169248188Y-102456115D01*
X169275854Y-102414712D01*
X169275860Y-102414700D01*
X169294581Y-102369504D01*
X169341855Y-102255374D01*
X169375500Y-102086229D01*
X169375500Y-101913771D01*
X169375499Y-101913768D01*
X169624500Y-101913768D01*
X169624500Y-102086231D01*
X169658145Y-102255373D01*
X169658145Y-102255375D01*
X169724139Y-102414700D01*
X169724145Y-102414712D01*
X169786456Y-102507965D01*
X169819955Y-102558099D01*
X169941901Y-102680045D01*
X169984198Y-102708307D01*
X170085287Y-102775854D01*
X170085299Y-102775860D01*
X170144153Y-102800238D01*
X170244626Y-102841855D01*
X170413771Y-102875500D01*
X170413772Y-102875500D01*
X170586228Y-102875500D01*
X170586229Y-102875500D01*
X170755374Y-102841855D01*
X170914705Y-102775858D01*
X170914707Y-102775856D01*
X170914712Y-102775854D01*
X170958859Y-102746355D01*
X171058099Y-102680045D01*
X171180045Y-102558099D01*
X171248188Y-102456115D01*
X171275854Y-102414712D01*
X171275860Y-102414700D01*
X171294581Y-102369504D01*
X171341855Y-102255374D01*
X171375500Y-102086229D01*
X171375500Y-101913771D01*
X171341855Y-101744626D01*
X171275858Y-101585295D01*
X171275854Y-101585287D01*
X171209511Y-101486000D01*
X171180045Y-101441901D01*
X171058099Y-101319955D01*
X171017249Y-101292660D01*
X170914712Y-101224145D01*
X170914700Y-101224139D01*
X170755374Y-101158145D01*
X170586231Y-101124500D01*
X170586229Y-101124500D01*
X170413771Y-101124500D01*
X170413768Y-101124500D01*
X170244626Y-101158145D01*
X170244624Y-101158145D01*
X170085299Y-101224139D01*
X170085287Y-101224145D01*
X169941901Y-101319955D01*
X169941897Y-101319958D01*
X169819958Y-101441897D01*
X169819955Y-101441901D01*
X169724145Y-101585287D01*
X169724139Y-101585299D01*
X169658145Y-101744624D01*
X169658145Y-101744626D01*
X169624500Y-101913768D01*
X169375499Y-101913768D01*
X169341855Y-101744626D01*
X169275858Y-101585295D01*
X169275854Y-101585287D01*
X169209511Y-101486000D01*
X169180045Y-101441901D01*
X169058099Y-101319955D01*
X169017249Y-101292660D01*
X168914712Y-101224145D01*
X168914700Y-101224139D01*
X168755374Y-101158145D01*
X168586231Y-101124500D01*
X168586229Y-101124500D01*
X168413771Y-101124500D01*
X168413768Y-101124500D01*
X168244626Y-101158145D01*
X168244624Y-101158145D01*
X168085299Y-101224139D01*
X168085287Y-101224145D01*
X167941901Y-101319955D01*
X167941897Y-101319958D01*
X167819958Y-101441897D01*
X167819955Y-101441901D01*
X167724145Y-101585287D01*
X167724139Y-101585299D01*
X167658145Y-101744624D01*
X167658145Y-101744626D01*
X167624500Y-101913768D01*
X153359584Y-101913768D01*
X153373808Y-101899544D01*
X153414000Y-101802513D01*
X153414000Y-101371159D01*
X153432907Y-101312968D01*
X153442996Y-101301156D01*
X153619652Y-101124500D01*
X153803653Y-100940497D01*
X153858170Y-100912720D01*
X153918602Y-100922291D01*
X153959393Y-100961000D01*
X153982609Y-101001210D01*
X153982611Y-101001213D01*
X154066487Y-101085089D01*
X154066489Y-101085090D01*
X154066491Y-101085092D01*
X154169210Y-101144397D01*
X154169211Y-101144397D01*
X154169214Y-101144399D01*
X154283791Y-101175100D01*
X154283793Y-101175100D01*
X154402407Y-101175100D01*
X154402409Y-101175100D01*
X154516986Y-101144399D01*
X154516988Y-101144397D01*
X154516990Y-101144397D01*
X154619708Y-101085092D01*
X154619708Y-101085091D01*
X154619713Y-101085089D01*
X154687207Y-101017594D01*
X154741722Y-100989819D01*
X154757209Y-100988600D01*
X167827912Y-100988600D01*
X167827913Y-100988600D01*
X167924944Y-100948408D01*
X168047145Y-100826205D01*
X168101662Y-100798428D01*
X168155033Y-100804744D01*
X168244626Y-100841855D01*
X168413771Y-100875500D01*
X168413772Y-100875500D01*
X168586228Y-100875500D01*
X168586229Y-100875500D01*
X168755374Y-100841855D01*
X168914705Y-100775858D01*
X168914707Y-100775856D01*
X168914712Y-100775854D01*
X168956115Y-100748188D01*
X169058099Y-100680045D01*
X169180045Y-100558099D01*
X169257825Y-100441693D01*
X169275854Y-100414712D01*
X169275860Y-100414700D01*
X169292931Y-100373486D01*
X169341855Y-100255374D01*
X169375500Y-100086229D01*
X169375500Y-99913771D01*
X169375499Y-99913768D01*
X169624500Y-99913768D01*
X169624500Y-100086231D01*
X169642472Y-100176580D01*
X169653229Y-100230662D01*
X169658145Y-100255373D01*
X169658145Y-100255375D01*
X169724139Y-100414700D01*
X169724145Y-100414712D01*
X169780876Y-100499614D01*
X169819955Y-100558099D01*
X169941901Y-100680045D01*
X170000441Y-100719160D01*
X170085287Y-100775854D01*
X170085299Y-100775860D01*
X170137510Y-100797486D01*
X170244626Y-100841855D01*
X170413771Y-100875500D01*
X170413772Y-100875500D01*
X170586228Y-100875500D01*
X170586229Y-100875500D01*
X170755374Y-100841855D01*
X170914705Y-100775858D01*
X170914707Y-100775856D01*
X170914712Y-100775854D01*
X170956115Y-100748188D01*
X171058099Y-100680045D01*
X171180045Y-100558099D01*
X171257825Y-100441693D01*
X171275854Y-100414712D01*
X171275860Y-100414700D01*
X171292931Y-100373486D01*
X171341855Y-100255374D01*
X171375500Y-100086229D01*
X171375500Y-99913771D01*
X171341855Y-99744626D01*
X171295060Y-99631652D01*
X171275860Y-99585299D01*
X171275854Y-99585287D01*
X171220893Y-99503034D01*
X171180045Y-99441901D01*
X171058099Y-99319955D01*
X171008774Y-99286997D01*
X170914712Y-99224145D01*
X170914700Y-99224139D01*
X170755374Y-99158145D01*
X170586231Y-99124500D01*
X170586229Y-99124500D01*
X170413771Y-99124500D01*
X170413768Y-99124500D01*
X170244626Y-99158145D01*
X170244624Y-99158145D01*
X170085299Y-99224139D01*
X170085287Y-99224145D01*
X169941901Y-99319955D01*
X169941897Y-99319958D01*
X169819958Y-99441897D01*
X169819955Y-99441901D01*
X169724145Y-99585287D01*
X169724139Y-99585299D01*
X169658145Y-99744624D01*
X169658145Y-99744626D01*
X169624500Y-99913768D01*
X169375499Y-99913768D01*
X169341855Y-99744626D01*
X169295060Y-99631652D01*
X169275860Y-99585299D01*
X169275854Y-99585287D01*
X169220893Y-99503034D01*
X169180045Y-99441901D01*
X169058099Y-99319955D01*
X169008774Y-99286997D01*
X168914712Y-99224145D01*
X168914700Y-99224139D01*
X168755374Y-99158145D01*
X168586231Y-99124500D01*
X168586229Y-99124500D01*
X168413771Y-99124500D01*
X168413768Y-99124500D01*
X168244626Y-99158145D01*
X168244624Y-99158145D01*
X168085299Y-99224139D01*
X168085287Y-99224145D01*
X167941901Y-99319955D01*
X167941897Y-99319958D01*
X167819958Y-99441897D01*
X167819955Y-99441901D01*
X167724145Y-99585287D01*
X167724139Y-99585299D01*
X167658145Y-99744624D01*
X167658145Y-99744626D01*
X167624500Y-99913768D01*
X167624500Y-100086231D01*
X167642472Y-100176580D01*
X167653229Y-100230662D01*
X167658145Y-100255373D01*
X167658145Y-100255375D01*
X167686452Y-100323715D01*
X167691252Y-100384712D01*
X167659283Y-100436881D01*
X167602754Y-100460295D01*
X167594988Y-100460600D01*
X154757209Y-100460600D01*
X154699018Y-100441693D01*
X154687211Y-100431609D01*
X154619713Y-100364111D01*
X154619710Y-100364109D01*
X154579500Y-100340893D01*
X154538559Y-100295423D01*
X154532165Y-100234572D01*
X154558995Y-100185155D01*
X157451157Y-97292996D01*
X157505674Y-97265219D01*
X157521161Y-97264000D01*
X167758848Y-97264000D01*
X167817039Y-97282907D01*
X167853003Y-97332407D01*
X167853003Y-97393593D01*
X167828852Y-97433004D01*
X167819958Y-97441897D01*
X167819955Y-97441901D01*
X167724145Y-97585287D01*
X167724139Y-97585299D01*
X167658145Y-97744624D01*
X167658145Y-97744626D01*
X167624500Y-97913768D01*
X167624500Y-98086231D01*
X167658145Y-98255373D01*
X167658145Y-98255375D01*
X167724139Y-98414700D01*
X167724145Y-98414712D01*
X167792660Y-98517249D01*
X167819955Y-98558099D01*
X167941901Y-98680045D01*
X168003034Y-98720893D01*
X168085287Y-98775854D01*
X168085299Y-98775860D01*
X168111921Y-98786887D01*
X168244626Y-98841855D01*
X168413771Y-98875500D01*
X168413772Y-98875500D01*
X168586228Y-98875500D01*
X168586229Y-98875500D01*
X168755374Y-98841855D01*
X168914705Y-98775858D01*
X168914707Y-98775856D01*
X168914712Y-98775854D01*
X168979614Y-98732487D01*
X169058099Y-98680045D01*
X169180045Y-98558099D01*
X169248188Y-98456115D01*
X169275854Y-98414712D01*
X169275860Y-98414700D01*
X169341855Y-98255374D01*
X169375500Y-98086229D01*
X169375500Y-97913771D01*
X169375499Y-97913768D01*
X169624500Y-97913768D01*
X169624500Y-98086231D01*
X169658145Y-98255373D01*
X169658145Y-98255375D01*
X169724139Y-98414700D01*
X169724145Y-98414712D01*
X169792660Y-98517249D01*
X169819955Y-98558099D01*
X169941901Y-98680045D01*
X170003034Y-98720893D01*
X170085287Y-98775854D01*
X170085299Y-98775860D01*
X170111921Y-98786887D01*
X170244626Y-98841855D01*
X170413771Y-98875500D01*
X170413772Y-98875500D01*
X170586228Y-98875500D01*
X170586229Y-98875500D01*
X170755374Y-98841855D01*
X170914705Y-98775858D01*
X170914707Y-98775856D01*
X170914712Y-98775854D01*
X170979614Y-98732487D01*
X171058099Y-98680045D01*
X171180045Y-98558099D01*
X171248188Y-98456115D01*
X171275854Y-98414712D01*
X171275860Y-98414700D01*
X171341855Y-98255374D01*
X171375500Y-98086229D01*
X171375500Y-97913771D01*
X171341855Y-97744626D01*
X171275858Y-97585295D01*
X171275854Y-97585287D01*
X171220893Y-97503034D01*
X171180045Y-97441901D01*
X171058099Y-97319955D01*
X171002653Y-97282907D01*
X170914712Y-97224145D01*
X170914700Y-97224139D01*
X170755374Y-97158145D01*
X170586231Y-97124500D01*
X170586229Y-97124500D01*
X170413771Y-97124500D01*
X170413768Y-97124500D01*
X170244626Y-97158145D01*
X170244624Y-97158145D01*
X170085299Y-97224139D01*
X170085287Y-97224145D01*
X169941901Y-97319955D01*
X169941897Y-97319958D01*
X169819958Y-97441897D01*
X169819955Y-97441901D01*
X169724145Y-97585287D01*
X169724139Y-97585299D01*
X169658145Y-97744624D01*
X169658145Y-97744626D01*
X169624500Y-97913768D01*
X169375499Y-97913768D01*
X169341855Y-97744626D01*
X169275858Y-97585295D01*
X169275854Y-97585287D01*
X169220893Y-97503034D01*
X169180045Y-97441901D01*
X169058099Y-97319955D01*
X169058098Y-97319954D01*
X168999123Y-97280548D01*
X168961244Y-97232498D01*
X168958842Y-97171359D01*
X168984119Y-97128231D01*
X169628233Y-96484118D01*
X169682746Y-96456344D01*
X169743178Y-96465915D01*
X169780549Y-96499123D01*
X169819955Y-96558099D01*
X169941901Y-96680045D01*
X170003034Y-96720893D01*
X170085287Y-96775854D01*
X170085299Y-96775860D01*
X170086101Y-96776192D01*
X170244626Y-96841855D01*
X170413771Y-96875500D01*
X170413772Y-96875500D01*
X170586228Y-96875500D01*
X170586229Y-96875500D01*
X170755374Y-96841855D01*
X170914705Y-96775858D01*
X170914707Y-96775856D01*
X170914712Y-96775854D01*
X170956740Y-96747771D01*
X171058099Y-96680045D01*
X171180045Y-96558099D01*
X171275515Y-96415219D01*
X171275854Y-96414712D01*
X171275860Y-96414700D01*
X171292798Y-96373808D01*
X171341855Y-96255374D01*
X171375500Y-96086229D01*
X171375500Y-95913771D01*
X171341855Y-95744626D01*
X171303200Y-95651304D01*
X171275860Y-95585299D01*
X171275854Y-95585287D01*
X171190358Y-95457336D01*
X171180045Y-95441901D01*
X171058099Y-95319955D01*
X171000733Y-95281624D01*
X170914712Y-95224145D01*
X170914700Y-95224139D01*
X170755374Y-95158145D01*
X170586231Y-95124500D01*
X170586229Y-95124500D01*
X170413771Y-95124500D01*
X170413768Y-95124500D01*
X170244626Y-95158145D01*
X170244624Y-95158145D01*
X170085299Y-95224139D01*
X170085287Y-95224145D01*
X169941901Y-95319955D01*
X169941897Y-95319958D01*
X169865804Y-95396052D01*
X169811287Y-95423829D01*
X169750855Y-95414258D01*
X169707590Y-95370993D01*
X169696800Y-95326048D01*
X169696800Y-94880287D01*
X169656608Y-94783256D01*
X169582344Y-94708991D01*
X169582344Y-94708992D01*
X169326205Y-94452853D01*
X169298428Y-94398336D01*
X169304744Y-94344966D01*
X169341855Y-94255374D01*
X169375500Y-94086229D01*
X169375500Y-93913771D01*
X169375499Y-93913768D01*
X169624500Y-93913768D01*
X169624500Y-93913771D01*
X169624500Y-94086229D01*
X169657085Y-94250047D01*
X169658145Y-94255373D01*
X169658145Y-94255375D01*
X169724139Y-94414700D01*
X169724145Y-94414712D01*
X169792660Y-94517249D01*
X169819955Y-94558099D01*
X169941901Y-94680045D01*
X169999264Y-94718374D01*
X170085287Y-94775854D01*
X170085299Y-94775860D01*
X170103155Y-94783256D01*
X170244626Y-94841855D01*
X170413771Y-94875500D01*
X170413772Y-94875500D01*
X170586228Y-94875500D01*
X170586229Y-94875500D01*
X170755374Y-94841855D01*
X170914705Y-94775858D01*
X170914707Y-94775856D01*
X170914712Y-94775854D01*
X170970184Y-94738788D01*
X171058099Y-94680045D01*
X171180045Y-94558099D01*
X171250368Y-94452853D01*
X171275854Y-94414712D01*
X171275860Y-94414700D01*
X171334429Y-94273301D01*
X171341855Y-94255374D01*
X171375500Y-94086229D01*
X171375500Y-93913771D01*
X171341855Y-93744626D01*
X171275858Y-93585295D01*
X171275854Y-93585287D01*
X171220893Y-93503034D01*
X171180045Y-93441901D01*
X171058099Y-93319955D01*
X171017249Y-93292660D01*
X170914712Y-93224145D01*
X170914700Y-93224139D01*
X170755374Y-93158145D01*
X170586231Y-93124500D01*
X170586229Y-93124500D01*
X170413771Y-93124500D01*
X170413768Y-93124500D01*
X170244626Y-93158145D01*
X170244624Y-93158145D01*
X170085299Y-93224139D01*
X170085287Y-93224145D01*
X169941901Y-93319955D01*
X169941897Y-93319958D01*
X169819958Y-93441897D01*
X169819955Y-93441901D01*
X169724145Y-93585287D01*
X169724139Y-93585299D01*
X169658145Y-93744624D01*
X169658145Y-93744626D01*
X169624500Y-93913768D01*
X169375499Y-93913768D01*
X169341855Y-93744626D01*
X169275858Y-93585295D01*
X169275854Y-93585287D01*
X169220893Y-93503034D01*
X169180045Y-93441901D01*
X169058099Y-93319955D01*
X168987395Y-93272712D01*
X168949516Y-93224662D01*
X168947114Y-93163524D01*
X168981107Y-93112650D01*
X169004507Y-93098934D01*
X169023644Y-93091008D01*
X169459589Y-92655062D01*
X169514104Y-92627287D01*
X169574536Y-92636858D01*
X169617801Y-92680123D01*
X169626688Y-92705752D01*
X169636132Y-92753227D01*
X169636134Y-92753233D01*
X169680445Y-92819548D01*
X169680448Y-92819552D01*
X169746769Y-92863867D01*
X169791231Y-92872711D01*
X169805241Y-92875498D01*
X169805246Y-92875498D01*
X169805252Y-92875500D01*
X169805253Y-92875500D01*
X171194747Y-92875500D01*
X171194748Y-92875500D01*
X171253231Y-92863867D01*
X171319552Y-92819552D01*
X171363867Y-92753231D01*
X171375500Y-92694748D01*
X171375500Y-91305252D01*
X171363867Y-91246769D01*
X171319552Y-91180448D01*
X171319548Y-91180445D01*
X171253233Y-91136134D01*
X171253231Y-91136133D01*
X171253228Y-91136132D01*
X171253227Y-91136132D01*
X171194758Y-91124501D01*
X171194748Y-91124500D01*
X169805252Y-91124500D01*
X169805251Y-91124500D01*
X169805241Y-91124501D01*
X169746772Y-91136132D01*
X169746766Y-91136134D01*
X169680451Y-91180445D01*
X169680445Y-91180451D01*
X169636134Y-91246766D01*
X169636132Y-91246772D01*
X169624501Y-91305241D01*
X169624500Y-91305253D01*
X169624500Y-91651536D01*
X169605593Y-91709727D01*
X169563386Y-91743000D01*
X169483253Y-91776192D01*
X169483042Y-91776334D01*
X169482636Y-91776448D01*
X169474248Y-91779923D01*
X169473836Y-91778929D01*
X169424153Y-91792937D01*
X169366751Y-91771756D01*
X169336583Y-91731899D01*
X169275860Y-91585299D01*
X169275854Y-91585287D01*
X169220893Y-91503034D01*
X169180045Y-91441901D01*
X169058099Y-91319955D01*
X169017249Y-91292660D01*
X168914712Y-91224145D01*
X168914700Y-91224139D01*
X168755374Y-91158145D01*
X168586231Y-91124500D01*
X168586229Y-91124500D01*
X168413771Y-91124500D01*
X168413768Y-91124500D01*
X168244626Y-91158145D01*
X168244624Y-91158145D01*
X168085299Y-91224139D01*
X168085287Y-91224145D01*
X167941901Y-91319955D01*
X167941897Y-91319958D01*
X167819958Y-91441897D01*
X167819955Y-91441901D01*
X167724145Y-91585287D01*
X167724139Y-91585299D01*
X167658145Y-91744624D01*
X167658145Y-91744626D01*
X167624500Y-91913768D01*
X167624500Y-92086231D01*
X167658145Y-92255373D01*
X167658145Y-92255375D01*
X167724139Y-92414700D01*
X167724145Y-92414712D01*
X167747189Y-92449198D01*
X167763798Y-92508086D01*
X167742621Y-92565490D01*
X167691747Y-92599483D01*
X167664874Y-92603200D01*
X167182787Y-92603200D01*
X167154363Y-92614972D01*
X167154362Y-92614971D01*
X167085760Y-92643389D01*
X167085756Y-92643391D01*
X164729944Y-94999204D01*
X164675427Y-95026981D01*
X164659940Y-95028200D01*
X159894269Y-95028200D01*
X159836078Y-95009293D01*
X159800114Y-94959793D01*
X159800114Y-94898607D01*
X159836078Y-94849108D01*
X159876208Y-94819951D01*
X159882073Y-94815690D01*
X160015690Y-94682073D01*
X160126760Y-94529199D01*
X160212547Y-94360832D01*
X160270940Y-94181118D01*
X160276758Y-94144384D01*
X160300500Y-93994484D01*
X160300500Y-93805515D01*
X160270941Y-93618886D01*
X160260028Y-93585299D01*
X160212547Y-93439168D01*
X160126760Y-93270801D01*
X160015690Y-93117927D01*
X159882073Y-92984310D01*
X159729199Y-92873240D01*
X159729198Y-92873239D01*
X159729196Y-92873238D01*
X159560832Y-92787453D01*
X159381113Y-92729058D01*
X159194484Y-92699500D01*
X159194481Y-92699500D01*
X159005519Y-92699500D01*
X159005516Y-92699500D01*
X158818886Y-92729058D01*
X158639167Y-92787453D01*
X158470803Y-92873238D01*
X158317928Y-92984309D01*
X158184309Y-93117928D01*
X158073238Y-93270803D01*
X157987453Y-93439167D01*
X157929058Y-93618886D01*
X157899500Y-93805515D01*
X157899500Y-93994484D01*
X157929058Y-94181113D01*
X157987453Y-94360832D01*
X158014902Y-94414705D01*
X158073240Y-94529199D01*
X158184310Y-94682073D01*
X158317927Y-94815690D01*
X158317930Y-94815692D01*
X158317932Y-94815694D01*
X158363922Y-94849108D01*
X158399886Y-94898608D01*
X158399885Y-94959793D01*
X158363921Y-95009293D01*
X158305731Y-95028200D01*
X155929287Y-95028200D01*
X155900863Y-95039972D01*
X155900862Y-95039971D01*
X155832260Y-95068389D01*
X155832258Y-95068390D01*
X155832256Y-95068391D01*
X155832255Y-95068391D01*
X155832255Y-95068392D01*
X155223935Y-95676712D01*
X155169418Y-95704489D01*
X155108986Y-95694918D01*
X155065721Y-95651653D01*
X155056150Y-95591221D01*
X155065722Y-95561763D01*
X155133771Y-95428210D01*
X155133773Y-95428204D01*
X155133774Y-95428203D01*
X155188032Y-95261213D01*
X155213487Y-95100500D01*
X155215500Y-95087794D01*
X155215500Y-94912205D01*
X155188032Y-94738788D01*
X155181400Y-94718375D01*
X155133774Y-94571797D01*
X155054061Y-94415351D01*
X155053588Y-94414700D01*
X154950859Y-94273306D01*
X154950857Y-94273304D01*
X154950855Y-94273301D01*
X154826699Y-94149145D01*
X154826695Y-94149142D01*
X154826693Y-94149140D01*
X154684654Y-94045942D01*
X154684648Y-94045938D01*
X154528201Y-93966225D01*
X154361211Y-93911967D01*
X154187795Y-93884500D01*
X154187792Y-93884500D01*
X154012208Y-93884500D01*
X154012205Y-93884500D01*
X153838788Y-93911967D01*
X153671798Y-93966225D01*
X153515351Y-94045938D01*
X153515345Y-94045942D01*
X153373306Y-94149140D01*
X153249140Y-94273306D01*
X153145942Y-94415345D01*
X153145938Y-94415351D01*
X153066225Y-94571798D01*
X153011967Y-94738788D01*
X152984500Y-94912205D01*
X152984500Y-95087794D01*
X153011967Y-95261211D01*
X153066225Y-95428201D01*
X153145938Y-95584648D01*
X153145942Y-95584654D01*
X153249140Y-95726693D01*
X153249142Y-95726695D01*
X153249145Y-95726699D01*
X153373301Y-95850855D01*
X153373304Y-95850857D01*
X153373306Y-95850859D01*
X153515345Y-95954057D01*
X153515351Y-95954061D01*
X153671797Y-96033774D01*
X153838787Y-96088032D01*
X153882142Y-96094899D01*
X154012205Y-96115500D01*
X154012208Y-96115500D01*
X154187795Y-96115500D01*
X154292749Y-96098876D01*
X154361213Y-96088032D01*
X154528203Y-96033774D01*
X154528206Y-96033772D01*
X154528210Y-96033771D01*
X154661763Y-95965722D01*
X154722195Y-95956150D01*
X154776711Y-95983927D01*
X154804489Y-96038444D01*
X154794918Y-96098876D01*
X154776712Y-96123935D01*
X152820744Y-98079904D01*
X152766227Y-98107681D01*
X152750740Y-98108900D01*
X147674587Y-98108900D01*
X147649243Y-98119397D01*
X147577558Y-98149090D01*
X145100456Y-100626192D01*
X145100455Y-100626191D01*
X145026191Y-100700456D01*
X144986000Y-100797487D01*
X144986000Y-101300534D01*
X144967093Y-101358725D01*
X144957009Y-101370531D01*
X144885644Y-101441897D01*
X144869505Y-101458036D01*
X144806905Y-101566463D01*
X144806905Y-101566464D01*
X144774500Y-101687399D01*
X144774500Y-101812601D01*
X144787569Y-101861377D01*
X144784368Y-101922478D01*
X144745863Y-101970028D01*
X144691943Y-101986000D01*
X137247713Y-101986000D01*
X137142687Y-101986000D01*
X137117343Y-101996497D01*
X137045658Y-102026190D01*
X136477844Y-102594004D01*
X136423327Y-102621781D01*
X136407840Y-102623000D01*
X129321896Y-102623000D01*
X129263705Y-102604093D01*
X129227741Y-102554593D01*
X129227741Y-102493407D01*
X129239581Y-102468998D01*
X129275854Y-102414712D01*
X129275860Y-102414700D01*
X129294581Y-102369504D01*
X129341855Y-102255374D01*
X129375500Y-102086229D01*
X129375500Y-101913771D01*
X129341855Y-101744626D01*
X129275858Y-101585295D01*
X129275854Y-101585287D01*
X129209511Y-101486000D01*
X129180045Y-101441901D01*
X129058099Y-101319955D01*
X129017249Y-101292660D01*
X128914712Y-101224145D01*
X128914700Y-101224139D01*
X128755374Y-101158145D01*
X128586231Y-101124500D01*
X128586229Y-101124500D01*
X128413771Y-101124500D01*
X128413768Y-101124500D01*
X128244626Y-101158145D01*
X128244624Y-101158145D01*
X128085299Y-101224139D01*
X128085287Y-101224145D01*
X127941901Y-101319955D01*
X127941897Y-101319958D01*
X127819958Y-101441897D01*
X127819955Y-101441901D01*
X127724145Y-101585287D01*
X127724139Y-101585299D01*
X127658145Y-101744624D01*
X127658145Y-101744626D01*
X127624500Y-101913768D01*
X127624500Y-102086231D01*
X127658145Y-102255373D01*
X127658145Y-102255375D01*
X127724139Y-102414700D01*
X127724145Y-102414712D01*
X127760419Y-102468998D01*
X127777028Y-102527886D01*
X127755851Y-102585290D01*
X127704977Y-102619283D01*
X127678104Y-102623000D01*
X127560487Y-102623000D01*
X127532063Y-102634772D01*
X127532062Y-102634771D01*
X127463460Y-102663189D01*
X127463458Y-102663190D01*
X127463456Y-102663191D01*
X127463454Y-102663192D01*
X127463452Y-102663194D01*
X126952851Y-103173793D01*
X126898335Y-103201570D01*
X126844963Y-103195253D01*
X126755374Y-103158145D01*
X126586231Y-103124500D01*
X126586229Y-103124500D01*
X126413771Y-103124500D01*
X126413768Y-103124500D01*
X126244626Y-103158145D01*
X126244624Y-103158145D01*
X126085299Y-103224139D01*
X126085287Y-103224145D01*
X125941901Y-103319955D01*
X125941897Y-103319958D01*
X125819958Y-103441897D01*
X125819955Y-103441901D01*
X125724145Y-103585287D01*
X125724139Y-103585299D01*
X125658145Y-103744624D01*
X125658145Y-103744626D01*
X125624500Y-103913768D01*
X125624500Y-104086231D01*
X125658145Y-104255373D01*
X125658145Y-104255375D01*
X125724139Y-104414700D01*
X125724145Y-104414712D01*
X125777872Y-104495118D01*
X125819955Y-104558099D01*
X125941901Y-104680045D01*
X126003034Y-104720893D01*
X126085287Y-104775854D01*
X126085299Y-104775860D01*
X126142372Y-104799500D01*
X126244626Y-104841855D01*
X126413771Y-104875500D01*
X126413772Y-104875500D01*
X126586228Y-104875500D01*
X126586229Y-104875500D01*
X126755374Y-104841855D01*
X126914705Y-104775858D01*
X126914707Y-104775856D01*
X126914712Y-104775854D01*
X126956740Y-104747771D01*
X127058099Y-104680045D01*
X127180045Y-104558099D01*
X127248188Y-104456115D01*
X127275854Y-104414712D01*
X127275860Y-104414700D01*
X127341855Y-104255374D01*
X127375500Y-104086229D01*
X127375500Y-103913771D01*
X127341855Y-103744626D01*
X127304745Y-103655034D01*
X127299944Y-103594038D01*
X127326204Y-103547147D01*
X127693357Y-103179996D01*
X127747873Y-103152219D01*
X127763360Y-103151000D01*
X127871848Y-103151000D01*
X127930039Y-103169907D01*
X127966003Y-103219407D01*
X127966003Y-103280593D01*
X127941852Y-103320004D01*
X127819958Y-103441897D01*
X127819955Y-103441901D01*
X127724145Y-103585287D01*
X127724139Y-103585299D01*
X127658145Y-103744624D01*
X127658145Y-103744626D01*
X127624500Y-103913768D01*
X127624500Y-104086231D01*
X127658145Y-104255373D01*
X127658145Y-104255375D01*
X127724139Y-104414700D01*
X127724145Y-104414712D01*
X127777872Y-104495118D01*
X127819955Y-104558099D01*
X127819958Y-104558102D01*
X127828852Y-104566996D01*
X127856629Y-104621513D01*
X127847058Y-104681945D01*
X127803793Y-104725210D01*
X127758848Y-104736000D01*
X127447487Y-104736000D01*
X127419063Y-104747772D01*
X127419062Y-104747771D01*
X127350460Y-104776189D01*
X127350458Y-104776190D01*
X127350456Y-104776191D01*
X127350454Y-104776192D01*
X127350452Y-104776194D01*
X126952852Y-105173794D01*
X126898336Y-105201571D01*
X126844964Y-105195254D01*
X126755374Y-105158145D01*
X126586231Y-105124500D01*
X126586229Y-105124500D01*
X126413771Y-105124500D01*
X126413768Y-105124500D01*
X126244626Y-105158145D01*
X126244624Y-105158145D01*
X126085299Y-105224139D01*
X126085287Y-105224145D01*
X125941901Y-105319955D01*
X125941897Y-105319958D01*
X125819958Y-105441897D01*
X125819955Y-105441901D01*
X125724145Y-105585287D01*
X125724139Y-105585299D01*
X125658145Y-105744624D01*
X125658145Y-105744626D01*
X125624500Y-105913768D01*
X125624500Y-106086231D01*
X125658145Y-106255373D01*
X125658145Y-106255375D01*
X125724139Y-106414700D01*
X125724145Y-106414712D01*
X125786456Y-106507965D01*
X125819955Y-106558099D01*
X125941901Y-106680045D01*
X125982248Y-106707004D01*
X126085287Y-106775854D01*
X126085299Y-106775860D01*
X126139422Y-106798278D01*
X126244626Y-106841855D01*
X126413771Y-106875500D01*
X126413772Y-106875500D01*
X126586228Y-106875500D01*
X126586229Y-106875500D01*
X126755374Y-106841855D01*
X126914705Y-106775858D01*
X126914707Y-106775856D01*
X126914712Y-106775854D01*
X126957210Y-106747457D01*
X127058099Y-106680045D01*
X127180045Y-106558099D01*
X127248188Y-106456115D01*
X127275854Y-106414712D01*
X127275860Y-106414700D01*
X127341855Y-106255374D01*
X127375500Y-106086229D01*
X127375500Y-105913771D01*
X127341855Y-105744626D01*
X127304745Y-105655034D01*
X127299944Y-105594038D01*
X127326204Y-105547147D01*
X127580357Y-105292996D01*
X127634873Y-105265219D01*
X127650360Y-105264000D01*
X127758848Y-105264000D01*
X127817039Y-105282907D01*
X127853003Y-105332407D01*
X127853003Y-105393593D01*
X127828852Y-105433004D01*
X127819958Y-105441897D01*
X127819955Y-105441901D01*
X127724145Y-105585287D01*
X127724139Y-105585299D01*
X127658145Y-105744624D01*
X127658145Y-105744626D01*
X127624500Y-105913768D01*
X127624500Y-106086231D01*
X127658145Y-106255373D01*
X127658145Y-106255375D01*
X127724139Y-106414700D01*
X127724145Y-106414712D01*
X127786456Y-106507965D01*
X127819955Y-106558099D01*
X127819958Y-106558102D01*
X127828852Y-106566996D01*
X127856629Y-106621513D01*
X127847058Y-106681945D01*
X127803793Y-106725210D01*
X127758848Y-106736000D01*
X127447487Y-106736000D01*
X127419830Y-106747456D01*
X127419828Y-106747457D01*
X127419827Y-106747456D01*
X127350458Y-106776189D01*
X127350452Y-106776193D01*
X126952851Y-107173794D01*
X126898335Y-107201571D01*
X126844964Y-107195254D01*
X126755374Y-107158145D01*
X126755372Y-107158144D01*
X126586231Y-107124500D01*
X126586229Y-107124500D01*
X126413771Y-107124500D01*
X126413768Y-107124500D01*
X126244626Y-107158145D01*
X126244624Y-107158145D01*
X126085299Y-107224139D01*
X126085287Y-107224145D01*
X125941901Y-107319955D01*
X125941897Y-107319958D01*
X125819958Y-107441897D01*
X125819955Y-107441901D01*
X125724145Y-107585287D01*
X125724139Y-107585299D01*
X125658145Y-107744624D01*
X125658145Y-107744626D01*
X125624500Y-107913768D01*
X125624500Y-108086231D01*
X125658145Y-108255373D01*
X125658145Y-108255375D01*
X125724139Y-108414700D01*
X125724145Y-108414712D01*
X125770969Y-108484787D01*
X125819955Y-108558099D01*
X125941901Y-108680045D01*
X125974897Y-108702092D01*
X126085287Y-108775854D01*
X126085299Y-108775860D01*
X126133852Y-108795971D01*
X126244626Y-108841855D01*
X126413771Y-108875500D01*
X126413772Y-108875500D01*
X126586228Y-108875500D01*
X126586229Y-108875500D01*
X126755374Y-108841855D01*
X126914705Y-108775858D01*
X126914707Y-108775856D01*
X126914712Y-108775854D01*
X126965666Y-108741807D01*
X127058099Y-108680045D01*
X127180045Y-108558099D01*
X127263354Y-108433419D01*
X127275854Y-108414712D01*
X127275860Y-108414700D01*
X127282458Y-108398771D01*
X127341855Y-108255374D01*
X127375500Y-108086229D01*
X127375500Y-107913771D01*
X127341855Y-107744626D01*
X127304745Y-107655034D01*
X127299944Y-107594038D01*
X127326204Y-107547147D01*
X127580357Y-107292996D01*
X127634873Y-107265219D01*
X127650360Y-107264000D01*
X127758848Y-107264000D01*
X127817039Y-107282907D01*
X127853003Y-107332407D01*
X127853003Y-107393593D01*
X127828852Y-107433004D01*
X127819958Y-107441897D01*
X127819955Y-107441901D01*
X127724145Y-107585287D01*
X127724139Y-107585299D01*
X127658145Y-107744624D01*
X127658145Y-107744626D01*
X127624500Y-107913768D01*
X127624500Y-108086231D01*
X127658145Y-108255373D01*
X127658145Y-108255375D01*
X127724139Y-108414700D01*
X127724145Y-108414712D01*
X127770969Y-108484787D01*
X127819955Y-108558099D01*
X127941901Y-108680045D01*
X127974897Y-108702092D01*
X128085287Y-108775854D01*
X128085299Y-108775860D01*
X128133852Y-108795971D01*
X128244626Y-108841855D01*
X128413771Y-108875500D01*
X128413772Y-108875500D01*
X128586228Y-108875500D01*
X128586229Y-108875500D01*
X128755374Y-108841855D01*
X128914705Y-108775858D01*
X128914707Y-108775856D01*
X128914712Y-108775854D01*
X128965666Y-108741807D01*
X129058099Y-108680045D01*
X129180045Y-108558099D01*
X129263354Y-108433419D01*
X129275854Y-108414712D01*
X129275860Y-108414700D01*
X129282458Y-108398771D01*
X129341855Y-108255374D01*
X129375500Y-108086229D01*
X129375500Y-107913771D01*
X129341855Y-107744626D01*
X129282638Y-107601663D01*
X129275860Y-107585299D01*
X129275854Y-107585287D01*
X129215604Y-107495119D01*
X129180045Y-107441901D01*
X129171148Y-107433004D01*
X129143371Y-107378487D01*
X129152942Y-107318055D01*
X129196207Y-107274790D01*
X129241152Y-107264000D01*
X136505612Y-107264000D01*
X136505613Y-107264000D01*
X136602644Y-107223808D01*
X139283456Y-104542996D01*
X139337973Y-104515219D01*
X139353460Y-104514000D01*
X144640697Y-104514000D01*
X144698888Y-104532907D01*
X144734852Y-104582407D01*
X144736323Y-104638624D01*
X144725000Y-104680879D01*
X144725000Y-104819117D01*
X144760778Y-104952643D01*
X144788026Y-104999839D01*
X145073929Y-104713937D01*
X145128446Y-104686160D01*
X145188878Y-104695731D01*
X145213936Y-104713937D01*
X145249999Y-104749999D01*
X145286061Y-104713938D01*
X145340577Y-104686160D01*
X145401009Y-104695731D01*
X145426068Y-104713937D01*
X145711972Y-104999840D01*
X145732661Y-104997116D01*
X145738303Y-104992036D01*
X145799153Y-104985636D01*
X145852144Y-105016224D01*
X145864313Y-105032972D01*
X145869503Y-105041961D01*
X145869505Y-105041964D01*
X145958036Y-105130495D01*
X146016527Y-105164264D01*
X146057467Y-105209733D01*
X146063863Y-105270583D01*
X146033270Y-105323571D01*
X146016530Y-105335733D01*
X145958036Y-105369505D01*
X145869505Y-105458036D01*
X145835735Y-105516527D01*
X145790267Y-105557467D01*
X145729417Y-105563863D01*
X145676429Y-105533270D01*
X145664266Y-105516530D01*
X145630495Y-105458036D01*
X145541964Y-105369505D01*
X145541961Y-105369503D01*
X145532972Y-105364313D01*
X145492032Y-105318843D01*
X145485638Y-105257992D01*
X145496187Y-105239721D01*
X145499840Y-105211973D01*
X145249999Y-104962132D01*
X145000159Y-105211971D01*
X145002883Y-105232665D01*
X145007965Y-105238308D01*
X145014362Y-105299158D01*
X144983772Y-105352147D01*
X144967030Y-105364312D01*
X144958037Y-105369504D01*
X144958036Y-105369504D01*
X144958036Y-105369505D01*
X144870535Y-105457005D01*
X144816021Y-105484781D01*
X144800534Y-105486000D01*
X144402513Y-105486000D01*
X143861612Y-105486000D01*
X143756587Y-105486000D01*
X143717410Y-105502228D01*
X143713228Y-105503960D01*
X143652231Y-105508759D01*
X143600062Y-105476789D01*
X143576648Y-105420261D01*
X143579717Y-105386871D01*
X143584370Y-105369505D01*
X143600500Y-105309309D01*
X143600500Y-105190691D01*
X143569799Y-105076114D01*
X143569797Y-105076111D01*
X143569797Y-105076109D01*
X143510492Y-104973391D01*
X143510490Y-104973389D01*
X143510489Y-104973387D01*
X143426613Y-104889511D01*
X143426610Y-104889509D01*
X143426608Y-104889507D01*
X143323889Y-104830202D01*
X143323890Y-104830202D01*
X143282520Y-104819117D01*
X143209309Y-104799500D01*
X143090691Y-104799500D01*
X143041809Y-104812598D01*
X142976109Y-104830202D01*
X142873391Y-104889507D01*
X142789507Y-104973391D01*
X142730202Y-105076109D01*
X142719217Y-105117107D01*
X142699500Y-105190691D01*
X142699500Y-105309309D01*
X142715630Y-105369505D01*
X142730202Y-105423890D01*
X142789507Y-105526608D01*
X142789509Y-105526610D01*
X142789511Y-105526613D01*
X142873387Y-105610489D01*
X142873389Y-105610490D01*
X142873391Y-105610492D01*
X142976110Y-105669797D01*
X142976111Y-105669797D01*
X142976114Y-105669799D01*
X143090691Y-105700500D01*
X143090693Y-105700500D01*
X143209308Y-105700500D01*
X143209309Y-105700500D01*
X143229364Y-105695126D01*
X143290465Y-105698327D01*
X143338015Y-105736831D01*
X143353852Y-105795931D01*
X143331927Y-105853053D01*
X143324992Y-105860756D01*
X138478744Y-110707004D01*
X138424227Y-110734781D01*
X138408740Y-110736000D01*
X129241152Y-110736000D01*
X129182961Y-110717093D01*
X129146997Y-110667593D01*
X129146997Y-110606407D01*
X129171148Y-110566996D01*
X129180045Y-110558099D01*
X129256556Y-110443593D01*
X129275854Y-110414712D01*
X129275860Y-110414700D01*
X129305930Y-110342104D01*
X129341855Y-110255374D01*
X129375500Y-110086229D01*
X129375500Y-109913771D01*
X129341855Y-109744626D01*
X129300125Y-109643881D01*
X129275860Y-109585299D01*
X129275854Y-109585287D01*
X129244861Y-109538904D01*
X129216593Y-109496599D01*
X129212445Y-109490391D01*
X129563500Y-109490391D01*
X129563500Y-109609009D01*
X129584398Y-109687000D01*
X129594202Y-109723590D01*
X129653507Y-109826308D01*
X129653509Y-109826310D01*
X129653511Y-109826313D01*
X129737387Y-109910189D01*
X129737389Y-109910190D01*
X129737391Y-109910192D01*
X129840110Y-109969497D01*
X129840111Y-109969497D01*
X129840114Y-109969499D01*
X129954691Y-110000200D01*
X129954693Y-110000200D01*
X130073307Y-110000200D01*
X130073309Y-110000200D01*
X130187886Y-109969499D01*
X130187888Y-109969497D01*
X130187890Y-109969497D01*
X130290608Y-109910192D01*
X130290608Y-109910191D01*
X130290613Y-109910189D01*
X130374489Y-109826313D01*
X130383729Y-109810309D01*
X130433797Y-109723590D01*
X130433797Y-109723588D01*
X130433799Y-109723586D01*
X130464500Y-109609009D01*
X130464500Y-109490391D01*
X130433799Y-109375814D01*
X130433797Y-109375811D01*
X130433797Y-109375809D01*
X130374492Y-109273091D01*
X130374490Y-109273089D01*
X130374489Y-109273087D01*
X130290613Y-109189211D01*
X130290610Y-109189209D01*
X130290608Y-109189207D01*
X130187889Y-109129902D01*
X130187890Y-109129902D01*
X130157985Y-109121889D01*
X130073309Y-109099200D01*
X129954691Y-109099200D01*
X129889015Y-109116798D01*
X129840109Y-109129902D01*
X129737391Y-109189207D01*
X129653507Y-109273091D01*
X129594202Y-109375809D01*
X129579389Y-109431093D01*
X129563500Y-109490391D01*
X129212445Y-109490391D01*
X129180045Y-109441901D01*
X129058099Y-109319955D01*
X128998452Y-109280100D01*
X128914712Y-109224145D01*
X128914700Y-109224139D01*
X128755374Y-109158145D01*
X128586231Y-109124500D01*
X128586229Y-109124500D01*
X128413771Y-109124500D01*
X128413768Y-109124500D01*
X128244626Y-109158145D01*
X128244624Y-109158145D01*
X128085299Y-109224139D01*
X128085287Y-109224145D01*
X127941901Y-109319955D01*
X127941897Y-109319958D01*
X127819958Y-109441897D01*
X127819955Y-109441901D01*
X127724145Y-109585287D01*
X127724139Y-109585299D01*
X127658145Y-109744624D01*
X127658145Y-109744626D01*
X127624500Y-109913768D01*
X127624500Y-109913771D01*
X127624500Y-110086229D01*
X127654883Y-110238977D01*
X127658145Y-110255373D01*
X127658145Y-110255375D01*
X127724139Y-110414700D01*
X127724145Y-110414712D01*
X127792660Y-110517249D01*
X127819955Y-110558099D01*
X127941901Y-110680045D01*
X127966168Y-110696260D01*
X128004047Y-110744308D01*
X128006449Y-110805446D01*
X127981169Y-110848578D01*
X127348577Y-111481168D01*
X127294061Y-111508945D01*
X127233629Y-111499374D01*
X127196259Y-111466166D01*
X127180046Y-111441902D01*
X127058107Y-111319962D01*
X127058102Y-111319958D01*
X127058099Y-111319955D01*
X127001050Y-111281836D01*
X126914712Y-111224145D01*
X126914700Y-111224139D01*
X126755374Y-111158145D01*
X126586231Y-111124500D01*
X126586229Y-111124500D01*
X126413771Y-111124500D01*
X126413768Y-111124500D01*
X126244626Y-111158145D01*
X126244624Y-111158145D01*
X126085299Y-111224139D01*
X126085287Y-111224145D01*
X125941901Y-111319955D01*
X125941897Y-111319958D01*
X125819958Y-111441897D01*
X125819955Y-111441901D01*
X125724145Y-111585287D01*
X125724139Y-111585299D01*
X125658145Y-111744624D01*
X125658145Y-111744626D01*
X125624500Y-111913768D01*
X125624500Y-112086231D01*
X125658145Y-112255373D01*
X125658145Y-112255375D01*
X125724139Y-112414700D01*
X125724145Y-112414712D01*
X125781832Y-112501044D01*
X125819955Y-112558099D01*
X125941901Y-112680045D01*
X126004232Y-112721693D01*
X126042111Y-112769743D01*
X126044513Y-112830881D01*
X126019234Y-112874011D01*
X125479256Y-113413991D01*
X125404991Y-113488256D01*
X125380599Y-113547145D01*
X125364800Y-113585287D01*
X123300500Y-113585287D01*
X123300500Y-109913768D01*
X125624500Y-109913768D01*
X125624500Y-109913771D01*
X125624500Y-110086229D01*
X125654883Y-110238977D01*
X125658145Y-110255373D01*
X125658145Y-110255375D01*
X125724139Y-110414700D01*
X125724145Y-110414712D01*
X125792660Y-110517249D01*
X125819955Y-110558099D01*
X125941901Y-110680045D01*
X125982248Y-110707004D01*
X126085287Y-110775854D01*
X126085299Y-110775860D01*
X126086101Y-110776192D01*
X126244626Y-110841855D01*
X126413771Y-110875500D01*
X126413772Y-110875500D01*
X126586228Y-110875500D01*
X126586229Y-110875500D01*
X126755374Y-110841855D01*
X126914705Y-110775858D01*
X126914707Y-110775856D01*
X126914712Y-110775854D01*
X126961923Y-110744308D01*
X127058099Y-110680045D01*
X127180045Y-110558099D01*
X127256556Y-110443593D01*
X127275854Y-110414712D01*
X127275860Y-110414700D01*
X127305930Y-110342104D01*
X127341855Y-110255374D01*
X127375500Y-110086229D01*
X127375500Y-109913771D01*
X127341855Y-109744626D01*
X127300125Y-109643881D01*
X127275860Y-109585299D01*
X127275854Y-109585287D01*
X127211717Y-109489301D01*
X127180045Y-109441901D01*
X127058099Y-109319955D01*
X126998452Y-109280100D01*
X126914712Y-109224145D01*
X126914700Y-109224139D01*
X126755374Y-109158145D01*
X126586231Y-109124500D01*
X126586229Y-109124500D01*
X126413771Y-109124500D01*
X126413768Y-109124500D01*
X126244626Y-109158145D01*
X126244624Y-109158145D01*
X126085299Y-109224139D01*
X126085287Y-109224145D01*
X125941901Y-109319955D01*
X125941897Y-109319958D01*
X125819958Y-109441897D01*
X125819955Y-109441901D01*
X125724145Y-109585287D01*
X125724139Y-109585299D01*
X125658145Y-109744624D01*
X125658145Y-109744626D01*
X125624500Y-109913768D01*
X123300500Y-109913768D01*
X123300500Y-101913768D01*
X125624500Y-101913768D01*
X125624500Y-102086231D01*
X125658145Y-102255373D01*
X125658145Y-102255375D01*
X125724139Y-102414700D01*
X125724145Y-102414712D01*
X125786456Y-102507965D01*
X125819955Y-102558099D01*
X125941901Y-102680045D01*
X125984198Y-102708307D01*
X126085287Y-102775854D01*
X126085299Y-102775860D01*
X126144153Y-102800238D01*
X126244626Y-102841855D01*
X126413771Y-102875500D01*
X126413772Y-102875500D01*
X126586228Y-102875500D01*
X126586229Y-102875500D01*
X126755374Y-102841855D01*
X126914705Y-102775858D01*
X126914707Y-102775856D01*
X126914712Y-102775854D01*
X126958859Y-102746355D01*
X127058099Y-102680045D01*
X127180045Y-102558099D01*
X127248188Y-102456115D01*
X127275854Y-102414712D01*
X127275860Y-102414700D01*
X127294581Y-102369504D01*
X127341855Y-102255374D01*
X127375500Y-102086229D01*
X127375500Y-101913771D01*
X127341855Y-101744626D01*
X127275858Y-101585295D01*
X127275854Y-101585287D01*
X127209511Y-101486000D01*
X127180045Y-101441901D01*
X127058099Y-101319955D01*
X127017249Y-101292660D01*
X126914712Y-101224145D01*
X126914700Y-101224139D01*
X126755374Y-101158145D01*
X126586231Y-101124500D01*
X126586229Y-101124500D01*
X126413771Y-101124500D01*
X126413768Y-101124500D01*
X126244626Y-101158145D01*
X126244624Y-101158145D01*
X126085299Y-101224139D01*
X126085287Y-101224145D01*
X125941901Y-101319955D01*
X125941897Y-101319958D01*
X125819958Y-101441897D01*
X125819955Y-101441901D01*
X125724145Y-101585287D01*
X125724139Y-101585299D01*
X125658145Y-101744624D01*
X125658145Y-101744626D01*
X125624500Y-101913768D01*
X123300500Y-101913768D01*
X123300500Y-99913768D01*
X125624500Y-99913768D01*
X125624500Y-100086231D01*
X125642472Y-100176580D01*
X125653229Y-100230662D01*
X125658145Y-100255373D01*
X125658145Y-100255375D01*
X125724139Y-100414700D01*
X125724145Y-100414712D01*
X125780876Y-100499614D01*
X125819955Y-100558099D01*
X125941901Y-100680045D01*
X126000441Y-100719160D01*
X126085287Y-100775854D01*
X126085299Y-100775860D01*
X126137510Y-100797486D01*
X126244626Y-100841855D01*
X126413771Y-100875500D01*
X126413772Y-100875500D01*
X126586228Y-100875500D01*
X126586229Y-100875500D01*
X126755374Y-100841855D01*
X126914705Y-100775858D01*
X126914707Y-100775856D01*
X126914712Y-100775854D01*
X126956115Y-100748188D01*
X127058099Y-100680045D01*
X127180045Y-100558099D01*
X127257825Y-100441693D01*
X127275854Y-100414712D01*
X127275860Y-100414700D01*
X127292931Y-100373486D01*
X127341855Y-100255374D01*
X127375500Y-100086229D01*
X127375500Y-99913771D01*
X127375499Y-99913768D01*
X127624500Y-99913768D01*
X127624500Y-100086231D01*
X127642472Y-100176580D01*
X127653229Y-100230662D01*
X127658145Y-100255373D01*
X127658145Y-100255375D01*
X127724139Y-100414700D01*
X127724145Y-100414712D01*
X127780876Y-100499614D01*
X127819955Y-100558099D01*
X127941901Y-100680045D01*
X128000441Y-100719160D01*
X128085287Y-100775854D01*
X128085299Y-100775860D01*
X128137510Y-100797486D01*
X128244626Y-100841855D01*
X128413771Y-100875500D01*
X128413772Y-100875500D01*
X128586228Y-100875500D01*
X128586229Y-100875500D01*
X128755374Y-100841855D01*
X128914705Y-100775858D01*
X128914707Y-100775856D01*
X128914712Y-100775854D01*
X128956115Y-100748188D01*
X129058099Y-100680045D01*
X129180045Y-100558099D01*
X129180046Y-100558096D01*
X129182135Y-100556008D01*
X129236651Y-100528230D01*
X129297083Y-100537801D01*
X129301639Y-100540275D01*
X129392610Y-100592797D01*
X129392611Y-100592797D01*
X129392614Y-100592799D01*
X129507191Y-100623500D01*
X129507193Y-100623500D01*
X129625807Y-100623500D01*
X129625809Y-100623500D01*
X129740386Y-100592799D01*
X129740388Y-100592797D01*
X129740390Y-100592797D01*
X129843108Y-100533492D01*
X129843108Y-100533491D01*
X129843113Y-100533489D01*
X129926989Y-100449613D01*
X129947139Y-100414712D01*
X129986297Y-100346890D01*
X129986297Y-100346888D01*
X129986299Y-100346886D01*
X130017000Y-100232309D01*
X130017000Y-100113691D01*
X129986299Y-99999114D01*
X129986297Y-99999111D01*
X129986297Y-99999109D01*
X129926992Y-99896391D01*
X129926990Y-99896389D01*
X129926989Y-99896387D01*
X129843113Y-99812511D01*
X129843110Y-99812509D01*
X129843108Y-99812507D01*
X129740389Y-99753202D01*
X129740390Y-99753202D01*
X129725081Y-99749100D01*
X129625809Y-99722500D01*
X129507191Y-99722500D01*
X129433983Y-99742115D01*
X129372884Y-99738913D01*
X129325334Y-99700408D01*
X129316898Y-99684374D01*
X129275860Y-99585299D01*
X129275854Y-99585287D01*
X129220893Y-99503034D01*
X129180045Y-99441901D01*
X129058099Y-99319955D01*
X129008774Y-99286997D01*
X128914712Y-99224145D01*
X128914700Y-99224139D01*
X128755374Y-99158145D01*
X128586231Y-99124500D01*
X128586229Y-99124500D01*
X128413771Y-99124500D01*
X128413768Y-99124500D01*
X128244626Y-99158145D01*
X128244624Y-99158145D01*
X128085299Y-99224139D01*
X128085287Y-99224145D01*
X127941901Y-99319955D01*
X127941897Y-99319958D01*
X127819958Y-99441897D01*
X127819955Y-99441901D01*
X127724145Y-99585287D01*
X127724139Y-99585299D01*
X127658145Y-99744624D01*
X127658145Y-99744626D01*
X127624500Y-99913768D01*
X127375499Y-99913768D01*
X127341855Y-99744626D01*
X127295060Y-99631652D01*
X127275860Y-99585299D01*
X127275854Y-99585287D01*
X127220893Y-99503034D01*
X127180045Y-99441901D01*
X127058099Y-99319955D01*
X127008774Y-99286997D01*
X126914712Y-99224145D01*
X126914700Y-99224139D01*
X126755374Y-99158145D01*
X126586231Y-99124500D01*
X126586229Y-99124500D01*
X126413771Y-99124500D01*
X126413768Y-99124500D01*
X126244626Y-99158145D01*
X126244624Y-99158145D01*
X126085299Y-99224139D01*
X126085287Y-99224145D01*
X125941901Y-99319955D01*
X125941897Y-99319958D01*
X125819958Y-99441897D01*
X125819955Y-99441901D01*
X125724145Y-99585287D01*
X125724139Y-99585299D01*
X125658145Y-99744624D01*
X125658145Y-99744626D01*
X125624500Y-99913768D01*
X123300500Y-99913768D01*
X123300500Y-97913768D01*
X125624500Y-97913768D01*
X125624500Y-98086231D01*
X125658145Y-98255373D01*
X125658145Y-98255375D01*
X125724139Y-98414700D01*
X125724145Y-98414712D01*
X125792660Y-98517249D01*
X125819955Y-98558099D01*
X125941901Y-98680045D01*
X126003034Y-98720893D01*
X126085287Y-98775854D01*
X126085299Y-98775860D01*
X126111921Y-98786887D01*
X126244626Y-98841855D01*
X126413771Y-98875500D01*
X126413772Y-98875500D01*
X126586228Y-98875500D01*
X126586229Y-98875500D01*
X126755374Y-98841855D01*
X126914705Y-98775858D01*
X126914707Y-98775856D01*
X126914712Y-98775854D01*
X126979614Y-98732487D01*
X127058099Y-98680045D01*
X127180045Y-98558099D01*
X127248188Y-98456115D01*
X127275854Y-98414712D01*
X127275860Y-98414700D01*
X127341855Y-98255374D01*
X127375500Y-98086229D01*
X127375500Y-97913771D01*
X127375499Y-97913768D01*
X127624500Y-97913768D01*
X127624500Y-98086231D01*
X127658145Y-98255373D01*
X127658145Y-98255375D01*
X127724139Y-98414700D01*
X127724145Y-98414712D01*
X127792660Y-98517249D01*
X127819955Y-98558099D01*
X127941901Y-98680045D01*
X128003034Y-98720893D01*
X128085287Y-98775854D01*
X128085299Y-98775860D01*
X128111921Y-98786887D01*
X128244626Y-98841855D01*
X128413771Y-98875500D01*
X128413772Y-98875500D01*
X128586228Y-98875500D01*
X128586229Y-98875500D01*
X128755374Y-98841855D01*
X128914705Y-98775858D01*
X128914707Y-98775856D01*
X128914712Y-98775854D01*
X128979614Y-98732487D01*
X129058099Y-98680045D01*
X129180045Y-98558099D01*
X129248188Y-98456115D01*
X129275854Y-98414712D01*
X129275860Y-98414700D01*
X129341855Y-98255374D01*
X129375500Y-98086229D01*
X129375500Y-97913771D01*
X129341855Y-97744626D01*
X129275858Y-97585295D01*
X129275854Y-97585287D01*
X129220893Y-97503034D01*
X129180045Y-97441901D01*
X129058099Y-97319955D01*
X129002653Y-97282907D01*
X128914712Y-97224145D01*
X128914700Y-97224139D01*
X128755374Y-97158145D01*
X128586231Y-97124500D01*
X128586229Y-97124500D01*
X128413771Y-97124500D01*
X128413768Y-97124500D01*
X128244626Y-97158145D01*
X128244624Y-97158145D01*
X128085299Y-97224139D01*
X128085287Y-97224145D01*
X127941901Y-97319955D01*
X127941897Y-97319958D01*
X127819958Y-97441897D01*
X127819955Y-97441901D01*
X127724145Y-97585287D01*
X127724139Y-97585299D01*
X127658145Y-97744624D01*
X127658145Y-97744626D01*
X127624500Y-97913768D01*
X127375499Y-97913768D01*
X127341855Y-97744626D01*
X127275858Y-97585295D01*
X127275854Y-97585287D01*
X127220893Y-97503034D01*
X127180045Y-97441901D01*
X127058099Y-97319955D01*
X127002653Y-97282907D01*
X126914712Y-97224145D01*
X126914700Y-97224139D01*
X126755374Y-97158145D01*
X126586231Y-97124500D01*
X126586229Y-97124500D01*
X126413771Y-97124500D01*
X126413768Y-97124500D01*
X126244626Y-97158145D01*
X126244624Y-97158145D01*
X126085299Y-97224139D01*
X126085287Y-97224145D01*
X125941901Y-97319955D01*
X125941897Y-97319958D01*
X125819958Y-97441897D01*
X125819955Y-97441901D01*
X125724145Y-97585287D01*
X125724139Y-97585299D01*
X125658145Y-97744624D01*
X125658145Y-97744626D01*
X125624500Y-97913768D01*
X123300500Y-97913768D01*
X123300500Y-95913768D01*
X125624500Y-95913768D01*
X125624500Y-96086231D01*
X125658145Y-96255373D01*
X125658145Y-96255375D01*
X125724139Y-96414700D01*
X125724145Y-96414712D01*
X125758359Y-96465915D01*
X125819955Y-96558099D01*
X125941901Y-96680045D01*
X126003034Y-96720893D01*
X126085287Y-96775854D01*
X126085299Y-96775860D01*
X126086101Y-96776192D01*
X126244626Y-96841855D01*
X126413771Y-96875500D01*
X126413772Y-96875500D01*
X126586228Y-96875500D01*
X126586229Y-96875500D01*
X126755374Y-96841855D01*
X126914705Y-96775858D01*
X126914707Y-96775856D01*
X126914712Y-96775854D01*
X126956740Y-96747771D01*
X127058099Y-96680045D01*
X127180045Y-96558099D01*
X127275515Y-96415219D01*
X127275854Y-96414712D01*
X127275860Y-96414700D01*
X127292798Y-96373808D01*
X127341855Y-96255374D01*
X127375500Y-96086229D01*
X127375500Y-95913771D01*
X127375499Y-95913768D01*
X127624500Y-95913768D01*
X127624500Y-96086231D01*
X127658145Y-96255373D01*
X127658145Y-96255375D01*
X127724139Y-96414700D01*
X127724145Y-96414712D01*
X127758359Y-96465915D01*
X127819955Y-96558099D01*
X127941901Y-96680045D01*
X128003034Y-96720893D01*
X128085287Y-96775854D01*
X128085299Y-96775860D01*
X128086101Y-96776192D01*
X128244626Y-96841855D01*
X128413771Y-96875500D01*
X128413772Y-96875500D01*
X128586228Y-96875500D01*
X128586229Y-96875500D01*
X128755374Y-96841855D01*
X128914705Y-96775858D01*
X128914707Y-96775856D01*
X128914712Y-96775854D01*
X128956740Y-96747771D01*
X129058099Y-96680045D01*
X129180045Y-96558099D01*
X129275515Y-96415219D01*
X129275854Y-96414712D01*
X129275860Y-96414700D01*
X129292798Y-96373808D01*
X129341855Y-96255374D01*
X129375500Y-96086229D01*
X129375500Y-95913771D01*
X129341855Y-95744626D01*
X129303200Y-95651304D01*
X129275860Y-95585299D01*
X129275854Y-95585287D01*
X129190358Y-95457336D01*
X129180045Y-95441901D01*
X129058099Y-95319955D01*
X129000733Y-95281624D01*
X128914712Y-95224145D01*
X128914700Y-95224139D01*
X128755374Y-95158145D01*
X128586231Y-95124500D01*
X128586229Y-95124500D01*
X128413771Y-95124500D01*
X128413768Y-95124500D01*
X128244626Y-95158145D01*
X128244624Y-95158145D01*
X128085299Y-95224139D01*
X128085287Y-95224145D01*
X127941901Y-95319955D01*
X127941897Y-95319958D01*
X127819958Y-95441897D01*
X127819955Y-95441901D01*
X127724145Y-95585287D01*
X127724139Y-95585299D01*
X127658145Y-95744624D01*
X127658145Y-95744626D01*
X127624500Y-95913768D01*
X127375499Y-95913768D01*
X127341855Y-95744626D01*
X127303200Y-95651304D01*
X127275860Y-95585299D01*
X127275854Y-95585287D01*
X127190358Y-95457336D01*
X127180045Y-95441901D01*
X127058099Y-95319955D01*
X127000733Y-95281624D01*
X126914712Y-95224145D01*
X126914700Y-95224139D01*
X126755374Y-95158145D01*
X126586231Y-95124500D01*
X126586229Y-95124500D01*
X126413771Y-95124500D01*
X126413768Y-95124500D01*
X126244626Y-95158145D01*
X126244624Y-95158145D01*
X126085299Y-95224139D01*
X126085287Y-95224145D01*
X125941901Y-95319955D01*
X125941897Y-95319958D01*
X125819958Y-95441897D01*
X125819955Y-95441901D01*
X125724145Y-95585287D01*
X125724139Y-95585299D01*
X125658145Y-95744624D01*
X125658145Y-95744626D01*
X125624500Y-95913768D01*
X123300500Y-95913768D01*
X123300500Y-93913768D01*
X125624500Y-93913768D01*
X125624500Y-93913771D01*
X125624500Y-94086229D01*
X125657085Y-94250047D01*
X125658145Y-94255373D01*
X125658145Y-94255375D01*
X125724139Y-94414700D01*
X125724145Y-94414712D01*
X125792660Y-94517249D01*
X125819955Y-94558099D01*
X125941901Y-94680045D01*
X125999264Y-94718374D01*
X126085287Y-94775854D01*
X126085299Y-94775860D01*
X126103155Y-94783256D01*
X126244626Y-94841855D01*
X126413771Y-94875500D01*
X126413772Y-94875500D01*
X126586228Y-94875500D01*
X126586229Y-94875500D01*
X126755374Y-94841855D01*
X126914705Y-94775858D01*
X126914707Y-94775856D01*
X126914712Y-94775854D01*
X126970184Y-94738788D01*
X127058099Y-94680045D01*
X127180045Y-94558099D01*
X127250368Y-94452853D01*
X127275854Y-94414712D01*
X127275860Y-94414700D01*
X127334429Y-94273301D01*
X127341855Y-94255374D01*
X127375500Y-94086229D01*
X127375500Y-93913771D01*
X127375499Y-93913768D01*
X127624500Y-93913768D01*
X127624500Y-93913771D01*
X127624500Y-94086229D01*
X127657085Y-94250047D01*
X127658145Y-94255373D01*
X127658145Y-94255375D01*
X127724139Y-94414700D01*
X127724145Y-94414712D01*
X127792660Y-94517249D01*
X127819955Y-94558099D01*
X127941901Y-94680045D01*
X127999264Y-94718374D01*
X128085287Y-94775854D01*
X128085299Y-94775860D01*
X128103155Y-94783256D01*
X128244626Y-94841855D01*
X128413771Y-94875500D01*
X128413772Y-94875500D01*
X128586228Y-94875500D01*
X128586229Y-94875500D01*
X128755374Y-94841855D01*
X128914705Y-94775858D01*
X128914707Y-94775856D01*
X128914712Y-94775854D01*
X128970184Y-94738788D01*
X129058099Y-94680045D01*
X129180045Y-94558099D01*
X129250368Y-94452853D01*
X129275854Y-94414712D01*
X129275860Y-94414700D01*
X129334429Y-94273301D01*
X129341855Y-94255374D01*
X129375500Y-94086229D01*
X129375500Y-93913771D01*
X129353967Y-93805515D01*
X136699500Y-93805515D01*
X136699500Y-93994484D01*
X136729058Y-94181113D01*
X136787453Y-94360832D01*
X136814902Y-94414705D01*
X136873240Y-94529199D01*
X136984310Y-94682073D01*
X137117927Y-94815690D01*
X137270801Y-94926760D01*
X137439168Y-95012547D01*
X137618882Y-95070940D01*
X137618883Y-95070940D01*
X137618886Y-95070941D01*
X137805516Y-95100500D01*
X137805519Y-95100500D01*
X137994484Y-95100500D01*
X138181113Y-95070941D01*
X138181114Y-95070940D01*
X138181118Y-95070940D01*
X138360832Y-95012547D01*
X138529199Y-94926760D01*
X138559281Y-94904904D01*
X141934500Y-94904904D01*
X141934500Y-95095095D01*
X141971602Y-95281624D01*
X142044384Y-95457335D01*
X142150044Y-95615467D01*
X142150047Y-95615471D01*
X142284529Y-95749953D01*
X142442664Y-95855615D01*
X142618374Y-95928397D01*
X142804907Y-95965500D01*
X142804908Y-95965500D01*
X142995092Y-95965500D01*
X142995093Y-95965500D01*
X143181626Y-95928397D01*
X143357336Y-95855615D01*
X143515471Y-95749953D01*
X143649953Y-95615471D01*
X143755615Y-95457336D01*
X143828397Y-95281626D01*
X143865500Y-95095093D01*
X143865500Y-94904907D01*
X143828397Y-94718374D01*
X143755615Y-94542664D01*
X143649953Y-94384529D01*
X143515471Y-94250047D01*
X143515467Y-94250044D01*
X143357335Y-94144384D01*
X143181624Y-94071602D01*
X142995095Y-94034500D01*
X142995093Y-94034500D01*
X142804907Y-94034500D01*
X142804904Y-94034500D01*
X142618375Y-94071602D01*
X142442664Y-94144384D01*
X142284532Y-94250044D01*
X142150044Y-94384532D01*
X142044384Y-94542664D01*
X141971602Y-94718375D01*
X141934500Y-94904904D01*
X138559281Y-94904904D01*
X138682073Y-94815690D01*
X138815690Y-94682073D01*
X138926760Y-94529199D01*
X139012547Y-94360832D01*
X139070940Y-94181118D01*
X139076758Y-94144384D01*
X139100500Y-93994484D01*
X139100500Y-93805515D01*
X139070941Y-93618886D01*
X139060028Y-93585299D01*
X139012547Y-93439168D01*
X138926760Y-93270801D01*
X138815690Y-93117927D01*
X138682073Y-92984310D01*
X138529199Y-92873240D01*
X138529198Y-92873239D01*
X138529196Y-92873238D01*
X138360832Y-92787453D01*
X138181113Y-92729058D01*
X137994484Y-92699500D01*
X137994481Y-92699500D01*
X137805519Y-92699500D01*
X137805516Y-92699500D01*
X137618886Y-92729058D01*
X137439167Y-92787453D01*
X137270803Y-92873238D01*
X137117928Y-92984309D01*
X136984309Y-93117928D01*
X136873238Y-93270803D01*
X136787453Y-93439167D01*
X136729058Y-93618886D01*
X136699500Y-93805515D01*
X129353967Y-93805515D01*
X129341855Y-93744626D01*
X129275858Y-93585295D01*
X129275854Y-93585287D01*
X129220893Y-93503034D01*
X129180045Y-93441901D01*
X129058099Y-93319955D01*
X129017249Y-93292660D01*
X128914712Y-93224145D01*
X128914700Y-93224139D01*
X128755374Y-93158145D01*
X128586231Y-93124500D01*
X128586229Y-93124500D01*
X128413771Y-93124500D01*
X128413768Y-93124500D01*
X128244626Y-93158145D01*
X128244624Y-93158145D01*
X128085299Y-93224139D01*
X128085287Y-93224145D01*
X127941901Y-93319955D01*
X127941897Y-93319958D01*
X127819958Y-93441897D01*
X127819955Y-93441901D01*
X127724145Y-93585287D01*
X127724139Y-93585299D01*
X127658145Y-93744624D01*
X127658145Y-93744626D01*
X127624500Y-93913768D01*
X127375499Y-93913768D01*
X127341855Y-93744626D01*
X127275858Y-93585295D01*
X127275854Y-93585287D01*
X127220893Y-93503034D01*
X127180045Y-93441901D01*
X127058099Y-93319955D01*
X127017249Y-93292660D01*
X126914712Y-93224145D01*
X126914700Y-93224139D01*
X126755374Y-93158145D01*
X126586231Y-93124500D01*
X126586229Y-93124500D01*
X126413771Y-93124500D01*
X126413768Y-93124500D01*
X126244626Y-93158145D01*
X126244624Y-93158145D01*
X126085299Y-93224139D01*
X126085287Y-93224145D01*
X125941901Y-93319955D01*
X125941897Y-93319958D01*
X125819958Y-93441897D01*
X125819955Y-93441901D01*
X125724145Y-93585287D01*
X125724139Y-93585299D01*
X125658145Y-93744624D01*
X125658145Y-93744626D01*
X125624500Y-93913768D01*
X123300500Y-93913768D01*
X123300500Y-91908892D01*
X125575000Y-91908892D01*
X125575000Y-92091107D01*
X125610547Y-92269812D01*
X125610547Y-92269814D01*
X125680273Y-92438149D01*
X125748142Y-92539723D01*
X126129532Y-92158332D01*
X126179920Y-92245606D01*
X126254394Y-92320080D01*
X126341665Y-92370465D01*
X125960275Y-92751856D01*
X126061840Y-92819721D01*
X126061852Y-92819727D01*
X126230186Y-92889452D01*
X126408892Y-92924999D01*
X126408896Y-92925000D01*
X126591104Y-92925000D01*
X126591107Y-92924999D01*
X126769812Y-92889452D01*
X126769814Y-92889452D01*
X126938149Y-92819726D01*
X127039723Y-92751856D01*
X126658333Y-92370466D01*
X126745606Y-92320080D01*
X126820080Y-92245606D01*
X126870466Y-92158333D01*
X127251856Y-92539723D01*
X127319726Y-92438149D01*
X127389452Y-92269814D01*
X127389452Y-92269812D01*
X127424999Y-92091107D01*
X127425000Y-92091103D01*
X127425000Y-91908896D01*
X127424999Y-91908892D01*
X127389452Y-91730187D01*
X127389452Y-91730185D01*
X127319727Y-91561852D01*
X127319721Y-91561840D01*
X127251856Y-91460275D01*
X126870465Y-91841665D01*
X126820080Y-91754394D01*
X126745606Y-91679920D01*
X126658332Y-91629532D01*
X126982612Y-91305253D01*
X127624500Y-91305253D01*
X127624500Y-92694746D01*
X127624501Y-92694758D01*
X127636132Y-92753227D01*
X127636134Y-92753233D01*
X127680445Y-92819548D01*
X127680448Y-92819552D01*
X127746769Y-92863867D01*
X127791231Y-92872711D01*
X127805241Y-92875498D01*
X127805246Y-92875498D01*
X127805252Y-92875500D01*
X127805253Y-92875500D01*
X129194747Y-92875500D01*
X129194748Y-92875500D01*
X129253231Y-92863867D01*
X129319552Y-92819552D01*
X129363867Y-92753231D01*
X129375500Y-92694748D01*
X129375500Y-92478191D01*
X151799500Y-92478191D01*
X151799500Y-92596809D01*
X151821824Y-92680123D01*
X151830202Y-92711390D01*
X151889507Y-92814108D01*
X151889509Y-92814110D01*
X151889511Y-92814113D01*
X151973387Y-92897989D01*
X151973389Y-92897990D01*
X151973391Y-92897992D01*
X152076110Y-92957297D01*
X152076111Y-92957297D01*
X152076114Y-92957299D01*
X152190691Y-92988000D01*
X152190693Y-92988000D01*
X152309307Y-92988000D01*
X152309309Y-92988000D01*
X152423886Y-92957299D01*
X152423888Y-92957297D01*
X152423890Y-92957297D01*
X152526608Y-92897992D01*
X152526608Y-92897991D01*
X152526613Y-92897989D01*
X152610489Y-92814113D01*
X152625881Y-92787453D01*
X152669797Y-92711390D01*
X152669797Y-92711388D01*
X152669799Y-92711386D01*
X152700500Y-92596809D01*
X152700500Y-92478191D01*
X152669799Y-92363614D01*
X152669797Y-92363611D01*
X152669797Y-92363609D01*
X152610492Y-92260891D01*
X152610490Y-92260889D01*
X152610489Y-92260887D01*
X152526613Y-92177011D01*
X152526610Y-92177009D01*
X152526608Y-92177007D01*
X152423889Y-92117702D01*
X152423890Y-92117702D01*
X152410351Y-92114074D01*
X152309309Y-92087000D01*
X152190691Y-92087000D01*
X152120567Y-92105789D01*
X152076109Y-92117702D01*
X151973391Y-92177007D01*
X151889507Y-92260891D01*
X151830202Y-92363609D01*
X151830201Y-92363614D01*
X151799500Y-92478191D01*
X129375500Y-92478191D01*
X129375500Y-91931391D01*
X147299500Y-91931391D01*
X147299500Y-92050009D01*
X147326574Y-92151051D01*
X147330202Y-92164590D01*
X147389507Y-92267308D01*
X147389509Y-92267310D01*
X147389511Y-92267313D01*
X147473387Y-92351189D01*
X147473389Y-92351190D01*
X147473391Y-92351192D01*
X147576110Y-92410497D01*
X147576111Y-92410497D01*
X147576114Y-92410499D01*
X147690691Y-92441200D01*
X147690693Y-92441200D01*
X147809307Y-92441200D01*
X147809309Y-92441200D01*
X147923886Y-92410499D01*
X148026613Y-92351189D01*
X148110489Y-92267313D01*
X148114199Y-92260887D01*
X148169797Y-92164590D01*
X148169797Y-92164588D01*
X148169799Y-92164586D01*
X148200500Y-92050009D01*
X148200500Y-91931391D01*
X148169799Y-91816814D01*
X148169797Y-91816811D01*
X148169797Y-91816809D01*
X148110492Y-91714091D01*
X148110490Y-91714089D01*
X148110489Y-91714087D01*
X148026613Y-91630211D01*
X148026610Y-91630209D01*
X148026608Y-91630207D01*
X147923889Y-91570902D01*
X147923890Y-91570902D01*
X147910351Y-91567274D01*
X147809309Y-91540200D01*
X147690691Y-91540200D01*
X147620567Y-91558989D01*
X147576109Y-91570902D01*
X147473391Y-91630207D01*
X147389507Y-91714091D01*
X147330202Y-91816809D01*
X147313037Y-91880869D01*
X147299500Y-91931391D01*
X129375500Y-91931391D01*
X129375500Y-91305252D01*
X129363867Y-91246769D01*
X129319552Y-91180448D01*
X129319548Y-91180445D01*
X129253233Y-91136134D01*
X129253231Y-91136133D01*
X129253228Y-91136132D01*
X129253227Y-91136132D01*
X129194758Y-91124501D01*
X129194748Y-91124500D01*
X127805252Y-91124500D01*
X127805251Y-91124500D01*
X127805241Y-91124501D01*
X127746772Y-91136132D01*
X127746766Y-91136134D01*
X127680451Y-91180445D01*
X127680445Y-91180451D01*
X127636134Y-91246766D01*
X127636132Y-91246772D01*
X127624501Y-91305241D01*
X127624500Y-91305253D01*
X126982612Y-91305253D01*
X127039723Y-91248142D01*
X126938149Y-91180273D01*
X126769813Y-91110547D01*
X126591107Y-91075000D01*
X126408892Y-91075000D01*
X126230187Y-91110547D01*
X126230185Y-91110547D01*
X126061850Y-91180273D01*
X125960275Y-91248142D01*
X126341666Y-91629533D01*
X126254394Y-91679920D01*
X126179920Y-91754394D01*
X126129533Y-91841666D01*
X125748142Y-91460275D01*
X125680273Y-91561850D01*
X125610547Y-91730185D01*
X125610547Y-91730187D01*
X125575000Y-91908892D01*
X123300500Y-91908892D01*
X123300500Y-89504861D01*
X123300977Y-89495157D01*
X123312985Y-89373237D01*
X123316771Y-89354204D01*
X123350918Y-89241635D01*
X123358335Y-89223726D01*
X123413795Y-89119968D01*
X123424567Y-89103846D01*
X123499195Y-89012913D01*
X123512913Y-88999195D01*
X123603846Y-88924567D01*
X123619968Y-88913795D01*
X123723726Y-88858335D01*
X123741635Y-88850918D01*
X123854205Y-88816770D01*
X123873233Y-88812985D01*
X123995157Y-88800976D01*
X124004861Y-88800500D01*
X124047594Y-88800500D01*
X172952406Y-88800500D01*
X172995139Y-88800500D01*
X173004842Y-88800976D01*
G37*
%TD.AperFunction*%
%TD*%
M02*
