%TF.GenerationSoftware,KiCad,Pcbnew,10.0.6-10.0.6~ubuntu26.04.1*%
%TF.CreationDate,2026-10-03T10:34:17+02:00*%
%TF.ProjectId,flashcat_p30,666c6173-6863-4617-945f-7033302e6b69,C*%
%TF.SameCoordinates,Original*%
%TF.FileFunction,Drillmap*%
%TF.FilePolarity,Positive*%
%FSLAX45Y45*%
G04 Gerber Fmt 4.5, Leading zero omitted, Abs format (unit mm)*
G04 Created by KiCad (PCBNEW 10.0.6-10.0.6~ubuntu26.04.1) date 2026-10-03 10:34:17*
%MOMM*%
%LPD*%
G01*
G04 APERTURE LIST*
%ADD10C,0.100000*%
%ADD11C,0.200000*%
G04 APERTURE END LIST*
D10*
X12300000Y-8950000D02*
G75*
G02*
X12400000Y-8850000I100000J0D01*
G01*
X12300000Y-12050000D02*
X12300000Y-8950000D01*
X12400000Y-8850000D02*
X17300000Y-8850000D01*
X12400000Y-12150000D02*
G75*
G02*
X12300000Y-12050000I0J100000D01*
G01*
X17300000Y-8850000D02*
G75*
G02*
X17400000Y-8950000I0J-100000D01*
G01*
X17300000Y-12150000D02*
X12400000Y-12150000D01*
X17400000Y-8950000D02*
X17400000Y-12050000D01*
X17400000Y-12050000D02*
G75*
G02*
X17300000Y-12150000I-100000J0D01*
G01*
D11*
D10*
X12922510Y-11523080D02*
X12952510Y-11553080D01*
X12952510Y-11523080D02*
X12922510Y-11553080D01*
X12934390Y-11852770D02*
X12964390Y-11882770D01*
X12964390Y-11852770D02*
X12934390Y-11882770D01*
X12941650Y-10002300D02*
X12971650Y-10032300D01*
X12971650Y-10002300D02*
X12941650Y-10032300D01*
X12986400Y-10939970D02*
X13016400Y-10969970D01*
X13016400Y-10939970D02*
X12986400Y-10969970D01*
X14118500Y-10310000D02*
X14148500Y-10340000D01*
X14148500Y-10310000D02*
X14118500Y-10340000D01*
X14118500Y-10510000D02*
X14148500Y-10540000D01*
X14148500Y-10510000D02*
X14118500Y-10540000D01*
X14175000Y-8922500D02*
X14205000Y-8952500D01*
X14205000Y-8922500D02*
X14175000Y-8952500D01*
X14300000Y-10510000D02*
X14330000Y-10540000D01*
X14330000Y-10510000D02*
X14300000Y-10540000D01*
X14443230Y-11285000D02*
X14473230Y-11315000D01*
X14473230Y-11285000D02*
X14443230Y-11315000D01*
X14443500Y-10861140D02*
X14473500Y-10891140D01*
X14473500Y-10861140D02*
X14443500Y-10891140D01*
X14447680Y-11174790D02*
X14477680Y-11204790D01*
X14477680Y-11174790D02*
X14447680Y-11204790D01*
X14510000Y-10260000D02*
X14540000Y-10290000D01*
X14540000Y-10260000D02*
X14510000Y-10290000D01*
X14510000Y-10360000D02*
X14540000Y-10390000D01*
X14540000Y-10360000D02*
X14510000Y-10390000D01*
X14510000Y-10460000D02*
X14540000Y-10490000D01*
X14540000Y-10460000D02*
X14510000Y-10490000D01*
X14510000Y-10660000D02*
X14540000Y-10690000D01*
X14540000Y-10660000D02*
X14510000Y-10690000D01*
X14545000Y-9333750D02*
X14575000Y-9363750D01*
X14575000Y-9333750D02*
X14545000Y-9363750D01*
X14608290Y-10926650D02*
X14638290Y-10956650D01*
X14638290Y-10926650D02*
X14608290Y-10956650D01*
X14610000Y-10460000D02*
X14640000Y-10490000D01*
X14640000Y-10460000D02*
X14610000Y-10490000D01*
X14667900Y-10078980D02*
X14697900Y-10108980D01*
X14697900Y-10078980D02*
X14667900Y-10108980D01*
X14675000Y-11702500D02*
X14705000Y-11732500D01*
X14705000Y-11702500D02*
X14675000Y-11732500D01*
X14709000Y-11151000D02*
X14739000Y-11181000D01*
X14739000Y-11151000D02*
X14709000Y-11181000D01*
X14710000Y-10360000D02*
X14740000Y-10390000D01*
X14740000Y-10360000D02*
X14710000Y-10390000D01*
X14710000Y-10460000D02*
X14740000Y-10490000D01*
X14740000Y-10460000D02*
X14710000Y-10490000D01*
X14710000Y-10560000D02*
X14740000Y-10590000D01*
X14740000Y-10560000D02*
X14710000Y-10590000D01*
X14710000Y-10660000D02*
X14740000Y-10690000D01*
X14740000Y-10660000D02*
X14710000Y-10690000D01*
X14754400Y-11742340D02*
X14784400Y-11772340D01*
X14784400Y-11742340D02*
X14754400Y-11772340D01*
X14760000Y-9184070D02*
X14790000Y-9214070D01*
X14790000Y-9184070D02*
X14760000Y-9214070D01*
X14805000Y-11320000D02*
X14835000Y-11350000D01*
X14835000Y-11320000D02*
X14805000Y-11350000D01*
X14807880Y-11956520D02*
X14837880Y-11986520D01*
X14837880Y-11956520D02*
X14807880Y-11986520D01*
X14810000Y-10360000D02*
X14840000Y-10390000D01*
X14840000Y-10360000D02*
X14810000Y-10390000D01*
X14810000Y-10460000D02*
X14840000Y-10490000D01*
X14840000Y-10460000D02*
X14810000Y-10490000D01*
X14810000Y-10560000D02*
X14840000Y-10590000D01*
X14840000Y-10560000D02*
X14810000Y-10590000D01*
X14810000Y-10660000D02*
X14840000Y-10690000D01*
X14840000Y-10660000D02*
X14810000Y-10690000D01*
X14814830Y-10966390D02*
X14844830Y-10996390D01*
X14844830Y-10966390D02*
X14814830Y-10996390D01*
X14845000Y-11680000D02*
X14875000Y-11710000D01*
X14875000Y-11680000D02*
X14845000Y-11710000D01*
X14872840Y-9891350D02*
X14902840Y-9921350D01*
X14902840Y-9891350D02*
X14872840Y-9921350D01*
X14910000Y-10046460D02*
X14940000Y-10076460D01*
X14940000Y-10046460D02*
X14910000Y-10076460D01*
X14910000Y-10360000D02*
X14940000Y-10390000D01*
X14940000Y-10360000D02*
X14910000Y-10390000D01*
X14910000Y-10460000D02*
X14940000Y-10490000D01*
X14940000Y-10460000D02*
X14910000Y-10490000D01*
X14910000Y-10660000D02*
X14940000Y-10690000D01*
X14940000Y-10660000D02*
X14910000Y-10690000D01*
X14915000Y-8922500D02*
X14945000Y-8952500D01*
X14945000Y-8922500D02*
X14915000Y-8952500D01*
X14960000Y-11320000D02*
X14990000Y-11350000D01*
X14990000Y-11320000D02*
X14960000Y-11350000D01*
X14977110Y-9960740D02*
X15007110Y-9990740D01*
X15007110Y-9960740D02*
X14977110Y-9990740D01*
X15010000Y-10460000D02*
X15040000Y-10490000D01*
X15040000Y-10460000D02*
X15010000Y-10490000D01*
X15010000Y-10560000D02*
X15040000Y-10590000D01*
X15040000Y-10560000D02*
X15010000Y-10590000D01*
X15010000Y-10660000D02*
X15040000Y-10690000D01*
X15040000Y-10660000D02*
X15010000Y-10690000D01*
X15010000Y-10760000D02*
X15040000Y-10790000D01*
X15040000Y-10760000D02*
X15010000Y-10790000D01*
X15060010Y-10921590D02*
X15090010Y-10951590D01*
X15090010Y-10921590D02*
X15060010Y-10951590D01*
X15072650Y-9885910D02*
X15102650Y-9915910D01*
X15102650Y-9885910D02*
X15072650Y-9915910D01*
X15110000Y-10260000D02*
X15140000Y-10290000D01*
X15140000Y-10260000D02*
X15110000Y-10290000D01*
X15150130Y-10913960D02*
X15180130Y-10943960D01*
X15180130Y-10913960D02*
X15150130Y-10943960D01*
X15165260Y-9871720D02*
X15195260Y-9901720D01*
X15195260Y-9871720D02*
X15165260Y-9901720D01*
X15210000Y-9238750D02*
X15240000Y-9268750D01*
X15240000Y-9238750D02*
X15210000Y-9268750D01*
X15210000Y-10460000D02*
X15240000Y-10490000D01*
X15240000Y-10460000D02*
X15210000Y-10490000D01*
X15210000Y-10660000D02*
X15240000Y-10690000D01*
X15240000Y-10660000D02*
X15210000Y-10690000D01*
X15327720Y-10895230D02*
X15357720Y-10925230D01*
X15357720Y-10895230D02*
X15327720Y-10925230D01*
X15331170Y-10004960D02*
X15361170Y-10034960D01*
X15361170Y-10004960D02*
X15331170Y-10034960D01*
X15414120Y-10975910D02*
X15444120Y-11005910D01*
X15444120Y-10975910D02*
X15414120Y-11005910D01*
X15418510Y-10535000D02*
X15448510Y-10565000D01*
X15448510Y-10535000D02*
X15418510Y-10565000D01*
X15419310Y-10057460D02*
X15449310Y-10087460D01*
X15449310Y-10057460D02*
X15419310Y-10087460D01*
X15504830Y-10272050D02*
X15534830Y-10302050D01*
X15534830Y-10272050D02*
X15504830Y-10302050D01*
X15536570Y-10548200D02*
X15566570Y-10578200D01*
X15566570Y-10548200D02*
X15536570Y-10578200D01*
X15601500Y-10410000D02*
X15631500Y-10440000D01*
X15631500Y-10410000D02*
X15601500Y-10440000D01*
X15601500Y-10710000D02*
X15631500Y-10740000D01*
X15631500Y-10710000D02*
X15601500Y-10740000D01*
X15903480Y-10625360D02*
X15933480Y-10655360D01*
X15933480Y-10625360D02*
X15903480Y-10655360D01*
X16209840Y-10600540D02*
X16239840Y-10630540D01*
X16239840Y-10600540D02*
X16209840Y-10630540D01*
X16255930Y-10890970D02*
X16285930Y-10920970D01*
X16285930Y-10890970D02*
X16255930Y-10920970D01*
X16421530Y-10490780D02*
X16451530Y-10520780D01*
X16451530Y-10490780D02*
X16421530Y-10520780D01*
X16474770Y-10316270D02*
X16504770Y-10346270D01*
X16504770Y-10316270D02*
X16474770Y-10346270D01*
X16519000Y-10686710D02*
X16549000Y-10716710D01*
X16549000Y-10686710D02*
X16519000Y-10716710D01*
X16581880Y-10664360D02*
X16611880Y-10694360D01*
X16611880Y-10664360D02*
X16581880Y-10694360D01*
X16651850Y-10733830D02*
X16681850Y-10763830D01*
X16681850Y-10733830D02*
X16651850Y-10763830D01*
X12690000Y-9200000D02*
G75*
G02*
X12610000Y-9200000I-40000J0D01*
G01*
X12610000Y-9200000D02*
G75*
G02*
X12690000Y-9200000I40000J0D01*
G01*
X12690000Y-9400000D02*
G75*
G02*
X12610000Y-9400000I-40000J0D01*
G01*
X12610000Y-9400000D02*
G75*
G02*
X12690000Y-9400000I40000J0D01*
G01*
X12690000Y-9600000D02*
G75*
G02*
X12610000Y-9600000I-40000J0D01*
G01*
X12610000Y-9600000D02*
G75*
G02*
X12690000Y-9600000I40000J0D01*
G01*
X12690000Y-9800000D02*
G75*
G02*
X12610000Y-9800000I-40000J0D01*
G01*
X12610000Y-9800000D02*
G75*
G02*
X12690000Y-9800000I40000J0D01*
G01*
X12690000Y-10000000D02*
G75*
G02*
X12610000Y-10000000I-40000J0D01*
G01*
X12610000Y-10000000D02*
G75*
G02*
X12690000Y-10000000I40000J0D01*
G01*
X12690000Y-10200000D02*
G75*
G02*
X12610000Y-10200000I-40000J0D01*
G01*
X12610000Y-10200000D02*
G75*
G02*
X12690000Y-10200000I40000J0D01*
G01*
X12690000Y-10400000D02*
G75*
G02*
X12610000Y-10400000I-40000J0D01*
G01*
X12610000Y-10400000D02*
G75*
G02*
X12690000Y-10400000I40000J0D01*
G01*
X12690000Y-10600000D02*
G75*
G02*
X12610000Y-10600000I-40000J0D01*
G01*
X12610000Y-10600000D02*
G75*
G02*
X12690000Y-10600000I40000J0D01*
G01*
X12690000Y-10800000D02*
G75*
G02*
X12610000Y-10800000I-40000J0D01*
G01*
X12610000Y-10800000D02*
G75*
G02*
X12690000Y-10800000I40000J0D01*
G01*
X12690000Y-11000000D02*
G75*
G02*
X12610000Y-11000000I-40000J0D01*
G01*
X12610000Y-11000000D02*
G75*
G02*
X12690000Y-11000000I40000J0D01*
G01*
X12690000Y-11200000D02*
G75*
G02*
X12610000Y-11200000I-40000J0D01*
G01*
X12610000Y-11200000D02*
G75*
G02*
X12690000Y-11200000I40000J0D01*
G01*
X12690000Y-11400000D02*
G75*
G02*
X12610000Y-11400000I-40000J0D01*
G01*
X12610000Y-11400000D02*
G75*
G02*
X12690000Y-11400000I40000J0D01*
G01*
X12690000Y-11600000D02*
G75*
G02*
X12610000Y-11600000I-40000J0D01*
G01*
X12610000Y-11600000D02*
G75*
G02*
X12690000Y-11600000I40000J0D01*
G01*
X12690000Y-11800000D02*
G75*
G02*
X12610000Y-11800000I-40000J0D01*
G01*
X12610000Y-11800000D02*
G75*
G02*
X12690000Y-11800000I40000J0D01*
G01*
X12890000Y-9200000D02*
G75*
G02*
X12810000Y-9200000I-40000J0D01*
G01*
X12810000Y-9200000D02*
G75*
G02*
X12890000Y-9200000I40000J0D01*
G01*
X12890000Y-9400000D02*
G75*
G02*
X12810000Y-9400000I-40000J0D01*
G01*
X12810000Y-9400000D02*
G75*
G02*
X12890000Y-9400000I40000J0D01*
G01*
X12890000Y-9600000D02*
G75*
G02*
X12810000Y-9600000I-40000J0D01*
G01*
X12810000Y-9600000D02*
G75*
G02*
X12890000Y-9600000I40000J0D01*
G01*
X12890000Y-9800000D02*
G75*
G02*
X12810000Y-9800000I-40000J0D01*
G01*
X12810000Y-9800000D02*
G75*
G02*
X12890000Y-9800000I40000J0D01*
G01*
X12890000Y-10000000D02*
G75*
G02*
X12810000Y-10000000I-40000J0D01*
G01*
X12810000Y-10000000D02*
G75*
G02*
X12890000Y-10000000I40000J0D01*
G01*
X12890000Y-10200000D02*
G75*
G02*
X12810000Y-10200000I-40000J0D01*
G01*
X12810000Y-10200000D02*
G75*
G02*
X12890000Y-10200000I40000J0D01*
G01*
X12890000Y-10400000D02*
G75*
G02*
X12810000Y-10400000I-40000J0D01*
G01*
X12810000Y-10400000D02*
G75*
G02*
X12890000Y-10400000I40000J0D01*
G01*
X12890000Y-10600000D02*
G75*
G02*
X12810000Y-10600000I-40000J0D01*
G01*
X12810000Y-10600000D02*
G75*
G02*
X12890000Y-10600000I40000J0D01*
G01*
X12890000Y-10800000D02*
G75*
G02*
X12810000Y-10800000I-40000J0D01*
G01*
X12810000Y-10800000D02*
G75*
G02*
X12890000Y-10800000I40000J0D01*
G01*
X12890000Y-11000000D02*
G75*
G02*
X12810000Y-11000000I-40000J0D01*
G01*
X12810000Y-11000000D02*
G75*
G02*
X12890000Y-11000000I40000J0D01*
G01*
X12890000Y-11200000D02*
G75*
G02*
X12810000Y-11200000I-40000J0D01*
G01*
X12810000Y-11200000D02*
G75*
G02*
X12890000Y-11200000I40000J0D01*
G01*
X12890000Y-11400000D02*
G75*
G02*
X12810000Y-11400000I-40000J0D01*
G01*
X12810000Y-11400000D02*
G75*
G02*
X12890000Y-11400000I40000J0D01*
G01*
X12890000Y-11600000D02*
G75*
G02*
X12810000Y-11600000I-40000J0D01*
G01*
X12810000Y-11600000D02*
G75*
G02*
X12890000Y-11600000I40000J0D01*
G01*
X12890000Y-11800000D02*
G75*
G02*
X12810000Y-11800000I-40000J0D01*
G01*
X12810000Y-11800000D02*
G75*
G02*
X12890000Y-11800000I40000J0D01*
G01*
X16890000Y-9200000D02*
G75*
G02*
X16810000Y-9200000I-40000J0D01*
G01*
X16810000Y-9200000D02*
G75*
G02*
X16890000Y-9200000I40000J0D01*
G01*
X16890000Y-9400000D02*
G75*
G02*
X16810000Y-9400000I-40000J0D01*
G01*
X16810000Y-9400000D02*
G75*
G02*
X16890000Y-9400000I40000J0D01*
G01*
X16890000Y-9600000D02*
G75*
G02*
X16810000Y-9600000I-40000J0D01*
G01*
X16810000Y-9600000D02*
G75*
G02*
X16890000Y-9600000I40000J0D01*
G01*
X16890000Y-9800000D02*
G75*
G02*
X16810000Y-9800000I-40000J0D01*
G01*
X16810000Y-9800000D02*
G75*
G02*
X16890000Y-9800000I40000J0D01*
G01*
X16890000Y-10000000D02*
G75*
G02*
X16810000Y-10000000I-40000J0D01*
G01*
X16810000Y-10000000D02*
G75*
G02*
X16890000Y-10000000I40000J0D01*
G01*
X16890000Y-10200000D02*
G75*
G02*
X16810000Y-10200000I-40000J0D01*
G01*
X16810000Y-10200000D02*
G75*
G02*
X16890000Y-10200000I40000J0D01*
G01*
X16890000Y-10400000D02*
G75*
G02*
X16810000Y-10400000I-40000J0D01*
G01*
X16810000Y-10400000D02*
G75*
G02*
X16890000Y-10400000I40000J0D01*
G01*
X16890000Y-10600000D02*
G75*
G02*
X16810000Y-10600000I-40000J0D01*
G01*
X16810000Y-10600000D02*
G75*
G02*
X16890000Y-10600000I40000J0D01*
G01*
X16890000Y-10800000D02*
G75*
G02*
X16810000Y-10800000I-40000J0D01*
G01*
X16810000Y-10800000D02*
G75*
G02*
X16890000Y-10800000I40000J0D01*
G01*
X16890000Y-11000000D02*
G75*
G02*
X16810000Y-11000000I-40000J0D01*
G01*
X16810000Y-11000000D02*
G75*
G02*
X16890000Y-11000000I40000J0D01*
G01*
X16890000Y-11200000D02*
G75*
G02*
X16810000Y-11200000I-40000J0D01*
G01*
X16810000Y-11200000D02*
G75*
G02*
X16890000Y-11200000I40000J0D01*
G01*
X16890000Y-11400000D02*
G75*
G02*
X16810000Y-11400000I-40000J0D01*
G01*
X16810000Y-11400000D02*
G75*
G02*
X16890000Y-11400000I40000J0D01*
G01*
X16890000Y-11600000D02*
G75*
G02*
X16810000Y-11600000I-40000J0D01*
G01*
X16810000Y-11600000D02*
G75*
G02*
X16890000Y-11600000I40000J0D01*
G01*
X16890000Y-11800000D02*
G75*
G02*
X16810000Y-11800000I-40000J0D01*
G01*
X16810000Y-11800000D02*
G75*
G02*
X16890000Y-11800000I40000J0D01*
G01*
X17090000Y-9200000D02*
G75*
G02*
X17010000Y-9200000I-40000J0D01*
G01*
X17010000Y-9200000D02*
G75*
G02*
X17090000Y-9200000I40000J0D01*
G01*
X17090000Y-9400000D02*
G75*
G02*
X17010000Y-9400000I-40000J0D01*
G01*
X17010000Y-9400000D02*
G75*
G02*
X17090000Y-9400000I40000J0D01*
G01*
X17090000Y-9600000D02*
G75*
G02*
X17010000Y-9600000I-40000J0D01*
G01*
X17010000Y-9600000D02*
G75*
G02*
X17090000Y-9600000I40000J0D01*
G01*
X17090000Y-9800000D02*
G75*
G02*
X17010000Y-9800000I-40000J0D01*
G01*
X17010000Y-9800000D02*
G75*
G02*
X17090000Y-9800000I40000J0D01*
G01*
X17090000Y-10000000D02*
G75*
G02*
X17010000Y-10000000I-40000J0D01*
G01*
X17010000Y-10000000D02*
G75*
G02*
X17090000Y-10000000I40000J0D01*
G01*
X17090000Y-10200000D02*
G75*
G02*
X17010000Y-10200000I-40000J0D01*
G01*
X17010000Y-10200000D02*
G75*
G02*
X17090000Y-10200000I40000J0D01*
G01*
X17090000Y-10400000D02*
G75*
G02*
X17010000Y-10400000I-40000J0D01*
G01*
X17010000Y-10400000D02*
G75*
G02*
X17090000Y-10400000I40000J0D01*
G01*
X17090000Y-10600000D02*
G75*
G02*
X17010000Y-10600000I-40000J0D01*
G01*
X17010000Y-10600000D02*
G75*
G02*
X17090000Y-10600000I40000J0D01*
G01*
X17090000Y-10800000D02*
G75*
G02*
X17010000Y-10800000I-40000J0D01*
G01*
X17010000Y-10800000D02*
G75*
G02*
X17090000Y-10800000I40000J0D01*
G01*
X17090000Y-11000000D02*
G75*
G02*
X17010000Y-11000000I-40000J0D01*
G01*
X17010000Y-11000000D02*
G75*
G02*
X17090000Y-11000000I40000J0D01*
G01*
X17090000Y-11200000D02*
G75*
G02*
X17010000Y-11200000I-40000J0D01*
G01*
X17010000Y-11200000D02*
G75*
G02*
X17090000Y-11200000I40000J0D01*
G01*
X17090000Y-11400000D02*
G75*
G02*
X17010000Y-11400000I-40000J0D01*
G01*
X17010000Y-11400000D02*
G75*
G02*
X17090000Y-11400000I40000J0D01*
G01*
X17090000Y-11600000D02*
G75*
G02*
X17010000Y-11600000I-40000J0D01*
G01*
X17010000Y-11600000D02*
G75*
G02*
X17090000Y-11600000I40000J0D01*
G01*
X17090000Y-11800000D02*
G75*
G02*
X17010000Y-11800000I-40000J0D01*
G01*
X17010000Y-11800000D02*
G75*
G02*
X17090000Y-11800000I40000J0D01*
G01*
D11*
X12555777Y-12466484D02*
X12555777Y-12266484D01*
X12555777Y-12266484D02*
X12603396Y-12266484D01*
X12603396Y-12266484D02*
X12631967Y-12276008D01*
X12631967Y-12276008D02*
X12651015Y-12295055D01*
X12651015Y-12295055D02*
X12660539Y-12314103D01*
X12660539Y-12314103D02*
X12670062Y-12352198D01*
X12670062Y-12352198D02*
X12670062Y-12380769D01*
X12670062Y-12380769D02*
X12660539Y-12418865D01*
X12660539Y-12418865D02*
X12651015Y-12437912D01*
X12651015Y-12437912D02*
X12631967Y-12456960D01*
X12631967Y-12456960D02*
X12603396Y-12466484D01*
X12603396Y-12466484D02*
X12555777Y-12466484D01*
X12755777Y-12466484D02*
X12755777Y-12333150D01*
X12755777Y-12371246D02*
X12765301Y-12352198D01*
X12765301Y-12352198D02*
X12774824Y-12342674D01*
X12774824Y-12342674D02*
X12793872Y-12333150D01*
X12793872Y-12333150D02*
X12812920Y-12333150D01*
X12879586Y-12466484D02*
X12879586Y-12333150D01*
X12879586Y-12266484D02*
X12870062Y-12276008D01*
X12870062Y-12276008D02*
X12879586Y-12285531D01*
X12879586Y-12285531D02*
X12889110Y-12276008D01*
X12889110Y-12276008D02*
X12879586Y-12266484D01*
X12879586Y-12266484D02*
X12879586Y-12285531D01*
X13003396Y-12466484D02*
X12984348Y-12456960D01*
X12984348Y-12456960D02*
X12974824Y-12437912D01*
X12974824Y-12437912D02*
X12974824Y-12266484D01*
X13108158Y-12466484D02*
X13089110Y-12456960D01*
X13089110Y-12456960D02*
X13079586Y-12437912D01*
X13079586Y-12437912D02*
X13079586Y-12266484D01*
X13336729Y-12466484D02*
X13336729Y-12266484D01*
X13336729Y-12266484D02*
X13403396Y-12409341D01*
X13403396Y-12409341D02*
X13470062Y-12266484D01*
X13470062Y-12266484D02*
X13470062Y-12466484D01*
X13651015Y-12466484D02*
X13651015Y-12361722D01*
X13651015Y-12361722D02*
X13641491Y-12342674D01*
X13641491Y-12342674D02*
X13622443Y-12333150D01*
X13622443Y-12333150D02*
X13584348Y-12333150D01*
X13584348Y-12333150D02*
X13565301Y-12342674D01*
X13651015Y-12456960D02*
X13631967Y-12466484D01*
X13631967Y-12466484D02*
X13584348Y-12466484D01*
X13584348Y-12466484D02*
X13565301Y-12456960D01*
X13565301Y-12456960D02*
X13555777Y-12437912D01*
X13555777Y-12437912D02*
X13555777Y-12418865D01*
X13555777Y-12418865D02*
X13565301Y-12399817D01*
X13565301Y-12399817D02*
X13584348Y-12390293D01*
X13584348Y-12390293D02*
X13631967Y-12390293D01*
X13631967Y-12390293D02*
X13651015Y-12380769D01*
X13746253Y-12333150D02*
X13746253Y-12533150D01*
X13746253Y-12342674D02*
X13765301Y-12333150D01*
X13765301Y-12333150D02*
X13803396Y-12333150D01*
X13803396Y-12333150D02*
X13822443Y-12342674D01*
X13822443Y-12342674D02*
X13831967Y-12352198D01*
X13831967Y-12352198D02*
X13841491Y-12371246D01*
X13841491Y-12371246D02*
X13841491Y-12428388D01*
X13841491Y-12428388D02*
X13831967Y-12447436D01*
X13831967Y-12447436D02*
X13822443Y-12456960D01*
X13822443Y-12456960D02*
X13803396Y-12466484D01*
X13803396Y-12466484D02*
X13765301Y-12466484D01*
X13765301Y-12466484D02*
X13746253Y-12456960D01*
X13927205Y-12447436D02*
X13936729Y-12456960D01*
X13936729Y-12456960D02*
X13927205Y-12466484D01*
X13927205Y-12466484D02*
X13917682Y-12456960D01*
X13917682Y-12456960D02*
X13927205Y-12447436D01*
X13927205Y-12447436D02*
X13927205Y-12466484D01*
X13927205Y-12342674D02*
X13936729Y-12352198D01*
X13936729Y-12352198D02*
X13927205Y-12361722D01*
X13927205Y-12361722D02*
X13917682Y-12352198D01*
X13917682Y-12352198D02*
X13927205Y-12342674D01*
X13927205Y-12342674D02*
X13927205Y-12361722D01*
D10*
X12265000Y-12780000D02*
X12295000Y-12810000D01*
X12295000Y-12780000D02*
X12265000Y-12810000D01*
D11*
X12593872Y-12686484D02*
X12612920Y-12686484D01*
X12612920Y-12686484D02*
X12631967Y-12696008D01*
X12631967Y-12696008D02*
X12641491Y-12705531D01*
X12641491Y-12705531D02*
X12651015Y-12724579D01*
X12651015Y-12724579D02*
X12660539Y-12762674D01*
X12660539Y-12762674D02*
X12660539Y-12810293D01*
X12660539Y-12810293D02*
X12651015Y-12848388D01*
X12651015Y-12848388D02*
X12641491Y-12867436D01*
X12641491Y-12867436D02*
X12631967Y-12876960D01*
X12631967Y-12876960D02*
X12612920Y-12886484D01*
X12612920Y-12886484D02*
X12593872Y-12886484D01*
X12593872Y-12886484D02*
X12574824Y-12876960D01*
X12574824Y-12876960D02*
X12565301Y-12867436D01*
X12565301Y-12867436D02*
X12555777Y-12848388D01*
X12555777Y-12848388D02*
X12546253Y-12810293D01*
X12546253Y-12810293D02*
X12546253Y-12762674D01*
X12546253Y-12762674D02*
X12555777Y-12724579D01*
X12555777Y-12724579D02*
X12565301Y-12705531D01*
X12565301Y-12705531D02*
X12574824Y-12696008D01*
X12574824Y-12696008D02*
X12593872Y-12686484D01*
X12746253Y-12867436D02*
X12755777Y-12876960D01*
X12755777Y-12876960D02*
X12746253Y-12886484D01*
X12746253Y-12886484D02*
X12736729Y-12876960D01*
X12736729Y-12876960D02*
X12746253Y-12867436D01*
X12746253Y-12867436D02*
X12746253Y-12886484D01*
X12822443Y-12686484D02*
X12946253Y-12686484D01*
X12946253Y-12686484D02*
X12879586Y-12762674D01*
X12879586Y-12762674D02*
X12908158Y-12762674D01*
X12908158Y-12762674D02*
X12927205Y-12772198D01*
X12927205Y-12772198D02*
X12936729Y-12781722D01*
X12936729Y-12781722D02*
X12946253Y-12800769D01*
X12946253Y-12800769D02*
X12946253Y-12848388D01*
X12946253Y-12848388D02*
X12936729Y-12867436D01*
X12936729Y-12867436D02*
X12927205Y-12876960D01*
X12927205Y-12876960D02*
X12908158Y-12886484D01*
X12908158Y-12886484D02*
X12851015Y-12886484D01*
X12851015Y-12886484D02*
X12831967Y-12876960D01*
X12831967Y-12876960D02*
X12822443Y-12867436D01*
X13070062Y-12686484D02*
X13089110Y-12686484D01*
X13089110Y-12686484D02*
X13108158Y-12696008D01*
X13108158Y-12696008D02*
X13117682Y-12705531D01*
X13117682Y-12705531D02*
X13127205Y-12724579D01*
X13127205Y-12724579D02*
X13136729Y-12762674D01*
X13136729Y-12762674D02*
X13136729Y-12810293D01*
X13136729Y-12810293D02*
X13127205Y-12848388D01*
X13127205Y-12848388D02*
X13117682Y-12867436D01*
X13117682Y-12867436D02*
X13108158Y-12876960D01*
X13108158Y-12876960D02*
X13089110Y-12886484D01*
X13089110Y-12886484D02*
X13070062Y-12886484D01*
X13070062Y-12886484D02*
X13051015Y-12876960D01*
X13051015Y-12876960D02*
X13041491Y-12867436D01*
X13041491Y-12867436D02*
X13031967Y-12848388D01*
X13031967Y-12848388D02*
X13022443Y-12810293D01*
X13022443Y-12810293D02*
X13022443Y-12762674D01*
X13022443Y-12762674D02*
X13031967Y-12724579D01*
X13031967Y-12724579D02*
X13041491Y-12705531D01*
X13041491Y-12705531D02*
X13051015Y-12696008D01*
X13051015Y-12696008D02*
X13070062Y-12686484D01*
X13260539Y-12686484D02*
X13279586Y-12686484D01*
X13279586Y-12686484D02*
X13298634Y-12696008D01*
X13298634Y-12696008D02*
X13308158Y-12705531D01*
X13308158Y-12705531D02*
X13317682Y-12724579D01*
X13317682Y-12724579D02*
X13327205Y-12762674D01*
X13327205Y-12762674D02*
X13327205Y-12810293D01*
X13327205Y-12810293D02*
X13317682Y-12848388D01*
X13317682Y-12848388D02*
X13308158Y-12867436D01*
X13308158Y-12867436D02*
X13298634Y-12876960D01*
X13298634Y-12876960D02*
X13279586Y-12886484D01*
X13279586Y-12886484D02*
X13260539Y-12886484D01*
X13260539Y-12886484D02*
X13241491Y-12876960D01*
X13241491Y-12876960D02*
X13231967Y-12867436D01*
X13231967Y-12867436D02*
X13222443Y-12848388D01*
X13222443Y-12848388D02*
X13212920Y-12810293D01*
X13212920Y-12810293D02*
X13212920Y-12762674D01*
X13212920Y-12762674D02*
X13222443Y-12724579D01*
X13222443Y-12724579D02*
X13231967Y-12705531D01*
X13231967Y-12705531D02*
X13241491Y-12696008D01*
X13241491Y-12696008D02*
X13260539Y-12686484D01*
X13412920Y-12886484D02*
X13412920Y-12753150D01*
X13412920Y-12772198D02*
X13422443Y-12762674D01*
X13422443Y-12762674D02*
X13441491Y-12753150D01*
X13441491Y-12753150D02*
X13470063Y-12753150D01*
X13470063Y-12753150D02*
X13489110Y-12762674D01*
X13489110Y-12762674D02*
X13498634Y-12781722D01*
X13498634Y-12781722D02*
X13498634Y-12886484D01*
X13498634Y-12781722D02*
X13508158Y-12762674D01*
X13508158Y-12762674D02*
X13527205Y-12753150D01*
X13527205Y-12753150D02*
X13555777Y-12753150D01*
X13555777Y-12753150D02*
X13574824Y-12762674D01*
X13574824Y-12762674D02*
X13584348Y-12781722D01*
X13584348Y-12781722D02*
X13584348Y-12886484D01*
X13679586Y-12886484D02*
X13679586Y-12753150D01*
X13679586Y-12772198D02*
X13689110Y-12762674D01*
X13689110Y-12762674D02*
X13708158Y-12753150D01*
X13708158Y-12753150D02*
X13736729Y-12753150D01*
X13736729Y-12753150D02*
X13755777Y-12762674D01*
X13755777Y-12762674D02*
X13765301Y-12781722D01*
X13765301Y-12781722D02*
X13765301Y-12886484D01*
X13765301Y-12781722D02*
X13774824Y-12762674D01*
X13774824Y-12762674D02*
X13793872Y-12753150D01*
X13793872Y-12753150D02*
X13822443Y-12753150D01*
X13822443Y-12753150D02*
X13841491Y-12762674D01*
X13841491Y-12762674D02*
X13851015Y-12781722D01*
X13851015Y-12781722D02*
X13851015Y-12886484D01*
X14241491Y-12676960D02*
X14070063Y-12934103D01*
X14498634Y-12686484D02*
X14517682Y-12686484D01*
X14517682Y-12686484D02*
X14536729Y-12696008D01*
X14536729Y-12696008D02*
X14546253Y-12705531D01*
X14546253Y-12705531D02*
X14555777Y-12724579D01*
X14555777Y-12724579D02*
X14565301Y-12762674D01*
X14565301Y-12762674D02*
X14565301Y-12810293D01*
X14565301Y-12810293D02*
X14555777Y-12848388D01*
X14555777Y-12848388D02*
X14546253Y-12867436D01*
X14546253Y-12867436D02*
X14536729Y-12876960D01*
X14536729Y-12876960D02*
X14517682Y-12886484D01*
X14517682Y-12886484D02*
X14498634Y-12886484D01*
X14498634Y-12886484D02*
X14479586Y-12876960D01*
X14479586Y-12876960D02*
X14470063Y-12867436D01*
X14470063Y-12867436D02*
X14460539Y-12848388D01*
X14460539Y-12848388D02*
X14451015Y-12810293D01*
X14451015Y-12810293D02*
X14451015Y-12762674D01*
X14451015Y-12762674D02*
X14460539Y-12724579D01*
X14460539Y-12724579D02*
X14470063Y-12705531D01*
X14470063Y-12705531D02*
X14479586Y-12696008D01*
X14479586Y-12696008D02*
X14498634Y-12686484D01*
X14651015Y-12867436D02*
X14660539Y-12876960D01*
X14660539Y-12876960D02*
X14651015Y-12886484D01*
X14651015Y-12886484D02*
X14641491Y-12876960D01*
X14641491Y-12876960D02*
X14651015Y-12867436D01*
X14651015Y-12867436D02*
X14651015Y-12886484D01*
X14784348Y-12686484D02*
X14803396Y-12686484D01*
X14803396Y-12686484D02*
X14822444Y-12696008D01*
X14822444Y-12696008D02*
X14831967Y-12705531D01*
X14831967Y-12705531D02*
X14841491Y-12724579D01*
X14841491Y-12724579D02*
X14851015Y-12762674D01*
X14851015Y-12762674D02*
X14851015Y-12810293D01*
X14851015Y-12810293D02*
X14841491Y-12848388D01*
X14841491Y-12848388D02*
X14831967Y-12867436D01*
X14831967Y-12867436D02*
X14822444Y-12876960D01*
X14822444Y-12876960D02*
X14803396Y-12886484D01*
X14803396Y-12886484D02*
X14784348Y-12886484D01*
X14784348Y-12886484D02*
X14765301Y-12876960D01*
X14765301Y-12876960D02*
X14755777Y-12867436D01*
X14755777Y-12867436D02*
X14746253Y-12848388D01*
X14746253Y-12848388D02*
X14736729Y-12810293D01*
X14736729Y-12810293D02*
X14736729Y-12762674D01*
X14736729Y-12762674D02*
X14746253Y-12724579D01*
X14746253Y-12724579D02*
X14755777Y-12705531D01*
X14755777Y-12705531D02*
X14765301Y-12696008D01*
X14765301Y-12696008D02*
X14784348Y-12686484D01*
X15041491Y-12886484D02*
X14927206Y-12886484D01*
X14984348Y-12886484D02*
X14984348Y-12686484D01*
X14984348Y-12686484D02*
X14965301Y-12715055D01*
X14965301Y-12715055D02*
X14946253Y-12734103D01*
X14946253Y-12734103D02*
X14927206Y-12743627D01*
X15231967Y-12886484D02*
X15117682Y-12886484D01*
X15174825Y-12886484D02*
X15174825Y-12686484D01*
X15174825Y-12686484D02*
X15155777Y-12715055D01*
X15155777Y-12715055D02*
X15136729Y-12734103D01*
X15136729Y-12734103D02*
X15117682Y-12743627D01*
X15346253Y-12772198D02*
X15327206Y-12762674D01*
X15327206Y-12762674D02*
X15317682Y-12753150D01*
X15317682Y-12753150D02*
X15308158Y-12734103D01*
X15308158Y-12734103D02*
X15308158Y-12724579D01*
X15308158Y-12724579D02*
X15317682Y-12705531D01*
X15317682Y-12705531D02*
X15327206Y-12696008D01*
X15327206Y-12696008D02*
X15346253Y-12686484D01*
X15346253Y-12686484D02*
X15384348Y-12686484D01*
X15384348Y-12686484D02*
X15403396Y-12696008D01*
X15403396Y-12696008D02*
X15412920Y-12705531D01*
X15412920Y-12705531D02*
X15422444Y-12724579D01*
X15422444Y-12724579D02*
X15422444Y-12734103D01*
X15422444Y-12734103D02*
X15412920Y-12753150D01*
X15412920Y-12753150D02*
X15403396Y-12762674D01*
X15403396Y-12762674D02*
X15384348Y-12772198D01*
X15384348Y-12772198D02*
X15346253Y-12772198D01*
X15346253Y-12772198D02*
X15327206Y-12781722D01*
X15327206Y-12781722D02*
X15317682Y-12791246D01*
X15317682Y-12791246D02*
X15308158Y-12810293D01*
X15308158Y-12810293D02*
X15308158Y-12848388D01*
X15308158Y-12848388D02*
X15317682Y-12867436D01*
X15317682Y-12867436D02*
X15327206Y-12876960D01*
X15327206Y-12876960D02*
X15346253Y-12886484D01*
X15346253Y-12886484D02*
X15384348Y-12886484D01*
X15384348Y-12886484D02*
X15403396Y-12876960D01*
X15403396Y-12876960D02*
X15412920Y-12867436D01*
X15412920Y-12867436D02*
X15422444Y-12848388D01*
X15422444Y-12848388D02*
X15422444Y-12810293D01*
X15422444Y-12810293D02*
X15412920Y-12791246D01*
X15412920Y-12791246D02*
X15403396Y-12781722D01*
X15403396Y-12781722D02*
X15384348Y-12772198D01*
X15498634Y-12686484D02*
X15498634Y-12724579D01*
X15574825Y-12686484D02*
X15574825Y-12724579D01*
X15870063Y-12962674D02*
X15860539Y-12953150D01*
X15860539Y-12953150D02*
X15841491Y-12924579D01*
X15841491Y-12924579D02*
X15831968Y-12905531D01*
X15831968Y-12905531D02*
X15822444Y-12876960D01*
X15822444Y-12876960D02*
X15812920Y-12829341D01*
X15812920Y-12829341D02*
X15812920Y-12791246D01*
X15812920Y-12791246D02*
X15822444Y-12743627D01*
X15822444Y-12743627D02*
X15831968Y-12715055D01*
X15831968Y-12715055D02*
X15841491Y-12696008D01*
X15841491Y-12696008D02*
X15860539Y-12667436D01*
X15860539Y-12667436D02*
X15870063Y-12657912D01*
X15927206Y-12686484D02*
X16060539Y-12686484D01*
X16060539Y-12686484D02*
X15974825Y-12886484D01*
X16127206Y-12705531D02*
X16136729Y-12696008D01*
X16136729Y-12696008D02*
X16155777Y-12686484D01*
X16155777Y-12686484D02*
X16203396Y-12686484D01*
X16203396Y-12686484D02*
X16222444Y-12696008D01*
X16222444Y-12696008D02*
X16231968Y-12705531D01*
X16231968Y-12705531D02*
X16241491Y-12724579D01*
X16241491Y-12724579D02*
X16241491Y-12743627D01*
X16241491Y-12743627D02*
X16231968Y-12772198D01*
X16231968Y-12772198D02*
X16117682Y-12886484D01*
X16117682Y-12886484D02*
X16241491Y-12886484D01*
X16479587Y-12886484D02*
X16479587Y-12686484D01*
X16565301Y-12886484D02*
X16565301Y-12781722D01*
X16565301Y-12781722D02*
X16555777Y-12762674D01*
X16555777Y-12762674D02*
X16536730Y-12753150D01*
X16536730Y-12753150D02*
X16508158Y-12753150D01*
X16508158Y-12753150D02*
X16489110Y-12762674D01*
X16489110Y-12762674D02*
X16479587Y-12772198D01*
X16689110Y-12886484D02*
X16670063Y-12876960D01*
X16670063Y-12876960D02*
X16660539Y-12867436D01*
X16660539Y-12867436D02*
X16651015Y-12848388D01*
X16651015Y-12848388D02*
X16651015Y-12791246D01*
X16651015Y-12791246D02*
X16660539Y-12772198D01*
X16660539Y-12772198D02*
X16670063Y-12762674D01*
X16670063Y-12762674D02*
X16689110Y-12753150D01*
X16689110Y-12753150D02*
X16717682Y-12753150D01*
X16717682Y-12753150D02*
X16736730Y-12762674D01*
X16736730Y-12762674D02*
X16746253Y-12772198D01*
X16746253Y-12772198D02*
X16755777Y-12791246D01*
X16755777Y-12791246D02*
X16755777Y-12848388D01*
X16755777Y-12848388D02*
X16746253Y-12867436D01*
X16746253Y-12867436D02*
X16736730Y-12876960D01*
X16736730Y-12876960D02*
X16717682Y-12886484D01*
X16717682Y-12886484D02*
X16689110Y-12886484D01*
X16870063Y-12886484D02*
X16851015Y-12876960D01*
X16851015Y-12876960D02*
X16841492Y-12857912D01*
X16841492Y-12857912D02*
X16841492Y-12686484D01*
X17022444Y-12876960D02*
X17003396Y-12886484D01*
X17003396Y-12886484D02*
X16965301Y-12886484D01*
X16965301Y-12886484D02*
X16946253Y-12876960D01*
X16946253Y-12876960D02*
X16936730Y-12857912D01*
X16936730Y-12857912D02*
X16936730Y-12781722D01*
X16936730Y-12781722D02*
X16946253Y-12762674D01*
X16946253Y-12762674D02*
X16965301Y-12753150D01*
X16965301Y-12753150D02*
X17003396Y-12753150D01*
X17003396Y-12753150D02*
X17022444Y-12762674D01*
X17022444Y-12762674D02*
X17031968Y-12781722D01*
X17031968Y-12781722D02*
X17031968Y-12800769D01*
X17031968Y-12800769D02*
X16936730Y-12819817D01*
X17108158Y-12876960D02*
X17127206Y-12886484D01*
X17127206Y-12886484D02*
X17165301Y-12886484D01*
X17165301Y-12886484D02*
X17184349Y-12876960D01*
X17184349Y-12876960D02*
X17193873Y-12857912D01*
X17193873Y-12857912D02*
X17193873Y-12848388D01*
X17193873Y-12848388D02*
X17184349Y-12829341D01*
X17184349Y-12829341D02*
X17165301Y-12819817D01*
X17165301Y-12819817D02*
X17136730Y-12819817D01*
X17136730Y-12819817D02*
X17117682Y-12810293D01*
X17117682Y-12810293D02*
X17108158Y-12791246D01*
X17108158Y-12791246D02*
X17108158Y-12781722D01*
X17108158Y-12781722D02*
X17117682Y-12762674D01*
X17117682Y-12762674D02*
X17136730Y-12753150D01*
X17136730Y-12753150D02*
X17165301Y-12753150D01*
X17165301Y-12753150D02*
X17184349Y-12762674D01*
X17260539Y-12962674D02*
X17270063Y-12953150D01*
X17270063Y-12953150D02*
X17289111Y-12924579D01*
X17289111Y-12924579D02*
X17298634Y-12905531D01*
X17298634Y-12905531D02*
X17308158Y-12876960D01*
X17308158Y-12876960D02*
X17317682Y-12829341D01*
X17317682Y-12829341D02*
X17317682Y-12791246D01*
X17317682Y-12791246D02*
X17308158Y-12743627D01*
X17308158Y-12743627D02*
X17298634Y-12715055D01*
X17298634Y-12715055D02*
X17289111Y-12696008D01*
X17289111Y-12696008D02*
X17270063Y-12667436D01*
X17270063Y-12667436D02*
X17260539Y-12657912D01*
D10*
X12295000Y-13059000D02*
G75*
G02*
X12215000Y-13059000I-40000J0D01*
G01*
X12215000Y-13059000D02*
G75*
G02*
X12295000Y-13059000I40000J0D01*
G01*
D11*
X12593872Y-12950484D02*
X12612920Y-12950484D01*
X12612920Y-12950484D02*
X12631967Y-12960008D01*
X12631967Y-12960008D02*
X12641491Y-12969531D01*
X12641491Y-12969531D02*
X12651015Y-12988579D01*
X12651015Y-12988579D02*
X12660539Y-13026674D01*
X12660539Y-13026674D02*
X12660539Y-13074293D01*
X12660539Y-13074293D02*
X12651015Y-13112388D01*
X12651015Y-13112388D02*
X12641491Y-13131436D01*
X12641491Y-13131436D02*
X12631967Y-13140960D01*
X12631967Y-13140960D02*
X12612920Y-13150484D01*
X12612920Y-13150484D02*
X12593872Y-13150484D01*
X12593872Y-13150484D02*
X12574824Y-13140960D01*
X12574824Y-13140960D02*
X12565301Y-13131436D01*
X12565301Y-13131436D02*
X12555777Y-13112388D01*
X12555777Y-13112388D02*
X12546253Y-13074293D01*
X12546253Y-13074293D02*
X12546253Y-13026674D01*
X12546253Y-13026674D02*
X12555777Y-12988579D01*
X12555777Y-12988579D02*
X12565301Y-12969531D01*
X12565301Y-12969531D02*
X12574824Y-12960008D01*
X12574824Y-12960008D02*
X12593872Y-12950484D01*
X12746253Y-13131436D02*
X12755777Y-13140960D01*
X12755777Y-13140960D02*
X12746253Y-13150484D01*
X12746253Y-13150484D02*
X12736729Y-13140960D01*
X12736729Y-13140960D02*
X12746253Y-13131436D01*
X12746253Y-13131436D02*
X12746253Y-13150484D01*
X12870062Y-13036198D02*
X12851015Y-13026674D01*
X12851015Y-13026674D02*
X12841491Y-13017150D01*
X12841491Y-13017150D02*
X12831967Y-12998103D01*
X12831967Y-12998103D02*
X12831967Y-12988579D01*
X12831967Y-12988579D02*
X12841491Y-12969531D01*
X12841491Y-12969531D02*
X12851015Y-12960008D01*
X12851015Y-12960008D02*
X12870062Y-12950484D01*
X12870062Y-12950484D02*
X12908158Y-12950484D01*
X12908158Y-12950484D02*
X12927205Y-12960008D01*
X12927205Y-12960008D02*
X12936729Y-12969531D01*
X12936729Y-12969531D02*
X12946253Y-12988579D01*
X12946253Y-12988579D02*
X12946253Y-12998103D01*
X12946253Y-12998103D02*
X12936729Y-13017150D01*
X12936729Y-13017150D02*
X12927205Y-13026674D01*
X12927205Y-13026674D02*
X12908158Y-13036198D01*
X12908158Y-13036198D02*
X12870062Y-13036198D01*
X12870062Y-13036198D02*
X12851015Y-13045722D01*
X12851015Y-13045722D02*
X12841491Y-13055246D01*
X12841491Y-13055246D02*
X12831967Y-13074293D01*
X12831967Y-13074293D02*
X12831967Y-13112388D01*
X12831967Y-13112388D02*
X12841491Y-13131436D01*
X12841491Y-13131436D02*
X12851015Y-13140960D01*
X12851015Y-13140960D02*
X12870062Y-13150484D01*
X12870062Y-13150484D02*
X12908158Y-13150484D01*
X12908158Y-13150484D02*
X12927205Y-13140960D01*
X12927205Y-13140960D02*
X12936729Y-13131436D01*
X12936729Y-13131436D02*
X12946253Y-13112388D01*
X12946253Y-13112388D02*
X12946253Y-13074293D01*
X12946253Y-13074293D02*
X12936729Y-13055246D01*
X12936729Y-13055246D02*
X12927205Y-13045722D01*
X12927205Y-13045722D02*
X12908158Y-13036198D01*
X13070062Y-12950484D02*
X13089110Y-12950484D01*
X13089110Y-12950484D02*
X13108158Y-12960008D01*
X13108158Y-12960008D02*
X13117682Y-12969531D01*
X13117682Y-12969531D02*
X13127205Y-12988579D01*
X13127205Y-12988579D02*
X13136729Y-13026674D01*
X13136729Y-13026674D02*
X13136729Y-13074293D01*
X13136729Y-13074293D02*
X13127205Y-13112388D01*
X13127205Y-13112388D02*
X13117682Y-13131436D01*
X13117682Y-13131436D02*
X13108158Y-13140960D01*
X13108158Y-13140960D02*
X13089110Y-13150484D01*
X13089110Y-13150484D02*
X13070062Y-13150484D01*
X13070062Y-13150484D02*
X13051015Y-13140960D01*
X13051015Y-13140960D02*
X13041491Y-13131436D01*
X13041491Y-13131436D02*
X13031967Y-13112388D01*
X13031967Y-13112388D02*
X13022443Y-13074293D01*
X13022443Y-13074293D02*
X13022443Y-13026674D01*
X13022443Y-13026674D02*
X13031967Y-12988579D01*
X13031967Y-12988579D02*
X13041491Y-12969531D01*
X13041491Y-12969531D02*
X13051015Y-12960008D01*
X13051015Y-12960008D02*
X13070062Y-12950484D01*
X13260539Y-12950484D02*
X13279586Y-12950484D01*
X13279586Y-12950484D02*
X13298634Y-12960008D01*
X13298634Y-12960008D02*
X13308158Y-12969531D01*
X13308158Y-12969531D02*
X13317682Y-12988579D01*
X13317682Y-12988579D02*
X13327205Y-13026674D01*
X13327205Y-13026674D02*
X13327205Y-13074293D01*
X13327205Y-13074293D02*
X13317682Y-13112388D01*
X13317682Y-13112388D02*
X13308158Y-13131436D01*
X13308158Y-13131436D02*
X13298634Y-13140960D01*
X13298634Y-13140960D02*
X13279586Y-13150484D01*
X13279586Y-13150484D02*
X13260539Y-13150484D01*
X13260539Y-13150484D02*
X13241491Y-13140960D01*
X13241491Y-13140960D02*
X13231967Y-13131436D01*
X13231967Y-13131436D02*
X13222443Y-13112388D01*
X13222443Y-13112388D02*
X13212920Y-13074293D01*
X13212920Y-13074293D02*
X13212920Y-13026674D01*
X13212920Y-13026674D02*
X13222443Y-12988579D01*
X13222443Y-12988579D02*
X13231967Y-12969531D01*
X13231967Y-12969531D02*
X13241491Y-12960008D01*
X13241491Y-12960008D02*
X13260539Y-12950484D01*
X13412920Y-13150484D02*
X13412920Y-13017150D01*
X13412920Y-13036198D02*
X13422443Y-13026674D01*
X13422443Y-13026674D02*
X13441491Y-13017150D01*
X13441491Y-13017150D02*
X13470063Y-13017150D01*
X13470063Y-13017150D02*
X13489110Y-13026674D01*
X13489110Y-13026674D02*
X13498634Y-13045722D01*
X13498634Y-13045722D02*
X13498634Y-13150484D01*
X13498634Y-13045722D02*
X13508158Y-13026674D01*
X13508158Y-13026674D02*
X13527205Y-13017150D01*
X13527205Y-13017150D02*
X13555777Y-13017150D01*
X13555777Y-13017150D02*
X13574824Y-13026674D01*
X13574824Y-13026674D02*
X13584348Y-13045722D01*
X13584348Y-13045722D02*
X13584348Y-13150484D01*
X13679586Y-13150484D02*
X13679586Y-13017150D01*
X13679586Y-13036198D02*
X13689110Y-13026674D01*
X13689110Y-13026674D02*
X13708158Y-13017150D01*
X13708158Y-13017150D02*
X13736729Y-13017150D01*
X13736729Y-13017150D02*
X13755777Y-13026674D01*
X13755777Y-13026674D02*
X13765301Y-13045722D01*
X13765301Y-13045722D02*
X13765301Y-13150484D01*
X13765301Y-13045722D02*
X13774824Y-13026674D01*
X13774824Y-13026674D02*
X13793872Y-13017150D01*
X13793872Y-13017150D02*
X13822443Y-13017150D01*
X13822443Y-13017150D02*
X13841491Y-13026674D01*
X13841491Y-13026674D02*
X13851015Y-13045722D01*
X13851015Y-13045722D02*
X13851015Y-13150484D01*
X14241491Y-12940960D02*
X14070063Y-13198103D01*
X14498634Y-12950484D02*
X14517682Y-12950484D01*
X14517682Y-12950484D02*
X14536729Y-12960008D01*
X14536729Y-12960008D02*
X14546253Y-12969531D01*
X14546253Y-12969531D02*
X14555777Y-12988579D01*
X14555777Y-12988579D02*
X14565301Y-13026674D01*
X14565301Y-13026674D02*
X14565301Y-13074293D01*
X14565301Y-13074293D02*
X14555777Y-13112388D01*
X14555777Y-13112388D02*
X14546253Y-13131436D01*
X14546253Y-13131436D02*
X14536729Y-13140960D01*
X14536729Y-13140960D02*
X14517682Y-13150484D01*
X14517682Y-13150484D02*
X14498634Y-13150484D01*
X14498634Y-13150484D02*
X14479586Y-13140960D01*
X14479586Y-13140960D02*
X14470063Y-13131436D01*
X14470063Y-13131436D02*
X14460539Y-13112388D01*
X14460539Y-13112388D02*
X14451015Y-13074293D01*
X14451015Y-13074293D02*
X14451015Y-13026674D01*
X14451015Y-13026674D02*
X14460539Y-12988579D01*
X14460539Y-12988579D02*
X14470063Y-12969531D01*
X14470063Y-12969531D02*
X14479586Y-12960008D01*
X14479586Y-12960008D02*
X14498634Y-12950484D01*
X14651015Y-13131436D02*
X14660539Y-13140960D01*
X14660539Y-13140960D02*
X14651015Y-13150484D01*
X14651015Y-13150484D02*
X14641491Y-13140960D01*
X14641491Y-13140960D02*
X14651015Y-13131436D01*
X14651015Y-13131436D02*
X14651015Y-13150484D01*
X14784348Y-12950484D02*
X14803396Y-12950484D01*
X14803396Y-12950484D02*
X14822444Y-12960008D01*
X14822444Y-12960008D02*
X14831967Y-12969531D01*
X14831967Y-12969531D02*
X14841491Y-12988579D01*
X14841491Y-12988579D02*
X14851015Y-13026674D01*
X14851015Y-13026674D02*
X14851015Y-13074293D01*
X14851015Y-13074293D02*
X14841491Y-13112388D01*
X14841491Y-13112388D02*
X14831967Y-13131436D01*
X14831967Y-13131436D02*
X14822444Y-13140960D01*
X14822444Y-13140960D02*
X14803396Y-13150484D01*
X14803396Y-13150484D02*
X14784348Y-13150484D01*
X14784348Y-13150484D02*
X14765301Y-13140960D01*
X14765301Y-13140960D02*
X14755777Y-13131436D01*
X14755777Y-13131436D02*
X14746253Y-13112388D01*
X14746253Y-13112388D02*
X14736729Y-13074293D01*
X14736729Y-13074293D02*
X14736729Y-13026674D01*
X14736729Y-13026674D02*
X14746253Y-12988579D01*
X14746253Y-12988579D02*
X14755777Y-12969531D01*
X14755777Y-12969531D02*
X14765301Y-12960008D01*
X14765301Y-12960008D02*
X14784348Y-12950484D01*
X14917682Y-12950484D02*
X15041491Y-12950484D01*
X15041491Y-12950484D02*
X14974825Y-13026674D01*
X14974825Y-13026674D02*
X15003396Y-13026674D01*
X15003396Y-13026674D02*
X15022444Y-13036198D01*
X15022444Y-13036198D02*
X15031967Y-13045722D01*
X15031967Y-13045722D02*
X15041491Y-13064769D01*
X15041491Y-13064769D02*
X15041491Y-13112388D01*
X15041491Y-13112388D02*
X15031967Y-13131436D01*
X15031967Y-13131436D02*
X15022444Y-13140960D01*
X15022444Y-13140960D02*
X15003396Y-13150484D01*
X15003396Y-13150484D02*
X14946253Y-13150484D01*
X14946253Y-13150484D02*
X14927206Y-13140960D01*
X14927206Y-13140960D02*
X14917682Y-13131436D01*
X15231967Y-13150484D02*
X15117682Y-13150484D01*
X15174825Y-13150484D02*
X15174825Y-12950484D01*
X15174825Y-12950484D02*
X15155777Y-12979055D01*
X15155777Y-12979055D02*
X15136729Y-12998103D01*
X15136729Y-12998103D02*
X15117682Y-13007627D01*
X15412920Y-12950484D02*
X15317682Y-12950484D01*
X15317682Y-12950484D02*
X15308158Y-13045722D01*
X15308158Y-13045722D02*
X15317682Y-13036198D01*
X15317682Y-13036198D02*
X15336729Y-13026674D01*
X15336729Y-13026674D02*
X15384348Y-13026674D01*
X15384348Y-13026674D02*
X15403396Y-13036198D01*
X15403396Y-13036198D02*
X15412920Y-13045722D01*
X15412920Y-13045722D02*
X15422444Y-13064769D01*
X15422444Y-13064769D02*
X15422444Y-13112388D01*
X15422444Y-13112388D02*
X15412920Y-13131436D01*
X15412920Y-13131436D02*
X15403396Y-13140960D01*
X15403396Y-13140960D02*
X15384348Y-13150484D01*
X15384348Y-13150484D02*
X15336729Y-13150484D01*
X15336729Y-13150484D02*
X15317682Y-13140960D01*
X15317682Y-13140960D02*
X15308158Y-13131436D01*
X15498634Y-12950484D02*
X15498634Y-12988579D01*
X15574825Y-12950484D02*
X15574825Y-12988579D01*
X15870063Y-13226674D02*
X15860539Y-13217150D01*
X15860539Y-13217150D02*
X15841491Y-13188579D01*
X15841491Y-13188579D02*
X15831968Y-13169531D01*
X15831968Y-13169531D02*
X15822444Y-13140960D01*
X15822444Y-13140960D02*
X15812920Y-13093341D01*
X15812920Y-13093341D02*
X15812920Y-13055246D01*
X15812920Y-13055246D02*
X15822444Y-13007627D01*
X15822444Y-13007627D02*
X15831968Y-12979055D01*
X15831968Y-12979055D02*
X15841491Y-12960008D01*
X15841491Y-12960008D02*
X15860539Y-12931436D01*
X15860539Y-12931436D02*
X15870063Y-12921912D01*
X16041491Y-12950484D02*
X15946253Y-12950484D01*
X15946253Y-12950484D02*
X15936729Y-13045722D01*
X15936729Y-13045722D02*
X15946253Y-13036198D01*
X15946253Y-13036198D02*
X15965301Y-13026674D01*
X15965301Y-13026674D02*
X16012920Y-13026674D01*
X16012920Y-13026674D02*
X16031968Y-13036198D01*
X16031968Y-13036198D02*
X16041491Y-13045722D01*
X16041491Y-13045722D02*
X16051015Y-13064769D01*
X16051015Y-13064769D02*
X16051015Y-13112388D01*
X16051015Y-13112388D02*
X16041491Y-13131436D01*
X16041491Y-13131436D02*
X16031968Y-13140960D01*
X16031968Y-13140960D02*
X16012920Y-13150484D01*
X16012920Y-13150484D02*
X15965301Y-13150484D01*
X15965301Y-13150484D02*
X15946253Y-13140960D01*
X15946253Y-13140960D02*
X15936729Y-13131436D01*
X16222444Y-12950484D02*
X16184348Y-12950484D01*
X16184348Y-12950484D02*
X16165301Y-12960008D01*
X16165301Y-12960008D02*
X16155777Y-12969531D01*
X16155777Y-12969531D02*
X16136729Y-12998103D01*
X16136729Y-12998103D02*
X16127206Y-13036198D01*
X16127206Y-13036198D02*
X16127206Y-13112388D01*
X16127206Y-13112388D02*
X16136729Y-13131436D01*
X16136729Y-13131436D02*
X16146253Y-13140960D01*
X16146253Y-13140960D02*
X16165301Y-13150484D01*
X16165301Y-13150484D02*
X16203396Y-13150484D01*
X16203396Y-13150484D02*
X16222444Y-13140960D01*
X16222444Y-13140960D02*
X16231968Y-13131436D01*
X16231968Y-13131436D02*
X16241491Y-13112388D01*
X16241491Y-13112388D02*
X16241491Y-13064769D01*
X16241491Y-13064769D02*
X16231968Y-13045722D01*
X16231968Y-13045722D02*
X16222444Y-13036198D01*
X16222444Y-13036198D02*
X16203396Y-13026674D01*
X16203396Y-13026674D02*
X16165301Y-13026674D01*
X16165301Y-13026674D02*
X16146253Y-13036198D01*
X16146253Y-13036198D02*
X16136729Y-13045722D01*
X16136729Y-13045722D02*
X16127206Y-13064769D01*
X16479587Y-13150484D02*
X16479587Y-12950484D01*
X16565301Y-13150484D02*
X16565301Y-13045722D01*
X16565301Y-13045722D02*
X16555777Y-13026674D01*
X16555777Y-13026674D02*
X16536730Y-13017150D01*
X16536730Y-13017150D02*
X16508158Y-13017150D01*
X16508158Y-13017150D02*
X16489110Y-13026674D01*
X16489110Y-13026674D02*
X16479587Y-13036198D01*
X16689110Y-13150484D02*
X16670063Y-13140960D01*
X16670063Y-13140960D02*
X16660539Y-13131436D01*
X16660539Y-13131436D02*
X16651015Y-13112388D01*
X16651015Y-13112388D02*
X16651015Y-13055246D01*
X16651015Y-13055246D02*
X16660539Y-13036198D01*
X16660539Y-13036198D02*
X16670063Y-13026674D01*
X16670063Y-13026674D02*
X16689110Y-13017150D01*
X16689110Y-13017150D02*
X16717682Y-13017150D01*
X16717682Y-13017150D02*
X16736730Y-13026674D01*
X16736730Y-13026674D02*
X16746253Y-13036198D01*
X16746253Y-13036198D02*
X16755777Y-13055246D01*
X16755777Y-13055246D02*
X16755777Y-13112388D01*
X16755777Y-13112388D02*
X16746253Y-13131436D01*
X16746253Y-13131436D02*
X16736730Y-13140960D01*
X16736730Y-13140960D02*
X16717682Y-13150484D01*
X16717682Y-13150484D02*
X16689110Y-13150484D01*
X16870063Y-13150484D02*
X16851015Y-13140960D01*
X16851015Y-13140960D02*
X16841492Y-13121912D01*
X16841492Y-13121912D02*
X16841492Y-12950484D01*
X17022444Y-13140960D02*
X17003396Y-13150484D01*
X17003396Y-13150484D02*
X16965301Y-13150484D01*
X16965301Y-13150484D02*
X16946253Y-13140960D01*
X16946253Y-13140960D02*
X16936730Y-13121912D01*
X16936730Y-13121912D02*
X16936730Y-13045722D01*
X16936730Y-13045722D02*
X16946253Y-13026674D01*
X16946253Y-13026674D02*
X16965301Y-13017150D01*
X16965301Y-13017150D02*
X17003396Y-13017150D01*
X17003396Y-13017150D02*
X17022444Y-13026674D01*
X17022444Y-13026674D02*
X17031968Y-13045722D01*
X17031968Y-13045722D02*
X17031968Y-13064769D01*
X17031968Y-13064769D02*
X16936730Y-13083817D01*
X17108158Y-13140960D02*
X17127206Y-13150484D01*
X17127206Y-13150484D02*
X17165301Y-13150484D01*
X17165301Y-13150484D02*
X17184349Y-13140960D01*
X17184349Y-13140960D02*
X17193873Y-13121912D01*
X17193873Y-13121912D02*
X17193873Y-13112388D01*
X17193873Y-13112388D02*
X17184349Y-13093341D01*
X17184349Y-13093341D02*
X17165301Y-13083817D01*
X17165301Y-13083817D02*
X17136730Y-13083817D01*
X17136730Y-13083817D02*
X17117682Y-13074293D01*
X17117682Y-13074293D02*
X17108158Y-13055246D01*
X17108158Y-13055246D02*
X17108158Y-13045722D01*
X17108158Y-13045722D02*
X17117682Y-13026674D01*
X17117682Y-13026674D02*
X17136730Y-13017150D01*
X17136730Y-13017150D02*
X17165301Y-13017150D01*
X17165301Y-13017150D02*
X17184349Y-13026674D01*
X17260539Y-13226674D02*
X17270063Y-13217150D01*
X17270063Y-13217150D02*
X17289111Y-13188579D01*
X17289111Y-13188579D02*
X17298634Y-13169531D01*
X17298634Y-13169531D02*
X17308158Y-13140960D01*
X17308158Y-13140960D02*
X17317682Y-13093341D01*
X17317682Y-13093341D02*
X17317682Y-13055246D01*
X17317682Y-13055246D02*
X17308158Y-13007627D01*
X17308158Y-13007627D02*
X17298634Y-12979055D01*
X17298634Y-12979055D02*
X17289111Y-12960008D01*
X17289111Y-12960008D02*
X17270063Y-12931436D01*
X17270063Y-12931436D02*
X17260539Y-12921912D01*
M02*
