%TF.GenerationSoftware,KiCad,Pcbnew,10.0.6-10.0.6~ubuntu26.04.1*%
%TF.CreationDate,2026-09-30T21:19:09+02:00*%
%TF.ProjectId,flashcat_p30,666c6173-6863-4617-945f-7033302e6b69,B*%
%TF.SameCoordinates,Original*%
%TF.FileFunction,Copper,L2,Inr*%
%TF.FilePolarity,Positive*%
%FSLAX46Y46*%
G04 Gerber Fmt 4.6, Leading zero omitted, Abs format (unit mm)*
G04 Created by KiCad (PCBNEW 10.0.6-10.0.6~ubuntu26.04.1) date 2026-09-30 21:19:09*
%MOMM*%
%LPD*%
G01*
G04 APERTURE LIST*
%TA.AperFunction,ComponentPad*%
%ADD10R,0.600000X0.600000*%
%TD*%
%TA.AperFunction,ComponentPad*%
%ADD11C,0.600000*%
%TD*%
%TA.AperFunction,ComponentPad*%
%ADD12R,1.350000X1.350000*%
%TD*%
%TA.AperFunction,ComponentPad*%
%ADD13C,1.350000*%
%TD*%
%TA.AperFunction,ViaPad*%
%ADD14C,0.500000*%
%TD*%
G04 APERTURE END LIST*
D10*
%TO.N,/A1*%
%TO.C,U1*%
X151910000Y-101590000D03*
D11*
%TO.N,/A6*%
X151910000Y-102590000D03*
%TO.N,/A8*%
X151910000Y-103590000D03*
%TO.N,VCC_PROG*%
X151910000Y-104590000D03*
%TO.N,/A13*%
X151910000Y-105590000D03*
%TO.N,+1V8*%
X151910000Y-106590000D03*
%TO.N,/A18*%
X151910000Y-107590000D03*
%TO.N,/A22*%
X151910000Y-108590000D03*
%TO.N,/A2*%
X150910000Y-101590000D03*
%TO.N,GND*%
X150910000Y-102590000D03*
%TO.N,/A9*%
X150910000Y-103590000D03*
%TO.N,/~{CE}*%
X150910000Y-104590000D03*
%TO.N,/A14*%
X150910000Y-105590000D03*
%TO.N,/A25*%
X150910000Y-106590000D03*
%TO.N,/A19*%
X150910000Y-107590000D03*
%TO.N,/A26*%
X150910000Y-108590000D03*
%TO.N,/A3*%
X149910000Y-101590000D03*
%TO.N,/A7*%
X149910000Y-102590000D03*
%TO.N,/A10*%
X149910000Y-103590000D03*
%TO.N,/A12*%
X149910000Y-104590000D03*
%TO.N,/A15*%
X149910000Y-105590000D03*
%TO.N,VCC_PROG*%
X149910000Y-106590000D03*
%TO.N,/A20*%
X149910000Y-107590000D03*
%TO.N,/A21*%
X149910000Y-108590000D03*
%TO.N,/A4*%
X148910000Y-101590000D03*
%TO.N,/A5*%
X148910000Y-102590000D03*
%TO.N,/A11*%
X148910000Y-103590000D03*
%TO.N,/~{RST}*%
X148910000Y-104590000D03*
%TO.N,VCC_PROG*%
X148910000Y-105590000D03*
X148910000Y-106590000D03*
%TO.N,/A16*%
X148910000Y-107590000D03*
%TO.N,/A17*%
X148910000Y-108590000D03*
%TO.N,/DQ8*%
X147910000Y-101590000D03*
%TO.N,/DQ1*%
X147910000Y-102590000D03*
%TO.N,/DQ9*%
X147910000Y-103590000D03*
%TO.N,/DQ3*%
X147910000Y-104590000D03*
%TO.N,/DQ4*%
X147910000Y-105590000D03*
%TO.N,GND*%
X147910000Y-106590000D03*
%TO.N,/DQ15*%
X147910000Y-107590000D03*
%TO.N,unconnected-(U1-RFU-PadE8)*%
X147910000Y-108590000D03*
%TO.N,unconnected-(U1-RFU-PadF1)*%
X146910000Y-101590000D03*
%TO.N,/DQ0*%
X146910000Y-102590000D03*
%TO.N,/DQ10*%
X146910000Y-103590000D03*
%TO.N,/DQ11*%
X146910000Y-104590000D03*
%TO.N,/DQ12*%
X146910000Y-105590000D03*
%TO.N,GND*%
X146910000Y-106590000D03*
%TO.N,/WAIT*%
X146910000Y-107590000D03*
%TO.N,/~{OE}*%
X146910000Y-108590000D03*
%TO.N,/A23*%
X145910000Y-101590000D03*
%TO.N,unconnected-(U1-RFU-PadG2)*%
X145910000Y-102590000D03*
%TO.N,/DQ2*%
X145910000Y-103590000D03*
%TO.N,VCC_PROG*%
X145910000Y-104590000D03*
%TO.N,/DQ5*%
X145910000Y-105590000D03*
%TO.N,/DQ6*%
X145910000Y-106590000D03*
%TO.N,/DQ14*%
X145910000Y-107590000D03*
%TO.N,/~{WE}*%
X145910000Y-108590000D03*
%TO.N,/A27*%
X144910000Y-101590000D03*
%TO.N,GND*%
X144910000Y-102590000D03*
%TO.N,+1V8*%
X144910000Y-103590000D03*
%TO.N,GND*%
X144910000Y-104590000D03*
%TO.N,/DQ13*%
X144910000Y-105590000D03*
%TO.N,GND*%
X144910000Y-106590000D03*
%TO.N,/DQ7*%
X144910000Y-107590000D03*
%TO.N,/A24*%
X144910000Y-108590000D03*
%TD*%
D12*
%TO.N,VCC_PROG*%
%TO.C,J1*%
X128500000Y-92000000D03*
D13*
%TO.N,GND*%
X126500000Y-92000000D03*
%TO.N,unconnected-(J1-VIO-Pad3)*%
X128500000Y-94000000D03*
%TO.N,unconnected-(J1-VPP-Pad4)*%
X126500000Y-94000000D03*
%TO.N,/~{OE}*%
X128500000Y-96000000D03*
%TO.N,unconnected-(J1-CLE-Pad6)*%
X126500000Y-96000000D03*
%TO.N,/~{WE}*%
X128500000Y-98000000D03*
%TO.N,unconnected-(J1-ALE-Pad8)*%
X126500000Y-98000000D03*
%TO.N,/~{CE}*%
X128500000Y-100000000D03*
%TO.N,unconnected-(J1-RE{slash}B#-Pad10)*%
X126500000Y-100000000D03*
%TO.N,unconnected-(J1-DQS-Pad11)*%
X128500000Y-102000000D03*
%TO.N,/WAIT*%
X126500000Y-102000000D03*
%TO.N,/DQ8*%
X128500000Y-104000000D03*
%TO.N,/DQ0*%
X126500000Y-104000000D03*
%TO.N,/DQ9*%
X128500000Y-106000000D03*
%TO.N,/DQ1*%
X126500000Y-106000000D03*
%TO.N,/DQ10*%
X128500000Y-108000000D03*
%TO.N,/DQ2*%
X126500000Y-108000000D03*
%TO.N,/DQ11*%
X128500000Y-110000000D03*
%TO.N,/DQ3*%
X126500000Y-110000000D03*
%TO.N,/DQ12*%
X128500000Y-112000000D03*
%TO.N,/DQ4*%
X126500000Y-112000000D03*
%TO.N,/DQ13*%
X128500000Y-114000000D03*
%TO.N,/DQ5*%
X126500000Y-114000000D03*
%TO.N,/DQ14*%
X128500000Y-116000000D03*
%TO.N,/DQ6*%
X126500000Y-116000000D03*
%TO.N,/DQ15*%
X128500000Y-118000000D03*
%TO.N,/DQ7*%
X126500000Y-118000000D03*
%TD*%
D12*
%TO.N,/A27*%
%TO.C,J2*%
X170500000Y-92000000D03*
D13*
%TO.N,unconnected-(J2-A0{slash}CE1-Pad2)*%
X168500000Y-92000000D03*
%TO.N,/A26*%
X170500000Y-94000000D03*
%TO.N,/A1*%
X168500000Y-94000000D03*
%TO.N,/A25*%
X170500000Y-96000000D03*
%TO.N,/A2*%
X168500000Y-96000000D03*
%TO.N,/A24*%
X170500000Y-98000000D03*
%TO.N,/A3*%
X168500000Y-98000000D03*
%TO.N,/A23*%
X170500000Y-100000000D03*
%TO.N,/A4*%
X168500000Y-100000000D03*
%TO.N,/A22*%
X170500000Y-102000000D03*
%TO.N,/A5*%
X168500000Y-102000000D03*
%TO.N,/A21*%
X170500000Y-104000000D03*
%TO.N,/A6*%
X168500000Y-104000000D03*
%TO.N,/A20*%
X170500000Y-106000000D03*
%TO.N,/A7*%
X168500000Y-106000000D03*
%TO.N,/A19*%
X170500000Y-108000000D03*
%TO.N,/A8*%
X168500000Y-108000000D03*
%TO.N,/A18*%
X170500000Y-110000000D03*
%TO.N,/A9*%
X168500000Y-110000000D03*
%TO.N,/A17*%
X170500000Y-112000000D03*
%TO.N,/A10*%
X168500000Y-112000000D03*
%TO.N,/A16*%
X170500000Y-114000000D03*
%TO.N,/A11*%
X168500000Y-114000000D03*
%TO.N,/A15*%
X170500000Y-116000000D03*
%TO.N,/A12*%
X168500000Y-116000000D03*
%TO.N,/A14*%
X170500000Y-118000000D03*
%TO.N,/A13*%
X168500000Y-118000000D03*
%TD*%
D14*
%TO.N,VCC_PROG*%
X145636100Y-121025000D03*
X142810000Y-105090000D03*
X142810000Y-91982700D03*
X146900000Y-111500000D03*
%TO.N,/A13*%
X164656300Y-105614000D03*
%TO.N,+1V8*%
X144966200Y-90120000D03*
%TO.N,/A22*%
X169432900Y-108882100D03*
%TO.N,GND*%
X140995001Y-105090000D03*
X144100000Y-88075000D03*
X155825000Y-104090000D03*
X155825000Y-107089999D03*
X140995001Y-103090000D03*
X149410000Y-113190000D03*
X140300001Y-91887500D03*
X147860000Y-113190000D03*
X136500000Y-88075000D03*
X146900000Y-118475000D03*
%TO.N,/A9*%
X165265100Y-103534200D03*
%TO.N,/~{CE}*%
X154151800Y-105340000D03*
X150938200Y-98816600D03*
%TO.N,/A14*%
X165896100Y-106907200D03*
%TO.N,/A25*%
X157470900Y-106508400D03*
%TO.N,/A12*%
X165164500Y-105090000D03*
%TO.N,/A15*%
X166466500Y-106063000D03*
%TO.N,/A21*%
X157078400Y-104627400D03*
%TO.N,/A11*%
X165249700Y-99057700D03*
%TO.N,/~{RST}*%
X145359700Y-118715300D03*
%TO.N,/A17*%
X150420300Y-110356000D03*
%TO.N,/DQ8*%
X131458900Y-100014400D03*
%TO.N,/DQ9*%
X131516000Y-101210100D03*
%TO.N,/DQ4*%
X137463200Y-111065400D03*
X148425600Y-111473300D03*
%TO.N,/DQ10*%
X132337400Y-102090100D03*
%TO.N,/DQ11*%
X142855700Y-106601500D03*
%TO.N,/WAIT*%
X127956000Y-119162200D03*
X148000100Y-119162200D03*
%TO.N,/~{OE}*%
X137403600Y-110176600D03*
%TO.N,/~{WE}*%
X140423800Y-110033300D03*
%TO.N,/DQ13*%
X141898200Y-111557800D03*
%TO.N,/DQ7*%
X143282800Y-119880000D03*
%TO.N,/A24*%
X147917000Y-109619100D03*
%TD*%
%TA.AperFunction,Conductor*%
%TO.N,GND*%
G36*
X173003056Y-86800801D02*
G01*
X173130342Y-86813337D01*
X173142353Y-86815726D01*
X173261799Y-86851960D01*
X173273113Y-86856646D01*
X173383191Y-86915484D01*
X173393379Y-86922291D01*
X173489862Y-87001474D01*
X173498525Y-87010137D01*
X173577708Y-87106620D01*
X173584515Y-87116808D01*
X173643351Y-87226882D01*
X173648040Y-87238202D01*
X173684272Y-87357645D01*
X173686662Y-87369661D01*
X173699199Y-87496943D01*
X173699500Y-87503069D01*
X173699500Y-122496930D01*
X173699199Y-122503056D01*
X173686662Y-122630338D01*
X173684272Y-122642354D01*
X173648040Y-122761797D01*
X173643351Y-122773117D01*
X173584515Y-122883191D01*
X173577708Y-122893379D01*
X173498525Y-122989862D01*
X173489862Y-122998525D01*
X173393379Y-123077708D01*
X173383191Y-123084515D01*
X173273117Y-123143351D01*
X173261797Y-123148040D01*
X173142354Y-123184272D01*
X173130338Y-123186662D01*
X173003056Y-123199199D01*
X172996930Y-123199500D01*
X124003070Y-123199500D01*
X123996944Y-123199199D01*
X123869661Y-123186662D01*
X123857645Y-123184272D01*
X123738202Y-123148040D01*
X123726882Y-123143351D01*
X123616808Y-123084515D01*
X123606620Y-123077708D01*
X123510137Y-122998525D01*
X123501474Y-122989862D01*
X123422291Y-122893379D01*
X123415484Y-122883191D01*
X123356648Y-122773117D01*
X123351959Y-122761797D01*
X123315727Y-122642354D01*
X123313337Y-122630338D01*
X123300801Y-122503056D01*
X123300500Y-122496930D01*
X123300500Y-120974900D01*
X145255600Y-120974900D01*
X145255600Y-121075099D01*
X145281530Y-121171864D01*
X145281531Y-121171867D01*
X145331624Y-121258632D01*
X145402468Y-121329476D01*
X145489233Y-121379569D01*
X145534578Y-121391719D01*
X145586000Y-121405499D01*
X145586006Y-121405500D01*
X145686194Y-121405500D01*
X145686199Y-121405499D01*
X145714948Y-121397795D01*
X145782967Y-121379569D01*
X145869732Y-121329476D01*
X145940576Y-121258632D01*
X145990669Y-121171867D01*
X146016600Y-121075094D01*
X146016600Y-120974906D01*
X146016599Y-120974900D01*
X146002819Y-120923478D01*
X145990669Y-120878133D01*
X145940576Y-120791368D01*
X145869732Y-120720524D01*
X145782967Y-120670431D01*
X145782964Y-120670430D01*
X145686199Y-120644500D01*
X145686194Y-120644500D01*
X145586006Y-120644500D01*
X145586000Y-120644500D01*
X145489235Y-120670430D01*
X145489233Y-120670431D01*
X145402467Y-120720524D01*
X145331624Y-120791367D01*
X145281531Y-120878133D01*
X145281530Y-120878135D01*
X145255600Y-120974900D01*
X123300500Y-120974900D01*
X123300500Y-119829900D01*
X142902300Y-119829900D01*
X142902300Y-119930099D01*
X142928230Y-120026864D01*
X142928231Y-120026867D01*
X142978324Y-120113632D01*
X143049168Y-120184476D01*
X143135933Y-120234569D01*
X143181278Y-120246719D01*
X143232700Y-120260499D01*
X143232706Y-120260500D01*
X143332894Y-120260500D01*
X143332899Y-120260499D01*
X143361648Y-120252795D01*
X143429667Y-120234569D01*
X143516432Y-120184476D01*
X143587276Y-120113632D01*
X143637369Y-120026867D01*
X143663300Y-119930094D01*
X143663300Y-119829906D01*
X143663299Y-119829900D01*
X143649519Y-119778478D01*
X143637369Y-119733133D01*
X143587276Y-119646368D01*
X143516432Y-119575524D01*
X143429667Y-119525431D01*
X143429664Y-119525430D01*
X143332899Y-119499500D01*
X143332894Y-119499500D01*
X143232706Y-119499500D01*
X143232700Y-119499500D01*
X143135935Y-119525430D01*
X143135933Y-119525431D01*
X143049167Y-119575524D01*
X142978324Y-119646367D01*
X142928231Y-119733133D01*
X142928230Y-119733135D01*
X142902300Y-119829900D01*
X123300500Y-119829900D01*
X123300500Y-119112100D01*
X127575500Y-119112100D01*
X127575500Y-119212299D01*
X127601430Y-119309064D01*
X127601431Y-119309067D01*
X127651524Y-119395832D01*
X127722368Y-119466676D01*
X127809133Y-119516769D01*
X127854478Y-119528919D01*
X127905900Y-119542699D01*
X127905906Y-119542700D01*
X128006094Y-119542700D01*
X128006099Y-119542699D01*
X128034848Y-119534995D01*
X128102867Y-119516769D01*
X128189632Y-119466676D01*
X128260476Y-119395832D01*
X128310569Y-119309067D01*
X128336500Y-119212294D01*
X128336500Y-119112106D01*
X128336499Y-119112100D01*
X147619600Y-119112100D01*
X147619600Y-119212299D01*
X147645530Y-119309064D01*
X147645531Y-119309067D01*
X147695624Y-119395832D01*
X147766468Y-119466676D01*
X147853233Y-119516769D01*
X147898578Y-119528919D01*
X147950000Y-119542699D01*
X147950006Y-119542700D01*
X148050194Y-119542700D01*
X148050199Y-119542699D01*
X148078948Y-119534995D01*
X148146967Y-119516769D01*
X148233732Y-119466676D01*
X148304576Y-119395832D01*
X148354669Y-119309067D01*
X148380600Y-119212294D01*
X148380600Y-119112106D01*
X148380599Y-119112100D01*
X148364998Y-119053881D01*
X148354669Y-119015333D01*
X148304576Y-118928568D01*
X148233732Y-118857724D01*
X148146967Y-118807631D01*
X148146964Y-118807630D01*
X148050199Y-118781700D01*
X148050194Y-118781700D01*
X147950006Y-118781700D01*
X147950000Y-118781700D01*
X147853235Y-118807630D01*
X147853233Y-118807631D01*
X147766467Y-118857724D01*
X147695624Y-118928567D01*
X147645531Y-119015333D01*
X147645530Y-119015335D01*
X147619600Y-119112100D01*
X128336499Y-119112100D01*
X128320898Y-119053881D01*
X128310569Y-119015333D01*
X128260476Y-118928568D01*
X128212762Y-118880854D01*
X128194456Y-118836660D01*
X128212762Y-118792466D01*
X128256956Y-118774160D01*
X128269143Y-118775360D01*
X128420665Y-118805500D01*
X128579335Y-118805500D01*
X128734956Y-118774545D01*
X128881547Y-118713824D01*
X128954318Y-118665200D01*
X144979200Y-118665200D01*
X144979200Y-118765399D01*
X144998296Y-118836660D01*
X145005131Y-118862167D01*
X145055224Y-118948932D01*
X145126068Y-119019776D01*
X145212833Y-119069869D01*
X145258178Y-119082019D01*
X145309600Y-119095799D01*
X145309606Y-119095800D01*
X145409794Y-119095800D01*
X145409799Y-119095799D01*
X145438548Y-119088095D01*
X145506567Y-119069869D01*
X145593332Y-119019776D01*
X145664176Y-118948932D01*
X145714269Y-118862167D01*
X145740200Y-118765394D01*
X145740200Y-118665206D01*
X145740199Y-118665200D01*
X145726419Y-118613778D01*
X145714269Y-118568433D01*
X145664176Y-118481668D01*
X145593332Y-118410824D01*
X145506567Y-118360731D01*
X145506564Y-118360730D01*
X145409799Y-118334800D01*
X145409794Y-118334800D01*
X145309606Y-118334800D01*
X145309600Y-118334800D01*
X145212835Y-118360730D01*
X145212833Y-118360731D01*
X145126067Y-118410824D01*
X145055224Y-118481667D01*
X145005131Y-118568433D01*
X145005130Y-118568435D01*
X144979200Y-118665200D01*
X128954318Y-118665200D01*
X129013476Y-118625672D01*
X129125672Y-118513476D01*
X129213824Y-118381547D01*
X129274545Y-118234956D01*
X129305500Y-118079335D01*
X129305500Y-117920665D01*
X129305500Y-117920664D01*
X167694500Y-117920664D01*
X167694500Y-118079335D01*
X167725454Y-118234954D01*
X167786174Y-118381544D01*
X167786177Y-118381548D01*
X167853074Y-118481668D01*
X167874328Y-118513476D01*
X167986524Y-118625672D01*
X168118453Y-118713824D01*
X168265044Y-118774545D01*
X168420665Y-118805500D01*
X168579335Y-118805500D01*
X168734956Y-118774545D01*
X168881547Y-118713824D01*
X169013476Y-118625672D01*
X169125672Y-118513476D01*
X169213824Y-118381547D01*
X169274545Y-118234956D01*
X169305500Y-118079335D01*
X169305500Y-117920665D01*
X169305500Y-117920664D01*
X169694500Y-117920664D01*
X169694500Y-118079335D01*
X169725454Y-118234954D01*
X169786174Y-118381544D01*
X169786177Y-118381548D01*
X169853074Y-118481668D01*
X169874328Y-118513476D01*
X169986524Y-118625672D01*
X170118453Y-118713824D01*
X170265044Y-118774545D01*
X170420665Y-118805500D01*
X170579335Y-118805500D01*
X170734956Y-118774545D01*
X170881547Y-118713824D01*
X171013476Y-118625672D01*
X171125672Y-118513476D01*
X171213824Y-118381547D01*
X171274545Y-118234956D01*
X171305500Y-118079335D01*
X171305500Y-117920665D01*
X171274545Y-117765044D01*
X171213824Y-117618453D01*
X171125672Y-117486524D01*
X171013476Y-117374328D01*
X170881547Y-117286176D01*
X170881546Y-117286175D01*
X170881544Y-117286174D01*
X170734954Y-117225454D01*
X170579335Y-117194500D01*
X170420665Y-117194500D01*
X170265045Y-117225454D01*
X170118455Y-117286174D01*
X170118451Y-117286177D01*
X169986524Y-117374327D01*
X169874327Y-117486524D01*
X169786177Y-117618451D01*
X169786174Y-117618455D01*
X169725454Y-117765045D01*
X169694500Y-117920664D01*
X169305500Y-117920664D01*
X169274545Y-117765044D01*
X169213824Y-117618453D01*
X169125672Y-117486524D01*
X169013476Y-117374328D01*
X168881547Y-117286176D01*
X168881546Y-117286175D01*
X168881544Y-117286174D01*
X168734954Y-117225454D01*
X168579335Y-117194500D01*
X168420665Y-117194500D01*
X168265045Y-117225454D01*
X168118455Y-117286174D01*
X168118451Y-117286177D01*
X167986524Y-117374327D01*
X167874327Y-117486524D01*
X167786177Y-117618451D01*
X167786174Y-117618455D01*
X167725454Y-117765045D01*
X167694500Y-117920664D01*
X129305500Y-117920664D01*
X129274545Y-117765044D01*
X129213824Y-117618453D01*
X129125672Y-117486524D01*
X129013476Y-117374328D01*
X128881547Y-117286176D01*
X128881546Y-117286175D01*
X128881544Y-117286174D01*
X128734954Y-117225454D01*
X128579335Y-117194500D01*
X128420665Y-117194500D01*
X128265045Y-117225454D01*
X128118455Y-117286174D01*
X128118451Y-117286177D01*
X127986524Y-117374327D01*
X127874327Y-117486524D01*
X127786177Y-117618451D01*
X127786174Y-117618455D01*
X127725454Y-117765045D01*
X127694500Y-117920664D01*
X127694500Y-118079335D01*
X127725454Y-118234954D01*
X127786174Y-118381544D01*
X127786177Y-118381548D01*
X127853074Y-118481668D01*
X127874328Y-118513476D01*
X127986524Y-118625672D01*
X128049659Y-118667857D01*
X128076235Y-118707631D01*
X128066903Y-118754547D01*
X128027129Y-118781123D01*
X128010191Y-118781678D01*
X128010191Y-118781700D01*
X128009532Y-118781700D01*
X128006787Y-118781790D01*
X128006103Y-118781700D01*
X128006094Y-118781700D01*
X127905906Y-118781700D01*
X127905900Y-118781700D01*
X127809135Y-118807630D01*
X127809133Y-118807631D01*
X127722367Y-118857724D01*
X127651524Y-118928567D01*
X127601431Y-119015333D01*
X127601430Y-119015335D01*
X127575500Y-119112100D01*
X123300500Y-119112100D01*
X123300500Y-117920664D01*
X125694500Y-117920664D01*
X125694500Y-118079335D01*
X125725454Y-118234954D01*
X125786174Y-118381544D01*
X125786177Y-118381548D01*
X125853074Y-118481668D01*
X125874328Y-118513476D01*
X125986524Y-118625672D01*
X126118453Y-118713824D01*
X126265044Y-118774545D01*
X126420665Y-118805500D01*
X126579335Y-118805500D01*
X126734956Y-118774545D01*
X126881547Y-118713824D01*
X127013476Y-118625672D01*
X127125672Y-118513476D01*
X127213824Y-118381547D01*
X127274545Y-118234956D01*
X127305500Y-118079335D01*
X127305500Y-117920665D01*
X127274545Y-117765044D01*
X127213824Y-117618453D01*
X127125672Y-117486524D01*
X127013476Y-117374328D01*
X126881547Y-117286176D01*
X126881546Y-117286175D01*
X126881544Y-117286174D01*
X126734954Y-117225454D01*
X126579335Y-117194500D01*
X126420665Y-117194500D01*
X126265045Y-117225454D01*
X126118455Y-117286174D01*
X126118451Y-117286177D01*
X125986524Y-117374327D01*
X125874327Y-117486524D01*
X125786177Y-117618451D01*
X125786174Y-117618455D01*
X125725454Y-117765045D01*
X125694500Y-117920664D01*
X123300500Y-117920664D01*
X123300500Y-115920664D01*
X125694500Y-115920664D01*
X125694500Y-116079335D01*
X125725454Y-116234954D01*
X125786174Y-116381544D01*
X125786175Y-116381546D01*
X125786176Y-116381547D01*
X125874328Y-116513476D01*
X125986524Y-116625672D01*
X126118453Y-116713824D01*
X126265044Y-116774545D01*
X126420665Y-116805500D01*
X126579335Y-116805500D01*
X126734956Y-116774545D01*
X126881547Y-116713824D01*
X127013476Y-116625672D01*
X127125672Y-116513476D01*
X127213824Y-116381547D01*
X127274545Y-116234956D01*
X127305500Y-116079335D01*
X127305500Y-115920665D01*
X127305500Y-115920664D01*
X127694500Y-115920664D01*
X127694500Y-116079335D01*
X127725454Y-116234954D01*
X127786174Y-116381544D01*
X127786175Y-116381546D01*
X127786176Y-116381547D01*
X127874328Y-116513476D01*
X127986524Y-116625672D01*
X128118453Y-116713824D01*
X128265044Y-116774545D01*
X128420665Y-116805500D01*
X128579335Y-116805500D01*
X128734956Y-116774545D01*
X128881547Y-116713824D01*
X129013476Y-116625672D01*
X129125672Y-116513476D01*
X129213824Y-116381547D01*
X129274545Y-116234956D01*
X129305500Y-116079335D01*
X129305500Y-115920665D01*
X129305500Y-115920664D01*
X167694500Y-115920664D01*
X167694500Y-116079335D01*
X167725454Y-116234954D01*
X167786174Y-116381544D01*
X167786175Y-116381546D01*
X167786176Y-116381547D01*
X167874328Y-116513476D01*
X167986524Y-116625672D01*
X168118453Y-116713824D01*
X168265044Y-116774545D01*
X168420665Y-116805500D01*
X168579335Y-116805500D01*
X168734956Y-116774545D01*
X168881547Y-116713824D01*
X169013476Y-116625672D01*
X169125672Y-116513476D01*
X169213824Y-116381547D01*
X169274545Y-116234956D01*
X169305500Y-116079335D01*
X169305500Y-115920665D01*
X169305500Y-115920664D01*
X169694500Y-115920664D01*
X169694500Y-116079335D01*
X169725454Y-116234954D01*
X169786174Y-116381544D01*
X169786175Y-116381546D01*
X169786176Y-116381547D01*
X169874328Y-116513476D01*
X169986524Y-116625672D01*
X170118453Y-116713824D01*
X170265044Y-116774545D01*
X170420665Y-116805500D01*
X170579335Y-116805500D01*
X170734956Y-116774545D01*
X170881547Y-116713824D01*
X171013476Y-116625672D01*
X171125672Y-116513476D01*
X171213824Y-116381547D01*
X171274545Y-116234956D01*
X171305500Y-116079335D01*
X171305500Y-115920665D01*
X171274545Y-115765044D01*
X171213824Y-115618453D01*
X171125672Y-115486524D01*
X171013476Y-115374328D01*
X170881547Y-115286176D01*
X170881546Y-115286175D01*
X170881544Y-115286174D01*
X170734954Y-115225454D01*
X170579335Y-115194500D01*
X170420665Y-115194500D01*
X170265045Y-115225454D01*
X170118455Y-115286174D01*
X170118451Y-115286177D01*
X169986524Y-115374327D01*
X169874327Y-115486524D01*
X169786177Y-115618451D01*
X169786174Y-115618455D01*
X169725454Y-115765045D01*
X169694500Y-115920664D01*
X169305500Y-115920664D01*
X169274545Y-115765044D01*
X169213824Y-115618453D01*
X169125672Y-115486524D01*
X169013476Y-115374328D01*
X168881547Y-115286176D01*
X168881546Y-115286175D01*
X168881544Y-115286174D01*
X168734954Y-115225454D01*
X168579335Y-115194500D01*
X168420665Y-115194500D01*
X168265045Y-115225454D01*
X168118455Y-115286174D01*
X168118451Y-115286177D01*
X167986524Y-115374327D01*
X167874327Y-115486524D01*
X167786177Y-115618451D01*
X167786174Y-115618455D01*
X167725454Y-115765045D01*
X167694500Y-115920664D01*
X129305500Y-115920664D01*
X129274545Y-115765044D01*
X129213824Y-115618453D01*
X129125672Y-115486524D01*
X129013476Y-115374328D01*
X128881547Y-115286176D01*
X128881546Y-115286175D01*
X128881544Y-115286174D01*
X128734954Y-115225454D01*
X128579335Y-115194500D01*
X128420665Y-115194500D01*
X128265045Y-115225454D01*
X128118455Y-115286174D01*
X128118451Y-115286177D01*
X127986524Y-115374327D01*
X127874327Y-115486524D01*
X127786177Y-115618451D01*
X127786174Y-115618455D01*
X127725454Y-115765045D01*
X127694500Y-115920664D01*
X127305500Y-115920664D01*
X127274545Y-115765044D01*
X127213824Y-115618453D01*
X127125672Y-115486524D01*
X127013476Y-115374328D01*
X126881547Y-115286176D01*
X126881546Y-115286175D01*
X126881544Y-115286174D01*
X126734954Y-115225454D01*
X126579335Y-115194500D01*
X126420665Y-115194500D01*
X126265045Y-115225454D01*
X126118455Y-115286174D01*
X126118451Y-115286177D01*
X125986524Y-115374327D01*
X125874327Y-115486524D01*
X125786177Y-115618451D01*
X125786174Y-115618455D01*
X125725454Y-115765045D01*
X125694500Y-115920664D01*
X123300500Y-115920664D01*
X123300500Y-113920664D01*
X125694500Y-113920664D01*
X125694500Y-114079335D01*
X125725454Y-114234954D01*
X125786174Y-114381544D01*
X125786175Y-114381546D01*
X125786176Y-114381547D01*
X125874328Y-114513476D01*
X125986524Y-114625672D01*
X126118453Y-114713824D01*
X126265044Y-114774545D01*
X126420665Y-114805500D01*
X126579335Y-114805500D01*
X126734956Y-114774545D01*
X126881547Y-114713824D01*
X127013476Y-114625672D01*
X127125672Y-114513476D01*
X127213824Y-114381547D01*
X127274545Y-114234956D01*
X127305500Y-114079335D01*
X127305500Y-113920665D01*
X127305500Y-113920664D01*
X127694500Y-113920664D01*
X127694500Y-114079335D01*
X127725454Y-114234954D01*
X127786174Y-114381544D01*
X127786175Y-114381546D01*
X127786176Y-114381547D01*
X127874328Y-114513476D01*
X127986524Y-114625672D01*
X128118453Y-114713824D01*
X128265044Y-114774545D01*
X128420665Y-114805500D01*
X128579335Y-114805500D01*
X128734956Y-114774545D01*
X128881547Y-114713824D01*
X129013476Y-114625672D01*
X129125672Y-114513476D01*
X129213824Y-114381547D01*
X129274545Y-114234956D01*
X129305500Y-114079335D01*
X129305500Y-113920665D01*
X129274545Y-113765044D01*
X129213824Y-113618453D01*
X129125672Y-113486524D01*
X129013476Y-113374328D01*
X128881547Y-113286176D01*
X128881546Y-113286175D01*
X128881544Y-113286174D01*
X128734954Y-113225454D01*
X128579335Y-113194500D01*
X128420665Y-113194500D01*
X128265045Y-113225454D01*
X128118455Y-113286174D01*
X128118451Y-113286177D01*
X127986524Y-113374327D01*
X127874327Y-113486524D01*
X127786177Y-113618451D01*
X127786174Y-113618455D01*
X127725454Y-113765045D01*
X127694500Y-113920664D01*
X127305500Y-113920664D01*
X127274545Y-113765044D01*
X127213824Y-113618453D01*
X127125672Y-113486524D01*
X127013476Y-113374328D01*
X126881547Y-113286176D01*
X126881546Y-113286175D01*
X126881544Y-113286174D01*
X126734954Y-113225454D01*
X126579335Y-113194500D01*
X126420665Y-113194500D01*
X126265045Y-113225454D01*
X126118455Y-113286174D01*
X126118451Y-113286177D01*
X125986524Y-113374327D01*
X125874327Y-113486524D01*
X125786177Y-113618451D01*
X125786174Y-113618455D01*
X125725454Y-113765045D01*
X125694500Y-113920664D01*
X123300500Y-113920664D01*
X123300500Y-112901585D01*
X139249500Y-112901585D01*
X139249500Y-113098414D01*
X139249501Y-113098430D01*
X139280290Y-113292820D01*
X139280292Y-113292829D01*
X139341115Y-113480023D01*
X139341119Y-113480031D01*
X139430477Y-113655407D01*
X139546171Y-113814645D01*
X139546178Y-113814653D01*
X139685346Y-113953821D01*
X139685354Y-113953828D01*
X139844595Y-114069524D01*
X140019975Y-114158884D01*
X140207174Y-114219709D01*
X140359705Y-114243867D01*
X140401569Y-114250498D01*
X140401575Y-114250498D01*
X140401583Y-114250500D01*
X140401585Y-114250500D01*
X140598415Y-114250500D01*
X140598417Y-114250500D01*
X140792826Y-114219709D01*
X140980025Y-114158884D01*
X141155405Y-114069524D01*
X141314646Y-113953828D01*
X141453828Y-113814646D01*
X141569524Y-113655405D01*
X141658884Y-113480025D01*
X141719709Y-113292826D01*
X141750500Y-113098417D01*
X141750500Y-112901585D01*
X155249500Y-112901585D01*
X155249500Y-113098414D01*
X155249501Y-113098430D01*
X155280290Y-113292820D01*
X155280292Y-113292829D01*
X155341115Y-113480023D01*
X155341119Y-113480031D01*
X155430477Y-113655407D01*
X155546171Y-113814645D01*
X155546178Y-113814653D01*
X155685346Y-113953821D01*
X155685354Y-113953828D01*
X155844595Y-114069524D01*
X156019975Y-114158884D01*
X156207174Y-114219709D01*
X156359705Y-114243867D01*
X156401569Y-114250498D01*
X156401575Y-114250498D01*
X156401583Y-114250500D01*
X156401585Y-114250500D01*
X156598415Y-114250500D01*
X156598417Y-114250500D01*
X156792826Y-114219709D01*
X156980025Y-114158884D01*
X157155405Y-114069524D01*
X157314646Y-113953828D01*
X157347810Y-113920664D01*
X167694500Y-113920664D01*
X167694500Y-114079335D01*
X167725454Y-114234954D01*
X167786174Y-114381544D01*
X167786175Y-114381546D01*
X167786176Y-114381547D01*
X167874328Y-114513476D01*
X167986524Y-114625672D01*
X168118453Y-114713824D01*
X168265044Y-114774545D01*
X168420665Y-114805500D01*
X168579335Y-114805500D01*
X168734956Y-114774545D01*
X168881547Y-114713824D01*
X169013476Y-114625672D01*
X169125672Y-114513476D01*
X169213824Y-114381547D01*
X169274545Y-114234956D01*
X169305500Y-114079335D01*
X169305500Y-113920665D01*
X169305500Y-113920664D01*
X169694500Y-113920664D01*
X169694500Y-114079335D01*
X169725454Y-114234954D01*
X169786174Y-114381544D01*
X169786175Y-114381546D01*
X169786176Y-114381547D01*
X169874328Y-114513476D01*
X169986524Y-114625672D01*
X170118453Y-114713824D01*
X170265044Y-114774545D01*
X170420665Y-114805500D01*
X170579335Y-114805500D01*
X170734956Y-114774545D01*
X170881547Y-114713824D01*
X171013476Y-114625672D01*
X171125672Y-114513476D01*
X171213824Y-114381547D01*
X171274545Y-114234956D01*
X171305500Y-114079335D01*
X171305500Y-113920665D01*
X171274545Y-113765044D01*
X171213824Y-113618453D01*
X171125672Y-113486524D01*
X171013476Y-113374328D01*
X170881547Y-113286176D01*
X170881546Y-113286175D01*
X170881544Y-113286174D01*
X170734954Y-113225454D01*
X170579335Y-113194500D01*
X170420665Y-113194500D01*
X170265045Y-113225454D01*
X170118455Y-113286174D01*
X170118451Y-113286177D01*
X169986524Y-113374327D01*
X169874327Y-113486524D01*
X169786177Y-113618451D01*
X169786174Y-113618455D01*
X169725454Y-113765045D01*
X169694500Y-113920664D01*
X169305500Y-113920664D01*
X169274545Y-113765044D01*
X169213824Y-113618453D01*
X169125672Y-113486524D01*
X169013476Y-113374328D01*
X168881547Y-113286176D01*
X168881546Y-113286175D01*
X168881544Y-113286174D01*
X168734954Y-113225454D01*
X168579335Y-113194500D01*
X168420665Y-113194500D01*
X168265045Y-113225454D01*
X168118455Y-113286174D01*
X168118451Y-113286177D01*
X167986524Y-113374327D01*
X167874327Y-113486524D01*
X167786177Y-113618451D01*
X167786174Y-113618455D01*
X167725454Y-113765045D01*
X167694500Y-113920664D01*
X157347810Y-113920664D01*
X157395074Y-113873401D01*
X157453821Y-113814653D01*
X157453828Y-113814646D01*
X157569524Y-113655405D01*
X157658884Y-113480025D01*
X157719709Y-113292826D01*
X157750500Y-113098417D01*
X157750500Y-112901583D01*
X157719709Y-112707174D01*
X157658884Y-112519975D01*
X157569524Y-112344595D01*
X157453828Y-112185354D01*
X157453821Y-112185346D01*
X157314653Y-112046178D01*
X157314645Y-112046171D01*
X157207270Y-111968158D01*
X157155407Y-111930477D01*
X157136148Y-111920664D01*
X167694500Y-111920664D01*
X167694500Y-112079335D01*
X167725454Y-112234954D01*
X167786174Y-112381544D01*
X167786175Y-112381546D01*
X167786176Y-112381547D01*
X167874328Y-112513476D01*
X167986524Y-112625672D01*
X168118453Y-112713824D01*
X168265044Y-112774545D01*
X168420665Y-112805500D01*
X168579335Y-112805500D01*
X168734956Y-112774545D01*
X168881547Y-112713824D01*
X169013476Y-112625672D01*
X169125672Y-112513476D01*
X169213824Y-112381547D01*
X169274545Y-112234956D01*
X169305500Y-112079335D01*
X169305500Y-111920665D01*
X169305500Y-111920664D01*
X169694500Y-111920664D01*
X169694500Y-112079335D01*
X169725454Y-112234954D01*
X169786174Y-112381544D01*
X169786175Y-112381546D01*
X169786176Y-112381547D01*
X169874328Y-112513476D01*
X169986524Y-112625672D01*
X170118453Y-112713824D01*
X170265044Y-112774545D01*
X170420665Y-112805500D01*
X170579335Y-112805500D01*
X170734956Y-112774545D01*
X170881547Y-112713824D01*
X171013476Y-112625672D01*
X171125672Y-112513476D01*
X171213824Y-112381547D01*
X171274545Y-112234956D01*
X171305500Y-112079335D01*
X171305500Y-111920665D01*
X171274545Y-111765044D01*
X171213824Y-111618453D01*
X171125672Y-111486524D01*
X171013476Y-111374328D01*
X171006813Y-111369876D01*
X170881548Y-111286177D01*
X170881544Y-111286174D01*
X170734954Y-111225454D01*
X170579335Y-111194500D01*
X170420665Y-111194500D01*
X170265045Y-111225454D01*
X170118455Y-111286174D01*
X170118451Y-111286177D01*
X169986524Y-111374327D01*
X169874327Y-111486524D01*
X169786177Y-111618451D01*
X169786174Y-111618455D01*
X169725454Y-111765045D01*
X169694500Y-111920664D01*
X169305500Y-111920664D01*
X169274545Y-111765044D01*
X169213824Y-111618453D01*
X169125672Y-111486524D01*
X169013476Y-111374328D01*
X169006813Y-111369876D01*
X168881548Y-111286177D01*
X168881544Y-111286174D01*
X168734954Y-111225454D01*
X168579335Y-111194500D01*
X168420665Y-111194500D01*
X168265045Y-111225454D01*
X168118455Y-111286174D01*
X168118451Y-111286177D01*
X167986524Y-111374327D01*
X167874327Y-111486524D01*
X167786177Y-111618451D01*
X167786174Y-111618455D01*
X167725454Y-111765045D01*
X167694500Y-111920664D01*
X157136148Y-111920664D01*
X156980031Y-111841119D01*
X156980023Y-111841115D01*
X156792829Y-111780292D01*
X156792826Y-111780291D01*
X156792820Y-111780290D01*
X156598430Y-111749501D01*
X156598418Y-111749500D01*
X156598417Y-111749500D01*
X156401583Y-111749500D01*
X156401581Y-111749500D01*
X156401569Y-111749501D01*
X156207179Y-111780290D01*
X156207170Y-111780292D01*
X156019976Y-111841115D01*
X156019968Y-111841119D01*
X155844592Y-111930477D01*
X155685354Y-112046171D01*
X155685346Y-112046178D01*
X155546178Y-112185346D01*
X155546171Y-112185354D01*
X155430477Y-112344592D01*
X155341119Y-112519968D01*
X155341115Y-112519976D01*
X155280292Y-112707170D01*
X155280290Y-112707179D01*
X155249501Y-112901569D01*
X155249500Y-112901585D01*
X141750500Y-112901585D01*
X141750500Y-112901583D01*
X141719709Y-112707174D01*
X141658884Y-112519975D01*
X141569524Y-112344595D01*
X141453828Y-112185354D01*
X141453821Y-112185346D01*
X141314653Y-112046178D01*
X141314645Y-112046171D01*
X141155407Y-111930477D01*
X140980031Y-111841119D01*
X140980023Y-111841115D01*
X140792829Y-111780292D01*
X140792826Y-111780291D01*
X140792820Y-111780290D01*
X140598430Y-111749501D01*
X140598418Y-111749500D01*
X140598417Y-111749500D01*
X140401583Y-111749500D01*
X140401581Y-111749500D01*
X140401569Y-111749501D01*
X140207179Y-111780290D01*
X140207170Y-111780292D01*
X140019976Y-111841115D01*
X140019968Y-111841119D01*
X139844592Y-111930477D01*
X139685354Y-112046171D01*
X139685346Y-112046178D01*
X139546178Y-112185346D01*
X139546171Y-112185354D01*
X139430477Y-112344592D01*
X139341119Y-112519968D01*
X139341115Y-112519976D01*
X139280292Y-112707170D01*
X139280290Y-112707179D01*
X139249501Y-112901569D01*
X139249500Y-112901585D01*
X123300500Y-112901585D01*
X123300500Y-111920664D01*
X125694500Y-111920664D01*
X125694500Y-112079335D01*
X125725454Y-112234954D01*
X125786174Y-112381544D01*
X125786175Y-112381546D01*
X125786176Y-112381547D01*
X125874328Y-112513476D01*
X125986524Y-112625672D01*
X126118453Y-112713824D01*
X126265044Y-112774545D01*
X126420665Y-112805500D01*
X126579335Y-112805500D01*
X126734956Y-112774545D01*
X126881547Y-112713824D01*
X127013476Y-112625672D01*
X127125672Y-112513476D01*
X127213824Y-112381547D01*
X127274545Y-112234956D01*
X127305500Y-112079335D01*
X127305500Y-111920665D01*
X127305500Y-111920664D01*
X127694500Y-111920664D01*
X127694500Y-112079335D01*
X127725454Y-112234954D01*
X127786174Y-112381544D01*
X127786175Y-112381546D01*
X127786176Y-112381547D01*
X127874328Y-112513476D01*
X127986524Y-112625672D01*
X128118453Y-112713824D01*
X128265044Y-112774545D01*
X128420665Y-112805500D01*
X128579335Y-112805500D01*
X128734956Y-112774545D01*
X128881547Y-112713824D01*
X129013476Y-112625672D01*
X129125672Y-112513476D01*
X129213824Y-112381547D01*
X129274545Y-112234956D01*
X129305500Y-112079335D01*
X129305500Y-111920665D01*
X129274545Y-111765044D01*
X129213824Y-111618453D01*
X129139821Y-111507700D01*
X141517700Y-111507700D01*
X141517700Y-111607899D01*
X141543630Y-111704664D01*
X141543631Y-111704667D01*
X141593724Y-111791432D01*
X141664568Y-111862276D01*
X141751333Y-111912369D01*
X141796678Y-111924519D01*
X141848100Y-111938299D01*
X141848106Y-111938300D01*
X141948294Y-111938300D01*
X141948299Y-111938299D01*
X141977493Y-111930476D01*
X142045067Y-111912369D01*
X142131832Y-111862276D01*
X142202676Y-111791432D01*
X142252769Y-111704667D01*
X142270995Y-111636648D01*
X142278699Y-111607899D01*
X142278700Y-111607893D01*
X142278700Y-111507706D01*
X142278699Y-111507701D01*
X142266449Y-111461986D01*
X142263210Y-111449900D01*
X146519500Y-111449900D01*
X146519500Y-111550099D01*
X146545430Y-111646864D01*
X146545431Y-111646867D01*
X146595524Y-111733632D01*
X146666368Y-111804476D01*
X146753133Y-111854569D01*
X146798478Y-111866719D01*
X146849900Y-111880499D01*
X146849906Y-111880500D01*
X146950094Y-111880500D01*
X146950099Y-111880499D01*
X146978848Y-111872795D01*
X147046867Y-111854569D01*
X147133632Y-111804476D01*
X147204476Y-111733632D01*
X147254569Y-111646867D01*
X147280500Y-111550094D01*
X147280500Y-111449906D01*
X147280499Y-111449900D01*
X147276583Y-111435286D01*
X147273344Y-111423200D01*
X148045100Y-111423200D01*
X148045100Y-111523399D01*
X148070571Y-111618451D01*
X148071031Y-111620167D01*
X148121124Y-111706932D01*
X148191968Y-111777776D01*
X148278733Y-111827869D01*
X148324078Y-111840019D01*
X148375500Y-111853799D01*
X148375506Y-111853800D01*
X148475694Y-111853800D01*
X148475699Y-111853799D01*
X148504448Y-111846095D01*
X148572467Y-111827869D01*
X148659232Y-111777776D01*
X148730076Y-111706932D01*
X148780169Y-111620167D01*
X148806100Y-111523394D01*
X148806100Y-111423206D01*
X148806099Y-111423200D01*
X148787323Y-111353133D01*
X148780169Y-111326433D01*
X148730076Y-111239668D01*
X148659232Y-111168824D01*
X148572467Y-111118731D01*
X148572464Y-111118730D01*
X148475699Y-111092800D01*
X148475694Y-111092800D01*
X148375506Y-111092800D01*
X148375500Y-111092800D01*
X148278735Y-111118730D01*
X148278733Y-111118731D01*
X148191967Y-111168824D01*
X148121124Y-111239667D01*
X148071031Y-111326433D01*
X148071030Y-111326435D01*
X148045100Y-111423200D01*
X147273344Y-111423200D01*
X147259055Y-111369875D01*
X147254569Y-111353133D01*
X147204476Y-111266368D01*
X147133632Y-111195524D01*
X147046867Y-111145431D01*
X147046864Y-111145430D01*
X146950099Y-111119500D01*
X146950094Y-111119500D01*
X146849906Y-111119500D01*
X146849900Y-111119500D01*
X146753135Y-111145430D01*
X146753133Y-111145431D01*
X146666367Y-111195524D01*
X146595524Y-111266367D01*
X146545431Y-111353133D01*
X146545430Y-111353135D01*
X146519500Y-111449900D01*
X142263210Y-111449900D01*
X142252769Y-111410933D01*
X142202676Y-111324168D01*
X142131832Y-111253324D01*
X142045067Y-111203231D01*
X142045064Y-111203230D01*
X141948299Y-111177300D01*
X141948294Y-111177300D01*
X141848106Y-111177300D01*
X141848100Y-111177300D01*
X141751335Y-111203230D01*
X141751333Y-111203231D01*
X141664567Y-111253324D01*
X141593724Y-111324167D01*
X141543631Y-111410933D01*
X141543630Y-111410935D01*
X141517700Y-111507700D01*
X129139821Y-111507700D01*
X129125672Y-111486524D01*
X129013476Y-111374328D01*
X129006813Y-111369876D01*
X128881548Y-111286177D01*
X128881544Y-111286174D01*
X128734954Y-111225454D01*
X128579335Y-111194500D01*
X128420665Y-111194500D01*
X128265045Y-111225454D01*
X128118455Y-111286174D01*
X128118451Y-111286177D01*
X127986524Y-111374327D01*
X127874327Y-111486524D01*
X127786177Y-111618451D01*
X127786174Y-111618455D01*
X127725454Y-111765045D01*
X127694500Y-111920664D01*
X127305500Y-111920664D01*
X127274545Y-111765044D01*
X127213824Y-111618453D01*
X127125672Y-111486524D01*
X127013476Y-111374328D01*
X127006813Y-111369876D01*
X126881548Y-111286177D01*
X126881544Y-111286174D01*
X126734954Y-111225454D01*
X126579335Y-111194500D01*
X126420665Y-111194500D01*
X126265045Y-111225454D01*
X126118455Y-111286174D01*
X126118451Y-111286177D01*
X125986524Y-111374327D01*
X125874327Y-111486524D01*
X125786177Y-111618451D01*
X125786174Y-111618455D01*
X125725454Y-111765045D01*
X125694500Y-111920664D01*
X123300500Y-111920664D01*
X123300500Y-111015300D01*
X137082700Y-111015300D01*
X137082700Y-111115499D01*
X137108630Y-111212264D01*
X137108631Y-111212267D01*
X137158724Y-111299032D01*
X137229568Y-111369876D01*
X137316333Y-111419969D01*
X137361678Y-111432119D01*
X137413100Y-111445899D01*
X137413106Y-111445900D01*
X137513294Y-111445900D01*
X137513299Y-111445899D01*
X137523227Y-111443239D01*
X137560921Y-111433137D01*
X137610067Y-111419969D01*
X137696832Y-111369876D01*
X137767676Y-111299032D01*
X137817769Y-111212267D01*
X137843700Y-111115494D01*
X137843700Y-111015306D01*
X137843699Y-111015300D01*
X137829919Y-110963878D01*
X137817769Y-110918533D01*
X137767676Y-110831768D01*
X137696832Y-110760924D01*
X137610067Y-110710831D01*
X137610064Y-110710830D01*
X137513299Y-110684900D01*
X137513294Y-110684900D01*
X137413106Y-110684900D01*
X137413100Y-110684900D01*
X137316335Y-110710830D01*
X137316333Y-110710831D01*
X137229567Y-110760924D01*
X137158724Y-110831767D01*
X137108631Y-110918533D01*
X137108630Y-110918535D01*
X137082700Y-111015300D01*
X123300500Y-111015300D01*
X123300500Y-109920664D01*
X125694500Y-109920664D01*
X125694500Y-110079335D01*
X125725454Y-110234954D01*
X125786174Y-110381544D01*
X125786175Y-110381546D01*
X125786176Y-110381547D01*
X125802577Y-110406093D01*
X125867238Y-110502866D01*
X125874328Y-110513476D01*
X125986524Y-110625672D01*
X126118453Y-110713824D01*
X126265044Y-110774545D01*
X126420665Y-110805500D01*
X126579335Y-110805500D01*
X126734956Y-110774545D01*
X126881547Y-110713824D01*
X127013476Y-110625672D01*
X127125672Y-110513476D01*
X127213824Y-110381547D01*
X127274545Y-110234956D01*
X127305500Y-110079335D01*
X127305500Y-109920665D01*
X127305500Y-109920664D01*
X127694500Y-109920664D01*
X127694500Y-110079335D01*
X127725454Y-110234954D01*
X127786174Y-110381544D01*
X127786175Y-110381546D01*
X127786176Y-110381547D01*
X127802577Y-110406093D01*
X127867238Y-110502866D01*
X127874328Y-110513476D01*
X127986524Y-110625672D01*
X128118453Y-110713824D01*
X128265044Y-110774545D01*
X128420665Y-110805500D01*
X128579335Y-110805500D01*
X128734956Y-110774545D01*
X128881547Y-110713824D01*
X129013476Y-110625672D01*
X129125672Y-110513476D01*
X129213824Y-110381547D01*
X129274545Y-110234956D01*
X129296118Y-110126500D01*
X137023100Y-110126500D01*
X137023100Y-110226699D01*
X137044325Y-110305906D01*
X137049031Y-110323467D01*
X137099124Y-110410232D01*
X137169968Y-110481076D01*
X137256733Y-110531169D01*
X137302078Y-110543319D01*
X137353500Y-110557099D01*
X137353506Y-110557100D01*
X137453694Y-110557100D01*
X137453699Y-110557099D01*
X137482448Y-110549395D01*
X137550467Y-110531169D01*
X137637232Y-110481076D01*
X137708076Y-110410232D01*
X137758169Y-110323467D01*
X137784100Y-110226694D01*
X137784100Y-110126506D01*
X137784099Y-110126500D01*
X137764008Y-110051524D01*
X137758169Y-110029733D01*
X137731304Y-109983200D01*
X140043300Y-109983200D01*
X140043300Y-110083399D01*
X140069230Y-110180164D01*
X140069231Y-110180167D01*
X140119324Y-110266932D01*
X140190168Y-110337776D01*
X140276933Y-110387869D01*
X140322278Y-110400019D01*
X140373700Y-110413799D01*
X140373706Y-110413800D01*
X140473894Y-110413800D01*
X140473899Y-110413799D01*
X140502656Y-110406093D01*
X140570667Y-110387869D01*
X140657432Y-110337776D01*
X140689308Y-110305900D01*
X150039800Y-110305900D01*
X150039800Y-110406099D01*
X150065730Y-110502864D01*
X150065731Y-110502867D01*
X150115824Y-110589632D01*
X150186668Y-110660476D01*
X150273433Y-110710569D01*
X150318778Y-110722719D01*
X150370200Y-110736499D01*
X150370206Y-110736500D01*
X150470394Y-110736500D01*
X150470399Y-110736499D01*
X150499148Y-110728795D01*
X150567167Y-110710569D01*
X150653932Y-110660476D01*
X150724776Y-110589632D01*
X150774869Y-110502867D01*
X150798735Y-110413800D01*
X150800799Y-110406099D01*
X150800800Y-110406093D01*
X150800800Y-110305906D01*
X150800799Y-110305900D01*
X150779576Y-110226699D01*
X150774869Y-110209133D01*
X150724776Y-110122368D01*
X150653932Y-110051524D01*
X150567167Y-110001431D01*
X150567164Y-110001430D01*
X150479596Y-109977965D01*
X150479595Y-109977964D01*
X150470401Y-109975501D01*
X150470394Y-109975500D01*
X150370206Y-109975500D01*
X150370200Y-109975500D01*
X150273435Y-110001430D01*
X150273433Y-110001431D01*
X150186667Y-110051524D01*
X150115824Y-110122367D01*
X150065731Y-110209133D01*
X150065730Y-110209135D01*
X150039800Y-110305900D01*
X140689308Y-110305900D01*
X140728276Y-110266932D01*
X140778369Y-110180167D01*
X140804300Y-110083394D01*
X140804300Y-109983206D01*
X140804299Y-109983200D01*
X140787541Y-109920664D01*
X140778369Y-109886433D01*
X140728276Y-109799668D01*
X140657432Y-109728824D01*
X140570667Y-109678731D01*
X140570664Y-109678730D01*
X140473899Y-109652800D01*
X140473894Y-109652800D01*
X140373706Y-109652800D01*
X140373700Y-109652800D01*
X140276935Y-109678730D01*
X140276933Y-109678731D01*
X140190167Y-109728824D01*
X140119324Y-109799667D01*
X140069231Y-109886433D01*
X140069230Y-109886435D01*
X140043300Y-109983200D01*
X137731304Y-109983200D01*
X137708076Y-109942968D01*
X137637232Y-109872124D01*
X137550467Y-109822031D01*
X137550464Y-109822030D01*
X137453699Y-109796100D01*
X137453694Y-109796100D01*
X137353506Y-109796100D01*
X137353500Y-109796100D01*
X137256735Y-109822030D01*
X137256733Y-109822031D01*
X137169967Y-109872124D01*
X137099124Y-109942967D01*
X137049031Y-110029733D01*
X137049030Y-110029735D01*
X137023100Y-110126500D01*
X129296118Y-110126500D01*
X129305500Y-110079335D01*
X129305500Y-109920665D01*
X129274545Y-109765044D01*
X129213824Y-109618453D01*
X129180781Y-109569000D01*
X147536500Y-109569000D01*
X147536500Y-109669199D01*
X147562184Y-109765045D01*
X147562431Y-109765967D01*
X147612524Y-109852732D01*
X147683368Y-109923576D01*
X147770133Y-109973669D01*
X147805725Y-109983206D01*
X147866900Y-109999599D01*
X147866906Y-109999600D01*
X147967094Y-109999600D01*
X147967099Y-109999599D01*
X147995848Y-109991895D01*
X148063867Y-109973669D01*
X148150632Y-109923576D01*
X148153544Y-109920664D01*
X167694500Y-109920664D01*
X167694500Y-110079335D01*
X167725454Y-110234954D01*
X167786174Y-110381544D01*
X167786175Y-110381546D01*
X167786176Y-110381547D01*
X167802577Y-110406093D01*
X167867238Y-110502866D01*
X167874328Y-110513476D01*
X167986524Y-110625672D01*
X168118453Y-110713824D01*
X168265044Y-110774545D01*
X168420665Y-110805500D01*
X168579335Y-110805500D01*
X168734956Y-110774545D01*
X168881547Y-110713824D01*
X169013476Y-110625672D01*
X169125672Y-110513476D01*
X169213824Y-110381547D01*
X169274545Y-110234956D01*
X169305500Y-110079335D01*
X169305500Y-109920665D01*
X169305500Y-109920664D01*
X169694500Y-109920664D01*
X169694500Y-110079335D01*
X169725454Y-110234954D01*
X169786174Y-110381544D01*
X169786175Y-110381546D01*
X169786176Y-110381547D01*
X169802577Y-110406093D01*
X169867238Y-110502866D01*
X169874328Y-110513476D01*
X169986524Y-110625672D01*
X170118453Y-110713824D01*
X170265044Y-110774545D01*
X170420665Y-110805500D01*
X170579335Y-110805500D01*
X170734956Y-110774545D01*
X170881547Y-110713824D01*
X171013476Y-110625672D01*
X171125672Y-110513476D01*
X171213824Y-110381547D01*
X171274545Y-110234956D01*
X171305500Y-110079335D01*
X171305500Y-109920665D01*
X171274545Y-109765044D01*
X171213824Y-109618453D01*
X171125672Y-109486524D01*
X171013476Y-109374328D01*
X170881547Y-109286176D01*
X170881546Y-109286175D01*
X170881544Y-109286174D01*
X170734954Y-109225454D01*
X170579335Y-109194500D01*
X170420665Y-109194500D01*
X170265045Y-109225454D01*
X170118455Y-109286174D01*
X170118451Y-109286177D01*
X169986524Y-109374327D01*
X169874327Y-109486524D01*
X169786177Y-109618451D01*
X169786174Y-109618455D01*
X169725454Y-109765045D01*
X169694500Y-109920664D01*
X169305500Y-109920664D01*
X169274545Y-109765044D01*
X169213824Y-109618453D01*
X169125672Y-109486524D01*
X169013476Y-109374328D01*
X168881547Y-109286176D01*
X168881546Y-109286175D01*
X168881544Y-109286174D01*
X168734954Y-109225454D01*
X168579335Y-109194500D01*
X168420665Y-109194500D01*
X168265045Y-109225454D01*
X168118455Y-109286174D01*
X168118451Y-109286177D01*
X167986524Y-109374327D01*
X167874327Y-109486524D01*
X167786177Y-109618451D01*
X167786174Y-109618455D01*
X167725454Y-109765045D01*
X167694500Y-109920664D01*
X148153544Y-109920664D01*
X148221476Y-109852732D01*
X148271569Y-109765967D01*
X148289795Y-109697948D01*
X148297499Y-109669199D01*
X148297500Y-109669193D01*
X148297500Y-109569006D01*
X148297499Y-109569000D01*
X148275398Y-109486524D01*
X148271569Y-109472233D01*
X148221476Y-109385468D01*
X148150632Y-109314624D01*
X148063867Y-109264531D01*
X148063864Y-109264530D01*
X147967099Y-109238600D01*
X147967094Y-109238600D01*
X147866906Y-109238600D01*
X147866900Y-109238600D01*
X147770135Y-109264530D01*
X147770133Y-109264531D01*
X147683367Y-109314624D01*
X147612524Y-109385467D01*
X147562431Y-109472233D01*
X147562430Y-109472235D01*
X147536500Y-109569000D01*
X129180781Y-109569000D01*
X129125672Y-109486524D01*
X129013476Y-109374328D01*
X128881547Y-109286176D01*
X128881546Y-109286175D01*
X128881544Y-109286174D01*
X128734954Y-109225454D01*
X128579335Y-109194500D01*
X128420665Y-109194500D01*
X128265045Y-109225454D01*
X128118455Y-109286174D01*
X128118451Y-109286177D01*
X127986524Y-109374327D01*
X127874327Y-109486524D01*
X127786177Y-109618451D01*
X127786174Y-109618455D01*
X127725454Y-109765045D01*
X127694500Y-109920664D01*
X127305500Y-109920664D01*
X127274545Y-109765044D01*
X127213824Y-109618453D01*
X127125672Y-109486524D01*
X127013476Y-109374328D01*
X126881547Y-109286176D01*
X126881546Y-109286175D01*
X126881544Y-109286174D01*
X126734954Y-109225454D01*
X126579335Y-109194500D01*
X126420665Y-109194500D01*
X126265045Y-109225454D01*
X126118455Y-109286174D01*
X126118451Y-109286177D01*
X125986524Y-109374327D01*
X125874327Y-109486524D01*
X125786177Y-109618451D01*
X125786174Y-109618455D01*
X125725454Y-109765045D01*
X125694500Y-109920664D01*
X123300500Y-109920664D01*
X123300500Y-107920664D01*
X125694500Y-107920664D01*
X125694500Y-108079335D01*
X125725454Y-108234954D01*
X125786174Y-108381544D01*
X125786175Y-108381546D01*
X125786176Y-108381547D01*
X125814431Y-108423833D01*
X125866392Y-108501600D01*
X125874328Y-108513476D01*
X125986524Y-108625672D01*
X126118453Y-108713824D01*
X126265044Y-108774545D01*
X126420665Y-108805500D01*
X126579335Y-108805500D01*
X126734956Y-108774545D01*
X126881547Y-108713824D01*
X127013476Y-108625672D01*
X127125672Y-108513476D01*
X127213824Y-108381547D01*
X127274545Y-108234956D01*
X127305500Y-108079335D01*
X127305500Y-107920665D01*
X127305500Y-107920664D01*
X127694500Y-107920664D01*
X127694500Y-108079335D01*
X127725454Y-108234954D01*
X127786174Y-108381544D01*
X127786175Y-108381546D01*
X127786176Y-108381547D01*
X127814431Y-108423833D01*
X127866392Y-108501600D01*
X127874328Y-108513476D01*
X127986524Y-108625672D01*
X128118453Y-108713824D01*
X128265044Y-108774545D01*
X128420665Y-108805500D01*
X128579335Y-108805500D01*
X128734956Y-108774545D01*
X128881547Y-108713824D01*
X129013476Y-108625672D01*
X129105823Y-108533325D01*
X144479500Y-108533325D01*
X144479500Y-108646674D01*
X144479501Y-108646682D01*
X144508836Y-108756163D01*
X144508837Y-108756166D01*
X144565515Y-108854334D01*
X144565518Y-108854338D01*
X144645661Y-108934481D01*
X144645665Y-108934484D01*
X144645667Y-108934486D01*
X144743833Y-108991162D01*
X144743836Y-108991163D01*
X144810838Y-109009116D01*
X144853324Y-109020500D01*
X144853325Y-109020500D01*
X144966675Y-109020500D01*
X144966676Y-109020500D01*
X145076167Y-108991162D01*
X145174333Y-108934486D01*
X145254486Y-108854333D01*
X145311162Y-108756167D01*
X145340500Y-108646676D01*
X145340500Y-108533325D01*
X145479500Y-108533325D01*
X145479500Y-108646674D01*
X145479501Y-108646682D01*
X145508836Y-108756163D01*
X145508837Y-108756166D01*
X145565515Y-108854334D01*
X145565518Y-108854338D01*
X145645661Y-108934481D01*
X145645665Y-108934484D01*
X145645667Y-108934486D01*
X145743833Y-108991162D01*
X145743836Y-108991163D01*
X145810838Y-109009116D01*
X145853324Y-109020500D01*
X145853325Y-109020500D01*
X145966675Y-109020500D01*
X145966676Y-109020500D01*
X146076167Y-108991162D01*
X146174333Y-108934486D01*
X146254486Y-108854333D01*
X146311162Y-108756167D01*
X146340500Y-108646676D01*
X146340500Y-108533325D01*
X146479500Y-108533325D01*
X146479500Y-108646674D01*
X146479501Y-108646682D01*
X146508836Y-108756163D01*
X146508837Y-108756166D01*
X146565515Y-108854334D01*
X146565518Y-108854338D01*
X146645661Y-108934481D01*
X146645665Y-108934484D01*
X146645667Y-108934486D01*
X146743833Y-108991162D01*
X146743836Y-108991163D01*
X146810838Y-109009116D01*
X146853324Y-109020500D01*
X146853325Y-109020500D01*
X146966675Y-109020500D01*
X146966676Y-109020500D01*
X147076167Y-108991162D01*
X147174333Y-108934486D01*
X147254486Y-108854333D01*
X147311162Y-108756167D01*
X147340500Y-108646676D01*
X147340500Y-108533325D01*
X147479500Y-108533325D01*
X147479500Y-108646674D01*
X147479501Y-108646682D01*
X147508836Y-108756163D01*
X147508837Y-108756166D01*
X147565515Y-108854334D01*
X147565518Y-108854338D01*
X147645661Y-108934481D01*
X147645665Y-108934484D01*
X147645667Y-108934486D01*
X147743833Y-108991162D01*
X147743836Y-108991163D01*
X147810838Y-109009116D01*
X147853324Y-109020500D01*
X147853325Y-109020500D01*
X147966675Y-109020500D01*
X147966676Y-109020500D01*
X148076167Y-108991162D01*
X148174333Y-108934486D01*
X148254486Y-108854333D01*
X148311162Y-108756167D01*
X148340500Y-108646676D01*
X148340500Y-108533325D01*
X148479500Y-108533325D01*
X148479500Y-108646674D01*
X148479501Y-108646682D01*
X148508836Y-108756163D01*
X148508837Y-108756166D01*
X148565515Y-108854334D01*
X148565518Y-108854338D01*
X148645661Y-108934481D01*
X148645665Y-108934484D01*
X148645667Y-108934486D01*
X148743833Y-108991162D01*
X148743836Y-108991163D01*
X148810838Y-109009116D01*
X148853324Y-109020500D01*
X148853325Y-109020500D01*
X148966675Y-109020500D01*
X148966676Y-109020500D01*
X149076167Y-108991162D01*
X149174333Y-108934486D01*
X149254486Y-108854333D01*
X149311162Y-108756167D01*
X149340500Y-108646676D01*
X149340500Y-108533325D01*
X149479500Y-108533325D01*
X149479500Y-108646674D01*
X149479501Y-108646682D01*
X149508836Y-108756163D01*
X149508837Y-108756166D01*
X149565515Y-108854334D01*
X149565518Y-108854338D01*
X149645661Y-108934481D01*
X149645665Y-108934484D01*
X149645667Y-108934486D01*
X149743833Y-108991162D01*
X149743836Y-108991163D01*
X149810838Y-109009116D01*
X149853324Y-109020500D01*
X149853325Y-109020500D01*
X149966675Y-109020500D01*
X149966676Y-109020500D01*
X150076167Y-108991162D01*
X150174333Y-108934486D01*
X150254486Y-108854333D01*
X150311162Y-108756167D01*
X150340500Y-108646676D01*
X150340500Y-108533325D01*
X150479500Y-108533325D01*
X150479500Y-108646674D01*
X150479501Y-108646682D01*
X150508836Y-108756163D01*
X150508837Y-108756166D01*
X150565515Y-108854334D01*
X150565518Y-108854338D01*
X150645661Y-108934481D01*
X150645665Y-108934484D01*
X150645667Y-108934486D01*
X150743833Y-108991162D01*
X150743836Y-108991163D01*
X150810838Y-109009116D01*
X150853324Y-109020500D01*
X150853325Y-109020500D01*
X150966675Y-109020500D01*
X150966676Y-109020500D01*
X151076167Y-108991162D01*
X151174333Y-108934486D01*
X151254486Y-108854333D01*
X151311162Y-108756167D01*
X151340500Y-108646676D01*
X151340500Y-108533325D01*
X151479500Y-108533325D01*
X151479500Y-108646674D01*
X151479501Y-108646682D01*
X151508836Y-108756163D01*
X151508837Y-108756166D01*
X151565515Y-108854334D01*
X151565518Y-108854338D01*
X151645661Y-108934481D01*
X151645665Y-108934484D01*
X151645667Y-108934486D01*
X151743833Y-108991162D01*
X151743836Y-108991163D01*
X151810838Y-109009116D01*
X151853324Y-109020500D01*
X151853325Y-109020500D01*
X151966675Y-109020500D01*
X151966676Y-109020500D01*
X152076167Y-108991162D01*
X152174333Y-108934486D01*
X152254486Y-108854333D01*
X152311162Y-108756167D01*
X152340500Y-108646676D01*
X152340500Y-108533324D01*
X152311162Y-108423833D01*
X152254486Y-108325667D01*
X152254484Y-108325665D01*
X152254481Y-108325661D01*
X152174338Y-108245518D01*
X152174334Y-108245515D01*
X152174333Y-108245514D01*
X152125250Y-108217176D01*
X152076166Y-108188837D01*
X152076163Y-108188836D01*
X151966682Y-108159501D01*
X151966677Y-108159500D01*
X151966676Y-108159500D01*
X151853324Y-108159500D01*
X151853323Y-108159500D01*
X151853317Y-108159501D01*
X151743836Y-108188836D01*
X151743833Y-108188837D01*
X151645665Y-108245515D01*
X151645661Y-108245518D01*
X151565518Y-108325661D01*
X151565515Y-108325665D01*
X151508837Y-108423833D01*
X151508836Y-108423836D01*
X151479501Y-108533317D01*
X151479500Y-108533325D01*
X151340500Y-108533325D01*
X151340500Y-108533324D01*
X151311162Y-108423833D01*
X151254486Y-108325667D01*
X151254484Y-108325665D01*
X151254481Y-108325661D01*
X151174338Y-108245518D01*
X151174334Y-108245515D01*
X151174333Y-108245514D01*
X151125250Y-108217176D01*
X151076166Y-108188837D01*
X151076163Y-108188836D01*
X150966682Y-108159501D01*
X150966677Y-108159500D01*
X150966676Y-108159500D01*
X150853324Y-108159500D01*
X150853323Y-108159500D01*
X150853317Y-108159501D01*
X150743836Y-108188836D01*
X150743833Y-108188837D01*
X150645665Y-108245515D01*
X150645661Y-108245518D01*
X150565518Y-108325661D01*
X150565515Y-108325665D01*
X150508837Y-108423833D01*
X150508836Y-108423836D01*
X150479501Y-108533317D01*
X150479500Y-108533325D01*
X150340500Y-108533325D01*
X150340500Y-108533324D01*
X150311162Y-108423833D01*
X150254486Y-108325667D01*
X150254484Y-108325665D01*
X150254481Y-108325661D01*
X150174338Y-108245518D01*
X150174334Y-108245515D01*
X150174333Y-108245514D01*
X150125250Y-108217176D01*
X150076166Y-108188837D01*
X150076163Y-108188836D01*
X149966682Y-108159501D01*
X149966677Y-108159500D01*
X149966676Y-108159500D01*
X149853324Y-108159500D01*
X149853323Y-108159500D01*
X149853317Y-108159501D01*
X149743836Y-108188836D01*
X149743833Y-108188837D01*
X149645665Y-108245515D01*
X149645661Y-108245518D01*
X149565518Y-108325661D01*
X149565515Y-108325665D01*
X149508837Y-108423833D01*
X149508836Y-108423836D01*
X149479501Y-108533317D01*
X149479500Y-108533325D01*
X149340500Y-108533325D01*
X149340500Y-108533324D01*
X149311162Y-108423833D01*
X149254486Y-108325667D01*
X149254484Y-108325665D01*
X149254481Y-108325661D01*
X149174338Y-108245518D01*
X149174334Y-108245515D01*
X149174333Y-108245514D01*
X149125250Y-108217176D01*
X149076166Y-108188837D01*
X149076163Y-108188836D01*
X148966682Y-108159501D01*
X148966677Y-108159500D01*
X148966676Y-108159500D01*
X148853324Y-108159500D01*
X148853323Y-108159500D01*
X148853317Y-108159501D01*
X148743836Y-108188836D01*
X148743833Y-108188837D01*
X148645665Y-108245515D01*
X148645661Y-108245518D01*
X148565518Y-108325661D01*
X148565515Y-108325665D01*
X148508837Y-108423833D01*
X148508836Y-108423836D01*
X148479501Y-108533317D01*
X148479500Y-108533325D01*
X148340500Y-108533325D01*
X148340500Y-108533324D01*
X148311162Y-108423833D01*
X148254486Y-108325667D01*
X148254484Y-108325665D01*
X148254481Y-108325661D01*
X148174338Y-108245518D01*
X148174334Y-108245515D01*
X148174333Y-108245514D01*
X148125250Y-108217176D01*
X148076166Y-108188837D01*
X148076163Y-108188836D01*
X147966682Y-108159501D01*
X147966677Y-108159500D01*
X147966676Y-108159500D01*
X147853324Y-108159500D01*
X147853323Y-108159500D01*
X147853317Y-108159501D01*
X147743836Y-108188836D01*
X147743833Y-108188837D01*
X147645665Y-108245515D01*
X147645661Y-108245518D01*
X147565518Y-108325661D01*
X147565515Y-108325665D01*
X147508837Y-108423833D01*
X147508836Y-108423836D01*
X147479501Y-108533317D01*
X147479500Y-108533325D01*
X147340500Y-108533325D01*
X147340500Y-108533324D01*
X147311162Y-108423833D01*
X147254486Y-108325667D01*
X147254484Y-108325665D01*
X147254481Y-108325661D01*
X147174338Y-108245518D01*
X147174334Y-108245515D01*
X147174333Y-108245514D01*
X147125250Y-108217176D01*
X147076166Y-108188837D01*
X147076163Y-108188836D01*
X146966682Y-108159501D01*
X146966677Y-108159500D01*
X146966676Y-108159500D01*
X146853324Y-108159500D01*
X146853323Y-108159500D01*
X146853317Y-108159501D01*
X146743836Y-108188836D01*
X146743833Y-108188837D01*
X146645665Y-108245515D01*
X146645661Y-108245518D01*
X146565518Y-108325661D01*
X146565515Y-108325665D01*
X146508837Y-108423833D01*
X146508836Y-108423836D01*
X146479501Y-108533317D01*
X146479500Y-108533325D01*
X146340500Y-108533325D01*
X146340500Y-108533324D01*
X146311162Y-108423833D01*
X146254486Y-108325667D01*
X146254484Y-108325665D01*
X146254481Y-108325661D01*
X146174338Y-108245518D01*
X146174334Y-108245515D01*
X146174333Y-108245514D01*
X146125250Y-108217176D01*
X146076166Y-108188837D01*
X146076163Y-108188836D01*
X145966682Y-108159501D01*
X145966677Y-108159500D01*
X145966676Y-108159500D01*
X145853324Y-108159500D01*
X145853323Y-108159500D01*
X145853317Y-108159501D01*
X145743836Y-108188836D01*
X145743833Y-108188837D01*
X145645665Y-108245515D01*
X145645661Y-108245518D01*
X145565518Y-108325661D01*
X145565515Y-108325665D01*
X145508837Y-108423833D01*
X145508836Y-108423836D01*
X145479501Y-108533317D01*
X145479500Y-108533325D01*
X145340500Y-108533325D01*
X145340500Y-108533324D01*
X145311162Y-108423833D01*
X145254486Y-108325667D01*
X145254484Y-108325665D01*
X145254481Y-108325661D01*
X145174338Y-108245518D01*
X145174334Y-108245515D01*
X145174333Y-108245514D01*
X145125250Y-108217176D01*
X145076166Y-108188837D01*
X145076163Y-108188836D01*
X144966682Y-108159501D01*
X144966677Y-108159500D01*
X144966676Y-108159500D01*
X144853324Y-108159500D01*
X144853323Y-108159500D01*
X144853317Y-108159501D01*
X144743836Y-108188836D01*
X144743833Y-108188837D01*
X144645665Y-108245515D01*
X144645661Y-108245518D01*
X144565518Y-108325661D01*
X144565515Y-108325665D01*
X144508837Y-108423833D01*
X144508836Y-108423836D01*
X144479501Y-108533317D01*
X144479500Y-108533325D01*
X129105823Y-108533325D01*
X129125672Y-108513476D01*
X129213824Y-108381547D01*
X129274545Y-108234956D01*
X129305500Y-108079335D01*
X129305500Y-107920665D01*
X129274545Y-107765044D01*
X129213824Y-107618453D01*
X129156943Y-107533325D01*
X144479500Y-107533325D01*
X144479500Y-107646674D01*
X144479501Y-107646682D01*
X144508836Y-107756163D01*
X144508837Y-107756166D01*
X144565515Y-107854334D01*
X144565518Y-107854338D01*
X144645661Y-107934481D01*
X144645665Y-107934484D01*
X144645667Y-107934486D01*
X144743833Y-107991162D01*
X144743836Y-107991163D01*
X144810838Y-108009116D01*
X144853324Y-108020500D01*
X144853325Y-108020500D01*
X144966675Y-108020500D01*
X144966676Y-108020500D01*
X145076167Y-107991162D01*
X145174333Y-107934486D01*
X145254486Y-107854333D01*
X145311162Y-107756167D01*
X145340500Y-107646676D01*
X145340500Y-107533325D01*
X145479500Y-107533325D01*
X145479500Y-107646674D01*
X145479501Y-107646682D01*
X145508836Y-107756163D01*
X145508837Y-107756166D01*
X145565515Y-107854334D01*
X145565518Y-107854338D01*
X145645661Y-107934481D01*
X145645665Y-107934484D01*
X145645667Y-107934486D01*
X145743833Y-107991162D01*
X145743836Y-107991163D01*
X145810838Y-108009116D01*
X145853324Y-108020500D01*
X145853325Y-108020500D01*
X145966675Y-108020500D01*
X145966676Y-108020500D01*
X146076167Y-107991162D01*
X146174333Y-107934486D01*
X146254486Y-107854333D01*
X146311162Y-107756167D01*
X146340500Y-107646676D01*
X146340500Y-107533325D01*
X146479500Y-107533325D01*
X146479500Y-107646674D01*
X146479501Y-107646682D01*
X146508836Y-107756163D01*
X146508837Y-107756166D01*
X146565515Y-107854334D01*
X146565518Y-107854338D01*
X146645661Y-107934481D01*
X146645665Y-107934484D01*
X146645667Y-107934486D01*
X146743833Y-107991162D01*
X146743836Y-107991163D01*
X146810838Y-108009116D01*
X146853324Y-108020500D01*
X146853325Y-108020500D01*
X146966675Y-108020500D01*
X146966676Y-108020500D01*
X147076167Y-107991162D01*
X147174333Y-107934486D01*
X147254486Y-107854333D01*
X147311162Y-107756167D01*
X147340500Y-107646676D01*
X147340500Y-107533325D01*
X147479500Y-107533325D01*
X147479500Y-107646674D01*
X147479501Y-107646682D01*
X147508836Y-107756163D01*
X147508837Y-107756166D01*
X147565515Y-107854334D01*
X147565518Y-107854338D01*
X147645661Y-107934481D01*
X147645665Y-107934484D01*
X147645667Y-107934486D01*
X147743833Y-107991162D01*
X147743836Y-107991163D01*
X147810838Y-108009116D01*
X147853324Y-108020500D01*
X147853325Y-108020500D01*
X147966675Y-108020500D01*
X147966676Y-108020500D01*
X148076167Y-107991162D01*
X148174333Y-107934486D01*
X148254486Y-107854333D01*
X148311162Y-107756167D01*
X148340500Y-107646676D01*
X148340500Y-107533325D01*
X148479500Y-107533325D01*
X148479500Y-107646674D01*
X148479501Y-107646682D01*
X148508836Y-107756163D01*
X148508837Y-107756166D01*
X148565515Y-107854334D01*
X148565518Y-107854338D01*
X148645661Y-107934481D01*
X148645665Y-107934484D01*
X148645667Y-107934486D01*
X148743833Y-107991162D01*
X148743836Y-107991163D01*
X148810838Y-108009116D01*
X148853324Y-108020500D01*
X148853325Y-108020500D01*
X148966675Y-108020500D01*
X148966676Y-108020500D01*
X149076167Y-107991162D01*
X149174333Y-107934486D01*
X149254486Y-107854333D01*
X149311162Y-107756167D01*
X149340500Y-107646676D01*
X149340500Y-107533325D01*
X149479500Y-107533325D01*
X149479500Y-107646674D01*
X149479501Y-107646682D01*
X149508836Y-107756163D01*
X149508837Y-107756166D01*
X149565515Y-107854334D01*
X149565518Y-107854338D01*
X149645661Y-107934481D01*
X149645665Y-107934484D01*
X149645667Y-107934486D01*
X149743833Y-107991162D01*
X149743836Y-107991163D01*
X149810838Y-108009116D01*
X149853324Y-108020500D01*
X149853325Y-108020500D01*
X149966675Y-108020500D01*
X149966676Y-108020500D01*
X150076167Y-107991162D01*
X150174333Y-107934486D01*
X150254486Y-107854333D01*
X150311162Y-107756167D01*
X150340500Y-107646676D01*
X150340500Y-107533325D01*
X150479500Y-107533325D01*
X150479500Y-107646674D01*
X150479501Y-107646682D01*
X150508836Y-107756163D01*
X150508837Y-107756166D01*
X150565515Y-107854334D01*
X150565518Y-107854338D01*
X150645661Y-107934481D01*
X150645665Y-107934484D01*
X150645667Y-107934486D01*
X150743833Y-107991162D01*
X150743836Y-107991163D01*
X150810838Y-108009116D01*
X150853324Y-108020500D01*
X150853325Y-108020500D01*
X150966675Y-108020500D01*
X150966676Y-108020500D01*
X151076167Y-107991162D01*
X151174333Y-107934486D01*
X151254486Y-107854333D01*
X151311162Y-107756167D01*
X151340500Y-107646676D01*
X151340500Y-107533325D01*
X151479500Y-107533325D01*
X151479500Y-107646674D01*
X151479501Y-107646682D01*
X151508836Y-107756163D01*
X151508837Y-107756166D01*
X151565515Y-107854334D01*
X151565518Y-107854338D01*
X151645661Y-107934481D01*
X151645665Y-107934484D01*
X151645667Y-107934486D01*
X151743833Y-107991162D01*
X151743836Y-107991163D01*
X151810838Y-108009116D01*
X151853324Y-108020500D01*
X151853325Y-108020500D01*
X151966675Y-108020500D01*
X151966676Y-108020500D01*
X152076167Y-107991162D01*
X152174333Y-107934486D01*
X152188155Y-107920664D01*
X167694500Y-107920664D01*
X167694500Y-108079335D01*
X167725454Y-108234954D01*
X167786174Y-108381544D01*
X167786175Y-108381546D01*
X167786176Y-108381547D01*
X167814431Y-108423833D01*
X167866392Y-108501600D01*
X167874328Y-108513476D01*
X167986524Y-108625672D01*
X168118453Y-108713824D01*
X168265044Y-108774545D01*
X168420665Y-108805500D01*
X168579335Y-108805500D01*
X168734956Y-108774545D01*
X168881547Y-108713824D01*
X168999175Y-108635227D01*
X169046089Y-108625896D01*
X169085863Y-108652472D01*
X169095195Y-108699388D01*
X169088024Y-108718443D01*
X169078331Y-108735231D01*
X169078330Y-108735235D01*
X169052400Y-108832000D01*
X169052400Y-108932199D01*
X169076062Y-109020500D01*
X169078331Y-109028967D01*
X169128424Y-109115732D01*
X169199268Y-109186576D01*
X169286033Y-109236669D01*
X169331378Y-109248819D01*
X169382800Y-109262599D01*
X169382806Y-109262600D01*
X169482994Y-109262600D01*
X169482999Y-109262599D01*
X169511748Y-109254895D01*
X169579767Y-109236669D01*
X169666532Y-109186576D01*
X169737376Y-109115732D01*
X169787469Y-109028967D01*
X169812786Y-108934486D01*
X169813399Y-108932199D01*
X169813400Y-108932193D01*
X169813400Y-108832006D01*
X169813399Y-108832000D01*
X169793077Y-108756163D01*
X169787469Y-108735233D01*
X169737376Y-108648468D01*
X169666532Y-108577624D01*
X169579767Y-108527531D01*
X169579764Y-108527530D01*
X169482999Y-108501600D01*
X169482994Y-108501600D01*
X169382806Y-108501600D01*
X169382800Y-108501600D01*
X169286035Y-108527530D01*
X169286029Y-108527532D01*
X169241801Y-108553067D01*
X169194375Y-108559310D01*
X169156425Y-108530189D01*
X169150182Y-108482763D01*
X169158583Y-108464220D01*
X169213824Y-108381547D01*
X169274545Y-108234956D01*
X169305500Y-108079335D01*
X169305500Y-107920665D01*
X169305500Y-107920664D01*
X169694500Y-107920664D01*
X169694500Y-108079335D01*
X169725454Y-108234954D01*
X169786174Y-108381544D01*
X169786175Y-108381546D01*
X169786176Y-108381547D01*
X169814431Y-108423833D01*
X169866392Y-108501600D01*
X169874328Y-108513476D01*
X169986524Y-108625672D01*
X170118453Y-108713824D01*
X170265044Y-108774545D01*
X170420665Y-108805500D01*
X170579335Y-108805500D01*
X170734956Y-108774545D01*
X170881547Y-108713824D01*
X171013476Y-108625672D01*
X171125672Y-108513476D01*
X171213824Y-108381547D01*
X171274545Y-108234956D01*
X171305500Y-108079335D01*
X171305500Y-107920665D01*
X171274545Y-107765044D01*
X171213824Y-107618453D01*
X171125672Y-107486524D01*
X171013476Y-107374328D01*
X170881547Y-107286176D01*
X170881546Y-107286175D01*
X170881544Y-107286174D01*
X170734954Y-107225454D01*
X170579335Y-107194500D01*
X170420665Y-107194500D01*
X170265045Y-107225454D01*
X170118455Y-107286174D01*
X170118451Y-107286177D01*
X169986524Y-107374327D01*
X169874327Y-107486524D01*
X169786177Y-107618451D01*
X169786174Y-107618455D01*
X169725454Y-107765045D01*
X169694500Y-107920664D01*
X169305500Y-107920664D01*
X169274545Y-107765044D01*
X169213824Y-107618453D01*
X169125672Y-107486524D01*
X169013476Y-107374328D01*
X168881547Y-107286176D01*
X168881546Y-107286175D01*
X168881544Y-107286174D01*
X168734954Y-107225454D01*
X168579335Y-107194500D01*
X168420665Y-107194500D01*
X168265045Y-107225454D01*
X168118455Y-107286174D01*
X168118451Y-107286177D01*
X167986524Y-107374327D01*
X167874327Y-107486524D01*
X167786177Y-107618451D01*
X167786174Y-107618455D01*
X167725454Y-107765045D01*
X167694500Y-107920664D01*
X152188155Y-107920664D01*
X152235419Y-107873401D01*
X152254481Y-107854338D01*
X152254486Y-107854333D01*
X152311162Y-107756167D01*
X152340500Y-107646676D01*
X152340500Y-107533324D01*
X152311162Y-107423833D01*
X152254486Y-107325667D01*
X152254484Y-107325665D01*
X152254481Y-107325661D01*
X152174338Y-107245518D01*
X152174334Y-107245515D01*
X152174333Y-107245514D01*
X152085974Y-107194500D01*
X152076166Y-107188837D01*
X152076163Y-107188836D01*
X151966682Y-107159501D01*
X151966677Y-107159500D01*
X151966676Y-107159500D01*
X151853324Y-107159500D01*
X151853323Y-107159500D01*
X151853317Y-107159501D01*
X151743836Y-107188836D01*
X151743833Y-107188837D01*
X151645665Y-107245515D01*
X151645661Y-107245518D01*
X151565518Y-107325661D01*
X151565515Y-107325665D01*
X151508837Y-107423833D01*
X151508836Y-107423836D01*
X151479501Y-107533317D01*
X151479500Y-107533325D01*
X151340500Y-107533325D01*
X151340500Y-107533324D01*
X151311162Y-107423833D01*
X151254486Y-107325667D01*
X151254484Y-107325665D01*
X151254481Y-107325661D01*
X151174338Y-107245518D01*
X151174334Y-107245515D01*
X151174333Y-107245514D01*
X151085974Y-107194500D01*
X151076166Y-107188837D01*
X151076163Y-107188836D01*
X150966682Y-107159501D01*
X150966677Y-107159500D01*
X150966676Y-107159500D01*
X150853324Y-107159500D01*
X150853323Y-107159500D01*
X150853317Y-107159501D01*
X150743836Y-107188836D01*
X150743833Y-107188837D01*
X150645665Y-107245515D01*
X150645661Y-107245518D01*
X150565518Y-107325661D01*
X150565515Y-107325665D01*
X150508837Y-107423833D01*
X150508836Y-107423836D01*
X150479501Y-107533317D01*
X150479500Y-107533325D01*
X150340500Y-107533325D01*
X150340500Y-107533324D01*
X150311162Y-107423833D01*
X150254486Y-107325667D01*
X150254484Y-107325665D01*
X150254481Y-107325661D01*
X150174338Y-107245518D01*
X150174334Y-107245515D01*
X150174333Y-107245514D01*
X150085974Y-107194500D01*
X150076166Y-107188837D01*
X150076163Y-107188836D01*
X149966682Y-107159501D01*
X149966677Y-107159500D01*
X149966676Y-107159500D01*
X149853324Y-107159500D01*
X149853323Y-107159500D01*
X149853317Y-107159501D01*
X149743836Y-107188836D01*
X149743833Y-107188837D01*
X149645665Y-107245515D01*
X149645661Y-107245518D01*
X149565518Y-107325661D01*
X149565515Y-107325665D01*
X149508837Y-107423833D01*
X149508836Y-107423836D01*
X149479501Y-107533317D01*
X149479500Y-107533325D01*
X149340500Y-107533325D01*
X149340500Y-107533324D01*
X149311162Y-107423833D01*
X149254486Y-107325667D01*
X149254484Y-107325665D01*
X149254481Y-107325661D01*
X149174338Y-107245518D01*
X149174334Y-107245515D01*
X149174333Y-107245514D01*
X149085974Y-107194500D01*
X149076166Y-107188837D01*
X149076163Y-107188836D01*
X148966682Y-107159501D01*
X148966677Y-107159500D01*
X148966676Y-107159500D01*
X148853324Y-107159500D01*
X148853323Y-107159500D01*
X148853317Y-107159501D01*
X148743836Y-107188836D01*
X148743833Y-107188837D01*
X148645665Y-107245515D01*
X148645661Y-107245518D01*
X148565518Y-107325661D01*
X148565515Y-107325665D01*
X148508837Y-107423833D01*
X148508836Y-107423836D01*
X148479501Y-107533317D01*
X148479500Y-107533325D01*
X148340500Y-107533325D01*
X148340500Y-107533324D01*
X148311162Y-107423833D01*
X148254486Y-107325667D01*
X148254484Y-107325665D01*
X148254481Y-107325661D01*
X148174338Y-107245518D01*
X148174334Y-107245515D01*
X148174333Y-107245514D01*
X148085974Y-107194500D01*
X148076166Y-107188837D01*
X148076163Y-107188836D01*
X147966682Y-107159501D01*
X147966677Y-107159500D01*
X147966676Y-107159500D01*
X147853324Y-107159500D01*
X147853323Y-107159500D01*
X147853317Y-107159501D01*
X147743836Y-107188836D01*
X147743833Y-107188837D01*
X147645665Y-107245515D01*
X147645661Y-107245518D01*
X147565518Y-107325661D01*
X147565515Y-107325665D01*
X147508837Y-107423833D01*
X147508836Y-107423836D01*
X147479501Y-107533317D01*
X147479500Y-107533325D01*
X147340500Y-107533325D01*
X147340500Y-107533324D01*
X147311162Y-107423833D01*
X147254486Y-107325667D01*
X147254484Y-107325665D01*
X147254481Y-107325661D01*
X147174338Y-107245518D01*
X147174334Y-107245515D01*
X147174333Y-107245514D01*
X147085974Y-107194500D01*
X147076166Y-107188837D01*
X147076163Y-107188836D01*
X146966682Y-107159501D01*
X146966677Y-107159500D01*
X146966676Y-107159500D01*
X146853324Y-107159500D01*
X146853323Y-107159500D01*
X146853317Y-107159501D01*
X146743836Y-107188836D01*
X146743833Y-107188837D01*
X146645665Y-107245515D01*
X146645661Y-107245518D01*
X146565518Y-107325661D01*
X146565515Y-107325665D01*
X146508837Y-107423833D01*
X146508836Y-107423836D01*
X146479501Y-107533317D01*
X146479500Y-107533325D01*
X146340500Y-107533325D01*
X146340500Y-107533324D01*
X146311162Y-107423833D01*
X146254486Y-107325667D01*
X146254484Y-107325665D01*
X146254481Y-107325661D01*
X146174338Y-107245518D01*
X146174334Y-107245515D01*
X146174333Y-107245514D01*
X146085974Y-107194500D01*
X146076166Y-107188837D01*
X146076163Y-107188836D01*
X145966682Y-107159501D01*
X145966677Y-107159500D01*
X145966676Y-107159500D01*
X145853324Y-107159500D01*
X145853323Y-107159500D01*
X145853317Y-107159501D01*
X145743836Y-107188836D01*
X145743833Y-107188837D01*
X145645665Y-107245515D01*
X145645661Y-107245518D01*
X145565518Y-107325661D01*
X145565515Y-107325665D01*
X145508837Y-107423833D01*
X145508836Y-107423836D01*
X145479501Y-107533317D01*
X145479500Y-107533325D01*
X145340500Y-107533325D01*
X145340500Y-107533324D01*
X145311162Y-107423833D01*
X145254486Y-107325667D01*
X145254484Y-107325665D01*
X145254481Y-107325661D01*
X145174338Y-107245518D01*
X145174334Y-107245515D01*
X145174333Y-107245514D01*
X145085974Y-107194500D01*
X145076166Y-107188837D01*
X145076163Y-107188836D01*
X144966682Y-107159501D01*
X144966677Y-107159500D01*
X144966676Y-107159500D01*
X144853324Y-107159500D01*
X144853323Y-107159500D01*
X144853317Y-107159501D01*
X144743836Y-107188836D01*
X144743833Y-107188837D01*
X144645665Y-107245515D01*
X144645661Y-107245518D01*
X144565518Y-107325661D01*
X144565515Y-107325665D01*
X144508837Y-107423833D01*
X144508836Y-107423836D01*
X144479501Y-107533317D01*
X144479500Y-107533325D01*
X129156943Y-107533325D01*
X129125672Y-107486524D01*
X129013476Y-107374328D01*
X128881547Y-107286176D01*
X128881546Y-107286175D01*
X128881544Y-107286174D01*
X128734954Y-107225454D01*
X128579335Y-107194500D01*
X128420665Y-107194500D01*
X128265045Y-107225454D01*
X128118455Y-107286174D01*
X128118451Y-107286177D01*
X127986524Y-107374327D01*
X127874327Y-107486524D01*
X127786177Y-107618451D01*
X127786174Y-107618455D01*
X127725454Y-107765045D01*
X127694500Y-107920664D01*
X127305500Y-107920664D01*
X127274545Y-107765044D01*
X127213824Y-107618453D01*
X127125672Y-107486524D01*
X127013476Y-107374328D01*
X126881547Y-107286176D01*
X126881546Y-107286175D01*
X126881544Y-107286174D01*
X126734954Y-107225454D01*
X126579335Y-107194500D01*
X126420665Y-107194500D01*
X126265045Y-107225454D01*
X126118455Y-107286174D01*
X126118451Y-107286177D01*
X125986524Y-107374327D01*
X125874327Y-107486524D01*
X125786177Y-107618451D01*
X125786174Y-107618455D01*
X125725454Y-107765045D01*
X125694500Y-107920664D01*
X123300500Y-107920664D01*
X123300500Y-105920664D01*
X125694500Y-105920664D01*
X125694500Y-106079335D01*
X125725454Y-106234954D01*
X125786174Y-106381544D01*
X125786175Y-106381546D01*
X125786176Y-106381547D01*
X125810245Y-106417569D01*
X125845535Y-106470385D01*
X125874328Y-106513476D01*
X125986524Y-106625672D01*
X126118453Y-106713824D01*
X126265044Y-106774545D01*
X126420665Y-106805500D01*
X126579335Y-106805500D01*
X126734956Y-106774545D01*
X126881547Y-106713824D01*
X127013476Y-106625672D01*
X127125672Y-106513476D01*
X127213824Y-106381547D01*
X127274545Y-106234956D01*
X127305500Y-106079335D01*
X127305500Y-105920665D01*
X127305500Y-105920664D01*
X127694500Y-105920664D01*
X127694500Y-106079335D01*
X127725454Y-106234954D01*
X127786174Y-106381544D01*
X127786175Y-106381546D01*
X127786176Y-106381547D01*
X127810245Y-106417569D01*
X127845535Y-106470385D01*
X127874328Y-106513476D01*
X127986524Y-106625672D01*
X128118453Y-106713824D01*
X128265044Y-106774545D01*
X128420665Y-106805500D01*
X128579335Y-106805500D01*
X128734956Y-106774545D01*
X128881547Y-106713824D01*
X129013476Y-106625672D01*
X129087748Y-106551400D01*
X142475200Y-106551400D01*
X142475200Y-106651599D01*
X142491875Y-106713825D01*
X142501131Y-106748367D01*
X142551224Y-106835132D01*
X142622068Y-106905976D01*
X142708833Y-106956069D01*
X142754178Y-106968219D01*
X142805600Y-106981999D01*
X142805606Y-106982000D01*
X142905794Y-106982000D01*
X142905799Y-106981999D01*
X142934548Y-106974295D01*
X143002567Y-106956069D01*
X143089332Y-106905976D01*
X143160176Y-106835132D01*
X143210269Y-106748367D01*
X143236200Y-106651594D01*
X143236200Y-106551406D01*
X143235774Y-106549816D01*
X143234592Y-106545403D01*
X143234592Y-106545401D01*
X143231356Y-106533325D01*
X145479500Y-106533325D01*
X145479500Y-106646674D01*
X145479501Y-106646682D01*
X145508836Y-106756163D01*
X145508837Y-106756166D01*
X145537176Y-106805250D01*
X145554428Y-106835132D01*
X145565515Y-106854334D01*
X145565518Y-106854338D01*
X145645661Y-106934481D01*
X145645665Y-106934484D01*
X145645667Y-106934486D01*
X145727962Y-106981999D01*
X145743833Y-106991162D01*
X145743836Y-106991163D01*
X145810838Y-107009116D01*
X145853324Y-107020500D01*
X145853325Y-107020500D01*
X145966675Y-107020500D01*
X145966676Y-107020500D01*
X146076167Y-106991162D01*
X146174333Y-106934486D01*
X146254486Y-106854333D01*
X146311162Y-106756167D01*
X146340500Y-106646676D01*
X146340500Y-106533325D01*
X148479500Y-106533325D01*
X148479500Y-106646674D01*
X148479501Y-106646682D01*
X148508836Y-106756163D01*
X148508837Y-106756166D01*
X148537176Y-106805250D01*
X148554428Y-106835132D01*
X148565515Y-106854334D01*
X148565518Y-106854338D01*
X148645661Y-106934481D01*
X148645665Y-106934484D01*
X148645667Y-106934486D01*
X148727962Y-106981999D01*
X148743833Y-106991162D01*
X148743836Y-106991163D01*
X148810838Y-107009116D01*
X148853324Y-107020500D01*
X148853325Y-107020500D01*
X148966675Y-107020500D01*
X148966676Y-107020500D01*
X149076167Y-106991162D01*
X149174333Y-106934486D01*
X149254486Y-106854333D01*
X149311162Y-106756167D01*
X149340500Y-106646676D01*
X149340500Y-106533325D01*
X149479500Y-106533325D01*
X149479500Y-106646674D01*
X149479501Y-106646682D01*
X149508836Y-106756163D01*
X149508837Y-106756166D01*
X149537176Y-106805250D01*
X149554428Y-106835132D01*
X149565515Y-106854334D01*
X149565518Y-106854338D01*
X149645661Y-106934481D01*
X149645665Y-106934484D01*
X149645667Y-106934486D01*
X149727962Y-106981999D01*
X149743833Y-106991162D01*
X149743836Y-106991163D01*
X149810838Y-107009116D01*
X149853324Y-107020500D01*
X149853325Y-107020500D01*
X149966675Y-107020500D01*
X149966676Y-107020500D01*
X150076167Y-106991162D01*
X150174333Y-106934486D01*
X150254486Y-106854333D01*
X150311162Y-106756167D01*
X150340500Y-106646676D01*
X150340500Y-106533325D01*
X150479500Y-106533325D01*
X150479500Y-106646674D01*
X150479501Y-106646682D01*
X150508836Y-106756163D01*
X150508837Y-106756166D01*
X150537176Y-106805250D01*
X150554428Y-106835132D01*
X150565515Y-106854334D01*
X150565518Y-106854338D01*
X150645661Y-106934481D01*
X150645665Y-106934484D01*
X150645667Y-106934486D01*
X150727962Y-106981999D01*
X150743833Y-106991162D01*
X150743836Y-106991163D01*
X150810838Y-107009116D01*
X150853324Y-107020500D01*
X150853325Y-107020500D01*
X150966675Y-107020500D01*
X150966676Y-107020500D01*
X151076167Y-106991162D01*
X151174333Y-106934486D01*
X151254486Y-106854333D01*
X151311162Y-106756167D01*
X151340500Y-106646676D01*
X151340500Y-106533325D01*
X151479500Y-106533325D01*
X151479500Y-106646674D01*
X151479501Y-106646682D01*
X151508836Y-106756163D01*
X151508837Y-106756166D01*
X151537176Y-106805250D01*
X151554428Y-106835132D01*
X151565515Y-106854334D01*
X151565518Y-106854338D01*
X151645661Y-106934481D01*
X151645665Y-106934484D01*
X151645667Y-106934486D01*
X151727962Y-106981999D01*
X151743833Y-106991162D01*
X151743836Y-106991163D01*
X151810838Y-107009116D01*
X151853324Y-107020500D01*
X151853325Y-107020500D01*
X151966675Y-107020500D01*
X151966676Y-107020500D01*
X152076167Y-106991162D01*
X152174333Y-106934486D01*
X152254486Y-106854333D01*
X152311162Y-106756167D01*
X152340500Y-106646676D01*
X152340500Y-106533324D01*
X152335182Y-106513476D01*
X152323636Y-106470385D01*
X152320398Y-106458300D01*
X157090400Y-106458300D01*
X157090400Y-106558499D01*
X157115347Y-106651594D01*
X157116331Y-106655267D01*
X157166424Y-106742032D01*
X157237268Y-106812876D01*
X157324033Y-106862969D01*
X157369378Y-106875119D01*
X157420800Y-106888899D01*
X157420806Y-106888900D01*
X157520994Y-106888900D01*
X157520999Y-106888899D01*
X157549748Y-106881195D01*
X157617767Y-106862969D01*
X157627933Y-106857100D01*
X165515600Y-106857100D01*
X165515600Y-106957299D01*
X165532536Y-107020500D01*
X165541531Y-107054067D01*
X165591624Y-107140832D01*
X165662468Y-107211676D01*
X165749233Y-107261769D01*
X165794578Y-107273919D01*
X165846000Y-107287699D01*
X165846006Y-107287700D01*
X165946194Y-107287700D01*
X165946199Y-107287699D01*
X165974948Y-107279995D01*
X166042967Y-107261769D01*
X166129732Y-107211676D01*
X166200576Y-107140832D01*
X166250669Y-107054067D01*
X166276600Y-106957294D01*
X166276600Y-106857106D01*
X166276599Y-106857100D01*
X166254477Y-106774545D01*
X166250669Y-106760333D01*
X166200576Y-106673568D01*
X166129732Y-106602724D01*
X166042967Y-106552631D01*
X166042964Y-106552630D01*
X165946199Y-106526700D01*
X165946194Y-106526700D01*
X165846006Y-106526700D01*
X165846000Y-106526700D01*
X165749235Y-106552630D01*
X165749233Y-106552631D01*
X165662467Y-106602724D01*
X165591624Y-106673567D01*
X165541531Y-106760333D01*
X165541530Y-106760335D01*
X165515600Y-106857100D01*
X157627933Y-106857100D01*
X157704532Y-106812876D01*
X157775376Y-106742032D01*
X157825469Y-106655267D01*
X157851400Y-106558494D01*
X157851400Y-106458306D01*
X157851399Y-106458300D01*
X157830831Y-106381544D01*
X157825469Y-106361533D01*
X157775376Y-106274768D01*
X157704532Y-106203924D01*
X157617767Y-106153831D01*
X157617764Y-106153830D01*
X157520999Y-106127900D01*
X157520994Y-106127900D01*
X157420806Y-106127900D01*
X157420800Y-106127900D01*
X157324035Y-106153830D01*
X157324033Y-106153831D01*
X157237267Y-106203924D01*
X157166424Y-106274767D01*
X157116331Y-106361533D01*
X157116330Y-106361535D01*
X157090400Y-106458300D01*
X152320398Y-106458300D01*
X152311163Y-106423836D01*
X152311162Y-106423833D01*
X152286749Y-106381549D01*
X152254486Y-106325667D01*
X152254484Y-106325665D01*
X152254481Y-106325661D01*
X152174338Y-106245518D01*
X152174334Y-106245515D01*
X152174333Y-106245514D01*
X152125250Y-106217176D01*
X152076166Y-106188837D01*
X152076163Y-106188836D01*
X151966682Y-106159501D01*
X151966677Y-106159500D01*
X151966676Y-106159500D01*
X151853324Y-106159500D01*
X151853323Y-106159500D01*
X151853317Y-106159501D01*
X151743836Y-106188836D01*
X151743833Y-106188837D01*
X151645665Y-106245515D01*
X151645661Y-106245518D01*
X151565518Y-106325661D01*
X151565515Y-106325665D01*
X151508837Y-106423833D01*
X151508836Y-106423836D01*
X151479501Y-106533317D01*
X151479500Y-106533325D01*
X151340500Y-106533325D01*
X151340500Y-106533324D01*
X151316432Y-106443500D01*
X151311163Y-106423836D01*
X151311162Y-106423833D01*
X151286749Y-106381549D01*
X151254486Y-106325667D01*
X151254484Y-106325665D01*
X151254481Y-106325661D01*
X151174338Y-106245518D01*
X151174334Y-106245515D01*
X151174333Y-106245514D01*
X151125250Y-106217176D01*
X151076166Y-106188837D01*
X151076163Y-106188836D01*
X150966682Y-106159501D01*
X150966677Y-106159500D01*
X150966676Y-106159500D01*
X150853324Y-106159500D01*
X150853323Y-106159500D01*
X150853317Y-106159501D01*
X150743836Y-106188836D01*
X150743833Y-106188837D01*
X150645665Y-106245515D01*
X150645661Y-106245518D01*
X150565518Y-106325661D01*
X150565515Y-106325665D01*
X150508837Y-106423833D01*
X150508836Y-106423836D01*
X150479501Y-106533317D01*
X150479500Y-106533325D01*
X150340500Y-106533325D01*
X150340500Y-106533324D01*
X150316432Y-106443500D01*
X150311163Y-106423836D01*
X150311162Y-106423833D01*
X150286749Y-106381549D01*
X150254486Y-106325667D01*
X150254484Y-106325665D01*
X150254481Y-106325661D01*
X150174338Y-106245518D01*
X150174334Y-106245515D01*
X150174333Y-106245514D01*
X150125250Y-106217176D01*
X150076166Y-106188837D01*
X150076163Y-106188836D01*
X149966682Y-106159501D01*
X149966677Y-106159500D01*
X149966676Y-106159500D01*
X149853324Y-106159500D01*
X149853323Y-106159500D01*
X149853317Y-106159501D01*
X149743836Y-106188836D01*
X149743833Y-106188837D01*
X149645665Y-106245515D01*
X149645661Y-106245518D01*
X149565518Y-106325661D01*
X149565515Y-106325665D01*
X149508837Y-106423833D01*
X149508836Y-106423836D01*
X149479501Y-106533317D01*
X149479500Y-106533325D01*
X149340500Y-106533325D01*
X149340500Y-106533324D01*
X149316432Y-106443500D01*
X149311163Y-106423836D01*
X149311162Y-106423833D01*
X149286749Y-106381549D01*
X149254486Y-106325667D01*
X149254484Y-106325665D01*
X149254481Y-106325661D01*
X149174338Y-106245518D01*
X149174334Y-106245515D01*
X149174333Y-106245514D01*
X149125250Y-106217176D01*
X149076166Y-106188837D01*
X149076163Y-106188836D01*
X148966682Y-106159501D01*
X148966677Y-106159500D01*
X148966676Y-106159500D01*
X148853324Y-106159500D01*
X148853323Y-106159500D01*
X148853317Y-106159501D01*
X148743836Y-106188836D01*
X148743833Y-106188837D01*
X148645665Y-106245515D01*
X148645661Y-106245518D01*
X148565518Y-106325661D01*
X148565515Y-106325665D01*
X148508837Y-106423833D01*
X148508836Y-106423836D01*
X148479501Y-106533317D01*
X148479500Y-106533325D01*
X146340500Y-106533325D01*
X146340500Y-106533324D01*
X146316432Y-106443500D01*
X146311163Y-106423836D01*
X146311162Y-106423833D01*
X146286749Y-106381549D01*
X146254486Y-106325667D01*
X146254484Y-106325665D01*
X146254481Y-106325661D01*
X146174338Y-106245518D01*
X146174334Y-106245515D01*
X146174333Y-106245514D01*
X146125250Y-106217176D01*
X146076166Y-106188837D01*
X146076163Y-106188836D01*
X145966682Y-106159501D01*
X145966677Y-106159500D01*
X145966676Y-106159500D01*
X145853324Y-106159500D01*
X145853323Y-106159500D01*
X145853317Y-106159501D01*
X145743836Y-106188836D01*
X145743833Y-106188837D01*
X145645665Y-106245515D01*
X145645661Y-106245518D01*
X145565518Y-106325661D01*
X145565515Y-106325665D01*
X145508837Y-106423833D01*
X145508836Y-106423836D01*
X145479501Y-106533317D01*
X145479500Y-106533325D01*
X143231356Y-106533325D01*
X143211253Y-106458306D01*
X143210269Y-106454633D01*
X143160176Y-106367868D01*
X143089332Y-106297024D01*
X143002567Y-106246931D01*
X143002564Y-106246930D01*
X142905799Y-106221000D01*
X142905794Y-106221000D01*
X142805606Y-106221000D01*
X142805600Y-106221000D01*
X142708835Y-106246930D01*
X142708833Y-106246931D01*
X142622067Y-106297024D01*
X142551224Y-106367867D01*
X142501131Y-106454633D01*
X142501130Y-106454635D01*
X142475200Y-106551400D01*
X129087748Y-106551400D01*
X129125672Y-106513476D01*
X129213824Y-106381547D01*
X129274545Y-106234956D01*
X129305500Y-106079335D01*
X129305500Y-105920665D01*
X129274545Y-105765044D01*
X129213824Y-105618453D01*
X129156943Y-105533325D01*
X144479500Y-105533325D01*
X144479500Y-105646674D01*
X144479501Y-105646682D01*
X144508836Y-105756163D01*
X144508837Y-105756166D01*
X144537176Y-105805250D01*
X144561645Y-105847632D01*
X144565515Y-105854334D01*
X144565518Y-105854338D01*
X144645661Y-105934481D01*
X144645665Y-105934484D01*
X144645667Y-105934486D01*
X144704701Y-105968569D01*
X144743833Y-105991162D01*
X144743836Y-105991163D01*
X144810838Y-106009116D01*
X144853324Y-106020500D01*
X144853325Y-106020500D01*
X144966675Y-106020500D01*
X144966676Y-106020500D01*
X145076167Y-105991162D01*
X145174333Y-105934486D01*
X145254486Y-105854333D01*
X145311162Y-105756167D01*
X145340500Y-105646676D01*
X145340500Y-105533325D01*
X145479500Y-105533325D01*
X145479500Y-105646674D01*
X145479501Y-105646682D01*
X145508836Y-105756163D01*
X145508837Y-105756166D01*
X145537176Y-105805250D01*
X145561645Y-105847632D01*
X145565515Y-105854334D01*
X145565518Y-105854338D01*
X145645661Y-105934481D01*
X145645665Y-105934484D01*
X145645667Y-105934486D01*
X145704701Y-105968569D01*
X145743833Y-105991162D01*
X145743836Y-105991163D01*
X145810838Y-106009116D01*
X145853324Y-106020500D01*
X145853325Y-106020500D01*
X145966675Y-106020500D01*
X145966676Y-106020500D01*
X146076167Y-105991162D01*
X146174333Y-105934486D01*
X146254486Y-105854333D01*
X146311162Y-105756167D01*
X146340500Y-105646676D01*
X146340500Y-105533325D01*
X146479500Y-105533325D01*
X146479500Y-105646674D01*
X146479501Y-105646682D01*
X146508836Y-105756163D01*
X146508837Y-105756166D01*
X146537176Y-105805250D01*
X146561645Y-105847632D01*
X146565515Y-105854334D01*
X146565518Y-105854338D01*
X146645661Y-105934481D01*
X146645665Y-105934484D01*
X146645667Y-105934486D01*
X146704701Y-105968569D01*
X146743833Y-105991162D01*
X146743836Y-105991163D01*
X146810838Y-106009116D01*
X146853324Y-106020500D01*
X146853325Y-106020500D01*
X146966675Y-106020500D01*
X146966676Y-106020500D01*
X147076167Y-105991162D01*
X147174333Y-105934486D01*
X147254486Y-105854333D01*
X147311162Y-105756167D01*
X147340500Y-105646676D01*
X147340500Y-105533325D01*
X147479500Y-105533325D01*
X147479500Y-105646674D01*
X147479501Y-105646682D01*
X147508836Y-105756163D01*
X147508837Y-105756166D01*
X147537176Y-105805250D01*
X147561645Y-105847632D01*
X147565515Y-105854334D01*
X147565518Y-105854338D01*
X147645661Y-105934481D01*
X147645665Y-105934484D01*
X147645667Y-105934486D01*
X147704701Y-105968569D01*
X147743833Y-105991162D01*
X147743836Y-105991163D01*
X147810838Y-106009116D01*
X147853324Y-106020500D01*
X147853325Y-106020500D01*
X147966675Y-106020500D01*
X147966676Y-106020500D01*
X148076167Y-105991162D01*
X148174333Y-105934486D01*
X148254486Y-105854333D01*
X148311162Y-105756167D01*
X148340500Y-105646676D01*
X148340500Y-105533325D01*
X148479500Y-105533325D01*
X148479500Y-105646674D01*
X148479501Y-105646682D01*
X148508836Y-105756163D01*
X148508837Y-105756166D01*
X148537176Y-105805250D01*
X148561645Y-105847632D01*
X148565515Y-105854334D01*
X148565518Y-105854338D01*
X148645661Y-105934481D01*
X148645665Y-105934484D01*
X148645667Y-105934486D01*
X148704701Y-105968569D01*
X148743833Y-105991162D01*
X148743836Y-105991163D01*
X148810838Y-106009116D01*
X148853324Y-106020500D01*
X148853325Y-106020500D01*
X148966675Y-106020500D01*
X148966676Y-106020500D01*
X149076167Y-105991162D01*
X149174333Y-105934486D01*
X149254486Y-105854333D01*
X149311162Y-105756167D01*
X149340500Y-105646676D01*
X149340500Y-105533325D01*
X149479500Y-105533325D01*
X149479500Y-105646674D01*
X149479501Y-105646682D01*
X149508836Y-105756163D01*
X149508837Y-105756166D01*
X149537176Y-105805250D01*
X149561645Y-105847632D01*
X149565515Y-105854334D01*
X149565518Y-105854338D01*
X149645661Y-105934481D01*
X149645665Y-105934484D01*
X149645667Y-105934486D01*
X149704701Y-105968569D01*
X149743833Y-105991162D01*
X149743836Y-105991163D01*
X149810838Y-106009116D01*
X149853324Y-106020500D01*
X149853325Y-106020500D01*
X149966675Y-106020500D01*
X149966676Y-106020500D01*
X150076167Y-105991162D01*
X150174333Y-105934486D01*
X150254486Y-105854333D01*
X150311162Y-105756167D01*
X150340500Y-105646676D01*
X150340500Y-105533325D01*
X150479500Y-105533325D01*
X150479500Y-105646674D01*
X150479501Y-105646682D01*
X150508836Y-105756163D01*
X150508837Y-105756166D01*
X150537176Y-105805250D01*
X150561645Y-105847632D01*
X150565515Y-105854334D01*
X150565518Y-105854338D01*
X150645661Y-105934481D01*
X150645665Y-105934484D01*
X150645667Y-105934486D01*
X150704701Y-105968569D01*
X150743833Y-105991162D01*
X150743836Y-105991163D01*
X150810838Y-106009116D01*
X150853324Y-106020500D01*
X150853325Y-106020500D01*
X150966675Y-106020500D01*
X150966676Y-106020500D01*
X151076167Y-105991162D01*
X151174333Y-105934486D01*
X151254486Y-105854333D01*
X151311162Y-105756167D01*
X151340500Y-105646676D01*
X151340500Y-105533325D01*
X151479500Y-105533325D01*
X151479500Y-105646674D01*
X151479501Y-105646682D01*
X151508836Y-105756163D01*
X151508837Y-105756166D01*
X151537176Y-105805250D01*
X151561645Y-105847632D01*
X151565515Y-105854334D01*
X151565518Y-105854338D01*
X151645661Y-105934481D01*
X151645665Y-105934484D01*
X151645667Y-105934486D01*
X151704701Y-105968569D01*
X151743833Y-105991162D01*
X151743836Y-105991163D01*
X151810838Y-106009116D01*
X151853324Y-106020500D01*
X151853325Y-106020500D01*
X151966675Y-106020500D01*
X151966676Y-106020500D01*
X151995040Y-106012900D01*
X166086000Y-106012900D01*
X166086000Y-106113099D01*
X166111930Y-106209864D01*
X166111931Y-106209867D01*
X166162024Y-106296632D01*
X166232868Y-106367476D01*
X166319633Y-106417569D01*
X166364978Y-106429719D01*
X166416400Y-106443499D01*
X166416406Y-106443500D01*
X166516594Y-106443500D01*
X166516599Y-106443499D01*
X166545348Y-106435795D01*
X166613367Y-106417569D01*
X166700132Y-106367476D01*
X166770976Y-106296632D01*
X166821069Y-106209867D01*
X166847000Y-106113094D01*
X166847000Y-106012906D01*
X166846999Y-106012900D01*
X166825796Y-105933772D01*
X166822283Y-105920664D01*
X167694500Y-105920664D01*
X167694500Y-106079335D01*
X167725454Y-106234954D01*
X167786174Y-106381544D01*
X167786175Y-106381546D01*
X167786176Y-106381547D01*
X167810245Y-106417569D01*
X167845535Y-106470385D01*
X167874328Y-106513476D01*
X167986524Y-106625672D01*
X168118453Y-106713824D01*
X168265044Y-106774545D01*
X168420665Y-106805500D01*
X168579335Y-106805500D01*
X168734956Y-106774545D01*
X168881547Y-106713824D01*
X169013476Y-106625672D01*
X169125672Y-106513476D01*
X169213824Y-106381547D01*
X169274545Y-106234956D01*
X169305500Y-106079335D01*
X169305500Y-105920665D01*
X169305500Y-105920664D01*
X169694500Y-105920664D01*
X169694500Y-106079335D01*
X169725454Y-106234954D01*
X169786174Y-106381544D01*
X169786175Y-106381546D01*
X169786176Y-106381547D01*
X169810245Y-106417569D01*
X169845535Y-106470385D01*
X169874328Y-106513476D01*
X169986524Y-106625672D01*
X170118453Y-106713824D01*
X170265044Y-106774545D01*
X170420665Y-106805500D01*
X170579335Y-106805500D01*
X170734956Y-106774545D01*
X170881547Y-106713824D01*
X171013476Y-106625672D01*
X171125672Y-106513476D01*
X171213824Y-106381547D01*
X171274545Y-106234956D01*
X171305500Y-106079335D01*
X171305500Y-105920665D01*
X171274545Y-105765044D01*
X171213824Y-105618453D01*
X171125672Y-105486524D01*
X171013476Y-105374328D01*
X170881547Y-105286176D01*
X170881546Y-105286175D01*
X170881544Y-105286174D01*
X170734954Y-105225454D01*
X170579335Y-105194500D01*
X170420665Y-105194500D01*
X170265045Y-105225454D01*
X170118455Y-105286174D01*
X170118451Y-105286177D01*
X169986524Y-105374327D01*
X169874327Y-105486524D01*
X169786177Y-105618451D01*
X169786174Y-105618455D01*
X169725454Y-105765045D01*
X169694500Y-105920664D01*
X169305500Y-105920664D01*
X169274545Y-105765044D01*
X169213824Y-105618453D01*
X169125672Y-105486524D01*
X169013476Y-105374328D01*
X168881547Y-105286176D01*
X168881546Y-105286175D01*
X168881544Y-105286174D01*
X168734954Y-105225454D01*
X168579335Y-105194500D01*
X168420665Y-105194500D01*
X168265045Y-105225454D01*
X168118455Y-105286174D01*
X168118451Y-105286177D01*
X167986524Y-105374327D01*
X167874327Y-105486524D01*
X167786177Y-105618451D01*
X167786174Y-105618455D01*
X167725454Y-105765045D01*
X167694500Y-105920664D01*
X166822283Y-105920664D01*
X166821697Y-105918476D01*
X166821069Y-105916133D01*
X166770976Y-105829368D01*
X166700132Y-105758524D01*
X166613367Y-105708431D01*
X166613364Y-105708430D01*
X166516599Y-105682500D01*
X166516594Y-105682500D01*
X166416406Y-105682500D01*
X166416400Y-105682500D01*
X166319635Y-105708430D01*
X166319633Y-105708431D01*
X166232867Y-105758524D01*
X166162024Y-105829367D01*
X166111931Y-105916133D01*
X166111930Y-105916135D01*
X166086000Y-106012900D01*
X151995040Y-106012900D01*
X152076167Y-105991162D01*
X152174333Y-105934486D01*
X152254486Y-105854333D01*
X152311162Y-105756167D01*
X152340500Y-105646676D01*
X152340500Y-105533324D01*
X152311162Y-105423833D01*
X152254486Y-105325667D01*
X152254484Y-105325665D01*
X152254483Y-105325663D01*
X152218720Y-105289900D01*
X153771300Y-105289900D01*
X153771300Y-105390099D01*
X153792405Y-105468858D01*
X153797231Y-105486867D01*
X153847324Y-105573632D01*
X153918168Y-105644476D01*
X154004933Y-105694569D01*
X154050278Y-105706719D01*
X154101700Y-105720499D01*
X154101706Y-105720500D01*
X154201894Y-105720500D01*
X154201899Y-105720499D01*
X154230648Y-105712795D01*
X154298667Y-105694569D01*
X154385432Y-105644476D01*
X154456276Y-105573632D01*
X154461895Y-105563900D01*
X164275800Y-105563900D01*
X164275800Y-105664099D01*
X164301103Y-105758524D01*
X164301731Y-105760867D01*
X164351824Y-105847632D01*
X164422668Y-105918476D01*
X164509433Y-105968569D01*
X164554778Y-105980719D01*
X164606200Y-105994499D01*
X164606206Y-105994500D01*
X164706394Y-105994500D01*
X164706399Y-105994499D01*
X164735148Y-105986795D01*
X164803167Y-105968569D01*
X164889932Y-105918476D01*
X164960776Y-105847632D01*
X165010869Y-105760867D01*
X165036800Y-105664094D01*
X165036800Y-105563906D01*
X165031851Y-105545437D01*
X165038093Y-105498012D01*
X165076042Y-105468890D01*
X165108401Y-105468890D01*
X165114406Y-105470500D01*
X165214594Y-105470500D01*
X165214599Y-105470499D01*
X165243348Y-105462795D01*
X165311367Y-105444569D01*
X165398132Y-105394476D01*
X165468976Y-105323632D01*
X165519069Y-105236867D01*
X165545000Y-105140094D01*
X165545000Y-105039906D01*
X165544999Y-105039900D01*
X165529475Y-104981968D01*
X165519069Y-104943133D01*
X165468976Y-104856368D01*
X165398132Y-104785524D01*
X165311367Y-104735431D01*
X165311364Y-104735430D01*
X165214599Y-104709500D01*
X165214594Y-104709500D01*
X165114406Y-104709500D01*
X165114400Y-104709500D01*
X165017635Y-104735430D01*
X165017633Y-104735431D01*
X164930867Y-104785524D01*
X164860024Y-104856367D01*
X164809931Y-104943133D01*
X164809930Y-104943135D01*
X164784000Y-105039900D01*
X164784000Y-105140099D01*
X164788948Y-105158562D01*
X164782705Y-105205988D01*
X164744755Y-105235109D01*
X164712401Y-105235109D01*
X164706399Y-105233500D01*
X164706394Y-105233500D01*
X164606206Y-105233500D01*
X164606200Y-105233500D01*
X164509435Y-105259430D01*
X164509433Y-105259431D01*
X164422667Y-105309524D01*
X164351824Y-105380367D01*
X164301731Y-105467133D01*
X164301730Y-105467135D01*
X164275800Y-105563900D01*
X154461895Y-105563900D01*
X154506369Y-105486867D01*
X154532300Y-105390094D01*
X154532300Y-105289906D01*
X154532299Y-105289900D01*
X154515030Y-105225455D01*
X154506369Y-105193133D01*
X154456276Y-105106368D01*
X154385432Y-105035524D01*
X154298667Y-104985431D01*
X154298664Y-104985430D01*
X154201899Y-104959500D01*
X154201894Y-104959500D01*
X154101706Y-104959500D01*
X154101700Y-104959500D01*
X154004935Y-104985430D01*
X154004933Y-104985431D01*
X153918167Y-105035524D01*
X153847324Y-105106367D01*
X153797231Y-105193133D01*
X153797230Y-105193135D01*
X153771300Y-105289900D01*
X152218720Y-105289900D01*
X152174338Y-105245518D01*
X152174334Y-105245515D01*
X152174333Y-105245514D01*
X152083610Y-105193135D01*
X152076166Y-105188837D01*
X152076163Y-105188836D01*
X151966682Y-105159501D01*
X151966677Y-105159500D01*
X151966676Y-105159500D01*
X151853324Y-105159500D01*
X151853323Y-105159500D01*
X151853317Y-105159501D01*
X151743836Y-105188836D01*
X151743833Y-105188837D01*
X151645665Y-105245515D01*
X151645661Y-105245518D01*
X151565518Y-105325661D01*
X151565515Y-105325665D01*
X151508837Y-105423833D01*
X151508836Y-105423836D01*
X151479501Y-105533317D01*
X151479500Y-105533325D01*
X151340500Y-105533325D01*
X151340500Y-105533324D01*
X151311162Y-105423833D01*
X151254486Y-105325667D01*
X151254482Y-105325663D01*
X151254481Y-105325661D01*
X151174338Y-105245518D01*
X151174334Y-105245515D01*
X151174333Y-105245514D01*
X151083610Y-105193135D01*
X151076166Y-105188837D01*
X151076163Y-105188836D01*
X150966682Y-105159501D01*
X150966677Y-105159500D01*
X150966676Y-105159500D01*
X150853324Y-105159500D01*
X150853323Y-105159500D01*
X150853317Y-105159501D01*
X150743836Y-105188836D01*
X150743833Y-105188837D01*
X150645665Y-105245515D01*
X150645661Y-105245518D01*
X150565518Y-105325661D01*
X150565515Y-105325665D01*
X150508837Y-105423833D01*
X150508836Y-105423836D01*
X150479501Y-105533317D01*
X150479500Y-105533325D01*
X150340500Y-105533325D01*
X150340500Y-105533324D01*
X150311162Y-105423833D01*
X150254486Y-105325667D01*
X150254482Y-105325663D01*
X150254481Y-105325661D01*
X150174338Y-105245518D01*
X150174334Y-105245515D01*
X150174333Y-105245514D01*
X150083610Y-105193135D01*
X150076166Y-105188837D01*
X150076163Y-105188836D01*
X149966682Y-105159501D01*
X149966677Y-105159500D01*
X149966676Y-105159500D01*
X149853324Y-105159500D01*
X149853323Y-105159500D01*
X149853317Y-105159501D01*
X149743836Y-105188836D01*
X149743833Y-105188837D01*
X149645665Y-105245515D01*
X149645661Y-105245518D01*
X149565518Y-105325661D01*
X149565515Y-105325665D01*
X149508837Y-105423833D01*
X149508836Y-105423836D01*
X149479501Y-105533317D01*
X149479500Y-105533325D01*
X149340500Y-105533325D01*
X149340500Y-105533324D01*
X149311162Y-105423833D01*
X149254486Y-105325667D01*
X149254482Y-105325663D01*
X149254481Y-105325661D01*
X149174338Y-105245518D01*
X149174334Y-105245515D01*
X149174333Y-105245514D01*
X149083610Y-105193135D01*
X149076166Y-105188837D01*
X149076163Y-105188836D01*
X148966682Y-105159501D01*
X148966677Y-105159500D01*
X148966676Y-105159500D01*
X148853324Y-105159500D01*
X148853323Y-105159500D01*
X148853317Y-105159501D01*
X148743836Y-105188836D01*
X148743833Y-105188837D01*
X148645665Y-105245515D01*
X148645661Y-105245518D01*
X148565518Y-105325661D01*
X148565515Y-105325665D01*
X148508837Y-105423833D01*
X148508836Y-105423836D01*
X148479501Y-105533317D01*
X148479500Y-105533325D01*
X148340500Y-105533325D01*
X148340500Y-105533324D01*
X148311162Y-105423833D01*
X148254486Y-105325667D01*
X148254482Y-105325663D01*
X148254481Y-105325661D01*
X148174338Y-105245518D01*
X148174334Y-105245515D01*
X148174333Y-105245514D01*
X148083610Y-105193135D01*
X148076166Y-105188837D01*
X148076163Y-105188836D01*
X147966682Y-105159501D01*
X147966677Y-105159500D01*
X147966676Y-105159500D01*
X147853324Y-105159500D01*
X147853323Y-105159500D01*
X147853317Y-105159501D01*
X147743836Y-105188836D01*
X147743833Y-105188837D01*
X147645665Y-105245515D01*
X147645661Y-105245518D01*
X147565518Y-105325661D01*
X147565515Y-105325665D01*
X147508837Y-105423833D01*
X147508836Y-105423836D01*
X147479501Y-105533317D01*
X147479500Y-105533325D01*
X147340500Y-105533325D01*
X147340500Y-105533324D01*
X147311162Y-105423833D01*
X147254486Y-105325667D01*
X147254482Y-105325663D01*
X147254481Y-105325661D01*
X147174338Y-105245518D01*
X147174334Y-105245515D01*
X147174333Y-105245514D01*
X147083610Y-105193135D01*
X147076166Y-105188837D01*
X147076163Y-105188836D01*
X146966682Y-105159501D01*
X146966677Y-105159500D01*
X146966676Y-105159500D01*
X146853324Y-105159500D01*
X146853323Y-105159500D01*
X146853317Y-105159501D01*
X146743836Y-105188836D01*
X146743833Y-105188837D01*
X146645665Y-105245515D01*
X146645661Y-105245518D01*
X146565518Y-105325661D01*
X146565515Y-105325665D01*
X146508837Y-105423833D01*
X146508836Y-105423836D01*
X146479501Y-105533317D01*
X146479500Y-105533325D01*
X146340500Y-105533325D01*
X146340500Y-105533324D01*
X146311162Y-105423833D01*
X146254486Y-105325667D01*
X146254482Y-105325663D01*
X146254481Y-105325661D01*
X146174338Y-105245518D01*
X146174334Y-105245515D01*
X146174333Y-105245514D01*
X146083610Y-105193135D01*
X146076166Y-105188837D01*
X146076163Y-105188836D01*
X145966682Y-105159501D01*
X145966677Y-105159500D01*
X145966676Y-105159500D01*
X145853324Y-105159500D01*
X145853323Y-105159500D01*
X145853317Y-105159501D01*
X145743836Y-105188836D01*
X145743833Y-105188837D01*
X145645665Y-105245515D01*
X145645661Y-105245518D01*
X145565518Y-105325661D01*
X145565515Y-105325665D01*
X145508837Y-105423833D01*
X145508836Y-105423836D01*
X145479501Y-105533317D01*
X145479500Y-105533325D01*
X145340500Y-105533325D01*
X145340500Y-105533324D01*
X145311162Y-105423833D01*
X145254486Y-105325667D01*
X145254482Y-105325663D01*
X145254481Y-105325661D01*
X145174338Y-105245518D01*
X145174334Y-105245515D01*
X145174333Y-105245514D01*
X145083610Y-105193135D01*
X145076166Y-105188837D01*
X145076163Y-105188836D01*
X144966682Y-105159501D01*
X144966677Y-105159500D01*
X144966676Y-105159500D01*
X144853324Y-105159500D01*
X144853323Y-105159500D01*
X144853317Y-105159501D01*
X144743836Y-105188836D01*
X144743833Y-105188837D01*
X144645665Y-105245515D01*
X144645661Y-105245518D01*
X144565518Y-105325661D01*
X144565515Y-105325665D01*
X144508837Y-105423833D01*
X144508836Y-105423836D01*
X144479501Y-105533317D01*
X144479500Y-105533325D01*
X129156943Y-105533325D01*
X129125672Y-105486524D01*
X129013476Y-105374328D01*
X128881547Y-105286176D01*
X128881546Y-105286175D01*
X128881544Y-105286174D01*
X128734954Y-105225454D01*
X128579335Y-105194500D01*
X128420665Y-105194500D01*
X128265045Y-105225454D01*
X128118455Y-105286174D01*
X128118451Y-105286177D01*
X127986524Y-105374327D01*
X127874327Y-105486524D01*
X127786177Y-105618451D01*
X127786174Y-105618455D01*
X127725454Y-105765045D01*
X127694500Y-105920664D01*
X127305500Y-105920664D01*
X127274545Y-105765044D01*
X127213824Y-105618453D01*
X127125672Y-105486524D01*
X127013476Y-105374328D01*
X126881547Y-105286176D01*
X126881546Y-105286175D01*
X126881544Y-105286174D01*
X126734954Y-105225454D01*
X126579335Y-105194500D01*
X126420665Y-105194500D01*
X126265045Y-105225454D01*
X126118455Y-105286174D01*
X126118451Y-105286177D01*
X125986524Y-105374327D01*
X125874327Y-105486524D01*
X125786177Y-105618451D01*
X125786174Y-105618455D01*
X125725454Y-105765045D01*
X125694500Y-105920664D01*
X123300500Y-105920664D01*
X123300500Y-105039900D01*
X142429500Y-105039900D01*
X142429500Y-105140099D01*
X142452373Y-105225455D01*
X142455431Y-105236867D01*
X142505524Y-105323632D01*
X142576368Y-105394476D01*
X142663133Y-105444569D01*
X142708478Y-105456719D01*
X142759900Y-105470499D01*
X142759906Y-105470500D01*
X142860094Y-105470500D01*
X142860099Y-105470499D01*
X142866224Y-105468858D01*
X142904068Y-105458716D01*
X142956867Y-105444569D01*
X143043632Y-105394476D01*
X143114476Y-105323632D01*
X143164569Y-105236867D01*
X143190500Y-105140094D01*
X143190500Y-105039906D01*
X143190499Y-105039900D01*
X143174975Y-104981968D01*
X143164569Y-104943133D01*
X143114476Y-104856368D01*
X143043632Y-104785524D01*
X142956867Y-104735431D01*
X142956864Y-104735430D01*
X142860099Y-104709500D01*
X142860094Y-104709500D01*
X142759906Y-104709500D01*
X142759900Y-104709500D01*
X142663135Y-104735430D01*
X142663133Y-104735431D01*
X142576367Y-104785524D01*
X142505524Y-104856367D01*
X142455431Y-104943133D01*
X142455430Y-104943135D01*
X142429500Y-105039900D01*
X123300500Y-105039900D01*
X123300500Y-103920664D01*
X125694500Y-103920664D01*
X125694500Y-104079335D01*
X125725454Y-104234954D01*
X125786174Y-104381544D01*
X125786175Y-104381546D01*
X125786176Y-104381547D01*
X125794341Y-104393767D01*
X125852317Y-104480535D01*
X125874328Y-104513476D01*
X125986524Y-104625672D01*
X126118453Y-104713824D01*
X126265044Y-104774545D01*
X126420665Y-104805500D01*
X126579335Y-104805500D01*
X126734956Y-104774545D01*
X126881547Y-104713824D01*
X127013476Y-104625672D01*
X127125672Y-104513476D01*
X127213824Y-104381547D01*
X127274545Y-104234956D01*
X127305500Y-104079335D01*
X127305500Y-103920665D01*
X127305500Y-103920664D01*
X127694500Y-103920664D01*
X127694500Y-104079335D01*
X127725454Y-104234954D01*
X127786174Y-104381544D01*
X127786175Y-104381546D01*
X127786176Y-104381547D01*
X127794341Y-104393767D01*
X127852317Y-104480535D01*
X127874328Y-104513476D01*
X127986524Y-104625672D01*
X128118453Y-104713824D01*
X128265044Y-104774545D01*
X128420665Y-104805500D01*
X128579335Y-104805500D01*
X128734956Y-104774545D01*
X128881547Y-104713824D01*
X129013476Y-104625672D01*
X129105823Y-104533325D01*
X145479500Y-104533325D01*
X145479500Y-104646674D01*
X145479501Y-104646682D01*
X145508836Y-104756163D01*
X145508837Y-104756166D01*
X145565515Y-104854334D01*
X145565518Y-104854338D01*
X145645661Y-104934481D01*
X145645665Y-104934484D01*
X145645667Y-104934486D01*
X145727910Y-104981969D01*
X145743833Y-104991162D01*
X145743836Y-104991163D01*
X145806296Y-105007899D01*
X145853324Y-105020500D01*
X145853325Y-105020500D01*
X145966675Y-105020500D01*
X145966676Y-105020500D01*
X146076167Y-104991162D01*
X146174333Y-104934486D01*
X146254486Y-104854333D01*
X146311162Y-104756167D01*
X146340500Y-104646676D01*
X146340500Y-104533325D01*
X146479500Y-104533325D01*
X146479500Y-104646674D01*
X146479501Y-104646682D01*
X146508836Y-104756163D01*
X146508837Y-104756166D01*
X146565515Y-104854334D01*
X146565518Y-104854338D01*
X146645661Y-104934481D01*
X146645665Y-104934484D01*
X146645667Y-104934486D01*
X146727910Y-104981969D01*
X146743833Y-104991162D01*
X146743836Y-104991163D01*
X146806296Y-105007899D01*
X146853324Y-105020500D01*
X146853325Y-105020500D01*
X146966675Y-105020500D01*
X146966676Y-105020500D01*
X147076167Y-104991162D01*
X147174333Y-104934486D01*
X147254486Y-104854333D01*
X147311162Y-104756167D01*
X147340500Y-104646676D01*
X147340500Y-104533325D01*
X147479500Y-104533325D01*
X147479500Y-104646674D01*
X147479501Y-104646682D01*
X147508836Y-104756163D01*
X147508837Y-104756166D01*
X147565515Y-104854334D01*
X147565518Y-104854338D01*
X147645661Y-104934481D01*
X147645665Y-104934484D01*
X147645667Y-104934486D01*
X147727910Y-104981969D01*
X147743833Y-104991162D01*
X147743836Y-104991163D01*
X147806296Y-105007899D01*
X147853324Y-105020500D01*
X147853325Y-105020500D01*
X147966675Y-105020500D01*
X147966676Y-105020500D01*
X148076167Y-104991162D01*
X148174333Y-104934486D01*
X148254486Y-104854333D01*
X148311162Y-104756167D01*
X148340500Y-104646676D01*
X148340500Y-104533325D01*
X148479500Y-104533325D01*
X148479500Y-104646674D01*
X148479501Y-104646682D01*
X148508836Y-104756163D01*
X148508837Y-104756166D01*
X148565515Y-104854334D01*
X148565518Y-104854338D01*
X148645661Y-104934481D01*
X148645665Y-104934484D01*
X148645667Y-104934486D01*
X148727910Y-104981969D01*
X148743833Y-104991162D01*
X148743836Y-104991163D01*
X148806296Y-105007899D01*
X148853324Y-105020500D01*
X148853325Y-105020500D01*
X148966675Y-105020500D01*
X148966676Y-105020500D01*
X149076167Y-104991162D01*
X149174333Y-104934486D01*
X149254486Y-104854333D01*
X149311162Y-104756167D01*
X149340500Y-104646676D01*
X149340500Y-104533325D01*
X149479500Y-104533325D01*
X149479500Y-104646674D01*
X149479501Y-104646682D01*
X149508836Y-104756163D01*
X149508837Y-104756166D01*
X149565515Y-104854334D01*
X149565518Y-104854338D01*
X149645661Y-104934481D01*
X149645665Y-104934484D01*
X149645667Y-104934486D01*
X149727910Y-104981969D01*
X149743833Y-104991162D01*
X149743836Y-104991163D01*
X149806296Y-105007899D01*
X149853324Y-105020500D01*
X149853325Y-105020500D01*
X149966675Y-105020500D01*
X149966676Y-105020500D01*
X150076167Y-104991162D01*
X150174333Y-104934486D01*
X150254486Y-104854333D01*
X150311162Y-104756167D01*
X150340500Y-104646676D01*
X150340500Y-104533325D01*
X150479500Y-104533325D01*
X150479500Y-104646674D01*
X150479501Y-104646682D01*
X150508836Y-104756163D01*
X150508837Y-104756166D01*
X150565515Y-104854334D01*
X150565518Y-104854338D01*
X150645661Y-104934481D01*
X150645665Y-104934484D01*
X150645667Y-104934486D01*
X150727910Y-104981969D01*
X150743833Y-104991162D01*
X150743836Y-104991163D01*
X150806296Y-105007899D01*
X150853324Y-105020500D01*
X150853325Y-105020500D01*
X150966675Y-105020500D01*
X150966676Y-105020500D01*
X151076167Y-104991162D01*
X151174333Y-104934486D01*
X151254486Y-104854333D01*
X151311162Y-104756167D01*
X151340500Y-104646676D01*
X151340500Y-104533325D01*
X151479500Y-104533325D01*
X151479500Y-104646674D01*
X151479501Y-104646682D01*
X151508836Y-104756163D01*
X151508837Y-104756166D01*
X151565515Y-104854334D01*
X151565518Y-104854338D01*
X151645661Y-104934481D01*
X151645665Y-104934484D01*
X151645667Y-104934486D01*
X151727910Y-104981969D01*
X151743833Y-104991162D01*
X151743836Y-104991163D01*
X151806296Y-105007899D01*
X151853324Y-105020500D01*
X151853325Y-105020500D01*
X151966675Y-105020500D01*
X151966676Y-105020500D01*
X152076167Y-104991162D01*
X152174333Y-104934486D01*
X152254486Y-104854333D01*
X152311162Y-104756167D01*
X152340500Y-104646676D01*
X152340500Y-104577300D01*
X156697900Y-104577300D01*
X156697900Y-104677499D01*
X156718981Y-104756167D01*
X156723831Y-104774267D01*
X156773924Y-104861032D01*
X156844768Y-104931876D01*
X156931533Y-104981969D01*
X156976878Y-104994119D01*
X157028300Y-105007899D01*
X157028306Y-105007900D01*
X157128494Y-105007900D01*
X157128499Y-105007899D01*
X157157248Y-105000195D01*
X157225267Y-104981969D01*
X157312032Y-104931876D01*
X157382876Y-104861032D01*
X157432969Y-104774267D01*
X157458900Y-104677494D01*
X157458900Y-104577306D01*
X157458899Y-104577300D01*
X157436713Y-104494505D01*
X157432969Y-104480533D01*
X157382876Y-104393768D01*
X157312032Y-104322924D01*
X157225267Y-104272831D01*
X157225264Y-104272830D01*
X157128499Y-104246900D01*
X157128494Y-104246900D01*
X157028306Y-104246900D01*
X157028300Y-104246900D01*
X156931535Y-104272830D01*
X156931533Y-104272831D01*
X156844767Y-104322924D01*
X156773924Y-104393767D01*
X156723831Y-104480533D01*
X156723830Y-104480535D01*
X156697900Y-104577300D01*
X152340500Y-104577300D01*
X152340500Y-104533324D01*
X152311162Y-104423833D01*
X152254486Y-104325667D01*
X152254484Y-104325665D01*
X152254481Y-104325661D01*
X152174338Y-104245518D01*
X152174334Y-104245515D01*
X152174333Y-104245514D01*
X152125250Y-104217176D01*
X152076166Y-104188837D01*
X152076163Y-104188836D01*
X151966682Y-104159501D01*
X151966677Y-104159500D01*
X151966676Y-104159500D01*
X151853324Y-104159500D01*
X151853323Y-104159500D01*
X151853317Y-104159501D01*
X151743836Y-104188836D01*
X151743833Y-104188837D01*
X151645665Y-104245515D01*
X151645661Y-104245518D01*
X151565518Y-104325661D01*
X151565515Y-104325665D01*
X151508837Y-104423833D01*
X151508836Y-104423836D01*
X151479501Y-104533317D01*
X151479500Y-104533325D01*
X151340500Y-104533325D01*
X151340500Y-104533324D01*
X151311162Y-104423833D01*
X151254486Y-104325667D01*
X151254484Y-104325665D01*
X151254481Y-104325661D01*
X151174338Y-104245518D01*
X151174334Y-104245515D01*
X151174333Y-104245514D01*
X151125250Y-104217176D01*
X151076166Y-104188837D01*
X151076163Y-104188836D01*
X150966682Y-104159501D01*
X150966677Y-104159500D01*
X150966676Y-104159500D01*
X150853324Y-104159500D01*
X150853323Y-104159500D01*
X150853317Y-104159501D01*
X150743836Y-104188836D01*
X150743833Y-104188837D01*
X150645665Y-104245515D01*
X150645661Y-104245518D01*
X150565518Y-104325661D01*
X150565515Y-104325665D01*
X150508837Y-104423833D01*
X150508836Y-104423836D01*
X150479501Y-104533317D01*
X150479500Y-104533325D01*
X150340500Y-104533325D01*
X150340500Y-104533324D01*
X150311162Y-104423833D01*
X150254486Y-104325667D01*
X150254484Y-104325665D01*
X150254481Y-104325661D01*
X150174338Y-104245518D01*
X150174334Y-104245515D01*
X150174333Y-104245514D01*
X150125250Y-104217176D01*
X150076166Y-104188837D01*
X150076163Y-104188836D01*
X149966682Y-104159501D01*
X149966677Y-104159500D01*
X149966676Y-104159500D01*
X149853324Y-104159500D01*
X149853323Y-104159500D01*
X149853317Y-104159501D01*
X149743836Y-104188836D01*
X149743833Y-104188837D01*
X149645665Y-104245515D01*
X149645661Y-104245518D01*
X149565518Y-104325661D01*
X149565515Y-104325665D01*
X149508837Y-104423833D01*
X149508836Y-104423836D01*
X149479501Y-104533317D01*
X149479500Y-104533325D01*
X149340500Y-104533325D01*
X149340500Y-104533324D01*
X149311162Y-104423833D01*
X149254486Y-104325667D01*
X149254484Y-104325665D01*
X149254481Y-104325661D01*
X149174338Y-104245518D01*
X149174334Y-104245515D01*
X149174333Y-104245514D01*
X149125250Y-104217176D01*
X149076166Y-104188837D01*
X149076163Y-104188836D01*
X148966682Y-104159501D01*
X148966677Y-104159500D01*
X148966676Y-104159500D01*
X148853324Y-104159500D01*
X148853323Y-104159500D01*
X148853317Y-104159501D01*
X148743836Y-104188836D01*
X148743833Y-104188837D01*
X148645665Y-104245515D01*
X148645661Y-104245518D01*
X148565518Y-104325661D01*
X148565515Y-104325665D01*
X148508837Y-104423833D01*
X148508836Y-104423836D01*
X148479501Y-104533317D01*
X148479500Y-104533325D01*
X148340500Y-104533325D01*
X148340500Y-104533324D01*
X148311162Y-104423833D01*
X148254486Y-104325667D01*
X148254484Y-104325665D01*
X148254481Y-104325661D01*
X148174338Y-104245518D01*
X148174334Y-104245515D01*
X148174333Y-104245514D01*
X148125250Y-104217176D01*
X148076166Y-104188837D01*
X148076163Y-104188836D01*
X147966682Y-104159501D01*
X147966677Y-104159500D01*
X147966676Y-104159500D01*
X147853324Y-104159500D01*
X147853323Y-104159500D01*
X147853317Y-104159501D01*
X147743836Y-104188836D01*
X147743833Y-104188837D01*
X147645665Y-104245515D01*
X147645661Y-104245518D01*
X147565518Y-104325661D01*
X147565515Y-104325665D01*
X147508837Y-104423833D01*
X147508836Y-104423836D01*
X147479501Y-104533317D01*
X147479500Y-104533325D01*
X147340500Y-104533325D01*
X147340500Y-104533324D01*
X147311162Y-104423833D01*
X147254486Y-104325667D01*
X147254484Y-104325665D01*
X147254481Y-104325661D01*
X147174338Y-104245518D01*
X147174334Y-104245515D01*
X147174333Y-104245514D01*
X147125250Y-104217176D01*
X147076166Y-104188837D01*
X147076163Y-104188836D01*
X146966682Y-104159501D01*
X146966677Y-104159500D01*
X146966676Y-104159500D01*
X146853324Y-104159500D01*
X146853323Y-104159500D01*
X146853317Y-104159501D01*
X146743836Y-104188836D01*
X146743833Y-104188837D01*
X146645665Y-104245515D01*
X146645661Y-104245518D01*
X146565518Y-104325661D01*
X146565515Y-104325665D01*
X146508837Y-104423833D01*
X146508836Y-104423836D01*
X146479501Y-104533317D01*
X146479500Y-104533325D01*
X146340500Y-104533325D01*
X146340500Y-104533324D01*
X146311162Y-104423833D01*
X146254486Y-104325667D01*
X146254484Y-104325665D01*
X146254481Y-104325661D01*
X146174338Y-104245518D01*
X146174334Y-104245515D01*
X146174333Y-104245514D01*
X146125250Y-104217176D01*
X146076166Y-104188837D01*
X146076163Y-104188836D01*
X145966682Y-104159501D01*
X145966677Y-104159500D01*
X145966676Y-104159500D01*
X145853324Y-104159500D01*
X145853323Y-104159500D01*
X145853317Y-104159501D01*
X145743836Y-104188836D01*
X145743833Y-104188837D01*
X145645665Y-104245515D01*
X145645661Y-104245518D01*
X145565518Y-104325661D01*
X145565515Y-104325665D01*
X145508837Y-104423833D01*
X145508836Y-104423836D01*
X145479501Y-104533317D01*
X145479500Y-104533325D01*
X129105823Y-104533325D01*
X129125672Y-104513476D01*
X129213824Y-104381547D01*
X129274545Y-104234956D01*
X129305500Y-104079335D01*
X129305500Y-103920665D01*
X129274545Y-103765044D01*
X129213824Y-103618453D01*
X129156943Y-103533325D01*
X144479500Y-103533325D01*
X144479500Y-103646674D01*
X144479501Y-103646682D01*
X144508836Y-103756163D01*
X144508837Y-103756166D01*
X144537176Y-103805250D01*
X144556474Y-103838676D01*
X144565515Y-103854334D01*
X144565518Y-103854338D01*
X144645661Y-103934481D01*
X144645665Y-103934484D01*
X144645667Y-103934486D01*
X144743833Y-103991162D01*
X144743836Y-103991163D01*
X144810838Y-104009116D01*
X144853324Y-104020500D01*
X144853325Y-104020500D01*
X144966675Y-104020500D01*
X144966676Y-104020500D01*
X145076167Y-103991162D01*
X145174333Y-103934486D01*
X145254486Y-103854333D01*
X145311162Y-103756167D01*
X145340500Y-103646676D01*
X145340500Y-103533325D01*
X145479500Y-103533325D01*
X145479500Y-103646674D01*
X145479501Y-103646682D01*
X145508836Y-103756163D01*
X145508837Y-103756166D01*
X145537176Y-103805250D01*
X145556474Y-103838676D01*
X145565515Y-103854334D01*
X145565518Y-103854338D01*
X145645661Y-103934481D01*
X145645665Y-103934484D01*
X145645667Y-103934486D01*
X145743833Y-103991162D01*
X145743836Y-103991163D01*
X145810838Y-104009116D01*
X145853324Y-104020500D01*
X145853325Y-104020500D01*
X145966675Y-104020500D01*
X145966676Y-104020500D01*
X146076167Y-103991162D01*
X146174333Y-103934486D01*
X146254486Y-103854333D01*
X146311162Y-103756167D01*
X146340500Y-103646676D01*
X146340500Y-103533325D01*
X146479500Y-103533325D01*
X146479500Y-103646674D01*
X146479501Y-103646682D01*
X146508836Y-103756163D01*
X146508837Y-103756166D01*
X146537176Y-103805250D01*
X146556474Y-103838676D01*
X146565515Y-103854334D01*
X146565518Y-103854338D01*
X146645661Y-103934481D01*
X146645665Y-103934484D01*
X146645667Y-103934486D01*
X146743833Y-103991162D01*
X146743836Y-103991163D01*
X146810838Y-104009116D01*
X146853324Y-104020500D01*
X146853325Y-104020500D01*
X146966675Y-104020500D01*
X146966676Y-104020500D01*
X147076167Y-103991162D01*
X147174333Y-103934486D01*
X147254486Y-103854333D01*
X147311162Y-103756167D01*
X147340500Y-103646676D01*
X147340500Y-103533325D01*
X147479500Y-103533325D01*
X147479500Y-103646674D01*
X147479501Y-103646682D01*
X147508836Y-103756163D01*
X147508837Y-103756166D01*
X147537176Y-103805250D01*
X147556474Y-103838676D01*
X147565515Y-103854334D01*
X147565518Y-103854338D01*
X147645661Y-103934481D01*
X147645665Y-103934484D01*
X147645667Y-103934486D01*
X147743833Y-103991162D01*
X147743836Y-103991163D01*
X147810838Y-104009116D01*
X147853324Y-104020500D01*
X147853325Y-104020500D01*
X147966675Y-104020500D01*
X147966676Y-104020500D01*
X148076167Y-103991162D01*
X148174333Y-103934486D01*
X148254486Y-103854333D01*
X148311162Y-103756167D01*
X148340500Y-103646676D01*
X148340500Y-103533325D01*
X148479500Y-103533325D01*
X148479500Y-103646674D01*
X148479501Y-103646682D01*
X148508836Y-103756163D01*
X148508837Y-103756166D01*
X148537176Y-103805250D01*
X148556474Y-103838676D01*
X148565515Y-103854334D01*
X148565518Y-103854338D01*
X148645661Y-103934481D01*
X148645665Y-103934484D01*
X148645667Y-103934486D01*
X148743833Y-103991162D01*
X148743836Y-103991163D01*
X148810838Y-104009116D01*
X148853324Y-104020500D01*
X148853325Y-104020500D01*
X148966675Y-104020500D01*
X148966676Y-104020500D01*
X149076167Y-103991162D01*
X149174333Y-103934486D01*
X149254486Y-103854333D01*
X149311162Y-103756167D01*
X149340500Y-103646676D01*
X149340500Y-103533325D01*
X149479500Y-103533325D01*
X149479500Y-103646674D01*
X149479501Y-103646682D01*
X149508836Y-103756163D01*
X149508837Y-103756166D01*
X149537176Y-103805250D01*
X149556474Y-103838676D01*
X149565515Y-103854334D01*
X149565518Y-103854338D01*
X149645661Y-103934481D01*
X149645665Y-103934484D01*
X149645667Y-103934486D01*
X149743833Y-103991162D01*
X149743836Y-103991163D01*
X149810838Y-104009116D01*
X149853324Y-104020500D01*
X149853325Y-104020500D01*
X149966675Y-104020500D01*
X149966676Y-104020500D01*
X150076167Y-103991162D01*
X150174333Y-103934486D01*
X150254486Y-103854333D01*
X150311162Y-103756167D01*
X150340500Y-103646676D01*
X150340500Y-103533325D01*
X150479500Y-103533325D01*
X150479500Y-103646674D01*
X150479501Y-103646682D01*
X150508836Y-103756163D01*
X150508837Y-103756166D01*
X150537176Y-103805250D01*
X150556474Y-103838676D01*
X150565515Y-103854334D01*
X150565518Y-103854338D01*
X150645661Y-103934481D01*
X150645665Y-103934484D01*
X150645667Y-103934486D01*
X150743833Y-103991162D01*
X150743836Y-103991163D01*
X150810838Y-104009116D01*
X150853324Y-104020500D01*
X150853325Y-104020500D01*
X150966675Y-104020500D01*
X150966676Y-104020500D01*
X151076167Y-103991162D01*
X151174333Y-103934486D01*
X151254486Y-103854333D01*
X151311162Y-103756167D01*
X151340500Y-103646676D01*
X151340500Y-103533325D01*
X151479500Y-103533325D01*
X151479500Y-103646674D01*
X151479501Y-103646682D01*
X151508836Y-103756163D01*
X151508837Y-103756166D01*
X151537176Y-103805250D01*
X151556474Y-103838676D01*
X151565515Y-103854334D01*
X151565518Y-103854338D01*
X151645661Y-103934481D01*
X151645665Y-103934484D01*
X151645667Y-103934486D01*
X151743833Y-103991162D01*
X151743836Y-103991163D01*
X151810838Y-104009116D01*
X151853324Y-104020500D01*
X151853325Y-104020500D01*
X151966675Y-104020500D01*
X151966676Y-104020500D01*
X152076167Y-103991162D01*
X152174333Y-103934486D01*
X152188155Y-103920664D01*
X167694500Y-103920664D01*
X167694500Y-104079335D01*
X167725454Y-104234954D01*
X167786174Y-104381544D01*
X167786175Y-104381546D01*
X167786176Y-104381547D01*
X167794341Y-104393767D01*
X167852317Y-104480535D01*
X167874328Y-104513476D01*
X167986524Y-104625672D01*
X168118453Y-104713824D01*
X168265044Y-104774545D01*
X168420665Y-104805500D01*
X168579335Y-104805500D01*
X168734956Y-104774545D01*
X168881547Y-104713824D01*
X169013476Y-104625672D01*
X169125672Y-104513476D01*
X169213824Y-104381547D01*
X169274545Y-104234956D01*
X169305500Y-104079335D01*
X169305500Y-103920665D01*
X169305500Y-103920664D01*
X169694500Y-103920664D01*
X169694500Y-104079335D01*
X169725454Y-104234954D01*
X169786174Y-104381544D01*
X169786175Y-104381546D01*
X169786176Y-104381547D01*
X169794341Y-104393767D01*
X169852317Y-104480535D01*
X169874328Y-104513476D01*
X169986524Y-104625672D01*
X170118453Y-104713824D01*
X170265044Y-104774545D01*
X170420665Y-104805500D01*
X170579335Y-104805500D01*
X170734956Y-104774545D01*
X170881547Y-104713824D01*
X171013476Y-104625672D01*
X171125672Y-104513476D01*
X171213824Y-104381547D01*
X171274545Y-104234956D01*
X171305500Y-104079335D01*
X171305500Y-103920665D01*
X171274545Y-103765044D01*
X171213824Y-103618453D01*
X171125672Y-103486524D01*
X171013476Y-103374328D01*
X170881547Y-103286176D01*
X170881546Y-103286175D01*
X170881544Y-103286174D01*
X170734954Y-103225454D01*
X170579335Y-103194500D01*
X170420665Y-103194500D01*
X170265045Y-103225454D01*
X170118455Y-103286174D01*
X170118451Y-103286177D01*
X169986524Y-103374327D01*
X169874327Y-103486524D01*
X169786177Y-103618451D01*
X169786174Y-103618455D01*
X169725454Y-103765045D01*
X169694500Y-103920664D01*
X169305500Y-103920664D01*
X169274545Y-103765044D01*
X169213824Y-103618453D01*
X169125672Y-103486524D01*
X169013476Y-103374328D01*
X168881547Y-103286176D01*
X168881546Y-103286175D01*
X168881544Y-103286174D01*
X168734954Y-103225454D01*
X168579335Y-103194500D01*
X168420665Y-103194500D01*
X168265045Y-103225454D01*
X168118455Y-103286174D01*
X168118451Y-103286177D01*
X167986524Y-103374327D01*
X167874327Y-103486524D01*
X167786177Y-103618451D01*
X167786174Y-103618455D01*
X167725454Y-103765045D01*
X167694500Y-103920664D01*
X152188155Y-103920664D01*
X152254486Y-103854333D01*
X152311162Y-103756167D01*
X152340500Y-103646676D01*
X152340500Y-103533324D01*
X152327310Y-103484100D01*
X164884600Y-103484100D01*
X164884600Y-103584299D01*
X164901317Y-103646682D01*
X164910531Y-103681067D01*
X164960624Y-103767832D01*
X165031468Y-103838676D01*
X165118233Y-103888769D01*
X165163578Y-103900919D01*
X165215000Y-103914699D01*
X165215006Y-103914700D01*
X165315194Y-103914700D01*
X165315199Y-103914699D01*
X165343948Y-103906995D01*
X165411967Y-103888769D01*
X165498732Y-103838676D01*
X165569576Y-103767832D01*
X165619669Y-103681067D01*
X165645600Y-103584294D01*
X165645600Y-103484106D01*
X165645599Y-103484100D01*
X165629449Y-103423833D01*
X165619669Y-103387333D01*
X165569576Y-103300568D01*
X165498732Y-103229724D01*
X165411967Y-103179631D01*
X165411964Y-103179630D01*
X165315199Y-103153700D01*
X165315194Y-103153700D01*
X165215006Y-103153700D01*
X165215000Y-103153700D01*
X165118235Y-103179630D01*
X165118233Y-103179631D01*
X165031467Y-103229724D01*
X164960624Y-103300567D01*
X164910531Y-103387333D01*
X164910530Y-103387335D01*
X164884600Y-103484100D01*
X152327310Y-103484100D01*
X152311163Y-103423836D01*
X152311162Y-103423833D01*
X152290090Y-103387335D01*
X152254486Y-103325667D01*
X152254484Y-103325665D01*
X152254481Y-103325661D01*
X152174338Y-103245518D01*
X152174334Y-103245515D01*
X152174333Y-103245514D01*
X152085974Y-103194500D01*
X152076166Y-103188837D01*
X152076163Y-103188836D01*
X151966682Y-103159501D01*
X151966677Y-103159500D01*
X151966676Y-103159500D01*
X151853324Y-103159500D01*
X151853323Y-103159500D01*
X151853317Y-103159501D01*
X151743836Y-103188836D01*
X151743833Y-103188837D01*
X151645665Y-103245515D01*
X151645661Y-103245518D01*
X151565518Y-103325661D01*
X151565515Y-103325665D01*
X151508837Y-103423833D01*
X151508836Y-103423836D01*
X151479501Y-103533317D01*
X151479500Y-103533325D01*
X151340500Y-103533325D01*
X151340500Y-103533324D01*
X151311162Y-103423833D01*
X151254486Y-103325667D01*
X151254484Y-103325665D01*
X151254481Y-103325661D01*
X151174338Y-103245518D01*
X151174334Y-103245515D01*
X151174333Y-103245514D01*
X151085974Y-103194500D01*
X151076166Y-103188837D01*
X151076163Y-103188836D01*
X150966682Y-103159501D01*
X150966677Y-103159500D01*
X150966676Y-103159500D01*
X150853324Y-103159500D01*
X150853323Y-103159500D01*
X150853317Y-103159501D01*
X150743836Y-103188836D01*
X150743833Y-103188837D01*
X150645665Y-103245515D01*
X150645661Y-103245518D01*
X150565518Y-103325661D01*
X150565515Y-103325665D01*
X150508837Y-103423833D01*
X150508836Y-103423836D01*
X150479501Y-103533317D01*
X150479500Y-103533325D01*
X150340500Y-103533325D01*
X150340500Y-103533324D01*
X150311162Y-103423833D01*
X150254486Y-103325667D01*
X150254484Y-103325665D01*
X150254481Y-103325661D01*
X150174338Y-103245518D01*
X150174334Y-103245515D01*
X150174333Y-103245514D01*
X150085974Y-103194500D01*
X150076166Y-103188837D01*
X150076163Y-103188836D01*
X149966682Y-103159501D01*
X149966677Y-103159500D01*
X149966676Y-103159500D01*
X149853324Y-103159500D01*
X149853323Y-103159500D01*
X149853317Y-103159501D01*
X149743836Y-103188836D01*
X149743833Y-103188837D01*
X149645665Y-103245515D01*
X149645661Y-103245518D01*
X149565518Y-103325661D01*
X149565515Y-103325665D01*
X149508837Y-103423833D01*
X149508836Y-103423836D01*
X149479501Y-103533317D01*
X149479500Y-103533325D01*
X149340500Y-103533325D01*
X149340500Y-103533324D01*
X149311162Y-103423833D01*
X149254486Y-103325667D01*
X149254484Y-103325665D01*
X149254481Y-103325661D01*
X149174338Y-103245518D01*
X149174334Y-103245515D01*
X149174333Y-103245514D01*
X149085974Y-103194500D01*
X149076166Y-103188837D01*
X149076163Y-103188836D01*
X148966682Y-103159501D01*
X148966677Y-103159500D01*
X148966676Y-103159500D01*
X148853324Y-103159500D01*
X148853323Y-103159500D01*
X148853317Y-103159501D01*
X148743836Y-103188836D01*
X148743833Y-103188837D01*
X148645665Y-103245515D01*
X148645661Y-103245518D01*
X148565518Y-103325661D01*
X148565515Y-103325665D01*
X148508837Y-103423833D01*
X148508836Y-103423836D01*
X148479501Y-103533317D01*
X148479500Y-103533325D01*
X148340500Y-103533325D01*
X148340500Y-103533324D01*
X148311162Y-103423833D01*
X148254486Y-103325667D01*
X148254484Y-103325665D01*
X148254481Y-103325661D01*
X148174338Y-103245518D01*
X148174334Y-103245515D01*
X148174333Y-103245514D01*
X148085974Y-103194500D01*
X148076166Y-103188837D01*
X148076163Y-103188836D01*
X147966682Y-103159501D01*
X147966677Y-103159500D01*
X147966676Y-103159500D01*
X147853324Y-103159500D01*
X147853323Y-103159500D01*
X147853317Y-103159501D01*
X147743836Y-103188836D01*
X147743833Y-103188837D01*
X147645665Y-103245515D01*
X147645661Y-103245518D01*
X147565518Y-103325661D01*
X147565515Y-103325665D01*
X147508837Y-103423833D01*
X147508836Y-103423836D01*
X147479501Y-103533317D01*
X147479500Y-103533325D01*
X147340500Y-103533325D01*
X147340500Y-103533324D01*
X147311162Y-103423833D01*
X147254486Y-103325667D01*
X147254484Y-103325665D01*
X147254481Y-103325661D01*
X147174338Y-103245518D01*
X147174334Y-103245515D01*
X147174333Y-103245514D01*
X147085974Y-103194500D01*
X147076166Y-103188837D01*
X147076163Y-103188836D01*
X146966682Y-103159501D01*
X146966677Y-103159500D01*
X146966676Y-103159500D01*
X146853324Y-103159500D01*
X146853323Y-103159500D01*
X146853317Y-103159501D01*
X146743836Y-103188836D01*
X146743833Y-103188837D01*
X146645665Y-103245515D01*
X146645661Y-103245518D01*
X146565518Y-103325661D01*
X146565515Y-103325665D01*
X146508837Y-103423833D01*
X146508836Y-103423836D01*
X146479501Y-103533317D01*
X146479500Y-103533325D01*
X146340500Y-103533325D01*
X146340500Y-103533324D01*
X146311162Y-103423833D01*
X146254486Y-103325667D01*
X146254484Y-103325665D01*
X146254481Y-103325661D01*
X146174338Y-103245518D01*
X146174334Y-103245515D01*
X146174333Y-103245514D01*
X146085974Y-103194500D01*
X146076166Y-103188837D01*
X146076163Y-103188836D01*
X145966682Y-103159501D01*
X145966677Y-103159500D01*
X145966676Y-103159500D01*
X145853324Y-103159500D01*
X145853323Y-103159500D01*
X145853317Y-103159501D01*
X145743836Y-103188836D01*
X145743833Y-103188837D01*
X145645665Y-103245515D01*
X145645661Y-103245518D01*
X145565518Y-103325661D01*
X145565515Y-103325665D01*
X145508837Y-103423833D01*
X145508836Y-103423836D01*
X145479501Y-103533317D01*
X145479500Y-103533325D01*
X145340500Y-103533325D01*
X145340500Y-103533324D01*
X145311162Y-103423833D01*
X145254486Y-103325667D01*
X145254484Y-103325665D01*
X145254481Y-103325661D01*
X145174338Y-103245518D01*
X145174334Y-103245515D01*
X145174333Y-103245514D01*
X145085974Y-103194500D01*
X145076166Y-103188837D01*
X145076163Y-103188836D01*
X144966682Y-103159501D01*
X144966677Y-103159500D01*
X144966676Y-103159500D01*
X144853324Y-103159500D01*
X144853323Y-103159500D01*
X144853317Y-103159501D01*
X144743836Y-103188836D01*
X144743833Y-103188837D01*
X144645665Y-103245515D01*
X144645661Y-103245518D01*
X144565518Y-103325661D01*
X144565515Y-103325665D01*
X144508837Y-103423833D01*
X144508836Y-103423836D01*
X144479501Y-103533317D01*
X144479500Y-103533325D01*
X129156943Y-103533325D01*
X129125672Y-103486524D01*
X129013476Y-103374328D01*
X128881547Y-103286176D01*
X128881546Y-103286175D01*
X128881544Y-103286174D01*
X128734954Y-103225454D01*
X128579335Y-103194500D01*
X128420665Y-103194500D01*
X128265045Y-103225454D01*
X128118455Y-103286174D01*
X128118451Y-103286177D01*
X127986524Y-103374327D01*
X127874327Y-103486524D01*
X127786177Y-103618451D01*
X127786174Y-103618455D01*
X127725454Y-103765045D01*
X127694500Y-103920664D01*
X127305500Y-103920664D01*
X127274545Y-103765044D01*
X127213824Y-103618453D01*
X127125672Y-103486524D01*
X127013476Y-103374328D01*
X126881547Y-103286176D01*
X126881546Y-103286175D01*
X126881544Y-103286174D01*
X126734954Y-103225454D01*
X126579335Y-103194500D01*
X126420665Y-103194500D01*
X126265045Y-103225454D01*
X126118455Y-103286174D01*
X126118451Y-103286177D01*
X125986524Y-103374327D01*
X125874327Y-103486524D01*
X125786177Y-103618451D01*
X125786174Y-103618455D01*
X125725454Y-103765045D01*
X125694500Y-103920664D01*
X123300500Y-103920664D01*
X123300500Y-101920664D01*
X125694500Y-101920664D01*
X125694500Y-102079335D01*
X125725454Y-102234954D01*
X125786174Y-102381544D01*
X125786177Y-102381548D01*
X125845678Y-102470599D01*
X125874328Y-102513476D01*
X125986524Y-102625672D01*
X126118453Y-102713824D01*
X126265044Y-102774545D01*
X126420665Y-102805500D01*
X126579335Y-102805500D01*
X126734956Y-102774545D01*
X126881547Y-102713824D01*
X127013476Y-102625672D01*
X127125672Y-102513476D01*
X127213824Y-102381547D01*
X127274545Y-102234956D01*
X127305500Y-102079335D01*
X127305500Y-101920665D01*
X127305500Y-101920664D01*
X127694500Y-101920664D01*
X127694500Y-102079335D01*
X127725454Y-102234954D01*
X127786174Y-102381544D01*
X127786177Y-102381548D01*
X127845678Y-102470599D01*
X127874328Y-102513476D01*
X127986524Y-102625672D01*
X128118453Y-102713824D01*
X128265044Y-102774545D01*
X128420665Y-102805500D01*
X128579335Y-102805500D01*
X128734956Y-102774545D01*
X128881547Y-102713824D01*
X129013476Y-102625672D01*
X129105823Y-102533325D01*
X145479500Y-102533325D01*
X145479500Y-102646674D01*
X145479501Y-102646682D01*
X145508836Y-102756163D01*
X145508837Y-102756166D01*
X145565515Y-102854334D01*
X145565518Y-102854338D01*
X145645661Y-102934481D01*
X145645665Y-102934484D01*
X145645667Y-102934486D01*
X145743833Y-102991162D01*
X145743836Y-102991163D01*
X145810838Y-103009116D01*
X145853324Y-103020500D01*
X145853325Y-103020500D01*
X145966675Y-103020500D01*
X145966676Y-103020500D01*
X146076167Y-102991162D01*
X146174333Y-102934486D01*
X146254486Y-102854333D01*
X146311162Y-102756167D01*
X146340500Y-102646676D01*
X146340500Y-102533325D01*
X146479500Y-102533325D01*
X146479500Y-102646674D01*
X146479501Y-102646682D01*
X146508836Y-102756163D01*
X146508837Y-102756166D01*
X146565515Y-102854334D01*
X146565518Y-102854338D01*
X146645661Y-102934481D01*
X146645665Y-102934484D01*
X146645667Y-102934486D01*
X146743833Y-102991162D01*
X146743836Y-102991163D01*
X146810838Y-103009116D01*
X146853324Y-103020500D01*
X146853325Y-103020500D01*
X146966675Y-103020500D01*
X146966676Y-103020500D01*
X147076167Y-102991162D01*
X147174333Y-102934486D01*
X147254486Y-102854333D01*
X147311162Y-102756167D01*
X147340500Y-102646676D01*
X147340500Y-102533325D01*
X147479500Y-102533325D01*
X147479500Y-102646674D01*
X147479501Y-102646682D01*
X147508836Y-102756163D01*
X147508837Y-102756166D01*
X147565515Y-102854334D01*
X147565518Y-102854338D01*
X147645661Y-102934481D01*
X147645665Y-102934484D01*
X147645667Y-102934486D01*
X147743833Y-102991162D01*
X147743836Y-102991163D01*
X147810838Y-103009116D01*
X147853324Y-103020500D01*
X147853325Y-103020500D01*
X147966675Y-103020500D01*
X147966676Y-103020500D01*
X148076167Y-102991162D01*
X148174333Y-102934486D01*
X148254486Y-102854333D01*
X148311162Y-102756167D01*
X148340500Y-102646676D01*
X148340500Y-102533325D01*
X148479500Y-102533325D01*
X148479500Y-102646674D01*
X148479501Y-102646682D01*
X148508836Y-102756163D01*
X148508837Y-102756166D01*
X148565515Y-102854334D01*
X148565518Y-102854338D01*
X148645661Y-102934481D01*
X148645665Y-102934484D01*
X148645667Y-102934486D01*
X148743833Y-102991162D01*
X148743836Y-102991163D01*
X148810838Y-103009116D01*
X148853324Y-103020500D01*
X148853325Y-103020500D01*
X148966675Y-103020500D01*
X148966676Y-103020500D01*
X149076167Y-102991162D01*
X149174333Y-102934486D01*
X149254486Y-102854333D01*
X149311162Y-102756167D01*
X149340500Y-102646676D01*
X149340500Y-102533325D01*
X149479500Y-102533325D01*
X149479500Y-102646674D01*
X149479501Y-102646682D01*
X149508836Y-102756163D01*
X149508837Y-102756166D01*
X149565515Y-102854334D01*
X149565518Y-102854338D01*
X149645661Y-102934481D01*
X149645665Y-102934484D01*
X149645667Y-102934486D01*
X149743833Y-102991162D01*
X149743836Y-102991163D01*
X149810838Y-103009116D01*
X149853324Y-103020500D01*
X149853325Y-103020500D01*
X149966675Y-103020500D01*
X149966676Y-103020500D01*
X150076167Y-102991162D01*
X150174333Y-102934486D01*
X150254486Y-102854333D01*
X150311162Y-102756167D01*
X150340500Y-102646676D01*
X150340500Y-102533325D01*
X151479500Y-102533325D01*
X151479500Y-102646674D01*
X151479501Y-102646682D01*
X151508836Y-102756163D01*
X151508837Y-102756166D01*
X151565515Y-102854334D01*
X151565518Y-102854338D01*
X151645661Y-102934481D01*
X151645665Y-102934484D01*
X151645667Y-102934486D01*
X151743833Y-102991162D01*
X151743836Y-102991163D01*
X151810838Y-103009116D01*
X151853324Y-103020500D01*
X151853325Y-103020500D01*
X151966675Y-103020500D01*
X151966676Y-103020500D01*
X152076167Y-102991162D01*
X152174333Y-102934486D01*
X152254486Y-102854333D01*
X152311162Y-102756167D01*
X152340500Y-102646676D01*
X152340500Y-102533324D01*
X152311162Y-102423833D01*
X152254486Y-102325667D01*
X152254484Y-102325665D01*
X152254481Y-102325661D01*
X152174338Y-102245518D01*
X152174334Y-102245515D01*
X152174333Y-102245514D01*
X152125250Y-102217176D01*
X152076166Y-102188837D01*
X152076163Y-102188836D01*
X151966682Y-102159501D01*
X151966677Y-102159500D01*
X151966676Y-102159500D01*
X151853324Y-102159500D01*
X151853323Y-102159500D01*
X151853317Y-102159501D01*
X151743836Y-102188836D01*
X151743833Y-102188837D01*
X151645665Y-102245515D01*
X151645661Y-102245518D01*
X151565518Y-102325661D01*
X151565515Y-102325665D01*
X151508837Y-102423833D01*
X151508836Y-102423836D01*
X151479501Y-102533317D01*
X151479500Y-102533325D01*
X150340500Y-102533325D01*
X150340500Y-102533324D01*
X150311162Y-102423833D01*
X150254486Y-102325667D01*
X150254484Y-102325665D01*
X150254481Y-102325661D01*
X150174338Y-102245518D01*
X150174334Y-102245515D01*
X150174333Y-102245514D01*
X150125250Y-102217176D01*
X150076166Y-102188837D01*
X150076163Y-102188836D01*
X149966682Y-102159501D01*
X149966677Y-102159500D01*
X149966676Y-102159500D01*
X149853324Y-102159500D01*
X149853323Y-102159500D01*
X149853317Y-102159501D01*
X149743836Y-102188836D01*
X149743833Y-102188837D01*
X149645665Y-102245515D01*
X149645661Y-102245518D01*
X149565518Y-102325661D01*
X149565515Y-102325665D01*
X149508837Y-102423833D01*
X149508836Y-102423836D01*
X149479501Y-102533317D01*
X149479500Y-102533325D01*
X149340500Y-102533325D01*
X149340500Y-102533324D01*
X149311162Y-102423833D01*
X149254486Y-102325667D01*
X149254484Y-102325665D01*
X149254481Y-102325661D01*
X149174338Y-102245518D01*
X149174334Y-102245515D01*
X149174333Y-102245514D01*
X149125250Y-102217176D01*
X149076166Y-102188837D01*
X149076163Y-102188836D01*
X148966682Y-102159501D01*
X148966677Y-102159500D01*
X148966676Y-102159500D01*
X148853324Y-102159500D01*
X148853323Y-102159500D01*
X148853317Y-102159501D01*
X148743836Y-102188836D01*
X148743833Y-102188837D01*
X148645665Y-102245515D01*
X148645661Y-102245518D01*
X148565518Y-102325661D01*
X148565515Y-102325665D01*
X148508837Y-102423833D01*
X148508836Y-102423836D01*
X148479501Y-102533317D01*
X148479500Y-102533325D01*
X148340500Y-102533325D01*
X148340500Y-102533324D01*
X148311162Y-102423833D01*
X148254486Y-102325667D01*
X148254484Y-102325665D01*
X148254481Y-102325661D01*
X148174338Y-102245518D01*
X148174334Y-102245515D01*
X148174333Y-102245514D01*
X148125250Y-102217176D01*
X148076166Y-102188837D01*
X148076163Y-102188836D01*
X147966682Y-102159501D01*
X147966677Y-102159500D01*
X147966676Y-102159500D01*
X147853324Y-102159500D01*
X147853323Y-102159500D01*
X147853317Y-102159501D01*
X147743836Y-102188836D01*
X147743833Y-102188837D01*
X147645665Y-102245515D01*
X147645661Y-102245518D01*
X147565518Y-102325661D01*
X147565515Y-102325665D01*
X147508837Y-102423833D01*
X147508836Y-102423836D01*
X147479501Y-102533317D01*
X147479500Y-102533325D01*
X147340500Y-102533325D01*
X147340500Y-102533324D01*
X147311162Y-102423833D01*
X147254486Y-102325667D01*
X147254484Y-102325665D01*
X147254481Y-102325661D01*
X147174338Y-102245518D01*
X147174334Y-102245515D01*
X147174333Y-102245514D01*
X147125250Y-102217176D01*
X147076166Y-102188837D01*
X147076163Y-102188836D01*
X146966682Y-102159501D01*
X146966677Y-102159500D01*
X146966676Y-102159500D01*
X146853324Y-102159500D01*
X146853323Y-102159500D01*
X146853317Y-102159501D01*
X146743836Y-102188836D01*
X146743833Y-102188837D01*
X146645665Y-102245515D01*
X146645661Y-102245518D01*
X146565518Y-102325661D01*
X146565515Y-102325665D01*
X146508837Y-102423833D01*
X146508836Y-102423836D01*
X146479501Y-102533317D01*
X146479500Y-102533325D01*
X146340500Y-102533325D01*
X146340500Y-102533324D01*
X146311162Y-102423833D01*
X146254486Y-102325667D01*
X146254484Y-102325665D01*
X146254481Y-102325661D01*
X146174338Y-102245518D01*
X146174334Y-102245515D01*
X146174333Y-102245514D01*
X146125250Y-102217176D01*
X146076166Y-102188837D01*
X146076163Y-102188836D01*
X145966682Y-102159501D01*
X145966677Y-102159500D01*
X145966676Y-102159500D01*
X145853324Y-102159500D01*
X145853323Y-102159500D01*
X145853317Y-102159501D01*
X145743836Y-102188836D01*
X145743833Y-102188837D01*
X145645665Y-102245515D01*
X145645661Y-102245518D01*
X145565518Y-102325661D01*
X145565515Y-102325665D01*
X145508837Y-102423833D01*
X145508836Y-102423836D01*
X145479501Y-102533317D01*
X145479500Y-102533325D01*
X129105823Y-102533325D01*
X129125672Y-102513476D01*
X129213824Y-102381547D01*
X129274545Y-102234956D01*
X129305500Y-102079335D01*
X129305500Y-102040000D01*
X131956900Y-102040000D01*
X131956900Y-102140199D01*
X131982292Y-102234956D01*
X131982831Y-102236967D01*
X132032924Y-102323732D01*
X132103768Y-102394576D01*
X132190533Y-102444669D01*
X132235878Y-102456819D01*
X132287300Y-102470599D01*
X132287306Y-102470600D01*
X132387494Y-102470600D01*
X132391683Y-102469477D01*
X132393996Y-102468858D01*
X132393996Y-102468857D01*
X132484267Y-102444669D01*
X132571032Y-102394576D01*
X132641876Y-102323732D01*
X132691969Y-102236967D01*
X132717900Y-102140194D01*
X132717900Y-102040006D01*
X132717899Y-102040000D01*
X132702916Y-101984085D01*
X132691969Y-101943233D01*
X132641876Y-101856468D01*
X132571032Y-101785624D01*
X132484267Y-101735531D01*
X132484264Y-101735530D01*
X132387499Y-101709600D01*
X132387494Y-101709600D01*
X132287306Y-101709600D01*
X132287300Y-101709600D01*
X132190535Y-101735530D01*
X132190533Y-101735531D01*
X132103767Y-101785624D01*
X132032924Y-101856467D01*
X131982831Y-101943233D01*
X131982830Y-101943235D01*
X131956900Y-102040000D01*
X129305500Y-102040000D01*
X129305500Y-101920665D01*
X129274545Y-101765044D01*
X129213824Y-101618453D01*
X129125672Y-101486524D01*
X129013476Y-101374328D01*
X128987493Y-101356967D01*
X128881548Y-101286177D01*
X128881544Y-101286174D01*
X128734954Y-101225454D01*
X128693496Y-101217208D01*
X128579335Y-101194500D01*
X128420665Y-101194500D01*
X128265045Y-101225454D01*
X128118455Y-101286174D01*
X128118451Y-101286177D01*
X127986524Y-101374327D01*
X127874327Y-101486524D01*
X127786177Y-101618451D01*
X127786174Y-101618455D01*
X127725454Y-101765045D01*
X127694500Y-101920664D01*
X127305500Y-101920664D01*
X127274545Y-101765044D01*
X127213824Y-101618453D01*
X127125672Y-101486524D01*
X127013476Y-101374328D01*
X126987493Y-101356967D01*
X126881548Y-101286177D01*
X126881544Y-101286174D01*
X126734954Y-101225454D01*
X126579335Y-101194500D01*
X126420665Y-101194500D01*
X126265045Y-101225454D01*
X126118455Y-101286174D01*
X126118451Y-101286177D01*
X125986524Y-101374327D01*
X125874327Y-101486524D01*
X125786177Y-101618451D01*
X125786174Y-101618455D01*
X125725454Y-101765045D01*
X125694500Y-101920664D01*
X123300500Y-101920664D01*
X123300500Y-101160000D01*
X131135500Y-101160000D01*
X131135500Y-101260199D01*
X131161430Y-101356964D01*
X131161431Y-101356967D01*
X131211524Y-101443732D01*
X131282368Y-101514576D01*
X131369133Y-101564669D01*
X131414478Y-101576819D01*
X131465900Y-101590599D01*
X131465906Y-101590600D01*
X131566094Y-101590600D01*
X131566099Y-101590599D01*
X131594848Y-101582895D01*
X131662867Y-101564669D01*
X131717157Y-101533325D01*
X144479500Y-101533325D01*
X144479500Y-101646674D01*
X144479501Y-101646682D01*
X144508836Y-101756163D01*
X144508837Y-101756166D01*
X144565515Y-101854334D01*
X144565518Y-101854338D01*
X144645661Y-101934481D01*
X144645665Y-101934484D01*
X144645667Y-101934486D01*
X144731575Y-101984085D01*
X144743833Y-101991162D01*
X144743836Y-101991163D01*
X144810838Y-102009116D01*
X144853324Y-102020500D01*
X144853325Y-102020500D01*
X144966675Y-102020500D01*
X144966676Y-102020500D01*
X145076167Y-101991162D01*
X145174333Y-101934486D01*
X145254486Y-101854333D01*
X145311162Y-101756167D01*
X145340500Y-101646676D01*
X145340500Y-101533325D01*
X145479500Y-101533325D01*
X145479500Y-101646674D01*
X145479501Y-101646682D01*
X145508836Y-101756163D01*
X145508837Y-101756166D01*
X145565515Y-101854334D01*
X145565518Y-101854338D01*
X145645661Y-101934481D01*
X145645665Y-101934484D01*
X145645667Y-101934486D01*
X145731575Y-101984085D01*
X145743833Y-101991162D01*
X145743836Y-101991163D01*
X145810838Y-102009116D01*
X145853324Y-102020500D01*
X145853325Y-102020500D01*
X145966675Y-102020500D01*
X145966676Y-102020500D01*
X146076167Y-101991162D01*
X146174333Y-101934486D01*
X146254486Y-101854333D01*
X146311162Y-101756167D01*
X146340500Y-101646676D01*
X146340500Y-101533325D01*
X146479500Y-101533325D01*
X146479500Y-101646674D01*
X146479501Y-101646682D01*
X146508836Y-101756163D01*
X146508837Y-101756166D01*
X146565515Y-101854334D01*
X146565518Y-101854338D01*
X146645661Y-101934481D01*
X146645665Y-101934484D01*
X146645667Y-101934486D01*
X146731575Y-101984085D01*
X146743833Y-101991162D01*
X146743836Y-101991163D01*
X146810838Y-102009116D01*
X146853324Y-102020500D01*
X146853325Y-102020500D01*
X146966675Y-102020500D01*
X146966676Y-102020500D01*
X147076167Y-101991162D01*
X147174333Y-101934486D01*
X147254486Y-101854333D01*
X147311162Y-101756167D01*
X147340500Y-101646676D01*
X147340500Y-101533325D01*
X147479500Y-101533325D01*
X147479500Y-101646674D01*
X147479501Y-101646682D01*
X147508836Y-101756163D01*
X147508837Y-101756166D01*
X147565515Y-101854334D01*
X147565518Y-101854338D01*
X147645661Y-101934481D01*
X147645665Y-101934484D01*
X147645667Y-101934486D01*
X147731575Y-101984085D01*
X147743833Y-101991162D01*
X147743836Y-101991163D01*
X147810838Y-102009116D01*
X147853324Y-102020500D01*
X147853325Y-102020500D01*
X147966675Y-102020500D01*
X147966676Y-102020500D01*
X148076167Y-101991162D01*
X148174333Y-101934486D01*
X148254486Y-101854333D01*
X148311162Y-101756167D01*
X148340500Y-101646676D01*
X148340500Y-101533325D01*
X148479500Y-101533325D01*
X148479500Y-101646674D01*
X148479501Y-101646682D01*
X148508836Y-101756163D01*
X148508837Y-101756166D01*
X148565515Y-101854334D01*
X148565518Y-101854338D01*
X148645661Y-101934481D01*
X148645665Y-101934484D01*
X148645667Y-101934486D01*
X148731575Y-101984085D01*
X148743833Y-101991162D01*
X148743836Y-101991163D01*
X148810838Y-102009116D01*
X148853324Y-102020500D01*
X148853325Y-102020500D01*
X148966675Y-102020500D01*
X148966676Y-102020500D01*
X149076167Y-101991162D01*
X149174333Y-101934486D01*
X149254486Y-101854333D01*
X149311162Y-101756167D01*
X149340500Y-101646676D01*
X149340500Y-101533325D01*
X149479500Y-101533325D01*
X149479500Y-101646674D01*
X149479501Y-101646682D01*
X149508836Y-101756163D01*
X149508837Y-101756166D01*
X149565515Y-101854334D01*
X149565518Y-101854338D01*
X149645661Y-101934481D01*
X149645665Y-101934484D01*
X149645667Y-101934486D01*
X149731575Y-101984085D01*
X149743833Y-101991162D01*
X149743836Y-101991163D01*
X149810838Y-102009116D01*
X149853324Y-102020500D01*
X149853325Y-102020500D01*
X149966675Y-102020500D01*
X149966676Y-102020500D01*
X150076167Y-101991162D01*
X150174333Y-101934486D01*
X150254486Y-101854333D01*
X150311162Y-101756167D01*
X150340500Y-101646676D01*
X150340500Y-101533325D01*
X150479500Y-101533325D01*
X150479500Y-101646674D01*
X150479501Y-101646682D01*
X150508836Y-101756163D01*
X150508837Y-101756166D01*
X150565515Y-101854334D01*
X150565518Y-101854338D01*
X150645661Y-101934481D01*
X150645665Y-101934484D01*
X150645667Y-101934486D01*
X150731575Y-101984085D01*
X150743833Y-101991162D01*
X150743836Y-101991163D01*
X150810838Y-102009116D01*
X150853324Y-102020500D01*
X150853325Y-102020500D01*
X150966675Y-102020500D01*
X150966676Y-102020500D01*
X151076167Y-101991162D01*
X151174333Y-101934486D01*
X151254486Y-101854333D01*
X151311162Y-101756167D01*
X151340500Y-101646676D01*
X151340500Y-101533324D01*
X151311162Y-101423833D01*
X151254486Y-101325667D01*
X151254484Y-101325665D01*
X151254481Y-101325661D01*
X151205964Y-101277144D01*
X151479500Y-101277144D01*
X151479500Y-101902850D01*
X151479501Y-101902854D01*
X151480008Y-101905403D01*
X151487070Y-101940918D01*
X151487071Y-101940919D01*
X151515914Y-101984086D01*
X151559081Y-102012929D01*
X151597145Y-102020500D01*
X152222854Y-102020499D01*
X152260919Y-102012929D01*
X152304086Y-101984086D01*
X152332929Y-101940919D01*
X152336958Y-101920664D01*
X167694500Y-101920664D01*
X167694500Y-102079335D01*
X167725454Y-102234954D01*
X167786174Y-102381544D01*
X167786177Y-102381548D01*
X167845678Y-102470599D01*
X167874328Y-102513476D01*
X167986524Y-102625672D01*
X168118453Y-102713824D01*
X168265044Y-102774545D01*
X168420665Y-102805500D01*
X168579335Y-102805500D01*
X168734956Y-102774545D01*
X168881547Y-102713824D01*
X169013476Y-102625672D01*
X169125672Y-102513476D01*
X169213824Y-102381547D01*
X169274545Y-102234956D01*
X169305500Y-102079335D01*
X169305500Y-101920665D01*
X169305500Y-101920664D01*
X169694500Y-101920664D01*
X169694500Y-102079335D01*
X169725454Y-102234954D01*
X169786174Y-102381544D01*
X169786177Y-102381548D01*
X169845678Y-102470599D01*
X169874328Y-102513476D01*
X169986524Y-102625672D01*
X170118453Y-102713824D01*
X170265044Y-102774545D01*
X170420665Y-102805500D01*
X170579335Y-102805500D01*
X170734956Y-102774545D01*
X170881547Y-102713824D01*
X171013476Y-102625672D01*
X171125672Y-102513476D01*
X171213824Y-102381547D01*
X171274545Y-102234956D01*
X171305500Y-102079335D01*
X171305500Y-101920665D01*
X171274545Y-101765044D01*
X171213824Y-101618453D01*
X171125672Y-101486524D01*
X171013476Y-101374328D01*
X170987493Y-101356967D01*
X170881548Y-101286177D01*
X170881544Y-101286174D01*
X170734954Y-101225454D01*
X170579335Y-101194500D01*
X170420665Y-101194500D01*
X170265045Y-101225454D01*
X170118455Y-101286174D01*
X170118451Y-101286177D01*
X169986524Y-101374327D01*
X169874327Y-101486524D01*
X169786177Y-101618451D01*
X169786174Y-101618455D01*
X169725454Y-101765045D01*
X169694500Y-101920664D01*
X169305500Y-101920664D01*
X169274545Y-101765044D01*
X169213824Y-101618453D01*
X169125672Y-101486524D01*
X169013476Y-101374328D01*
X168987493Y-101356967D01*
X168881548Y-101286177D01*
X168881544Y-101286174D01*
X168734954Y-101225454D01*
X168579335Y-101194500D01*
X168420665Y-101194500D01*
X168265045Y-101225454D01*
X168118455Y-101286174D01*
X168118451Y-101286177D01*
X167986524Y-101374327D01*
X167874327Y-101486524D01*
X167786177Y-101618451D01*
X167786174Y-101618455D01*
X167725454Y-101765045D01*
X167694500Y-101920664D01*
X152336958Y-101920664D01*
X152340500Y-101902855D01*
X152340499Y-101277146D01*
X152332929Y-101239081D01*
X152304086Y-101195914D01*
X152275373Y-101176729D01*
X152260921Y-101167072D01*
X152260917Y-101167070D01*
X152232304Y-101161379D01*
X152222855Y-101159500D01*
X152222854Y-101159500D01*
X151597149Y-101159500D01*
X151597148Y-101159500D01*
X151597146Y-101159501D01*
X151586315Y-101161654D01*
X151559081Y-101167070D01*
X151515914Y-101195914D01*
X151487072Y-101239078D01*
X151487070Y-101239082D01*
X151479500Y-101277144D01*
X151205964Y-101277144D01*
X151174338Y-101245518D01*
X151174334Y-101245515D01*
X151174333Y-101245514D01*
X151125250Y-101217176D01*
X151076166Y-101188837D01*
X151076163Y-101188836D01*
X150966682Y-101159501D01*
X150966677Y-101159500D01*
X150966676Y-101159500D01*
X150853324Y-101159500D01*
X150853323Y-101159500D01*
X150853317Y-101159501D01*
X150743836Y-101188836D01*
X150743833Y-101188837D01*
X150645665Y-101245515D01*
X150645661Y-101245518D01*
X150565518Y-101325661D01*
X150565515Y-101325665D01*
X150508837Y-101423833D01*
X150508836Y-101423836D01*
X150479501Y-101533317D01*
X150479500Y-101533325D01*
X150340500Y-101533325D01*
X150340500Y-101533324D01*
X150311162Y-101423833D01*
X150254486Y-101325667D01*
X150254484Y-101325665D01*
X150254481Y-101325661D01*
X150174338Y-101245518D01*
X150174334Y-101245515D01*
X150174333Y-101245514D01*
X150125250Y-101217176D01*
X150076166Y-101188837D01*
X150076163Y-101188836D01*
X149966682Y-101159501D01*
X149966677Y-101159500D01*
X149966676Y-101159500D01*
X149853324Y-101159500D01*
X149853323Y-101159500D01*
X149853317Y-101159501D01*
X149743836Y-101188836D01*
X149743833Y-101188837D01*
X149645665Y-101245515D01*
X149645661Y-101245518D01*
X149565518Y-101325661D01*
X149565515Y-101325665D01*
X149508837Y-101423833D01*
X149508836Y-101423836D01*
X149479501Y-101533317D01*
X149479500Y-101533325D01*
X149340500Y-101533325D01*
X149340500Y-101533324D01*
X149311162Y-101423833D01*
X149254486Y-101325667D01*
X149254484Y-101325665D01*
X149254481Y-101325661D01*
X149174338Y-101245518D01*
X149174334Y-101245515D01*
X149174333Y-101245514D01*
X149125250Y-101217176D01*
X149076166Y-101188837D01*
X149076163Y-101188836D01*
X148966682Y-101159501D01*
X148966677Y-101159500D01*
X148966676Y-101159500D01*
X148853324Y-101159500D01*
X148853323Y-101159500D01*
X148853317Y-101159501D01*
X148743836Y-101188836D01*
X148743833Y-101188837D01*
X148645665Y-101245515D01*
X148645661Y-101245518D01*
X148565518Y-101325661D01*
X148565515Y-101325665D01*
X148508837Y-101423833D01*
X148508836Y-101423836D01*
X148479501Y-101533317D01*
X148479500Y-101533325D01*
X148340500Y-101533325D01*
X148340500Y-101533324D01*
X148311162Y-101423833D01*
X148254486Y-101325667D01*
X148254484Y-101325665D01*
X148254481Y-101325661D01*
X148174338Y-101245518D01*
X148174334Y-101245515D01*
X148174333Y-101245514D01*
X148125250Y-101217176D01*
X148076166Y-101188837D01*
X148076163Y-101188836D01*
X147966682Y-101159501D01*
X147966677Y-101159500D01*
X147966676Y-101159500D01*
X147853324Y-101159500D01*
X147853323Y-101159500D01*
X147853317Y-101159501D01*
X147743836Y-101188836D01*
X147743833Y-101188837D01*
X147645665Y-101245515D01*
X147645661Y-101245518D01*
X147565518Y-101325661D01*
X147565515Y-101325665D01*
X147508837Y-101423833D01*
X147508836Y-101423836D01*
X147479501Y-101533317D01*
X147479500Y-101533325D01*
X147340500Y-101533325D01*
X147340500Y-101533324D01*
X147311162Y-101423833D01*
X147254486Y-101325667D01*
X147254484Y-101325665D01*
X147254481Y-101325661D01*
X147174338Y-101245518D01*
X147174334Y-101245515D01*
X147174333Y-101245514D01*
X147125250Y-101217176D01*
X147076166Y-101188837D01*
X147076163Y-101188836D01*
X146966682Y-101159501D01*
X146966677Y-101159500D01*
X146966676Y-101159500D01*
X146853324Y-101159500D01*
X146853323Y-101159500D01*
X146853317Y-101159501D01*
X146743836Y-101188836D01*
X146743833Y-101188837D01*
X146645665Y-101245515D01*
X146645661Y-101245518D01*
X146565518Y-101325661D01*
X146565515Y-101325665D01*
X146508837Y-101423833D01*
X146508836Y-101423836D01*
X146479501Y-101533317D01*
X146479500Y-101533325D01*
X146340500Y-101533325D01*
X146340500Y-101533324D01*
X146311162Y-101423833D01*
X146254486Y-101325667D01*
X146254484Y-101325665D01*
X146254481Y-101325661D01*
X146174338Y-101245518D01*
X146174334Y-101245515D01*
X146174333Y-101245514D01*
X146125250Y-101217176D01*
X146076166Y-101188837D01*
X146076163Y-101188836D01*
X145966682Y-101159501D01*
X145966677Y-101159500D01*
X145966676Y-101159500D01*
X145853324Y-101159500D01*
X145853323Y-101159500D01*
X145853317Y-101159501D01*
X145743836Y-101188836D01*
X145743833Y-101188837D01*
X145645665Y-101245515D01*
X145645661Y-101245518D01*
X145565518Y-101325661D01*
X145565515Y-101325665D01*
X145508837Y-101423833D01*
X145508836Y-101423836D01*
X145479501Y-101533317D01*
X145479500Y-101533325D01*
X145340500Y-101533325D01*
X145340500Y-101533324D01*
X145311162Y-101423833D01*
X145254486Y-101325667D01*
X145254484Y-101325665D01*
X145254481Y-101325661D01*
X145174338Y-101245518D01*
X145174334Y-101245515D01*
X145174333Y-101245514D01*
X145125250Y-101217176D01*
X145076166Y-101188837D01*
X145076163Y-101188836D01*
X144966682Y-101159501D01*
X144966677Y-101159500D01*
X144966676Y-101159500D01*
X144853324Y-101159500D01*
X144853323Y-101159500D01*
X144853317Y-101159501D01*
X144743836Y-101188836D01*
X144743833Y-101188837D01*
X144645665Y-101245515D01*
X144645661Y-101245518D01*
X144565518Y-101325661D01*
X144565515Y-101325665D01*
X144508837Y-101423833D01*
X144508836Y-101423836D01*
X144479501Y-101533317D01*
X144479500Y-101533325D01*
X131717157Y-101533325D01*
X131749632Y-101514576D01*
X131820476Y-101443732D01*
X131870569Y-101356967D01*
X131889538Y-101286176D01*
X131896499Y-101260199D01*
X131896500Y-101260193D01*
X131896500Y-101160006D01*
X131896499Y-101160000D01*
X131882719Y-101108578D01*
X131870569Y-101063233D01*
X131820476Y-100976468D01*
X131749632Y-100905624D01*
X131662867Y-100855531D01*
X131662864Y-100855530D01*
X131566099Y-100829600D01*
X131566094Y-100829600D01*
X131465906Y-100829600D01*
X131465900Y-100829600D01*
X131369135Y-100855530D01*
X131369133Y-100855531D01*
X131282367Y-100905624D01*
X131211524Y-100976467D01*
X131161431Y-101063233D01*
X131161430Y-101063235D01*
X131135500Y-101160000D01*
X123300500Y-101160000D01*
X123300500Y-99920664D01*
X125694500Y-99920664D01*
X125694500Y-100079335D01*
X125725454Y-100234954D01*
X125786174Y-100381544D01*
X125786175Y-100381546D01*
X125786176Y-100381547D01*
X125874328Y-100513476D01*
X125986524Y-100625672D01*
X126118453Y-100713824D01*
X126265044Y-100774545D01*
X126420665Y-100805500D01*
X126579335Y-100805500D01*
X126734956Y-100774545D01*
X126881547Y-100713824D01*
X127013476Y-100625672D01*
X127125672Y-100513476D01*
X127213824Y-100381547D01*
X127274545Y-100234956D01*
X127305500Y-100079335D01*
X127305500Y-99920665D01*
X127305500Y-99920664D01*
X127694500Y-99920664D01*
X127694500Y-100079335D01*
X127725454Y-100234954D01*
X127786174Y-100381544D01*
X127786175Y-100381546D01*
X127786176Y-100381547D01*
X127874328Y-100513476D01*
X127986524Y-100625672D01*
X128118453Y-100713824D01*
X128265044Y-100774545D01*
X128420665Y-100805500D01*
X128579335Y-100805500D01*
X128734956Y-100774545D01*
X128881547Y-100713824D01*
X129013476Y-100625672D01*
X129125672Y-100513476D01*
X129213824Y-100381547D01*
X129274545Y-100234956D01*
X129305500Y-100079335D01*
X129305500Y-99964300D01*
X131078400Y-99964300D01*
X131078400Y-100064499D01*
X131104330Y-100161264D01*
X131104331Y-100161267D01*
X131154424Y-100248032D01*
X131225268Y-100318876D01*
X131312033Y-100368969D01*
X131357378Y-100381119D01*
X131408800Y-100394899D01*
X131408806Y-100394900D01*
X131508994Y-100394900D01*
X131508999Y-100394899D01*
X131537748Y-100387195D01*
X131605767Y-100368969D01*
X131692532Y-100318876D01*
X131763376Y-100248032D01*
X131813469Y-100161267D01*
X131839400Y-100064494D01*
X131839400Y-99964306D01*
X131839398Y-99964298D01*
X131831219Y-99933771D01*
X131827706Y-99920664D01*
X167694500Y-99920664D01*
X167694500Y-100079335D01*
X167725454Y-100234954D01*
X167786174Y-100381544D01*
X167786175Y-100381546D01*
X167786176Y-100381547D01*
X167874328Y-100513476D01*
X167986524Y-100625672D01*
X168118453Y-100713824D01*
X168265044Y-100774545D01*
X168420665Y-100805500D01*
X168579335Y-100805500D01*
X168734956Y-100774545D01*
X168881547Y-100713824D01*
X169013476Y-100625672D01*
X169125672Y-100513476D01*
X169213824Y-100381547D01*
X169274545Y-100234956D01*
X169305500Y-100079335D01*
X169305500Y-99920665D01*
X169305500Y-99920664D01*
X169694500Y-99920664D01*
X169694500Y-100079335D01*
X169725454Y-100234954D01*
X169786174Y-100381544D01*
X169786175Y-100381546D01*
X169786176Y-100381547D01*
X169874328Y-100513476D01*
X169986524Y-100625672D01*
X170118453Y-100713824D01*
X170265044Y-100774545D01*
X170420665Y-100805500D01*
X170579335Y-100805500D01*
X170734956Y-100774545D01*
X170881547Y-100713824D01*
X171013476Y-100625672D01*
X171125672Y-100513476D01*
X171213824Y-100381547D01*
X171274545Y-100234956D01*
X171305500Y-100079335D01*
X171305500Y-99920665D01*
X171274545Y-99765044D01*
X171230963Y-99659830D01*
X171213825Y-99618455D01*
X171213824Y-99618454D01*
X171213824Y-99618453D01*
X171125672Y-99486524D01*
X171013476Y-99374328D01*
X170995289Y-99362176D01*
X170947511Y-99330252D01*
X170881547Y-99286176D01*
X170881546Y-99286175D01*
X170881544Y-99286174D01*
X170734954Y-99225454D01*
X170579335Y-99194500D01*
X170420665Y-99194500D01*
X170265045Y-99225454D01*
X170118455Y-99286174D01*
X170118451Y-99286177D01*
X169986524Y-99374327D01*
X169874327Y-99486524D01*
X169786177Y-99618451D01*
X169786174Y-99618455D01*
X169725454Y-99765045D01*
X169694500Y-99920664D01*
X169305500Y-99920664D01*
X169274545Y-99765044D01*
X169230963Y-99659830D01*
X169213825Y-99618455D01*
X169213824Y-99618454D01*
X169213824Y-99618453D01*
X169125672Y-99486524D01*
X169013476Y-99374328D01*
X168995289Y-99362176D01*
X168947511Y-99330252D01*
X168881547Y-99286176D01*
X168881546Y-99286175D01*
X168881544Y-99286174D01*
X168734954Y-99225454D01*
X168579335Y-99194500D01*
X168420665Y-99194500D01*
X168265045Y-99225454D01*
X168118455Y-99286174D01*
X168118451Y-99286177D01*
X167986524Y-99374327D01*
X167874327Y-99486524D01*
X167786177Y-99618451D01*
X167786174Y-99618455D01*
X167725454Y-99765045D01*
X167694500Y-99920664D01*
X131827706Y-99920664D01*
X131819406Y-99889692D01*
X131813469Y-99867533D01*
X131763376Y-99780768D01*
X131692532Y-99709924D01*
X131605767Y-99659831D01*
X131605764Y-99659830D01*
X131508999Y-99633900D01*
X131508994Y-99633900D01*
X131408806Y-99633900D01*
X131408800Y-99633900D01*
X131312035Y-99659830D01*
X131312033Y-99659831D01*
X131225267Y-99709924D01*
X131154424Y-99780767D01*
X131104331Y-99867533D01*
X131104330Y-99867535D01*
X131078400Y-99964300D01*
X129305500Y-99964300D01*
X129305500Y-99920665D01*
X129274545Y-99765044D01*
X129230963Y-99659830D01*
X129213825Y-99618455D01*
X129213824Y-99618454D01*
X129213824Y-99618453D01*
X129125672Y-99486524D01*
X129013476Y-99374328D01*
X128995289Y-99362176D01*
X128947511Y-99330252D01*
X128881547Y-99286176D01*
X128881546Y-99286175D01*
X128881544Y-99286174D01*
X128734954Y-99225454D01*
X128579335Y-99194500D01*
X128420665Y-99194500D01*
X128265045Y-99225454D01*
X128118455Y-99286174D01*
X128118451Y-99286177D01*
X127986524Y-99374327D01*
X127874327Y-99486524D01*
X127786177Y-99618451D01*
X127786174Y-99618455D01*
X127725454Y-99765045D01*
X127694500Y-99920664D01*
X127305500Y-99920664D01*
X127274545Y-99765044D01*
X127230963Y-99659830D01*
X127213825Y-99618455D01*
X127213824Y-99618454D01*
X127213824Y-99618453D01*
X127125672Y-99486524D01*
X127013476Y-99374328D01*
X126995289Y-99362176D01*
X126947511Y-99330252D01*
X126881547Y-99286176D01*
X126881546Y-99286175D01*
X126881544Y-99286174D01*
X126734954Y-99225454D01*
X126579335Y-99194500D01*
X126420665Y-99194500D01*
X126265045Y-99225454D01*
X126118455Y-99286174D01*
X126118451Y-99286177D01*
X125986524Y-99374327D01*
X125874327Y-99486524D01*
X125786177Y-99618451D01*
X125786174Y-99618455D01*
X125725454Y-99765045D01*
X125694500Y-99920664D01*
X123300500Y-99920664D01*
X123300500Y-97920664D01*
X125694500Y-97920664D01*
X125694500Y-98079335D01*
X125725454Y-98234954D01*
X125786174Y-98381544D01*
X125786177Y-98381548D01*
X125873424Y-98512124D01*
X125874328Y-98513476D01*
X125986524Y-98625672D01*
X126118453Y-98713824D01*
X126265044Y-98774545D01*
X126420665Y-98805500D01*
X126579335Y-98805500D01*
X126734956Y-98774545D01*
X126881547Y-98713824D01*
X127013476Y-98625672D01*
X127125672Y-98513476D01*
X127213824Y-98381547D01*
X127274545Y-98234956D01*
X127305500Y-98079335D01*
X127305500Y-97920665D01*
X127305500Y-97920664D01*
X127694500Y-97920664D01*
X127694500Y-98079335D01*
X127725454Y-98234954D01*
X127786174Y-98381544D01*
X127786177Y-98381548D01*
X127873424Y-98512124D01*
X127874328Y-98513476D01*
X127986524Y-98625672D01*
X128118453Y-98713824D01*
X128265044Y-98774545D01*
X128420665Y-98805500D01*
X128579335Y-98805500D01*
X128734956Y-98774545D01*
X128754378Y-98766500D01*
X150557700Y-98766500D01*
X150557700Y-98866699D01*
X150583630Y-98963464D01*
X150583631Y-98963467D01*
X150633724Y-99050232D01*
X150704568Y-99121076D01*
X150791333Y-99171169D01*
X150836678Y-99183319D01*
X150888100Y-99197099D01*
X150888106Y-99197100D01*
X150988294Y-99197100D01*
X150988299Y-99197099D01*
X151017048Y-99189395D01*
X151085067Y-99171169D01*
X151171832Y-99121076D01*
X151242676Y-99050232D01*
X151267289Y-99007600D01*
X164869200Y-99007600D01*
X164869200Y-99107799D01*
X164892433Y-99194500D01*
X164895131Y-99204567D01*
X164945224Y-99291332D01*
X165016068Y-99362176D01*
X165102833Y-99412269D01*
X165148178Y-99424419D01*
X165199600Y-99438199D01*
X165199606Y-99438200D01*
X165299794Y-99438200D01*
X165299799Y-99438199D01*
X165328548Y-99430495D01*
X165396567Y-99412269D01*
X165483332Y-99362176D01*
X165554176Y-99291332D01*
X165604269Y-99204567D01*
X165630200Y-99107794D01*
X165630200Y-99007606D01*
X165630199Y-99007600D01*
X165616419Y-98956178D01*
X165604269Y-98910833D01*
X165554176Y-98824068D01*
X165483332Y-98753224D01*
X165396567Y-98703131D01*
X165396564Y-98703130D01*
X165299799Y-98677200D01*
X165299794Y-98677200D01*
X165199606Y-98677200D01*
X165199600Y-98677200D01*
X165102835Y-98703130D01*
X165102833Y-98703131D01*
X165016067Y-98753224D01*
X164945224Y-98824067D01*
X164895131Y-98910833D01*
X164895130Y-98910835D01*
X164869200Y-99007600D01*
X151267289Y-99007600D01*
X151292769Y-98963467D01*
X151318700Y-98866694D01*
X151318700Y-98766506D01*
X151318699Y-98766500D01*
X151301718Y-98703130D01*
X151292769Y-98669733D01*
X151242676Y-98582968D01*
X151171832Y-98512124D01*
X151085067Y-98462031D01*
X151085064Y-98462030D01*
X150988299Y-98436100D01*
X150988294Y-98436100D01*
X150888106Y-98436100D01*
X150888100Y-98436100D01*
X150791335Y-98462030D01*
X150791333Y-98462031D01*
X150704567Y-98512124D01*
X150633724Y-98582967D01*
X150583631Y-98669733D01*
X150583630Y-98669735D01*
X150557700Y-98766500D01*
X128754378Y-98766500D01*
X128881547Y-98713824D01*
X128897551Y-98703131D01*
X128947534Y-98669733D01*
X129013476Y-98625672D01*
X129125672Y-98513476D01*
X129213824Y-98381547D01*
X129274545Y-98234956D01*
X129305500Y-98079335D01*
X129305500Y-97920665D01*
X129274545Y-97765044D01*
X129213824Y-97618453D01*
X129125672Y-97486524D01*
X129013476Y-97374328D01*
X128881547Y-97286176D01*
X128881546Y-97286175D01*
X128881544Y-97286174D01*
X128734954Y-97225454D01*
X128579335Y-97194500D01*
X128420665Y-97194500D01*
X128265045Y-97225454D01*
X128118455Y-97286174D01*
X128118451Y-97286177D01*
X127986524Y-97374327D01*
X127874327Y-97486524D01*
X127786177Y-97618451D01*
X127786174Y-97618455D01*
X127725454Y-97765045D01*
X127694500Y-97920664D01*
X127305500Y-97920664D01*
X127274545Y-97765044D01*
X127213824Y-97618453D01*
X127125672Y-97486524D01*
X127013476Y-97374328D01*
X126881547Y-97286176D01*
X126881546Y-97286175D01*
X126881544Y-97286174D01*
X126734954Y-97225454D01*
X126579335Y-97194500D01*
X126420665Y-97194500D01*
X126265045Y-97225454D01*
X126118455Y-97286174D01*
X126118451Y-97286177D01*
X125986524Y-97374327D01*
X125874327Y-97486524D01*
X125786177Y-97618451D01*
X125786174Y-97618455D01*
X125725454Y-97765045D01*
X125694500Y-97920664D01*
X123300500Y-97920664D01*
X123300500Y-96901585D01*
X139249500Y-96901585D01*
X139249500Y-97098414D01*
X139249501Y-97098430D01*
X139280290Y-97292820D01*
X139280292Y-97292829D01*
X139341115Y-97480023D01*
X139341119Y-97480031D01*
X139430477Y-97655407D01*
X139546171Y-97814645D01*
X139546178Y-97814653D01*
X139685346Y-97953821D01*
X139685354Y-97953828D01*
X139844595Y-98069524D01*
X140019975Y-98158884D01*
X140207174Y-98219709D01*
X140359705Y-98243867D01*
X140401569Y-98250498D01*
X140401575Y-98250498D01*
X140401583Y-98250500D01*
X140401585Y-98250500D01*
X140598415Y-98250500D01*
X140598417Y-98250500D01*
X140792826Y-98219709D01*
X140980025Y-98158884D01*
X141155405Y-98069524D01*
X141314646Y-97953828D01*
X141453828Y-97814646D01*
X141569524Y-97655405D01*
X141658884Y-97480025D01*
X141719709Y-97292826D01*
X141750500Y-97098417D01*
X141750500Y-96901585D01*
X154249500Y-96901585D01*
X154249500Y-97098414D01*
X154249501Y-97098430D01*
X154280290Y-97292820D01*
X154280292Y-97292829D01*
X154341115Y-97480023D01*
X154341119Y-97480031D01*
X154430477Y-97655407D01*
X154546171Y-97814645D01*
X154546178Y-97814653D01*
X154685346Y-97953821D01*
X154685354Y-97953828D01*
X154844595Y-98069524D01*
X155019975Y-98158884D01*
X155207174Y-98219709D01*
X155359705Y-98243867D01*
X155401569Y-98250498D01*
X155401575Y-98250498D01*
X155401583Y-98250500D01*
X155401585Y-98250500D01*
X155598415Y-98250500D01*
X155598417Y-98250500D01*
X155792826Y-98219709D01*
X155980025Y-98158884D01*
X156155405Y-98069524D01*
X156314646Y-97953828D01*
X156347810Y-97920664D01*
X167694500Y-97920664D01*
X167694500Y-98079335D01*
X167725454Y-98234954D01*
X167786174Y-98381544D01*
X167786177Y-98381548D01*
X167873424Y-98512124D01*
X167874328Y-98513476D01*
X167986524Y-98625672D01*
X168118453Y-98713824D01*
X168265044Y-98774545D01*
X168420665Y-98805500D01*
X168579335Y-98805500D01*
X168734956Y-98774545D01*
X168881547Y-98713824D01*
X169013476Y-98625672D01*
X169125672Y-98513476D01*
X169213824Y-98381547D01*
X169274545Y-98234956D01*
X169305500Y-98079335D01*
X169305500Y-97920665D01*
X169305500Y-97920664D01*
X169694500Y-97920664D01*
X169694500Y-98079335D01*
X169725454Y-98234954D01*
X169786174Y-98381544D01*
X169786177Y-98381548D01*
X169873424Y-98512124D01*
X169874328Y-98513476D01*
X169986524Y-98625672D01*
X170118453Y-98713824D01*
X170265044Y-98774545D01*
X170420665Y-98805500D01*
X170579335Y-98805500D01*
X170734956Y-98774545D01*
X170881547Y-98713824D01*
X171013476Y-98625672D01*
X171125672Y-98513476D01*
X171213824Y-98381547D01*
X171274545Y-98234956D01*
X171305500Y-98079335D01*
X171305500Y-97920665D01*
X171274545Y-97765044D01*
X171213824Y-97618453D01*
X171125672Y-97486524D01*
X171013476Y-97374328D01*
X170881547Y-97286176D01*
X170881546Y-97286175D01*
X170881544Y-97286174D01*
X170734954Y-97225454D01*
X170579335Y-97194500D01*
X170420665Y-97194500D01*
X170265045Y-97225454D01*
X170118455Y-97286174D01*
X170118451Y-97286177D01*
X169986524Y-97374327D01*
X169874327Y-97486524D01*
X169786177Y-97618451D01*
X169786174Y-97618455D01*
X169725454Y-97765045D01*
X169694500Y-97920664D01*
X169305500Y-97920664D01*
X169274545Y-97765044D01*
X169213824Y-97618453D01*
X169125672Y-97486524D01*
X169013476Y-97374328D01*
X168881547Y-97286176D01*
X168881546Y-97286175D01*
X168881544Y-97286174D01*
X168734954Y-97225454D01*
X168579335Y-97194500D01*
X168420665Y-97194500D01*
X168265045Y-97225454D01*
X168118455Y-97286174D01*
X168118451Y-97286177D01*
X167986524Y-97374327D01*
X167874327Y-97486524D01*
X167786177Y-97618451D01*
X167786174Y-97618455D01*
X167725454Y-97765045D01*
X167694500Y-97920664D01*
X156347810Y-97920664D01*
X156395074Y-97873401D01*
X156453821Y-97814653D01*
X156453828Y-97814646D01*
X156569524Y-97655405D01*
X156658884Y-97480025D01*
X156719709Y-97292826D01*
X156750500Y-97098417D01*
X156750500Y-96901583D01*
X156719709Y-96707174D01*
X156658884Y-96519975D01*
X156569524Y-96344595D01*
X156453828Y-96185354D01*
X156453821Y-96185346D01*
X156314653Y-96046178D01*
X156314645Y-96046171D01*
X156207270Y-95968158D01*
X156155407Y-95930477D01*
X156136148Y-95920664D01*
X167694500Y-95920664D01*
X167694500Y-96079335D01*
X167725454Y-96234954D01*
X167786174Y-96381544D01*
X167786175Y-96381546D01*
X167786176Y-96381547D01*
X167874328Y-96513476D01*
X167986524Y-96625672D01*
X168118453Y-96713824D01*
X168265044Y-96774545D01*
X168420665Y-96805500D01*
X168579335Y-96805500D01*
X168734956Y-96774545D01*
X168881547Y-96713824D01*
X169013476Y-96625672D01*
X169125672Y-96513476D01*
X169213824Y-96381547D01*
X169274545Y-96234956D01*
X169305500Y-96079335D01*
X169305500Y-95920665D01*
X169305500Y-95920664D01*
X169694500Y-95920664D01*
X169694500Y-96079335D01*
X169725454Y-96234954D01*
X169786174Y-96381544D01*
X169786175Y-96381546D01*
X169786176Y-96381547D01*
X169874328Y-96513476D01*
X169986524Y-96625672D01*
X170118453Y-96713824D01*
X170265044Y-96774545D01*
X170420665Y-96805500D01*
X170579335Y-96805500D01*
X170734956Y-96774545D01*
X170881547Y-96713824D01*
X171013476Y-96625672D01*
X171125672Y-96513476D01*
X171213824Y-96381547D01*
X171274545Y-96234956D01*
X171305500Y-96079335D01*
X171305500Y-95920665D01*
X171274545Y-95765044D01*
X171213824Y-95618453D01*
X171125672Y-95486524D01*
X171013476Y-95374328D01*
X170881547Y-95286176D01*
X170881546Y-95286175D01*
X170881544Y-95286174D01*
X170734954Y-95225454D01*
X170579335Y-95194500D01*
X170420665Y-95194500D01*
X170265045Y-95225454D01*
X170118455Y-95286174D01*
X170118451Y-95286177D01*
X169986524Y-95374327D01*
X169874327Y-95486524D01*
X169786177Y-95618451D01*
X169786174Y-95618455D01*
X169725454Y-95765045D01*
X169694500Y-95920664D01*
X169305500Y-95920664D01*
X169274545Y-95765044D01*
X169213824Y-95618453D01*
X169125672Y-95486524D01*
X169013476Y-95374328D01*
X168881547Y-95286176D01*
X168881546Y-95286175D01*
X168881544Y-95286174D01*
X168734954Y-95225454D01*
X168579335Y-95194500D01*
X168420665Y-95194500D01*
X168265045Y-95225454D01*
X168118455Y-95286174D01*
X168118451Y-95286177D01*
X167986524Y-95374327D01*
X167874327Y-95486524D01*
X167786177Y-95618451D01*
X167786174Y-95618455D01*
X167725454Y-95765045D01*
X167694500Y-95920664D01*
X156136148Y-95920664D01*
X155980031Y-95841119D01*
X155980023Y-95841115D01*
X155792829Y-95780292D01*
X155792826Y-95780291D01*
X155792820Y-95780290D01*
X155598430Y-95749501D01*
X155598418Y-95749500D01*
X155598417Y-95749500D01*
X155401583Y-95749500D01*
X155401581Y-95749500D01*
X155401569Y-95749501D01*
X155207179Y-95780290D01*
X155207170Y-95780292D01*
X155019976Y-95841115D01*
X155019968Y-95841119D01*
X154844592Y-95930477D01*
X154685354Y-96046171D01*
X154685346Y-96046178D01*
X154546178Y-96185346D01*
X154546171Y-96185354D01*
X154430477Y-96344592D01*
X154341119Y-96519968D01*
X154341115Y-96519976D01*
X154280292Y-96707170D01*
X154280290Y-96707179D01*
X154249501Y-96901569D01*
X154249500Y-96901585D01*
X141750500Y-96901585D01*
X141750500Y-96901583D01*
X141719709Y-96707174D01*
X141658884Y-96519975D01*
X141569524Y-96344595D01*
X141453828Y-96185354D01*
X141453821Y-96185346D01*
X141314653Y-96046178D01*
X141314645Y-96046171D01*
X141155407Y-95930477D01*
X140980031Y-95841119D01*
X140980023Y-95841115D01*
X140792829Y-95780292D01*
X140792826Y-95780291D01*
X140792820Y-95780290D01*
X140598430Y-95749501D01*
X140598418Y-95749500D01*
X140598417Y-95749500D01*
X140401583Y-95749500D01*
X140401581Y-95749500D01*
X140401569Y-95749501D01*
X140207179Y-95780290D01*
X140207170Y-95780292D01*
X140019976Y-95841115D01*
X140019968Y-95841119D01*
X139844592Y-95930477D01*
X139685354Y-96046171D01*
X139685346Y-96046178D01*
X139546178Y-96185346D01*
X139546171Y-96185354D01*
X139430477Y-96344592D01*
X139341119Y-96519968D01*
X139341115Y-96519976D01*
X139280292Y-96707170D01*
X139280290Y-96707179D01*
X139249501Y-96901569D01*
X139249500Y-96901585D01*
X123300500Y-96901585D01*
X123300500Y-95920664D01*
X125694500Y-95920664D01*
X125694500Y-96079335D01*
X125725454Y-96234954D01*
X125786174Y-96381544D01*
X125786175Y-96381546D01*
X125786176Y-96381547D01*
X125874328Y-96513476D01*
X125986524Y-96625672D01*
X126118453Y-96713824D01*
X126265044Y-96774545D01*
X126420665Y-96805500D01*
X126579335Y-96805500D01*
X126734956Y-96774545D01*
X126881547Y-96713824D01*
X127013476Y-96625672D01*
X127125672Y-96513476D01*
X127213824Y-96381547D01*
X127274545Y-96234956D01*
X127305500Y-96079335D01*
X127305500Y-95920665D01*
X127305500Y-95920664D01*
X127694500Y-95920664D01*
X127694500Y-96079335D01*
X127725454Y-96234954D01*
X127786174Y-96381544D01*
X127786175Y-96381546D01*
X127786176Y-96381547D01*
X127874328Y-96513476D01*
X127986524Y-96625672D01*
X128118453Y-96713824D01*
X128265044Y-96774545D01*
X128420665Y-96805500D01*
X128579335Y-96805500D01*
X128734956Y-96774545D01*
X128881547Y-96713824D01*
X129013476Y-96625672D01*
X129125672Y-96513476D01*
X129213824Y-96381547D01*
X129274545Y-96234956D01*
X129305500Y-96079335D01*
X129305500Y-95920665D01*
X129274545Y-95765044D01*
X129213824Y-95618453D01*
X129125672Y-95486524D01*
X129013476Y-95374328D01*
X128881547Y-95286176D01*
X128881546Y-95286175D01*
X128881544Y-95286174D01*
X128734954Y-95225454D01*
X128579335Y-95194500D01*
X128420665Y-95194500D01*
X128265045Y-95225454D01*
X128118455Y-95286174D01*
X128118451Y-95286177D01*
X127986524Y-95374327D01*
X127874327Y-95486524D01*
X127786177Y-95618451D01*
X127786174Y-95618455D01*
X127725454Y-95765045D01*
X127694500Y-95920664D01*
X127305500Y-95920664D01*
X127274545Y-95765044D01*
X127213824Y-95618453D01*
X127125672Y-95486524D01*
X127013476Y-95374328D01*
X126881547Y-95286176D01*
X126881546Y-95286175D01*
X126881544Y-95286174D01*
X126734954Y-95225454D01*
X126579335Y-95194500D01*
X126420665Y-95194500D01*
X126265045Y-95225454D01*
X126118455Y-95286174D01*
X126118451Y-95286177D01*
X125986524Y-95374327D01*
X125874327Y-95486524D01*
X125786177Y-95618451D01*
X125786174Y-95618455D01*
X125725454Y-95765045D01*
X125694500Y-95920664D01*
X123300500Y-95920664D01*
X123300500Y-93920664D01*
X125694500Y-93920664D01*
X125694500Y-94079335D01*
X125725454Y-94234954D01*
X125786174Y-94381544D01*
X125786175Y-94381546D01*
X125786176Y-94381547D01*
X125874328Y-94513476D01*
X125986524Y-94625672D01*
X126118453Y-94713824D01*
X126265044Y-94774545D01*
X126420665Y-94805500D01*
X126579335Y-94805500D01*
X126734956Y-94774545D01*
X126881547Y-94713824D01*
X127013476Y-94625672D01*
X127125672Y-94513476D01*
X127213824Y-94381547D01*
X127274545Y-94234956D01*
X127305500Y-94079335D01*
X127305500Y-93920665D01*
X127305500Y-93920664D01*
X127694500Y-93920664D01*
X127694500Y-94079335D01*
X127725454Y-94234954D01*
X127786174Y-94381544D01*
X127786175Y-94381546D01*
X127786176Y-94381547D01*
X127874328Y-94513476D01*
X127986524Y-94625672D01*
X128118453Y-94713824D01*
X128265044Y-94774545D01*
X128420665Y-94805500D01*
X128579335Y-94805500D01*
X128734956Y-94774545D01*
X128881547Y-94713824D01*
X129013476Y-94625672D01*
X129125672Y-94513476D01*
X129213824Y-94381547D01*
X129274545Y-94234956D01*
X129305500Y-94079335D01*
X129305500Y-93920665D01*
X129305500Y-93920664D01*
X167694500Y-93920664D01*
X167694500Y-94079335D01*
X167725454Y-94234954D01*
X167786174Y-94381544D01*
X167786175Y-94381546D01*
X167786176Y-94381547D01*
X167874328Y-94513476D01*
X167986524Y-94625672D01*
X168118453Y-94713824D01*
X168265044Y-94774545D01*
X168420665Y-94805500D01*
X168579335Y-94805500D01*
X168734956Y-94774545D01*
X168881547Y-94713824D01*
X169013476Y-94625672D01*
X169125672Y-94513476D01*
X169213824Y-94381547D01*
X169274545Y-94234956D01*
X169305500Y-94079335D01*
X169305500Y-93920665D01*
X169305500Y-93920664D01*
X169694500Y-93920664D01*
X169694500Y-94079335D01*
X169725454Y-94234954D01*
X169786174Y-94381544D01*
X169786175Y-94381546D01*
X169786176Y-94381547D01*
X169874328Y-94513476D01*
X169986524Y-94625672D01*
X170118453Y-94713824D01*
X170265044Y-94774545D01*
X170420665Y-94805500D01*
X170579335Y-94805500D01*
X170734956Y-94774545D01*
X170881547Y-94713824D01*
X171013476Y-94625672D01*
X171125672Y-94513476D01*
X171213824Y-94381547D01*
X171274545Y-94234956D01*
X171305500Y-94079335D01*
X171305500Y-93920665D01*
X171274545Y-93765044D01*
X171213824Y-93618453D01*
X171125672Y-93486524D01*
X171013476Y-93374328D01*
X170881547Y-93286176D01*
X170881546Y-93286175D01*
X170881544Y-93286174D01*
X170734954Y-93225454D01*
X170579335Y-93194500D01*
X170420665Y-93194500D01*
X170265045Y-93225454D01*
X170118455Y-93286174D01*
X170118451Y-93286177D01*
X169986524Y-93374327D01*
X169874327Y-93486524D01*
X169786177Y-93618451D01*
X169786174Y-93618455D01*
X169725454Y-93765045D01*
X169694500Y-93920664D01*
X169305500Y-93920664D01*
X169274545Y-93765044D01*
X169213824Y-93618453D01*
X169125672Y-93486524D01*
X169013476Y-93374328D01*
X168881547Y-93286176D01*
X168881546Y-93286175D01*
X168881544Y-93286174D01*
X168734954Y-93225454D01*
X168579335Y-93194500D01*
X168420665Y-93194500D01*
X168265045Y-93225454D01*
X168118455Y-93286174D01*
X168118451Y-93286177D01*
X167986524Y-93374327D01*
X167874327Y-93486524D01*
X167786177Y-93618451D01*
X167786174Y-93618455D01*
X167725454Y-93765045D01*
X167694500Y-93920664D01*
X129305500Y-93920664D01*
X129274545Y-93765044D01*
X129213824Y-93618453D01*
X129125672Y-93486524D01*
X129013476Y-93374328D01*
X128881547Y-93286176D01*
X128881546Y-93286175D01*
X128881544Y-93286174D01*
X128734954Y-93225454D01*
X128579335Y-93194500D01*
X128420665Y-93194500D01*
X128265045Y-93225454D01*
X128118455Y-93286174D01*
X128118451Y-93286177D01*
X127986524Y-93374327D01*
X127874327Y-93486524D01*
X127786177Y-93618451D01*
X127786174Y-93618455D01*
X127725454Y-93765045D01*
X127694500Y-93920664D01*
X127305500Y-93920664D01*
X127274545Y-93765044D01*
X127213824Y-93618453D01*
X127125672Y-93486524D01*
X127013476Y-93374328D01*
X126881547Y-93286176D01*
X126881546Y-93286175D01*
X126881544Y-93286174D01*
X126734954Y-93225454D01*
X126579335Y-93194500D01*
X126420665Y-93194500D01*
X126265045Y-93225454D01*
X126118455Y-93286174D01*
X126118451Y-93286177D01*
X125986524Y-93374327D01*
X125874327Y-93486524D01*
X125786177Y-93618451D01*
X125786174Y-93618455D01*
X125725454Y-93765045D01*
X125694500Y-93920664D01*
X123300500Y-93920664D01*
X123300500Y-91312144D01*
X127694500Y-91312144D01*
X127694500Y-92687850D01*
X127694501Y-92687854D01*
X127697731Y-92704099D01*
X127702070Y-92725918D01*
X127702071Y-92725919D01*
X127730914Y-92769086D01*
X127774081Y-92797929D01*
X127812145Y-92805500D01*
X129187854Y-92805499D01*
X129225919Y-92797929D01*
X129269086Y-92769086D01*
X129297929Y-92725919D01*
X129305500Y-92687855D01*
X129305499Y-91932600D01*
X142429500Y-91932600D01*
X142429500Y-92032799D01*
X142455430Y-92129564D01*
X142455431Y-92129567D01*
X142505524Y-92216332D01*
X142576368Y-92287176D01*
X142663133Y-92337269D01*
X142708478Y-92349419D01*
X142759900Y-92363199D01*
X142759906Y-92363200D01*
X142860094Y-92363200D01*
X142860099Y-92363199D01*
X142888848Y-92355495D01*
X142956867Y-92337269D01*
X143043632Y-92287176D01*
X143114476Y-92216332D01*
X143164569Y-92129567D01*
X143190500Y-92032794D01*
X143190500Y-91932606D01*
X143190498Y-91932600D01*
X143187300Y-91920664D01*
X167694500Y-91920664D01*
X167694500Y-92079335D01*
X167725454Y-92234954D01*
X167786174Y-92381544D01*
X167786175Y-92381546D01*
X167786176Y-92381547D01*
X167874328Y-92513476D01*
X167986524Y-92625672D01*
X168118453Y-92713824D01*
X168118454Y-92713824D01*
X168118455Y-92713825D01*
X168147650Y-92725918D01*
X168265044Y-92774545D01*
X168420665Y-92805500D01*
X168579335Y-92805500D01*
X168734956Y-92774545D01*
X168881547Y-92713824D01*
X169013476Y-92625672D01*
X169125672Y-92513476D01*
X169213824Y-92381547D01*
X169274545Y-92234956D01*
X169305500Y-92079335D01*
X169305500Y-91920665D01*
X169274545Y-91765044D01*
X169217833Y-91628131D01*
X169213825Y-91618455D01*
X169213824Y-91618454D01*
X169213824Y-91618453D01*
X169125672Y-91486524D01*
X169013476Y-91374328D01*
X168980889Y-91352554D01*
X168920411Y-91312144D01*
X169694500Y-91312144D01*
X169694500Y-92687850D01*
X169694501Y-92687854D01*
X169697731Y-92704099D01*
X169702070Y-92725918D01*
X169702071Y-92725919D01*
X169730914Y-92769086D01*
X169774081Y-92797929D01*
X169812145Y-92805500D01*
X171187854Y-92805499D01*
X171225919Y-92797929D01*
X171269086Y-92769086D01*
X171297929Y-92725919D01*
X171305500Y-92687855D01*
X171305499Y-91312146D01*
X171297929Y-91274081D01*
X171269086Y-91230914D01*
X171240373Y-91211729D01*
X171225921Y-91202072D01*
X171225917Y-91202070D01*
X171197304Y-91196379D01*
X171187855Y-91194500D01*
X171187854Y-91194500D01*
X169812149Y-91194500D01*
X169812148Y-91194500D01*
X169812146Y-91194501D01*
X169801315Y-91196654D01*
X169774081Y-91202070D01*
X169730914Y-91230914D01*
X169702072Y-91274078D01*
X169702070Y-91274082D01*
X169694500Y-91312144D01*
X168920411Y-91312144D01*
X168881549Y-91286177D01*
X168881544Y-91286174D01*
X168734954Y-91225454D01*
X168579335Y-91194500D01*
X168420665Y-91194500D01*
X168265045Y-91225454D01*
X168118455Y-91286174D01*
X168118451Y-91286177D01*
X167986524Y-91374327D01*
X167874327Y-91486524D01*
X167786177Y-91618451D01*
X167786174Y-91618455D01*
X167725454Y-91765045D01*
X167694500Y-91920664D01*
X143187300Y-91920664D01*
X143180437Y-91895054D01*
X143164569Y-91835833D01*
X143114476Y-91749068D01*
X143043632Y-91678224D01*
X142956867Y-91628131D01*
X142956864Y-91628130D01*
X142860099Y-91602200D01*
X142860094Y-91602200D01*
X142759906Y-91602200D01*
X142759900Y-91602200D01*
X142663135Y-91628130D01*
X142663133Y-91628131D01*
X142576367Y-91678224D01*
X142505524Y-91749067D01*
X142455431Y-91835833D01*
X142455430Y-91835835D01*
X142429500Y-91932600D01*
X129305499Y-91932600D01*
X129305499Y-91312146D01*
X129297929Y-91274081D01*
X129269086Y-91230914D01*
X129240373Y-91211729D01*
X129225921Y-91202072D01*
X129225917Y-91202070D01*
X129197304Y-91196379D01*
X129187855Y-91194500D01*
X129187854Y-91194500D01*
X127812149Y-91194500D01*
X127812148Y-91194500D01*
X127812146Y-91194501D01*
X127801315Y-91196654D01*
X127774081Y-91202070D01*
X127730914Y-91230914D01*
X127702072Y-91274078D01*
X127702070Y-91274082D01*
X127694500Y-91312144D01*
X123300500Y-91312144D01*
X123300500Y-90069900D01*
X144585700Y-90069900D01*
X144585700Y-90170099D01*
X144611630Y-90266864D01*
X144611631Y-90266867D01*
X144661724Y-90353632D01*
X144732568Y-90424476D01*
X144819333Y-90474569D01*
X144864678Y-90486719D01*
X144916100Y-90500499D01*
X144916106Y-90500500D01*
X145016294Y-90500500D01*
X145016299Y-90500499D01*
X145045048Y-90492795D01*
X145113067Y-90474569D01*
X145199832Y-90424476D01*
X145270676Y-90353632D01*
X145320769Y-90266867D01*
X145346700Y-90170094D01*
X145346700Y-90069906D01*
X145346699Y-90069900D01*
X145332919Y-90018478D01*
X145320769Y-89973133D01*
X145270676Y-89886368D01*
X145199832Y-89815524D01*
X145113067Y-89765431D01*
X145113064Y-89765430D01*
X145016299Y-89739500D01*
X145016294Y-89739500D01*
X144916106Y-89739500D01*
X144916100Y-89739500D01*
X144819335Y-89765430D01*
X144819333Y-89765431D01*
X144732567Y-89815524D01*
X144661724Y-89886367D01*
X144611631Y-89973133D01*
X144611630Y-89973135D01*
X144585700Y-90069900D01*
X123300500Y-90069900D01*
X123300500Y-87503069D01*
X123300801Y-87496943D01*
X123313338Y-87369655D01*
X123315727Y-87357645D01*
X123351961Y-87238196D01*
X123356644Y-87226889D01*
X123415487Y-87116803D01*
X123422287Y-87106625D01*
X123501474Y-87010136D01*
X123510137Y-87001474D01*
X123606625Y-86922287D01*
X123616803Y-86915487D01*
X123726889Y-86856644D01*
X123738196Y-86851961D01*
X123857648Y-86815726D01*
X123869655Y-86813338D01*
X123996944Y-86800801D01*
X124003070Y-86800500D01*
X124047594Y-86800500D01*
X172952406Y-86800500D01*
X172996930Y-86800500D01*
X173003056Y-86800801D01*
G37*
%TD.AperFunction*%
%TD*%
M02*
