%TF.GenerationSoftware,KiCad,Pcbnew,10.0.6-10.0.6~ubuntu26.04.1*%
%TF.CreationDate,2026-10-02T21:59:32+02:00*%
%TF.ProjectId,flashcat_p30,666c6173-6863-4617-945f-7033302e6b69,C*%
%TF.SameCoordinates,Original*%
%TF.FileFunction,Legend,Bot*%
%TF.FilePolarity,Positive*%
%FSLAX46Y46*%
G04 Gerber Fmt 4.6, Leading zero omitted, Abs format (unit mm)*
G04 Created by KiCad (PCBNEW 10.0.6-10.0.6~ubuntu26.04.1) date 2026-10-02 21:59:32*
%MOMM*%
%LPD*%
G01*
G04 APERTURE LIST*
G04 Aperture macros list*
%AMRoundRect*
0 Rectangle with rounded corners*
0 $1 Rounding radius*
0 $2 $3 $4 $5 $6 $7 $8 $9 X,Y pos of 4 corners*
0 Add a 4 corners polygon primitive as box body*
4,1,4,$2,$3,$4,$5,$6,$7,$8,$9,$2,$3,0*
0 Add four circle primitives for the rounded corners*
1,1,$1+$1,$2,$3*
1,1,$1+$1,$4,$5*
1,1,$1+$1,$6,$7*
1,1,$1+$1,$8,$9*
0 Add four rect primitives between the rounded corners*
20,1,$1+$1,$2,$3,$4,$5,0*
20,1,$1+$1,$4,$5,$6,$7,0*
20,1,$1+$1,$6,$7,$8,$9,0*
20,1,$1+$1,$8,$9,$2,$3,0*%
G04 Aperture macros list end*
%ADD10C,0.120000*%
%ADD11C,0.150000*%
%ADD12C,2.000000*%
%ADD13C,1.475000*%
%ADD14C,1.775000*%
%ADD15RoundRect,0.225000X-0.250000X0.225000X-0.250000X-0.225000X0.250000X-0.225000X0.250000X0.225000X0*%
%ADD16RoundRect,0.225000X0.225000X0.250000X-0.225000X0.250000X-0.225000X-0.250000X0.225000X-0.250000X0*%
%ADD17R,1.350000X1.350000*%
%ADD18C,1.350000*%
%ADD19RoundRect,0.150000X0.150000X-0.512500X0.150000X0.512500X-0.150000X0.512500X-0.150000X-0.512500X0*%
%ADD20RoundRect,0.200000X0.275000X-0.200000X0.275000X0.200000X-0.275000X0.200000X-0.275000X-0.200000X0*%
%ADD21RoundRect,0.225000X0.250000X-0.225000X0.250000X0.225000X-0.250000X0.225000X-0.250000X-0.225000X0*%
%ADD22RoundRect,0.225000X-0.225000X-0.250000X0.225000X-0.250000X0.225000X0.250000X-0.225000X0.250000X0*%
G04 APERTURE END LIST*
D10*
X131844807Y-94409521D02*
X131844807Y-94142855D01*
X132263855Y-94142855D02*
X131463855Y-94142855D01*
X131463855Y-94142855D02*
X131463855Y-94523807D01*
X132263855Y-94942854D02*
X132225760Y-94866664D01*
X132225760Y-94866664D02*
X132149569Y-94828569D01*
X132149569Y-94828569D02*
X131463855Y-94828569D01*
X132263855Y-95590474D02*
X131844807Y-95590474D01*
X131844807Y-95590474D02*
X131768617Y-95552379D01*
X131768617Y-95552379D02*
X131730521Y-95476188D01*
X131730521Y-95476188D02*
X131730521Y-95323807D01*
X131730521Y-95323807D02*
X131768617Y-95247617D01*
X132225760Y-95590474D02*
X132263855Y-95514283D01*
X132263855Y-95514283D02*
X132263855Y-95323807D01*
X132263855Y-95323807D02*
X132225760Y-95247617D01*
X132225760Y-95247617D02*
X132149569Y-95209521D01*
X132149569Y-95209521D02*
X132073379Y-95209521D01*
X132073379Y-95209521D02*
X131997188Y-95247617D01*
X131997188Y-95247617D02*
X131959093Y-95323807D01*
X131959093Y-95323807D02*
X131959093Y-95514283D01*
X131959093Y-95514283D02*
X131920998Y-95590474D01*
X132225760Y-95933331D02*
X132263855Y-96009522D01*
X132263855Y-96009522D02*
X132263855Y-96161903D01*
X132263855Y-96161903D02*
X132225760Y-96238093D01*
X132225760Y-96238093D02*
X132149569Y-96276189D01*
X132149569Y-96276189D02*
X132111474Y-96276189D01*
X132111474Y-96276189D02*
X132035283Y-96238093D01*
X132035283Y-96238093D02*
X131997188Y-96161903D01*
X131997188Y-96161903D02*
X131997188Y-96047617D01*
X131997188Y-96047617D02*
X131959093Y-95971427D01*
X131959093Y-95971427D02*
X131882902Y-95933331D01*
X131882902Y-95933331D02*
X131844807Y-95933331D01*
X131844807Y-95933331D02*
X131768617Y-95971427D01*
X131768617Y-95971427D02*
X131730521Y-96047617D01*
X131730521Y-96047617D02*
X131730521Y-96161903D01*
X131730521Y-96161903D02*
X131768617Y-96238093D01*
X132263855Y-96619046D02*
X131463855Y-96619046D01*
X132263855Y-96961903D02*
X131844807Y-96961903D01*
X131844807Y-96961903D02*
X131768617Y-96923808D01*
X131768617Y-96923808D02*
X131730521Y-96847617D01*
X131730521Y-96847617D02*
X131730521Y-96733331D01*
X131730521Y-96733331D02*
X131768617Y-96657141D01*
X131768617Y-96657141D02*
X131806712Y-96619046D01*
X132187664Y-97799999D02*
X132225760Y-97761903D01*
X132225760Y-97761903D02*
X132263855Y-97647618D01*
X132263855Y-97647618D02*
X132263855Y-97571427D01*
X132263855Y-97571427D02*
X132225760Y-97457141D01*
X132225760Y-97457141D02*
X132149569Y-97380951D01*
X132149569Y-97380951D02*
X132073379Y-97342856D01*
X132073379Y-97342856D02*
X131920998Y-97304760D01*
X131920998Y-97304760D02*
X131806712Y-97304760D01*
X131806712Y-97304760D02*
X131654331Y-97342856D01*
X131654331Y-97342856D02*
X131578140Y-97380951D01*
X131578140Y-97380951D02*
X131501950Y-97457141D01*
X131501950Y-97457141D02*
X131463855Y-97571427D01*
X131463855Y-97571427D02*
X131463855Y-97647618D01*
X131463855Y-97647618D02*
X131501950Y-97761903D01*
X131501950Y-97761903D02*
X131540045Y-97799999D01*
X132035283Y-98104760D02*
X132035283Y-98485713D01*
X132263855Y-98028570D02*
X131463855Y-98295237D01*
X131463855Y-98295237D02*
X132263855Y-98561903D01*
X131463855Y-98714284D02*
X131463855Y-99171427D01*
X132263855Y-98942855D02*
X131463855Y-98942855D01*
X132263855Y-100047618D02*
X131463855Y-100047618D01*
X131463855Y-100047618D02*
X131463855Y-100352380D01*
X131463855Y-100352380D02*
X131501950Y-100428570D01*
X131501950Y-100428570D02*
X131540045Y-100466665D01*
X131540045Y-100466665D02*
X131616236Y-100504761D01*
X131616236Y-100504761D02*
X131730521Y-100504761D01*
X131730521Y-100504761D02*
X131806712Y-100466665D01*
X131806712Y-100466665D02*
X131844807Y-100428570D01*
X131844807Y-100428570D02*
X131882902Y-100352380D01*
X131882902Y-100352380D02*
X131882902Y-100047618D01*
X131463855Y-100771427D02*
X131463855Y-101266665D01*
X131463855Y-101266665D02*
X131768617Y-100999999D01*
X131768617Y-100999999D02*
X131768617Y-101114284D01*
X131768617Y-101114284D02*
X131806712Y-101190475D01*
X131806712Y-101190475D02*
X131844807Y-101228570D01*
X131844807Y-101228570D02*
X131920998Y-101266665D01*
X131920998Y-101266665D02*
X132111474Y-101266665D01*
X132111474Y-101266665D02*
X132187664Y-101228570D01*
X132187664Y-101228570D02*
X132225760Y-101190475D01*
X132225760Y-101190475D02*
X132263855Y-101114284D01*
X132263855Y-101114284D02*
X132263855Y-100885713D01*
X132263855Y-100885713D02*
X132225760Y-100809522D01*
X132225760Y-100809522D02*
X132187664Y-100771427D01*
X131463855Y-101761904D02*
X131463855Y-101838094D01*
X131463855Y-101838094D02*
X131501950Y-101914285D01*
X131501950Y-101914285D02*
X131540045Y-101952380D01*
X131540045Y-101952380D02*
X131616236Y-101990475D01*
X131616236Y-101990475D02*
X131768617Y-102028570D01*
X131768617Y-102028570D02*
X131959093Y-102028570D01*
X131959093Y-102028570D02*
X132111474Y-101990475D01*
X132111474Y-101990475D02*
X132187664Y-101952380D01*
X132187664Y-101952380D02*
X132225760Y-101914285D01*
X132225760Y-101914285D02*
X132263855Y-101838094D01*
X132263855Y-101838094D02*
X132263855Y-101761904D01*
X132263855Y-101761904D02*
X132225760Y-101685713D01*
X132225760Y-101685713D02*
X132187664Y-101647618D01*
X132187664Y-101647618D02*
X132111474Y-101609523D01*
X132111474Y-101609523D02*
X131959093Y-101571427D01*
X131959093Y-101571427D02*
X131768617Y-101571427D01*
X131768617Y-101571427D02*
X131616236Y-101609523D01*
X131616236Y-101609523D02*
X131540045Y-101647618D01*
X131540045Y-101647618D02*
X131501950Y-101685713D01*
X131501950Y-101685713D02*
X131463855Y-101761904D01*
X131844807Y-102980952D02*
X131844807Y-103247618D01*
X132263855Y-103361904D02*
X132263855Y-102980952D01*
X132263855Y-102980952D02*
X131463855Y-102980952D01*
X131463855Y-102980952D02*
X131463855Y-103361904D01*
X132263855Y-104047619D02*
X131844807Y-104047619D01*
X131844807Y-104047619D02*
X131768617Y-104009524D01*
X131768617Y-104009524D02*
X131730521Y-103933333D01*
X131730521Y-103933333D02*
X131730521Y-103780952D01*
X131730521Y-103780952D02*
X131768617Y-103704762D01*
X132225760Y-104047619D02*
X132263855Y-103971428D01*
X132263855Y-103971428D02*
X132263855Y-103780952D01*
X132263855Y-103780952D02*
X132225760Y-103704762D01*
X132225760Y-103704762D02*
X132149569Y-103666666D01*
X132149569Y-103666666D02*
X132073379Y-103666666D01*
X132073379Y-103666666D02*
X131997188Y-103704762D01*
X131997188Y-103704762D02*
X131959093Y-103780952D01*
X131959093Y-103780952D02*
X131959093Y-103971428D01*
X131959093Y-103971428D02*
X131920998Y-104047619D01*
X132225760Y-104390476D02*
X132263855Y-104466667D01*
X132263855Y-104466667D02*
X132263855Y-104619048D01*
X132263855Y-104619048D02*
X132225760Y-104695238D01*
X132225760Y-104695238D02*
X132149569Y-104733334D01*
X132149569Y-104733334D02*
X132111474Y-104733334D01*
X132111474Y-104733334D02*
X132035283Y-104695238D01*
X132035283Y-104695238D02*
X131997188Y-104619048D01*
X131997188Y-104619048D02*
X131997188Y-104504762D01*
X131997188Y-104504762D02*
X131959093Y-104428572D01*
X131959093Y-104428572D02*
X131882902Y-104390476D01*
X131882902Y-104390476D02*
X131844807Y-104390476D01*
X131844807Y-104390476D02*
X131768617Y-104428572D01*
X131768617Y-104428572D02*
X131730521Y-104504762D01*
X131730521Y-104504762D02*
X131730521Y-104619048D01*
X131730521Y-104619048D02*
X131768617Y-104695238D01*
X131730521Y-105000000D02*
X132263855Y-105190476D01*
X131730521Y-105380953D02*
X132263855Y-105190476D01*
X132263855Y-105190476D02*
X132454331Y-105114286D01*
X132454331Y-105114286D02*
X132492426Y-105076191D01*
X132492426Y-105076191D02*
X132530521Y-105000000D01*
X131844807Y-106561905D02*
X131882902Y-106676191D01*
X131882902Y-106676191D02*
X131920998Y-106714286D01*
X131920998Y-106714286D02*
X131997188Y-106752382D01*
X131997188Y-106752382D02*
X132111474Y-106752382D01*
X132111474Y-106752382D02*
X132187664Y-106714286D01*
X132187664Y-106714286D02*
X132225760Y-106676191D01*
X132225760Y-106676191D02*
X132263855Y-106600001D01*
X132263855Y-106600001D02*
X132263855Y-106295239D01*
X132263855Y-106295239D02*
X131463855Y-106295239D01*
X131463855Y-106295239D02*
X131463855Y-106561905D01*
X131463855Y-106561905D02*
X131501950Y-106638096D01*
X131501950Y-106638096D02*
X131540045Y-106676191D01*
X131540045Y-106676191D02*
X131616236Y-106714286D01*
X131616236Y-106714286D02*
X131692426Y-106714286D01*
X131692426Y-106714286D02*
X131768617Y-106676191D01*
X131768617Y-106676191D02*
X131806712Y-106638096D01*
X131806712Y-106638096D02*
X131844807Y-106561905D01*
X131844807Y-106561905D02*
X131844807Y-106295239D01*
X131501950Y-107514286D02*
X131463855Y-107438096D01*
X131463855Y-107438096D02*
X131463855Y-107323810D01*
X131463855Y-107323810D02*
X131501950Y-107209524D01*
X131501950Y-107209524D02*
X131578140Y-107133334D01*
X131578140Y-107133334D02*
X131654331Y-107095239D01*
X131654331Y-107095239D02*
X131806712Y-107057143D01*
X131806712Y-107057143D02*
X131920998Y-107057143D01*
X131920998Y-107057143D02*
X132073379Y-107095239D01*
X132073379Y-107095239D02*
X132149569Y-107133334D01*
X132149569Y-107133334D02*
X132225760Y-107209524D01*
X132225760Y-107209524D02*
X132263855Y-107323810D01*
X132263855Y-107323810D02*
X132263855Y-107400001D01*
X132263855Y-107400001D02*
X132225760Y-107514286D01*
X132225760Y-107514286D02*
X132187664Y-107552382D01*
X132187664Y-107552382D02*
X131920998Y-107552382D01*
X131920998Y-107552382D02*
X131920998Y-107400001D01*
X132035283Y-107857143D02*
X132035283Y-108238096D01*
X132263855Y-107780953D02*
X131463855Y-108047620D01*
X131463855Y-108047620D02*
X132263855Y-108314286D01*
X131959093Y-108580953D02*
X131959093Y-109190477D01*
X131463855Y-109914286D02*
X131463855Y-109761905D01*
X131463855Y-109761905D02*
X131501950Y-109685714D01*
X131501950Y-109685714D02*
X131540045Y-109647619D01*
X131540045Y-109647619D02*
X131654331Y-109571429D01*
X131654331Y-109571429D02*
X131806712Y-109533333D01*
X131806712Y-109533333D02*
X132111474Y-109533333D01*
X132111474Y-109533333D02*
X132187664Y-109571429D01*
X132187664Y-109571429D02*
X132225760Y-109609524D01*
X132225760Y-109609524D02*
X132263855Y-109685714D01*
X132263855Y-109685714D02*
X132263855Y-109838095D01*
X132263855Y-109838095D02*
X132225760Y-109914286D01*
X132225760Y-109914286D02*
X132187664Y-109952381D01*
X132187664Y-109952381D02*
X132111474Y-109990476D01*
X132111474Y-109990476D02*
X131920998Y-109990476D01*
X131920998Y-109990476D02*
X131844807Y-109952381D01*
X131844807Y-109952381D02*
X131806712Y-109914286D01*
X131806712Y-109914286D02*
X131768617Y-109838095D01*
X131768617Y-109838095D02*
X131768617Y-109685714D01*
X131768617Y-109685714D02*
X131806712Y-109609524D01*
X131806712Y-109609524D02*
X131844807Y-109571429D01*
X131844807Y-109571429D02*
X131920998Y-109533333D01*
X131730521Y-110676191D02*
X132263855Y-110676191D01*
X131425760Y-110485715D02*
X131997188Y-110295238D01*
X131997188Y-110295238D02*
X131997188Y-110790477D01*
X132263855Y-112047620D02*
X131844807Y-112047620D01*
X131844807Y-112047620D02*
X131768617Y-112009525D01*
X131768617Y-112009525D02*
X131730521Y-111933334D01*
X131730521Y-111933334D02*
X131730521Y-111780953D01*
X131730521Y-111780953D02*
X131768617Y-111704763D01*
X132225760Y-112047620D02*
X132263855Y-111971429D01*
X132263855Y-111971429D02*
X132263855Y-111780953D01*
X132263855Y-111780953D02*
X132225760Y-111704763D01*
X132225760Y-111704763D02*
X132149569Y-111666667D01*
X132149569Y-111666667D02*
X132073379Y-111666667D01*
X132073379Y-111666667D02*
X131997188Y-111704763D01*
X131997188Y-111704763D02*
X131959093Y-111780953D01*
X131959093Y-111780953D02*
X131959093Y-111971429D01*
X131959093Y-111971429D02*
X131920998Y-112047620D01*
X132263855Y-112771430D02*
X131463855Y-112771430D01*
X132225760Y-112771430D02*
X132263855Y-112695239D01*
X132263855Y-112695239D02*
X132263855Y-112542858D01*
X132263855Y-112542858D02*
X132225760Y-112466668D01*
X132225760Y-112466668D02*
X132187664Y-112428573D01*
X132187664Y-112428573D02*
X132111474Y-112390477D01*
X132111474Y-112390477D02*
X131882902Y-112390477D01*
X131882902Y-112390477D02*
X131806712Y-112428573D01*
X131806712Y-112428573D02*
X131768617Y-112466668D01*
X131768617Y-112466668D02*
X131730521Y-112542858D01*
X131730521Y-112542858D02*
X131730521Y-112695239D01*
X131730521Y-112695239D02*
X131768617Y-112771430D01*
X132263855Y-113495240D02*
X131844807Y-113495240D01*
X131844807Y-113495240D02*
X131768617Y-113457145D01*
X131768617Y-113457145D02*
X131730521Y-113380954D01*
X131730521Y-113380954D02*
X131730521Y-113228573D01*
X131730521Y-113228573D02*
X131768617Y-113152383D01*
X132225760Y-113495240D02*
X132263855Y-113419049D01*
X132263855Y-113419049D02*
X132263855Y-113228573D01*
X132263855Y-113228573D02*
X132225760Y-113152383D01*
X132225760Y-113152383D02*
X132149569Y-113114287D01*
X132149569Y-113114287D02*
X132073379Y-113114287D01*
X132073379Y-113114287D02*
X131997188Y-113152383D01*
X131997188Y-113152383D02*
X131959093Y-113228573D01*
X131959093Y-113228573D02*
X131959093Y-113419049D01*
X131959093Y-113419049D02*
X131920998Y-113495240D01*
X131730521Y-113876193D02*
X132530521Y-113876193D01*
X131768617Y-113876193D02*
X131730521Y-113952383D01*
X131730521Y-113952383D02*
X131730521Y-114104764D01*
X131730521Y-114104764D02*
X131768617Y-114180955D01*
X131768617Y-114180955D02*
X131806712Y-114219050D01*
X131806712Y-114219050D02*
X131882902Y-114257145D01*
X131882902Y-114257145D02*
X132111474Y-114257145D01*
X132111474Y-114257145D02*
X132187664Y-114219050D01*
X132187664Y-114219050D02*
X132225760Y-114180955D01*
X132225760Y-114180955D02*
X132263855Y-114104764D01*
X132263855Y-114104764D02*
X132263855Y-113952383D01*
X132263855Y-113952383D02*
X132225760Y-113876193D01*
X131730521Y-114485717D02*
X131730521Y-114790479D01*
X131463855Y-114600003D02*
X132149569Y-114600003D01*
X132149569Y-114600003D02*
X132225760Y-114638098D01*
X132225760Y-114638098D02*
X132263855Y-114714288D01*
X132263855Y-114714288D02*
X132263855Y-114790479D01*
X132225760Y-115361908D02*
X132263855Y-115285717D01*
X132263855Y-115285717D02*
X132263855Y-115133336D01*
X132263855Y-115133336D02*
X132225760Y-115057146D01*
X132225760Y-115057146D02*
X132149569Y-115019050D01*
X132149569Y-115019050D02*
X131844807Y-115019050D01*
X131844807Y-115019050D02*
X131768617Y-115057146D01*
X131768617Y-115057146D02*
X131730521Y-115133336D01*
X131730521Y-115133336D02*
X131730521Y-115285717D01*
X131730521Y-115285717D02*
X131768617Y-115361908D01*
X131768617Y-115361908D02*
X131844807Y-115400003D01*
X131844807Y-115400003D02*
X131920998Y-115400003D01*
X131920998Y-115400003D02*
X131997188Y-115019050D01*
X132263855Y-115742860D02*
X131730521Y-115742860D01*
X131882902Y-115742860D02*
X131806712Y-115780955D01*
X131806712Y-115780955D02*
X131768617Y-115819050D01*
X131768617Y-115819050D02*
X131730521Y-115895241D01*
X131730521Y-115895241D02*
X131730521Y-115971431D01*
X133863855Y-94733333D02*
X133063855Y-94733333D01*
X133444807Y-94733333D02*
X133444807Y-95190476D01*
X133863855Y-95190476D02*
X133063855Y-95190476D01*
X133863855Y-95571428D02*
X133063855Y-95571428D01*
X133063855Y-95571428D02*
X133635283Y-95838094D01*
X133635283Y-95838094D02*
X133063855Y-96104761D01*
X133063855Y-96104761D02*
X133863855Y-96104761D01*
X133863855Y-96485714D02*
X133063855Y-96485714D01*
X133863855Y-97247618D02*
X133863855Y-96866666D01*
X133863855Y-96866666D02*
X133063855Y-96866666D01*
X133063855Y-97514285D02*
X133711474Y-97514285D01*
X133711474Y-97514285D02*
X133787664Y-97552380D01*
X133787664Y-97552380D02*
X133825760Y-97590475D01*
X133825760Y-97590475D02*
X133863855Y-97666666D01*
X133863855Y-97666666D02*
X133863855Y-97819047D01*
X133863855Y-97819047D02*
X133825760Y-97895237D01*
X133825760Y-97895237D02*
X133787664Y-97933332D01*
X133787664Y-97933332D02*
X133711474Y-97971428D01*
X133711474Y-97971428D02*
X133063855Y-97971428D01*
X133444807Y-99228570D02*
X133482902Y-99342856D01*
X133482902Y-99342856D02*
X133520998Y-99380951D01*
X133520998Y-99380951D02*
X133597188Y-99419047D01*
X133597188Y-99419047D02*
X133711474Y-99419047D01*
X133711474Y-99419047D02*
X133787664Y-99380951D01*
X133787664Y-99380951D02*
X133825760Y-99342856D01*
X133825760Y-99342856D02*
X133863855Y-99266666D01*
X133863855Y-99266666D02*
X133863855Y-98961904D01*
X133863855Y-98961904D02*
X133063855Y-98961904D01*
X133063855Y-98961904D02*
X133063855Y-99228570D01*
X133063855Y-99228570D02*
X133101950Y-99304761D01*
X133101950Y-99304761D02*
X133140045Y-99342856D01*
X133140045Y-99342856D02*
X133216236Y-99380951D01*
X133216236Y-99380951D02*
X133292426Y-99380951D01*
X133292426Y-99380951D02*
X133368617Y-99342856D01*
X133368617Y-99342856D02*
X133406712Y-99304761D01*
X133406712Y-99304761D02*
X133444807Y-99228570D01*
X133444807Y-99228570D02*
X133444807Y-98961904D01*
X133101950Y-100180951D02*
X133063855Y-100104761D01*
X133063855Y-100104761D02*
X133063855Y-99990475D01*
X133063855Y-99990475D02*
X133101950Y-99876189D01*
X133101950Y-99876189D02*
X133178140Y-99799999D01*
X133178140Y-99799999D02*
X133254331Y-99761904D01*
X133254331Y-99761904D02*
X133406712Y-99723808D01*
X133406712Y-99723808D02*
X133520998Y-99723808D01*
X133520998Y-99723808D02*
X133673379Y-99761904D01*
X133673379Y-99761904D02*
X133749569Y-99799999D01*
X133749569Y-99799999D02*
X133825760Y-99876189D01*
X133825760Y-99876189D02*
X133863855Y-99990475D01*
X133863855Y-99990475D02*
X133863855Y-100066666D01*
X133863855Y-100066666D02*
X133825760Y-100180951D01*
X133825760Y-100180951D02*
X133787664Y-100219047D01*
X133787664Y-100219047D02*
X133520998Y-100219047D01*
X133520998Y-100219047D02*
X133520998Y-100066666D01*
X133635283Y-100523808D02*
X133635283Y-100904761D01*
X133863855Y-100447618D02*
X133063855Y-100714285D01*
X133063855Y-100714285D02*
X133863855Y-100980951D01*
X133063855Y-101590475D02*
X133063855Y-101438094D01*
X133063855Y-101438094D02*
X133101950Y-101361903D01*
X133101950Y-101361903D02*
X133140045Y-101323808D01*
X133140045Y-101323808D02*
X133254331Y-101247618D01*
X133254331Y-101247618D02*
X133406712Y-101209522D01*
X133406712Y-101209522D02*
X133711474Y-101209522D01*
X133711474Y-101209522D02*
X133787664Y-101247618D01*
X133787664Y-101247618D02*
X133825760Y-101285713D01*
X133825760Y-101285713D02*
X133863855Y-101361903D01*
X133863855Y-101361903D02*
X133863855Y-101514284D01*
X133863855Y-101514284D02*
X133825760Y-101590475D01*
X133825760Y-101590475D02*
X133787664Y-101628570D01*
X133787664Y-101628570D02*
X133711474Y-101666665D01*
X133711474Y-101666665D02*
X133520998Y-101666665D01*
X133520998Y-101666665D02*
X133444807Y-101628570D01*
X133444807Y-101628570D02*
X133406712Y-101590475D01*
X133406712Y-101590475D02*
X133368617Y-101514284D01*
X133368617Y-101514284D02*
X133368617Y-101361903D01*
X133368617Y-101361903D02*
X133406712Y-101285713D01*
X133406712Y-101285713D02*
X133444807Y-101247618D01*
X133444807Y-101247618D02*
X133520998Y-101209522D01*
X133330521Y-102352380D02*
X133863855Y-102352380D01*
X133025760Y-102161904D02*
X133597188Y-101971427D01*
X133597188Y-101971427D02*
X133597188Y-102466666D01*
X133559093Y-102771428D02*
X133559093Y-103380952D01*
X133863855Y-104180951D02*
X133863855Y-103723808D01*
X133863855Y-103952380D02*
X133063855Y-103952380D01*
X133063855Y-103952380D02*
X133178140Y-103876189D01*
X133178140Y-103876189D02*
X133254331Y-103799999D01*
X133254331Y-103799999D02*
X133292426Y-103723808D01*
X133787664Y-104523809D02*
X133825760Y-104561904D01*
X133825760Y-104561904D02*
X133863855Y-104523809D01*
X133863855Y-104523809D02*
X133825760Y-104485713D01*
X133825760Y-104485713D02*
X133787664Y-104523809D01*
X133787664Y-104523809D02*
X133863855Y-104523809D01*
X133063855Y-105057142D02*
X133063855Y-105133332D01*
X133063855Y-105133332D02*
X133101950Y-105209523D01*
X133101950Y-105209523D02*
X133140045Y-105247618D01*
X133140045Y-105247618D02*
X133216236Y-105285713D01*
X133216236Y-105285713D02*
X133368617Y-105323808D01*
X133368617Y-105323808D02*
X133559093Y-105323808D01*
X133559093Y-105323808D02*
X133711474Y-105285713D01*
X133711474Y-105285713D02*
X133787664Y-105247618D01*
X133787664Y-105247618D02*
X133825760Y-105209523D01*
X133825760Y-105209523D02*
X133863855Y-105133332D01*
X133863855Y-105133332D02*
X133863855Y-105057142D01*
X133863855Y-105057142D02*
X133825760Y-104980951D01*
X133825760Y-104980951D02*
X133787664Y-104942856D01*
X133787664Y-104942856D02*
X133711474Y-104904761D01*
X133711474Y-104904761D02*
X133559093Y-104866665D01*
X133559093Y-104866665D02*
X133368617Y-104866665D01*
X133368617Y-104866665D02*
X133216236Y-104904761D01*
X133216236Y-104904761D02*
X133140045Y-104942856D01*
X133140045Y-104942856D02*
X133101950Y-104980951D01*
X133101950Y-104980951D02*
X133063855Y-105057142D01*
X133559093Y-105666666D02*
X133559093Y-106276190D01*
X133063855Y-106542856D02*
X133063855Y-106999999D01*
X133863855Y-106771427D02*
X133063855Y-106771427D01*
X133863855Y-107266666D02*
X133063855Y-107266666D01*
X133063855Y-107266666D02*
X133063855Y-107571428D01*
X133063855Y-107571428D02*
X133101950Y-107647618D01*
X133101950Y-107647618D02*
X133140045Y-107685713D01*
X133140045Y-107685713D02*
X133216236Y-107723809D01*
X133216236Y-107723809D02*
X133330521Y-107723809D01*
X133330521Y-107723809D02*
X133406712Y-107685713D01*
X133406712Y-107685713D02*
X133444807Y-107647618D01*
X133444807Y-107647618D02*
X133482902Y-107571428D01*
X133482902Y-107571428D02*
X133482902Y-107266666D01*
X133140045Y-108028570D02*
X133101950Y-108066666D01*
X133101950Y-108066666D02*
X133063855Y-108142856D01*
X133063855Y-108142856D02*
X133063855Y-108333332D01*
X133063855Y-108333332D02*
X133101950Y-108409523D01*
X133101950Y-108409523D02*
X133140045Y-108447618D01*
X133140045Y-108447618D02*
X133216236Y-108485713D01*
X133216236Y-108485713D02*
X133292426Y-108485713D01*
X133292426Y-108485713D02*
X133406712Y-108447618D01*
X133406712Y-108447618D02*
X133863855Y-107990475D01*
X133863855Y-107990475D02*
X133863855Y-108485713D01*
X133863855Y-109247618D02*
X133863855Y-108790475D01*
X133863855Y-109019047D02*
X133063855Y-109019047D01*
X133063855Y-109019047D02*
X133178140Y-108942856D01*
X133178140Y-108942856D02*
X133254331Y-108866666D01*
X133254331Y-108866666D02*
X133292426Y-108790475D01*
X133863855Y-109590476D02*
X133063855Y-109590476D01*
X133063855Y-109590476D02*
X133863855Y-110047619D01*
X133863855Y-110047619D02*
X133063855Y-110047619D01*
X133825760Y-110390475D02*
X133863855Y-110504761D01*
X133863855Y-110504761D02*
X133863855Y-110695237D01*
X133863855Y-110695237D02*
X133825760Y-110771428D01*
X133825760Y-110771428D02*
X133787664Y-110809523D01*
X133787664Y-110809523D02*
X133711474Y-110847618D01*
X133711474Y-110847618D02*
X133635283Y-110847618D01*
X133635283Y-110847618D02*
X133559093Y-110809523D01*
X133559093Y-110809523D02*
X133520998Y-110771428D01*
X133520998Y-110771428D02*
X133482902Y-110695237D01*
X133482902Y-110695237D02*
X133444807Y-110542856D01*
X133444807Y-110542856D02*
X133406712Y-110466666D01*
X133406712Y-110466666D02*
X133368617Y-110428571D01*
X133368617Y-110428571D02*
X133292426Y-110390475D01*
X133292426Y-110390475D02*
X133216236Y-110390475D01*
X133216236Y-110390475D02*
X133140045Y-110428571D01*
X133140045Y-110428571D02*
X133101950Y-110466666D01*
X133101950Y-110466666D02*
X133063855Y-110542856D01*
X133063855Y-110542856D02*
X133063855Y-110733333D01*
X133063855Y-110733333D02*
X133101950Y-110847618D01*
X133825760Y-111761904D02*
X133863855Y-111838095D01*
X133863855Y-111838095D02*
X133863855Y-111990476D01*
X133863855Y-111990476D02*
X133825760Y-112066666D01*
X133825760Y-112066666D02*
X133749569Y-112104762D01*
X133749569Y-112104762D02*
X133711474Y-112104762D01*
X133711474Y-112104762D02*
X133635283Y-112066666D01*
X133635283Y-112066666D02*
X133597188Y-111990476D01*
X133597188Y-111990476D02*
X133597188Y-111876190D01*
X133597188Y-111876190D02*
X133559093Y-111800000D01*
X133559093Y-111800000D02*
X133482902Y-111761904D01*
X133482902Y-111761904D02*
X133444807Y-111761904D01*
X133444807Y-111761904D02*
X133368617Y-111800000D01*
X133368617Y-111800000D02*
X133330521Y-111876190D01*
X133330521Y-111876190D02*
X133330521Y-111990476D01*
X133330521Y-111990476D02*
X133368617Y-112066666D01*
X133863855Y-112561904D02*
X133825760Y-112485714D01*
X133825760Y-112485714D02*
X133787664Y-112447619D01*
X133787664Y-112447619D02*
X133711474Y-112409523D01*
X133711474Y-112409523D02*
X133482902Y-112409523D01*
X133482902Y-112409523D02*
X133406712Y-112447619D01*
X133406712Y-112447619D02*
X133368617Y-112485714D01*
X133368617Y-112485714D02*
X133330521Y-112561904D01*
X133330521Y-112561904D02*
X133330521Y-112676190D01*
X133330521Y-112676190D02*
X133368617Y-112752381D01*
X133368617Y-112752381D02*
X133406712Y-112790476D01*
X133406712Y-112790476D02*
X133482902Y-112828571D01*
X133482902Y-112828571D02*
X133711474Y-112828571D01*
X133711474Y-112828571D02*
X133787664Y-112790476D01*
X133787664Y-112790476D02*
X133825760Y-112752381D01*
X133825760Y-112752381D02*
X133863855Y-112676190D01*
X133863855Y-112676190D02*
X133863855Y-112561904D01*
X133825760Y-113514286D02*
X133863855Y-113438095D01*
X133863855Y-113438095D02*
X133863855Y-113285714D01*
X133863855Y-113285714D02*
X133825760Y-113209524D01*
X133825760Y-113209524D02*
X133787664Y-113171429D01*
X133787664Y-113171429D02*
X133711474Y-113133333D01*
X133711474Y-113133333D02*
X133482902Y-113133333D01*
X133482902Y-113133333D02*
X133406712Y-113171429D01*
X133406712Y-113171429D02*
X133368617Y-113209524D01*
X133368617Y-113209524D02*
X133330521Y-113285714D01*
X133330521Y-113285714D02*
X133330521Y-113438095D01*
X133330521Y-113438095D02*
X133368617Y-113514286D01*
X133863855Y-113857143D02*
X133063855Y-113857143D01*
X133559093Y-113933333D02*
X133863855Y-114161905D01*
X133330521Y-114161905D02*
X133635283Y-113857143D01*
X133825760Y-114809524D02*
X133863855Y-114733333D01*
X133863855Y-114733333D02*
X133863855Y-114580952D01*
X133863855Y-114580952D02*
X133825760Y-114504762D01*
X133825760Y-114504762D02*
X133749569Y-114466666D01*
X133749569Y-114466666D02*
X133444807Y-114466666D01*
X133444807Y-114466666D02*
X133368617Y-114504762D01*
X133368617Y-114504762D02*
X133330521Y-114580952D01*
X133330521Y-114580952D02*
X133330521Y-114733333D01*
X133330521Y-114733333D02*
X133368617Y-114809524D01*
X133368617Y-114809524D02*
X133444807Y-114847619D01*
X133444807Y-114847619D02*
X133520998Y-114847619D01*
X133520998Y-114847619D02*
X133597188Y-114466666D01*
X133330521Y-115076190D02*
X133330521Y-115380952D01*
X133063855Y-115190476D02*
X133749569Y-115190476D01*
X133749569Y-115190476D02*
X133825760Y-115228571D01*
X133825760Y-115228571D02*
X133863855Y-115304761D01*
X133863855Y-115304761D02*
X133863855Y-115380952D01*
X164444807Y-94028569D02*
X164444807Y-94295235D01*
X164863855Y-94409521D02*
X164863855Y-94028569D01*
X164863855Y-94028569D02*
X164063855Y-94028569D01*
X164063855Y-94028569D02*
X164063855Y-94409521D01*
X164787664Y-95209522D02*
X164825760Y-95171426D01*
X164825760Y-95171426D02*
X164863855Y-95057141D01*
X164863855Y-95057141D02*
X164863855Y-94980950D01*
X164863855Y-94980950D02*
X164825760Y-94866664D01*
X164825760Y-94866664D02*
X164749569Y-94790474D01*
X164749569Y-94790474D02*
X164673379Y-94752379D01*
X164673379Y-94752379D02*
X164520998Y-94714283D01*
X164520998Y-94714283D02*
X164406712Y-94714283D01*
X164406712Y-94714283D02*
X164254331Y-94752379D01*
X164254331Y-94752379D02*
X164178140Y-94790474D01*
X164178140Y-94790474D02*
X164101950Y-94866664D01*
X164101950Y-94866664D02*
X164063855Y-94980950D01*
X164063855Y-94980950D02*
X164063855Y-95057141D01*
X164063855Y-95057141D02*
X164101950Y-95171426D01*
X164101950Y-95171426D02*
X164140045Y-95209522D01*
X164063855Y-96542855D02*
X164063855Y-96161903D01*
X164063855Y-96161903D02*
X164444807Y-96123807D01*
X164444807Y-96123807D02*
X164406712Y-96161903D01*
X164406712Y-96161903D02*
X164368617Y-96238093D01*
X164368617Y-96238093D02*
X164368617Y-96428569D01*
X164368617Y-96428569D02*
X164406712Y-96504760D01*
X164406712Y-96504760D02*
X164444807Y-96542855D01*
X164444807Y-96542855D02*
X164520998Y-96580950D01*
X164520998Y-96580950D02*
X164711474Y-96580950D01*
X164711474Y-96580950D02*
X164787664Y-96542855D01*
X164787664Y-96542855D02*
X164825760Y-96504760D01*
X164825760Y-96504760D02*
X164863855Y-96428569D01*
X164863855Y-96428569D02*
X164863855Y-96238093D01*
X164863855Y-96238093D02*
X164825760Y-96161903D01*
X164825760Y-96161903D02*
X164787664Y-96123807D01*
X164063855Y-97266665D02*
X164063855Y-97114284D01*
X164063855Y-97114284D02*
X164101950Y-97038093D01*
X164101950Y-97038093D02*
X164140045Y-96999998D01*
X164140045Y-96999998D02*
X164254331Y-96923808D01*
X164254331Y-96923808D02*
X164406712Y-96885712D01*
X164406712Y-96885712D02*
X164711474Y-96885712D01*
X164711474Y-96885712D02*
X164787664Y-96923808D01*
X164787664Y-96923808D02*
X164825760Y-96961903D01*
X164825760Y-96961903D02*
X164863855Y-97038093D01*
X164863855Y-97038093D02*
X164863855Y-97190474D01*
X164863855Y-97190474D02*
X164825760Y-97266665D01*
X164825760Y-97266665D02*
X164787664Y-97304760D01*
X164787664Y-97304760D02*
X164711474Y-97342855D01*
X164711474Y-97342855D02*
X164520998Y-97342855D01*
X164520998Y-97342855D02*
X164444807Y-97304760D01*
X164444807Y-97304760D02*
X164406712Y-97266665D01*
X164406712Y-97266665D02*
X164368617Y-97190474D01*
X164368617Y-97190474D02*
X164368617Y-97038093D01*
X164368617Y-97038093D02*
X164406712Y-96961903D01*
X164406712Y-96961903D02*
X164444807Y-96923808D01*
X164444807Y-96923808D02*
X164520998Y-96885712D01*
X164559093Y-97685713D02*
X164559093Y-98295237D01*
X164330521Y-98676189D02*
X165130521Y-98676189D01*
X164368617Y-98676189D02*
X164330521Y-98752379D01*
X164330521Y-98752379D02*
X164330521Y-98904760D01*
X164330521Y-98904760D02*
X164368617Y-98980951D01*
X164368617Y-98980951D02*
X164406712Y-99019046D01*
X164406712Y-99019046D02*
X164482902Y-99057141D01*
X164482902Y-99057141D02*
X164711474Y-99057141D01*
X164711474Y-99057141D02*
X164787664Y-99019046D01*
X164787664Y-99019046D02*
X164825760Y-98980951D01*
X164825760Y-98980951D02*
X164863855Y-98904760D01*
X164863855Y-98904760D02*
X164863855Y-98752379D01*
X164863855Y-98752379D02*
X164825760Y-98676189D01*
X164863855Y-99399999D02*
X164330521Y-99399999D01*
X164063855Y-99399999D02*
X164101950Y-99361903D01*
X164101950Y-99361903D02*
X164140045Y-99399999D01*
X164140045Y-99399999D02*
X164101950Y-99438094D01*
X164101950Y-99438094D02*
X164063855Y-99399999D01*
X164063855Y-99399999D02*
X164140045Y-99399999D01*
X164330521Y-99780951D02*
X164863855Y-99780951D01*
X164406712Y-99780951D02*
X164368617Y-99819046D01*
X164368617Y-99819046D02*
X164330521Y-99895236D01*
X164330521Y-99895236D02*
X164330521Y-100009522D01*
X164330521Y-100009522D02*
X164368617Y-100085713D01*
X164368617Y-100085713D02*
X164444807Y-100123808D01*
X164444807Y-100123808D02*
X164863855Y-100123808D01*
X164863855Y-101114285D02*
X164063855Y-101114285D01*
X164863855Y-101457142D02*
X164444807Y-101457142D01*
X164444807Y-101457142D02*
X164368617Y-101419047D01*
X164368617Y-101419047D02*
X164330521Y-101342856D01*
X164330521Y-101342856D02*
X164330521Y-101228570D01*
X164330521Y-101228570D02*
X164368617Y-101152380D01*
X164368617Y-101152380D02*
X164406712Y-101114285D01*
X164825760Y-102142857D02*
X164863855Y-102066666D01*
X164863855Y-102066666D02*
X164863855Y-101914285D01*
X164863855Y-101914285D02*
X164825760Y-101838095D01*
X164825760Y-101838095D02*
X164749569Y-101799999D01*
X164749569Y-101799999D02*
X164444807Y-101799999D01*
X164444807Y-101799999D02*
X164368617Y-101838095D01*
X164368617Y-101838095D02*
X164330521Y-101914285D01*
X164330521Y-101914285D02*
X164330521Y-102066666D01*
X164330521Y-102066666D02*
X164368617Y-102142857D01*
X164368617Y-102142857D02*
X164444807Y-102180952D01*
X164444807Y-102180952D02*
X164520998Y-102180952D01*
X164520998Y-102180952D02*
X164597188Y-101799999D01*
X164863855Y-102866666D02*
X164444807Y-102866666D01*
X164444807Y-102866666D02*
X164368617Y-102828571D01*
X164368617Y-102828571D02*
X164330521Y-102752380D01*
X164330521Y-102752380D02*
X164330521Y-102599999D01*
X164330521Y-102599999D02*
X164368617Y-102523809D01*
X164825760Y-102866666D02*
X164863855Y-102790475D01*
X164863855Y-102790475D02*
X164863855Y-102599999D01*
X164863855Y-102599999D02*
X164825760Y-102523809D01*
X164825760Y-102523809D02*
X164749569Y-102485713D01*
X164749569Y-102485713D02*
X164673379Y-102485713D01*
X164673379Y-102485713D02*
X164597188Y-102523809D01*
X164597188Y-102523809D02*
X164559093Y-102599999D01*
X164559093Y-102599999D02*
X164559093Y-102790475D01*
X164559093Y-102790475D02*
X164520998Y-102866666D01*
X164863855Y-103590476D02*
X164063855Y-103590476D01*
X164825760Y-103590476D02*
X164863855Y-103514285D01*
X164863855Y-103514285D02*
X164863855Y-103361904D01*
X164863855Y-103361904D02*
X164825760Y-103285714D01*
X164825760Y-103285714D02*
X164787664Y-103247619D01*
X164787664Y-103247619D02*
X164711474Y-103209523D01*
X164711474Y-103209523D02*
X164482902Y-103209523D01*
X164482902Y-103209523D02*
X164406712Y-103247619D01*
X164406712Y-103247619D02*
X164368617Y-103285714D01*
X164368617Y-103285714D02*
X164330521Y-103361904D01*
X164330521Y-103361904D02*
X164330521Y-103514285D01*
X164330521Y-103514285D02*
X164368617Y-103590476D01*
X164825760Y-104276191D02*
X164863855Y-104200000D01*
X164863855Y-104200000D02*
X164863855Y-104047619D01*
X164863855Y-104047619D02*
X164825760Y-103971429D01*
X164825760Y-103971429D02*
X164749569Y-103933333D01*
X164749569Y-103933333D02*
X164444807Y-103933333D01*
X164444807Y-103933333D02*
X164368617Y-103971429D01*
X164368617Y-103971429D02*
X164330521Y-104047619D01*
X164330521Y-104047619D02*
X164330521Y-104200000D01*
X164330521Y-104200000D02*
X164368617Y-104276191D01*
X164368617Y-104276191D02*
X164444807Y-104314286D01*
X164444807Y-104314286D02*
X164520998Y-104314286D01*
X164520998Y-104314286D02*
X164597188Y-103933333D01*
X164863855Y-104657143D02*
X164330521Y-104657143D01*
X164482902Y-104657143D02*
X164406712Y-104695238D01*
X164406712Y-104695238D02*
X164368617Y-104733333D01*
X164368617Y-104733333D02*
X164330521Y-104809524D01*
X164330521Y-104809524D02*
X164330521Y-104885714D01*
X164863855Y-106371429D02*
X164330521Y-106371429D01*
X164482902Y-106371429D02*
X164406712Y-106409524D01*
X164406712Y-106409524D02*
X164368617Y-106447619D01*
X164368617Y-106447619D02*
X164330521Y-106523810D01*
X164330521Y-106523810D02*
X164330521Y-106600000D01*
X164825760Y-107171429D02*
X164863855Y-107095238D01*
X164863855Y-107095238D02*
X164863855Y-106942857D01*
X164863855Y-106942857D02*
X164825760Y-106866667D01*
X164825760Y-106866667D02*
X164749569Y-106828571D01*
X164749569Y-106828571D02*
X164444807Y-106828571D01*
X164444807Y-106828571D02*
X164368617Y-106866667D01*
X164368617Y-106866667D02*
X164330521Y-106942857D01*
X164330521Y-106942857D02*
X164330521Y-107095238D01*
X164330521Y-107095238D02*
X164368617Y-107171429D01*
X164368617Y-107171429D02*
X164444807Y-107209524D01*
X164444807Y-107209524D02*
X164520998Y-107209524D01*
X164520998Y-107209524D02*
X164597188Y-106828571D01*
X164330521Y-107476190D02*
X164863855Y-107666666D01*
X164863855Y-107666666D02*
X164330521Y-107857143D01*
X164787664Y-109228572D02*
X164825760Y-109190476D01*
X164825760Y-109190476D02*
X164863855Y-109076191D01*
X164863855Y-109076191D02*
X164863855Y-109000000D01*
X164863855Y-109000000D02*
X164825760Y-108885714D01*
X164825760Y-108885714D02*
X164749569Y-108809524D01*
X164749569Y-108809524D02*
X164673379Y-108771429D01*
X164673379Y-108771429D02*
X164520998Y-108733333D01*
X164520998Y-108733333D02*
X164406712Y-108733333D01*
X164406712Y-108733333D02*
X164254331Y-108771429D01*
X164254331Y-108771429D02*
X164178140Y-108809524D01*
X164178140Y-108809524D02*
X164101950Y-108885714D01*
X164101950Y-108885714D02*
X164063855Y-109000000D01*
X164063855Y-109000000D02*
X164063855Y-109076191D01*
X164063855Y-109076191D02*
X164101950Y-109190476D01*
X164101950Y-109190476D02*
X164140045Y-109228572D01*
X164140045Y-110752381D02*
X164101950Y-110790477D01*
X164101950Y-110790477D02*
X164063855Y-110866667D01*
X164063855Y-110866667D02*
X164063855Y-111057143D01*
X164063855Y-111057143D02*
X164101950Y-111133334D01*
X164101950Y-111133334D02*
X164140045Y-111171429D01*
X164140045Y-111171429D02*
X164216236Y-111209524D01*
X164216236Y-111209524D02*
X164292426Y-111209524D01*
X164292426Y-111209524D02*
X164406712Y-111171429D01*
X164406712Y-111171429D02*
X164863855Y-110714286D01*
X164863855Y-110714286D02*
X164863855Y-111209524D01*
X164063855Y-111704763D02*
X164063855Y-111780953D01*
X164063855Y-111780953D02*
X164101950Y-111857144D01*
X164101950Y-111857144D02*
X164140045Y-111895239D01*
X164140045Y-111895239D02*
X164216236Y-111933334D01*
X164216236Y-111933334D02*
X164368617Y-111971429D01*
X164368617Y-111971429D02*
X164559093Y-111971429D01*
X164559093Y-111971429D02*
X164711474Y-111933334D01*
X164711474Y-111933334D02*
X164787664Y-111895239D01*
X164787664Y-111895239D02*
X164825760Y-111857144D01*
X164825760Y-111857144D02*
X164863855Y-111780953D01*
X164863855Y-111780953D02*
X164863855Y-111704763D01*
X164863855Y-111704763D02*
X164825760Y-111628572D01*
X164825760Y-111628572D02*
X164787664Y-111590477D01*
X164787664Y-111590477D02*
X164711474Y-111552382D01*
X164711474Y-111552382D02*
X164559093Y-111514286D01*
X164559093Y-111514286D02*
X164368617Y-111514286D01*
X164368617Y-111514286D02*
X164216236Y-111552382D01*
X164216236Y-111552382D02*
X164140045Y-111590477D01*
X164140045Y-111590477D02*
X164101950Y-111628572D01*
X164101950Y-111628572D02*
X164063855Y-111704763D01*
X164140045Y-112276191D02*
X164101950Y-112314287D01*
X164101950Y-112314287D02*
X164063855Y-112390477D01*
X164063855Y-112390477D02*
X164063855Y-112580953D01*
X164063855Y-112580953D02*
X164101950Y-112657144D01*
X164101950Y-112657144D02*
X164140045Y-112695239D01*
X164140045Y-112695239D02*
X164216236Y-112733334D01*
X164216236Y-112733334D02*
X164292426Y-112733334D01*
X164292426Y-112733334D02*
X164406712Y-112695239D01*
X164406712Y-112695239D02*
X164863855Y-112238096D01*
X164863855Y-112238096D02*
X164863855Y-112733334D01*
X164063855Y-113419049D02*
X164063855Y-113266668D01*
X164063855Y-113266668D02*
X164101950Y-113190477D01*
X164101950Y-113190477D02*
X164140045Y-113152382D01*
X164140045Y-113152382D02*
X164254331Y-113076192D01*
X164254331Y-113076192D02*
X164406712Y-113038096D01*
X164406712Y-113038096D02*
X164711474Y-113038096D01*
X164711474Y-113038096D02*
X164787664Y-113076192D01*
X164787664Y-113076192D02*
X164825760Y-113114287D01*
X164825760Y-113114287D02*
X164863855Y-113190477D01*
X164863855Y-113190477D02*
X164863855Y-113342858D01*
X164863855Y-113342858D02*
X164825760Y-113419049D01*
X164825760Y-113419049D02*
X164787664Y-113457144D01*
X164787664Y-113457144D02*
X164711474Y-113495239D01*
X164711474Y-113495239D02*
X164520998Y-113495239D01*
X164520998Y-113495239D02*
X164444807Y-113457144D01*
X164444807Y-113457144D02*
X164406712Y-113419049D01*
X164406712Y-113419049D02*
X164368617Y-113342858D01*
X164368617Y-113342858D02*
X164368617Y-113190477D01*
X164368617Y-113190477D02*
X164406712Y-113114287D01*
X164406712Y-113114287D02*
X164444807Y-113076192D01*
X164444807Y-113076192D02*
X164520998Y-113038096D01*
X164559093Y-113838097D02*
X164559093Y-114447621D01*
X164863855Y-115247620D02*
X164863855Y-114790477D01*
X164863855Y-115019049D02*
X164063855Y-115019049D01*
X164063855Y-115019049D02*
X164178140Y-114942858D01*
X164178140Y-114942858D02*
X164254331Y-114866668D01*
X164254331Y-114866668D02*
X164292426Y-114790477D01*
X164063855Y-115742859D02*
X164063855Y-115819049D01*
X164063855Y-115819049D02*
X164101950Y-115895240D01*
X164101950Y-115895240D02*
X164140045Y-115933335D01*
X164140045Y-115933335D02*
X164216236Y-115971430D01*
X164216236Y-115971430D02*
X164368617Y-116009525D01*
X164368617Y-116009525D02*
X164559093Y-116009525D01*
X164559093Y-116009525D02*
X164711474Y-115971430D01*
X164711474Y-115971430D02*
X164787664Y-115933335D01*
X164787664Y-115933335D02*
X164825760Y-115895240D01*
X164825760Y-115895240D02*
X164863855Y-115819049D01*
X164863855Y-115819049D02*
X164863855Y-115742859D01*
X164863855Y-115742859D02*
X164825760Y-115666668D01*
X164825760Y-115666668D02*
X164787664Y-115628573D01*
X164787664Y-115628573D02*
X164711474Y-115590478D01*
X164711474Y-115590478D02*
X164559093Y-115552382D01*
X164559093Y-115552382D02*
X164368617Y-115552382D01*
X164368617Y-115552382D02*
X164216236Y-115590478D01*
X164216236Y-115590478D02*
X164140045Y-115628573D01*
X164140045Y-115628573D02*
X164101950Y-115666668D01*
X164101950Y-115666668D02*
X164063855Y-115742859D01*
X146833332Y-111912664D02*
X146871428Y-111950760D01*
X146871428Y-111950760D02*
X146985713Y-111988855D01*
X146985713Y-111988855D02*
X147061904Y-111988855D01*
X147061904Y-111988855D02*
X147176190Y-111950760D01*
X147176190Y-111950760D02*
X147252380Y-111874569D01*
X147252380Y-111874569D02*
X147290475Y-111798379D01*
X147290475Y-111798379D02*
X147328571Y-111645998D01*
X147328571Y-111645998D02*
X147328571Y-111531712D01*
X147328571Y-111531712D02*
X147290475Y-111379331D01*
X147290475Y-111379331D02*
X147252380Y-111303140D01*
X147252380Y-111303140D02*
X147176190Y-111226950D01*
X147176190Y-111226950D02*
X147061904Y-111188855D01*
X147061904Y-111188855D02*
X146985713Y-111188855D01*
X146985713Y-111188855D02*
X146871428Y-111226950D01*
X146871428Y-111226950D02*
X146833332Y-111265045D01*
X146147618Y-111455521D02*
X146147618Y-111988855D01*
X146338094Y-111150760D02*
X146528571Y-111722188D01*
X146528571Y-111722188D02*
X146033332Y-111722188D01*
X143193332Y-106737664D02*
X143231428Y-106775760D01*
X143231428Y-106775760D02*
X143345713Y-106813855D01*
X143345713Y-106813855D02*
X143421904Y-106813855D01*
X143421904Y-106813855D02*
X143536190Y-106775760D01*
X143536190Y-106775760D02*
X143612380Y-106699569D01*
X143612380Y-106699569D02*
X143650475Y-106623379D01*
X143650475Y-106623379D02*
X143688571Y-106470998D01*
X143688571Y-106470998D02*
X143688571Y-106356712D01*
X143688571Y-106356712D02*
X143650475Y-106204331D01*
X143650475Y-106204331D02*
X143612380Y-106128140D01*
X143612380Y-106128140D02*
X143536190Y-106051950D01*
X143536190Y-106051950D02*
X143421904Y-106013855D01*
X143421904Y-106013855D02*
X143345713Y-106013855D01*
X143345713Y-106013855D02*
X143231428Y-106051950D01*
X143231428Y-106051950D02*
X143193332Y-106090045D01*
X142736190Y-106356712D02*
X142812380Y-106318617D01*
X142812380Y-106318617D02*
X142850475Y-106280521D01*
X142850475Y-106280521D02*
X142888571Y-106204331D01*
X142888571Y-106204331D02*
X142888571Y-106166236D01*
X142888571Y-106166236D02*
X142850475Y-106090045D01*
X142850475Y-106090045D02*
X142812380Y-106051950D01*
X142812380Y-106051950D02*
X142736190Y-106013855D01*
X142736190Y-106013855D02*
X142583809Y-106013855D01*
X142583809Y-106013855D02*
X142507618Y-106051950D01*
X142507618Y-106051950D02*
X142469523Y-106090045D01*
X142469523Y-106090045D02*
X142431428Y-106166236D01*
X142431428Y-106166236D02*
X142431428Y-106204331D01*
X142431428Y-106204331D02*
X142469523Y-106280521D01*
X142469523Y-106280521D02*
X142507618Y-106318617D01*
X142507618Y-106318617D02*
X142583809Y-106356712D01*
X142583809Y-106356712D02*
X142736190Y-106356712D01*
X142736190Y-106356712D02*
X142812380Y-106394807D01*
X142812380Y-106394807D02*
X142850475Y-106432902D01*
X142850475Y-106432902D02*
X142888571Y-106509093D01*
X142888571Y-106509093D02*
X142888571Y-106661474D01*
X142888571Y-106661474D02*
X142850475Y-106737664D01*
X142850475Y-106737664D02*
X142812380Y-106775760D01*
X142812380Y-106775760D02*
X142736190Y-106813855D01*
X142736190Y-106813855D02*
X142583809Y-106813855D01*
X142583809Y-106813855D02*
X142507618Y-106775760D01*
X142507618Y-106775760D02*
X142469523Y-106737664D01*
X142469523Y-106737664D02*
X142431428Y-106661474D01*
X142431428Y-106661474D02*
X142431428Y-106509093D01*
X142431428Y-106509093D02*
X142469523Y-106432902D01*
X142469523Y-106432902D02*
X142507618Y-106394807D01*
X142507618Y-106394807D02*
X142583809Y-106356712D01*
X143193332Y-102337664D02*
X143231428Y-102375760D01*
X143231428Y-102375760D02*
X143345713Y-102413855D01*
X143345713Y-102413855D02*
X143421904Y-102413855D01*
X143421904Y-102413855D02*
X143536190Y-102375760D01*
X143536190Y-102375760D02*
X143612380Y-102299569D01*
X143612380Y-102299569D02*
X143650475Y-102223379D01*
X143650475Y-102223379D02*
X143688571Y-102070998D01*
X143688571Y-102070998D02*
X143688571Y-101956712D01*
X143688571Y-101956712D02*
X143650475Y-101804331D01*
X143650475Y-101804331D02*
X143612380Y-101728140D01*
X143612380Y-101728140D02*
X143536190Y-101651950D01*
X143536190Y-101651950D02*
X143421904Y-101613855D01*
X143421904Y-101613855D02*
X143345713Y-101613855D01*
X143345713Y-101613855D02*
X143231428Y-101651950D01*
X143231428Y-101651950D02*
X143193332Y-101690045D01*
X142507618Y-101613855D02*
X142659999Y-101613855D01*
X142659999Y-101613855D02*
X142736190Y-101651950D01*
X142736190Y-101651950D02*
X142774285Y-101690045D01*
X142774285Y-101690045D02*
X142850475Y-101804331D01*
X142850475Y-101804331D02*
X142888571Y-101956712D01*
X142888571Y-101956712D02*
X142888571Y-102261474D01*
X142888571Y-102261474D02*
X142850475Y-102337664D01*
X142850475Y-102337664D02*
X142812380Y-102375760D01*
X142812380Y-102375760D02*
X142736190Y-102413855D01*
X142736190Y-102413855D02*
X142583809Y-102413855D01*
X142583809Y-102413855D02*
X142507618Y-102375760D01*
X142507618Y-102375760D02*
X142469523Y-102337664D01*
X142469523Y-102337664D02*
X142431428Y-102261474D01*
X142431428Y-102261474D02*
X142431428Y-102070998D01*
X142431428Y-102070998D02*
X142469523Y-101994807D01*
X142469523Y-101994807D02*
X142507618Y-101956712D01*
X142507618Y-101956712D02*
X142583809Y-101918617D01*
X142583809Y-101918617D02*
X142736190Y-101918617D01*
X142736190Y-101918617D02*
X142812380Y-101956712D01*
X142812380Y-101956712D02*
X142850475Y-101994807D01*
X142850475Y-101994807D02*
X142888571Y-102070998D01*
D11*
X125233333Y-119654819D02*
X125233333Y-120369104D01*
X125233333Y-120369104D02*
X125280952Y-120511961D01*
X125280952Y-120511961D02*
X125376190Y-120607200D01*
X125376190Y-120607200D02*
X125519047Y-120654819D01*
X125519047Y-120654819D02*
X125614285Y-120654819D01*
X124233333Y-120654819D02*
X124804761Y-120654819D01*
X124519047Y-120654819D02*
X124519047Y-119654819D01*
X124519047Y-119654819D02*
X124614285Y-119797676D01*
X124614285Y-119797676D02*
X124709523Y-119892914D01*
X124709523Y-119892914D02*
X124804761Y-119940533D01*
D10*
X151383332Y-111912664D02*
X151421428Y-111950760D01*
X151421428Y-111950760D02*
X151535713Y-111988855D01*
X151535713Y-111988855D02*
X151611904Y-111988855D01*
X151611904Y-111988855D02*
X151726190Y-111950760D01*
X151726190Y-111950760D02*
X151802380Y-111874569D01*
X151802380Y-111874569D02*
X151840475Y-111798379D01*
X151840475Y-111798379D02*
X151878571Y-111645998D01*
X151878571Y-111645998D02*
X151878571Y-111531712D01*
X151878571Y-111531712D02*
X151840475Y-111379331D01*
X151840475Y-111379331D02*
X151802380Y-111303140D01*
X151802380Y-111303140D02*
X151726190Y-111226950D01*
X151726190Y-111226950D02*
X151611904Y-111188855D01*
X151611904Y-111188855D02*
X151535713Y-111188855D01*
X151535713Y-111188855D02*
X151421428Y-111226950D01*
X151421428Y-111226950D02*
X151383332Y-111265045D01*
X151116666Y-111188855D02*
X150583332Y-111188855D01*
X150583332Y-111188855D02*
X150926190Y-111988855D01*
X146209523Y-88763855D02*
X146209523Y-89411474D01*
X146209523Y-89411474D02*
X146171428Y-89487664D01*
X146171428Y-89487664D02*
X146133333Y-89525760D01*
X146133333Y-89525760D02*
X146057142Y-89563855D01*
X146057142Y-89563855D02*
X145904761Y-89563855D01*
X145904761Y-89563855D02*
X145828571Y-89525760D01*
X145828571Y-89525760D02*
X145790476Y-89487664D01*
X145790476Y-89487664D02*
X145752380Y-89411474D01*
X145752380Y-89411474D02*
X145752380Y-88763855D01*
X145409524Y-88840045D02*
X145371428Y-88801950D01*
X145371428Y-88801950D02*
X145295238Y-88763855D01*
X145295238Y-88763855D02*
X145104762Y-88763855D01*
X145104762Y-88763855D02*
X145028571Y-88801950D01*
X145028571Y-88801950D02*
X144990476Y-88840045D01*
X144990476Y-88840045D02*
X144952381Y-88916236D01*
X144952381Y-88916236D02*
X144952381Y-88992426D01*
X144952381Y-88992426D02*
X144990476Y-89106712D01*
X144990476Y-89106712D02*
X145447619Y-89563855D01*
X145447619Y-89563855D02*
X144952381Y-89563855D01*
X144833332Y-121163855D02*
X145099999Y-120782902D01*
X145290475Y-121163855D02*
X145290475Y-120363855D01*
X145290475Y-120363855D02*
X144985713Y-120363855D01*
X144985713Y-120363855D02*
X144909523Y-120401950D01*
X144909523Y-120401950D02*
X144871428Y-120440045D01*
X144871428Y-120440045D02*
X144833332Y-120516236D01*
X144833332Y-120516236D02*
X144833332Y-120630521D01*
X144833332Y-120630521D02*
X144871428Y-120706712D01*
X144871428Y-120706712D02*
X144909523Y-120744807D01*
X144909523Y-120744807D02*
X144985713Y-120782902D01*
X144985713Y-120782902D02*
X145290475Y-120782902D01*
X144071428Y-121163855D02*
X144528571Y-121163855D01*
X144299999Y-121163855D02*
X144299999Y-120363855D01*
X144299999Y-120363855D02*
X144376190Y-120478140D01*
X144376190Y-120478140D02*
X144452380Y-120554331D01*
X144452380Y-120554331D02*
X144528571Y-120592426D01*
X149433332Y-89487664D02*
X149471428Y-89525760D01*
X149471428Y-89525760D02*
X149585713Y-89563855D01*
X149585713Y-89563855D02*
X149661904Y-89563855D01*
X149661904Y-89563855D02*
X149776190Y-89525760D01*
X149776190Y-89525760D02*
X149852380Y-89449569D01*
X149852380Y-89449569D02*
X149890475Y-89373379D01*
X149890475Y-89373379D02*
X149928571Y-89220998D01*
X149928571Y-89220998D02*
X149928571Y-89106712D01*
X149928571Y-89106712D02*
X149890475Y-88954331D01*
X149890475Y-88954331D02*
X149852380Y-88878140D01*
X149852380Y-88878140D02*
X149776190Y-88801950D01*
X149776190Y-88801950D02*
X149661904Y-88763855D01*
X149661904Y-88763855D02*
X149585713Y-88763855D01*
X149585713Y-88763855D02*
X149471428Y-88801950D01*
X149471428Y-88801950D02*
X149433332Y-88840045D01*
X149128571Y-88840045D02*
X149090475Y-88801950D01*
X149090475Y-88801950D02*
X149014285Y-88763855D01*
X149014285Y-88763855D02*
X148823809Y-88763855D01*
X148823809Y-88763855D02*
X148747618Y-88801950D01*
X148747618Y-88801950D02*
X148709523Y-88840045D01*
X148709523Y-88840045D02*
X148671428Y-88916236D01*
X148671428Y-88916236D02*
X148671428Y-88992426D01*
X148671428Y-88992426D02*
X148709523Y-89106712D01*
X148709523Y-89106712D02*
X149166666Y-89563855D01*
X149166666Y-89563855D02*
X148671428Y-89563855D01*
X142033332Y-89487664D02*
X142071428Y-89525760D01*
X142071428Y-89525760D02*
X142185713Y-89563855D01*
X142185713Y-89563855D02*
X142261904Y-89563855D01*
X142261904Y-89563855D02*
X142376190Y-89525760D01*
X142376190Y-89525760D02*
X142452380Y-89449569D01*
X142452380Y-89449569D02*
X142490475Y-89373379D01*
X142490475Y-89373379D02*
X142528571Y-89220998D01*
X142528571Y-89220998D02*
X142528571Y-89106712D01*
X142528571Y-89106712D02*
X142490475Y-88954331D01*
X142490475Y-88954331D02*
X142452380Y-88878140D01*
X142452380Y-88878140D02*
X142376190Y-88801950D01*
X142376190Y-88801950D02*
X142261904Y-88763855D01*
X142261904Y-88763855D02*
X142185713Y-88763855D01*
X142185713Y-88763855D02*
X142071428Y-88801950D01*
X142071428Y-88801950D02*
X142033332Y-88840045D01*
X141271428Y-89563855D02*
X141728571Y-89563855D01*
X141499999Y-89563855D02*
X141499999Y-88763855D01*
X141499999Y-88763855D02*
X141576190Y-88878140D01*
X141576190Y-88878140D02*
X141652380Y-88954331D01*
X141652380Y-88954331D02*
X141728571Y-88992426D01*
X154573332Y-108737664D02*
X154611428Y-108775760D01*
X154611428Y-108775760D02*
X154725713Y-108813855D01*
X154725713Y-108813855D02*
X154801904Y-108813855D01*
X154801904Y-108813855D02*
X154916190Y-108775760D01*
X154916190Y-108775760D02*
X154992380Y-108699569D01*
X154992380Y-108699569D02*
X155030475Y-108623379D01*
X155030475Y-108623379D02*
X155068571Y-108470998D01*
X155068571Y-108470998D02*
X155068571Y-108356712D01*
X155068571Y-108356712D02*
X155030475Y-108204331D01*
X155030475Y-108204331D02*
X154992380Y-108128140D01*
X154992380Y-108128140D02*
X154916190Y-108051950D01*
X154916190Y-108051950D02*
X154801904Y-108013855D01*
X154801904Y-108013855D02*
X154725713Y-108013855D01*
X154725713Y-108013855D02*
X154611428Y-108051950D01*
X154611428Y-108051950D02*
X154573332Y-108090045D01*
X153849523Y-108013855D02*
X154230475Y-108013855D01*
X154230475Y-108013855D02*
X154268571Y-108394807D01*
X154268571Y-108394807D02*
X154230475Y-108356712D01*
X154230475Y-108356712D02*
X154154285Y-108318617D01*
X154154285Y-108318617D02*
X153963809Y-108318617D01*
X153963809Y-108318617D02*
X153887618Y-108356712D01*
X153887618Y-108356712D02*
X153849523Y-108394807D01*
X153849523Y-108394807D02*
X153811428Y-108470998D01*
X153811428Y-108470998D02*
X153811428Y-108661474D01*
X153811428Y-108661474D02*
X153849523Y-108737664D01*
X153849523Y-108737664D02*
X153887618Y-108775760D01*
X153887618Y-108775760D02*
X153963809Y-108813855D01*
X153963809Y-108813855D02*
X154154285Y-108813855D01*
X154154285Y-108813855D02*
X154230475Y-108775760D01*
X154230475Y-108775760D02*
X154268571Y-108737664D01*
D11*
X172433333Y-119654819D02*
X172433333Y-120369104D01*
X172433333Y-120369104D02*
X172480952Y-120511961D01*
X172480952Y-120511961D02*
X172576190Y-120607200D01*
X172576190Y-120607200D02*
X172719047Y-120654819D01*
X172719047Y-120654819D02*
X172814285Y-120654819D01*
X172004761Y-119750057D02*
X171957142Y-119702438D01*
X171957142Y-119702438D02*
X171861904Y-119654819D01*
X171861904Y-119654819D02*
X171623809Y-119654819D01*
X171623809Y-119654819D02*
X171528571Y-119702438D01*
X171528571Y-119702438D02*
X171480952Y-119750057D01*
X171480952Y-119750057D02*
X171433333Y-119845295D01*
X171433333Y-119845295D02*
X171433333Y-119940533D01*
X171433333Y-119940533D02*
X171480952Y-120083390D01*
X171480952Y-120083390D02*
X172052380Y-120654819D01*
X172052380Y-120654819D02*
X171433333Y-120654819D01*
D10*
X147033332Y-121087664D02*
X147071428Y-121125760D01*
X147071428Y-121125760D02*
X147185713Y-121163855D01*
X147185713Y-121163855D02*
X147261904Y-121163855D01*
X147261904Y-121163855D02*
X147376190Y-121125760D01*
X147376190Y-121125760D02*
X147452380Y-121049569D01*
X147452380Y-121049569D02*
X147490475Y-120973379D01*
X147490475Y-120973379D02*
X147528571Y-120820998D01*
X147528571Y-120820998D02*
X147528571Y-120706712D01*
X147528571Y-120706712D02*
X147490475Y-120554331D01*
X147490475Y-120554331D02*
X147452380Y-120478140D01*
X147452380Y-120478140D02*
X147376190Y-120401950D01*
X147376190Y-120401950D02*
X147261904Y-120363855D01*
X147261904Y-120363855D02*
X147185713Y-120363855D01*
X147185713Y-120363855D02*
X147071428Y-120401950D01*
X147071428Y-120401950D02*
X147033332Y-120440045D01*
X146652380Y-121163855D02*
X146499999Y-121163855D01*
X146499999Y-121163855D02*
X146423809Y-121125760D01*
X146423809Y-121125760D02*
X146385713Y-121087664D01*
X146385713Y-121087664D02*
X146309523Y-120973379D01*
X146309523Y-120973379D02*
X146271428Y-120820998D01*
X146271428Y-120820998D02*
X146271428Y-120516236D01*
X146271428Y-120516236D02*
X146309523Y-120440045D01*
X146309523Y-120440045D02*
X146347618Y-120401950D01*
X146347618Y-120401950D02*
X146423809Y-120363855D01*
X146423809Y-120363855D02*
X146576190Y-120363855D01*
X146576190Y-120363855D02*
X146652380Y-120401950D01*
X146652380Y-120401950D02*
X146690475Y-120440045D01*
X146690475Y-120440045D02*
X146728571Y-120516236D01*
X146728571Y-120516236D02*
X146728571Y-120706712D01*
X146728571Y-120706712D02*
X146690475Y-120782902D01*
X146690475Y-120782902D02*
X146652380Y-120820998D01*
X146652380Y-120820998D02*
X146576190Y-120859093D01*
X146576190Y-120859093D02*
X146423809Y-120859093D01*
X146423809Y-120859093D02*
X146347618Y-120820998D01*
X146347618Y-120820998D02*
X146309523Y-120782902D01*
X146309523Y-120782902D02*
X146271428Y-120706712D01*
X149233332Y-121163855D02*
X149499999Y-120782902D01*
X149690475Y-121163855D02*
X149690475Y-120363855D01*
X149690475Y-120363855D02*
X149385713Y-120363855D01*
X149385713Y-120363855D02*
X149309523Y-120401950D01*
X149309523Y-120401950D02*
X149271428Y-120440045D01*
X149271428Y-120440045D02*
X149233332Y-120516236D01*
X149233332Y-120516236D02*
X149233332Y-120630521D01*
X149233332Y-120630521D02*
X149271428Y-120706712D01*
X149271428Y-120706712D02*
X149309523Y-120744807D01*
X149309523Y-120744807D02*
X149385713Y-120782902D01*
X149385713Y-120782902D02*
X149690475Y-120782902D01*
X148928571Y-120440045D02*
X148890475Y-120401950D01*
X148890475Y-120401950D02*
X148814285Y-120363855D01*
X148814285Y-120363855D02*
X148623809Y-120363855D01*
X148623809Y-120363855D02*
X148547618Y-120401950D01*
X148547618Y-120401950D02*
X148509523Y-120440045D01*
X148509523Y-120440045D02*
X148471428Y-120516236D01*
X148471428Y-120516236D02*
X148471428Y-120592426D01*
X148471428Y-120592426D02*
X148509523Y-120706712D01*
X148509523Y-120706712D02*
X148966666Y-121163855D01*
X148966666Y-121163855D02*
X148471428Y-121163855D01*
X154573332Y-103337664D02*
X154611428Y-103375760D01*
X154611428Y-103375760D02*
X154725713Y-103413855D01*
X154725713Y-103413855D02*
X154801904Y-103413855D01*
X154801904Y-103413855D02*
X154916190Y-103375760D01*
X154916190Y-103375760D02*
X154992380Y-103299569D01*
X154992380Y-103299569D02*
X155030475Y-103223379D01*
X155030475Y-103223379D02*
X155068571Y-103070998D01*
X155068571Y-103070998D02*
X155068571Y-102956712D01*
X155068571Y-102956712D02*
X155030475Y-102804331D01*
X155030475Y-102804331D02*
X154992380Y-102728140D01*
X154992380Y-102728140D02*
X154916190Y-102651950D01*
X154916190Y-102651950D02*
X154801904Y-102613855D01*
X154801904Y-102613855D02*
X154725713Y-102613855D01*
X154725713Y-102613855D02*
X154611428Y-102651950D01*
X154611428Y-102651950D02*
X154573332Y-102690045D01*
X154306666Y-102613855D02*
X153811428Y-102613855D01*
X153811428Y-102613855D02*
X154078094Y-102918617D01*
X154078094Y-102918617D02*
X153963809Y-102918617D01*
X153963809Y-102918617D02*
X153887618Y-102956712D01*
X153887618Y-102956712D02*
X153849523Y-102994807D01*
X153849523Y-102994807D02*
X153811428Y-103070998D01*
X153811428Y-103070998D02*
X153811428Y-103261474D01*
X153811428Y-103261474D02*
X153849523Y-103337664D01*
X153849523Y-103337664D02*
X153887618Y-103375760D01*
X153887618Y-103375760D02*
X153963809Y-103413855D01*
X153963809Y-103413855D02*
X154192380Y-103413855D01*
X154192380Y-103413855D02*
X154268571Y-103375760D01*
X154268571Y-103375760D02*
X154306666Y-103337664D01*
%TO.C,C4*%
X147690000Y-111484420D02*
X147690000Y-111765580D01*
X148710000Y-111484420D02*
X148710000Y-111765580D01*
%TO.C,C8*%
X143200580Y-104740000D02*
X142919420Y-104740000D01*
X143200580Y-105760000D02*
X142919420Y-105760000D01*
%TO.C,C6*%
X143200580Y-102740000D02*
X142919420Y-102740000D01*
X143200580Y-103760000D02*
X142919420Y-103760000D01*
%TO.C,J1*%
X125390000Y-90890000D02*
X125390000Y-119110000D01*
X127500000Y-90890000D02*
X125390000Y-90890000D01*
X127500000Y-93000000D02*
X127500000Y-90890000D01*
X129610000Y-90890000D02*
X128500000Y-90890000D01*
X129610000Y-92000000D02*
X129610000Y-90890000D01*
X129610000Y-93000000D02*
X127500000Y-93000000D01*
X129610000Y-93000000D02*
X129610000Y-119110000D01*
X129610000Y-119110000D02*
X125390000Y-119110000D01*
%TO.C,C7*%
X149240000Y-111484420D02*
X149240000Y-111765580D01*
X150260000Y-111484420D02*
X150260000Y-111765580D01*
%TO.C,U2*%
X144040000Y-90490000D02*
X144040000Y-92310000D01*
X144040000Y-92310000D02*
X144090000Y-92310000D01*
X144090000Y-90490000D02*
X144040000Y-90490000D01*
X145990000Y-90490000D02*
X145210000Y-90490000D01*
X147110000Y-92310000D02*
X147160000Y-92310000D01*
X147160000Y-90490000D02*
X147110000Y-90490000D01*
X147160000Y-92310000D02*
X147160000Y-90490000D01*
X147110000Y-92850000D02*
X147440000Y-93090000D01*
X147440000Y-92610000D01*
X147110000Y-92850000D01*
G36*
X147440000Y-93090000D02*
G01*
X147110000Y-92850000D01*
X147440000Y-92610000D01*
X147440000Y-93090000D01*
G37*
%TO.C,R1*%
X144177500Y-119137258D02*
X144177500Y-118662742D01*
X145222500Y-119137258D02*
X145222500Y-118662742D01*
%TO.C,C2*%
X148790000Y-91240580D02*
X148790000Y-90959420D01*
X149810000Y-91240580D02*
X149810000Y-90959420D01*
%TO.C,C1*%
X141390000Y-91240580D02*
X141390000Y-90959420D01*
X142410000Y-91240580D02*
X142410000Y-90959420D01*
%TO.C,C5*%
X154299420Y-106740000D02*
X154580580Y-106740000D01*
X154299420Y-107760000D02*
X154580580Y-107760000D01*
%TO.C,J2*%
X167390000Y-90890000D02*
X167390000Y-119110000D01*
X169500000Y-90890000D02*
X167390000Y-90890000D01*
X169500000Y-93000000D02*
X169500000Y-90890000D01*
X171610000Y-90890000D02*
X170500000Y-90890000D01*
X171610000Y-92000000D02*
X171610000Y-90890000D01*
X171610000Y-93000000D02*
X169500000Y-93000000D01*
X171610000Y-93000000D02*
X171610000Y-119110000D01*
X171610000Y-119110000D02*
X167390000Y-119110000D01*
%TO.C,C9*%
X146390000Y-119040580D02*
X146390000Y-118759420D01*
X147410000Y-119040580D02*
X147410000Y-118759420D01*
%TO.C,R2*%
X148577500Y-119137258D02*
X148577500Y-118662742D01*
X149622500Y-119137258D02*
X149622500Y-118662742D01*
%TO.C,C3*%
X154299420Y-103740000D02*
X154580580Y-103740000D01*
X154299420Y-104760000D02*
X154580580Y-104760000D01*
%TD*%
%LPC*%
D12*
%TO.C,U1*%
X159100000Y-116100000D03*
X159100000Y-93900000D03*
D13*
X154100000Y-115000000D03*
D14*
X154100000Y-95000000D03*
D13*
X142900000Y-115000000D03*
X142900000Y-95000000D03*
D12*
X137900000Y-116100000D03*
X137900000Y-93900000D03*
%TD*%
D15*
%TO.C,C4*%
X148200000Y-110850000D03*
X148200000Y-112400000D03*
%TD*%
D16*
%TO.C,C8*%
X143835000Y-105250000D03*
X142285000Y-105250000D03*
%TD*%
%TO.C,C6*%
X143835000Y-103250000D03*
X142285000Y-103250000D03*
%TD*%
D17*
%TO.C,J1*%
X128500000Y-92000000D03*
D18*
X126500000Y-92000000D03*
X128500000Y-94000000D03*
X126500000Y-94000000D03*
X128500000Y-96000000D03*
X126500000Y-96000000D03*
X128500000Y-98000000D03*
X126500000Y-98000000D03*
X128500000Y-100000000D03*
X126500000Y-100000000D03*
X128500000Y-102000000D03*
X126500000Y-102000000D03*
X128500000Y-104000000D03*
X126500000Y-104000000D03*
X128500000Y-106000000D03*
X126500000Y-106000000D03*
X128500000Y-108000000D03*
X126500000Y-108000000D03*
X128500000Y-110000000D03*
X126500000Y-110000000D03*
X128500000Y-112000000D03*
X126500000Y-112000000D03*
X128500000Y-114000000D03*
X126500000Y-114000000D03*
X128500000Y-116000000D03*
X126500000Y-116000000D03*
X128500000Y-118000000D03*
X126500000Y-118000000D03*
%TD*%
D15*
%TO.C,C7*%
X149750000Y-110850000D03*
X149750000Y-112400000D03*
%TD*%
D19*
%TO.C,U2*%
X146550000Y-92537500D03*
X145600000Y-92537500D03*
X144650000Y-92537500D03*
X144650000Y-90262500D03*
X146550000Y-90262500D03*
%TD*%
D20*
%TO.C,R1*%
X144700000Y-119725000D03*
X144700000Y-118075000D03*
%TD*%
D21*
%TO.C,C2*%
X149300000Y-91875000D03*
X149300000Y-90325000D03*
%TD*%
%TO.C,C1*%
X141900000Y-91875000D03*
X141900000Y-90325000D03*
%TD*%
D22*
%TO.C,C5*%
X153665000Y-107250000D03*
X155215000Y-107250000D03*
%TD*%
D17*
%TO.C,J2*%
X170500000Y-92000000D03*
D18*
X168500000Y-92000000D03*
X170500000Y-94000000D03*
X168500000Y-94000000D03*
X170500000Y-96000000D03*
X168500000Y-96000000D03*
X170500000Y-98000000D03*
X168500000Y-98000000D03*
X170500000Y-100000000D03*
X168500000Y-100000000D03*
X170500000Y-102000000D03*
X168500000Y-102000000D03*
X170500000Y-104000000D03*
X168500000Y-104000000D03*
X170500000Y-106000000D03*
X168500000Y-106000000D03*
X170500000Y-108000000D03*
X168500000Y-108000000D03*
X170500000Y-110000000D03*
X168500000Y-110000000D03*
X170500000Y-112000000D03*
X168500000Y-112000000D03*
X170500000Y-114000000D03*
X168500000Y-114000000D03*
X170500000Y-116000000D03*
X168500000Y-116000000D03*
X170500000Y-118000000D03*
X168500000Y-118000000D03*
%TD*%
D21*
%TO.C,C9*%
X146900000Y-119675000D03*
X146900000Y-118125000D03*
%TD*%
D20*
%TO.C,R2*%
X149100000Y-119725000D03*
X149100000Y-118075000D03*
%TD*%
D22*
%TO.C,C3*%
X153665000Y-104250000D03*
X155215000Y-104250000D03*
%TD*%
%LPD*%
M02*
