%TF.GenerationSoftware,KiCad,Pcbnew,10.0.6-10.0.6~ubuntu26.04.1*%
%TF.CreationDate,2026-09-29T06:23:19+02:00*%
%TF.ProjectId,flashcat_p30,666c6173-6863-4617-945f-7033302e6b69,B*%
%TF.SameCoordinates,Original*%
%TF.FileFunction,Legend,Top*%
%TF.FilePolarity,Positive*%
%FSLAX46Y46*%
G04 Gerber Fmt 4.6, Leading zero omitted, Abs format (unit mm)*
G04 Created by KiCad (PCBNEW 10.0.6-10.0.6~ubuntu26.04.1) date 2026-09-29 06:23:19*
%MOMM*%
%LPD*%
G01*
G04 APERTURE LIST*
%ADD10C,0.120000*%
%ADD11C,0.150000*%
%ADD12C,2.100000*%
%ADD13R,0.600000X0.600000*%
%ADD14C,0.600000*%
%ADD15R,1.350000X1.350000*%
%ADD16C,1.350000*%
G04 APERTURE END LIST*
D10*
X125890476Y-89601950D02*
X125814286Y-89563855D01*
X125814286Y-89563855D02*
X125700000Y-89563855D01*
X125700000Y-89563855D02*
X125585714Y-89601950D01*
X125585714Y-89601950D02*
X125509524Y-89678140D01*
X125509524Y-89678140D02*
X125471429Y-89754331D01*
X125471429Y-89754331D02*
X125433333Y-89906712D01*
X125433333Y-89906712D02*
X125433333Y-90020998D01*
X125433333Y-90020998D02*
X125471429Y-90173379D01*
X125471429Y-90173379D02*
X125509524Y-90249569D01*
X125509524Y-90249569D02*
X125585714Y-90325760D01*
X125585714Y-90325760D02*
X125700000Y-90363855D01*
X125700000Y-90363855D02*
X125776191Y-90363855D01*
X125776191Y-90363855D02*
X125890476Y-90325760D01*
X125890476Y-90325760D02*
X125928572Y-90287664D01*
X125928572Y-90287664D02*
X125928572Y-90020998D01*
X125928572Y-90020998D02*
X125776191Y-90020998D01*
X126271429Y-90363855D02*
X126271429Y-89563855D01*
X126271429Y-89563855D02*
X126728572Y-90363855D01*
X126728572Y-90363855D02*
X126728572Y-89563855D01*
X127109524Y-90363855D02*
X127109524Y-89563855D01*
X127109524Y-89563855D02*
X127300000Y-89563855D01*
X127300000Y-89563855D02*
X127414286Y-89601950D01*
X127414286Y-89601950D02*
X127490476Y-89678140D01*
X127490476Y-89678140D02*
X127528571Y-89754331D01*
X127528571Y-89754331D02*
X127566667Y-89906712D01*
X127566667Y-89906712D02*
X127566667Y-90020998D01*
X127566667Y-90020998D02*
X127528571Y-90173379D01*
X127528571Y-90173379D02*
X127490476Y-90249569D01*
X127490476Y-90249569D02*
X127414286Y-90325760D01*
X127414286Y-90325760D02*
X127300000Y-90363855D01*
X127300000Y-90363855D02*
X127109524Y-90363855D01*
X156633333Y-90344807D02*
X156899999Y-90344807D01*
X157014285Y-90763855D02*
X156633333Y-90763855D01*
X156633333Y-90763855D02*
X156633333Y-89963855D01*
X156633333Y-89963855D02*
X157014285Y-89963855D01*
X157700000Y-90763855D02*
X157700000Y-90344807D01*
X157700000Y-90344807D02*
X157661905Y-90268617D01*
X157661905Y-90268617D02*
X157585714Y-90230521D01*
X157585714Y-90230521D02*
X157433333Y-90230521D01*
X157433333Y-90230521D02*
X157357143Y-90268617D01*
X157700000Y-90725760D02*
X157623809Y-90763855D01*
X157623809Y-90763855D02*
X157433333Y-90763855D01*
X157433333Y-90763855D02*
X157357143Y-90725760D01*
X157357143Y-90725760D02*
X157319047Y-90649569D01*
X157319047Y-90649569D02*
X157319047Y-90573379D01*
X157319047Y-90573379D02*
X157357143Y-90497188D01*
X157357143Y-90497188D02*
X157433333Y-90459093D01*
X157433333Y-90459093D02*
X157623809Y-90459093D01*
X157623809Y-90459093D02*
X157700000Y-90420998D01*
X158042857Y-90725760D02*
X158119048Y-90763855D01*
X158119048Y-90763855D02*
X158271429Y-90763855D01*
X158271429Y-90763855D02*
X158347619Y-90725760D01*
X158347619Y-90725760D02*
X158385715Y-90649569D01*
X158385715Y-90649569D02*
X158385715Y-90611474D01*
X158385715Y-90611474D02*
X158347619Y-90535283D01*
X158347619Y-90535283D02*
X158271429Y-90497188D01*
X158271429Y-90497188D02*
X158157143Y-90497188D01*
X158157143Y-90497188D02*
X158080953Y-90459093D01*
X158080953Y-90459093D02*
X158042857Y-90382902D01*
X158042857Y-90382902D02*
X158042857Y-90344807D01*
X158042857Y-90344807D02*
X158080953Y-90268617D01*
X158080953Y-90268617D02*
X158157143Y-90230521D01*
X158157143Y-90230521D02*
X158271429Y-90230521D01*
X158271429Y-90230521D02*
X158347619Y-90268617D01*
X158652381Y-90230521D02*
X158842857Y-90763855D01*
X159033334Y-90230521D02*
X158842857Y-90763855D01*
X158842857Y-90763855D02*
X158766667Y-90954331D01*
X158766667Y-90954331D02*
X158728572Y-90992426D01*
X158728572Y-90992426D02*
X158652381Y-91030521D01*
X160214286Y-90344807D02*
X160328572Y-90382902D01*
X160328572Y-90382902D02*
X160366667Y-90420998D01*
X160366667Y-90420998D02*
X160404763Y-90497188D01*
X160404763Y-90497188D02*
X160404763Y-90611474D01*
X160404763Y-90611474D02*
X160366667Y-90687664D01*
X160366667Y-90687664D02*
X160328572Y-90725760D01*
X160328572Y-90725760D02*
X160252382Y-90763855D01*
X160252382Y-90763855D02*
X159947620Y-90763855D01*
X159947620Y-90763855D02*
X159947620Y-89963855D01*
X159947620Y-89963855D02*
X160214286Y-89963855D01*
X160214286Y-89963855D02*
X160290477Y-90001950D01*
X160290477Y-90001950D02*
X160328572Y-90040045D01*
X160328572Y-90040045D02*
X160366667Y-90116236D01*
X160366667Y-90116236D02*
X160366667Y-90192426D01*
X160366667Y-90192426D02*
X160328572Y-90268617D01*
X160328572Y-90268617D02*
X160290477Y-90306712D01*
X160290477Y-90306712D02*
X160214286Y-90344807D01*
X160214286Y-90344807D02*
X159947620Y-90344807D01*
X161166667Y-90001950D02*
X161090477Y-89963855D01*
X161090477Y-89963855D02*
X160976191Y-89963855D01*
X160976191Y-89963855D02*
X160861905Y-90001950D01*
X160861905Y-90001950D02*
X160785715Y-90078140D01*
X160785715Y-90078140D02*
X160747620Y-90154331D01*
X160747620Y-90154331D02*
X160709524Y-90306712D01*
X160709524Y-90306712D02*
X160709524Y-90420998D01*
X160709524Y-90420998D02*
X160747620Y-90573379D01*
X160747620Y-90573379D02*
X160785715Y-90649569D01*
X160785715Y-90649569D02*
X160861905Y-90725760D01*
X160861905Y-90725760D02*
X160976191Y-90763855D01*
X160976191Y-90763855D02*
X161052382Y-90763855D01*
X161052382Y-90763855D02*
X161166667Y-90725760D01*
X161166667Y-90725760D02*
X161204763Y-90687664D01*
X161204763Y-90687664D02*
X161204763Y-90420998D01*
X161204763Y-90420998D02*
X161052382Y-90420998D01*
X161509524Y-90535283D02*
X161890477Y-90535283D01*
X161433334Y-90763855D02*
X161700001Y-89963855D01*
X161700001Y-89963855D02*
X161966667Y-90763855D01*
X162233334Y-90459093D02*
X162842858Y-90459093D01*
X163566667Y-89963855D02*
X163414286Y-89963855D01*
X163414286Y-89963855D02*
X163338095Y-90001950D01*
X163338095Y-90001950D02*
X163300000Y-90040045D01*
X163300000Y-90040045D02*
X163223810Y-90154331D01*
X163223810Y-90154331D02*
X163185714Y-90306712D01*
X163185714Y-90306712D02*
X163185714Y-90611474D01*
X163185714Y-90611474D02*
X163223810Y-90687664D01*
X163223810Y-90687664D02*
X163261905Y-90725760D01*
X163261905Y-90725760D02*
X163338095Y-90763855D01*
X163338095Y-90763855D02*
X163490476Y-90763855D01*
X163490476Y-90763855D02*
X163566667Y-90725760D01*
X163566667Y-90725760D02*
X163604762Y-90687664D01*
X163604762Y-90687664D02*
X163642857Y-90611474D01*
X163642857Y-90611474D02*
X163642857Y-90420998D01*
X163642857Y-90420998D02*
X163604762Y-90344807D01*
X163604762Y-90344807D02*
X163566667Y-90306712D01*
X163566667Y-90306712D02*
X163490476Y-90268617D01*
X163490476Y-90268617D02*
X163338095Y-90268617D01*
X163338095Y-90268617D02*
X163261905Y-90306712D01*
X163261905Y-90306712D02*
X163223810Y-90344807D01*
X163223810Y-90344807D02*
X163185714Y-90420998D01*
X164328572Y-90230521D02*
X164328572Y-90763855D01*
X164138096Y-89925760D02*
X163947619Y-90497188D01*
X163947619Y-90497188D02*
X164442858Y-90497188D01*
X159090476Y-120563855D02*
X159090476Y-120030521D01*
X159090476Y-120182902D02*
X159128571Y-120106712D01*
X159128571Y-120106712D02*
X159166666Y-120068617D01*
X159166666Y-120068617D02*
X159242857Y-120030521D01*
X159242857Y-120030521D02*
X159319047Y-120030521D01*
X159890476Y-120525760D02*
X159814285Y-120563855D01*
X159814285Y-120563855D02*
X159661904Y-120563855D01*
X159661904Y-120563855D02*
X159585714Y-120525760D01*
X159585714Y-120525760D02*
X159547618Y-120449569D01*
X159547618Y-120449569D02*
X159547618Y-120144807D01*
X159547618Y-120144807D02*
X159585714Y-120068617D01*
X159585714Y-120068617D02*
X159661904Y-120030521D01*
X159661904Y-120030521D02*
X159814285Y-120030521D01*
X159814285Y-120030521D02*
X159890476Y-120068617D01*
X159890476Y-120068617D02*
X159928571Y-120144807D01*
X159928571Y-120144807D02*
X159928571Y-120220998D01*
X159928571Y-120220998D02*
X159547618Y-120297188D01*
X160195237Y-120030521D02*
X160385713Y-120563855D01*
X160385713Y-120563855D02*
X160576190Y-120030521D01*
X161757142Y-120144807D02*
X161871428Y-120182902D01*
X161871428Y-120182902D02*
X161909523Y-120220998D01*
X161909523Y-120220998D02*
X161947619Y-120297188D01*
X161947619Y-120297188D02*
X161947619Y-120411474D01*
X161947619Y-120411474D02*
X161909523Y-120487664D01*
X161909523Y-120487664D02*
X161871428Y-120525760D01*
X161871428Y-120525760D02*
X161795238Y-120563855D01*
X161795238Y-120563855D02*
X161490476Y-120563855D01*
X161490476Y-120563855D02*
X161490476Y-119763855D01*
X161490476Y-119763855D02*
X161757142Y-119763855D01*
X161757142Y-119763855D02*
X161833333Y-119801950D01*
X161833333Y-119801950D02*
X161871428Y-119840045D01*
X161871428Y-119840045D02*
X161909523Y-119916236D01*
X161909523Y-119916236D02*
X161909523Y-119992426D01*
X161909523Y-119992426D02*
X161871428Y-120068617D01*
X161871428Y-120068617D02*
X161833333Y-120106712D01*
X161833333Y-120106712D02*
X161757142Y-120144807D01*
X161757142Y-120144807D02*
X161490476Y-120144807D01*
X167928571Y-90135283D02*
X168309524Y-90135283D01*
X167852381Y-90363855D02*
X168119048Y-89563855D01*
X168119048Y-89563855D02*
X168385714Y-90363855D01*
X168804762Y-89563855D02*
X168880952Y-89563855D01*
X168880952Y-89563855D02*
X168957143Y-89601950D01*
X168957143Y-89601950D02*
X168995238Y-89640045D01*
X168995238Y-89640045D02*
X169033333Y-89716236D01*
X169033333Y-89716236D02*
X169071428Y-89868617D01*
X169071428Y-89868617D02*
X169071428Y-90059093D01*
X169071428Y-90059093D02*
X169033333Y-90211474D01*
X169033333Y-90211474D02*
X168995238Y-90287664D01*
X168995238Y-90287664D02*
X168957143Y-90325760D01*
X168957143Y-90325760D02*
X168880952Y-90363855D01*
X168880952Y-90363855D02*
X168804762Y-90363855D01*
X168804762Y-90363855D02*
X168728571Y-90325760D01*
X168728571Y-90325760D02*
X168690476Y-90287664D01*
X168690476Y-90287664D02*
X168652381Y-90211474D01*
X168652381Y-90211474D02*
X168614285Y-90059093D01*
X168614285Y-90059093D02*
X168614285Y-89868617D01*
X168614285Y-89868617D02*
X168652381Y-89716236D01*
X168652381Y-89716236D02*
X168690476Y-89640045D01*
X168690476Y-89640045D02*
X168728571Y-89601950D01*
X168728571Y-89601950D02*
X168804762Y-89563855D01*
D11*
X155928570Y-88631009D02*
X155595237Y-88631009D01*
X155595237Y-89154819D02*
X155595237Y-88154819D01*
X155595237Y-88154819D02*
X156071427Y-88154819D01*
X156595237Y-89154819D02*
X156499999Y-89107200D01*
X156499999Y-89107200D02*
X156452380Y-89011961D01*
X156452380Y-89011961D02*
X156452380Y-88154819D01*
X157404761Y-89154819D02*
X157404761Y-88631009D01*
X157404761Y-88631009D02*
X157357142Y-88535771D01*
X157357142Y-88535771D02*
X157261904Y-88488152D01*
X157261904Y-88488152D02*
X157071428Y-88488152D01*
X157071428Y-88488152D02*
X156976190Y-88535771D01*
X157404761Y-89107200D02*
X157309523Y-89154819D01*
X157309523Y-89154819D02*
X157071428Y-89154819D01*
X157071428Y-89154819D02*
X156976190Y-89107200D01*
X156976190Y-89107200D02*
X156928571Y-89011961D01*
X156928571Y-89011961D02*
X156928571Y-88916723D01*
X156928571Y-88916723D02*
X156976190Y-88821485D01*
X156976190Y-88821485D02*
X157071428Y-88773866D01*
X157071428Y-88773866D02*
X157309523Y-88773866D01*
X157309523Y-88773866D02*
X157404761Y-88726247D01*
X157833333Y-89107200D02*
X157928571Y-89154819D01*
X157928571Y-89154819D02*
X158119047Y-89154819D01*
X158119047Y-89154819D02*
X158214285Y-89107200D01*
X158214285Y-89107200D02*
X158261904Y-89011961D01*
X158261904Y-89011961D02*
X158261904Y-88964342D01*
X158261904Y-88964342D02*
X158214285Y-88869104D01*
X158214285Y-88869104D02*
X158119047Y-88821485D01*
X158119047Y-88821485D02*
X157976190Y-88821485D01*
X157976190Y-88821485D02*
X157880952Y-88773866D01*
X157880952Y-88773866D02*
X157833333Y-88678628D01*
X157833333Y-88678628D02*
X157833333Y-88631009D01*
X157833333Y-88631009D02*
X157880952Y-88535771D01*
X157880952Y-88535771D02*
X157976190Y-88488152D01*
X157976190Y-88488152D02*
X158119047Y-88488152D01*
X158119047Y-88488152D02*
X158214285Y-88535771D01*
X158690476Y-89154819D02*
X158690476Y-88154819D01*
X159119047Y-89154819D02*
X159119047Y-88631009D01*
X159119047Y-88631009D02*
X159071428Y-88535771D01*
X159071428Y-88535771D02*
X158976190Y-88488152D01*
X158976190Y-88488152D02*
X158833333Y-88488152D01*
X158833333Y-88488152D02*
X158738095Y-88535771D01*
X158738095Y-88535771D02*
X158690476Y-88583390D01*
X160166666Y-89059580D02*
X160119047Y-89107200D01*
X160119047Y-89107200D02*
X159976190Y-89154819D01*
X159976190Y-89154819D02*
X159880952Y-89154819D01*
X159880952Y-89154819D02*
X159738095Y-89107200D01*
X159738095Y-89107200D02*
X159642857Y-89011961D01*
X159642857Y-89011961D02*
X159595238Y-88916723D01*
X159595238Y-88916723D02*
X159547619Y-88726247D01*
X159547619Y-88726247D02*
X159547619Y-88583390D01*
X159547619Y-88583390D02*
X159595238Y-88392914D01*
X159595238Y-88392914D02*
X159642857Y-88297676D01*
X159642857Y-88297676D02*
X159738095Y-88202438D01*
X159738095Y-88202438D02*
X159880952Y-88154819D01*
X159880952Y-88154819D02*
X159976190Y-88154819D01*
X159976190Y-88154819D02*
X160119047Y-88202438D01*
X160119047Y-88202438D02*
X160166666Y-88250057D01*
X160547619Y-88869104D02*
X161023809Y-88869104D01*
X160452381Y-89154819D02*
X160785714Y-88154819D01*
X160785714Y-88154819D02*
X161119047Y-89154819D01*
X161309524Y-88154819D02*
X161880952Y-88154819D01*
X161595238Y-89154819D02*
X161595238Y-88154819D01*
X162976191Y-89154819D02*
X162976191Y-88154819D01*
X162976191Y-88154819D02*
X163357143Y-88154819D01*
X163357143Y-88154819D02*
X163452381Y-88202438D01*
X163452381Y-88202438D02*
X163500000Y-88250057D01*
X163500000Y-88250057D02*
X163547619Y-88345295D01*
X163547619Y-88345295D02*
X163547619Y-88488152D01*
X163547619Y-88488152D02*
X163500000Y-88583390D01*
X163500000Y-88583390D02*
X163452381Y-88631009D01*
X163452381Y-88631009D02*
X163357143Y-88678628D01*
X163357143Y-88678628D02*
X162976191Y-88678628D01*
X163880953Y-88154819D02*
X164500000Y-88154819D01*
X164500000Y-88154819D02*
X164166667Y-88535771D01*
X164166667Y-88535771D02*
X164309524Y-88535771D01*
X164309524Y-88535771D02*
X164404762Y-88583390D01*
X164404762Y-88583390D02*
X164452381Y-88631009D01*
X164452381Y-88631009D02*
X164500000Y-88726247D01*
X164500000Y-88726247D02*
X164500000Y-88964342D01*
X164500000Y-88964342D02*
X164452381Y-89059580D01*
X164452381Y-89059580D02*
X164404762Y-89107200D01*
X164404762Y-89107200D02*
X164309524Y-89154819D01*
X164309524Y-89154819D02*
X164023810Y-89154819D01*
X164023810Y-89154819D02*
X163928572Y-89107200D01*
X163928572Y-89107200D02*
X163880953Y-89059580D01*
X165119048Y-88154819D02*
X165214286Y-88154819D01*
X165214286Y-88154819D02*
X165309524Y-88202438D01*
X165309524Y-88202438D02*
X165357143Y-88250057D01*
X165357143Y-88250057D02*
X165404762Y-88345295D01*
X165404762Y-88345295D02*
X165452381Y-88535771D01*
X165452381Y-88535771D02*
X165452381Y-88773866D01*
X165452381Y-88773866D02*
X165404762Y-88964342D01*
X165404762Y-88964342D02*
X165357143Y-89059580D01*
X165357143Y-89059580D02*
X165309524Y-89107200D01*
X165309524Y-89107200D02*
X165214286Y-89154819D01*
X165214286Y-89154819D02*
X165119048Y-89154819D01*
X165119048Y-89154819D02*
X165023810Y-89107200D01*
X165023810Y-89107200D02*
X164976191Y-89059580D01*
X164976191Y-89059580D02*
X164928572Y-88964342D01*
X164928572Y-88964342D02*
X164880953Y-88773866D01*
X164880953Y-88773866D02*
X164880953Y-88535771D01*
X164880953Y-88535771D02*
X164928572Y-88345295D01*
X164928572Y-88345295D02*
X164976191Y-88250057D01*
X164976191Y-88250057D02*
X165023810Y-88202438D01*
X165023810Y-88202438D02*
X165119048Y-88154819D01*
D10*
X147890476Y-91263855D02*
X147890476Y-91911474D01*
X147890476Y-91911474D02*
X147928571Y-91987664D01*
X147928571Y-91987664D02*
X147966666Y-92025760D01*
X147966666Y-92025760D02*
X148042857Y-92063855D01*
X148042857Y-92063855D02*
X148195238Y-92063855D01*
X148195238Y-92063855D02*
X148271428Y-92025760D01*
X148271428Y-92025760D02*
X148309523Y-91987664D01*
X148309523Y-91987664D02*
X148347619Y-91911474D01*
X148347619Y-91911474D02*
X148347619Y-91263855D01*
X149147618Y-92063855D02*
X148690475Y-92063855D01*
X148919047Y-92063855D02*
X148919047Y-91263855D01*
X148919047Y-91263855D02*
X148842856Y-91378140D01*
X148842856Y-91378140D02*
X148766666Y-91454331D01*
X148766666Y-91454331D02*
X148690475Y-91492426D01*
X159328571Y-93835283D02*
X159709524Y-93835283D01*
X159252381Y-94063855D02*
X159519048Y-93263855D01*
X159519048Y-93263855D02*
X159785714Y-94063855D01*
X160471428Y-94063855D02*
X160014285Y-94063855D01*
X160242857Y-94063855D02*
X160242857Y-93263855D01*
X160242857Y-93263855D02*
X160166666Y-93378140D01*
X160166666Y-93378140D02*
X160090476Y-93454331D01*
X160090476Y-93454331D02*
X160014285Y-93492426D01*
%TO.C,U1*%
X134380000Y-92580000D02*
X162620000Y-92580000D01*
X162620000Y-117420000D01*
X134380000Y-117420000D01*
X134380000Y-92580000D01*
X162900000Y-92300000D02*
X162900000Y-94300000D01*
X160900000Y-92300000D01*
X162900000Y-92300000D01*
G36*
X162900000Y-94300000D02*
G01*
X160900000Y-92300000D01*
X162900000Y-92300000D01*
X162900000Y-94300000D01*
G37*
%TD*%
%LPC*%
D12*
%TO.C,U1*%
X156500000Y-113000000D03*
X155500000Y-97000000D03*
X140500000Y-113000000D03*
X140500000Y-97000000D03*
D13*
X151910000Y-101590000D03*
D14*
X151910000Y-102590000D03*
X151910000Y-103590000D03*
X151910000Y-104590000D03*
X151910000Y-105590000D03*
X151910000Y-106590000D03*
X151910000Y-107590000D03*
X151910000Y-108590000D03*
X150910000Y-101590000D03*
X150910000Y-102590000D03*
X150910000Y-103590000D03*
X150910000Y-104590000D03*
X150910000Y-105590000D03*
X150910000Y-106590000D03*
X150910000Y-107590000D03*
X150910000Y-108590000D03*
X149910000Y-101590000D03*
X149910000Y-102590000D03*
X149910000Y-103590000D03*
X149910000Y-104590000D03*
X149910000Y-105590000D03*
X149910000Y-106590000D03*
X149910000Y-107590000D03*
X149910000Y-108590000D03*
X148910000Y-101590000D03*
X148910000Y-102590000D03*
X148910000Y-103590000D03*
X148910000Y-104590000D03*
X148910000Y-105590000D03*
X148910000Y-106590000D03*
X148910000Y-107590000D03*
X148910000Y-108590000D03*
X147910000Y-101590000D03*
X147910000Y-102590000D03*
X147910000Y-103590000D03*
X147910000Y-104590000D03*
X147910000Y-105590000D03*
X147910000Y-106590000D03*
X147910000Y-107590000D03*
X147910000Y-108590000D03*
X146910000Y-101590000D03*
X146910000Y-102590000D03*
X146910000Y-103590000D03*
X146910000Y-104590000D03*
X146910000Y-105590000D03*
X146910000Y-106590000D03*
X146910000Y-107590000D03*
X146910000Y-108590000D03*
X145910000Y-101590000D03*
X145910000Y-102590000D03*
X145910000Y-103590000D03*
X145910000Y-104590000D03*
X145910000Y-105590000D03*
X145910000Y-106590000D03*
X145910000Y-107590000D03*
X145910000Y-108590000D03*
X144910000Y-101590000D03*
X144910000Y-102590000D03*
X144910000Y-103590000D03*
X144910000Y-104590000D03*
X144910000Y-105590000D03*
X144910000Y-106590000D03*
X144910000Y-107590000D03*
X144910000Y-108590000D03*
%TD*%
D15*
%TO.C,J2*%
X170500000Y-92000000D03*
D16*
X168500000Y-92000000D03*
X170500000Y-94000000D03*
X168500000Y-94000000D03*
X170500000Y-96000000D03*
X168500000Y-96000000D03*
X170500000Y-98000000D03*
X168500000Y-98000000D03*
X170500000Y-100000000D03*
X168500000Y-100000000D03*
X170500000Y-102000000D03*
X168500000Y-102000000D03*
X170500000Y-104000000D03*
X168500000Y-104000000D03*
X170500000Y-106000000D03*
X168500000Y-106000000D03*
X170500000Y-108000000D03*
X168500000Y-108000000D03*
X170500000Y-110000000D03*
X168500000Y-110000000D03*
X170500000Y-112000000D03*
X168500000Y-112000000D03*
X170500000Y-114000000D03*
X168500000Y-114000000D03*
X170500000Y-116000000D03*
X168500000Y-116000000D03*
X170500000Y-118000000D03*
X168500000Y-118000000D03*
%TD*%
D15*
%TO.C,J1*%
X128500000Y-92000000D03*
D16*
X126500000Y-92000000D03*
X128500000Y-94000000D03*
X126500000Y-94000000D03*
X128500000Y-96000000D03*
X126500000Y-96000000D03*
X128500000Y-98000000D03*
X126500000Y-98000000D03*
X128500000Y-100000000D03*
X126500000Y-100000000D03*
X128500000Y-102000000D03*
X126500000Y-102000000D03*
X128500000Y-104000000D03*
X126500000Y-104000000D03*
X128500000Y-106000000D03*
X126500000Y-106000000D03*
X128500000Y-108000000D03*
X126500000Y-108000000D03*
X128500000Y-110000000D03*
X126500000Y-110000000D03*
X128500000Y-112000000D03*
X126500000Y-112000000D03*
X128500000Y-114000000D03*
X126500000Y-114000000D03*
X128500000Y-116000000D03*
X126500000Y-116000000D03*
X128500000Y-118000000D03*
X126500000Y-118000000D03*
%TD*%
%LPD*%
M02*
