%TF.GenerationSoftware,KiCad,Pcbnew,10.0.6-10.0.6~ubuntu26.04.1*%
%TF.CreationDate,2026-09-29T06:23:19+02:00*%
%TF.ProjectId,flashcat_p30,666c6173-6863-4617-945f-7033302e6b69,B*%
%TF.SameCoordinates,Original*%
%TF.FileFunction,Copper,L1,Top*%
%TF.FilePolarity,Positive*%
%FSLAX46Y46*%
G04 Gerber Fmt 4.6, Leading zero omitted, Abs format (unit mm)*
G04 Created by KiCad (PCBNEW 10.0.6-10.0.6~ubuntu26.04.1) date 2026-09-29 06:23:19*
%MOMM*%
%LPD*%
G01*
G04 APERTURE LIST*
%TA.AperFunction,ComponentPad*%
%ADD10R,0.600000X0.600000*%
%TD*%
%TA.AperFunction,ComponentPad*%
%ADD11C,0.600000*%
%TD*%
%TA.AperFunction,ComponentPad*%
%ADD12R,1.350000X1.350000*%
%TD*%
%TA.AperFunction,ComponentPad*%
%ADD13C,1.350000*%
%TD*%
%TA.AperFunction,ViaPad*%
%ADD14C,0.500000*%
%TD*%
%TA.AperFunction,Conductor*%
%ADD15C,0.127000*%
%TD*%
G04 APERTURE END LIST*
D10*
%TO.P,U1,A1*%
%TO.N,/A1*%
X151910000Y-101590000D03*
D11*
%TO.P,U1,A2*%
%TO.N,/A6*%
X151910000Y-102590000D03*
%TO.P,U1,A3*%
%TO.N,/A8*%
X151910000Y-103590000D03*
%TO.P,U1,A4*%
%TO.N,VCC_PROG*%
X151910000Y-104590000D03*
%TO.P,U1,A5*%
%TO.N,/A13*%
X151910000Y-105590000D03*
%TO.P,U1,A6*%
%TO.N,+1V8*%
X151910000Y-106590000D03*
%TO.P,U1,A7*%
%TO.N,/A18*%
X151910000Y-107590000D03*
%TO.P,U1,A8*%
%TO.N,/A22*%
X151910000Y-108590000D03*
%TO.P,U1,B1*%
%TO.N,/A2*%
X150910000Y-101590000D03*
%TO.P,U1,B2*%
%TO.N,GND*%
X150910000Y-102590000D03*
%TO.P,U1,B3*%
%TO.N,/A9*%
X150910000Y-103590000D03*
%TO.P,U1,B4*%
%TO.N,/~{CE}*%
X150910000Y-104590000D03*
%TO.P,U1,B5*%
%TO.N,/A14*%
X150910000Y-105590000D03*
%TO.P,U1,B6*%
%TO.N,/A25*%
X150910000Y-106590000D03*
%TO.P,U1,B7*%
%TO.N,/A19*%
X150910000Y-107590000D03*
%TO.P,U1,B8*%
%TO.N,unconnected-(U1-RFU-PadB8)*%
X150910000Y-108590000D03*
%TO.P,U1,C1*%
%TO.N,/A3*%
X149910000Y-101590000D03*
%TO.P,U1,C2*%
%TO.N,/A7*%
X149910000Y-102590000D03*
%TO.P,U1,C3*%
%TO.N,/A10*%
X149910000Y-103590000D03*
%TO.P,U1,C4*%
%TO.N,/A12*%
X149910000Y-104590000D03*
%TO.P,U1,C5*%
%TO.N,/A15*%
X149910000Y-105590000D03*
%TO.P,U1,C6*%
%TO.N,VCC_PROG*%
X149910000Y-106590000D03*
%TO.P,U1,C7*%
%TO.N,/A20*%
X149910000Y-107590000D03*
%TO.P,U1,C8*%
%TO.N,/A21*%
X149910000Y-108590000D03*
%TO.P,U1,D1*%
%TO.N,/A4*%
X148910000Y-101590000D03*
%TO.P,U1,D2*%
%TO.N,/A5*%
X148910000Y-102590000D03*
%TO.P,U1,D3*%
%TO.N,/A11*%
X148910000Y-103590000D03*
%TO.P,U1,D4*%
%TO.N,/~{RST}*%
X148910000Y-104590000D03*
%TO.P,U1,D5*%
%TO.N,VCC_PROG*%
X148910000Y-105590000D03*
%TO.P,U1,D6*%
X148910000Y-106590000D03*
%TO.P,U1,D7*%
%TO.N,/A16*%
X148910000Y-107590000D03*
%TO.P,U1,D8*%
%TO.N,/A17*%
X148910000Y-108590000D03*
%TO.P,U1,E1*%
%TO.N,/DQ8*%
X147910000Y-101590000D03*
%TO.P,U1,E2*%
%TO.N,/DQ1*%
X147910000Y-102590000D03*
%TO.P,U1,E3*%
%TO.N,/DQ9*%
X147910000Y-103590000D03*
%TO.P,U1,E4*%
%TO.N,/DQ3*%
X147910000Y-104590000D03*
%TO.P,U1,E5*%
%TO.N,/DQ4*%
X147910000Y-105590000D03*
%TO.P,U1,E6*%
%TO.N,GND*%
X147910000Y-106590000D03*
%TO.P,U1,E7*%
%TO.N,/DQ15*%
X147910000Y-107590000D03*
%TO.P,U1,E8*%
%TO.N,unconnected-(U1-RFU-PadE8)*%
X147910000Y-108590000D03*
%TO.P,U1,F1*%
%TO.N,unconnected-(U1-RFU-PadF1)*%
X146910000Y-101590000D03*
%TO.P,U1,F2*%
%TO.N,/DQ0*%
X146910000Y-102590000D03*
%TO.P,U1,F3*%
%TO.N,/DQ10*%
X146910000Y-103590000D03*
%TO.P,U1,F4*%
%TO.N,/DQ11*%
X146910000Y-104590000D03*
%TO.P,U1,F5*%
%TO.N,/DQ12*%
X146910000Y-105590000D03*
%TO.P,U1,F6*%
%TO.N,GND*%
X146910000Y-106590000D03*
%TO.P,U1,F7*%
%TO.N,/WAIT*%
X146910000Y-107590000D03*
%TO.P,U1,F8*%
%TO.N,/~{OE}*%
X146910000Y-108590000D03*
%TO.P,U1,G1*%
%TO.N,/A23*%
X145910000Y-101590000D03*
%TO.P,U1,G2*%
%TO.N,unconnected-(U1-RFU-PadG2)*%
X145910000Y-102590000D03*
%TO.P,U1,G3*%
%TO.N,/DQ2*%
X145910000Y-103590000D03*
%TO.P,U1,G4*%
%TO.N,VCC_PROG*%
X145910000Y-104590000D03*
%TO.P,U1,G5*%
%TO.N,/DQ5*%
X145910000Y-105590000D03*
%TO.P,U1,G6*%
%TO.N,/DQ6*%
X145910000Y-106590000D03*
%TO.P,U1,G7*%
%TO.N,/DQ14*%
X145910000Y-107590000D03*
%TO.P,U1,G8*%
%TO.N,/~{WE}*%
X145910000Y-108590000D03*
%TO.P,U1,H1*%
%TO.N,unconnected-(U1-RFU-PadH1)*%
X144910000Y-101590000D03*
%TO.P,U1,H2*%
%TO.N,GND*%
X144910000Y-102590000D03*
%TO.P,U1,H3*%
%TO.N,+1V8*%
X144910000Y-103590000D03*
%TO.P,U1,H4*%
%TO.N,GND*%
X144910000Y-104590000D03*
%TO.P,U1,H5*%
%TO.N,/DQ13*%
X144910000Y-105590000D03*
%TO.P,U1,H6*%
%TO.N,GND*%
X144910000Y-106590000D03*
%TO.P,U1,H7*%
%TO.N,/DQ7*%
X144910000Y-107590000D03*
%TO.P,U1,H8*%
%TO.N,/A24*%
X144910000Y-108590000D03*
%TD*%
D12*
%TO.P,J2,1*%
%TO.N,unconnected-(J2-A27{slash}RB1-Pad1)*%
X170500000Y-92000000D03*
D13*
%TO.P,J2,2*%
%TO.N,unconnected-(J2-A0{slash}CE1-Pad2)*%
X168500000Y-92000000D03*
%TO.P,J2,3*%
%TO.N,unconnected-(J2-A26{slash}RB2-Pad3)*%
X170500000Y-94000000D03*
%TO.P,J2,4*%
%TO.N,/A1*%
X168500000Y-94000000D03*
%TO.P,J2,5*%
%TO.N,/A25*%
X170500000Y-96000000D03*
%TO.P,J2,6*%
%TO.N,/A2*%
X168500000Y-96000000D03*
%TO.P,J2,7*%
%TO.N,/A24*%
X170500000Y-98000000D03*
%TO.P,J2,8*%
%TO.N,/A3*%
X168500000Y-98000000D03*
%TO.P,J2,9*%
%TO.N,/A23*%
X170500000Y-100000000D03*
%TO.P,J2,10*%
%TO.N,/A4*%
X168500000Y-100000000D03*
%TO.P,J2,11*%
%TO.N,/A22*%
X170500000Y-102000000D03*
%TO.P,J2,12*%
%TO.N,/A5*%
X168500000Y-102000000D03*
%TO.P,J2,13*%
%TO.N,/A21*%
X170500000Y-104000000D03*
%TO.P,J2,14*%
%TO.N,/A6*%
X168500000Y-104000000D03*
%TO.P,J2,15*%
%TO.N,/A20*%
X170500000Y-106000000D03*
%TO.P,J2,16*%
%TO.N,/A7*%
X168500000Y-106000000D03*
%TO.P,J2,17*%
%TO.N,/A19*%
X170500000Y-108000000D03*
%TO.P,J2,18*%
%TO.N,/A8*%
X168500000Y-108000000D03*
%TO.P,J2,19*%
%TO.N,/A18*%
X170500000Y-110000000D03*
%TO.P,J2,20*%
%TO.N,/A9*%
X168500000Y-110000000D03*
%TO.P,J2,21*%
%TO.N,/A17*%
X170500000Y-112000000D03*
%TO.P,J2,22*%
%TO.N,/A10*%
X168500000Y-112000000D03*
%TO.P,J2,23*%
%TO.N,/A16*%
X170500000Y-114000000D03*
%TO.P,J2,24*%
%TO.N,/A11*%
X168500000Y-114000000D03*
%TO.P,J2,25*%
%TO.N,/A15*%
X170500000Y-116000000D03*
%TO.P,J2,26*%
%TO.N,/A12*%
X168500000Y-116000000D03*
%TO.P,J2,27*%
%TO.N,/A14*%
X170500000Y-118000000D03*
%TO.P,J2,28*%
%TO.N,/A13*%
X168500000Y-118000000D03*
%TD*%
D12*
%TO.P,J1,1*%
%TO.N,VCC_PROG*%
X128500000Y-92000000D03*
D13*
%TO.P,J1,2*%
%TO.N,GND*%
X126500000Y-92000000D03*
%TO.P,J1,3*%
%TO.N,unconnected-(J1-VIO-Pad3)*%
X128500000Y-94000000D03*
%TO.P,J1,4*%
%TO.N,unconnected-(J1-VPP-Pad4)*%
X126500000Y-94000000D03*
%TO.P,J1,5*%
%TO.N,/~{OE}*%
X128500000Y-96000000D03*
%TO.P,J1,6*%
%TO.N,unconnected-(J1-CLE-Pad6)*%
X126500000Y-96000000D03*
%TO.P,J1,7*%
%TO.N,/~{WE}*%
X128500000Y-98000000D03*
%TO.P,J1,8*%
%TO.N,unconnected-(J1-ALE-Pad8)*%
X126500000Y-98000000D03*
%TO.P,J1,9*%
%TO.N,/~{CE}*%
X128500000Y-100000000D03*
%TO.P,J1,10*%
%TO.N,unconnected-(J1-RE{slash}B#-Pad10)*%
X126500000Y-100000000D03*
%TO.P,J1,11*%
%TO.N,unconnected-(J1-DQS-Pad11)*%
X128500000Y-102000000D03*
%TO.P,J1,12*%
%TO.N,/WAIT*%
X126500000Y-102000000D03*
%TO.P,J1,13*%
%TO.N,/DQ8*%
X128500000Y-104000000D03*
%TO.P,J1,14*%
%TO.N,/DQ0*%
X126500000Y-104000000D03*
%TO.P,J1,15*%
%TO.N,/DQ9*%
X128500000Y-106000000D03*
%TO.P,J1,16*%
%TO.N,/DQ1*%
X126500000Y-106000000D03*
%TO.P,J1,17*%
%TO.N,/DQ10*%
X128500000Y-108000000D03*
%TO.P,J1,18*%
%TO.N,/DQ2*%
X126500000Y-108000000D03*
%TO.P,J1,19*%
%TO.N,/DQ11*%
X128500000Y-110000000D03*
%TO.P,J1,20*%
%TO.N,/DQ3*%
X126500000Y-110000000D03*
%TO.P,J1,21*%
%TO.N,/DQ12*%
X128500000Y-112000000D03*
%TO.P,J1,22*%
%TO.N,/DQ4*%
X126500000Y-112000000D03*
%TO.P,J1,23*%
%TO.N,/DQ13*%
X128500000Y-114000000D03*
%TO.P,J1,24*%
%TO.N,/DQ5*%
X126500000Y-114000000D03*
%TO.P,J1,25*%
%TO.N,/DQ14*%
X128500000Y-116000000D03*
%TO.P,J1,26*%
%TO.N,/DQ6*%
X126500000Y-116000000D03*
%TO.P,J1,27*%
%TO.N,/DQ15*%
X128500000Y-118000000D03*
%TO.P,J1,28*%
%TO.N,/DQ7*%
X126500000Y-118000000D03*
%TD*%
D14*
%TO.N,VCC_PROG*%
X142810000Y-91982700D03*
X145395000Y-120405000D03*
X142810000Y-105090000D03*
X146900000Y-111500000D03*
%TO.N,/A13*%
X165686600Y-105590000D03*
%TO.N,+1V8*%
X146579400Y-90120000D03*
%TO.N,/A22*%
X169388300Y-108883800D03*
%TO.N,GND*%
X140995001Y-103090000D03*
X140300001Y-91887500D03*
X147860000Y-113190000D03*
X140995001Y-105090000D03*
X155825000Y-104090000D03*
X146900000Y-118475000D03*
X155825000Y-107089999D03*
X149410000Y-113190000D03*
X136500000Y-88075000D03*
X144100000Y-88075000D03*
%TO.N,/A9*%
X166826800Y-106152400D03*
%TO.N,/~{CE}*%
X151218100Y-99110200D03*
%TO.N,/A14*%
X167146200Y-107445500D03*
%TO.N,/A25*%
X157548800Y-106647800D03*
%TO.N,/A12*%
X166824600Y-104863900D03*
%TO.N,/A15*%
X171415000Y-105000000D03*
%TO.N,/A21*%
X156586000Y-104361500D03*
%TO.N,/A11*%
X167050600Y-103090000D03*
%TO.N,/~{RST}*%
X148409900Y-117384900D03*
%TO.N,/A17*%
X150609300Y-111352000D03*
%TO.N,/DQ8*%
X146909000Y-100400200D03*
%TO.N,/DQ9*%
X129949200Y-100086800D03*
%TO.N,/DQ4*%
X148882700Y-114919900D03*
%TO.N,/DQ11*%
X140014800Y-109442400D03*
%TO.N,/WAIT*%
X148000100Y-119162200D03*
X125631500Y-119162200D03*
%TO.N,/~{OE}*%
X144226800Y-109310300D03*
X137324900Y-109555500D03*
%TO.N,/~{WE}*%
X136652500Y-110689900D03*
%TO.N,/DQ13*%
X127455600Y-109044200D03*
%TO.N,/DQ7*%
X141978300Y-117572900D03*
%TO.N,/A24*%
X141995800Y-98465500D03*
X140932800Y-107887600D03*
%TD*%
%TO.N,/A6*%
D15*
X168500000Y-104000000D02*
X168500000Y-103899600D01*
X151910000Y-102590000D02*
X152810000Y-102590000D01*
X168500000Y-103899600D02*
X167190400Y-102590000D01*
X167190400Y-102590000D02*
X152810000Y-102590000D01*
%TO.N,/A8*%
X152810000Y-103590000D02*
X154445500Y-103590000D01*
X164669600Y-103335700D02*
X167269000Y-105935100D01*
X154445500Y-103590000D02*
X154699800Y-103335700D01*
X167269000Y-106769000D02*
X168500000Y-108000000D01*
X167269000Y-105935100D02*
X167269000Y-106769000D01*
X154699800Y-103335700D02*
X164669600Y-103335700D01*
X151910000Y-103590000D02*
X152810000Y-103590000D01*
%TO.N,VCC_PROG*%
X148910000Y-105590000D02*
X148910000Y-106590000D01*
%TO.N,/A13*%
X152810000Y-105590000D02*
X165686600Y-105590000D01*
X151910000Y-105590000D02*
X152810000Y-105590000D01*
%TO.N,/A18*%
X166332200Y-109000000D02*
X168813300Y-109000000D01*
X169813300Y-110000000D02*
X170500000Y-110000000D01*
X168813300Y-109000000D02*
X169813300Y-110000000D01*
X164922200Y-107590000D02*
X166332200Y-109000000D01*
X151910000Y-107590000D02*
X152810000Y-107590000D01*
X152810000Y-107590000D02*
X164922200Y-107590000D01*
%TO.N,/A9*%
X150910000Y-103590000D02*
X151410000Y-104090000D01*
X164426700Y-103641100D02*
X166826800Y-106041200D01*
X153210000Y-104090000D02*
X154433900Y-104090000D01*
X151410000Y-104090000D02*
X153210000Y-104090000D01*
X166826800Y-106041200D02*
X166826800Y-106152400D01*
X154882800Y-103641100D02*
X164426700Y-103641100D01*
X154433900Y-104090000D02*
X154882800Y-103641100D01*
%TO.N,/~{CE}*%
X151218100Y-99110200D02*
X129389800Y-99110200D01*
X129389800Y-99110200D02*
X128500000Y-100000000D01*
%TO.N,/A14*%
X151410000Y-106090000D02*
X153210000Y-106090000D01*
X165790700Y-106090000D02*
X167146200Y-107445500D01*
X153210000Y-106090000D02*
X165790700Y-106090000D01*
X150910000Y-105590000D02*
X151410000Y-106090000D01*
%TO.N,/A25*%
X153652200Y-106647800D02*
X153210000Y-107090000D01*
X150910000Y-106590000D02*
X151410000Y-107089999D01*
X151410000Y-107089999D02*
X153210000Y-107089999D01*
X157548800Y-106647800D02*
X153652200Y-106647800D01*
%TO.N,/A19*%
X151410000Y-108090000D02*
X153210000Y-108090000D01*
X171371400Y-110432700D02*
X171371400Y-108871400D01*
X170933200Y-110870900D02*
X171371400Y-110432700D01*
X164949600Y-108090000D02*
X167730500Y-110870900D01*
X153210000Y-108090000D02*
X164949600Y-108090000D01*
X167730500Y-110870900D02*
X170933200Y-110870900D01*
X150910000Y-107590000D02*
X151410000Y-108090000D01*
X171371400Y-108871400D02*
X170500000Y-108000000D01*
%TO.N,/A7*%
X165664700Y-103078600D02*
X154595200Y-103078600D01*
X154583800Y-103090000D02*
X150410000Y-103090000D01*
X150410000Y-103090000D02*
X149910000Y-102590000D01*
X168500000Y-106000000D02*
X168500000Y-105913900D01*
X154595200Y-103078600D02*
X154583800Y-103090000D01*
X168500000Y-105913900D02*
X165664700Y-103078600D01*
%TO.N,/A10*%
X166840400Y-112000000D02*
X168500000Y-112000000D01*
X150409900Y-104089900D02*
X150409900Y-108845400D01*
X149910000Y-103590000D02*
X150409900Y-104089900D01*
X152430200Y-110865700D02*
X165706100Y-110865700D01*
X150409900Y-108845400D02*
X152430200Y-110865700D01*
X165706100Y-110865700D02*
X166840400Y-112000000D01*
%TO.N,/A4*%
X150729600Y-99744300D02*
X150985300Y-100000000D01*
X148910000Y-100690000D02*
X148910000Y-100401200D01*
X150985300Y-100000000D02*
X168500000Y-100000000D01*
X148910000Y-100401200D02*
X149566900Y-99744300D01*
X148910000Y-101590000D02*
X148910000Y-100690000D01*
X149566900Y-99744300D02*
X150729600Y-99744300D01*
%TO.N,/A5*%
X149410000Y-100290000D02*
X149700000Y-100000000D01*
X148910000Y-102590000D02*
X149410000Y-102090000D01*
X149700000Y-100000000D02*
X150623700Y-100000000D01*
X166755700Y-100255700D02*
X168500000Y-102000000D01*
X150879400Y-100255700D02*
X166755700Y-100255700D01*
X150623700Y-100000000D02*
X150879400Y-100255700D01*
X149410000Y-102090000D02*
X149410000Y-100290000D01*
%TO.N,/A16*%
X151213800Y-111331100D02*
X149772700Y-109890000D01*
X169500000Y-113000000D02*
X158539600Y-113000000D01*
X158539600Y-113000000D02*
X156870700Y-111331100D01*
X148910000Y-107590000D02*
X149410000Y-108090000D01*
X156870700Y-111331100D02*
X151213800Y-111331100D01*
X149410000Y-108090000D02*
X149410000Y-109890000D01*
X170500000Y-114000000D02*
X169500000Y-113000000D01*
X149772700Y-109890000D02*
X149410000Y-109890000D01*
%TO.N,/A17*%
X148910000Y-109490000D02*
X148910000Y-109754000D01*
X150508000Y-111352000D02*
X150609300Y-111352000D01*
X148910000Y-108590000D02*
X148910000Y-109490000D01*
X148910000Y-109754000D02*
X150508000Y-111352000D01*
%TO.N,/DQ1*%
X147402200Y-103097800D02*
X143431100Y-103097800D01*
X132216400Y-105000000D02*
X127500000Y-105000000D01*
X127500000Y-105000000D02*
X126500000Y-106000000D01*
X147910000Y-102590000D02*
X147402200Y-103097800D01*
X142717700Y-103811200D02*
X133405200Y-103811200D01*
X133405200Y-103811200D02*
X132216400Y-105000000D01*
X143431100Y-103097800D02*
X142717700Y-103811200D01*
%TO.N,/DQ15*%
X130237900Y-118000000D02*
X137214200Y-111023700D01*
X137214200Y-111023700D02*
X147276300Y-111023700D01*
X128500000Y-118000000D02*
X130237900Y-118000000D01*
X147910000Y-107590000D02*
X148410000Y-108090000D01*
X147276300Y-111023700D02*
X148410000Y-109890000D01*
X148410000Y-108090000D02*
X148410000Y-109890000D01*
%TO.N,/DQ0*%
X141369700Y-102090000D02*
X146410000Y-102090000D01*
X126500000Y-104000000D02*
X127410100Y-103089900D01*
X146410000Y-102090000D02*
X146910000Y-102590000D01*
X140369800Y-103089900D02*
X141369700Y-102090000D01*
X127410100Y-103089900D02*
X140369800Y-103089900D01*
%TO.N,/WAIT*%
X148000100Y-119162200D02*
X125631500Y-119162200D01*
%TO.N,/~{OE}*%
X137659400Y-109890000D02*
X137324900Y-109555500D01*
X144226800Y-109310300D02*
X143647100Y-109890000D01*
X143647100Y-109890000D02*
X137659400Y-109890000D01*
%TO.N,/A23*%
X145910000Y-101590000D02*
X145910000Y-100690000D01*
X151027700Y-99586600D02*
X150870100Y-99429000D01*
X150870100Y-99429000D02*
X147171000Y-99429000D01*
X152824700Y-99076900D02*
X152315000Y-99586600D01*
X169576900Y-99076900D02*
X152824700Y-99076900D01*
X147171000Y-99429000D02*
X145910000Y-100690000D01*
X170500000Y-100000000D02*
X169576900Y-99076900D01*
X152315000Y-99586600D02*
X151027700Y-99586600D01*
%TO.N,/DQ2*%
X126500000Y-108000000D02*
X127500000Y-107000000D01*
X133813600Y-107000000D02*
X136723600Y-104090000D01*
X145910000Y-103590000D02*
X145410000Y-104090000D01*
X136723600Y-104090000D02*
X143610000Y-104090000D01*
X145410000Y-104090000D02*
X143610000Y-104090000D01*
X127500000Y-107000000D02*
X133813600Y-107000000D01*
%TO.N,/DQ5*%
X143610000Y-106090000D02*
X135969600Y-106090000D01*
X129059600Y-113000000D02*
X127500000Y-113000000D01*
X127500000Y-113000000D02*
X126500000Y-114000000D01*
X135969600Y-106090000D02*
X129059600Y-113000000D01*
X145910000Y-105590000D02*
X145410000Y-106090000D01*
X145410000Y-106090000D02*
X143610000Y-106090000D01*
%TO.N,/DQ6*%
X145910000Y-106590000D02*
X145410000Y-107089999D01*
X127501500Y-114998500D02*
X126500000Y-116000000D01*
X143610000Y-107090000D02*
X139010800Y-107090000D01*
X145410000Y-107089999D02*
X143610000Y-107089999D01*
X139010800Y-107090000D02*
X131102300Y-114998500D01*
X131102300Y-114998500D02*
X127501500Y-114998500D01*
%TO.N,/DQ14*%
X136571300Y-110145700D02*
X145154300Y-110145700D01*
X145410000Y-108090000D02*
X145410000Y-109890000D01*
X128500000Y-116000000D02*
X130717000Y-116000000D01*
X145154300Y-110145700D02*
X145410000Y-109890000D01*
X145910000Y-107590000D02*
X145410000Y-108090000D01*
X130717000Y-116000000D02*
X136571300Y-110145700D01*
%TO.N,/~{WE}*%
X145017700Y-110689900D02*
X136652500Y-110689900D01*
X145910000Y-109797600D02*
X145017700Y-110689900D01*
X145910000Y-109490000D02*
X145910000Y-109797600D01*
X145910000Y-108590000D02*
X145910000Y-109490000D01*
%TO.N,/DQ13*%
X132320300Y-109044200D02*
X127455600Y-109044200D01*
X135774500Y-105590000D02*
X132320300Y-109044200D01*
X144910000Y-105590000D02*
X144010000Y-105590000D01*
X144010000Y-105590000D02*
X135774500Y-105590000D01*
%TO.N,/A24*%
X169625000Y-97125000D02*
X165603800Y-97125000D01*
X164263300Y-98465500D02*
X141995800Y-98465500D01*
X165603800Y-97125000D02*
X164263300Y-98465500D01*
X144910000Y-108590000D02*
X141635200Y-108590000D01*
X141635200Y-108590000D02*
X140932800Y-107887600D01*
X170500000Y-98000000D02*
X169625000Y-97125000D01*
%TD*%
%TA.AperFunction,Conductor*%
%TO.N,GND*%
G36*
X130900331Y-115281407D02*
G01*
X130936295Y-115330907D01*
X130936295Y-115392093D01*
X130912144Y-115431504D01*
X130636644Y-115707004D01*
X130582127Y-115734781D01*
X130566640Y-115736000D01*
X129404432Y-115736000D01*
X129346241Y-115717093D01*
X129312968Y-115674886D01*
X129279431Y-115593921D01*
X129275858Y-115585295D01*
X129275856Y-115585293D01*
X129275854Y-115585287D01*
X129220893Y-115503034D01*
X129180045Y-115441901D01*
X129169648Y-115431504D01*
X129141871Y-115376987D01*
X129151442Y-115316555D01*
X129194707Y-115273290D01*
X129239652Y-115262500D01*
X130842140Y-115262500D01*
X130900331Y-115281407D01*
G37*
%TD.AperFunction*%
%TA.AperFunction,Conductor*%
G36*
X144333006Y-106372907D02*
G01*
X144368970Y-106422407D01*
X144370441Y-106478624D01*
X144360000Y-106517588D01*
X144360000Y-106662411D01*
X144370441Y-106701375D01*
X144367240Y-106762476D01*
X144328735Y-106810027D01*
X144274815Y-106825999D01*
X143545964Y-106825999D01*
X143545956Y-106826000D01*
X138958285Y-106826000D01*
X138861258Y-106866189D01*
X131021944Y-114705504D01*
X130967427Y-114733281D01*
X130951940Y-114734500D01*
X129242652Y-114734500D01*
X129184461Y-114715593D01*
X129148497Y-114666093D01*
X129148497Y-114604907D01*
X129172648Y-114565496D01*
X129180045Y-114558099D01*
X129248188Y-114456115D01*
X129275854Y-114414712D01*
X129275860Y-114414700D01*
X129341855Y-114255374D01*
X129375500Y-114086229D01*
X129375500Y-113913771D01*
X129341855Y-113744626D01*
X129319856Y-113691515D01*
X129275860Y-113585299D01*
X129275854Y-113585287D01*
X129220893Y-113503034D01*
X129180045Y-113441901D01*
X129139120Y-113400976D01*
X129111343Y-113346459D01*
X129120914Y-113286027D01*
X129164179Y-113242762D01*
X129171217Y-113239517D01*
X129209144Y-113223808D01*
X136049957Y-106382996D01*
X136104474Y-106355219D01*
X136119961Y-106354000D01*
X144274815Y-106354000D01*
X144333006Y-106372907D01*
G37*
%TD.AperFunction*%
%TA.AperFunction,Conductor*%
G36*
X165613931Y-111148607D02*
G01*
X165625744Y-111158696D01*
X166616592Y-112149544D01*
X166616591Y-112149544D01*
X166690856Y-112223808D01*
X166787887Y-112264000D01*
X167595568Y-112264000D01*
X167653759Y-112282907D01*
X167687032Y-112325114D01*
X167724141Y-112414703D01*
X167724145Y-112414712D01*
X167792660Y-112517249D01*
X167819955Y-112558099D01*
X167819958Y-112558102D01*
X167828852Y-112566996D01*
X167856629Y-112621513D01*
X167847058Y-112681945D01*
X167803793Y-112725210D01*
X167758848Y-112736000D01*
X158689960Y-112736000D01*
X158631769Y-112717093D01*
X158619956Y-112707004D01*
X157211656Y-111298704D01*
X157183879Y-111244187D01*
X157193450Y-111183755D01*
X157236715Y-111140490D01*
X157281660Y-111129700D01*
X165555740Y-111129700D01*
X165613931Y-111148607D01*
G37*
%TD.AperFunction*%
%TA.AperFunction,Conductor*%
G36*
X164857431Y-108372907D02*
G01*
X164869244Y-108382996D01*
X167506692Y-111020444D01*
X167506691Y-111020444D01*
X167553348Y-111067100D01*
X167580956Y-111094708D01*
X167677987Y-111134900D01*
X167892497Y-111134900D01*
X167950688Y-111153807D01*
X167986652Y-111203307D01*
X167986652Y-111264493D01*
X167950688Y-111313993D01*
X167947515Y-111316203D01*
X167941902Y-111319954D01*
X167941901Y-111319955D01*
X167941897Y-111319958D01*
X167819958Y-111441897D01*
X167819955Y-111441901D01*
X167724145Y-111585287D01*
X167724141Y-111585296D01*
X167687032Y-111674886D01*
X167647295Y-111721411D01*
X167595568Y-111736000D01*
X166990760Y-111736000D01*
X166932569Y-111717093D01*
X166920756Y-111707004D01*
X166394671Y-111180919D01*
X165855644Y-110641892D01*
X165855642Y-110641891D01*
X165855641Y-110641890D01*
X165792917Y-110615909D01*
X165758613Y-110601700D01*
X165758612Y-110601700D01*
X152580561Y-110601700D01*
X152522370Y-110582793D01*
X152510557Y-110572704D01*
X151125350Y-109187497D01*
X151097573Y-109132980D01*
X151107144Y-109072548D01*
X151145852Y-109031758D01*
X151217314Y-108990500D01*
X151310500Y-108897314D01*
X151324264Y-108873474D01*
X151369733Y-108832534D01*
X151430583Y-108826138D01*
X151483571Y-108856731D01*
X151495734Y-108873471D01*
X151509500Y-108897314D01*
X151602686Y-108990500D01*
X151602688Y-108990501D01*
X151602690Y-108990503D01*
X151716810Y-109056390D01*
X151716808Y-109056390D01*
X151716812Y-109056391D01*
X151716814Y-109056392D01*
X151844108Y-109090500D01*
X151844110Y-109090500D01*
X151975890Y-109090500D01*
X151975892Y-109090500D01*
X152103186Y-109056392D01*
X152103188Y-109056390D01*
X152103190Y-109056390D01*
X152217309Y-108990503D01*
X152217309Y-108990502D01*
X152217314Y-108990500D01*
X152310500Y-108897314D01*
X152310503Y-108897309D01*
X152376390Y-108783190D01*
X152376390Y-108783188D01*
X152376392Y-108783186D01*
X152410500Y-108655892D01*
X152410500Y-108524108D01*
X152398312Y-108478621D01*
X152401515Y-108417521D01*
X152440020Y-108369971D01*
X152493939Y-108354000D01*
X153157487Y-108354000D01*
X164799240Y-108354000D01*
X164857431Y-108372907D01*
G37*
%TD.AperFunction*%
%TA.AperFunction,Conductor*%
G36*
X150244657Y-109053701D02*
G01*
X150248418Y-109057270D01*
X152089243Y-110898096D01*
X152117020Y-110952613D01*
X152107449Y-111013045D01*
X152064184Y-111056310D01*
X152019239Y-111067100D01*
X151364160Y-111067100D01*
X151305969Y-111048193D01*
X151294156Y-111038104D01*
X150665752Y-110409700D01*
X149922244Y-109666192D01*
X149922242Y-109666191D01*
X149922241Y-109666190D01*
X149859517Y-109640209D01*
X149825213Y-109626000D01*
X149825212Y-109626000D01*
X149773000Y-109626000D01*
X149714809Y-109607093D01*
X149678845Y-109557593D01*
X149674000Y-109527000D01*
X149674000Y-109173938D01*
X149692907Y-109115747D01*
X149742407Y-109079783D01*
X149798621Y-109078312D01*
X149844108Y-109090500D01*
X149844109Y-109090500D01*
X149975890Y-109090500D01*
X149975892Y-109090500D01*
X150103186Y-109056392D01*
X150128914Y-109041537D01*
X150188760Y-109028816D01*
X150244657Y-109053701D01*
G37*
%TD.AperFunction*%
%TA.AperFunction,Conductor*%
G36*
X147483571Y-108856731D02*
G01*
X147495734Y-108873471D01*
X147509500Y-108897314D01*
X147602686Y-108990500D01*
X147602688Y-108990501D01*
X147602690Y-108990503D01*
X147716810Y-109056390D01*
X147716808Y-109056390D01*
X147716812Y-109056391D01*
X147716814Y-109056392D01*
X147844108Y-109090500D01*
X147844110Y-109090500D01*
X147975891Y-109090500D01*
X147975892Y-109090500D01*
X148021378Y-109078312D01*
X148082477Y-109081513D01*
X148130028Y-109120017D01*
X148146000Y-109173938D01*
X148146000Y-109739639D01*
X148127093Y-109797830D01*
X148117004Y-109809643D01*
X147195944Y-110730704D01*
X147141427Y-110758481D01*
X147125940Y-110759700D01*
X145560260Y-110759700D01*
X145502069Y-110740793D01*
X145466105Y-110691293D01*
X145466105Y-110630107D01*
X145490256Y-110590696D01*
X145671252Y-110409700D01*
X146133809Y-109947144D01*
X146147632Y-109913771D01*
X146174000Y-109850114D01*
X146174000Y-109072556D01*
X146192907Y-109014365D01*
X146212739Y-108994009D01*
X146217304Y-108990505D01*
X146217314Y-108990500D01*
X146310500Y-108897314D01*
X146324264Y-108873474D01*
X146369733Y-108832534D01*
X146430583Y-108826138D01*
X146483571Y-108856731D01*
X146495734Y-108873471D01*
X146509500Y-108897314D01*
X146602686Y-108990500D01*
X146602688Y-108990501D01*
X146602690Y-108990503D01*
X146716810Y-109056390D01*
X146716808Y-109056390D01*
X146716812Y-109056391D01*
X146716814Y-109056392D01*
X146844108Y-109090500D01*
X146844110Y-109090500D01*
X146975890Y-109090500D01*
X146975892Y-109090500D01*
X147103186Y-109056392D01*
X147103188Y-109056390D01*
X147103190Y-109056390D01*
X147217309Y-108990503D01*
X147217309Y-108990502D01*
X147217314Y-108990500D01*
X147310500Y-108897314D01*
X147324264Y-108873474D01*
X147369733Y-108832534D01*
X147430583Y-108826138D01*
X147483571Y-108856731D01*
G37*
%TD.AperFunction*%
%TA.AperFunction,Conductor*%
G36*
X169509837Y-110075145D02*
G01*
X169531464Y-110091517D01*
X169582155Y-110142208D01*
X169627678Y-110187731D01*
X169654771Y-110238416D01*
X169658144Y-110255370D01*
X169658145Y-110255375D01*
X169724139Y-110414700D01*
X169724145Y-110414712D01*
X169749661Y-110452898D01*
X169766270Y-110511786D01*
X169745093Y-110569190D01*
X169694219Y-110603183D01*
X169667346Y-110606900D01*
X169332654Y-110606900D01*
X169274463Y-110587993D01*
X169238499Y-110538493D01*
X169238499Y-110477307D01*
X169250339Y-110452898D01*
X169275854Y-110414712D01*
X169275860Y-110414700D01*
X169337910Y-110264897D01*
X169341855Y-110255374D01*
X169364365Y-110142207D01*
X169394262Y-110088824D01*
X169449827Y-110063208D01*
X169509837Y-110075145D01*
G37*
%TD.AperFunction*%
%TA.AperFunction,Conductor*%
G36*
X167817039Y-109282907D02*
G01*
X167853003Y-109332407D01*
X167853003Y-109393593D01*
X167828852Y-109433004D01*
X167819958Y-109441897D01*
X167819955Y-109441901D01*
X167724145Y-109585287D01*
X167724139Y-109585299D01*
X167658145Y-109744624D01*
X167658145Y-109744626D01*
X167624500Y-109913768D01*
X167624500Y-110086234D01*
X167636641Y-110147270D01*
X167629449Y-110208031D01*
X167587916Y-110252960D01*
X167527906Y-110264897D01*
X167472341Y-110239281D01*
X167469539Y-110236587D01*
X166665956Y-109433004D01*
X166638179Y-109378487D01*
X166647750Y-109318055D01*
X166691015Y-109274790D01*
X166735960Y-109264000D01*
X167758848Y-109264000D01*
X167817039Y-109282907D01*
G37*
%TD.AperFunction*%
%TA.AperFunction,Conductor*%
G36*
X144783685Y-109074310D02*
G01*
X144844108Y-109090500D01*
X144844111Y-109090500D01*
X144975891Y-109090500D01*
X144975892Y-109090500D01*
X145021378Y-109078312D01*
X145082477Y-109081513D01*
X145130028Y-109120017D01*
X145146000Y-109173938D01*
X145146000Y-109739640D01*
X145127093Y-109797831D01*
X145117004Y-109809644D01*
X145073944Y-109852704D01*
X145019427Y-109880481D01*
X145003940Y-109881700D01*
X144507578Y-109881700D01*
X144449387Y-109862793D01*
X144413423Y-109813293D01*
X144413423Y-109752107D01*
X144449387Y-109702607D01*
X144458078Y-109696964D01*
X144503408Y-109670792D01*
X144503408Y-109670791D01*
X144503413Y-109670789D01*
X144587289Y-109586913D01*
X144632684Y-109508288D01*
X144646597Y-109484190D01*
X144646597Y-109484188D01*
X144646599Y-109484186D01*
X144677300Y-109369609D01*
X144677300Y-109250991D01*
X144662447Y-109195559D01*
X144665649Y-109134461D01*
X144704154Y-109086911D01*
X144763255Y-109071075D01*
X144783685Y-109074310D01*
G37*
%TD.AperFunction*%
%TA.AperFunction,Conductor*%
G36*
X140648482Y-107372907D02*
G01*
X140684446Y-107422407D01*
X140684446Y-107483593D01*
X140660295Y-107523004D01*
X140656189Y-107527109D01*
X140656187Y-107527111D01*
X140598011Y-107585287D01*
X140572308Y-107610990D01*
X140572307Y-107610991D01*
X140513002Y-107713709D01*
X140504718Y-107744626D01*
X140482300Y-107828291D01*
X140482300Y-107946909D01*
X140509374Y-108047951D01*
X140513002Y-108061490D01*
X140572307Y-108164208D01*
X140572309Y-108164210D01*
X140572311Y-108164213D01*
X140656187Y-108248089D01*
X140656189Y-108248090D01*
X140656191Y-108248092D01*
X140758910Y-108307397D01*
X140758911Y-108307397D01*
X140758914Y-108307399D01*
X140873491Y-108338100D01*
X140873493Y-108338100D01*
X140968939Y-108338100D01*
X141027130Y-108357007D01*
X141038943Y-108367096D01*
X141485656Y-108813809D01*
X141553367Y-108841855D01*
X141582687Y-108854000D01*
X141582688Y-108854000D01*
X141687713Y-108854000D01*
X143806991Y-108854000D01*
X143865182Y-108872907D01*
X143901146Y-108922407D01*
X143901146Y-108983593D01*
X143876996Y-109023001D01*
X143871182Y-109028816D01*
X143866308Y-109033690D01*
X143866307Y-109033691D01*
X143807002Y-109136409D01*
X143807001Y-109136414D01*
X143783494Y-109224145D01*
X143776300Y-109250992D01*
X143776300Y-109346439D01*
X143757393Y-109404630D01*
X143747304Y-109416442D01*
X143701545Y-109462202D01*
X143601276Y-109562472D01*
X143566745Y-109597003D01*
X143512229Y-109624781D01*
X143496741Y-109626000D01*
X140561015Y-109626000D01*
X140502824Y-109607093D01*
X140466860Y-109557593D01*
X140465570Y-109508288D01*
X140464453Y-109508141D01*
X140465300Y-109501708D01*
X140465300Y-109383092D01*
X140464066Y-109378487D01*
X140434599Y-109268514D01*
X140434597Y-109268511D01*
X140434597Y-109268509D01*
X140375292Y-109165791D01*
X140375290Y-109165789D01*
X140375289Y-109165787D01*
X140291413Y-109081911D01*
X140291410Y-109081909D01*
X140291408Y-109081907D01*
X140188689Y-109022602D01*
X140188690Y-109022602D01*
X140157949Y-109014365D01*
X140074109Y-108991900D01*
X139955491Y-108991900D01*
X139885367Y-109010689D01*
X139840909Y-109022602D01*
X139738191Y-109081907D01*
X139654307Y-109165791D01*
X139595002Y-109268509D01*
X139580987Y-109320813D01*
X139566038Y-109376607D01*
X139564300Y-109383092D01*
X139564300Y-109501708D01*
X139565147Y-109508141D01*
X139563846Y-109508312D01*
X139561012Y-109562472D01*
X139522510Y-109610025D01*
X139468585Y-109626000D01*
X137874400Y-109626000D01*
X137816209Y-109607093D01*
X137780245Y-109557593D01*
X137775400Y-109527000D01*
X137775400Y-109496192D01*
X137775400Y-109496191D01*
X137744699Y-109381614D01*
X137744697Y-109381611D01*
X137744697Y-109381609D01*
X137685392Y-109278891D01*
X137685390Y-109278889D01*
X137685389Y-109278887D01*
X137601513Y-109195011D01*
X137601510Y-109195009D01*
X137508872Y-109141523D01*
X137467932Y-109096053D01*
X137461537Y-109035203D01*
X137488367Y-108985785D01*
X139091157Y-107382996D01*
X139145674Y-107355219D01*
X139161161Y-107354000D01*
X140590291Y-107354000D01*
X140648482Y-107372907D01*
G37*
%TD.AperFunction*%
%TA.AperFunction,Conductor*%
G36*
X169987876Y-108710764D02*
G01*
X170009495Y-108725210D01*
X170085288Y-108775854D01*
X170085299Y-108775860D01*
X170106081Y-108784468D01*
X170244626Y-108841855D01*
X170413771Y-108875500D01*
X170413772Y-108875500D01*
X170586228Y-108875500D01*
X170586229Y-108875500D01*
X170755374Y-108841855D01*
X170844965Y-108804744D01*
X170905960Y-108799944D01*
X170952852Y-108826205D01*
X171078403Y-108951755D01*
X171106181Y-109006272D01*
X171107400Y-109021759D01*
X171107400Y-109167680D01*
X171088493Y-109225871D01*
X171038993Y-109261835D01*
X170977807Y-109261835D01*
X170953398Y-109249995D01*
X170914712Y-109224145D01*
X170914700Y-109224139D01*
X170755374Y-109158145D01*
X170586231Y-109124500D01*
X170586229Y-109124500D01*
X170413771Y-109124500D01*
X170413768Y-109124500D01*
X170244626Y-109158145D01*
X170244624Y-109158145D01*
X170085299Y-109224139D01*
X170085287Y-109224145D01*
X169941901Y-109319955D01*
X169941897Y-109319958D01*
X169819955Y-109441900D01*
X169810307Y-109456339D01*
X169762255Y-109494216D01*
X169701116Y-109496615D01*
X169657990Y-109471337D01*
X169607812Y-109421159D01*
X169580035Y-109366642D01*
X169589606Y-109306210D01*
X169628314Y-109265419D01*
X169664913Y-109244289D01*
X169748789Y-109160413D01*
X169748792Y-109160408D01*
X169808097Y-109057690D01*
X169808097Y-109057688D01*
X169808099Y-109057686D01*
X169838800Y-108943109D01*
X169838800Y-108824491D01*
X169837250Y-108818706D01*
X169840449Y-108757606D01*
X169878952Y-108710054D01*
X169938052Y-108694215D01*
X169987876Y-108710764D01*
G37*
%TD.AperFunction*%
%TA.AperFunction,Conductor*%
G36*
X133546331Y-107282907D02*
G01*
X133582295Y-107332407D01*
X133582295Y-107393593D01*
X133558144Y-107433004D01*
X132239944Y-108751204D01*
X132185427Y-108778981D01*
X132169940Y-108780200D01*
X129196952Y-108780200D01*
X129138761Y-108761293D01*
X129102797Y-108711793D01*
X129102797Y-108650607D01*
X129126948Y-108611196D01*
X129144444Y-108593700D01*
X129180045Y-108558099D01*
X129253918Y-108447540D01*
X129275854Y-108414712D01*
X129275860Y-108414700D01*
X129302314Y-108350834D01*
X129341855Y-108255374D01*
X129375500Y-108086229D01*
X129375500Y-107913771D01*
X129341855Y-107744626D01*
X129286500Y-107610987D01*
X129275860Y-107585299D01*
X129275854Y-107585287D01*
X129220893Y-107503034D01*
X129180045Y-107441901D01*
X129171148Y-107433004D01*
X129143371Y-107378487D01*
X129152942Y-107318055D01*
X129196207Y-107274790D01*
X129241152Y-107264000D01*
X133488140Y-107264000D01*
X133546331Y-107282907D01*
G37*
%TD.AperFunction*%
%TA.AperFunction,Conductor*%
G36*
X165698531Y-106372907D02*
G01*
X165710344Y-106382996D01*
X166666704Y-107339356D01*
X166694481Y-107393873D01*
X166695700Y-107409360D01*
X166695700Y-107504809D01*
X166701676Y-107527111D01*
X166726402Y-107619390D01*
X166785707Y-107722108D01*
X166785709Y-107722110D01*
X166785711Y-107722113D01*
X166869587Y-107805989D01*
X166869589Y-107805990D01*
X166869591Y-107805992D01*
X166972310Y-107865297D01*
X166972311Y-107865297D01*
X166972314Y-107865299D01*
X167086891Y-107896000D01*
X167086893Y-107896000D01*
X167205507Y-107896000D01*
X167205509Y-107896000D01*
X167320086Y-107865299D01*
X167320088Y-107865297D01*
X167320090Y-107865297D01*
X167422808Y-107805992D01*
X167422808Y-107805991D01*
X167422813Y-107805989D01*
X167470572Y-107758229D01*
X167525086Y-107730453D01*
X167585518Y-107740024D01*
X167628783Y-107783288D01*
X167638355Y-107843720D01*
X167637672Y-107847547D01*
X167624500Y-107913765D01*
X167624500Y-108086231D01*
X167658145Y-108255373D01*
X167658145Y-108255375D01*
X167724139Y-108414700D01*
X167724145Y-108414712D01*
X167783242Y-108503154D01*
X167819955Y-108558099D01*
X167819958Y-108558102D01*
X167828852Y-108566996D01*
X167856629Y-108621513D01*
X167847058Y-108681945D01*
X167803793Y-108725210D01*
X167758848Y-108736000D01*
X166482560Y-108736000D01*
X166424369Y-108717093D01*
X166412556Y-108707004D01*
X165743039Y-108037487D01*
X165071744Y-107366192D01*
X165071742Y-107366191D01*
X165071741Y-107366190D01*
X165006957Y-107339356D01*
X164974713Y-107326000D01*
X164974712Y-107326000D01*
X153586359Y-107326000D01*
X153528168Y-107307093D01*
X153492204Y-107257593D01*
X153492204Y-107196407D01*
X153516356Y-107156996D01*
X153732557Y-106940796D01*
X153787073Y-106913019D01*
X153802560Y-106911800D01*
X157134691Y-106911800D01*
X157192882Y-106930707D01*
X157204688Y-106940790D01*
X157272187Y-107008289D01*
X157272189Y-107008290D01*
X157272191Y-107008292D01*
X157374910Y-107067597D01*
X157374911Y-107067597D01*
X157374914Y-107067599D01*
X157489491Y-107098300D01*
X157489493Y-107098300D01*
X157608107Y-107098300D01*
X157608109Y-107098300D01*
X157722686Y-107067599D01*
X157722688Y-107067597D01*
X157722690Y-107067597D01*
X157825408Y-107008292D01*
X157825408Y-107008291D01*
X157825413Y-107008289D01*
X157909289Y-106924413D01*
X157909292Y-106924408D01*
X157968597Y-106821690D01*
X157968597Y-106821688D01*
X157968599Y-106821686D01*
X157999300Y-106707109D01*
X157999300Y-106588491D01*
X157969860Y-106478620D01*
X157973062Y-106417522D01*
X158011567Y-106369972D01*
X158065487Y-106354000D01*
X165640340Y-106354000D01*
X165698531Y-106372907D01*
G37*
%TD.AperFunction*%
%TA.AperFunction,Conductor*%
G36*
X127817039Y-107282907D02*
G01*
X127853003Y-107332407D01*
X127853003Y-107393593D01*
X127828852Y-107433004D01*
X127819958Y-107441897D01*
X127819955Y-107441901D01*
X127724145Y-107585287D01*
X127724139Y-107585299D01*
X127658145Y-107744624D01*
X127658145Y-107744626D01*
X127624500Y-107913768D01*
X127624500Y-108086231D01*
X127658145Y-108255373D01*
X127658145Y-108255375D01*
X127724139Y-108414700D01*
X127724145Y-108414711D01*
X127775818Y-108492043D01*
X127792427Y-108550931D01*
X127771250Y-108608334D01*
X127720377Y-108642328D01*
X127659238Y-108639926D01*
X127644005Y-108632782D01*
X127629491Y-108624403D01*
X127629490Y-108624402D01*
X127615951Y-108620774D01*
X127514909Y-108593700D01*
X127396291Y-108593700D01*
X127396288Y-108593700D01*
X127357982Y-108603964D01*
X127296881Y-108600761D01*
X127249332Y-108562255D01*
X127233497Y-108503154D01*
X127250047Y-108453334D01*
X127275853Y-108414714D01*
X127275856Y-108414707D01*
X127275858Y-108414705D01*
X127341855Y-108255374D01*
X127375500Y-108086229D01*
X127375500Y-107913771D01*
X127341855Y-107744626D01*
X127305100Y-107655892D01*
X127304745Y-107655034D01*
X127299944Y-107594038D01*
X127326204Y-107547147D01*
X127580357Y-107292996D01*
X127634873Y-107265219D01*
X127650360Y-107264000D01*
X127758848Y-107264000D01*
X127817039Y-107282907D01*
G37*
%TD.AperFunction*%
%TA.AperFunction,Conductor*%
G36*
X146483571Y-107856731D02*
G01*
X146495734Y-107873471D01*
X146509500Y-107897314D01*
X146602686Y-107990500D01*
X146602688Y-107990501D01*
X146626525Y-108004264D01*
X146667465Y-108049734D01*
X146673860Y-108110584D01*
X146643267Y-108163572D01*
X146626525Y-108175736D01*
X146602688Y-108189498D01*
X146509498Y-108282688D01*
X146495736Y-108306525D01*
X146450266Y-108347465D01*
X146389416Y-108353860D01*
X146336428Y-108323267D01*
X146324264Y-108306525D01*
X146310501Y-108282688D01*
X146310500Y-108282686D01*
X146217314Y-108189500D01*
X146193474Y-108175735D01*
X146152534Y-108130267D01*
X146146138Y-108069417D01*
X146176731Y-108016429D01*
X146193474Y-108004264D01*
X146217314Y-107990500D01*
X146310500Y-107897314D01*
X146324264Y-107873474D01*
X146369733Y-107832534D01*
X146430583Y-107826138D01*
X146483571Y-107856731D01*
G37*
%TD.AperFunction*%
%TA.AperFunction,Conductor*%
G36*
X147483571Y-107856731D02*
G01*
X147495734Y-107873471D01*
X147509500Y-107897314D01*
X147602686Y-107990500D01*
X147602688Y-107990501D01*
X147626525Y-108004264D01*
X147667465Y-108049734D01*
X147673860Y-108110584D01*
X147643267Y-108163572D01*
X147626525Y-108175736D01*
X147602688Y-108189498D01*
X147509498Y-108282688D01*
X147495736Y-108306525D01*
X147450266Y-108347465D01*
X147389416Y-108353860D01*
X147336428Y-108323267D01*
X147324264Y-108306525D01*
X147310501Y-108282688D01*
X147310500Y-108282686D01*
X147217314Y-108189500D01*
X147193474Y-108175735D01*
X147152534Y-108130267D01*
X147146138Y-108069417D01*
X147176731Y-108016429D01*
X147193474Y-108004264D01*
X147217314Y-107990500D01*
X147310500Y-107897314D01*
X147324264Y-107873474D01*
X147369733Y-107832534D01*
X147430583Y-107826138D01*
X147483571Y-107856731D01*
G37*
%TD.AperFunction*%
%TA.AperFunction,Conductor*%
G36*
X144384252Y-107372906D02*
G01*
X144420216Y-107422406D01*
X144421688Y-107478621D01*
X144409500Y-107524108D01*
X144409500Y-107655892D01*
X144433276Y-107744626D01*
X144443609Y-107783190D01*
X144509496Y-107897309D01*
X144509498Y-107897311D01*
X144509500Y-107897314D01*
X144602686Y-107990500D01*
X144602688Y-107990501D01*
X144626525Y-108004264D01*
X144667465Y-108049734D01*
X144673860Y-108110584D01*
X144643267Y-108163572D01*
X144626525Y-108175736D01*
X144602688Y-108189498D01*
X144509497Y-108282689D01*
X144505986Y-108287266D01*
X144455563Y-108321923D01*
X144427443Y-108326000D01*
X141785561Y-108326000D01*
X141727370Y-108307093D01*
X141715557Y-108297004D01*
X141412296Y-107993743D01*
X141384519Y-107939226D01*
X141383300Y-107923739D01*
X141383300Y-107828292D01*
X141364527Y-107758231D01*
X141352599Y-107713714D01*
X141352597Y-107713711D01*
X141352597Y-107713709D01*
X141293292Y-107610991D01*
X141293290Y-107610989D01*
X141293289Y-107610987D01*
X141209413Y-107527111D01*
X141209410Y-107527109D01*
X141205305Y-107523004D01*
X141177528Y-107468487D01*
X141187099Y-107408055D01*
X141230364Y-107364790D01*
X141275309Y-107354000D01*
X143674036Y-107354000D01*
X143674044Y-107353999D01*
X144326061Y-107353999D01*
X144384252Y-107372906D01*
G37*
%TD.AperFunction*%
%TA.AperFunction,Conductor*%
G36*
X148483571Y-105856731D02*
G01*
X148495734Y-105873471D01*
X148509500Y-105897314D01*
X148602686Y-105990500D01*
X148602691Y-105990503D01*
X148607261Y-105994009D01*
X148616262Y-106007103D01*
X148628827Y-106016830D01*
X148633603Y-106032330D01*
X148641921Y-106044430D01*
X148641562Y-106058156D01*
X148646000Y-106072556D01*
X148646000Y-106107442D01*
X148627093Y-106165633D01*
X148607271Y-106185981D01*
X148602692Y-106189494D01*
X148602686Y-106189500D01*
X148509500Y-106282686D01*
X148509411Y-106282838D01*
X148505798Y-106287508D01*
X148480764Y-106304556D01*
X148455627Y-106321831D01*
X148455368Y-106321851D01*
X148455227Y-106321948D01*
X148454443Y-106321924D01*
X148414593Y-106325059D01*
X148390273Y-106321857D01*
X148122132Y-106589999D01*
X148390273Y-106858140D01*
X148414591Y-106854939D01*
X148474752Y-106866089D01*
X148506054Y-106892823D01*
X148509497Y-106897310D01*
X148509498Y-106897311D01*
X148509500Y-106897314D01*
X148602686Y-106990500D01*
X148602688Y-106990501D01*
X148626525Y-107004264D01*
X148667465Y-107049734D01*
X148673860Y-107110584D01*
X148643267Y-107163572D01*
X148626525Y-107175736D01*
X148602688Y-107189498D01*
X148509498Y-107282688D01*
X148495736Y-107306525D01*
X148450266Y-107347465D01*
X148389416Y-107353860D01*
X148336428Y-107323267D01*
X148324264Y-107306525D01*
X148313695Y-107288221D01*
X148310500Y-107282686D01*
X148217314Y-107189500D01*
X148217311Y-107189498D01*
X148217310Y-107189497D01*
X148212823Y-107186054D01*
X148178168Y-107135629D01*
X148174939Y-107094591D01*
X148178140Y-107070273D01*
X147909999Y-106802132D01*
X147641857Y-107070273D01*
X147645059Y-107094593D01*
X147633908Y-107154754D01*
X147607178Y-107186053D01*
X147602689Y-107189497D01*
X147509498Y-107282688D01*
X147495736Y-107306525D01*
X147450266Y-107347465D01*
X147389416Y-107353860D01*
X147336428Y-107323267D01*
X147324264Y-107306525D01*
X147313695Y-107288221D01*
X147310500Y-107282686D01*
X147217314Y-107189500D01*
X147217311Y-107189498D01*
X147217310Y-107189497D01*
X147212823Y-107186054D01*
X147178168Y-107135629D01*
X147174939Y-107094591D01*
X147178140Y-107070273D01*
X146909999Y-106802132D01*
X146641857Y-107070273D01*
X146645059Y-107094593D01*
X146633908Y-107154754D01*
X146607178Y-107186053D01*
X146602689Y-107189497D01*
X146509498Y-107282688D01*
X146495736Y-107306525D01*
X146450266Y-107347465D01*
X146389416Y-107353860D01*
X146336428Y-107323267D01*
X146324264Y-107306525D01*
X146313695Y-107288221D01*
X146310500Y-107282686D01*
X146217314Y-107189500D01*
X146193474Y-107175735D01*
X146152534Y-107130267D01*
X146146138Y-107069417D01*
X146176731Y-107016429D01*
X146193474Y-107004264D01*
X146217314Y-106990500D01*
X146310500Y-106897314D01*
X146310505Y-106897304D01*
X146313941Y-106892828D01*
X146364364Y-106858170D01*
X146405410Y-106854939D01*
X146429726Y-106858140D01*
X146697867Y-106590000D01*
X146663057Y-106555190D01*
X146735000Y-106555190D01*
X146735000Y-106624810D01*
X146761643Y-106689129D01*
X146810871Y-106738357D01*
X146875190Y-106765000D01*
X146944810Y-106765000D01*
X147009129Y-106738357D01*
X147058357Y-106689129D01*
X147085000Y-106624810D01*
X147085000Y-106589999D01*
X147122132Y-106589999D01*
X147390273Y-106858140D01*
X147397077Y-106857245D01*
X147422922Y-106857245D01*
X147429726Y-106858140D01*
X147697867Y-106590000D01*
X147663057Y-106555190D01*
X147735000Y-106555190D01*
X147735000Y-106624810D01*
X147761643Y-106689129D01*
X147810871Y-106738357D01*
X147875190Y-106765000D01*
X147944810Y-106765000D01*
X148009129Y-106738357D01*
X148058357Y-106689129D01*
X148085000Y-106624810D01*
X148085000Y-106555190D01*
X148058357Y-106490871D01*
X148009129Y-106441643D01*
X147944810Y-106415000D01*
X147875190Y-106415000D01*
X147810871Y-106441643D01*
X147761643Y-106490871D01*
X147735000Y-106555190D01*
X147663057Y-106555190D01*
X147429724Y-106321857D01*
X147422921Y-106322753D01*
X147397079Y-106322753D01*
X147390273Y-106321857D01*
X147122132Y-106589999D01*
X147085000Y-106589999D01*
X147085000Y-106555190D01*
X147058357Y-106490871D01*
X147009129Y-106441643D01*
X146944810Y-106415000D01*
X146875190Y-106415000D01*
X146810871Y-106441643D01*
X146761643Y-106490871D01*
X146735000Y-106555190D01*
X146663057Y-106555190D01*
X146429724Y-106321857D01*
X146405408Y-106325059D01*
X146345247Y-106313909D01*
X146313947Y-106287178D01*
X146310502Y-106282689D01*
X146310501Y-106282688D01*
X146310500Y-106282686D01*
X146217314Y-106189500D01*
X146193474Y-106175735D01*
X146152534Y-106130267D01*
X146146138Y-106069417D01*
X146176731Y-106016429D01*
X146193474Y-106004264D01*
X146217314Y-105990500D01*
X146310500Y-105897314D01*
X146324264Y-105873474D01*
X146369733Y-105832534D01*
X146430583Y-105826138D01*
X146483571Y-105856731D01*
X146495734Y-105873471D01*
X146509500Y-105897314D01*
X146602686Y-105990500D01*
X146602688Y-105990501D01*
X146602689Y-105990502D01*
X146607178Y-105993947D01*
X146641831Y-106044373D01*
X146645059Y-106085408D01*
X146641857Y-106109724D01*
X146910000Y-106377867D01*
X147178140Y-106109726D01*
X147174939Y-106085410D01*
X147186088Y-106025249D01*
X147212828Y-105993941D01*
X147217304Y-105990505D01*
X147217314Y-105990500D01*
X147310500Y-105897314D01*
X147324264Y-105873474D01*
X147369733Y-105832534D01*
X147430583Y-105826138D01*
X147483571Y-105856731D01*
X147495734Y-105873471D01*
X147509500Y-105897314D01*
X147602686Y-105990500D01*
X147602688Y-105990501D01*
X147602689Y-105990502D01*
X147607178Y-105993947D01*
X147641831Y-106044373D01*
X147645059Y-106085408D01*
X147641857Y-106109724D01*
X147910000Y-106377867D01*
X148178140Y-106109726D01*
X148174939Y-106085410D01*
X148178641Y-106065429D01*
X148177949Y-106045121D01*
X148184089Y-106036033D01*
X148186088Y-106025249D01*
X148211407Y-105995603D01*
X148212205Y-105994424D01*
X148217009Y-105990675D01*
X148217314Y-105990500D01*
X148310500Y-105897314D01*
X148324264Y-105873474D01*
X148369733Y-105832534D01*
X148430583Y-105826138D01*
X148483571Y-105856731D01*
G37*
%TD.AperFunction*%
%TA.AperFunction,Conductor*%
G36*
X149483571Y-106856731D02*
G01*
X149495734Y-106873471D01*
X149509500Y-106897314D01*
X149602686Y-106990500D01*
X149602688Y-106990501D01*
X149626525Y-107004264D01*
X149667465Y-107049734D01*
X149673860Y-107110584D01*
X149643267Y-107163572D01*
X149626525Y-107175736D01*
X149602688Y-107189498D01*
X149509498Y-107282688D01*
X149495736Y-107306525D01*
X149450266Y-107347465D01*
X149389416Y-107353860D01*
X149336428Y-107323267D01*
X149324264Y-107306525D01*
X149313695Y-107288221D01*
X149310500Y-107282686D01*
X149217314Y-107189500D01*
X149193474Y-107175735D01*
X149152534Y-107130267D01*
X149146138Y-107069417D01*
X149176731Y-107016429D01*
X149193474Y-107004264D01*
X149217314Y-106990500D01*
X149310500Y-106897314D01*
X149324264Y-106873474D01*
X149369733Y-106832534D01*
X149430583Y-106826138D01*
X149483571Y-106856731D01*
G37*
%TD.AperFunction*%
%TA.AperFunction,Conductor*%
G36*
X153391832Y-106372907D02*
G01*
X153427796Y-106422407D01*
X153427796Y-106483593D01*
X153403644Y-106523004D01*
X153129644Y-106797003D01*
X153075128Y-106824780D01*
X153059641Y-106825999D01*
X152493939Y-106825999D01*
X152435748Y-106807092D01*
X152399784Y-106757592D01*
X152398312Y-106701378D01*
X152410500Y-106655892D01*
X152410500Y-106524108D01*
X152398312Y-106478621D01*
X152401515Y-106417521D01*
X152440020Y-106369971D01*
X152493939Y-106354000D01*
X153157487Y-106354000D01*
X153333641Y-106354000D01*
X153391832Y-106372907D01*
G37*
%TD.AperFunction*%
%TA.AperFunction,Conductor*%
G36*
X136184231Y-104094107D02*
G01*
X136220195Y-104143607D01*
X136220195Y-104204793D01*
X136196044Y-104244204D01*
X133733244Y-106707004D01*
X133678727Y-106734781D01*
X133663240Y-106736000D01*
X129241152Y-106736000D01*
X129182961Y-106717093D01*
X129146997Y-106667593D01*
X129146997Y-106606407D01*
X129171148Y-106566996D01*
X129175048Y-106563096D01*
X129180045Y-106558099D01*
X129273976Y-106417522D01*
X129275854Y-106414712D01*
X129275860Y-106414700D01*
X129302314Y-106350834D01*
X129341855Y-106255374D01*
X129375500Y-106086229D01*
X129375500Y-105913771D01*
X129341855Y-105744626D01*
X129279527Y-105594153D01*
X129275860Y-105585299D01*
X129275854Y-105585287D01*
X129209687Y-105486264D01*
X129180045Y-105441901D01*
X129171148Y-105433004D01*
X129143371Y-105378487D01*
X129152942Y-105318055D01*
X129196207Y-105274790D01*
X129241152Y-105264000D01*
X132268912Y-105264000D01*
X132268913Y-105264000D01*
X132365944Y-105223808D01*
X133485556Y-104104196D01*
X133540073Y-104076419D01*
X133555560Y-104075200D01*
X136126040Y-104075200D01*
X136184231Y-104094107D01*
G37*
%TD.AperFunction*%
%TA.AperFunction,Conductor*%
G36*
X149483571Y-105856731D02*
G01*
X149495734Y-105873471D01*
X149509500Y-105897314D01*
X149602686Y-105990500D01*
X149604108Y-105991321D01*
X149626525Y-106004264D01*
X149667465Y-106049734D01*
X149673860Y-106110584D01*
X149643267Y-106163572D01*
X149626525Y-106175736D01*
X149602688Y-106189498D01*
X149509498Y-106282688D01*
X149495736Y-106306525D01*
X149450266Y-106347465D01*
X149389416Y-106353860D01*
X149336428Y-106323267D01*
X149324264Y-106306525D01*
X149310501Y-106282688D01*
X149310500Y-106282686D01*
X149217314Y-106189500D01*
X149217311Y-106189498D01*
X149217307Y-106189494D01*
X149212729Y-106185981D01*
X149178076Y-106135555D01*
X149174000Y-106107442D01*
X149174000Y-106072556D01*
X149192907Y-106014365D01*
X149212739Y-105994009D01*
X149217304Y-105990505D01*
X149217314Y-105990500D01*
X149310500Y-105897314D01*
X149324264Y-105873474D01*
X149369733Y-105832534D01*
X149430583Y-105826138D01*
X149483571Y-105856731D01*
G37*
%TD.AperFunction*%
%TA.AperFunction,Conductor*%
G36*
X167337873Y-105125127D02*
G01*
X167699011Y-105486264D01*
X167726789Y-105540781D01*
X167720472Y-105594153D01*
X167658142Y-105744630D01*
X167658078Y-105744845D01*
X167658019Y-105744928D01*
X167656284Y-105749119D01*
X167655363Y-105748737D01*
X167623082Y-105795034D01*
X167565269Y-105815067D01*
X167506722Y-105797293D01*
X167493344Y-105786090D01*
X167084940Y-105377687D01*
X167057162Y-105323170D01*
X167066733Y-105262738D01*
X167097548Y-105230274D01*
X167096064Y-105228340D01*
X167101207Y-105224392D01*
X167101213Y-105224389D01*
X167185089Y-105140513D01*
X167185092Y-105140507D01*
X167189040Y-105135364D01*
X167191485Y-105137240D01*
X167227491Y-105104740D01*
X167288333Y-105098269D01*
X167337873Y-105125127D01*
G37*
%TD.AperFunction*%
%TA.AperFunction,Conductor*%
G36*
X144333006Y-104372907D02*
G01*
X144368970Y-104422407D01*
X144370441Y-104478624D01*
X144360000Y-104517588D01*
X144360000Y-104662407D01*
X144397482Y-104802292D01*
X144429726Y-104858139D01*
X144733929Y-104553937D01*
X144735944Y-104552910D01*
X144735000Y-104555190D01*
X144735000Y-104624810D01*
X144761643Y-104689129D01*
X144810871Y-104738357D01*
X144875190Y-104765000D01*
X144944810Y-104765000D01*
X145009129Y-104738357D01*
X145058357Y-104689129D01*
X145085000Y-104624810D01*
X145085000Y-104555190D01*
X145083797Y-104552287D01*
X145086068Y-104553937D01*
X145390272Y-104858140D01*
X145414591Y-104854939D01*
X145474752Y-104866089D01*
X145506054Y-104892823D01*
X145509497Y-104897310D01*
X145509498Y-104897311D01*
X145509500Y-104897314D01*
X145602686Y-104990500D01*
X145602688Y-104990501D01*
X145626525Y-105004264D01*
X145667465Y-105049734D01*
X145673860Y-105110584D01*
X145643267Y-105163572D01*
X145626525Y-105175736D01*
X145602688Y-105189498D01*
X145509498Y-105282688D01*
X145495736Y-105306525D01*
X145450266Y-105347465D01*
X145389416Y-105353860D01*
X145336428Y-105323267D01*
X145324264Y-105306525D01*
X145311085Y-105283699D01*
X145310500Y-105282686D01*
X145217314Y-105189500D01*
X145217311Y-105189498D01*
X145217310Y-105189497D01*
X145212823Y-105186054D01*
X145178168Y-105135629D01*
X145174939Y-105094591D01*
X145178140Y-105070273D01*
X144909999Y-104802132D01*
X144641857Y-105070273D01*
X144645059Y-105094593D01*
X144633908Y-105154754D01*
X144607178Y-105186053D01*
X144602689Y-105189497D01*
X144509497Y-105282689D01*
X144505986Y-105287266D01*
X144455563Y-105321923D01*
X144427443Y-105326000D01*
X143342175Y-105326000D01*
X143283984Y-105307093D01*
X143248020Y-105257593D01*
X143246548Y-105201377D01*
X143249303Y-105191096D01*
X143260500Y-105149309D01*
X143260500Y-105030691D01*
X143229799Y-104916114D01*
X143229797Y-104916111D01*
X143229797Y-104916109D01*
X143170492Y-104813391D01*
X143170490Y-104813389D01*
X143170489Y-104813387D01*
X143086613Y-104729511D01*
X143086610Y-104729509D01*
X143086608Y-104729507D01*
X142983889Y-104670202D01*
X142983890Y-104670202D01*
X142970351Y-104666574D01*
X142869309Y-104639500D01*
X142750691Y-104639500D01*
X142689523Y-104655890D01*
X142636109Y-104670202D01*
X142533391Y-104729507D01*
X142449507Y-104813391D01*
X142390202Y-104916109D01*
X142383615Y-104940692D01*
X142359500Y-105030691D01*
X142359500Y-105149309D01*
X142370697Y-105191096D01*
X142373452Y-105201377D01*
X142370249Y-105262479D01*
X142331744Y-105310028D01*
X142277825Y-105326000D01*
X136099960Y-105326000D01*
X136041769Y-105307093D01*
X136005805Y-105257593D01*
X136005805Y-105196407D01*
X136029956Y-105156996D01*
X136803956Y-104382996D01*
X136858473Y-104355219D01*
X136873960Y-104354000D01*
X144274815Y-104354000D01*
X144333006Y-104372907D01*
G37*
%TD.AperFunction*%
%TA.AperFunction,Conductor*%
G36*
X146483571Y-104856731D02*
G01*
X146495734Y-104873471D01*
X146509500Y-104897314D01*
X146602686Y-104990500D01*
X146602688Y-104990501D01*
X146626525Y-105004264D01*
X146667465Y-105049734D01*
X146673860Y-105110584D01*
X146643267Y-105163572D01*
X146626525Y-105175736D01*
X146602688Y-105189498D01*
X146509498Y-105282688D01*
X146495736Y-105306525D01*
X146450266Y-105347465D01*
X146389416Y-105353860D01*
X146336428Y-105323267D01*
X146324264Y-105306525D01*
X146311085Y-105283699D01*
X146310500Y-105282686D01*
X146217314Y-105189500D01*
X146193474Y-105175735D01*
X146152534Y-105130267D01*
X146146138Y-105069417D01*
X146176731Y-105016429D01*
X146193474Y-105004264D01*
X146217314Y-104990500D01*
X146310500Y-104897314D01*
X146324264Y-104873474D01*
X146369733Y-104832534D01*
X146430583Y-104826138D01*
X146483571Y-104856731D01*
G37*
%TD.AperFunction*%
%TA.AperFunction,Conductor*%
G36*
X147483571Y-104856731D02*
G01*
X147495734Y-104873471D01*
X147509500Y-104897314D01*
X147602686Y-104990500D01*
X147602688Y-104990501D01*
X147626525Y-105004264D01*
X147667465Y-105049734D01*
X147673860Y-105110584D01*
X147643267Y-105163572D01*
X147626525Y-105175736D01*
X147602688Y-105189498D01*
X147509498Y-105282688D01*
X147495736Y-105306525D01*
X147450266Y-105347465D01*
X147389416Y-105353860D01*
X147336428Y-105323267D01*
X147324264Y-105306525D01*
X147311085Y-105283699D01*
X147310500Y-105282686D01*
X147217314Y-105189500D01*
X147193474Y-105175735D01*
X147152534Y-105130267D01*
X147146138Y-105069417D01*
X147176731Y-105016429D01*
X147193474Y-105004264D01*
X147217314Y-104990500D01*
X147310500Y-104897314D01*
X147324264Y-104873474D01*
X147369733Y-104832534D01*
X147430583Y-104826138D01*
X147483571Y-104856731D01*
G37*
%TD.AperFunction*%
%TA.AperFunction,Conductor*%
G36*
X148483571Y-104856731D02*
G01*
X148495734Y-104873471D01*
X148509500Y-104897314D01*
X148602686Y-104990500D01*
X148602688Y-104990501D01*
X148626525Y-105004264D01*
X148667465Y-105049734D01*
X148673860Y-105110584D01*
X148643267Y-105163572D01*
X148626525Y-105175736D01*
X148602688Y-105189498D01*
X148509498Y-105282688D01*
X148495736Y-105306525D01*
X148450266Y-105347465D01*
X148389416Y-105353860D01*
X148336428Y-105323267D01*
X148324264Y-105306525D01*
X148311085Y-105283699D01*
X148310500Y-105282686D01*
X148217314Y-105189500D01*
X148193474Y-105175735D01*
X148152534Y-105130267D01*
X148146138Y-105069417D01*
X148176731Y-105016429D01*
X148193474Y-105004264D01*
X148217314Y-104990500D01*
X148310500Y-104897314D01*
X148324264Y-104873474D01*
X148369733Y-104832534D01*
X148430583Y-104826138D01*
X148483571Y-104856731D01*
G37*
%TD.AperFunction*%
%TA.AperFunction,Conductor*%
G36*
X149483571Y-104856731D02*
G01*
X149495734Y-104873471D01*
X149509500Y-104897314D01*
X149602686Y-104990500D01*
X149602688Y-104990501D01*
X149626525Y-105004264D01*
X149667465Y-105049734D01*
X149673860Y-105110584D01*
X149643267Y-105163572D01*
X149626525Y-105175736D01*
X149602688Y-105189498D01*
X149509498Y-105282688D01*
X149495736Y-105306525D01*
X149450266Y-105347465D01*
X149389416Y-105353860D01*
X149336428Y-105323267D01*
X149324264Y-105306525D01*
X149311085Y-105283699D01*
X149310500Y-105282686D01*
X149217314Y-105189500D01*
X149193474Y-105175735D01*
X149152534Y-105130267D01*
X149146138Y-105069417D01*
X149176731Y-105016429D01*
X149193474Y-105004264D01*
X149217314Y-104990500D01*
X149310500Y-104897314D01*
X149324264Y-104873474D01*
X149369733Y-104832534D01*
X149430583Y-104826138D01*
X149483571Y-104856731D01*
G37*
%TD.AperFunction*%
%TA.AperFunction,Conductor*%
G36*
X151483571Y-104856731D02*
G01*
X151495734Y-104873471D01*
X151509500Y-104897314D01*
X151602686Y-104990500D01*
X151602688Y-104990501D01*
X151626525Y-105004264D01*
X151667465Y-105049734D01*
X151673860Y-105110584D01*
X151643267Y-105163572D01*
X151626525Y-105175736D01*
X151602688Y-105189498D01*
X151509498Y-105282688D01*
X151495736Y-105306525D01*
X151450266Y-105347465D01*
X151389416Y-105353860D01*
X151336428Y-105323267D01*
X151324264Y-105306525D01*
X151311085Y-105283699D01*
X151310500Y-105282686D01*
X151217314Y-105189500D01*
X151193474Y-105175735D01*
X151152534Y-105130267D01*
X151146138Y-105069417D01*
X151176731Y-105016429D01*
X151193474Y-105004264D01*
X151217314Y-104990500D01*
X151310500Y-104897314D01*
X151324264Y-104873474D01*
X151369733Y-104832534D01*
X151430583Y-104826138D01*
X151483571Y-104856731D01*
G37*
%TD.AperFunction*%
%TA.AperFunction,Conductor*%
G36*
X156224482Y-103924007D02*
G01*
X156260446Y-103973507D01*
X156260446Y-104034693D01*
X156236296Y-104074101D01*
X156225511Y-104084887D01*
X156225508Y-104084890D01*
X156225507Y-104084891D01*
X156166202Y-104187609D01*
X156161598Y-104204793D01*
X156135500Y-104302191D01*
X156135500Y-104420809D01*
X156157633Y-104503411D01*
X156166202Y-104535390D01*
X156225507Y-104638108D01*
X156225509Y-104638110D01*
X156225511Y-104638113D01*
X156309387Y-104721989D01*
X156309389Y-104721990D01*
X156309391Y-104721992D01*
X156412110Y-104781297D01*
X156412111Y-104781297D01*
X156412114Y-104781299D01*
X156526691Y-104812000D01*
X156526693Y-104812000D01*
X156645307Y-104812000D01*
X156645309Y-104812000D01*
X156759886Y-104781299D01*
X156759888Y-104781297D01*
X156759890Y-104781297D01*
X156862608Y-104721992D01*
X156862608Y-104721991D01*
X156862613Y-104721989D01*
X156946489Y-104638113D01*
X156964795Y-104606407D01*
X157005797Y-104535390D01*
X157005797Y-104535388D01*
X157005799Y-104535386D01*
X157036500Y-104420809D01*
X157036500Y-104302191D01*
X157005799Y-104187614D01*
X157005797Y-104187611D01*
X157005797Y-104187609D01*
X156946492Y-104084891D01*
X156946490Y-104084889D01*
X156946489Y-104084887D01*
X156935703Y-104074101D01*
X156907928Y-104019587D01*
X156917499Y-103959155D01*
X156960764Y-103915890D01*
X157005709Y-103905100D01*
X164276340Y-103905100D01*
X164334531Y-103924007D01*
X164346344Y-103934096D01*
X165465693Y-105053446D01*
X165493470Y-105107963D01*
X165483899Y-105168395D01*
X165445190Y-105209186D01*
X165409989Y-105229509D01*
X165409987Y-105229510D01*
X165409987Y-105229511D01*
X165342492Y-105297005D01*
X165287978Y-105324781D01*
X165272491Y-105326000D01*
X152392557Y-105326000D01*
X152334366Y-105307093D01*
X152314014Y-105287266D01*
X152310502Y-105282689D01*
X152310501Y-105282688D01*
X152310500Y-105282686D01*
X152217314Y-105189500D01*
X152193474Y-105175735D01*
X152152534Y-105130267D01*
X152146138Y-105069417D01*
X152176731Y-105016429D01*
X152193474Y-105004264D01*
X152217314Y-104990500D01*
X152310500Y-104897314D01*
X152313222Y-104892600D01*
X152376390Y-104783190D01*
X152376390Y-104783188D01*
X152376392Y-104783186D01*
X152410500Y-104655892D01*
X152410500Y-104524108D01*
X152398312Y-104478621D01*
X152401515Y-104417521D01*
X152440020Y-104369971D01*
X152493939Y-104354000D01*
X154486412Y-104354000D01*
X154486413Y-104354000D01*
X154583444Y-104313808D01*
X154867451Y-104029801D01*
X154963157Y-103934096D01*
X155017673Y-103906319D01*
X155033160Y-103905100D01*
X156166291Y-103905100D01*
X156224482Y-103924007D01*
G37*
%TD.AperFunction*%
%TA.AperFunction,Conductor*%
G36*
X133379839Y-103372807D02*
G01*
X133415803Y-103422307D01*
X133415803Y-103483493D01*
X133379839Y-103532993D01*
X133359534Y-103544364D01*
X133255658Y-103587390D01*
X132136044Y-104707004D01*
X132081527Y-104734781D01*
X132066040Y-104736000D01*
X129241152Y-104736000D01*
X129182961Y-104717093D01*
X129146997Y-104667593D01*
X129146997Y-104606407D01*
X129171148Y-104566996D01*
X129180045Y-104558099D01*
X129270712Y-104422407D01*
X129275854Y-104414712D01*
X129275860Y-104414700D01*
X129302401Y-104350625D01*
X129341855Y-104255374D01*
X129375500Y-104086229D01*
X129375500Y-103913771D01*
X129341855Y-103744626D01*
X129305873Y-103657758D01*
X129275860Y-103585299D01*
X129275854Y-103585287D01*
X129224146Y-103507902D01*
X129207537Y-103449014D01*
X129228714Y-103391610D01*
X129279588Y-103357617D01*
X129306461Y-103353900D01*
X133321648Y-103353900D01*
X133379839Y-103372807D01*
G37*
%TD.AperFunction*%
%TA.AperFunction,Conductor*%
G36*
X165572531Y-103361507D02*
G01*
X165584344Y-103371596D01*
X166563373Y-104350625D01*
X166591150Y-104405142D01*
X166581579Y-104465574D01*
X166551479Y-104497300D01*
X166553136Y-104499460D01*
X166547990Y-104503408D01*
X166464108Y-104587290D01*
X166460160Y-104592436D01*
X166457995Y-104590775D01*
X166421031Y-104624020D01*
X166360177Y-104630381D01*
X166310812Y-104603560D01*
X165218856Y-103511604D01*
X165191079Y-103457087D01*
X165200650Y-103396655D01*
X165243915Y-103353390D01*
X165288860Y-103342600D01*
X165514340Y-103342600D01*
X165572531Y-103361507D01*
G37*
%TD.AperFunction*%
%TA.AperFunction,Conductor*%
G36*
X146483571Y-103856731D02*
G01*
X146495734Y-103873471D01*
X146509500Y-103897314D01*
X146602686Y-103990500D01*
X146602688Y-103990501D01*
X146626525Y-104004264D01*
X146667465Y-104049734D01*
X146673860Y-104110584D01*
X146643267Y-104163572D01*
X146626525Y-104175736D01*
X146602688Y-104189498D01*
X146509498Y-104282688D01*
X146495736Y-104306525D01*
X146450266Y-104347465D01*
X146389416Y-104353860D01*
X146336428Y-104323267D01*
X146324264Y-104306525D01*
X146310501Y-104282688D01*
X146310500Y-104282686D01*
X146217314Y-104189500D01*
X146193474Y-104175735D01*
X146152534Y-104130267D01*
X146146138Y-104069417D01*
X146176731Y-104016429D01*
X146193474Y-104004264D01*
X146217314Y-103990500D01*
X146310500Y-103897314D01*
X146324264Y-103873474D01*
X146369733Y-103832534D01*
X146430583Y-103826138D01*
X146483571Y-103856731D01*
G37*
%TD.AperFunction*%
%TA.AperFunction,Conductor*%
G36*
X147483571Y-103856731D02*
G01*
X147495734Y-103873471D01*
X147509500Y-103897314D01*
X147602686Y-103990500D01*
X147602688Y-103990501D01*
X147626525Y-104004264D01*
X147667465Y-104049734D01*
X147673860Y-104110584D01*
X147643267Y-104163572D01*
X147626525Y-104175736D01*
X147602688Y-104189498D01*
X147509498Y-104282688D01*
X147495736Y-104306525D01*
X147450266Y-104347465D01*
X147389416Y-104353860D01*
X147336428Y-104323267D01*
X147324264Y-104306525D01*
X147310501Y-104282688D01*
X147310500Y-104282686D01*
X147217314Y-104189500D01*
X147193474Y-104175735D01*
X147152534Y-104130267D01*
X147146138Y-104069417D01*
X147176731Y-104016429D01*
X147193474Y-104004264D01*
X147217314Y-103990500D01*
X147310500Y-103897314D01*
X147324264Y-103873474D01*
X147369733Y-103832534D01*
X147430583Y-103826138D01*
X147483571Y-103856731D01*
G37*
%TD.AperFunction*%
%TA.AperFunction,Conductor*%
G36*
X148483571Y-103856731D02*
G01*
X148495734Y-103873471D01*
X148509500Y-103897314D01*
X148602686Y-103990500D01*
X148602688Y-103990501D01*
X148626525Y-104004264D01*
X148667465Y-104049734D01*
X148673860Y-104110584D01*
X148643267Y-104163572D01*
X148626525Y-104175736D01*
X148602688Y-104189498D01*
X148509498Y-104282688D01*
X148495736Y-104306525D01*
X148450266Y-104347465D01*
X148389416Y-104353860D01*
X148336428Y-104323267D01*
X148324264Y-104306525D01*
X148310501Y-104282688D01*
X148310500Y-104282686D01*
X148217314Y-104189500D01*
X148193474Y-104175735D01*
X148152534Y-104130267D01*
X148146138Y-104069417D01*
X148176731Y-104016429D01*
X148193474Y-104004264D01*
X148217314Y-103990500D01*
X148310500Y-103897314D01*
X148324264Y-103873474D01*
X148369733Y-103832534D01*
X148430583Y-103826138D01*
X148483571Y-103856731D01*
G37*
%TD.AperFunction*%
%TA.AperFunction,Conductor*%
G36*
X149483571Y-103856731D02*
G01*
X149495734Y-103873471D01*
X149509500Y-103897314D01*
X149602686Y-103990500D01*
X149602688Y-103990501D01*
X149626525Y-104004264D01*
X149667465Y-104049734D01*
X149673860Y-104110584D01*
X149643267Y-104163572D01*
X149626525Y-104175736D01*
X149602688Y-104189498D01*
X149509498Y-104282688D01*
X149495736Y-104306525D01*
X149450266Y-104347465D01*
X149389416Y-104353860D01*
X149336428Y-104323267D01*
X149324264Y-104306525D01*
X149310501Y-104282688D01*
X149310500Y-104282686D01*
X149217314Y-104189500D01*
X149193474Y-104175735D01*
X149152534Y-104130267D01*
X149146138Y-104069417D01*
X149176731Y-104016429D01*
X149193474Y-104004264D01*
X149217314Y-103990500D01*
X149310500Y-103897314D01*
X149324264Y-103873474D01*
X149369733Y-103832534D01*
X149430583Y-103826138D01*
X149483571Y-103856731D01*
G37*
%TD.AperFunction*%
%TA.AperFunction,Conductor*%
G36*
X144382162Y-103380707D02*
G01*
X144418126Y-103430207D01*
X144419597Y-103486421D01*
X144409500Y-103524108D01*
X144409500Y-103655892D01*
X144420356Y-103696407D01*
X144421688Y-103701377D01*
X144418485Y-103762479D01*
X144379980Y-103810029D01*
X144326061Y-103826000D01*
X143315259Y-103826000D01*
X143257068Y-103807093D01*
X143221104Y-103757593D01*
X143221104Y-103696407D01*
X143245256Y-103656996D01*
X143314861Y-103587392D01*
X143511457Y-103390796D01*
X143565973Y-103363019D01*
X143581460Y-103361800D01*
X144323971Y-103361800D01*
X144382162Y-103380707D01*
G37*
%TD.AperFunction*%
%TA.AperFunction,Conductor*%
G36*
X144333006Y-102372907D02*
G01*
X144368970Y-102422407D01*
X144370441Y-102478624D01*
X144360000Y-102517588D01*
X144360000Y-102662406D01*
X144372532Y-102709176D01*
X144369330Y-102770278D01*
X144330825Y-102817828D01*
X144276905Y-102833800D01*
X143378585Y-102833800D01*
X143281558Y-102873989D01*
X143281556Y-102873990D01*
X143281556Y-102873991D01*
X142953977Y-103201571D01*
X142637344Y-103518204D01*
X142582827Y-103545981D01*
X142567340Y-103547200D01*
X140453352Y-103547200D01*
X140395161Y-103528293D01*
X140359197Y-103478793D01*
X140359197Y-103417607D01*
X140395161Y-103368107D01*
X140415466Y-103356736D01*
X140422313Y-103353900D01*
X140519344Y-103313708D01*
X141450056Y-102382996D01*
X141504573Y-102355219D01*
X141520060Y-102354000D01*
X144274815Y-102354000D01*
X144333006Y-102372907D01*
G37*
%TD.AperFunction*%
%TA.AperFunction,Conductor*%
G36*
X148483571Y-102856731D02*
G01*
X148495734Y-102873471D01*
X148509500Y-102897314D01*
X148602686Y-102990500D01*
X148602688Y-102990501D01*
X148626525Y-103004264D01*
X148667465Y-103049734D01*
X148673860Y-103110584D01*
X148643267Y-103163572D01*
X148626525Y-103175736D01*
X148602688Y-103189498D01*
X148509498Y-103282688D01*
X148495736Y-103306525D01*
X148450266Y-103347465D01*
X148389416Y-103353860D01*
X148336428Y-103323267D01*
X148324264Y-103306525D01*
X148310501Y-103282688D01*
X148310500Y-103282686D01*
X148217314Y-103189500D01*
X148193474Y-103175735D01*
X148152534Y-103130267D01*
X148146138Y-103069417D01*
X148176731Y-103016429D01*
X148193474Y-103004264D01*
X148217314Y-102990500D01*
X148310500Y-102897314D01*
X148324264Y-102873474D01*
X148369733Y-102832534D01*
X148430583Y-102826138D01*
X148483571Y-102856731D01*
G37*
%TD.AperFunction*%
%TA.AperFunction,Conductor*%
G36*
X149483571Y-102856731D02*
G01*
X149495734Y-102873471D01*
X149509500Y-102897314D01*
X149602686Y-102990500D01*
X149602688Y-102990501D01*
X149626525Y-103004264D01*
X149667465Y-103049734D01*
X149673860Y-103110584D01*
X149643267Y-103163572D01*
X149626525Y-103175736D01*
X149602688Y-103189498D01*
X149509498Y-103282688D01*
X149495736Y-103306525D01*
X149450266Y-103347465D01*
X149389416Y-103353860D01*
X149336428Y-103323267D01*
X149324264Y-103306525D01*
X149310501Y-103282688D01*
X149310500Y-103282686D01*
X149217314Y-103189500D01*
X149193474Y-103175735D01*
X149152534Y-103130267D01*
X149146138Y-103069417D01*
X149176731Y-103016429D01*
X149193474Y-103004264D01*
X149217314Y-102990500D01*
X149310500Y-102897314D01*
X149324264Y-102873474D01*
X149369733Y-102832534D01*
X149430583Y-102826138D01*
X149483571Y-102856731D01*
G37*
%TD.AperFunction*%
%TA.AperFunction,Conductor*%
G36*
X150483571Y-101856731D02*
G01*
X150495734Y-101873471D01*
X150509500Y-101897314D01*
X150602686Y-101990500D01*
X150602688Y-101990501D01*
X150602689Y-101990502D01*
X150607178Y-101993947D01*
X150641831Y-102044373D01*
X150645059Y-102085408D01*
X150641857Y-102109724D01*
X150910000Y-102377867D01*
X151178140Y-102109726D01*
X151174939Y-102085410D01*
X151186088Y-102025249D01*
X151212828Y-101993941D01*
X151217305Y-101990505D01*
X151217314Y-101990500D01*
X151263192Y-101944621D01*
X151317706Y-101916845D01*
X151378138Y-101926416D01*
X151413396Y-101961673D01*
X151415716Y-101960124D01*
X151436013Y-101990501D01*
X151465448Y-102034552D01*
X151465451Y-102034554D01*
X151539876Y-102084284D01*
X151537635Y-102087637D01*
X151569723Y-102114978D01*
X151584077Y-102174455D01*
X151560729Y-102231011D01*
X151555377Y-102236808D01*
X151509501Y-102282684D01*
X151506053Y-102287178D01*
X151455627Y-102321831D01*
X151414593Y-102325059D01*
X151390274Y-102321857D01*
X151086070Y-102626062D01*
X151084056Y-102627087D01*
X151085000Y-102624810D01*
X151085000Y-102555190D01*
X151058357Y-102490871D01*
X151009129Y-102441643D01*
X150944810Y-102415000D01*
X150875190Y-102415000D01*
X150810871Y-102441643D01*
X150761643Y-102490871D01*
X150735000Y-102555190D01*
X150735000Y-102624810D01*
X150736202Y-102627712D01*
X150733931Y-102626062D01*
X150429725Y-102321857D01*
X150405408Y-102325059D01*
X150345247Y-102313909D01*
X150313947Y-102287178D01*
X150310502Y-102282689D01*
X150310501Y-102282688D01*
X150310500Y-102282686D01*
X150217314Y-102189500D01*
X150193474Y-102175735D01*
X150152534Y-102130267D01*
X150146138Y-102069417D01*
X150176731Y-102016429D01*
X150193474Y-102004264D01*
X150217314Y-101990500D01*
X150310500Y-101897314D01*
X150324264Y-101873474D01*
X150369733Y-101832534D01*
X150430583Y-101826138D01*
X150483571Y-101856731D01*
G37*
%TD.AperFunction*%
%TA.AperFunction,Conductor*%
G36*
X147483571Y-101856731D02*
G01*
X147495734Y-101873471D01*
X147509500Y-101897314D01*
X147602686Y-101990500D01*
X147608221Y-101993695D01*
X147626525Y-102004264D01*
X147667465Y-102049734D01*
X147673860Y-102110584D01*
X147643267Y-102163572D01*
X147626525Y-102175736D01*
X147602688Y-102189498D01*
X147509498Y-102282688D01*
X147495736Y-102306525D01*
X147450266Y-102347465D01*
X147389416Y-102353860D01*
X147336428Y-102323267D01*
X147324264Y-102306525D01*
X147310501Y-102282688D01*
X147310500Y-102282686D01*
X147217314Y-102189500D01*
X147193474Y-102175735D01*
X147152534Y-102130267D01*
X147146138Y-102069417D01*
X147176731Y-102016429D01*
X147193474Y-102004264D01*
X147217314Y-101990500D01*
X147310500Y-101897314D01*
X147324264Y-101873474D01*
X147369733Y-101832534D01*
X147430583Y-101826138D01*
X147483571Y-101856731D01*
G37*
%TD.AperFunction*%
%TA.AperFunction,Conductor*%
G36*
X148483571Y-101856731D02*
G01*
X148495734Y-101873471D01*
X148509500Y-101897314D01*
X148602686Y-101990500D01*
X148608221Y-101993695D01*
X148626525Y-102004264D01*
X148667465Y-102049734D01*
X148673860Y-102110584D01*
X148643267Y-102163572D01*
X148626525Y-102175736D01*
X148602688Y-102189498D01*
X148509498Y-102282688D01*
X148495736Y-102306525D01*
X148450266Y-102347465D01*
X148389416Y-102353860D01*
X148336428Y-102323267D01*
X148324264Y-102306525D01*
X148310501Y-102282688D01*
X148310500Y-102282686D01*
X148217314Y-102189500D01*
X148193474Y-102175735D01*
X148152534Y-102130267D01*
X148146138Y-102069417D01*
X148176731Y-102016429D01*
X148193474Y-102004264D01*
X148217314Y-101990500D01*
X148310500Y-101897314D01*
X148324264Y-101873474D01*
X148369733Y-101832534D01*
X148430583Y-101826138D01*
X148483571Y-101856731D01*
G37*
%TD.AperFunction*%
%TA.AperFunction,Conductor*%
G36*
X149064031Y-99711907D02*
G01*
X149099995Y-99761407D01*
X149099995Y-99822593D01*
X149075845Y-99862002D01*
X148760456Y-100177392D01*
X148760455Y-100177391D01*
X148686191Y-100251656D01*
X148646000Y-100348687D01*
X148646000Y-101107442D01*
X148627093Y-101165633D01*
X148607271Y-101185981D01*
X148602692Y-101189494D01*
X148509498Y-101282688D01*
X148495736Y-101306525D01*
X148450266Y-101347465D01*
X148389416Y-101353860D01*
X148336428Y-101323267D01*
X148324264Y-101306525D01*
X148310501Y-101282688D01*
X148310500Y-101282686D01*
X148217314Y-101189500D01*
X148217311Y-101189498D01*
X148217309Y-101189496D01*
X148103189Y-101123609D01*
X148103191Y-101123609D01*
X148042853Y-101107442D01*
X147975892Y-101089500D01*
X147844108Y-101089500D01*
X147777147Y-101107442D01*
X147716809Y-101123609D01*
X147602690Y-101189496D01*
X147509498Y-101282688D01*
X147495736Y-101306525D01*
X147450266Y-101347465D01*
X147389416Y-101353860D01*
X147336428Y-101323267D01*
X147324264Y-101306525D01*
X147310501Y-101282688D01*
X147310500Y-101282686D01*
X147217314Y-101189500D01*
X147217311Y-101189498D01*
X147217309Y-101189496D01*
X147103189Y-101123609D01*
X147103191Y-101123609D01*
X147042853Y-101107442D01*
X146975892Y-101089500D01*
X146844108Y-101089500D01*
X146777147Y-101107442D01*
X146716809Y-101123609D01*
X146602690Y-101189496D01*
X146509498Y-101282688D01*
X146495736Y-101306525D01*
X146450266Y-101347465D01*
X146389416Y-101353860D01*
X146336428Y-101323267D01*
X146324264Y-101306525D01*
X146310501Y-101282688D01*
X146310500Y-101282686D01*
X146217314Y-101189500D01*
X146217311Y-101189498D01*
X146217307Y-101189494D01*
X146212729Y-101185981D01*
X146178076Y-101135555D01*
X146174000Y-101107442D01*
X146174000Y-100840358D01*
X146192907Y-100782167D01*
X146202990Y-100770361D01*
X146365053Y-100608297D01*
X146419568Y-100580521D01*
X146480000Y-100590092D01*
X146520791Y-100628802D01*
X146548507Y-100676808D01*
X146548509Y-100676810D01*
X146548511Y-100676813D01*
X146632387Y-100760689D01*
X146632389Y-100760690D01*
X146632391Y-100760692D01*
X146735110Y-100819997D01*
X146735111Y-100819997D01*
X146735114Y-100819999D01*
X146849691Y-100850700D01*
X146849693Y-100850700D01*
X146968307Y-100850700D01*
X146968309Y-100850700D01*
X147082886Y-100819999D01*
X147082888Y-100819997D01*
X147082890Y-100819997D01*
X147185608Y-100760692D01*
X147185608Y-100760691D01*
X147185613Y-100760689D01*
X147269489Y-100676813D01*
X147292194Y-100637487D01*
X147328797Y-100574090D01*
X147328797Y-100574088D01*
X147328799Y-100574086D01*
X147359500Y-100459509D01*
X147359500Y-100340891D01*
X147328799Y-100226314D01*
X147328797Y-100226311D01*
X147328797Y-100226309D01*
X147269492Y-100123591D01*
X147269490Y-100123589D01*
X147269489Y-100123587D01*
X147185613Y-100039711D01*
X147185610Y-100039709D01*
X147137602Y-100011991D01*
X147096662Y-99966521D01*
X147090267Y-99905671D01*
X147117100Y-99856251D01*
X147150759Y-99822593D01*
X147251356Y-99721996D01*
X147305872Y-99694219D01*
X147321359Y-99693000D01*
X149005840Y-99693000D01*
X149064031Y-99711907D01*
G37*
%TD.AperFunction*%
%TA.AperFunction,Conductor*%
G36*
X167760417Y-99359807D02*
G01*
X167796381Y-99409307D01*
X167796381Y-99470493D01*
X167784541Y-99494902D01*
X167724145Y-99585288D01*
X167724141Y-99585296D01*
X167687032Y-99674886D01*
X167647295Y-99721411D01*
X167595568Y-99736000D01*
X152777959Y-99736000D01*
X152719768Y-99717093D01*
X152683804Y-99667593D01*
X152683804Y-99606407D01*
X152707956Y-99566996D01*
X152771160Y-99503793D01*
X152905057Y-99369896D01*
X152959573Y-99342119D01*
X152975060Y-99340900D01*
X167702226Y-99340900D01*
X167760417Y-99359807D01*
G37*
%TD.AperFunction*%
%TA.AperFunction,Conductor*%
G36*
X152617931Y-98748407D02*
G01*
X152653895Y-98797907D01*
X152653895Y-98859093D01*
X152629744Y-98898503D01*
X152234645Y-99293603D01*
X152180128Y-99321381D01*
X152164641Y-99322600D01*
X151756598Y-99322600D01*
X151698407Y-99303693D01*
X151662443Y-99254193D01*
X151660972Y-99197976D01*
X151668600Y-99169509D01*
X151668600Y-99050891D01*
X151637899Y-98936314D01*
X151637897Y-98936311D01*
X151637897Y-98936309D01*
X151604232Y-98878000D01*
X151591510Y-98818152D01*
X151616396Y-98762256D01*
X151669384Y-98731663D01*
X151689968Y-98729500D01*
X152559740Y-98729500D01*
X152617931Y-98748407D01*
G37*
%TD.AperFunction*%
%TA.AperFunction,Conductor*%
G36*
X167728277Y-97407907D02*
G01*
X167764241Y-97457407D01*
X167764241Y-97518593D01*
X167752401Y-97543002D01*
X167724145Y-97585288D01*
X167724139Y-97585299D01*
X167658145Y-97744624D01*
X167658145Y-97744626D01*
X167624500Y-97913768D01*
X167624500Y-98086231D01*
X167658145Y-98255373D01*
X167658145Y-98255375D01*
X167724139Y-98414700D01*
X167724145Y-98414712D01*
X167792660Y-98517249D01*
X167819955Y-98558099D01*
X167819958Y-98558102D01*
X167905752Y-98643896D01*
X167933529Y-98698413D01*
X167923958Y-98758845D01*
X167880693Y-98802110D01*
X167835748Y-98812900D01*
X164528259Y-98812900D01*
X164470068Y-98793993D01*
X164434104Y-98744493D01*
X164434104Y-98683307D01*
X164458253Y-98643898D01*
X165684156Y-97417996D01*
X165738673Y-97390219D01*
X165754160Y-97389000D01*
X167670086Y-97389000D01*
X167728277Y-97407907D01*
G37*
%TD.AperFunction*%
%TA.AperFunction,Conductor*%
G36*
X173004842Y-86800976D02*
G01*
X173126764Y-86812985D01*
X173145795Y-86816771D01*
X173166117Y-86822935D01*
X173258360Y-86850916D01*
X173276277Y-86858337D01*
X173380026Y-86913792D01*
X173396157Y-86924571D01*
X173487083Y-86999193D01*
X173500806Y-87012916D01*
X173575428Y-87103842D01*
X173586208Y-87119976D01*
X173641659Y-87223718D01*
X173649084Y-87241643D01*
X173683228Y-87354204D01*
X173687014Y-87373237D01*
X173699023Y-87495157D01*
X173699500Y-87504861D01*
X173699500Y-122495138D01*
X173699023Y-122504842D01*
X173687014Y-122626762D01*
X173683228Y-122645795D01*
X173649084Y-122758356D01*
X173641657Y-122776288D01*
X173586210Y-122880021D01*
X173575428Y-122896157D01*
X173500806Y-122987083D01*
X173487083Y-123000806D01*
X173396157Y-123075428D01*
X173380021Y-123086210D01*
X173328154Y-123113933D01*
X173276285Y-123141658D01*
X173258356Y-123149084D01*
X173145795Y-123183228D01*
X173126763Y-123187014D01*
X173020719Y-123197459D01*
X173004841Y-123199023D01*
X172995139Y-123199500D01*
X124004861Y-123199500D01*
X123995157Y-123199023D01*
X123873237Y-123187014D01*
X123854204Y-123183228D01*
X123741643Y-123149084D01*
X123723718Y-123141659D01*
X123619976Y-123086208D01*
X123603842Y-123075428D01*
X123512916Y-123000806D01*
X123499193Y-122987083D01*
X123424571Y-122896157D01*
X123413792Y-122880026D01*
X123358337Y-122776277D01*
X123350916Y-122758360D01*
X123316771Y-122645795D01*
X123312985Y-122626762D01*
X123300977Y-122504842D01*
X123300500Y-122495138D01*
X123300500Y-120345691D01*
X144944500Y-120345691D01*
X144944500Y-120464309D01*
X144971574Y-120565351D01*
X144975202Y-120578890D01*
X145034507Y-120681608D01*
X145034509Y-120681610D01*
X145034511Y-120681613D01*
X145118387Y-120765489D01*
X145118389Y-120765490D01*
X145118391Y-120765492D01*
X145221110Y-120824797D01*
X145221111Y-120824797D01*
X145221114Y-120824799D01*
X145335691Y-120855500D01*
X145335693Y-120855500D01*
X145454307Y-120855500D01*
X145454309Y-120855500D01*
X145568886Y-120824799D01*
X145568888Y-120824797D01*
X145568890Y-120824797D01*
X145671608Y-120765492D01*
X145671608Y-120765491D01*
X145671613Y-120765489D01*
X145755489Y-120681613D01*
X145814799Y-120578886D01*
X145845500Y-120464309D01*
X145845500Y-120345691D01*
X145814799Y-120231114D01*
X145814797Y-120231111D01*
X145814797Y-120231109D01*
X145755492Y-120128391D01*
X145755490Y-120128389D01*
X145755489Y-120128387D01*
X145671613Y-120044511D01*
X145671610Y-120044509D01*
X145671608Y-120044507D01*
X145568889Y-119985202D01*
X145568890Y-119985202D01*
X145555351Y-119981574D01*
X145454309Y-119954500D01*
X145335691Y-119954500D01*
X145265567Y-119973289D01*
X145221109Y-119985202D01*
X145118391Y-120044507D01*
X145034507Y-120128391D01*
X144975202Y-120231109D01*
X144975201Y-120231114D01*
X144944500Y-120345691D01*
X123300500Y-120345691D01*
X123300500Y-119102891D01*
X125181000Y-119102891D01*
X125181000Y-119221509D01*
X125208074Y-119322551D01*
X125211702Y-119336090D01*
X125271007Y-119438808D01*
X125271009Y-119438810D01*
X125271011Y-119438813D01*
X125354887Y-119522689D01*
X125354889Y-119522690D01*
X125354891Y-119522692D01*
X125457610Y-119581997D01*
X125457611Y-119581997D01*
X125457614Y-119581999D01*
X125572191Y-119612700D01*
X125572193Y-119612700D01*
X125690807Y-119612700D01*
X125690809Y-119612700D01*
X125805386Y-119581999D01*
X125805388Y-119581997D01*
X125805390Y-119581997D01*
X125908108Y-119522692D01*
X125908108Y-119522691D01*
X125908113Y-119522689D01*
X125975607Y-119455194D01*
X126030122Y-119427419D01*
X126045609Y-119426200D01*
X147585991Y-119426200D01*
X147644182Y-119445107D01*
X147655988Y-119455190D01*
X147723487Y-119522689D01*
X147723489Y-119522690D01*
X147723491Y-119522692D01*
X147826210Y-119581997D01*
X147826211Y-119581997D01*
X147826214Y-119581999D01*
X147940791Y-119612700D01*
X147940793Y-119612700D01*
X148059407Y-119612700D01*
X148059409Y-119612700D01*
X148173986Y-119581999D01*
X148173988Y-119581997D01*
X148173990Y-119581997D01*
X148276708Y-119522692D01*
X148276708Y-119522691D01*
X148276713Y-119522689D01*
X148360589Y-119438813D01*
X148360592Y-119438808D01*
X148419897Y-119336090D01*
X148419897Y-119336088D01*
X148419899Y-119336086D01*
X148450600Y-119221509D01*
X148450600Y-119102891D01*
X148419899Y-118988314D01*
X148419897Y-118988311D01*
X148419897Y-118988309D01*
X148360592Y-118885591D01*
X148360590Y-118885589D01*
X148360589Y-118885587D01*
X148276713Y-118801711D01*
X148276710Y-118801709D01*
X148276708Y-118801707D01*
X148173989Y-118742402D01*
X148173990Y-118742402D01*
X148160451Y-118738774D01*
X148059409Y-118711700D01*
X147940791Y-118711700D01*
X147870667Y-118730489D01*
X147826209Y-118742402D01*
X147723491Y-118801707D01*
X147723490Y-118801708D01*
X147723487Y-118801710D01*
X147723487Y-118801711D01*
X147655992Y-118869205D01*
X147601478Y-118896981D01*
X147585991Y-118898200D01*
X129057966Y-118898200D01*
X128999775Y-118879293D01*
X128963811Y-118829793D01*
X128963811Y-118768607D01*
X128999775Y-118719107D01*
X129002964Y-118716885D01*
X129010724Y-118711700D01*
X129058099Y-118680045D01*
X129180045Y-118558099D01*
X129248188Y-118456115D01*
X129275854Y-118414712D01*
X129275855Y-118414708D01*
X129275858Y-118414705D01*
X129312968Y-118325114D01*
X129352705Y-118278589D01*
X129404432Y-118264000D01*
X130290412Y-118264000D01*
X130290413Y-118264000D01*
X130387444Y-118223808D01*
X131097661Y-117513591D01*
X141527800Y-117513591D01*
X141527800Y-117632209D01*
X141550545Y-117717093D01*
X141558502Y-117746790D01*
X141617807Y-117849508D01*
X141617809Y-117849510D01*
X141617811Y-117849513D01*
X141701687Y-117933389D01*
X141701689Y-117933390D01*
X141701691Y-117933392D01*
X141804410Y-117992697D01*
X141804411Y-117992697D01*
X141804414Y-117992699D01*
X141918991Y-118023400D01*
X141918993Y-118023400D01*
X142037607Y-118023400D01*
X142037609Y-118023400D01*
X142152186Y-117992699D01*
X142152188Y-117992697D01*
X142152190Y-117992697D01*
X142254908Y-117933392D01*
X142254908Y-117933391D01*
X142254913Y-117933389D01*
X142274534Y-117913768D01*
X167624500Y-117913768D01*
X167624500Y-118086231D01*
X167658145Y-118255373D01*
X167658145Y-118255375D01*
X167724139Y-118414700D01*
X167724145Y-118414712D01*
X167792660Y-118517249D01*
X167819955Y-118558099D01*
X167941901Y-118680045D01*
X167989276Y-118711700D01*
X168085287Y-118775854D01*
X168085299Y-118775860D01*
X168144153Y-118800238D01*
X168244626Y-118841855D01*
X168413771Y-118875500D01*
X168413772Y-118875500D01*
X168586228Y-118875500D01*
X168586229Y-118875500D01*
X168755374Y-118841855D01*
X168914705Y-118775858D01*
X168914707Y-118775856D01*
X168914712Y-118775854D01*
X168964777Y-118742401D01*
X169058099Y-118680045D01*
X169180045Y-118558099D01*
X169248188Y-118456115D01*
X169275854Y-118414712D01*
X169275859Y-118414703D01*
X169341855Y-118255374D01*
X169375500Y-118086229D01*
X169375500Y-117913771D01*
X169375499Y-117913768D01*
X169624500Y-117913768D01*
X169624500Y-118086231D01*
X169658145Y-118255373D01*
X169658145Y-118255375D01*
X169724139Y-118414700D01*
X169724145Y-118414712D01*
X169792660Y-118517249D01*
X169819955Y-118558099D01*
X169941901Y-118680045D01*
X169989276Y-118711700D01*
X170085287Y-118775854D01*
X170085299Y-118775860D01*
X170144153Y-118800238D01*
X170244626Y-118841855D01*
X170413771Y-118875500D01*
X170413772Y-118875500D01*
X170586228Y-118875500D01*
X170586229Y-118875500D01*
X170755374Y-118841855D01*
X170914705Y-118775858D01*
X170914707Y-118775856D01*
X170914712Y-118775854D01*
X170964777Y-118742401D01*
X171058099Y-118680045D01*
X171180045Y-118558099D01*
X171248188Y-118456115D01*
X171275854Y-118414712D01*
X171275859Y-118414703D01*
X171341855Y-118255374D01*
X171375500Y-118086229D01*
X171375500Y-117913771D01*
X171341855Y-117744626D01*
X171307429Y-117661513D01*
X171275860Y-117585299D01*
X171275854Y-117585287D01*
X171220893Y-117503034D01*
X171180045Y-117441901D01*
X171058099Y-117319955D01*
X171017249Y-117292660D01*
X170914712Y-117224145D01*
X170914700Y-117224139D01*
X170755374Y-117158145D01*
X170586231Y-117124500D01*
X170586229Y-117124500D01*
X170413771Y-117124500D01*
X170413768Y-117124500D01*
X170244626Y-117158145D01*
X170244624Y-117158145D01*
X170085299Y-117224139D01*
X170085287Y-117224145D01*
X169941901Y-117319955D01*
X169941897Y-117319958D01*
X169819958Y-117441897D01*
X169819955Y-117441901D01*
X169724145Y-117585287D01*
X169724139Y-117585299D01*
X169658145Y-117744624D01*
X169658145Y-117744626D01*
X169624500Y-117913768D01*
X169375499Y-117913768D01*
X169341855Y-117744626D01*
X169307429Y-117661513D01*
X169275860Y-117585299D01*
X169275854Y-117585287D01*
X169220893Y-117503034D01*
X169180045Y-117441901D01*
X169058099Y-117319955D01*
X169017249Y-117292660D01*
X168914712Y-117224145D01*
X168914700Y-117224139D01*
X168755374Y-117158145D01*
X168586231Y-117124500D01*
X168586229Y-117124500D01*
X168413771Y-117124500D01*
X168413768Y-117124500D01*
X168244626Y-117158145D01*
X168244624Y-117158145D01*
X168085299Y-117224139D01*
X168085287Y-117224145D01*
X167941901Y-117319955D01*
X167941897Y-117319958D01*
X167819958Y-117441897D01*
X167819955Y-117441901D01*
X167724145Y-117585287D01*
X167724139Y-117585299D01*
X167658145Y-117744624D01*
X167658145Y-117744626D01*
X167624500Y-117913768D01*
X142274534Y-117913768D01*
X142338789Y-117849513D01*
X142346937Y-117835400D01*
X142398097Y-117746790D01*
X142398097Y-117746788D01*
X142398099Y-117746786D01*
X142428800Y-117632209D01*
X142428800Y-117513591D01*
X142398099Y-117399014D01*
X142380540Y-117368601D01*
X142355708Y-117325591D01*
X147959400Y-117325591D01*
X147959400Y-117444209D01*
X147977991Y-117513591D01*
X147990102Y-117558790D01*
X148049407Y-117661508D01*
X148049409Y-117661510D01*
X148049411Y-117661513D01*
X148133287Y-117745389D01*
X148133289Y-117745390D01*
X148133291Y-117745392D01*
X148236010Y-117804697D01*
X148236011Y-117804697D01*
X148236014Y-117804699D01*
X148350591Y-117835400D01*
X148350593Y-117835400D01*
X148469207Y-117835400D01*
X148469209Y-117835400D01*
X148583786Y-117804699D01*
X148583788Y-117804697D01*
X148583790Y-117804697D01*
X148686508Y-117745392D01*
X148686508Y-117745391D01*
X148686513Y-117745389D01*
X148770389Y-117661513D01*
X148814392Y-117585299D01*
X148829697Y-117558790D01*
X148829697Y-117558788D01*
X148829699Y-117558786D01*
X148860400Y-117444209D01*
X148860400Y-117325591D01*
X148829699Y-117211014D01*
X148829697Y-117211011D01*
X148829697Y-117211009D01*
X148770392Y-117108291D01*
X148770390Y-117108289D01*
X148770389Y-117108287D01*
X148686513Y-117024411D01*
X148686510Y-117024409D01*
X148686508Y-117024407D01*
X148583789Y-116965102D01*
X148583790Y-116965102D01*
X148570251Y-116961474D01*
X148469209Y-116934400D01*
X148350591Y-116934400D01*
X148280467Y-116953189D01*
X148236009Y-116965102D01*
X148133291Y-117024407D01*
X148049407Y-117108291D01*
X147990102Y-117211009D01*
X147972937Y-117275069D01*
X147959400Y-117325591D01*
X142355708Y-117325591D01*
X142338792Y-117296291D01*
X142338790Y-117296289D01*
X142338789Y-117296287D01*
X142254913Y-117212411D01*
X142254910Y-117212409D01*
X142254908Y-117212407D01*
X142152189Y-117153102D01*
X142152190Y-117153102D01*
X142138651Y-117149474D01*
X142037609Y-117122400D01*
X141918991Y-117122400D01*
X141848867Y-117141189D01*
X141804409Y-117153102D01*
X141701691Y-117212407D01*
X141617807Y-117296291D01*
X141558502Y-117399009D01*
X141558501Y-117399014D01*
X141527800Y-117513591D01*
X131097661Y-117513591D01*
X132697484Y-115913768D01*
X167624500Y-115913768D01*
X167624500Y-116086231D01*
X167658145Y-116255373D01*
X167658145Y-116255375D01*
X167724139Y-116414700D01*
X167724145Y-116414712D01*
X167792660Y-116517249D01*
X167819955Y-116558099D01*
X167941901Y-116680045D01*
X168003034Y-116720893D01*
X168085287Y-116775854D01*
X168085299Y-116775860D01*
X168144153Y-116800238D01*
X168244626Y-116841855D01*
X168413771Y-116875500D01*
X168413772Y-116875500D01*
X168586228Y-116875500D01*
X168586229Y-116875500D01*
X168755374Y-116841855D01*
X168914705Y-116775858D01*
X168914707Y-116775856D01*
X168914712Y-116775854D01*
X168956115Y-116748188D01*
X169058099Y-116680045D01*
X169180045Y-116558099D01*
X169248188Y-116456115D01*
X169275854Y-116414712D01*
X169275859Y-116414703D01*
X169341855Y-116255374D01*
X169375500Y-116086229D01*
X169375500Y-115913771D01*
X169375499Y-115913768D01*
X169624500Y-115913768D01*
X169624500Y-116086231D01*
X169658145Y-116255373D01*
X169658145Y-116255375D01*
X169724139Y-116414700D01*
X169724145Y-116414712D01*
X169792660Y-116517249D01*
X169819955Y-116558099D01*
X169941901Y-116680045D01*
X170003034Y-116720893D01*
X170085287Y-116775854D01*
X170085299Y-116775860D01*
X170144153Y-116800238D01*
X170244626Y-116841855D01*
X170413771Y-116875500D01*
X170413772Y-116875500D01*
X170586228Y-116875500D01*
X170586229Y-116875500D01*
X170755374Y-116841855D01*
X170914705Y-116775858D01*
X170914707Y-116775856D01*
X170914712Y-116775854D01*
X170956115Y-116748188D01*
X171058099Y-116680045D01*
X171180045Y-116558099D01*
X171248188Y-116456115D01*
X171275854Y-116414712D01*
X171275859Y-116414703D01*
X171341855Y-116255374D01*
X171375500Y-116086229D01*
X171375500Y-115913771D01*
X171341855Y-115744626D01*
X171304745Y-115655034D01*
X171275860Y-115585299D01*
X171275854Y-115585287D01*
X171220893Y-115503034D01*
X171180045Y-115441901D01*
X171058099Y-115319955D01*
X170998889Y-115280392D01*
X170914712Y-115224145D01*
X170914700Y-115224139D01*
X170755374Y-115158145D01*
X170586231Y-115124500D01*
X170586229Y-115124500D01*
X170413771Y-115124500D01*
X170413768Y-115124500D01*
X170244626Y-115158145D01*
X170244624Y-115158145D01*
X170085299Y-115224139D01*
X170085287Y-115224145D01*
X169941901Y-115319955D01*
X169941897Y-115319958D01*
X169819958Y-115441897D01*
X169819955Y-115441901D01*
X169724145Y-115585287D01*
X169724139Y-115585299D01*
X169658145Y-115744624D01*
X169658145Y-115744626D01*
X169624500Y-115913768D01*
X169375499Y-115913768D01*
X169341855Y-115744626D01*
X169304745Y-115655034D01*
X169275860Y-115585299D01*
X169275854Y-115585287D01*
X169220893Y-115503034D01*
X169180045Y-115441901D01*
X169058099Y-115319955D01*
X168998889Y-115280392D01*
X168914712Y-115224145D01*
X168914700Y-115224139D01*
X168755374Y-115158145D01*
X168586231Y-115124500D01*
X168586229Y-115124500D01*
X168413771Y-115124500D01*
X168413768Y-115124500D01*
X168244626Y-115158145D01*
X168244624Y-115158145D01*
X168085299Y-115224139D01*
X168085287Y-115224145D01*
X167941901Y-115319955D01*
X167941897Y-115319958D01*
X167819958Y-115441897D01*
X167819955Y-115441901D01*
X167724145Y-115585287D01*
X167724139Y-115585299D01*
X167658145Y-115744624D01*
X167658145Y-115744626D01*
X167624500Y-115913768D01*
X132697484Y-115913768D01*
X133750661Y-114860591D01*
X148432200Y-114860591D01*
X148432200Y-114979209D01*
X148459274Y-115080251D01*
X148462902Y-115093790D01*
X148522207Y-115196508D01*
X148522209Y-115196510D01*
X148522211Y-115196513D01*
X148606087Y-115280389D01*
X148606089Y-115280390D01*
X148606091Y-115280392D01*
X148708810Y-115339697D01*
X148708811Y-115339697D01*
X148708814Y-115339699D01*
X148823391Y-115370400D01*
X148823393Y-115370400D01*
X148942007Y-115370400D01*
X148942009Y-115370400D01*
X149056586Y-115339699D01*
X149056588Y-115339697D01*
X149056590Y-115339697D01*
X149159308Y-115280392D01*
X149159308Y-115280391D01*
X149159313Y-115280389D01*
X149243189Y-115196513D01*
X149302499Y-115093786D01*
X149333200Y-114979209D01*
X149333200Y-114860591D01*
X149302499Y-114746014D01*
X149302497Y-114746011D01*
X149302497Y-114746009D01*
X149243192Y-114643291D01*
X149243190Y-114643289D01*
X149243189Y-114643287D01*
X149159313Y-114559411D01*
X149159310Y-114559409D01*
X149159308Y-114559407D01*
X149056589Y-114500102D01*
X149056590Y-114500102D01*
X149043051Y-114496474D01*
X148942009Y-114469400D01*
X148823391Y-114469400D01*
X148753267Y-114488189D01*
X148708809Y-114500102D01*
X148606091Y-114559407D01*
X148522207Y-114643291D01*
X148462902Y-114746009D01*
X148455217Y-114774691D01*
X148432200Y-114860591D01*
X133750661Y-114860591D01*
X135709673Y-112901579D01*
X139249500Y-112901579D01*
X139249500Y-113098420D01*
X139280289Y-113292821D01*
X139341116Y-113480025D01*
X139430286Y-113655034D01*
X139430476Y-113655405D01*
X139546172Y-113814646D01*
X139685354Y-113953828D01*
X139844595Y-114069524D01*
X140019975Y-114158884D01*
X140207174Y-114219709D01*
X140207175Y-114219709D01*
X140207178Y-114219710D01*
X140401580Y-114250500D01*
X140401583Y-114250500D01*
X140598420Y-114250500D01*
X140792821Y-114219710D01*
X140792822Y-114219709D01*
X140792826Y-114219709D01*
X140980025Y-114158884D01*
X141155405Y-114069524D01*
X141314646Y-113953828D01*
X141453828Y-113814646D01*
X141569524Y-113655405D01*
X141658884Y-113480025D01*
X141719709Y-113292826D01*
X141722566Y-113274790D01*
X141750500Y-113098420D01*
X141750500Y-112901579D01*
X141719710Y-112707178D01*
X141719709Y-112707174D01*
X141658884Y-112519975D01*
X141569524Y-112344595D01*
X141453828Y-112185354D01*
X141314646Y-112046172D01*
X141155405Y-111930476D01*
X141155404Y-111930475D01*
X141155402Y-111930474D01*
X140980025Y-111841116D01*
X140792821Y-111780289D01*
X140598420Y-111749500D01*
X140598417Y-111749500D01*
X140401583Y-111749500D01*
X140401580Y-111749500D01*
X140207178Y-111780289D01*
X140019974Y-111841116D01*
X139844597Y-111930474D01*
X139685355Y-112046171D01*
X139546171Y-112185355D01*
X139430474Y-112344597D01*
X139341116Y-112519974D01*
X139280289Y-112707178D01*
X139249500Y-112901579D01*
X135709673Y-112901579D01*
X137294556Y-111316696D01*
X137349073Y-111288919D01*
X137364560Y-111287700D01*
X146361475Y-111287700D01*
X146419666Y-111306607D01*
X146455630Y-111356107D01*
X146457101Y-111412324D01*
X146449500Y-111440688D01*
X146449500Y-111440691D01*
X146449500Y-111559309D01*
X146468069Y-111628608D01*
X146480202Y-111673890D01*
X146539507Y-111776608D01*
X146539509Y-111776610D01*
X146539511Y-111776613D01*
X146623387Y-111860489D01*
X146623389Y-111860490D01*
X146623391Y-111860492D01*
X146726110Y-111919797D01*
X146726111Y-111919797D01*
X146726114Y-111919799D01*
X146840691Y-111950500D01*
X146840693Y-111950500D01*
X146959307Y-111950500D01*
X146959309Y-111950500D01*
X147073886Y-111919799D01*
X147073888Y-111919797D01*
X147073890Y-111919797D01*
X147176608Y-111860492D01*
X147176608Y-111860491D01*
X147176613Y-111860489D01*
X147260489Y-111776613D01*
X147261886Y-111774193D01*
X147319797Y-111673890D01*
X147319797Y-111673888D01*
X147319799Y-111673886D01*
X147350500Y-111559309D01*
X147350500Y-111440691D01*
X147333905Y-111378758D01*
X147337107Y-111317659D01*
X147375613Y-111270109D01*
X147391647Y-111261673D01*
X147425844Y-111247508D01*
X148633809Y-110039544D01*
X148633810Y-110039540D01*
X148633812Y-110039539D01*
X148639228Y-110031435D01*
X148641218Y-110032765D01*
X148672011Y-109996703D01*
X148731504Y-109982412D01*
X148788035Y-110005820D01*
X148793739Y-110011091D01*
X150129805Y-111347157D01*
X150157581Y-111401672D01*
X150157834Y-111404890D01*
X150157953Y-111404875D01*
X150158799Y-111411306D01*
X150189502Y-111525890D01*
X150248807Y-111628608D01*
X150248809Y-111628610D01*
X150248811Y-111628613D01*
X150332687Y-111712489D01*
X150332689Y-111712490D01*
X150332691Y-111712492D01*
X150435410Y-111771797D01*
X150435411Y-111771797D01*
X150435414Y-111771799D01*
X150549991Y-111802500D01*
X150549993Y-111802500D01*
X150668607Y-111802500D01*
X150668609Y-111802500D01*
X150783186Y-111771799D01*
X150783188Y-111771797D01*
X150783190Y-111771797D01*
X150885908Y-111712492D01*
X150885908Y-111712491D01*
X150885913Y-111712489D01*
X150969789Y-111628613D01*
X150978950Y-111612744D01*
X151024416Y-111571804D01*
X151085266Y-111565405D01*
X151102567Y-111570777D01*
X151161287Y-111595100D01*
X156152071Y-111595100D01*
X156210262Y-111614007D01*
X156246226Y-111663507D01*
X156246226Y-111724693D01*
X156210262Y-111774193D01*
X156182664Y-111788254D01*
X156138822Y-111802500D01*
X156019974Y-111841116D01*
X155844597Y-111930474D01*
X155685355Y-112046171D01*
X155546171Y-112185355D01*
X155430474Y-112344597D01*
X155341116Y-112519974D01*
X155280289Y-112707178D01*
X155249500Y-112901579D01*
X155249500Y-113098420D01*
X155280289Y-113292821D01*
X155341116Y-113480025D01*
X155430286Y-113655034D01*
X155430476Y-113655405D01*
X155546172Y-113814646D01*
X155685354Y-113953828D01*
X155844595Y-114069524D01*
X156019975Y-114158884D01*
X156207174Y-114219709D01*
X156207175Y-114219709D01*
X156207178Y-114219710D01*
X156401580Y-114250500D01*
X156401583Y-114250500D01*
X156598420Y-114250500D01*
X156792821Y-114219710D01*
X156792822Y-114219709D01*
X156792826Y-114219709D01*
X156980025Y-114158884D01*
X157155405Y-114069524D01*
X157314646Y-113953828D01*
X157453828Y-113814646D01*
X157569524Y-113655405D01*
X157658884Y-113480025D01*
X157719709Y-113292826D01*
X157722566Y-113274790D01*
X157750500Y-113098420D01*
X157750500Y-112901579D01*
X157738446Y-112825473D01*
X157748017Y-112765041D01*
X157791282Y-112721776D01*
X157851714Y-112712205D01*
X157906228Y-112739980D01*
X158390056Y-113223808D01*
X158390057Y-113223808D01*
X158390058Y-113223809D01*
X158418476Y-113235580D01*
X158487087Y-113264000D01*
X158592113Y-113264000D01*
X167758848Y-113264000D01*
X167817039Y-113282907D01*
X167853003Y-113332407D01*
X167853003Y-113393593D01*
X167828852Y-113433004D01*
X167819958Y-113441897D01*
X167819955Y-113441901D01*
X167724145Y-113585287D01*
X167724139Y-113585299D01*
X167658145Y-113744624D01*
X167658145Y-113744626D01*
X167624500Y-113913768D01*
X167624500Y-114086231D01*
X167658145Y-114255373D01*
X167658145Y-114255375D01*
X167724139Y-114414700D01*
X167724145Y-114414712D01*
X167792660Y-114517249D01*
X167819955Y-114558099D01*
X167941901Y-114680045D01*
X167995102Y-114715593D01*
X168085287Y-114775854D01*
X168085299Y-114775860D01*
X168144153Y-114800238D01*
X168244626Y-114841855D01*
X168413771Y-114875500D01*
X168413772Y-114875500D01*
X168586228Y-114875500D01*
X168586229Y-114875500D01*
X168755374Y-114841855D01*
X168914705Y-114775858D01*
X168914707Y-114775856D01*
X168914712Y-114775854D01*
X168976601Y-114734500D01*
X169058099Y-114680045D01*
X169180045Y-114558099D01*
X169248188Y-114456115D01*
X169275854Y-114414712D01*
X169275860Y-114414700D01*
X169341855Y-114255374D01*
X169375500Y-114086229D01*
X169375500Y-113913771D01*
X169341855Y-113744626D01*
X169319856Y-113691515D01*
X169275860Y-113585299D01*
X169275854Y-113585287D01*
X169220893Y-113503034D01*
X169180045Y-113441901D01*
X169171148Y-113433004D01*
X169143371Y-113378487D01*
X169152942Y-113318055D01*
X169196207Y-113274790D01*
X169241152Y-113264000D01*
X169349641Y-113264000D01*
X169407832Y-113282907D01*
X169419645Y-113292997D01*
X169673794Y-113547147D01*
X169701571Y-113601663D01*
X169695254Y-113655035D01*
X169658145Y-113744624D01*
X169658145Y-113744626D01*
X169624500Y-113913768D01*
X169624500Y-114086231D01*
X169658145Y-114255373D01*
X169658145Y-114255375D01*
X169724139Y-114414700D01*
X169724145Y-114414712D01*
X169792660Y-114517249D01*
X169819955Y-114558099D01*
X169941901Y-114680045D01*
X169995102Y-114715593D01*
X170085287Y-114775854D01*
X170085299Y-114775860D01*
X170144153Y-114800238D01*
X170244626Y-114841855D01*
X170413771Y-114875500D01*
X170413772Y-114875500D01*
X170586228Y-114875500D01*
X170586229Y-114875500D01*
X170755374Y-114841855D01*
X170914705Y-114775858D01*
X170914707Y-114775856D01*
X170914712Y-114775854D01*
X170976601Y-114734500D01*
X171058099Y-114680045D01*
X171180045Y-114558099D01*
X171248188Y-114456115D01*
X171275854Y-114414712D01*
X171275860Y-114414700D01*
X171341855Y-114255374D01*
X171375500Y-114086229D01*
X171375500Y-113913771D01*
X171341855Y-113744626D01*
X171319856Y-113691515D01*
X171275860Y-113585299D01*
X171275854Y-113585287D01*
X171220893Y-113503034D01*
X171180045Y-113441901D01*
X171058099Y-113319955D01*
X171017249Y-113292660D01*
X170914712Y-113224145D01*
X170914700Y-113224139D01*
X170755374Y-113158145D01*
X170586231Y-113124500D01*
X170586229Y-113124500D01*
X170413771Y-113124500D01*
X170413768Y-113124500D01*
X170244626Y-113158145D01*
X170244624Y-113158145D01*
X170155035Y-113195254D01*
X170094038Y-113200054D01*
X170047147Y-113173794D01*
X169649543Y-112776191D01*
X169562126Y-112739982D01*
X169552513Y-112736000D01*
X169552512Y-112736000D01*
X169241152Y-112736000D01*
X169182961Y-112717093D01*
X169146997Y-112667593D01*
X169146997Y-112606407D01*
X169171148Y-112566996D01*
X169180045Y-112558099D01*
X169248188Y-112456115D01*
X169275854Y-112414712D01*
X169275859Y-112414703D01*
X169341855Y-112255374D01*
X169375500Y-112086229D01*
X169375500Y-111913771D01*
X169341855Y-111744626D01*
X169312554Y-111673886D01*
X169275860Y-111585299D01*
X169275854Y-111585287D01*
X169220893Y-111503034D01*
X169180045Y-111441901D01*
X169058099Y-111319955D01*
X169052500Y-111316214D01*
X169014622Y-111268165D01*
X169012220Y-111207027D01*
X169046213Y-111156153D01*
X169103617Y-111134976D01*
X169107503Y-111134900D01*
X169892497Y-111134900D01*
X169950688Y-111153807D01*
X169986652Y-111203307D01*
X169986652Y-111264493D01*
X169950688Y-111313993D01*
X169947515Y-111316203D01*
X169941902Y-111319954D01*
X169941901Y-111319955D01*
X169941897Y-111319958D01*
X169819958Y-111441897D01*
X169819955Y-111441901D01*
X169724145Y-111585287D01*
X169724139Y-111585299D01*
X169658145Y-111744624D01*
X169658145Y-111744626D01*
X169624500Y-111913768D01*
X169624500Y-112086231D01*
X169658145Y-112255373D01*
X169658145Y-112255375D01*
X169724139Y-112414700D01*
X169724145Y-112414712D01*
X169792660Y-112517249D01*
X169819955Y-112558099D01*
X169941901Y-112680045D01*
X169990032Y-112712205D01*
X170085287Y-112775854D01*
X170085299Y-112775860D01*
X170144153Y-112800238D01*
X170244626Y-112841855D01*
X170413771Y-112875500D01*
X170413772Y-112875500D01*
X170586228Y-112875500D01*
X170586229Y-112875500D01*
X170755374Y-112841855D01*
X170914705Y-112775858D01*
X170914707Y-112775856D01*
X170914712Y-112775854D01*
X170968397Y-112739982D01*
X171058099Y-112680045D01*
X171180045Y-112558099D01*
X171248188Y-112456115D01*
X171275854Y-112414712D01*
X171275859Y-112414703D01*
X171341855Y-112255374D01*
X171375500Y-112086229D01*
X171375500Y-111913771D01*
X171341855Y-111744626D01*
X171312554Y-111673886D01*
X171275860Y-111585299D01*
X171275854Y-111585287D01*
X171220893Y-111503034D01*
X171180045Y-111441901D01*
X171058099Y-111319955D01*
X171049176Y-111313993D01*
X171013430Y-111290108D01*
X170975551Y-111242058D01*
X170973149Y-111180919D01*
X171007142Y-111130046D01*
X171030547Y-111116329D01*
X171046560Y-111109696D01*
X171082744Y-111094708D01*
X171595208Y-110582244D01*
X171605209Y-110558099D01*
X171635400Y-110485213D01*
X171635400Y-108818887D01*
X171633296Y-108813808D01*
X171619375Y-108780200D01*
X171614151Y-108767587D01*
X171595209Y-108721856D01*
X171467053Y-108593700D01*
X171326205Y-108452851D01*
X171298428Y-108398335D01*
X171304744Y-108344966D01*
X171341855Y-108255374D01*
X171375500Y-108086229D01*
X171375500Y-107913771D01*
X171341855Y-107744626D01*
X171286500Y-107610987D01*
X171275860Y-107585299D01*
X171275854Y-107585287D01*
X171220893Y-107503034D01*
X171180045Y-107441901D01*
X171058099Y-107319955D01*
X171002322Y-107282686D01*
X170914712Y-107224145D01*
X170914700Y-107224139D01*
X170755374Y-107158145D01*
X170586231Y-107124500D01*
X170586229Y-107124500D01*
X170413771Y-107124500D01*
X170413768Y-107124500D01*
X170244626Y-107158145D01*
X170244624Y-107158145D01*
X170085299Y-107224139D01*
X170085287Y-107224145D01*
X169941901Y-107319955D01*
X169941897Y-107319958D01*
X169819958Y-107441897D01*
X169819955Y-107441901D01*
X169724145Y-107585287D01*
X169724139Y-107585299D01*
X169658145Y-107744624D01*
X169658145Y-107744626D01*
X169624500Y-107913768D01*
X169624500Y-108086231D01*
X169658145Y-108255373D01*
X169658145Y-108255375D01*
X169690868Y-108334375D01*
X169695669Y-108395371D01*
X169663699Y-108447540D01*
X169607171Y-108470955D01*
X169568674Y-108464858D01*
X169568454Y-108465681D01*
X169562187Y-108464001D01*
X169562186Y-108464001D01*
X169447609Y-108433300D01*
X169416319Y-108433300D01*
X169358128Y-108414393D01*
X169322164Y-108364893D01*
X169322164Y-108303707D01*
X169324849Y-108296429D01*
X169341855Y-108255374D01*
X169375500Y-108086229D01*
X169375500Y-107913771D01*
X169341855Y-107744626D01*
X169286500Y-107610987D01*
X169275860Y-107585299D01*
X169275854Y-107585287D01*
X169220893Y-107503034D01*
X169180045Y-107441901D01*
X169058099Y-107319955D01*
X169002322Y-107282686D01*
X168914712Y-107224145D01*
X168914700Y-107224139D01*
X168755374Y-107158145D01*
X168586231Y-107124500D01*
X168586229Y-107124500D01*
X168413771Y-107124500D01*
X168413768Y-107124500D01*
X168244627Y-107158144D01*
X168155034Y-107195254D01*
X168094037Y-107200053D01*
X168047146Y-107173793D01*
X167561996Y-106688643D01*
X167534219Y-106634126D01*
X167533000Y-106618639D01*
X167533000Y-106450954D01*
X167551907Y-106392763D01*
X167601407Y-106356799D01*
X167662593Y-106356799D01*
X167712093Y-106392763D01*
X167723465Y-106413070D01*
X167724142Y-106414705D01*
X167724145Y-106414712D01*
X167792660Y-106517249D01*
X167819955Y-106558099D01*
X167941901Y-106680045D01*
X167996440Y-106716487D01*
X168085287Y-106775854D01*
X168085299Y-106775860D01*
X168144153Y-106800238D01*
X168244626Y-106841855D01*
X168413771Y-106875500D01*
X168413772Y-106875500D01*
X168586228Y-106875500D01*
X168586229Y-106875500D01*
X168755374Y-106841855D01*
X168914705Y-106775858D01*
X168914707Y-106775856D01*
X168914712Y-106775854D01*
X168970829Y-106738357D01*
X169058099Y-106680045D01*
X169180045Y-106558099D01*
X169273976Y-106417522D01*
X169275854Y-106414712D01*
X169275860Y-106414700D01*
X169302314Y-106350834D01*
X169341855Y-106255374D01*
X169375500Y-106086229D01*
X169375500Y-105913771D01*
X169341855Y-105744626D01*
X169279527Y-105594153D01*
X169275860Y-105585299D01*
X169275854Y-105585287D01*
X169209687Y-105486264D01*
X169180045Y-105441901D01*
X169058099Y-105319955D01*
X169002322Y-105282686D01*
X168914712Y-105224145D01*
X168914700Y-105224139D01*
X168755374Y-105158145D01*
X168586231Y-105124500D01*
X168586229Y-105124500D01*
X168413771Y-105124500D01*
X168413768Y-105124500D01*
X168244627Y-105158144D01*
X168215914Y-105170037D01*
X168154917Y-105174835D01*
X168108028Y-105148575D01*
X167580966Y-104621513D01*
X165982453Y-103023001D01*
X165954678Y-102968487D01*
X165964249Y-102908055D01*
X166007514Y-102864790D01*
X166052459Y-102854000D01*
X166518425Y-102854000D01*
X166576616Y-102872907D01*
X166612580Y-102922407D01*
X166614051Y-102978621D01*
X166600100Y-103030691D01*
X166600100Y-103149309D01*
X166626461Y-103247690D01*
X166630802Y-103263890D01*
X166690107Y-103366608D01*
X166690109Y-103366610D01*
X166690111Y-103366613D01*
X166773987Y-103450489D01*
X166773989Y-103450490D01*
X166773991Y-103450492D01*
X166876710Y-103509797D01*
X166876711Y-103509797D01*
X166876714Y-103509799D01*
X166991291Y-103540500D01*
X166991293Y-103540500D01*
X167109907Y-103540500D01*
X167109909Y-103540500D01*
X167224486Y-103509799D01*
X167224488Y-103509797D01*
X167224490Y-103509797D01*
X167327208Y-103450492D01*
X167327208Y-103450491D01*
X167327213Y-103450489D01*
X167411089Y-103366613D01*
X167413402Y-103362605D01*
X167458867Y-103321663D01*
X167519716Y-103315263D01*
X167569145Y-103342097D01*
X167703200Y-103476152D01*
X167730977Y-103530669D01*
X167724660Y-103584041D01*
X167658145Y-103744624D01*
X167658145Y-103744626D01*
X167624500Y-103913768D01*
X167624500Y-104086231D01*
X167658145Y-104255373D01*
X167658145Y-104255375D01*
X167724139Y-104414700D01*
X167724145Y-104414712D01*
X167792660Y-104517249D01*
X167819955Y-104558099D01*
X167941901Y-104680045D01*
X167982248Y-104707004D01*
X168085287Y-104775854D01*
X168085299Y-104775860D01*
X168144153Y-104800238D01*
X168244626Y-104841855D01*
X168413771Y-104875500D01*
X168413772Y-104875500D01*
X168586228Y-104875500D01*
X168586229Y-104875500D01*
X168755374Y-104841855D01*
X168914705Y-104775858D01*
X168914707Y-104775856D01*
X168914712Y-104775854D01*
X168970829Y-104738357D01*
X169058099Y-104680045D01*
X169180045Y-104558099D01*
X169270712Y-104422407D01*
X169275854Y-104414712D01*
X169275860Y-104414700D01*
X169302401Y-104350625D01*
X169341855Y-104255374D01*
X169375500Y-104086229D01*
X169375500Y-103913771D01*
X169375499Y-103913768D01*
X169624500Y-103913768D01*
X169624500Y-104086231D01*
X169658145Y-104255373D01*
X169658145Y-104255375D01*
X169724139Y-104414700D01*
X169724145Y-104414712D01*
X169792660Y-104517249D01*
X169819955Y-104558099D01*
X169941901Y-104680045D01*
X169982248Y-104707004D01*
X170085287Y-104775854D01*
X170085299Y-104775860D01*
X170144153Y-104800238D01*
X170244626Y-104841855D01*
X170413771Y-104875500D01*
X170413772Y-104875500D01*
X170586228Y-104875500D01*
X170586229Y-104875500D01*
X170755374Y-104841855D01*
X170834927Y-104808902D01*
X170895923Y-104804102D01*
X170948092Y-104836072D01*
X170971507Y-104892600D01*
X170971812Y-104900367D01*
X170971812Y-104913402D01*
X170964500Y-104940691D01*
X170964500Y-105059309D01*
X170971812Y-105086597D01*
X170971812Y-105099632D01*
X170966188Y-105116939D01*
X170965236Y-105135112D01*
X170956966Y-105145324D01*
X170952905Y-105157823D01*
X170938181Y-105168520D01*
X170926730Y-105182661D01*
X170914038Y-105186061D01*
X170903405Y-105193787D01*
X170885204Y-105193787D01*
X170867629Y-105198496D01*
X170846819Y-105193787D01*
X170842219Y-105193787D01*
X170840138Y-105192275D01*
X170834927Y-105191096D01*
X170755374Y-105158145D01*
X170586231Y-105124500D01*
X170586229Y-105124500D01*
X170413771Y-105124500D01*
X170413768Y-105124500D01*
X170244626Y-105158145D01*
X170244624Y-105158145D01*
X170085299Y-105224139D01*
X170085287Y-105224145D01*
X169941901Y-105319955D01*
X169941897Y-105319958D01*
X169819958Y-105441897D01*
X169819955Y-105441901D01*
X169724145Y-105585287D01*
X169724139Y-105585299D01*
X169658145Y-105744624D01*
X169658145Y-105744626D01*
X169624500Y-105913768D01*
X169624500Y-106086231D01*
X169636863Y-106148384D01*
X169649459Y-106211709D01*
X169658145Y-106255373D01*
X169658145Y-106255375D01*
X169724139Y-106414700D01*
X169724145Y-106414712D01*
X169792660Y-106517249D01*
X169819955Y-106558099D01*
X169941901Y-106680045D01*
X169996440Y-106716487D01*
X170085287Y-106775854D01*
X170085299Y-106775860D01*
X170144153Y-106800238D01*
X170244626Y-106841855D01*
X170413771Y-106875500D01*
X170413772Y-106875500D01*
X170586228Y-106875500D01*
X170586229Y-106875500D01*
X170755374Y-106841855D01*
X170914705Y-106775858D01*
X170914707Y-106775856D01*
X170914712Y-106775854D01*
X170970829Y-106738357D01*
X171058099Y-106680045D01*
X171180045Y-106558099D01*
X171273976Y-106417522D01*
X171275854Y-106414712D01*
X171275860Y-106414700D01*
X171302314Y-106350834D01*
X171341855Y-106255374D01*
X171375500Y-106086229D01*
X171375500Y-105913771D01*
X171341855Y-105744626D01*
X171279527Y-105594153D01*
X171276724Y-105587385D01*
X171271923Y-105526389D01*
X171303893Y-105474220D01*
X171360421Y-105450805D01*
X171368188Y-105450500D01*
X171474307Y-105450500D01*
X171474309Y-105450500D01*
X171588886Y-105419799D01*
X171588888Y-105419797D01*
X171588890Y-105419797D01*
X171691608Y-105360492D01*
X171691608Y-105360491D01*
X171691613Y-105360489D01*
X171775489Y-105276613D01*
X171776542Y-105274790D01*
X171834797Y-105173890D01*
X171834797Y-105173888D01*
X171834799Y-105173886D01*
X171865500Y-105059309D01*
X171865500Y-104940691D01*
X171834799Y-104826114D01*
X171834797Y-104826111D01*
X171834797Y-104826109D01*
X171775492Y-104723391D01*
X171775490Y-104723389D01*
X171775489Y-104723387D01*
X171691613Y-104639511D01*
X171691610Y-104639509D01*
X171691608Y-104639507D01*
X171588889Y-104580202D01*
X171588890Y-104580202D01*
X171575351Y-104576574D01*
X171474309Y-104549500D01*
X171368188Y-104549500D01*
X171309997Y-104530593D01*
X171274033Y-104481093D01*
X171274033Y-104419907D01*
X171276724Y-104412615D01*
X171317651Y-104313808D01*
X171341855Y-104255374D01*
X171375500Y-104086229D01*
X171375500Y-103913771D01*
X171341855Y-103744626D01*
X171305873Y-103657758D01*
X171275860Y-103585299D01*
X171275854Y-103585287D01*
X171220893Y-103503034D01*
X171180045Y-103441901D01*
X171058099Y-103319955D01*
X171002322Y-103282686D01*
X170914712Y-103224145D01*
X170914700Y-103224139D01*
X170755374Y-103158145D01*
X170586231Y-103124500D01*
X170586229Y-103124500D01*
X170413771Y-103124500D01*
X170413768Y-103124500D01*
X170244626Y-103158145D01*
X170244624Y-103158145D01*
X170085299Y-103224139D01*
X170085287Y-103224145D01*
X169941901Y-103319955D01*
X169941897Y-103319958D01*
X169819958Y-103441897D01*
X169819955Y-103441901D01*
X169724145Y-103585287D01*
X169724139Y-103585299D01*
X169658145Y-103744624D01*
X169658145Y-103744626D01*
X169624500Y-103913768D01*
X169375499Y-103913768D01*
X169341855Y-103744626D01*
X169305873Y-103657758D01*
X169275860Y-103585299D01*
X169275854Y-103585287D01*
X169220893Y-103503034D01*
X169180045Y-103441901D01*
X169058099Y-103319955D01*
X169002322Y-103282686D01*
X168914712Y-103224145D01*
X168914700Y-103224139D01*
X168755374Y-103158145D01*
X168586231Y-103124500D01*
X168586229Y-103124500D01*
X168413771Y-103124500D01*
X168413768Y-103124500D01*
X168244626Y-103158145D01*
X168244621Y-103158146D01*
X168226023Y-103165849D01*
X168165026Y-103170646D01*
X168118139Y-103144387D01*
X167731245Y-102757493D01*
X167339944Y-102366192D01*
X167339942Y-102366191D01*
X167339941Y-102366190D01*
X167277217Y-102340209D01*
X167242913Y-102326000D01*
X167242912Y-102326000D01*
X152392557Y-102326000D01*
X152334366Y-102307093D01*
X152314014Y-102287266D01*
X152310502Y-102282689D01*
X152310501Y-102282688D01*
X152310500Y-102282686D01*
X152264620Y-102236806D01*
X152236845Y-102182292D01*
X152246416Y-102121860D01*
X152281673Y-102086602D01*
X152280124Y-102084284D01*
X152288231Y-102078867D01*
X152354552Y-102034552D01*
X152398867Y-101968231D01*
X152410500Y-101909748D01*
X152410500Y-101270252D01*
X152398867Y-101211769D01*
X152354552Y-101145448D01*
X152354548Y-101145445D01*
X152288233Y-101101134D01*
X152288231Y-101101133D01*
X152288228Y-101101132D01*
X152288227Y-101101132D01*
X152229758Y-101089501D01*
X152229748Y-101089500D01*
X151590252Y-101089500D01*
X151590251Y-101089500D01*
X151590241Y-101089501D01*
X151531772Y-101101132D01*
X151531766Y-101101134D01*
X151465451Y-101145445D01*
X151465445Y-101145451D01*
X151415716Y-101219876D01*
X151412378Y-101217645D01*
X151384877Y-101249812D01*
X151325375Y-101264064D01*
X151268859Y-101240619D01*
X151263203Y-101235389D01*
X151217314Y-101189500D01*
X151217311Y-101189498D01*
X151217309Y-101189496D01*
X151103189Y-101123609D01*
X151103191Y-101123609D01*
X151042853Y-101107442D01*
X150975892Y-101089500D01*
X150844108Y-101089500D01*
X150777147Y-101107442D01*
X150716809Y-101123609D01*
X150602690Y-101189496D01*
X150509498Y-101282688D01*
X150495736Y-101306525D01*
X150450266Y-101347465D01*
X150389416Y-101353860D01*
X150336428Y-101323267D01*
X150324264Y-101306525D01*
X150310501Y-101282688D01*
X150310500Y-101282686D01*
X150217314Y-101189500D01*
X150217311Y-101189498D01*
X150217309Y-101189496D01*
X150103189Y-101123609D01*
X150103191Y-101123609D01*
X150042853Y-101107442D01*
X149975892Y-101089500D01*
X149844108Y-101089500D01*
X149798621Y-101101687D01*
X149737521Y-101098485D01*
X149689971Y-101059980D01*
X149674000Y-101006061D01*
X149674000Y-100440359D01*
X149692907Y-100382168D01*
X149702997Y-100370355D01*
X149780357Y-100292996D01*
X149834874Y-100265219D01*
X149850360Y-100264000D01*
X150473340Y-100264000D01*
X150531531Y-100282907D01*
X150543344Y-100292996D01*
X150655592Y-100405244D01*
X150655591Y-100405244D01*
X150697637Y-100447289D01*
X150729856Y-100479508D01*
X150826887Y-100519700D01*
X166605340Y-100519700D01*
X166663531Y-100538607D01*
X166675344Y-100548696D01*
X167673793Y-101547146D01*
X167701570Y-101601663D01*
X167695254Y-101655034D01*
X167658144Y-101744627D01*
X167624500Y-101913768D01*
X167624500Y-102086231D01*
X167658145Y-102255373D01*
X167658145Y-102255375D01*
X167724139Y-102414700D01*
X167724145Y-102414712D01*
X167792660Y-102517249D01*
X167819955Y-102558099D01*
X167941901Y-102680045D01*
X168003034Y-102720893D01*
X168085287Y-102775854D01*
X168085299Y-102775860D01*
X168144153Y-102800238D01*
X168244626Y-102841855D01*
X168413771Y-102875500D01*
X168413772Y-102875500D01*
X168586228Y-102875500D01*
X168586229Y-102875500D01*
X168755374Y-102841855D01*
X168914705Y-102775858D01*
X168914707Y-102775856D01*
X168914712Y-102775854D01*
X168971061Y-102738202D01*
X169058099Y-102680045D01*
X169180045Y-102558099D01*
X169270712Y-102422407D01*
X169275854Y-102414712D01*
X169275860Y-102414700D01*
X169293171Y-102372907D01*
X169341855Y-102255374D01*
X169375500Y-102086229D01*
X169375500Y-101913771D01*
X169375499Y-101913768D01*
X169624500Y-101913768D01*
X169624500Y-102086231D01*
X169658145Y-102255373D01*
X169658145Y-102255375D01*
X169724139Y-102414700D01*
X169724145Y-102414712D01*
X169792660Y-102517249D01*
X169819955Y-102558099D01*
X169941901Y-102680045D01*
X170003034Y-102720893D01*
X170085287Y-102775854D01*
X170085299Y-102775860D01*
X170144153Y-102800238D01*
X170244626Y-102841855D01*
X170413771Y-102875500D01*
X170413772Y-102875500D01*
X170586228Y-102875500D01*
X170586229Y-102875500D01*
X170755374Y-102841855D01*
X170914705Y-102775858D01*
X170914707Y-102775856D01*
X170914712Y-102775854D01*
X170971061Y-102738202D01*
X171058099Y-102680045D01*
X171180045Y-102558099D01*
X171270712Y-102422407D01*
X171275854Y-102414712D01*
X171275860Y-102414700D01*
X171293171Y-102372907D01*
X171341855Y-102255374D01*
X171375500Y-102086229D01*
X171375500Y-101913771D01*
X171341855Y-101744626D01*
X171275858Y-101585295D01*
X171275854Y-101585287D01*
X171220893Y-101503034D01*
X171180045Y-101441901D01*
X171058099Y-101319955D01*
X171002322Y-101282686D01*
X170914712Y-101224145D01*
X170914700Y-101224139D01*
X170755374Y-101158145D01*
X170586231Y-101124500D01*
X170586229Y-101124500D01*
X170413771Y-101124500D01*
X170413768Y-101124500D01*
X170244626Y-101158145D01*
X170244624Y-101158145D01*
X170085299Y-101224139D01*
X170085287Y-101224145D01*
X169941901Y-101319955D01*
X169941897Y-101319958D01*
X169819958Y-101441897D01*
X169819955Y-101441901D01*
X169724145Y-101585287D01*
X169724139Y-101585299D01*
X169658145Y-101744624D01*
X169658145Y-101744626D01*
X169624500Y-101913768D01*
X169375499Y-101913768D01*
X169341855Y-101744626D01*
X169275858Y-101585295D01*
X169275854Y-101585287D01*
X169220893Y-101503034D01*
X169180045Y-101441901D01*
X169058099Y-101319955D01*
X169002322Y-101282686D01*
X168914712Y-101224145D01*
X168914700Y-101224139D01*
X168755374Y-101158145D01*
X168586231Y-101124500D01*
X168586229Y-101124500D01*
X168413771Y-101124500D01*
X168413768Y-101124500D01*
X168244627Y-101158144D01*
X168155034Y-101195254D01*
X168094037Y-101200053D01*
X168047146Y-101173793D01*
X167693350Y-100819997D01*
X167306355Y-100433003D01*
X167278579Y-100378487D01*
X167288150Y-100318055D01*
X167331415Y-100274790D01*
X167376360Y-100264000D01*
X167595568Y-100264000D01*
X167653759Y-100282907D01*
X167687032Y-100325114D01*
X167724141Y-100414703D01*
X167724145Y-100414712D01*
X167783243Y-100503156D01*
X167819955Y-100558099D01*
X167941901Y-100680045D01*
X168003034Y-100720893D01*
X168085287Y-100775854D01*
X168085299Y-100775860D01*
X168100526Y-100782167D01*
X168244626Y-100841855D01*
X168413771Y-100875500D01*
X168413772Y-100875500D01*
X168586228Y-100875500D01*
X168586229Y-100875500D01*
X168755374Y-100841855D01*
X168914705Y-100775858D01*
X168914707Y-100775856D01*
X168914712Y-100775854D01*
X168956115Y-100748188D01*
X169058099Y-100680045D01*
X169180045Y-100558099D01*
X169263631Y-100433004D01*
X169275854Y-100414712D01*
X169275859Y-100414703D01*
X169341855Y-100255374D01*
X169375500Y-100086229D01*
X169375500Y-99913771D01*
X169341855Y-99744626D01*
X169282638Y-99601663D01*
X169275860Y-99585299D01*
X169275854Y-99585288D01*
X169215459Y-99494902D01*
X169198850Y-99436014D01*
X169220027Y-99378610D01*
X169270901Y-99344617D01*
X169297774Y-99340900D01*
X169426541Y-99340900D01*
X169484732Y-99359807D01*
X169496545Y-99369897D01*
X169673794Y-99547147D01*
X169701571Y-99601663D01*
X169695254Y-99655035D01*
X169658145Y-99744624D01*
X169658145Y-99744626D01*
X169624500Y-99913768D01*
X169624500Y-100086231D01*
X169636410Y-100146107D01*
X169657405Y-100251656D01*
X169658145Y-100255373D01*
X169658145Y-100255375D01*
X169724139Y-100414700D01*
X169724145Y-100414712D01*
X169783243Y-100503156D01*
X169819955Y-100558099D01*
X169941901Y-100680045D01*
X170003034Y-100720893D01*
X170085287Y-100775854D01*
X170085299Y-100775860D01*
X170100526Y-100782167D01*
X170244626Y-100841855D01*
X170413771Y-100875500D01*
X170413772Y-100875500D01*
X170586228Y-100875500D01*
X170586229Y-100875500D01*
X170755374Y-100841855D01*
X170914705Y-100775858D01*
X170914707Y-100775856D01*
X170914712Y-100775854D01*
X170956115Y-100748188D01*
X171058099Y-100680045D01*
X171180045Y-100558099D01*
X171263631Y-100433004D01*
X171275854Y-100414712D01*
X171275859Y-100414703D01*
X171341855Y-100255374D01*
X171375500Y-100086229D01*
X171375500Y-99913771D01*
X171341855Y-99744626D01*
X171282638Y-99601663D01*
X171275860Y-99585299D01*
X171275854Y-99585287D01*
X171215459Y-99494902D01*
X171180045Y-99441901D01*
X171058099Y-99319955D01*
X171017249Y-99292660D01*
X170914712Y-99224145D01*
X170914700Y-99224139D01*
X170755374Y-99158145D01*
X170586231Y-99124500D01*
X170586229Y-99124500D01*
X170413771Y-99124500D01*
X170413768Y-99124500D01*
X170244626Y-99158145D01*
X170244624Y-99158145D01*
X170155035Y-99195254D01*
X170094038Y-99200054D01*
X170047147Y-99173794D01*
X169726443Y-98853091D01*
X169642092Y-98818152D01*
X169629413Y-98812900D01*
X169629412Y-98812900D01*
X169164252Y-98812900D01*
X169106061Y-98793993D01*
X169070097Y-98744493D01*
X169070097Y-98683307D01*
X169094248Y-98643896D01*
X169098758Y-98639386D01*
X169180045Y-98558099D01*
X169248188Y-98456115D01*
X169275854Y-98414712D01*
X169275860Y-98414700D01*
X169279385Y-98406191D01*
X169341855Y-98255374D01*
X169375500Y-98086229D01*
X169375500Y-97913771D01*
X169341855Y-97744626D01*
X169319856Y-97691515D01*
X169275860Y-97585299D01*
X169275854Y-97585288D01*
X169247599Y-97543002D01*
X169230990Y-97484114D01*
X169252167Y-97426710D01*
X169303041Y-97392717D01*
X169329914Y-97389000D01*
X169474641Y-97389000D01*
X169532832Y-97407907D01*
X169544637Y-97417989D01*
X169673795Y-97547148D01*
X169701571Y-97601662D01*
X169695255Y-97655032D01*
X169695101Y-97655405D01*
X169658144Y-97744629D01*
X169624500Y-97913768D01*
X169624500Y-98086231D01*
X169658145Y-98255373D01*
X169658145Y-98255375D01*
X169724139Y-98414700D01*
X169724145Y-98414712D01*
X169792660Y-98517249D01*
X169819955Y-98558099D01*
X169941901Y-98680045D01*
X169968324Y-98697700D01*
X170085287Y-98775854D01*
X170085299Y-98775860D01*
X170129077Y-98793993D01*
X170244626Y-98841855D01*
X170413771Y-98875500D01*
X170413772Y-98875500D01*
X170586228Y-98875500D01*
X170586229Y-98875500D01*
X170755374Y-98841855D01*
X170914705Y-98775858D01*
X170914707Y-98775856D01*
X170914712Y-98775854D01*
X170980847Y-98731663D01*
X171058099Y-98680045D01*
X171180045Y-98558099D01*
X171248188Y-98456115D01*
X171275854Y-98414712D01*
X171275860Y-98414700D01*
X171279385Y-98406191D01*
X171341855Y-98255374D01*
X171375500Y-98086229D01*
X171375500Y-97913771D01*
X171341855Y-97744626D01*
X171319856Y-97691515D01*
X171275860Y-97585299D01*
X171275854Y-97585287D01*
X171208251Y-97484114D01*
X171180045Y-97441901D01*
X171058099Y-97319955D01*
X171017249Y-97292660D01*
X170914712Y-97224145D01*
X170914700Y-97224139D01*
X170755374Y-97158145D01*
X170586231Y-97124500D01*
X170586229Y-97124500D01*
X170413771Y-97124500D01*
X170413768Y-97124500D01*
X170244626Y-97158145D01*
X170244624Y-97158145D01*
X170155035Y-97195254D01*
X170094038Y-97200054D01*
X170047147Y-97173794D01*
X169774543Y-96901191D01*
X169712516Y-96875499D01*
X169677513Y-96861000D01*
X169677512Y-96861000D01*
X169113639Y-96861000D01*
X169055448Y-96842093D01*
X169019484Y-96792593D01*
X169019484Y-96731407D01*
X169054463Y-96683262D01*
X169054348Y-96683122D01*
X169054885Y-96682680D01*
X169055448Y-96681907D01*
X169057973Y-96680147D01*
X169058089Y-96680051D01*
X169058099Y-96680045D01*
X169180045Y-96558099D01*
X169248188Y-96456115D01*
X169275854Y-96414712D01*
X169275860Y-96414700D01*
X169341855Y-96255374D01*
X169375500Y-96086229D01*
X169375500Y-95913771D01*
X169375499Y-95913768D01*
X169624500Y-95913768D01*
X169624500Y-96086231D01*
X169658145Y-96255373D01*
X169658145Y-96255375D01*
X169724139Y-96414700D01*
X169724145Y-96414712D01*
X169792660Y-96517249D01*
X169819955Y-96558099D01*
X169941901Y-96680045D01*
X170003034Y-96720893D01*
X170085287Y-96775854D01*
X170085299Y-96775860D01*
X170116716Y-96788873D01*
X170244626Y-96841855D01*
X170413771Y-96875500D01*
X170413772Y-96875500D01*
X170586228Y-96875500D01*
X170586229Y-96875500D01*
X170755374Y-96841855D01*
X170914705Y-96775858D01*
X170914707Y-96775856D01*
X170914712Y-96775854D01*
X170981230Y-96731407D01*
X171058099Y-96680045D01*
X171180045Y-96558099D01*
X171248188Y-96456115D01*
X171275854Y-96414712D01*
X171275860Y-96414700D01*
X171341855Y-96255374D01*
X171375500Y-96086229D01*
X171375500Y-95913771D01*
X171341855Y-95744626D01*
X171275858Y-95585295D01*
X171275854Y-95585287D01*
X171220893Y-95503034D01*
X171180045Y-95441901D01*
X171058099Y-95319955D01*
X171017249Y-95292660D01*
X170914712Y-95224145D01*
X170914700Y-95224139D01*
X170755374Y-95158145D01*
X170586231Y-95124500D01*
X170586229Y-95124500D01*
X170413771Y-95124500D01*
X170413768Y-95124500D01*
X170244626Y-95158145D01*
X170244624Y-95158145D01*
X170085299Y-95224139D01*
X170085287Y-95224145D01*
X169941901Y-95319955D01*
X169941897Y-95319958D01*
X169819958Y-95441897D01*
X169819955Y-95441901D01*
X169724145Y-95585287D01*
X169724139Y-95585299D01*
X169658145Y-95744624D01*
X169658145Y-95744626D01*
X169624500Y-95913768D01*
X169375499Y-95913768D01*
X169341855Y-95744626D01*
X169275858Y-95585295D01*
X169275854Y-95585287D01*
X169220893Y-95503034D01*
X169180045Y-95441901D01*
X169058099Y-95319955D01*
X169017249Y-95292660D01*
X168914712Y-95224145D01*
X168914700Y-95224139D01*
X168755374Y-95158145D01*
X168586231Y-95124500D01*
X168586229Y-95124500D01*
X168413771Y-95124500D01*
X168413768Y-95124500D01*
X168244626Y-95158145D01*
X168244624Y-95158145D01*
X168085299Y-95224139D01*
X168085287Y-95224145D01*
X167941901Y-95319955D01*
X167941897Y-95319958D01*
X167819958Y-95441897D01*
X167819955Y-95441901D01*
X167724145Y-95585287D01*
X167724139Y-95585299D01*
X167658145Y-95744624D01*
X167658145Y-95744626D01*
X167624500Y-95913768D01*
X167624500Y-96086231D01*
X167658145Y-96255373D01*
X167658145Y-96255375D01*
X167724139Y-96414700D01*
X167724145Y-96414712D01*
X167792660Y-96517249D01*
X167819955Y-96558099D01*
X167941901Y-96680045D01*
X167941905Y-96680048D01*
X167945652Y-96683122D01*
X167944846Y-96684103D01*
X167979242Y-96727735D01*
X167981644Y-96788873D01*
X167947651Y-96839747D01*
X167890247Y-96860924D01*
X167886361Y-96861000D01*
X165656312Y-96861000D01*
X165551287Y-96861000D01*
X165525943Y-96871497D01*
X165454258Y-96901190D01*
X164182944Y-98172504D01*
X164128427Y-98200281D01*
X164112940Y-98201500D01*
X156278446Y-98201500D01*
X156220255Y-98182593D01*
X156184291Y-98133093D01*
X156184291Y-98071907D01*
X156220255Y-98022408D01*
X156314640Y-97953832D01*
X156314646Y-97953828D01*
X156453828Y-97814646D01*
X156569524Y-97655405D01*
X156658884Y-97480025D01*
X156719709Y-97292826D01*
X156730587Y-97224145D01*
X156750500Y-97098420D01*
X156750500Y-96901579D01*
X156719710Y-96707178D01*
X156719709Y-96707174D01*
X156658884Y-96519975D01*
X156569524Y-96344595D01*
X156453828Y-96185354D01*
X156314646Y-96046172D01*
X156155405Y-95930476D01*
X156155404Y-95930475D01*
X156155402Y-95930474D01*
X155980025Y-95841116D01*
X155792821Y-95780289D01*
X155598420Y-95749500D01*
X155598417Y-95749500D01*
X155401583Y-95749500D01*
X155401580Y-95749500D01*
X155207178Y-95780289D01*
X155019974Y-95841116D01*
X154844597Y-95930474D01*
X154685355Y-96046171D01*
X154546171Y-96185355D01*
X154430474Y-96344597D01*
X154341116Y-96519974D01*
X154280289Y-96707178D01*
X154249500Y-96901579D01*
X154249500Y-97098420D01*
X154280289Y-97292821D01*
X154341116Y-97480025D01*
X154430286Y-97655034D01*
X154430476Y-97655405D01*
X154546172Y-97814646D01*
X154685354Y-97953828D01*
X154685357Y-97953830D01*
X154685359Y-97953832D01*
X154779745Y-98022408D01*
X154815709Y-98071908D01*
X154815708Y-98133093D01*
X154779744Y-98182593D01*
X154721554Y-98201500D01*
X142409909Y-98201500D01*
X142351718Y-98182593D01*
X142339911Y-98172509D01*
X142272413Y-98105011D01*
X142272410Y-98105009D01*
X142272408Y-98105007D01*
X142169689Y-98045702D01*
X142169690Y-98045702D01*
X142156151Y-98042074D01*
X142055109Y-98015000D01*
X141936491Y-98015000D01*
X141866367Y-98033789D01*
X141821909Y-98045702D01*
X141719191Y-98105007D01*
X141635307Y-98188891D01*
X141576002Y-98291609D01*
X141576001Y-98291614D01*
X141545300Y-98406191D01*
X141545300Y-98524809D01*
X141554220Y-98558098D01*
X141576002Y-98639390D01*
X141609668Y-98697700D01*
X141622390Y-98757548D01*
X141597504Y-98813444D01*
X141544516Y-98844037D01*
X141523932Y-98846200D01*
X129442312Y-98846200D01*
X129337287Y-98846200D01*
X129308867Y-98857971D01*
X129240256Y-98886391D01*
X128952852Y-99173794D01*
X128898336Y-99201571D01*
X128844964Y-99195254D01*
X128755374Y-99158145D01*
X128586231Y-99124500D01*
X128586229Y-99124500D01*
X128413771Y-99124500D01*
X128413768Y-99124500D01*
X128244626Y-99158145D01*
X128244624Y-99158145D01*
X128085299Y-99224139D01*
X128085287Y-99224145D01*
X127941901Y-99319955D01*
X127941897Y-99319958D01*
X127819958Y-99441897D01*
X127819955Y-99441901D01*
X127724145Y-99585287D01*
X127724139Y-99585299D01*
X127658145Y-99744624D01*
X127658145Y-99744626D01*
X127624500Y-99913768D01*
X127624500Y-100086231D01*
X127636410Y-100146107D01*
X127657405Y-100251656D01*
X127658145Y-100255373D01*
X127658145Y-100255375D01*
X127724139Y-100414700D01*
X127724145Y-100414712D01*
X127783243Y-100503156D01*
X127819955Y-100558099D01*
X127941901Y-100680045D01*
X128003034Y-100720893D01*
X128085287Y-100775854D01*
X128085299Y-100775860D01*
X128100526Y-100782167D01*
X128244626Y-100841855D01*
X128413771Y-100875500D01*
X128413772Y-100875500D01*
X128586228Y-100875500D01*
X128586229Y-100875500D01*
X128755374Y-100841855D01*
X128914705Y-100775858D01*
X128914707Y-100775856D01*
X128914712Y-100775854D01*
X128956115Y-100748188D01*
X129058099Y-100680045D01*
X129180045Y-100558099D01*
X129263631Y-100433004D01*
X129275854Y-100414712D01*
X129275859Y-100414703D01*
X129341855Y-100255374D01*
X129341855Y-100255371D01*
X129343262Y-100251976D01*
X129382998Y-100205450D01*
X129442493Y-100191166D01*
X129499021Y-100214580D01*
X129524868Y-100255543D01*
X129526919Y-100254694D01*
X129529402Y-100260689D01*
X129588707Y-100363408D01*
X129588709Y-100363410D01*
X129588711Y-100363413D01*
X129672587Y-100447289D01*
X129672589Y-100447290D01*
X129672591Y-100447292D01*
X129775310Y-100506597D01*
X129775311Y-100506597D01*
X129775314Y-100506599D01*
X129889891Y-100537300D01*
X129889893Y-100537300D01*
X130008507Y-100537300D01*
X130008509Y-100537300D01*
X130123086Y-100506599D01*
X130123088Y-100506597D01*
X130123090Y-100506597D01*
X130225808Y-100447292D01*
X130225808Y-100447291D01*
X130225813Y-100447289D01*
X130309689Y-100363413D01*
X130368999Y-100260686D01*
X130399700Y-100146109D01*
X130399700Y-100027491D01*
X130368999Y-99912914D01*
X130368997Y-99912911D01*
X130368997Y-99912909D01*
X130309692Y-99810191D01*
X130309690Y-99810189D01*
X130309689Y-99810187D01*
X130225813Y-99726311D01*
X130225810Y-99726309D01*
X130225808Y-99726307D01*
X130123089Y-99667002D01*
X130123090Y-99667002D01*
X130109551Y-99663374D01*
X130008509Y-99636300D01*
X129889891Y-99636300D01*
X129819975Y-99655034D01*
X129775309Y-99667002D01*
X129672591Y-99726307D01*
X129588709Y-99810189D01*
X129546327Y-99883596D01*
X129500857Y-99924536D01*
X129440007Y-99930931D01*
X129387019Y-99900338D01*
X129363493Y-99853409D01*
X129341855Y-99744626D01*
X129304744Y-99655033D01*
X129299944Y-99594038D01*
X129326206Y-99547145D01*
X129470156Y-99403196D01*
X129524672Y-99375419D01*
X129540159Y-99374200D01*
X146613440Y-99374200D01*
X146671631Y-99393107D01*
X146707595Y-99442607D01*
X146707595Y-99503793D01*
X146683444Y-99543204D01*
X145760456Y-100466192D01*
X145760455Y-100466191D01*
X145686191Y-100540456D01*
X145646000Y-100637487D01*
X145646000Y-101107442D01*
X145627093Y-101165633D01*
X145607271Y-101185981D01*
X145602692Y-101189494D01*
X145509498Y-101282688D01*
X145495736Y-101306525D01*
X145450266Y-101347465D01*
X145389416Y-101353860D01*
X145336428Y-101323267D01*
X145324264Y-101306525D01*
X145310501Y-101282688D01*
X145310500Y-101282686D01*
X145217314Y-101189500D01*
X145217311Y-101189498D01*
X145217309Y-101189496D01*
X145103189Y-101123609D01*
X145103191Y-101123609D01*
X145042853Y-101107442D01*
X144975892Y-101089500D01*
X144844108Y-101089500D01*
X144777147Y-101107442D01*
X144716809Y-101123609D01*
X144602690Y-101189496D01*
X144509496Y-101282690D01*
X144443609Y-101396809D01*
X144443608Y-101396814D01*
X144409500Y-101524108D01*
X144409500Y-101655892D01*
X144421688Y-101701377D01*
X144418485Y-101762479D01*
X144379980Y-101810029D01*
X144326061Y-101826000D01*
X141422212Y-101826000D01*
X141317187Y-101826000D01*
X141301413Y-101832534D01*
X141220158Y-101866190D01*
X140289444Y-102796904D01*
X140234927Y-102824681D01*
X140219440Y-102825900D01*
X129151252Y-102825900D01*
X129093061Y-102806993D01*
X129057097Y-102757493D01*
X129057097Y-102696307D01*
X129081248Y-102656896D01*
X129113334Y-102624810D01*
X129180045Y-102558099D01*
X129270712Y-102422407D01*
X129275854Y-102414712D01*
X129275860Y-102414700D01*
X129293171Y-102372907D01*
X129341855Y-102255374D01*
X129375500Y-102086229D01*
X129375500Y-101913771D01*
X129341855Y-101744626D01*
X129275858Y-101585295D01*
X129275854Y-101585287D01*
X129220893Y-101503034D01*
X129180045Y-101441901D01*
X129058099Y-101319955D01*
X129002322Y-101282686D01*
X128914712Y-101224145D01*
X128914700Y-101224139D01*
X128755374Y-101158145D01*
X128586231Y-101124500D01*
X128586229Y-101124500D01*
X128413771Y-101124500D01*
X128413768Y-101124500D01*
X128244626Y-101158145D01*
X128244624Y-101158145D01*
X128085299Y-101224139D01*
X128085287Y-101224145D01*
X127941901Y-101319955D01*
X127941897Y-101319958D01*
X127819958Y-101441897D01*
X127819955Y-101441901D01*
X127724145Y-101585287D01*
X127724139Y-101585299D01*
X127658145Y-101744624D01*
X127658145Y-101744626D01*
X127624500Y-101913768D01*
X127624500Y-102086231D01*
X127658145Y-102255373D01*
X127658145Y-102255375D01*
X127724139Y-102414700D01*
X127724145Y-102414712D01*
X127792660Y-102517249D01*
X127819955Y-102558099D01*
X127819958Y-102558102D01*
X127918752Y-102656896D01*
X127946529Y-102711413D01*
X127936958Y-102771845D01*
X127893693Y-102815110D01*
X127848748Y-102825900D01*
X127357586Y-102825900D01*
X127338514Y-102833800D01*
X127260558Y-102866089D01*
X127260552Y-102866093D01*
X126952851Y-103173794D01*
X126898335Y-103201571D01*
X126844964Y-103195254D01*
X126768476Y-103163572D01*
X126755372Y-103158144D01*
X126586231Y-103124500D01*
X126586229Y-103124500D01*
X126413771Y-103124500D01*
X126413768Y-103124500D01*
X126244626Y-103158145D01*
X126244624Y-103158145D01*
X126085299Y-103224139D01*
X126085287Y-103224145D01*
X125941901Y-103319955D01*
X125941897Y-103319958D01*
X125819958Y-103441897D01*
X125819955Y-103441901D01*
X125724145Y-103585287D01*
X125724139Y-103585299D01*
X125658145Y-103744624D01*
X125658145Y-103744626D01*
X125624500Y-103913768D01*
X125624500Y-104086231D01*
X125658145Y-104255373D01*
X125658145Y-104255375D01*
X125724139Y-104414700D01*
X125724145Y-104414712D01*
X125792660Y-104517249D01*
X125819955Y-104558099D01*
X125941901Y-104680045D01*
X125982248Y-104707004D01*
X126085287Y-104775854D01*
X126085299Y-104775860D01*
X126144153Y-104800238D01*
X126244626Y-104841855D01*
X126413771Y-104875500D01*
X126413772Y-104875500D01*
X126586228Y-104875500D01*
X126586229Y-104875500D01*
X126755374Y-104841855D01*
X126914705Y-104775858D01*
X126914707Y-104775856D01*
X126914712Y-104775854D01*
X126970829Y-104738357D01*
X127058099Y-104680045D01*
X127180045Y-104558099D01*
X127270712Y-104422407D01*
X127275854Y-104414712D01*
X127275860Y-104414700D01*
X127302401Y-104350625D01*
X127341855Y-104255374D01*
X127375500Y-104086229D01*
X127375500Y-103913771D01*
X127341855Y-103744626D01*
X127305873Y-103657758D01*
X127304745Y-103655034D01*
X127299944Y-103594038D01*
X127326204Y-103547147D01*
X127490457Y-103382896D01*
X127544974Y-103355119D01*
X127560460Y-103353900D01*
X127693539Y-103353900D01*
X127751730Y-103372807D01*
X127787694Y-103422307D01*
X127787694Y-103483493D01*
X127775854Y-103507902D01*
X127724145Y-103585287D01*
X127724139Y-103585299D01*
X127658145Y-103744624D01*
X127658145Y-103744626D01*
X127624500Y-103913768D01*
X127624500Y-104086231D01*
X127658145Y-104255373D01*
X127658145Y-104255375D01*
X127724139Y-104414700D01*
X127724145Y-104414712D01*
X127792660Y-104517249D01*
X127819955Y-104558099D01*
X127819958Y-104558102D01*
X127828852Y-104566996D01*
X127856629Y-104621513D01*
X127847058Y-104681945D01*
X127803793Y-104725210D01*
X127758848Y-104736000D01*
X127447487Y-104736000D01*
X127419063Y-104747772D01*
X127419062Y-104747771D01*
X127350460Y-104776189D01*
X127350458Y-104776190D01*
X127350456Y-104776191D01*
X127350454Y-104776192D01*
X127350452Y-104776194D01*
X126952852Y-105173794D01*
X126898336Y-105201571D01*
X126844964Y-105195254D01*
X126755374Y-105158145D01*
X126586231Y-105124500D01*
X126586229Y-105124500D01*
X126413771Y-105124500D01*
X126413768Y-105124500D01*
X126244626Y-105158145D01*
X126244624Y-105158145D01*
X126085299Y-105224139D01*
X126085287Y-105224145D01*
X125941901Y-105319955D01*
X125941897Y-105319958D01*
X125819958Y-105441897D01*
X125819955Y-105441901D01*
X125724145Y-105585287D01*
X125724139Y-105585299D01*
X125658145Y-105744624D01*
X125658145Y-105744626D01*
X125624500Y-105913768D01*
X125624500Y-106086231D01*
X125636863Y-106148384D01*
X125649459Y-106211709D01*
X125658145Y-106255373D01*
X125658145Y-106255375D01*
X125724139Y-106414700D01*
X125724145Y-106414712D01*
X125792660Y-106517249D01*
X125819955Y-106558099D01*
X125941901Y-106680045D01*
X125996440Y-106716487D01*
X126085287Y-106775854D01*
X126085299Y-106775860D01*
X126144153Y-106800238D01*
X126244626Y-106841855D01*
X126413771Y-106875500D01*
X126413772Y-106875500D01*
X126586228Y-106875500D01*
X126586229Y-106875500D01*
X126755374Y-106841855D01*
X126914705Y-106775858D01*
X126914707Y-106775856D01*
X126914712Y-106775854D01*
X126970829Y-106738357D01*
X127058099Y-106680045D01*
X127180045Y-106558099D01*
X127273976Y-106417522D01*
X127275854Y-106414712D01*
X127275860Y-106414700D01*
X127302314Y-106350834D01*
X127341855Y-106255374D01*
X127375500Y-106086229D01*
X127375500Y-105913771D01*
X127341855Y-105744626D01*
X127304745Y-105655034D01*
X127299944Y-105594038D01*
X127326204Y-105547147D01*
X127580357Y-105292996D01*
X127634873Y-105265219D01*
X127650360Y-105264000D01*
X127758848Y-105264000D01*
X127817039Y-105282907D01*
X127853003Y-105332407D01*
X127853003Y-105393593D01*
X127828852Y-105433004D01*
X127819958Y-105441897D01*
X127819955Y-105441901D01*
X127724145Y-105585287D01*
X127724139Y-105585299D01*
X127658145Y-105744624D01*
X127658145Y-105744626D01*
X127624500Y-105913768D01*
X127624500Y-106086231D01*
X127636863Y-106148384D01*
X127649459Y-106211709D01*
X127658145Y-106255373D01*
X127658145Y-106255375D01*
X127724139Y-106414700D01*
X127724145Y-106414712D01*
X127792660Y-106517249D01*
X127819955Y-106558099D01*
X127819958Y-106558102D01*
X127828852Y-106566996D01*
X127856629Y-106621513D01*
X127847058Y-106681945D01*
X127803793Y-106725210D01*
X127758848Y-106736000D01*
X127447487Y-106736000D01*
X127419063Y-106747772D01*
X127419062Y-106747771D01*
X127350460Y-106776189D01*
X127350458Y-106776190D01*
X127350456Y-106776191D01*
X127350454Y-106776192D01*
X127350452Y-106776194D01*
X126952852Y-107173794D01*
X126898336Y-107201571D01*
X126844964Y-107195254D01*
X126755374Y-107158145D01*
X126586231Y-107124500D01*
X126586229Y-107124500D01*
X126413771Y-107124500D01*
X126413768Y-107124500D01*
X126244626Y-107158145D01*
X126244624Y-107158145D01*
X126085299Y-107224139D01*
X126085287Y-107224145D01*
X125941901Y-107319955D01*
X125941897Y-107319958D01*
X125819958Y-107441897D01*
X125819955Y-107441901D01*
X125724145Y-107585287D01*
X125724139Y-107585299D01*
X125658145Y-107744624D01*
X125658145Y-107744626D01*
X125624500Y-107913768D01*
X125624500Y-108086231D01*
X125658145Y-108255373D01*
X125658145Y-108255375D01*
X125724139Y-108414700D01*
X125724145Y-108414712D01*
X125783242Y-108503154D01*
X125819955Y-108558099D01*
X125941901Y-108680045D01*
X125982248Y-108707004D01*
X126085287Y-108775854D01*
X126085299Y-108775860D01*
X126106081Y-108784468D01*
X126244626Y-108841855D01*
X126413771Y-108875500D01*
X126413772Y-108875500D01*
X126586228Y-108875500D01*
X126586229Y-108875500D01*
X126755374Y-108841855D01*
X126893918Y-108784467D01*
X126954914Y-108779667D01*
X127007083Y-108811637D01*
X127030498Y-108868164D01*
X127027430Y-108901555D01*
X127005100Y-108984892D01*
X127005100Y-109109998D01*
X127003008Y-109109998D01*
X126993571Y-109160870D01*
X126949182Y-109202981D01*
X126888519Y-109210957D01*
X126868691Y-109205082D01*
X126755374Y-109158145D01*
X126586231Y-109124500D01*
X126586229Y-109124500D01*
X126413771Y-109124500D01*
X126413768Y-109124500D01*
X126244626Y-109158145D01*
X126244624Y-109158145D01*
X126085299Y-109224139D01*
X126085287Y-109224145D01*
X125941901Y-109319955D01*
X125941897Y-109319958D01*
X125819958Y-109441897D01*
X125819955Y-109441901D01*
X125724145Y-109585287D01*
X125724139Y-109585299D01*
X125658145Y-109744624D01*
X125658145Y-109744626D01*
X125624500Y-109913768D01*
X125624500Y-110086231D01*
X125658145Y-110255373D01*
X125658145Y-110255375D01*
X125724139Y-110414700D01*
X125724145Y-110414712D01*
X125792660Y-110517249D01*
X125819955Y-110558099D01*
X125941901Y-110680045D01*
X126003034Y-110720893D01*
X126085287Y-110775854D01*
X126085299Y-110775860D01*
X126144153Y-110800238D01*
X126244626Y-110841855D01*
X126413771Y-110875500D01*
X126413772Y-110875500D01*
X126586228Y-110875500D01*
X126586229Y-110875500D01*
X126755374Y-110841855D01*
X126914705Y-110775858D01*
X126914707Y-110775856D01*
X126914712Y-110775854D01*
X126967183Y-110740793D01*
X127058099Y-110680045D01*
X127180045Y-110558099D01*
X127268378Y-110425900D01*
X127275854Y-110414712D01*
X127275860Y-110414700D01*
X127337910Y-110264897D01*
X127341855Y-110255374D01*
X127375500Y-110086229D01*
X127375500Y-109913771D01*
X127341855Y-109744626D01*
X127294840Y-109631123D01*
X127290040Y-109570128D01*
X127322010Y-109517959D01*
X127378538Y-109494544D01*
X127389802Y-109494839D01*
X127389802Y-109494700D01*
X127514908Y-109494700D01*
X127514909Y-109494700D01*
X127598562Y-109472285D01*
X127659663Y-109475486D01*
X127707213Y-109513991D01*
X127723049Y-109573091D01*
X127715649Y-109605796D01*
X127658145Y-109744624D01*
X127658145Y-109744626D01*
X127624500Y-109913768D01*
X127624500Y-110086231D01*
X127658145Y-110255373D01*
X127658145Y-110255375D01*
X127724139Y-110414700D01*
X127724145Y-110414712D01*
X127792660Y-110517249D01*
X127819955Y-110558099D01*
X127941901Y-110680045D01*
X128003034Y-110720893D01*
X128085287Y-110775854D01*
X128085299Y-110775860D01*
X128144153Y-110800238D01*
X128244626Y-110841855D01*
X128413771Y-110875500D01*
X128413772Y-110875500D01*
X128586228Y-110875500D01*
X128586229Y-110875500D01*
X128755374Y-110841855D01*
X128914705Y-110775858D01*
X128914707Y-110775856D01*
X128914712Y-110775854D01*
X128967183Y-110740793D01*
X129058099Y-110680045D01*
X129180045Y-110558099D01*
X129268378Y-110425900D01*
X129275854Y-110414712D01*
X129275860Y-110414700D01*
X129337910Y-110264897D01*
X129341855Y-110255374D01*
X129375500Y-110086229D01*
X129375500Y-109913771D01*
X129341855Y-109744626D01*
X129309366Y-109666190D01*
X129275860Y-109585299D01*
X129275854Y-109585288D01*
X129228214Y-109513991D01*
X129193608Y-109462200D01*
X129177000Y-109403314D01*
X129198177Y-109345910D01*
X129249050Y-109311917D01*
X129275924Y-109308200D01*
X132139038Y-109308200D01*
X132197229Y-109327107D01*
X132233193Y-109376607D01*
X132233193Y-109437793D01*
X132209042Y-109477204D01*
X129544504Y-112141742D01*
X129489987Y-112169519D01*
X129429555Y-112159948D01*
X129386290Y-112116683D01*
X129375500Y-112071738D01*
X129375500Y-111913772D01*
X129375499Y-111913768D01*
X129364902Y-111860492D01*
X129341855Y-111744626D01*
X129312554Y-111673886D01*
X129275860Y-111585299D01*
X129275854Y-111585287D01*
X129220893Y-111503034D01*
X129180045Y-111441901D01*
X129058099Y-111319955D01*
X129012257Y-111289324D01*
X128914712Y-111224145D01*
X128914700Y-111224139D01*
X128755374Y-111158145D01*
X128586231Y-111124500D01*
X128586229Y-111124500D01*
X128413771Y-111124500D01*
X128413768Y-111124500D01*
X128244626Y-111158145D01*
X128244624Y-111158145D01*
X128085299Y-111224139D01*
X128085287Y-111224145D01*
X127941901Y-111319955D01*
X127941897Y-111319958D01*
X127819958Y-111441897D01*
X127819955Y-111441901D01*
X127724145Y-111585287D01*
X127724139Y-111585299D01*
X127658145Y-111744624D01*
X127658145Y-111744626D01*
X127624500Y-111913768D01*
X127624500Y-112086231D01*
X127658145Y-112255373D01*
X127658145Y-112255375D01*
X127724139Y-112414700D01*
X127724145Y-112414712D01*
X127792660Y-112517249D01*
X127819955Y-112558099D01*
X127819958Y-112558102D01*
X127828852Y-112566996D01*
X127856629Y-112621513D01*
X127847058Y-112681945D01*
X127803793Y-112725210D01*
X127758848Y-112736000D01*
X127447487Y-112736000D01*
X127419063Y-112747772D01*
X127419062Y-112747771D01*
X127350460Y-112776189D01*
X127350458Y-112776190D01*
X127350456Y-112776191D01*
X127350454Y-112776192D01*
X127350452Y-112776194D01*
X126952852Y-113173794D01*
X126898336Y-113201571D01*
X126844964Y-113195254D01*
X126755374Y-113158145D01*
X126586231Y-113124500D01*
X126586229Y-113124500D01*
X126413771Y-113124500D01*
X126413768Y-113124500D01*
X126244626Y-113158145D01*
X126244624Y-113158145D01*
X126085299Y-113224139D01*
X126085287Y-113224145D01*
X125941901Y-113319955D01*
X125941897Y-113319958D01*
X125819958Y-113441897D01*
X125819955Y-113441901D01*
X125724145Y-113585287D01*
X125724139Y-113585299D01*
X125658145Y-113744624D01*
X125658145Y-113744626D01*
X125624500Y-113913768D01*
X125624500Y-114086231D01*
X125658145Y-114255373D01*
X125658145Y-114255375D01*
X125724139Y-114414700D01*
X125724145Y-114414712D01*
X125792660Y-114517249D01*
X125819955Y-114558099D01*
X125941901Y-114680045D01*
X125995102Y-114715593D01*
X126085287Y-114775854D01*
X126085299Y-114775860D01*
X126144153Y-114800238D01*
X126244626Y-114841855D01*
X126413771Y-114875500D01*
X126413772Y-114875500D01*
X126586228Y-114875500D01*
X126586229Y-114875500D01*
X126755374Y-114841855D01*
X126914705Y-114775858D01*
X126914707Y-114775856D01*
X126914712Y-114775854D01*
X126976601Y-114734500D01*
X127058099Y-114680045D01*
X127180045Y-114558099D01*
X127248188Y-114456115D01*
X127275854Y-114414712D01*
X127275860Y-114414700D01*
X127341855Y-114255374D01*
X127375500Y-114086229D01*
X127375500Y-113913771D01*
X127341855Y-113744626D01*
X127324188Y-113701974D01*
X127304745Y-113655034D01*
X127299944Y-113594038D01*
X127326204Y-113547147D01*
X127580357Y-113292996D01*
X127634873Y-113265219D01*
X127650360Y-113264000D01*
X127758848Y-113264000D01*
X127817039Y-113282907D01*
X127853003Y-113332407D01*
X127853003Y-113393593D01*
X127828852Y-113433004D01*
X127819958Y-113441897D01*
X127819955Y-113441901D01*
X127724145Y-113585287D01*
X127724139Y-113585299D01*
X127658145Y-113744624D01*
X127658145Y-113744626D01*
X127624500Y-113913768D01*
X127624500Y-114086231D01*
X127658145Y-114255373D01*
X127658145Y-114255375D01*
X127724139Y-114414700D01*
X127724145Y-114414712D01*
X127792660Y-114517249D01*
X127819955Y-114558099D01*
X127819958Y-114558102D01*
X127827352Y-114565496D01*
X127855129Y-114620013D01*
X127845558Y-114680445D01*
X127802293Y-114723710D01*
X127757348Y-114734500D01*
X127448987Y-114734500D01*
X127421190Y-114746014D01*
X127421189Y-114746014D01*
X127351958Y-114774689D01*
X127351952Y-114774693D01*
X126952851Y-115173794D01*
X126898335Y-115201571D01*
X126844964Y-115195254D01*
X126755374Y-115158145D01*
X126755372Y-115158144D01*
X126586231Y-115124500D01*
X126586229Y-115124500D01*
X126413771Y-115124500D01*
X126413768Y-115124500D01*
X126244626Y-115158145D01*
X126244624Y-115158145D01*
X126085299Y-115224139D01*
X126085287Y-115224145D01*
X125941901Y-115319955D01*
X125941897Y-115319958D01*
X125819958Y-115441897D01*
X125819955Y-115441901D01*
X125724145Y-115585287D01*
X125724139Y-115585299D01*
X125658145Y-115744624D01*
X125658145Y-115744626D01*
X125624500Y-115913768D01*
X125624500Y-116086231D01*
X125658145Y-116255373D01*
X125658145Y-116255375D01*
X125724139Y-116414700D01*
X125724145Y-116414712D01*
X125792660Y-116517249D01*
X125819955Y-116558099D01*
X125941901Y-116680045D01*
X126003034Y-116720893D01*
X126085287Y-116775854D01*
X126085299Y-116775860D01*
X126144153Y-116800238D01*
X126244626Y-116841855D01*
X126413771Y-116875500D01*
X126413772Y-116875500D01*
X126586228Y-116875500D01*
X126586229Y-116875500D01*
X126755374Y-116841855D01*
X126914705Y-116775858D01*
X126914707Y-116775856D01*
X126914712Y-116775854D01*
X126956115Y-116748188D01*
X127058099Y-116680045D01*
X127180045Y-116558099D01*
X127248188Y-116456115D01*
X127275854Y-116414712D01*
X127275859Y-116414703D01*
X127341855Y-116255374D01*
X127375500Y-116086229D01*
X127375500Y-115913771D01*
X127341855Y-115744626D01*
X127304745Y-115655034D01*
X127299944Y-115594038D01*
X127326204Y-115547147D01*
X127581857Y-115291496D01*
X127636373Y-115263719D01*
X127651860Y-115262500D01*
X127760348Y-115262500D01*
X127818539Y-115281407D01*
X127854503Y-115330907D01*
X127854503Y-115392093D01*
X127830352Y-115431504D01*
X127819958Y-115441897D01*
X127819955Y-115441901D01*
X127724145Y-115585287D01*
X127724139Y-115585299D01*
X127658145Y-115744624D01*
X127658145Y-115744626D01*
X127624500Y-115913768D01*
X127624500Y-116086231D01*
X127658145Y-116255373D01*
X127658145Y-116255375D01*
X127724139Y-116414700D01*
X127724145Y-116414712D01*
X127792660Y-116517249D01*
X127819955Y-116558099D01*
X127941901Y-116680045D01*
X128003034Y-116720893D01*
X128085287Y-116775854D01*
X128085299Y-116775860D01*
X128144153Y-116800238D01*
X128244626Y-116841855D01*
X128413771Y-116875500D01*
X128413772Y-116875500D01*
X128586228Y-116875500D01*
X128586229Y-116875500D01*
X128755374Y-116841855D01*
X128914705Y-116775858D01*
X128914707Y-116775856D01*
X128914712Y-116775854D01*
X128956115Y-116748188D01*
X129058099Y-116680045D01*
X129180045Y-116558099D01*
X129248188Y-116456115D01*
X129275854Y-116414712D01*
X129275855Y-116414708D01*
X129275858Y-116414705D01*
X129312968Y-116325114D01*
X129352705Y-116278589D01*
X129404432Y-116264000D01*
X130769512Y-116264000D01*
X130769513Y-116264000D01*
X130866544Y-116223808D01*
X136139226Y-110951124D01*
X136193741Y-110923349D01*
X136254173Y-110932920D01*
X136285911Y-110963012D01*
X136288060Y-110961364D01*
X136292008Y-110966509D01*
X136292009Y-110966510D01*
X136292011Y-110966513D01*
X136375887Y-111050389D01*
X136375889Y-111050390D01*
X136375891Y-111050392D01*
X136478608Y-111109696D01*
X136478609Y-111109696D01*
X136478614Y-111109699D01*
X136530843Y-111123693D01*
X136582156Y-111157018D01*
X136604082Y-111214139D01*
X136588246Y-111273240D01*
X136575222Y-111289324D01*
X130157544Y-117707004D01*
X130103027Y-117734781D01*
X130087540Y-117736000D01*
X129404432Y-117736000D01*
X129346241Y-117717093D01*
X129312968Y-117674886D01*
X129295290Y-117632209D01*
X129275858Y-117585295D01*
X129275856Y-117585293D01*
X129275854Y-117585287D01*
X129220893Y-117503034D01*
X129180045Y-117441901D01*
X129058099Y-117319955D01*
X129017249Y-117292660D01*
X128914712Y-117224145D01*
X128914700Y-117224139D01*
X128755374Y-117158145D01*
X128586231Y-117124500D01*
X128586229Y-117124500D01*
X128413771Y-117124500D01*
X128413768Y-117124500D01*
X128244626Y-117158145D01*
X128244624Y-117158145D01*
X128085299Y-117224139D01*
X128085287Y-117224145D01*
X127941901Y-117319955D01*
X127941897Y-117319958D01*
X127819958Y-117441897D01*
X127819955Y-117441901D01*
X127724145Y-117585287D01*
X127724139Y-117585299D01*
X127658145Y-117744624D01*
X127658145Y-117744626D01*
X127624500Y-117913768D01*
X127624500Y-118086231D01*
X127658145Y-118255373D01*
X127658145Y-118255375D01*
X127724139Y-118414700D01*
X127724145Y-118414712D01*
X127792660Y-118517249D01*
X127819955Y-118558099D01*
X127941901Y-118680045D01*
X127989276Y-118711700D01*
X127997036Y-118716885D01*
X128034915Y-118764935D01*
X128037317Y-118826073D01*
X128003324Y-118876947D01*
X127945920Y-118898124D01*
X127942034Y-118898200D01*
X127057966Y-118898200D01*
X126999775Y-118879293D01*
X126963811Y-118829793D01*
X126963811Y-118768607D01*
X126999775Y-118719107D01*
X127002964Y-118716885D01*
X127010724Y-118711700D01*
X127058099Y-118680045D01*
X127180045Y-118558099D01*
X127248188Y-118456115D01*
X127275854Y-118414712D01*
X127275859Y-118414703D01*
X127341855Y-118255374D01*
X127375500Y-118086229D01*
X127375500Y-117913771D01*
X127341855Y-117744626D01*
X127307429Y-117661513D01*
X127275860Y-117585299D01*
X127275854Y-117585287D01*
X127220893Y-117503034D01*
X127180045Y-117441901D01*
X127058099Y-117319955D01*
X127017249Y-117292660D01*
X126914712Y-117224145D01*
X126914700Y-117224139D01*
X126755374Y-117158145D01*
X126586231Y-117124500D01*
X126586229Y-117124500D01*
X126413771Y-117124500D01*
X126413768Y-117124500D01*
X126244626Y-117158145D01*
X126244624Y-117158145D01*
X126085299Y-117224139D01*
X126085287Y-117224145D01*
X125941901Y-117319955D01*
X125941897Y-117319958D01*
X125819958Y-117441897D01*
X125819955Y-117441901D01*
X125724145Y-117585287D01*
X125724139Y-117585299D01*
X125658145Y-117744624D01*
X125658145Y-117744626D01*
X125624500Y-117913768D01*
X125624500Y-118086231D01*
X125658145Y-118255373D01*
X125658145Y-118255375D01*
X125724139Y-118414700D01*
X125724145Y-118414712D01*
X125792794Y-118517450D01*
X125819955Y-118558099D01*
X125819957Y-118558101D01*
X125822485Y-118561182D01*
X125844783Y-118618160D01*
X125829331Y-118677362D01*
X125782032Y-118716175D01*
X125720952Y-118719774D01*
X125720333Y-118719610D01*
X125690811Y-118711700D01*
X125690809Y-118711700D01*
X125572191Y-118711700D01*
X125502067Y-118730489D01*
X125457609Y-118742402D01*
X125354891Y-118801707D01*
X125271007Y-118885591D01*
X125211702Y-118988309D01*
X125211701Y-118988314D01*
X125181000Y-119102891D01*
X123300500Y-119102891D01*
X123300500Y-111913768D01*
X125624500Y-111913768D01*
X125624500Y-112086231D01*
X125658145Y-112255373D01*
X125658145Y-112255375D01*
X125724139Y-112414700D01*
X125724145Y-112414712D01*
X125792660Y-112517249D01*
X125819955Y-112558099D01*
X125941901Y-112680045D01*
X125990032Y-112712205D01*
X126085287Y-112775854D01*
X126085299Y-112775860D01*
X126144153Y-112800238D01*
X126244626Y-112841855D01*
X126413771Y-112875500D01*
X126413772Y-112875500D01*
X126586228Y-112875500D01*
X126586229Y-112875500D01*
X126755374Y-112841855D01*
X126914705Y-112775858D01*
X126914707Y-112775856D01*
X126914712Y-112775854D01*
X126968397Y-112739982D01*
X127058099Y-112680045D01*
X127180045Y-112558099D01*
X127248188Y-112456115D01*
X127275854Y-112414712D01*
X127275859Y-112414703D01*
X127341855Y-112255374D01*
X127375500Y-112086229D01*
X127375500Y-111913771D01*
X127341855Y-111744626D01*
X127312554Y-111673886D01*
X127275860Y-111585299D01*
X127275854Y-111585287D01*
X127220893Y-111503034D01*
X127180045Y-111441901D01*
X127058099Y-111319955D01*
X127012257Y-111289324D01*
X126914712Y-111224145D01*
X126914700Y-111224139D01*
X126755374Y-111158145D01*
X126586231Y-111124500D01*
X126586229Y-111124500D01*
X126413771Y-111124500D01*
X126413768Y-111124500D01*
X126244626Y-111158145D01*
X126244624Y-111158145D01*
X126085299Y-111224139D01*
X126085287Y-111224145D01*
X125941901Y-111319955D01*
X125941897Y-111319958D01*
X125819958Y-111441897D01*
X125819955Y-111441901D01*
X125724145Y-111585287D01*
X125724139Y-111585299D01*
X125658145Y-111744624D01*
X125658145Y-111744626D01*
X125624500Y-111913768D01*
X123300500Y-111913768D01*
X123300500Y-101913768D01*
X125624500Y-101913768D01*
X125624500Y-102086231D01*
X125658145Y-102255373D01*
X125658145Y-102255375D01*
X125724139Y-102414700D01*
X125724145Y-102414712D01*
X125792660Y-102517249D01*
X125819955Y-102558099D01*
X125941901Y-102680045D01*
X126003034Y-102720893D01*
X126085287Y-102775854D01*
X126085299Y-102775860D01*
X126144153Y-102800238D01*
X126244626Y-102841855D01*
X126413771Y-102875500D01*
X126413772Y-102875500D01*
X126586228Y-102875500D01*
X126586229Y-102875500D01*
X126755374Y-102841855D01*
X126914705Y-102775858D01*
X126914707Y-102775856D01*
X126914712Y-102775854D01*
X126971061Y-102738202D01*
X127058099Y-102680045D01*
X127180045Y-102558099D01*
X127270712Y-102422407D01*
X127275854Y-102414712D01*
X127275860Y-102414700D01*
X127293171Y-102372907D01*
X127341855Y-102255374D01*
X127375500Y-102086229D01*
X127375500Y-101913771D01*
X127341855Y-101744626D01*
X127275858Y-101585295D01*
X127275854Y-101585287D01*
X127220893Y-101503034D01*
X127180045Y-101441901D01*
X127058099Y-101319955D01*
X127002322Y-101282686D01*
X126914712Y-101224145D01*
X126914700Y-101224139D01*
X126755374Y-101158145D01*
X126586231Y-101124500D01*
X126586229Y-101124500D01*
X126413771Y-101124500D01*
X126413768Y-101124500D01*
X126244626Y-101158145D01*
X126244624Y-101158145D01*
X126085299Y-101224139D01*
X126085287Y-101224145D01*
X125941901Y-101319955D01*
X125941897Y-101319958D01*
X125819958Y-101441897D01*
X125819955Y-101441901D01*
X125724145Y-101585287D01*
X125724139Y-101585299D01*
X125658145Y-101744624D01*
X125658145Y-101744626D01*
X125624500Y-101913768D01*
X123300500Y-101913768D01*
X123300500Y-99913768D01*
X125624500Y-99913768D01*
X125624500Y-100086231D01*
X125636410Y-100146107D01*
X125657405Y-100251656D01*
X125658145Y-100255373D01*
X125658145Y-100255375D01*
X125724139Y-100414700D01*
X125724145Y-100414712D01*
X125783243Y-100503156D01*
X125819955Y-100558099D01*
X125941901Y-100680045D01*
X126003034Y-100720893D01*
X126085287Y-100775854D01*
X126085299Y-100775860D01*
X126100526Y-100782167D01*
X126244626Y-100841855D01*
X126413771Y-100875500D01*
X126413772Y-100875500D01*
X126586228Y-100875500D01*
X126586229Y-100875500D01*
X126755374Y-100841855D01*
X126914705Y-100775858D01*
X126914707Y-100775856D01*
X126914712Y-100775854D01*
X126956115Y-100748188D01*
X127058099Y-100680045D01*
X127180045Y-100558099D01*
X127263631Y-100433004D01*
X127275854Y-100414712D01*
X127275859Y-100414703D01*
X127341855Y-100255374D01*
X127375500Y-100086229D01*
X127375500Y-99913771D01*
X127341855Y-99744626D01*
X127282638Y-99601663D01*
X127275860Y-99585299D01*
X127275854Y-99585287D01*
X127215459Y-99494902D01*
X127180045Y-99441901D01*
X127058099Y-99319955D01*
X127017249Y-99292660D01*
X126914712Y-99224145D01*
X126914700Y-99224139D01*
X126755374Y-99158145D01*
X126586231Y-99124500D01*
X126586229Y-99124500D01*
X126413771Y-99124500D01*
X126413768Y-99124500D01*
X126244626Y-99158145D01*
X126244624Y-99158145D01*
X126085299Y-99224139D01*
X126085287Y-99224145D01*
X125941901Y-99319955D01*
X125941897Y-99319958D01*
X125819958Y-99441897D01*
X125819955Y-99441901D01*
X125724145Y-99585287D01*
X125724139Y-99585299D01*
X125658145Y-99744624D01*
X125658145Y-99744626D01*
X125624500Y-99913768D01*
X123300500Y-99913768D01*
X123300500Y-97913768D01*
X125624500Y-97913768D01*
X125624500Y-98086231D01*
X125658145Y-98255373D01*
X125658145Y-98255375D01*
X125724139Y-98414700D01*
X125724145Y-98414712D01*
X125792660Y-98517249D01*
X125819955Y-98558099D01*
X125941901Y-98680045D01*
X125968324Y-98697700D01*
X126085287Y-98775854D01*
X126085299Y-98775860D01*
X126129077Y-98793993D01*
X126244626Y-98841855D01*
X126413771Y-98875500D01*
X126413772Y-98875500D01*
X126586228Y-98875500D01*
X126586229Y-98875500D01*
X126755374Y-98841855D01*
X126914705Y-98775858D01*
X126914707Y-98775856D01*
X126914712Y-98775854D01*
X126980847Y-98731663D01*
X127058099Y-98680045D01*
X127180045Y-98558099D01*
X127248188Y-98456115D01*
X127275854Y-98414712D01*
X127275860Y-98414700D01*
X127279385Y-98406191D01*
X127341855Y-98255374D01*
X127375500Y-98086229D01*
X127375500Y-97913771D01*
X127375499Y-97913768D01*
X127624500Y-97913768D01*
X127624500Y-98086231D01*
X127658145Y-98255373D01*
X127658145Y-98255375D01*
X127724139Y-98414700D01*
X127724145Y-98414712D01*
X127792660Y-98517249D01*
X127819955Y-98558099D01*
X127941901Y-98680045D01*
X127968324Y-98697700D01*
X128085287Y-98775854D01*
X128085299Y-98775860D01*
X128129077Y-98793993D01*
X128244626Y-98841855D01*
X128413771Y-98875500D01*
X128413772Y-98875500D01*
X128586228Y-98875500D01*
X128586229Y-98875500D01*
X128755374Y-98841855D01*
X128914705Y-98775858D01*
X128914707Y-98775856D01*
X128914712Y-98775854D01*
X128980847Y-98731663D01*
X129058099Y-98680045D01*
X129180045Y-98558099D01*
X129248188Y-98456115D01*
X129275854Y-98414712D01*
X129275860Y-98414700D01*
X129279385Y-98406191D01*
X129341855Y-98255374D01*
X129375500Y-98086229D01*
X129375500Y-97913771D01*
X129341855Y-97744626D01*
X129319856Y-97691515D01*
X129275860Y-97585299D01*
X129275854Y-97585287D01*
X129208251Y-97484114D01*
X129180045Y-97441901D01*
X129058099Y-97319955D01*
X129017249Y-97292660D01*
X128914712Y-97224145D01*
X128914700Y-97224139D01*
X128755374Y-97158145D01*
X128586231Y-97124500D01*
X128586229Y-97124500D01*
X128413771Y-97124500D01*
X128413768Y-97124500D01*
X128244626Y-97158145D01*
X128244624Y-97158145D01*
X128085299Y-97224139D01*
X128085287Y-97224145D01*
X127941901Y-97319955D01*
X127941897Y-97319958D01*
X127819958Y-97441897D01*
X127819955Y-97441901D01*
X127724145Y-97585287D01*
X127724139Y-97585299D01*
X127658145Y-97744624D01*
X127658145Y-97744626D01*
X127624500Y-97913768D01*
X127375499Y-97913768D01*
X127341855Y-97744626D01*
X127319856Y-97691515D01*
X127275860Y-97585299D01*
X127275854Y-97585287D01*
X127208251Y-97484114D01*
X127180045Y-97441901D01*
X127058099Y-97319955D01*
X127017249Y-97292660D01*
X126914712Y-97224145D01*
X126914700Y-97224139D01*
X126755374Y-97158145D01*
X126586231Y-97124500D01*
X126586229Y-97124500D01*
X126413771Y-97124500D01*
X126413768Y-97124500D01*
X126244626Y-97158145D01*
X126244624Y-97158145D01*
X126085299Y-97224139D01*
X126085287Y-97224145D01*
X125941901Y-97319955D01*
X125941897Y-97319958D01*
X125819958Y-97441897D01*
X125819955Y-97441901D01*
X125724145Y-97585287D01*
X125724139Y-97585299D01*
X125658145Y-97744624D01*
X125658145Y-97744626D01*
X125624500Y-97913768D01*
X123300500Y-97913768D01*
X123300500Y-96901579D01*
X139249500Y-96901579D01*
X139249500Y-97098420D01*
X139280289Y-97292821D01*
X139341116Y-97480025D01*
X139430286Y-97655034D01*
X139430476Y-97655405D01*
X139546172Y-97814646D01*
X139685354Y-97953828D01*
X139844595Y-98069524D01*
X140019975Y-98158884D01*
X140207174Y-98219709D01*
X140207175Y-98219709D01*
X140207178Y-98219710D01*
X140401580Y-98250500D01*
X140401583Y-98250500D01*
X140598420Y-98250500D01*
X140792821Y-98219710D01*
X140792822Y-98219709D01*
X140792826Y-98219709D01*
X140980025Y-98158884D01*
X141155405Y-98069524D01*
X141314646Y-97953828D01*
X141453828Y-97814646D01*
X141569524Y-97655405D01*
X141658884Y-97480025D01*
X141719709Y-97292826D01*
X141730587Y-97224145D01*
X141750500Y-97098420D01*
X141750500Y-96901579D01*
X141719710Y-96707178D01*
X141719709Y-96707174D01*
X141658884Y-96519975D01*
X141569524Y-96344595D01*
X141453828Y-96185354D01*
X141314646Y-96046172D01*
X141155405Y-95930476D01*
X141155404Y-95930475D01*
X141155402Y-95930474D01*
X140980025Y-95841116D01*
X140792821Y-95780289D01*
X140598420Y-95749500D01*
X140598417Y-95749500D01*
X140401583Y-95749500D01*
X140401580Y-95749500D01*
X140207178Y-95780289D01*
X140019974Y-95841116D01*
X139844597Y-95930474D01*
X139685355Y-96046171D01*
X139546171Y-96185355D01*
X139430474Y-96344597D01*
X139341116Y-96519974D01*
X139280289Y-96707178D01*
X139249500Y-96901579D01*
X123300500Y-96901579D01*
X123300500Y-95913768D01*
X125624500Y-95913768D01*
X125624500Y-96086231D01*
X125658145Y-96255373D01*
X125658145Y-96255375D01*
X125724139Y-96414700D01*
X125724145Y-96414712D01*
X125792660Y-96517249D01*
X125819955Y-96558099D01*
X125941901Y-96680045D01*
X126003034Y-96720893D01*
X126085287Y-96775854D01*
X126085299Y-96775860D01*
X126116716Y-96788873D01*
X126244626Y-96841855D01*
X126413771Y-96875500D01*
X126413772Y-96875500D01*
X126586228Y-96875500D01*
X126586229Y-96875500D01*
X126755374Y-96841855D01*
X126914705Y-96775858D01*
X126914707Y-96775856D01*
X126914712Y-96775854D01*
X126981230Y-96731407D01*
X127058099Y-96680045D01*
X127180045Y-96558099D01*
X127248188Y-96456115D01*
X127275854Y-96414712D01*
X127275860Y-96414700D01*
X127341855Y-96255374D01*
X127375500Y-96086229D01*
X127375500Y-95913771D01*
X127375499Y-95913768D01*
X127624500Y-95913768D01*
X127624500Y-96086231D01*
X127658145Y-96255373D01*
X127658145Y-96255375D01*
X127724139Y-96414700D01*
X127724145Y-96414712D01*
X127792660Y-96517249D01*
X127819955Y-96558099D01*
X127941901Y-96680045D01*
X128003034Y-96720893D01*
X128085287Y-96775854D01*
X128085299Y-96775860D01*
X128116716Y-96788873D01*
X128244626Y-96841855D01*
X128413771Y-96875500D01*
X128413772Y-96875500D01*
X128586228Y-96875500D01*
X128586229Y-96875500D01*
X128755374Y-96841855D01*
X128914705Y-96775858D01*
X128914707Y-96775856D01*
X128914712Y-96775854D01*
X128981230Y-96731407D01*
X129058099Y-96680045D01*
X129180045Y-96558099D01*
X129248188Y-96456115D01*
X129275854Y-96414712D01*
X129275860Y-96414700D01*
X129341855Y-96255374D01*
X129375500Y-96086229D01*
X129375500Y-95913771D01*
X129341855Y-95744626D01*
X129275858Y-95585295D01*
X129275854Y-95585287D01*
X129220893Y-95503034D01*
X129180045Y-95441901D01*
X129058099Y-95319955D01*
X129017249Y-95292660D01*
X128914712Y-95224145D01*
X128914700Y-95224139D01*
X128755374Y-95158145D01*
X128586231Y-95124500D01*
X128586229Y-95124500D01*
X128413771Y-95124500D01*
X128413768Y-95124500D01*
X128244626Y-95158145D01*
X128244624Y-95158145D01*
X128085299Y-95224139D01*
X128085287Y-95224145D01*
X127941901Y-95319955D01*
X127941897Y-95319958D01*
X127819958Y-95441897D01*
X127819955Y-95441901D01*
X127724145Y-95585287D01*
X127724139Y-95585299D01*
X127658145Y-95744624D01*
X127658145Y-95744626D01*
X127624500Y-95913768D01*
X127375499Y-95913768D01*
X127341855Y-95744626D01*
X127275858Y-95585295D01*
X127275854Y-95585287D01*
X127220893Y-95503034D01*
X127180045Y-95441901D01*
X127058099Y-95319955D01*
X127017249Y-95292660D01*
X126914712Y-95224145D01*
X126914700Y-95224139D01*
X126755374Y-95158145D01*
X126586231Y-95124500D01*
X126586229Y-95124500D01*
X126413771Y-95124500D01*
X126413768Y-95124500D01*
X126244626Y-95158145D01*
X126244624Y-95158145D01*
X126085299Y-95224139D01*
X126085287Y-95224145D01*
X125941901Y-95319955D01*
X125941897Y-95319958D01*
X125819958Y-95441897D01*
X125819955Y-95441901D01*
X125724145Y-95585287D01*
X125724139Y-95585299D01*
X125658145Y-95744624D01*
X125658145Y-95744626D01*
X125624500Y-95913768D01*
X123300500Y-95913768D01*
X123300500Y-93913768D01*
X125624500Y-93913768D01*
X125624500Y-94086231D01*
X125658145Y-94255373D01*
X125658145Y-94255375D01*
X125724139Y-94414700D01*
X125724145Y-94414712D01*
X125792660Y-94517249D01*
X125819955Y-94558099D01*
X125941901Y-94680045D01*
X126003034Y-94720893D01*
X126085287Y-94775854D01*
X126085299Y-94775860D01*
X126144153Y-94800238D01*
X126244626Y-94841855D01*
X126413771Y-94875500D01*
X126413772Y-94875500D01*
X126586228Y-94875500D01*
X126586229Y-94875500D01*
X126755374Y-94841855D01*
X126914705Y-94775858D01*
X126914707Y-94775856D01*
X126914712Y-94775854D01*
X126956115Y-94748188D01*
X127058099Y-94680045D01*
X127180045Y-94558099D01*
X127248188Y-94456115D01*
X127275854Y-94414712D01*
X127275860Y-94414700D01*
X127341855Y-94255374D01*
X127375500Y-94086229D01*
X127375500Y-93913771D01*
X127375499Y-93913768D01*
X127624500Y-93913768D01*
X127624500Y-94086231D01*
X127658145Y-94255373D01*
X127658145Y-94255375D01*
X127724139Y-94414700D01*
X127724145Y-94414712D01*
X127792660Y-94517249D01*
X127819955Y-94558099D01*
X127941901Y-94680045D01*
X128003034Y-94720893D01*
X128085287Y-94775854D01*
X128085299Y-94775860D01*
X128144153Y-94800238D01*
X128244626Y-94841855D01*
X128413771Y-94875500D01*
X128413772Y-94875500D01*
X128586228Y-94875500D01*
X128586229Y-94875500D01*
X128755374Y-94841855D01*
X128914705Y-94775858D01*
X128914707Y-94775856D01*
X128914712Y-94775854D01*
X128956115Y-94748188D01*
X129058099Y-94680045D01*
X129180045Y-94558099D01*
X129248188Y-94456115D01*
X129275854Y-94414712D01*
X129275860Y-94414700D01*
X129341855Y-94255374D01*
X129375500Y-94086229D01*
X129375500Y-93913771D01*
X129375499Y-93913768D01*
X167624500Y-93913768D01*
X167624500Y-94086231D01*
X167658145Y-94255373D01*
X167658145Y-94255375D01*
X167724139Y-94414700D01*
X167724145Y-94414712D01*
X167792660Y-94517249D01*
X167819955Y-94558099D01*
X167941901Y-94680045D01*
X168003034Y-94720893D01*
X168085287Y-94775854D01*
X168085299Y-94775860D01*
X168144153Y-94800238D01*
X168244626Y-94841855D01*
X168413771Y-94875500D01*
X168413772Y-94875500D01*
X168586228Y-94875500D01*
X168586229Y-94875500D01*
X168755374Y-94841855D01*
X168914705Y-94775858D01*
X168914707Y-94775856D01*
X168914712Y-94775854D01*
X168956115Y-94748188D01*
X169058099Y-94680045D01*
X169180045Y-94558099D01*
X169248188Y-94456115D01*
X169275854Y-94414712D01*
X169275860Y-94414700D01*
X169341855Y-94255374D01*
X169375500Y-94086229D01*
X169375500Y-93913771D01*
X169375499Y-93913768D01*
X169624500Y-93913768D01*
X169624500Y-94086231D01*
X169658145Y-94255373D01*
X169658145Y-94255375D01*
X169724139Y-94414700D01*
X169724145Y-94414712D01*
X169792660Y-94517249D01*
X169819955Y-94558099D01*
X169941901Y-94680045D01*
X170003034Y-94720893D01*
X170085287Y-94775854D01*
X170085299Y-94775860D01*
X170144153Y-94800238D01*
X170244626Y-94841855D01*
X170413771Y-94875500D01*
X170413772Y-94875500D01*
X170586228Y-94875500D01*
X170586229Y-94875500D01*
X170755374Y-94841855D01*
X170914705Y-94775858D01*
X170914707Y-94775856D01*
X170914712Y-94775854D01*
X170956115Y-94748188D01*
X171058099Y-94680045D01*
X171180045Y-94558099D01*
X171248188Y-94456115D01*
X171275854Y-94414712D01*
X171275860Y-94414700D01*
X171341855Y-94255374D01*
X171375500Y-94086229D01*
X171375500Y-93913771D01*
X171341855Y-93744626D01*
X171275858Y-93585295D01*
X171275854Y-93585287D01*
X171220893Y-93503034D01*
X171180045Y-93441901D01*
X171058099Y-93319955D01*
X171017249Y-93292660D01*
X170914712Y-93224145D01*
X170914700Y-93224139D01*
X170755374Y-93158145D01*
X170586231Y-93124500D01*
X170586229Y-93124500D01*
X170413771Y-93124500D01*
X170413768Y-93124500D01*
X170244626Y-93158145D01*
X170244624Y-93158145D01*
X170085299Y-93224139D01*
X170085287Y-93224145D01*
X169941901Y-93319955D01*
X169941897Y-93319958D01*
X169819958Y-93441897D01*
X169819955Y-93441901D01*
X169724145Y-93585287D01*
X169724139Y-93585299D01*
X169658145Y-93744624D01*
X169658145Y-93744626D01*
X169624500Y-93913768D01*
X169375499Y-93913768D01*
X169341855Y-93744626D01*
X169275858Y-93585295D01*
X169275854Y-93585287D01*
X169220893Y-93503034D01*
X169180045Y-93441901D01*
X169058099Y-93319955D01*
X169017249Y-93292660D01*
X168914712Y-93224145D01*
X168914700Y-93224139D01*
X168755374Y-93158145D01*
X168586231Y-93124500D01*
X168586229Y-93124500D01*
X168413771Y-93124500D01*
X168413768Y-93124500D01*
X168244626Y-93158145D01*
X168244624Y-93158145D01*
X168085299Y-93224139D01*
X168085287Y-93224145D01*
X167941901Y-93319955D01*
X167941897Y-93319958D01*
X167819958Y-93441897D01*
X167819955Y-93441901D01*
X167724145Y-93585287D01*
X167724139Y-93585299D01*
X167658145Y-93744624D01*
X167658145Y-93744626D01*
X167624500Y-93913768D01*
X129375499Y-93913768D01*
X129341855Y-93744626D01*
X129275858Y-93585295D01*
X129275854Y-93585287D01*
X129220893Y-93503034D01*
X129180045Y-93441901D01*
X129058099Y-93319955D01*
X129017249Y-93292660D01*
X128914712Y-93224145D01*
X128914700Y-93224139D01*
X128755374Y-93158145D01*
X128586231Y-93124500D01*
X128586229Y-93124500D01*
X128413771Y-93124500D01*
X128413768Y-93124500D01*
X128244626Y-93158145D01*
X128244624Y-93158145D01*
X128085299Y-93224139D01*
X128085287Y-93224145D01*
X127941901Y-93319955D01*
X127941897Y-93319958D01*
X127819958Y-93441897D01*
X127819955Y-93441901D01*
X127724145Y-93585287D01*
X127724139Y-93585299D01*
X127658145Y-93744624D01*
X127658145Y-93744626D01*
X127624500Y-93913768D01*
X127375499Y-93913768D01*
X127341855Y-93744626D01*
X127275858Y-93585295D01*
X127275854Y-93585287D01*
X127220893Y-93503034D01*
X127180045Y-93441901D01*
X127058099Y-93319955D01*
X127017249Y-93292660D01*
X126914712Y-93224145D01*
X126914700Y-93224139D01*
X126755374Y-93158145D01*
X126586231Y-93124500D01*
X126586229Y-93124500D01*
X126413771Y-93124500D01*
X126413768Y-93124500D01*
X126244626Y-93158145D01*
X126244624Y-93158145D01*
X126085299Y-93224139D01*
X126085287Y-93224145D01*
X125941901Y-93319955D01*
X125941897Y-93319958D01*
X125819958Y-93441897D01*
X125819955Y-93441901D01*
X125724145Y-93585287D01*
X125724139Y-93585299D01*
X125658145Y-93744624D01*
X125658145Y-93744626D01*
X125624500Y-93913768D01*
X123300500Y-93913768D01*
X123300500Y-91908892D01*
X125575000Y-91908892D01*
X125575000Y-92091107D01*
X125610547Y-92269812D01*
X125610547Y-92269814D01*
X125680273Y-92438149D01*
X125748142Y-92539723D01*
X126129532Y-92158332D01*
X126179920Y-92245606D01*
X126254394Y-92320080D01*
X126341665Y-92370465D01*
X125960275Y-92751856D01*
X126061840Y-92819721D01*
X126061852Y-92819727D01*
X126230186Y-92889452D01*
X126408892Y-92924999D01*
X126408896Y-92925000D01*
X126591104Y-92925000D01*
X126591107Y-92924999D01*
X126769812Y-92889452D01*
X126769814Y-92889452D01*
X126938149Y-92819726D01*
X127039723Y-92751856D01*
X126658333Y-92370466D01*
X126745606Y-92320080D01*
X126820080Y-92245606D01*
X126870466Y-92158333D01*
X127251856Y-92539723D01*
X127319726Y-92438149D01*
X127389452Y-92269814D01*
X127389452Y-92269812D01*
X127424999Y-92091107D01*
X127425000Y-92091103D01*
X127425000Y-91908896D01*
X127424999Y-91908892D01*
X127389452Y-91730187D01*
X127389452Y-91730185D01*
X127319727Y-91561852D01*
X127319721Y-91561840D01*
X127251856Y-91460275D01*
X126870465Y-91841665D01*
X126820080Y-91754394D01*
X126745606Y-91679920D01*
X126658332Y-91629532D01*
X126982612Y-91305253D01*
X127624500Y-91305253D01*
X127624500Y-92694746D01*
X127624501Y-92694758D01*
X127635859Y-92751856D01*
X127636133Y-92753231D01*
X127680448Y-92819552D01*
X127746769Y-92863867D01*
X127791231Y-92872711D01*
X127805241Y-92875498D01*
X127805246Y-92875498D01*
X127805252Y-92875500D01*
X127805253Y-92875500D01*
X129194747Y-92875500D01*
X129194748Y-92875500D01*
X129253231Y-92863867D01*
X129319552Y-92819552D01*
X129363867Y-92753231D01*
X129375500Y-92694748D01*
X129375500Y-91923391D01*
X142359500Y-91923391D01*
X142359500Y-92042009D01*
X142372655Y-92091103D01*
X142390202Y-92156590D01*
X142449507Y-92259308D01*
X142449509Y-92259310D01*
X142449511Y-92259313D01*
X142533387Y-92343189D01*
X142533389Y-92343190D01*
X142533391Y-92343192D01*
X142636110Y-92402497D01*
X142636111Y-92402497D01*
X142636114Y-92402499D01*
X142750691Y-92433200D01*
X142750693Y-92433200D01*
X142869307Y-92433200D01*
X142869309Y-92433200D01*
X142983886Y-92402499D01*
X142983888Y-92402497D01*
X142983890Y-92402497D01*
X143086608Y-92343192D01*
X143086608Y-92343191D01*
X143086613Y-92343189D01*
X143170489Y-92259313D01*
X143229799Y-92156586D01*
X143260500Y-92042009D01*
X143260500Y-91923391D01*
X143257922Y-91913768D01*
X167624500Y-91913768D01*
X167624500Y-92086231D01*
X167658145Y-92255373D01*
X167658145Y-92255375D01*
X167724139Y-92414700D01*
X167724145Y-92414712D01*
X167792660Y-92517249D01*
X167819955Y-92558099D01*
X167941901Y-92680045D01*
X167963921Y-92694758D01*
X168085287Y-92775854D01*
X168085299Y-92775860D01*
X168144153Y-92800238D01*
X168244626Y-92841855D01*
X168413771Y-92875500D01*
X168413772Y-92875500D01*
X168586228Y-92875500D01*
X168586229Y-92875500D01*
X168755374Y-92841855D01*
X168914705Y-92775858D01*
X168914707Y-92775856D01*
X168914712Y-92775854D01*
X168956115Y-92748188D01*
X169058099Y-92680045D01*
X169180045Y-92558099D01*
X169263500Y-92433200D01*
X169275854Y-92414712D01*
X169275860Y-92414700D01*
X169293240Y-92372741D01*
X169341855Y-92255374D01*
X169375500Y-92086229D01*
X169375500Y-91913771D01*
X169341855Y-91744626D01*
X169291149Y-91622211D01*
X169275860Y-91585299D01*
X169275854Y-91585287D01*
X169220893Y-91503034D01*
X169180045Y-91441901D01*
X169058099Y-91319955D01*
X169036096Y-91305253D01*
X169624500Y-91305253D01*
X169624500Y-92694746D01*
X169624501Y-92694758D01*
X169635859Y-92751856D01*
X169636133Y-92753231D01*
X169680448Y-92819552D01*
X169746769Y-92863867D01*
X169791231Y-92872711D01*
X169805241Y-92875498D01*
X169805246Y-92875498D01*
X169805252Y-92875500D01*
X169805253Y-92875500D01*
X171194747Y-92875500D01*
X171194748Y-92875500D01*
X171253231Y-92863867D01*
X171319552Y-92819552D01*
X171363867Y-92753231D01*
X171375500Y-92694748D01*
X171375500Y-91305252D01*
X171363867Y-91246769D01*
X171319552Y-91180448D01*
X171319548Y-91180445D01*
X171253233Y-91136134D01*
X171253231Y-91136133D01*
X171253228Y-91136132D01*
X171253227Y-91136132D01*
X171194758Y-91124501D01*
X171194748Y-91124500D01*
X169805252Y-91124500D01*
X169805251Y-91124500D01*
X169805241Y-91124501D01*
X169746772Y-91136132D01*
X169746766Y-91136134D01*
X169680451Y-91180445D01*
X169680445Y-91180451D01*
X169636134Y-91246766D01*
X169636132Y-91246772D01*
X169624501Y-91305241D01*
X169624500Y-91305253D01*
X169036096Y-91305253D01*
X169017249Y-91292660D01*
X168914712Y-91224145D01*
X168914700Y-91224139D01*
X168755374Y-91158145D01*
X168586231Y-91124500D01*
X168586229Y-91124500D01*
X168413771Y-91124500D01*
X168413768Y-91124500D01*
X168244626Y-91158145D01*
X168244624Y-91158145D01*
X168085299Y-91224139D01*
X168085287Y-91224145D01*
X167941901Y-91319955D01*
X167941897Y-91319958D01*
X167819958Y-91441897D01*
X167819955Y-91441901D01*
X167724145Y-91585287D01*
X167724139Y-91585299D01*
X167658145Y-91744624D01*
X167658145Y-91744626D01*
X167624500Y-91913768D01*
X143257922Y-91913768D01*
X143229799Y-91808814D01*
X143229797Y-91808811D01*
X143229797Y-91808809D01*
X143170492Y-91706091D01*
X143170490Y-91706089D01*
X143170489Y-91706087D01*
X143086613Y-91622211D01*
X143086610Y-91622209D01*
X143086608Y-91622207D01*
X142983889Y-91562902D01*
X142983890Y-91562902D01*
X142970351Y-91559274D01*
X142869309Y-91532200D01*
X142750691Y-91532200D01*
X142680567Y-91550989D01*
X142636109Y-91562902D01*
X142533391Y-91622207D01*
X142449507Y-91706091D01*
X142390202Y-91808809D01*
X142373037Y-91872869D01*
X142359500Y-91923391D01*
X129375500Y-91923391D01*
X129375500Y-91305252D01*
X129363867Y-91246769D01*
X129319552Y-91180448D01*
X129319548Y-91180445D01*
X129253233Y-91136134D01*
X129253231Y-91136133D01*
X129253228Y-91136132D01*
X129253227Y-91136132D01*
X129194758Y-91124501D01*
X129194748Y-91124500D01*
X127805252Y-91124500D01*
X127805251Y-91124500D01*
X127805241Y-91124501D01*
X127746772Y-91136132D01*
X127746766Y-91136134D01*
X127680451Y-91180445D01*
X127680445Y-91180451D01*
X127636134Y-91246766D01*
X127636132Y-91246772D01*
X127624501Y-91305241D01*
X127624500Y-91305253D01*
X126982612Y-91305253D01*
X127039723Y-91248142D01*
X126938149Y-91180273D01*
X126769813Y-91110547D01*
X126591107Y-91075000D01*
X126408892Y-91075000D01*
X126230187Y-91110547D01*
X126230185Y-91110547D01*
X126061850Y-91180273D01*
X125960275Y-91248142D01*
X126341666Y-91629533D01*
X126254394Y-91679920D01*
X126179920Y-91754394D01*
X126129533Y-91841666D01*
X125748142Y-91460275D01*
X125680273Y-91561850D01*
X125610547Y-91730185D01*
X125610547Y-91730187D01*
X125575000Y-91908892D01*
X123300500Y-91908892D01*
X123300500Y-90060691D01*
X146128900Y-90060691D01*
X146128900Y-90179309D01*
X146155974Y-90280351D01*
X146159602Y-90293890D01*
X146218907Y-90396608D01*
X146218909Y-90396610D01*
X146218911Y-90396613D01*
X146302787Y-90480489D01*
X146302789Y-90480490D01*
X146302791Y-90480492D01*
X146405510Y-90539797D01*
X146405511Y-90539797D01*
X146405514Y-90539799D01*
X146520091Y-90570500D01*
X146520093Y-90570500D01*
X146638707Y-90570500D01*
X146638709Y-90570500D01*
X146753286Y-90539799D01*
X146753288Y-90539797D01*
X146753290Y-90539797D01*
X146856008Y-90480492D01*
X146856008Y-90480491D01*
X146856013Y-90480489D01*
X146939889Y-90396613D01*
X146999199Y-90293886D01*
X147029900Y-90179309D01*
X147029900Y-90060691D01*
X146999199Y-89946114D01*
X146999197Y-89946111D01*
X146999197Y-89946109D01*
X146939892Y-89843391D01*
X146939890Y-89843389D01*
X146939889Y-89843387D01*
X146856013Y-89759511D01*
X146856010Y-89759509D01*
X146856008Y-89759507D01*
X146753289Y-89700202D01*
X146753290Y-89700202D01*
X146739751Y-89696574D01*
X146638709Y-89669500D01*
X146520091Y-89669500D01*
X146449967Y-89688289D01*
X146405509Y-89700202D01*
X146302791Y-89759507D01*
X146218907Y-89843391D01*
X146159602Y-89946109D01*
X146159601Y-89946114D01*
X146128900Y-90060691D01*
X123300500Y-90060691D01*
X123300500Y-87504861D01*
X123300977Y-87495157D01*
X123312985Y-87373237D01*
X123316771Y-87354204D01*
X123350918Y-87241635D01*
X123358335Y-87223726D01*
X123413795Y-87119968D01*
X123424567Y-87103846D01*
X123499195Y-87012913D01*
X123512913Y-86999195D01*
X123603846Y-86924567D01*
X123619968Y-86913795D01*
X123723726Y-86858335D01*
X123741635Y-86850918D01*
X123854205Y-86816770D01*
X123873233Y-86812985D01*
X123995157Y-86800976D01*
X124004861Y-86800500D01*
X124047594Y-86800500D01*
X172952406Y-86800500D01*
X172995139Y-86800500D01*
X173004842Y-86800976D01*
G37*
%TD.AperFunction*%
%TD*%
M02*
