%TF.GenerationSoftware,KiCad,Pcbnew,10.0.6-10.0.6~ubuntu26.04.1*%
%TF.CreationDate,2026-09-30T21:19:09+02:00*%
%TF.ProjectId,flashcat_p30,666c6173-6863-4617-945f-7033302e6b69,B*%
%TF.SameCoordinates,Original*%
%TF.FileFunction,Drillmap*%
%TF.FilePolarity,Positive*%
%FSLAX45Y45*%
G04 Gerber Fmt 4.5, Leading zero omitted, Abs format (unit mm)*
G04 Created by KiCad (PCBNEW 10.0.6-10.0.6~ubuntu26.04.1) date 2026-09-30 21:19:09*
%MOMM*%
%LPD*%
G01*
G04 APERTURE LIST*
%ADD10C,0.100000*%
%ADD11C,0.200000*%
%ADD12C,0.210000*%
G04 APERTURE END LIST*
D10*
X12300000Y-8750000D02*
G75*
G02*
X12400000Y-8650000I100000J0D01*
G01*
X12300000Y-12250000D02*
X12300000Y-8750000D01*
X12400000Y-8650000D02*
X17300000Y-8650000D01*
X12400000Y-12350000D02*
G75*
G02*
X12300000Y-12250000I0J100000D01*
G01*
X17300000Y-8650000D02*
G75*
G02*
X17400000Y-8750000I0J-100000D01*
G01*
X17300000Y-12350000D02*
X12400000Y-12350000D01*
X17400000Y-8750000D02*
X17400000Y-12250000D01*
X17400000Y-12250000D02*
G75*
G02*
X17300000Y-12350000I-100000J0D01*
G01*
D11*
D12*
X13945000Y-9595000D02*
X14155000Y-9805000D01*
X14155000Y-9595000D02*
X13945000Y-9805000D01*
X13945000Y-11195000D02*
X14155000Y-11405000D01*
X14155000Y-11195000D02*
X13945000Y-11405000D01*
X15445000Y-9595000D02*
X15655000Y-9805000D01*
X15655000Y-9595000D02*
X15445000Y-9805000D01*
X15545000Y-11195000D02*
X15755000Y-11405000D01*
X15755000Y-11195000D02*
X15545000Y-11405000D01*
D11*
X12555777Y-12666484D02*
X12555777Y-12466484D01*
X12555777Y-12466484D02*
X12603396Y-12466484D01*
X12603396Y-12466484D02*
X12631967Y-12476008D01*
X12631967Y-12476008D02*
X12651015Y-12495055D01*
X12651015Y-12495055D02*
X12660539Y-12514103D01*
X12660539Y-12514103D02*
X12670062Y-12552198D01*
X12670062Y-12552198D02*
X12670062Y-12580769D01*
X12670062Y-12580769D02*
X12660539Y-12618865D01*
X12660539Y-12618865D02*
X12651015Y-12637912D01*
X12651015Y-12637912D02*
X12631967Y-12656960D01*
X12631967Y-12656960D02*
X12603396Y-12666484D01*
X12603396Y-12666484D02*
X12555777Y-12666484D01*
X12755777Y-12666484D02*
X12755777Y-12533150D01*
X12755777Y-12571246D02*
X12765301Y-12552198D01*
X12765301Y-12552198D02*
X12774824Y-12542674D01*
X12774824Y-12542674D02*
X12793872Y-12533150D01*
X12793872Y-12533150D02*
X12812920Y-12533150D01*
X12879586Y-12666484D02*
X12879586Y-12533150D01*
X12879586Y-12466484D02*
X12870062Y-12476008D01*
X12870062Y-12476008D02*
X12879586Y-12485531D01*
X12879586Y-12485531D02*
X12889110Y-12476008D01*
X12889110Y-12476008D02*
X12879586Y-12466484D01*
X12879586Y-12466484D02*
X12879586Y-12485531D01*
X13003396Y-12666484D02*
X12984348Y-12656960D01*
X12984348Y-12656960D02*
X12974824Y-12637912D01*
X12974824Y-12637912D02*
X12974824Y-12466484D01*
X13108158Y-12666484D02*
X13089110Y-12656960D01*
X13089110Y-12656960D02*
X13079586Y-12637912D01*
X13079586Y-12637912D02*
X13079586Y-12466484D01*
X13336729Y-12666484D02*
X13336729Y-12466484D01*
X13336729Y-12466484D02*
X13403396Y-12609341D01*
X13403396Y-12609341D02*
X13470062Y-12466484D01*
X13470062Y-12466484D02*
X13470062Y-12666484D01*
X13651015Y-12666484D02*
X13651015Y-12561722D01*
X13651015Y-12561722D02*
X13641491Y-12542674D01*
X13641491Y-12542674D02*
X13622443Y-12533150D01*
X13622443Y-12533150D02*
X13584348Y-12533150D01*
X13584348Y-12533150D02*
X13565301Y-12542674D01*
X13651015Y-12656960D02*
X13631967Y-12666484D01*
X13631967Y-12666484D02*
X13584348Y-12666484D01*
X13584348Y-12666484D02*
X13565301Y-12656960D01*
X13565301Y-12656960D02*
X13555777Y-12637912D01*
X13555777Y-12637912D02*
X13555777Y-12618865D01*
X13555777Y-12618865D02*
X13565301Y-12599817D01*
X13565301Y-12599817D02*
X13584348Y-12590293D01*
X13584348Y-12590293D02*
X13631967Y-12590293D01*
X13631967Y-12590293D02*
X13651015Y-12580769D01*
X13746253Y-12533150D02*
X13746253Y-12733150D01*
X13746253Y-12542674D02*
X13765301Y-12533150D01*
X13765301Y-12533150D02*
X13803396Y-12533150D01*
X13803396Y-12533150D02*
X13822443Y-12542674D01*
X13822443Y-12542674D02*
X13831967Y-12552198D01*
X13831967Y-12552198D02*
X13841491Y-12571246D01*
X13841491Y-12571246D02*
X13841491Y-12628388D01*
X13841491Y-12628388D02*
X13831967Y-12647436D01*
X13831967Y-12647436D02*
X13822443Y-12656960D01*
X13822443Y-12656960D02*
X13803396Y-12666484D01*
X13803396Y-12666484D02*
X13765301Y-12666484D01*
X13765301Y-12666484D02*
X13746253Y-12656960D01*
X13927205Y-12647436D02*
X13936729Y-12656960D01*
X13936729Y-12656960D02*
X13927205Y-12666484D01*
X13927205Y-12666484D02*
X13917682Y-12656960D01*
X13917682Y-12656960D02*
X13927205Y-12647436D01*
X13927205Y-12647436D02*
X13927205Y-12666484D01*
X13927205Y-12542674D02*
X13936729Y-12552198D01*
X13936729Y-12552198D02*
X13927205Y-12561722D01*
X13927205Y-12561722D02*
X13917682Y-12552198D01*
X13917682Y-12552198D02*
X13927205Y-12542674D01*
X13927205Y-12542674D02*
X13927205Y-12561722D01*
X12095000Y-12895000D02*
X12295000Y-13095000D01*
X12295000Y-12895000D02*
X12095000Y-13095000D01*
X12546253Y-12905531D02*
X12555777Y-12896008D01*
X12555777Y-12896008D02*
X12574824Y-12886484D01*
X12574824Y-12886484D02*
X12622443Y-12886484D01*
X12622443Y-12886484D02*
X12641491Y-12896008D01*
X12641491Y-12896008D02*
X12651015Y-12905531D01*
X12651015Y-12905531D02*
X12660539Y-12924579D01*
X12660539Y-12924579D02*
X12660539Y-12943627D01*
X12660539Y-12943627D02*
X12651015Y-12972198D01*
X12651015Y-12972198D02*
X12536729Y-13086484D01*
X12536729Y-13086484D02*
X12660539Y-13086484D01*
X12746253Y-13067436D02*
X12755777Y-13076960D01*
X12755777Y-13076960D02*
X12746253Y-13086484D01*
X12746253Y-13086484D02*
X12736729Y-13076960D01*
X12736729Y-13076960D02*
X12746253Y-13067436D01*
X12746253Y-13067436D02*
X12746253Y-13086484D01*
X12946253Y-13086484D02*
X12831967Y-13086484D01*
X12889110Y-13086484D02*
X12889110Y-12886484D01*
X12889110Y-12886484D02*
X12870062Y-12915055D01*
X12870062Y-12915055D02*
X12851015Y-12934103D01*
X12851015Y-12934103D02*
X12831967Y-12943627D01*
X13070062Y-12886484D02*
X13089110Y-12886484D01*
X13089110Y-12886484D02*
X13108158Y-12896008D01*
X13108158Y-12896008D02*
X13117682Y-12905531D01*
X13117682Y-12905531D02*
X13127205Y-12924579D01*
X13127205Y-12924579D02*
X13136729Y-12962674D01*
X13136729Y-12962674D02*
X13136729Y-13010293D01*
X13136729Y-13010293D02*
X13127205Y-13048388D01*
X13127205Y-13048388D02*
X13117682Y-13067436D01*
X13117682Y-13067436D02*
X13108158Y-13076960D01*
X13108158Y-13076960D02*
X13089110Y-13086484D01*
X13089110Y-13086484D02*
X13070062Y-13086484D01*
X13070062Y-13086484D02*
X13051015Y-13076960D01*
X13051015Y-13076960D02*
X13041491Y-13067436D01*
X13041491Y-13067436D02*
X13031967Y-13048388D01*
X13031967Y-13048388D02*
X13022443Y-13010293D01*
X13022443Y-13010293D02*
X13022443Y-12962674D01*
X13022443Y-12962674D02*
X13031967Y-12924579D01*
X13031967Y-12924579D02*
X13041491Y-12905531D01*
X13041491Y-12905531D02*
X13051015Y-12896008D01*
X13051015Y-12896008D02*
X13070062Y-12886484D01*
X13260539Y-12886484D02*
X13279586Y-12886484D01*
X13279586Y-12886484D02*
X13298634Y-12896008D01*
X13298634Y-12896008D02*
X13308158Y-12905531D01*
X13308158Y-12905531D02*
X13317682Y-12924579D01*
X13317682Y-12924579D02*
X13327205Y-12962674D01*
X13327205Y-12962674D02*
X13327205Y-13010293D01*
X13327205Y-13010293D02*
X13317682Y-13048388D01*
X13317682Y-13048388D02*
X13308158Y-13067436D01*
X13308158Y-13067436D02*
X13298634Y-13076960D01*
X13298634Y-13076960D02*
X13279586Y-13086484D01*
X13279586Y-13086484D02*
X13260539Y-13086484D01*
X13260539Y-13086484D02*
X13241491Y-13076960D01*
X13241491Y-13076960D02*
X13231967Y-13067436D01*
X13231967Y-13067436D02*
X13222443Y-13048388D01*
X13222443Y-13048388D02*
X13212920Y-13010293D01*
X13212920Y-13010293D02*
X13212920Y-12962674D01*
X13212920Y-12962674D02*
X13222443Y-12924579D01*
X13222443Y-12924579D02*
X13231967Y-12905531D01*
X13231967Y-12905531D02*
X13241491Y-12896008D01*
X13241491Y-12896008D02*
X13260539Y-12886484D01*
X13412920Y-13086484D02*
X13412920Y-12953150D01*
X13412920Y-12972198D02*
X13422443Y-12962674D01*
X13422443Y-12962674D02*
X13441491Y-12953150D01*
X13441491Y-12953150D02*
X13470063Y-12953150D01*
X13470063Y-12953150D02*
X13489110Y-12962674D01*
X13489110Y-12962674D02*
X13498634Y-12981722D01*
X13498634Y-12981722D02*
X13498634Y-13086484D01*
X13498634Y-12981722D02*
X13508158Y-12962674D01*
X13508158Y-12962674D02*
X13527205Y-12953150D01*
X13527205Y-12953150D02*
X13555777Y-12953150D01*
X13555777Y-12953150D02*
X13574824Y-12962674D01*
X13574824Y-12962674D02*
X13584348Y-12981722D01*
X13584348Y-12981722D02*
X13584348Y-13086484D01*
X13679586Y-13086484D02*
X13679586Y-12953150D01*
X13679586Y-12972198D02*
X13689110Y-12962674D01*
X13689110Y-12962674D02*
X13708158Y-12953150D01*
X13708158Y-12953150D02*
X13736729Y-12953150D01*
X13736729Y-12953150D02*
X13755777Y-12962674D01*
X13755777Y-12962674D02*
X13765301Y-12981722D01*
X13765301Y-12981722D02*
X13765301Y-13086484D01*
X13765301Y-12981722D02*
X13774824Y-12962674D01*
X13774824Y-12962674D02*
X13793872Y-12953150D01*
X13793872Y-12953150D02*
X13822443Y-12953150D01*
X13822443Y-12953150D02*
X13841491Y-12962674D01*
X13841491Y-12962674D02*
X13851015Y-12981722D01*
X13851015Y-12981722D02*
X13851015Y-13086484D01*
X14241491Y-12876960D02*
X14070063Y-13134103D01*
X14498634Y-12886484D02*
X14517682Y-12886484D01*
X14517682Y-12886484D02*
X14536729Y-12896008D01*
X14536729Y-12896008D02*
X14546253Y-12905531D01*
X14546253Y-12905531D02*
X14555777Y-12924579D01*
X14555777Y-12924579D02*
X14565301Y-12962674D01*
X14565301Y-12962674D02*
X14565301Y-13010293D01*
X14565301Y-13010293D02*
X14555777Y-13048388D01*
X14555777Y-13048388D02*
X14546253Y-13067436D01*
X14546253Y-13067436D02*
X14536729Y-13076960D01*
X14536729Y-13076960D02*
X14517682Y-13086484D01*
X14517682Y-13086484D02*
X14498634Y-13086484D01*
X14498634Y-13086484D02*
X14479586Y-13076960D01*
X14479586Y-13076960D02*
X14470063Y-13067436D01*
X14470063Y-13067436D02*
X14460539Y-13048388D01*
X14460539Y-13048388D02*
X14451015Y-13010293D01*
X14451015Y-13010293D02*
X14451015Y-12962674D01*
X14451015Y-12962674D02*
X14460539Y-12924579D01*
X14460539Y-12924579D02*
X14470063Y-12905531D01*
X14470063Y-12905531D02*
X14479586Y-12896008D01*
X14479586Y-12896008D02*
X14498634Y-12886484D01*
X14651015Y-13067436D02*
X14660539Y-13076960D01*
X14660539Y-13076960D02*
X14651015Y-13086484D01*
X14651015Y-13086484D02*
X14641491Y-13076960D01*
X14641491Y-13076960D02*
X14651015Y-13067436D01*
X14651015Y-13067436D02*
X14651015Y-13086484D01*
X14784348Y-12886484D02*
X14803396Y-12886484D01*
X14803396Y-12886484D02*
X14822444Y-12896008D01*
X14822444Y-12896008D02*
X14831967Y-12905531D01*
X14831967Y-12905531D02*
X14841491Y-12924579D01*
X14841491Y-12924579D02*
X14851015Y-12962674D01*
X14851015Y-12962674D02*
X14851015Y-13010293D01*
X14851015Y-13010293D02*
X14841491Y-13048388D01*
X14841491Y-13048388D02*
X14831967Y-13067436D01*
X14831967Y-13067436D02*
X14822444Y-13076960D01*
X14822444Y-13076960D02*
X14803396Y-13086484D01*
X14803396Y-13086484D02*
X14784348Y-13086484D01*
X14784348Y-13086484D02*
X14765301Y-13076960D01*
X14765301Y-13076960D02*
X14755777Y-13067436D01*
X14755777Y-13067436D02*
X14746253Y-13048388D01*
X14746253Y-13048388D02*
X14736729Y-13010293D01*
X14736729Y-13010293D02*
X14736729Y-12962674D01*
X14736729Y-12962674D02*
X14746253Y-12924579D01*
X14746253Y-12924579D02*
X14755777Y-12905531D01*
X14755777Y-12905531D02*
X14765301Y-12896008D01*
X14765301Y-12896008D02*
X14784348Y-12886484D01*
X14965301Y-12972198D02*
X14946253Y-12962674D01*
X14946253Y-12962674D02*
X14936729Y-12953150D01*
X14936729Y-12953150D02*
X14927206Y-12934103D01*
X14927206Y-12934103D02*
X14927206Y-12924579D01*
X14927206Y-12924579D02*
X14936729Y-12905531D01*
X14936729Y-12905531D02*
X14946253Y-12896008D01*
X14946253Y-12896008D02*
X14965301Y-12886484D01*
X14965301Y-12886484D02*
X15003396Y-12886484D01*
X15003396Y-12886484D02*
X15022444Y-12896008D01*
X15022444Y-12896008D02*
X15031967Y-12905531D01*
X15031967Y-12905531D02*
X15041491Y-12924579D01*
X15041491Y-12924579D02*
X15041491Y-12934103D01*
X15041491Y-12934103D02*
X15031967Y-12953150D01*
X15031967Y-12953150D02*
X15022444Y-12962674D01*
X15022444Y-12962674D02*
X15003396Y-12972198D01*
X15003396Y-12972198D02*
X14965301Y-12972198D01*
X14965301Y-12972198D02*
X14946253Y-12981722D01*
X14946253Y-12981722D02*
X14936729Y-12991246D01*
X14936729Y-12991246D02*
X14927206Y-13010293D01*
X14927206Y-13010293D02*
X14927206Y-13048388D01*
X14927206Y-13048388D02*
X14936729Y-13067436D01*
X14936729Y-13067436D02*
X14946253Y-13076960D01*
X14946253Y-13076960D02*
X14965301Y-13086484D01*
X14965301Y-13086484D02*
X15003396Y-13086484D01*
X15003396Y-13086484D02*
X15022444Y-13076960D01*
X15022444Y-13076960D02*
X15031967Y-13067436D01*
X15031967Y-13067436D02*
X15041491Y-13048388D01*
X15041491Y-13048388D02*
X15041491Y-13010293D01*
X15041491Y-13010293D02*
X15031967Y-12991246D01*
X15031967Y-12991246D02*
X15022444Y-12981722D01*
X15022444Y-12981722D02*
X15003396Y-12972198D01*
X15117682Y-12905531D02*
X15127206Y-12896008D01*
X15127206Y-12896008D02*
X15146253Y-12886484D01*
X15146253Y-12886484D02*
X15193872Y-12886484D01*
X15193872Y-12886484D02*
X15212920Y-12896008D01*
X15212920Y-12896008D02*
X15222444Y-12905531D01*
X15222444Y-12905531D02*
X15231967Y-12924579D01*
X15231967Y-12924579D02*
X15231967Y-12943627D01*
X15231967Y-12943627D02*
X15222444Y-12972198D01*
X15222444Y-12972198D02*
X15108158Y-13086484D01*
X15108158Y-13086484D02*
X15231967Y-13086484D01*
X15298634Y-12886484D02*
X15431967Y-12886484D01*
X15431967Y-12886484D02*
X15346253Y-13086484D01*
X15498634Y-12886484D02*
X15498634Y-12924579D01*
X15574825Y-12886484D02*
X15574825Y-12924579D01*
X15870063Y-13162674D02*
X15860539Y-13153150D01*
X15860539Y-13153150D02*
X15841491Y-13124579D01*
X15841491Y-13124579D02*
X15831968Y-13105531D01*
X15831968Y-13105531D02*
X15822444Y-13076960D01*
X15822444Y-13076960D02*
X15812920Y-13029341D01*
X15812920Y-13029341D02*
X15812920Y-12991246D01*
X15812920Y-12991246D02*
X15822444Y-12943627D01*
X15822444Y-12943627D02*
X15831968Y-12915055D01*
X15831968Y-12915055D02*
X15841491Y-12896008D01*
X15841491Y-12896008D02*
X15860539Y-12867436D01*
X15860539Y-12867436D02*
X15870063Y-12857912D01*
X16031968Y-12953150D02*
X16031968Y-13086484D01*
X15984348Y-12876960D02*
X15936729Y-13019817D01*
X15936729Y-13019817D02*
X16060539Y-13019817D01*
X16289110Y-13086484D02*
X16289110Y-12886484D01*
X16374825Y-13086484D02*
X16374825Y-12981722D01*
X16374825Y-12981722D02*
X16365301Y-12962674D01*
X16365301Y-12962674D02*
X16346253Y-12953150D01*
X16346253Y-12953150D02*
X16317682Y-12953150D01*
X16317682Y-12953150D02*
X16298634Y-12962674D01*
X16298634Y-12962674D02*
X16289110Y-12972198D01*
X16498634Y-13086484D02*
X16479587Y-13076960D01*
X16479587Y-13076960D02*
X16470063Y-13067436D01*
X16470063Y-13067436D02*
X16460539Y-13048388D01*
X16460539Y-13048388D02*
X16460539Y-12991246D01*
X16460539Y-12991246D02*
X16470063Y-12972198D01*
X16470063Y-12972198D02*
X16479587Y-12962674D01*
X16479587Y-12962674D02*
X16498634Y-12953150D01*
X16498634Y-12953150D02*
X16527206Y-12953150D01*
X16527206Y-12953150D02*
X16546253Y-12962674D01*
X16546253Y-12962674D02*
X16555777Y-12972198D01*
X16555777Y-12972198D02*
X16565301Y-12991246D01*
X16565301Y-12991246D02*
X16565301Y-13048388D01*
X16565301Y-13048388D02*
X16555777Y-13067436D01*
X16555777Y-13067436D02*
X16546253Y-13076960D01*
X16546253Y-13076960D02*
X16527206Y-13086484D01*
X16527206Y-13086484D02*
X16498634Y-13086484D01*
X16679587Y-13086484D02*
X16660539Y-13076960D01*
X16660539Y-13076960D02*
X16651015Y-13057912D01*
X16651015Y-13057912D02*
X16651015Y-12886484D01*
X16831968Y-13076960D02*
X16812920Y-13086484D01*
X16812920Y-13086484D02*
X16774825Y-13086484D01*
X16774825Y-13086484D02*
X16755777Y-13076960D01*
X16755777Y-13076960D02*
X16746253Y-13057912D01*
X16746253Y-13057912D02*
X16746253Y-12981722D01*
X16746253Y-12981722D02*
X16755777Y-12962674D01*
X16755777Y-12962674D02*
X16774825Y-12953150D01*
X16774825Y-12953150D02*
X16812920Y-12953150D01*
X16812920Y-12953150D02*
X16831968Y-12962674D01*
X16831968Y-12962674D02*
X16841492Y-12981722D01*
X16841492Y-12981722D02*
X16841492Y-13000769D01*
X16841492Y-13000769D02*
X16746253Y-13019817D01*
X16917682Y-13076960D02*
X16936730Y-13086484D01*
X16936730Y-13086484D02*
X16974825Y-13086484D01*
X16974825Y-13086484D02*
X16993873Y-13076960D01*
X16993873Y-13076960D02*
X17003396Y-13057912D01*
X17003396Y-13057912D02*
X17003396Y-13048388D01*
X17003396Y-13048388D02*
X16993873Y-13029341D01*
X16993873Y-13029341D02*
X16974825Y-13019817D01*
X16974825Y-13019817D02*
X16946253Y-13019817D01*
X16946253Y-13019817D02*
X16927206Y-13010293D01*
X16927206Y-13010293D02*
X16917682Y-12991246D01*
X16917682Y-12991246D02*
X16917682Y-12981722D01*
X16917682Y-12981722D02*
X16927206Y-12962674D01*
X16927206Y-12962674D02*
X16946253Y-12953150D01*
X16946253Y-12953150D02*
X16974825Y-12953150D01*
X16974825Y-12953150D02*
X16993873Y-12962674D01*
X17070063Y-13162674D02*
X17079587Y-13153150D01*
X17079587Y-13153150D02*
X17098634Y-13124579D01*
X17098634Y-13124579D02*
X17108158Y-13105531D01*
X17108158Y-13105531D02*
X17117682Y-13076960D01*
X17117682Y-13076960D02*
X17127206Y-13029341D01*
X17127206Y-13029341D02*
X17127206Y-12991246D01*
X17127206Y-12991246D02*
X17117682Y-12943627D01*
X17117682Y-12943627D02*
X17108158Y-12915055D01*
X17108158Y-12915055D02*
X17098634Y-12896008D01*
X17098634Y-12896008D02*
X17079587Y-12867436D01*
X17079587Y-12867436D02*
X17070063Y-12857912D01*
X17431968Y-13162674D02*
X17422444Y-13153150D01*
X17422444Y-13153150D02*
X17403396Y-13124579D01*
X17403396Y-13124579D02*
X17393873Y-13105531D01*
X17393873Y-13105531D02*
X17384349Y-13076960D01*
X17384349Y-13076960D02*
X17374825Y-13029341D01*
X17374825Y-13029341D02*
X17374825Y-12991246D01*
X17374825Y-12991246D02*
X17384349Y-12943627D01*
X17384349Y-12943627D02*
X17393873Y-12915055D01*
X17393873Y-12915055D02*
X17403396Y-12896008D01*
X17403396Y-12896008D02*
X17422444Y-12867436D01*
X17422444Y-12867436D02*
X17431968Y-12857912D01*
X17508158Y-12953150D02*
X17508158Y-13086484D01*
X17508158Y-12972198D02*
X17517682Y-12962674D01*
X17517682Y-12962674D02*
X17536730Y-12953150D01*
X17536730Y-12953150D02*
X17565301Y-12953150D01*
X17565301Y-12953150D02*
X17584349Y-12962674D01*
X17584349Y-12962674D02*
X17593873Y-12981722D01*
X17593873Y-12981722D02*
X17593873Y-13086484D01*
X17717682Y-13086484D02*
X17698634Y-13076960D01*
X17698634Y-13076960D02*
X17689111Y-13067436D01*
X17689111Y-13067436D02*
X17679587Y-13048388D01*
X17679587Y-13048388D02*
X17679587Y-12991246D01*
X17679587Y-12991246D02*
X17689111Y-12972198D01*
X17689111Y-12972198D02*
X17698634Y-12962674D01*
X17698634Y-12962674D02*
X17717682Y-12953150D01*
X17717682Y-12953150D02*
X17746254Y-12953150D01*
X17746254Y-12953150D02*
X17765301Y-12962674D01*
X17765301Y-12962674D02*
X17774825Y-12972198D01*
X17774825Y-12972198D02*
X17784349Y-12991246D01*
X17784349Y-12991246D02*
X17784349Y-13048388D01*
X17784349Y-13048388D02*
X17774825Y-13067436D01*
X17774825Y-13067436D02*
X17765301Y-13076960D01*
X17765301Y-13076960D02*
X17746254Y-13086484D01*
X17746254Y-13086484D02*
X17717682Y-13086484D01*
X17841492Y-12953150D02*
X17917682Y-12953150D01*
X17870063Y-12886484D02*
X17870063Y-13057912D01*
X17870063Y-13057912D02*
X17879587Y-13076960D01*
X17879587Y-13076960D02*
X17898634Y-13086484D01*
X17898634Y-13086484D02*
X17917682Y-13086484D01*
X18136730Y-12953150D02*
X18136730Y-13153150D01*
X18136730Y-12962674D02*
X18155777Y-12953150D01*
X18155777Y-12953150D02*
X18193873Y-12953150D01*
X18193873Y-12953150D02*
X18212920Y-12962674D01*
X18212920Y-12962674D02*
X18222444Y-12972198D01*
X18222444Y-12972198D02*
X18231968Y-12991246D01*
X18231968Y-12991246D02*
X18231968Y-13048388D01*
X18231968Y-13048388D02*
X18222444Y-13067436D01*
X18222444Y-13067436D02*
X18212920Y-13076960D01*
X18212920Y-13076960D02*
X18193873Y-13086484D01*
X18193873Y-13086484D02*
X18155777Y-13086484D01*
X18155777Y-13086484D02*
X18136730Y-13076960D01*
X18346254Y-13086484D02*
X18327206Y-13076960D01*
X18327206Y-13076960D02*
X18317682Y-13057912D01*
X18317682Y-13057912D02*
X18317682Y-12886484D01*
X18508158Y-13086484D02*
X18508158Y-12981722D01*
X18508158Y-12981722D02*
X18498635Y-12962674D01*
X18498635Y-12962674D02*
X18479587Y-12953150D01*
X18479587Y-12953150D02*
X18441492Y-12953150D01*
X18441492Y-12953150D02*
X18422444Y-12962674D01*
X18508158Y-13076960D02*
X18489111Y-13086484D01*
X18489111Y-13086484D02*
X18441492Y-13086484D01*
X18441492Y-13086484D02*
X18422444Y-13076960D01*
X18422444Y-13076960D02*
X18412920Y-13057912D01*
X18412920Y-13057912D02*
X18412920Y-13038865D01*
X18412920Y-13038865D02*
X18422444Y-13019817D01*
X18422444Y-13019817D02*
X18441492Y-13010293D01*
X18441492Y-13010293D02*
X18489111Y-13010293D01*
X18489111Y-13010293D02*
X18508158Y-13000769D01*
X18574825Y-12953150D02*
X18651015Y-12953150D01*
X18603396Y-12886484D02*
X18603396Y-13057912D01*
X18603396Y-13057912D02*
X18612920Y-13076960D01*
X18612920Y-13076960D02*
X18631968Y-13086484D01*
X18631968Y-13086484D02*
X18651015Y-13086484D01*
X18793873Y-13076960D02*
X18774825Y-13086484D01*
X18774825Y-13086484D02*
X18736730Y-13086484D01*
X18736730Y-13086484D02*
X18717682Y-13076960D01*
X18717682Y-13076960D02*
X18708158Y-13057912D01*
X18708158Y-13057912D02*
X18708158Y-12981722D01*
X18708158Y-12981722D02*
X18717682Y-12962674D01*
X18717682Y-12962674D02*
X18736730Y-12953150D01*
X18736730Y-12953150D02*
X18774825Y-12953150D01*
X18774825Y-12953150D02*
X18793873Y-12962674D01*
X18793873Y-12962674D02*
X18803396Y-12981722D01*
X18803396Y-12981722D02*
X18803396Y-13000769D01*
X18803396Y-13000769D02*
X18708158Y-13019817D01*
X18974825Y-13086484D02*
X18974825Y-12886484D01*
X18974825Y-13076960D02*
X18955777Y-13086484D01*
X18955777Y-13086484D02*
X18917682Y-13086484D01*
X18917682Y-13086484D02*
X18898635Y-13076960D01*
X18898635Y-13076960D02*
X18889111Y-13067436D01*
X18889111Y-13067436D02*
X18879587Y-13048388D01*
X18879587Y-13048388D02*
X18879587Y-12991246D01*
X18879587Y-12991246D02*
X18889111Y-12972198D01*
X18889111Y-12972198D02*
X18898635Y-12962674D01*
X18898635Y-12962674D02*
X18917682Y-12953150D01*
X18917682Y-12953150D02*
X18955777Y-12953150D01*
X18955777Y-12953150D02*
X18974825Y-12962674D01*
X19051016Y-13162674D02*
X19060539Y-13153150D01*
X19060539Y-13153150D02*
X19079587Y-13124579D01*
X19079587Y-13124579D02*
X19089111Y-13105531D01*
X19089111Y-13105531D02*
X19098635Y-13076960D01*
X19098635Y-13076960D02*
X19108158Y-13029341D01*
X19108158Y-13029341D02*
X19108158Y-12991246D01*
X19108158Y-12991246D02*
X19098635Y-12943627D01*
X19098635Y-12943627D02*
X19089111Y-12915055D01*
X19089111Y-12915055D02*
X19079587Y-12896008D01*
X19079587Y-12896008D02*
X19060539Y-12867436D01*
X19060539Y-12867436D02*
X19051016Y-12857912D01*
M02*
