%TF.GenerationSoftware,KiCad,Pcbnew,10.0.6-10.0.6~ubuntu26.04.1*%
%TF.CreationDate,2026-10-03T10:56:25+02:00*%
%TF.ProjectId,flashcat_p30,666c6173-6863-4617-945f-7033302e6b69,C*%
%TF.SameCoordinates,Original*%
%TF.FileFunction,Copper,L2,Inr*%
%TF.FilePolarity,Positive*%
%FSLAX46Y46*%
G04 Gerber Fmt 4.6, Leading zero omitted, Abs format (unit mm)*
G04 Created by KiCad (PCBNEW 10.0.6-10.0.6~ubuntu26.04.1) date 2026-10-03 10:56:25*
%MOMM*%
%LPD*%
G01*
G04 APERTURE LIST*
%TA.AperFunction,ComponentPad*%
%ADD10R,1.350000X1.350000*%
%TD*%
%TA.AperFunction,ComponentPad*%
%ADD11C,1.350000*%
%TD*%
%TA.AperFunction,ViaPad*%
%ADD12C,0.500000*%
%TD*%
G04 APERTURE END LIST*
D10*
%TO.N,VCC_PROG*%
%TO.C,J1*%
X128500000Y-92000000D03*
D11*
%TO.N,GND*%
X126500000Y-92000000D03*
%TO.N,unconnected-(J1-VIO-Pad3)*%
X128500000Y-94000000D03*
%TO.N,unconnected-(J1-VPP-Pad4)*%
X126500000Y-94000000D03*
%TO.N,/~{OE}*%
X128500000Y-96000000D03*
%TO.N,unconnected-(J1-CLE-Pad6)*%
X126500000Y-96000000D03*
%TO.N,/~{WE}*%
X128500000Y-98000000D03*
%TO.N,unconnected-(J1-ALE-Pad8)*%
X126500000Y-98000000D03*
%TO.N,/~{CE}*%
X128500000Y-100000000D03*
%TO.N,unconnected-(J1-RE{slash}B#-Pad10)*%
X126500000Y-100000000D03*
%TO.N,unconnected-(J1-DQS-Pad11)*%
X128500000Y-102000000D03*
%TO.N,/WAIT*%
X126500000Y-102000000D03*
%TO.N,/DQ8*%
X128500000Y-104000000D03*
%TO.N,/DQ0*%
X126500000Y-104000000D03*
%TO.N,/DQ9*%
X128500000Y-106000000D03*
%TO.N,/DQ1*%
X126500000Y-106000000D03*
%TO.N,/DQ10*%
X128500000Y-108000000D03*
%TO.N,/DQ2*%
X126500000Y-108000000D03*
%TO.N,/DQ11*%
X128500000Y-110000000D03*
%TO.N,/DQ3*%
X126500000Y-110000000D03*
%TO.N,/DQ12*%
X128500000Y-112000000D03*
%TO.N,/DQ4*%
X126500000Y-112000000D03*
%TO.N,/DQ13*%
X128500000Y-114000000D03*
%TO.N,/DQ5*%
X126500000Y-114000000D03*
%TO.N,/DQ14*%
X128500000Y-116000000D03*
%TO.N,/DQ6*%
X126500000Y-116000000D03*
%TO.N,/DQ15*%
X128500000Y-118000000D03*
%TO.N,/DQ7*%
X126500000Y-118000000D03*
%TD*%
D10*
%TO.N,/A27*%
%TO.C,J2*%
X170500000Y-92000000D03*
D11*
%TO.N,unconnected-(J2-A0{slash}CE1-Pad2)*%
X168500000Y-92000000D03*
%TO.N,/A26*%
X170500000Y-94000000D03*
%TO.N,/A1*%
X168500000Y-94000000D03*
%TO.N,/A25*%
X170500000Y-96000000D03*
%TO.N,/A2*%
X168500000Y-96000000D03*
%TO.N,/A24*%
X170500000Y-98000000D03*
%TO.N,/A3*%
X168500000Y-98000000D03*
%TO.N,/A23*%
X170500000Y-100000000D03*
%TO.N,/A4*%
X168500000Y-100000000D03*
%TO.N,/A22*%
X170500000Y-102000000D03*
%TO.N,/A5*%
X168500000Y-102000000D03*
%TO.N,/A21*%
X170500000Y-104000000D03*
%TO.N,/A6*%
X168500000Y-104000000D03*
%TO.N,/A20*%
X170500000Y-106000000D03*
%TO.N,/A7*%
X168500000Y-106000000D03*
%TO.N,/A19*%
X170500000Y-108000000D03*
%TO.N,/A8*%
X168500000Y-108000000D03*
%TO.N,/A18*%
X170500000Y-110000000D03*
%TO.N,/A9*%
X168500000Y-110000000D03*
%TO.N,/A17*%
X170500000Y-112000000D03*
%TO.N,/A10*%
X168500000Y-112000000D03*
%TO.N,/A16*%
X170500000Y-114000000D03*
%TO.N,/A11*%
X168500000Y-114000000D03*
%TO.N,/A15*%
X170500000Y-116000000D03*
%TO.N,/A12*%
X168500000Y-116000000D03*
%TO.N,/A14*%
X170500000Y-118000000D03*
%TO.N,/A13*%
X168500000Y-118000000D03*
%TD*%
D12*
%TO.N,VCC_PROG*%
X147240000Y-111660000D03*
X146250000Y-104750000D03*
X150250000Y-106750000D03*
X147694000Y-117573400D03*
X152250000Y-104750000D03*
X143150000Y-105250000D03*
X149250000Y-106750000D03*
X152250000Y-92537500D03*
%TO.N,/A13*%
X162248400Y-106155400D03*
%TO.N,+1V8*%
X147750000Y-91990700D03*
X152250000Y-106750000D03*
X145250000Y-103750000D03*
%TO.N,/A18*%
X162709300Y-109059700D03*
%TO.N,/A22*%
X155198300Y-102870500D03*
X153427200Y-109102300D03*
%TO.N,GND*%
X145250000Y-102750000D03*
X156164999Y-104250000D03*
X145600000Y-93487500D03*
X141335001Y-105250000D03*
X151250000Y-102750000D03*
X149750000Y-113350000D03*
X141335001Y-103250000D03*
X156164999Y-107250000D03*
X149300000Y-89375000D03*
X148200000Y-113350000D03*
X146900000Y-117175000D03*
X145250000Y-106750000D03*
X141900000Y-89375000D03*
X147250000Y-106750000D03*
X148250000Y-106750000D03*
X145250000Y-104750000D03*
%TO.N,/A9*%
X165968800Y-106793600D03*
%TO.N,/~{CE}*%
X154335100Y-105500000D03*
X153461700Y-100199600D03*
%TO.N,/A14*%
X159184800Y-106403600D03*
%TO.N,/A25*%
X166668500Y-107488300D03*
%TO.N,/A26*%
X151651300Y-109289600D03*
%TO.N,/A3*%
X150876500Y-99009100D03*
%TO.N,/A10*%
X150750100Y-109365900D03*
%TO.N,/A12*%
X164365300Y-105057800D03*
X150250000Y-104750000D03*
%TO.N,/A15*%
X150250000Y-105750000D03*
X165340000Y-107017100D03*
%TO.N,/A20*%
X150250000Y-107750000D03*
%TO.N,/A21*%
X154291200Y-109909100D03*
X155515700Y-105632000D03*
%TO.N,/A4*%
X149250000Y-100614600D03*
X154343100Y-100724600D03*
%TO.N,/A5*%
X149921100Y-99757400D03*
%TO.N,/A11*%
X149250000Y-103750000D03*
X164897700Y-103312700D03*
%TO.N,/~{RST}*%
X148228800Y-119715200D03*
X149250000Y-104750000D03*
X148298300Y-109813900D03*
%TO.N,/DQ8*%
X146829000Y-100939800D03*
%TO.N,/DQ9*%
X148250000Y-103750000D03*
X129566500Y-100173000D03*
%TO.N,/DQ3*%
X148250000Y-104750000D03*
%TO.N,/DQ4*%
X144582300Y-113000000D03*
X148250000Y-105750000D03*
%TO.N,/DQ10*%
X147250000Y-103750000D03*
%TO.N,/DQ11*%
X147250000Y-104750000D03*
%TO.N,/DQ12*%
X147250000Y-105750000D03*
%TO.N,/WAIT*%
X148600000Y-116950000D03*
X129493900Y-118677700D03*
%TO.N,/~{OE}*%
X144626800Y-111897900D03*
X130014000Y-109549700D03*
%TO.N,/A23*%
X148878400Y-99063500D03*
%TO.N,/~{WE}*%
X146232900Y-109416500D03*
%TO.N,/DQ7*%
X129375100Y-115380800D03*
%TO.N,/A24*%
X144585000Y-108761400D03*
X151802600Y-98867200D03*
%TD*%
%TA.AperFunction,Conductor*%
%TO.N,GND*%
G36*
X173003056Y-88800801D02*
G01*
X173130342Y-88813337D01*
X173142353Y-88815726D01*
X173261799Y-88851960D01*
X173273113Y-88856646D01*
X173383191Y-88915484D01*
X173393379Y-88922291D01*
X173489862Y-89001474D01*
X173498525Y-89010137D01*
X173577708Y-89106620D01*
X173584515Y-89116808D01*
X173643351Y-89226882D01*
X173648040Y-89238202D01*
X173684272Y-89357645D01*
X173686662Y-89369661D01*
X173699199Y-89496943D01*
X173699500Y-89503069D01*
X173699500Y-120496930D01*
X173699199Y-120503056D01*
X173686662Y-120630338D01*
X173684272Y-120642354D01*
X173648040Y-120761797D01*
X173643351Y-120773117D01*
X173584515Y-120883191D01*
X173577708Y-120893379D01*
X173498525Y-120989862D01*
X173489862Y-120998525D01*
X173393379Y-121077708D01*
X173383191Y-121084515D01*
X173273117Y-121143351D01*
X173261797Y-121148040D01*
X173142354Y-121184272D01*
X173130338Y-121186662D01*
X173003056Y-121199199D01*
X172996930Y-121199500D01*
X124003070Y-121199500D01*
X123996944Y-121199199D01*
X123869661Y-121186662D01*
X123857645Y-121184272D01*
X123738202Y-121148040D01*
X123726882Y-121143351D01*
X123616808Y-121084515D01*
X123606620Y-121077708D01*
X123510137Y-120998525D01*
X123501474Y-120989862D01*
X123422291Y-120893379D01*
X123415484Y-120883191D01*
X123356648Y-120773117D01*
X123351959Y-120761797D01*
X123315727Y-120642354D01*
X123313337Y-120630338D01*
X123300801Y-120503056D01*
X123300500Y-120496930D01*
X123300500Y-119665100D01*
X147848300Y-119665100D01*
X147848300Y-119765299D01*
X147874230Y-119862064D01*
X147874231Y-119862067D01*
X147924324Y-119948832D01*
X147995168Y-120019676D01*
X148081933Y-120069769D01*
X148127278Y-120081919D01*
X148178700Y-120095699D01*
X148178706Y-120095700D01*
X148278894Y-120095700D01*
X148278899Y-120095699D01*
X148307648Y-120087995D01*
X148375667Y-120069769D01*
X148462432Y-120019676D01*
X148533276Y-119948832D01*
X148583369Y-119862067D01*
X148609300Y-119765294D01*
X148609300Y-119665106D01*
X148609299Y-119665100D01*
X148595519Y-119613678D01*
X148583369Y-119568333D01*
X148533276Y-119481568D01*
X148462432Y-119410724D01*
X148375667Y-119360631D01*
X148375664Y-119360630D01*
X148278899Y-119334700D01*
X148278894Y-119334700D01*
X148178706Y-119334700D01*
X148178700Y-119334700D01*
X148081935Y-119360630D01*
X148081933Y-119360631D01*
X147995167Y-119410724D01*
X147924324Y-119481567D01*
X147874231Y-119568333D01*
X147874230Y-119568335D01*
X147848300Y-119665100D01*
X123300500Y-119665100D01*
X123300500Y-117920664D01*
X125694500Y-117920664D01*
X125694500Y-118079335D01*
X125725454Y-118234954D01*
X125786174Y-118381544D01*
X125786175Y-118381546D01*
X125786176Y-118381547D01*
X125874328Y-118513476D01*
X125986524Y-118625672D01*
X126118453Y-118713824D01*
X126118454Y-118713824D01*
X126118455Y-118713825D01*
X126152179Y-118727794D01*
X126265044Y-118774545D01*
X126420665Y-118805500D01*
X126579335Y-118805500D01*
X126734956Y-118774545D01*
X126881547Y-118713824D01*
X127013476Y-118625672D01*
X127125672Y-118513476D01*
X127213824Y-118381547D01*
X127274545Y-118234956D01*
X127305500Y-118079335D01*
X127305500Y-117920665D01*
X127305500Y-117920664D01*
X127694500Y-117920664D01*
X127694500Y-118079335D01*
X127725454Y-118234954D01*
X127786174Y-118381544D01*
X127786175Y-118381546D01*
X127786176Y-118381547D01*
X127874328Y-118513476D01*
X127986524Y-118625672D01*
X128118453Y-118713824D01*
X128118454Y-118713824D01*
X128118455Y-118713825D01*
X128152179Y-118727794D01*
X128265044Y-118774545D01*
X128420665Y-118805500D01*
X128579335Y-118805500D01*
X128734956Y-118774545D01*
X128881547Y-118713824D01*
X129013476Y-118625672D01*
X129013476Y-118625671D01*
X129016029Y-118623966D01*
X129017207Y-118625730D01*
X129056891Y-118613599D01*
X129099127Y-118636056D01*
X129113400Y-118675811D01*
X129113400Y-118727799D01*
X129139330Y-118824564D01*
X129139331Y-118824567D01*
X129189424Y-118911332D01*
X129260268Y-118982176D01*
X129347033Y-119032269D01*
X129392378Y-119044419D01*
X129443800Y-119058199D01*
X129443806Y-119058200D01*
X129543994Y-119058200D01*
X129543999Y-119058199D01*
X129572748Y-119050495D01*
X129640767Y-119032269D01*
X129727532Y-118982176D01*
X129798376Y-118911332D01*
X129848469Y-118824567D01*
X129874400Y-118727794D01*
X129874400Y-118627606D01*
X129874399Y-118627600D01*
X129860619Y-118576178D01*
X129848469Y-118530833D01*
X129798376Y-118444068D01*
X129727532Y-118373224D01*
X129640767Y-118323131D01*
X129640764Y-118323130D01*
X129543999Y-118297200D01*
X129543994Y-118297200D01*
X129443806Y-118297200D01*
X129443798Y-118297201D01*
X129346830Y-118323184D01*
X129299404Y-118316941D01*
X129270284Y-118278990D01*
X129272913Y-118238894D01*
X129274545Y-118234956D01*
X129305500Y-118079335D01*
X129305500Y-117920665D01*
X129274545Y-117765044D01*
X129213824Y-117618453D01*
X129150245Y-117523300D01*
X147313500Y-117523300D01*
X147313500Y-117623499D01*
X147339430Y-117720264D01*
X147339431Y-117720267D01*
X147389524Y-117807032D01*
X147460368Y-117877876D01*
X147547133Y-117927969D01*
X147592478Y-117940119D01*
X147643900Y-117953899D01*
X147643906Y-117953900D01*
X147744094Y-117953900D01*
X147744099Y-117953899D01*
X147772848Y-117946195D01*
X147840867Y-117927969D01*
X147853520Y-117920664D01*
X167694500Y-117920664D01*
X167694500Y-118079335D01*
X167725454Y-118234954D01*
X167786174Y-118381544D01*
X167786175Y-118381546D01*
X167786176Y-118381547D01*
X167874328Y-118513476D01*
X167986524Y-118625672D01*
X168118453Y-118713824D01*
X168118454Y-118713824D01*
X168118455Y-118713825D01*
X168152179Y-118727794D01*
X168265044Y-118774545D01*
X168420665Y-118805500D01*
X168579335Y-118805500D01*
X168734956Y-118774545D01*
X168881547Y-118713824D01*
X169013476Y-118625672D01*
X169125672Y-118513476D01*
X169213824Y-118381547D01*
X169274545Y-118234956D01*
X169305500Y-118079335D01*
X169305500Y-117920665D01*
X169305500Y-117920664D01*
X169694500Y-117920664D01*
X169694500Y-118079335D01*
X169725454Y-118234954D01*
X169786174Y-118381544D01*
X169786175Y-118381546D01*
X169786176Y-118381547D01*
X169874328Y-118513476D01*
X169986524Y-118625672D01*
X170118453Y-118713824D01*
X170118454Y-118713824D01*
X170118455Y-118713825D01*
X170152179Y-118727794D01*
X170265044Y-118774545D01*
X170420665Y-118805500D01*
X170579335Y-118805500D01*
X170734956Y-118774545D01*
X170881547Y-118713824D01*
X171013476Y-118625672D01*
X171125672Y-118513476D01*
X171213824Y-118381547D01*
X171274545Y-118234956D01*
X171305500Y-118079335D01*
X171305500Y-117920665D01*
X171274545Y-117765044D01*
X171213824Y-117618453D01*
X171125672Y-117486524D01*
X171013476Y-117374328D01*
X170881547Y-117286176D01*
X170881546Y-117286175D01*
X170881544Y-117286174D01*
X170734954Y-117225454D01*
X170579335Y-117194500D01*
X170420665Y-117194500D01*
X170265045Y-117225454D01*
X170118455Y-117286174D01*
X170118451Y-117286177D01*
X169986524Y-117374327D01*
X169874327Y-117486524D01*
X169786177Y-117618451D01*
X169786174Y-117618455D01*
X169725454Y-117765045D01*
X169694500Y-117920664D01*
X169305500Y-117920664D01*
X169274545Y-117765044D01*
X169213824Y-117618453D01*
X169125672Y-117486524D01*
X169013476Y-117374328D01*
X168881547Y-117286176D01*
X168881546Y-117286175D01*
X168881544Y-117286174D01*
X168734954Y-117225454D01*
X168579335Y-117194500D01*
X168420665Y-117194500D01*
X168265045Y-117225454D01*
X168118455Y-117286174D01*
X168118451Y-117286177D01*
X167986524Y-117374327D01*
X167874327Y-117486524D01*
X167786177Y-117618451D01*
X167786174Y-117618455D01*
X167725454Y-117765045D01*
X167694500Y-117920664D01*
X147853520Y-117920664D01*
X147927632Y-117877876D01*
X147998476Y-117807032D01*
X148048569Y-117720267D01*
X148074500Y-117623494D01*
X148074500Y-117523306D01*
X148074499Y-117523300D01*
X148060719Y-117471878D01*
X148048569Y-117426533D01*
X147998476Y-117339768D01*
X147927632Y-117268924D01*
X147840867Y-117218831D01*
X147840864Y-117218830D01*
X147744099Y-117192900D01*
X147744094Y-117192900D01*
X147643906Y-117192900D01*
X147643900Y-117192900D01*
X147547135Y-117218830D01*
X147547133Y-117218831D01*
X147460367Y-117268924D01*
X147389524Y-117339767D01*
X147339431Y-117426533D01*
X147339430Y-117426535D01*
X147313500Y-117523300D01*
X129150245Y-117523300D01*
X129125672Y-117486524D01*
X129013476Y-117374328D01*
X128881547Y-117286176D01*
X128881546Y-117286175D01*
X128881544Y-117286174D01*
X128734954Y-117225454D01*
X128579335Y-117194500D01*
X128420665Y-117194500D01*
X128265045Y-117225454D01*
X128118455Y-117286174D01*
X128118451Y-117286177D01*
X127986524Y-117374327D01*
X127874327Y-117486524D01*
X127786177Y-117618451D01*
X127786174Y-117618455D01*
X127725454Y-117765045D01*
X127694500Y-117920664D01*
X127305500Y-117920664D01*
X127274545Y-117765044D01*
X127213824Y-117618453D01*
X127125672Y-117486524D01*
X127013476Y-117374328D01*
X126881547Y-117286176D01*
X126881546Y-117286175D01*
X126881544Y-117286174D01*
X126734954Y-117225454D01*
X126579335Y-117194500D01*
X126420665Y-117194500D01*
X126265045Y-117225454D01*
X126118455Y-117286174D01*
X126118451Y-117286177D01*
X125986524Y-117374327D01*
X125874327Y-117486524D01*
X125786177Y-117618451D01*
X125786174Y-117618455D01*
X125725454Y-117765045D01*
X125694500Y-117920664D01*
X123300500Y-117920664D01*
X123300500Y-115920664D01*
X125694500Y-115920664D01*
X125694500Y-116079335D01*
X125725454Y-116234954D01*
X125786174Y-116381544D01*
X125786175Y-116381546D01*
X125786176Y-116381547D01*
X125874328Y-116513476D01*
X125986524Y-116625672D01*
X126118453Y-116713824D01*
X126118454Y-116713824D01*
X126118455Y-116713825D01*
X126155571Y-116729199D01*
X126265044Y-116774545D01*
X126420665Y-116805500D01*
X126579335Y-116805500D01*
X126734956Y-116774545D01*
X126881547Y-116713824D01*
X127013476Y-116625672D01*
X127125672Y-116513476D01*
X127213824Y-116381547D01*
X127274545Y-116234956D01*
X127305500Y-116079335D01*
X127305500Y-115920665D01*
X127305500Y-115920664D01*
X127694500Y-115920664D01*
X127694500Y-116079335D01*
X127725454Y-116234954D01*
X127786174Y-116381544D01*
X127786175Y-116381546D01*
X127786176Y-116381547D01*
X127874328Y-116513476D01*
X127986524Y-116625672D01*
X128118453Y-116713824D01*
X128118454Y-116713824D01*
X128118455Y-116713825D01*
X128155571Y-116729199D01*
X128265044Y-116774545D01*
X128420665Y-116805500D01*
X128579335Y-116805500D01*
X128734956Y-116774545D01*
X128881547Y-116713824D01*
X129013476Y-116625672D01*
X129125672Y-116513476D01*
X129213824Y-116381547D01*
X129274545Y-116234956D01*
X129305500Y-116079335D01*
X129305500Y-116005521D01*
X136699500Y-116005521D01*
X136699500Y-116194478D01*
X136699501Y-116194494D01*
X136729059Y-116381112D01*
X136729061Y-116381121D01*
X136787452Y-116560830D01*
X136787456Y-116560838D01*
X136873241Y-116729201D01*
X136984309Y-116882072D01*
X136984316Y-116882080D01*
X137117919Y-117015683D01*
X137117927Y-117015690D01*
X137229655Y-117096866D01*
X137270801Y-117126760D01*
X137439168Y-117212547D01*
X137618882Y-117270940D01*
X137765315Y-117294132D01*
X137805505Y-117300498D01*
X137805511Y-117300498D01*
X137805519Y-117300500D01*
X137805521Y-117300500D01*
X137994479Y-117300500D01*
X137994481Y-117300500D01*
X138181118Y-117270940D01*
X138360832Y-117212547D01*
X138529199Y-117126760D01*
X138682073Y-117015690D01*
X138797863Y-116899900D01*
X148219500Y-116899900D01*
X148219500Y-117000099D01*
X148245430Y-117096864D01*
X148245431Y-117096867D01*
X148295524Y-117183632D01*
X148366368Y-117254476D01*
X148453133Y-117304569D01*
X148498478Y-117316719D01*
X148549900Y-117330499D01*
X148549906Y-117330500D01*
X148650094Y-117330500D01*
X148650099Y-117330499D01*
X148678848Y-117322795D01*
X148746867Y-117304569D01*
X148833632Y-117254476D01*
X148904476Y-117183632D01*
X148954569Y-117096867D01*
X148980500Y-117000094D01*
X148980500Y-116899906D01*
X148980499Y-116899900D01*
X148955203Y-116805500D01*
X148954569Y-116803133D01*
X148904476Y-116716368D01*
X148833632Y-116645524D01*
X148746867Y-116595431D01*
X148746864Y-116595430D01*
X148650099Y-116569500D01*
X148650094Y-116569500D01*
X148549906Y-116569500D01*
X148549900Y-116569500D01*
X148453135Y-116595430D01*
X148453133Y-116595431D01*
X148366367Y-116645524D01*
X148295524Y-116716367D01*
X148245431Y-116803133D01*
X148245430Y-116803135D01*
X148219500Y-116899900D01*
X138797863Y-116899900D01*
X138815690Y-116882073D01*
X138926760Y-116729199D01*
X139012547Y-116560832D01*
X139070940Y-116381118D01*
X139100500Y-116194481D01*
X139100500Y-116005521D01*
X157899500Y-116005521D01*
X157899500Y-116194478D01*
X157899501Y-116194494D01*
X157929059Y-116381112D01*
X157929061Y-116381121D01*
X157987452Y-116560830D01*
X157987456Y-116560838D01*
X158073241Y-116729201D01*
X158184309Y-116882072D01*
X158184316Y-116882080D01*
X158317919Y-117015683D01*
X158317927Y-117015690D01*
X158429655Y-117096866D01*
X158470801Y-117126760D01*
X158639168Y-117212547D01*
X158818882Y-117270940D01*
X158965315Y-117294132D01*
X159005505Y-117300498D01*
X159005511Y-117300498D01*
X159005519Y-117300500D01*
X159005521Y-117300500D01*
X159194479Y-117300500D01*
X159194481Y-117300500D01*
X159381118Y-117270940D01*
X159560832Y-117212547D01*
X159729199Y-117126760D01*
X159882073Y-117015690D01*
X160015690Y-116882073D01*
X160126760Y-116729199D01*
X160212547Y-116560832D01*
X160270940Y-116381118D01*
X160300500Y-116194481D01*
X160300500Y-116005519D01*
X160287060Y-115920664D01*
X167694500Y-115920664D01*
X167694500Y-116079335D01*
X167725454Y-116234954D01*
X167786174Y-116381544D01*
X167786175Y-116381546D01*
X167786176Y-116381547D01*
X167874328Y-116513476D01*
X167986524Y-116625672D01*
X168118453Y-116713824D01*
X168118454Y-116713824D01*
X168118455Y-116713825D01*
X168155571Y-116729199D01*
X168265044Y-116774545D01*
X168420665Y-116805500D01*
X168579335Y-116805500D01*
X168734956Y-116774545D01*
X168881547Y-116713824D01*
X169013476Y-116625672D01*
X169125672Y-116513476D01*
X169213824Y-116381547D01*
X169274545Y-116234956D01*
X169305500Y-116079335D01*
X169305500Y-115920665D01*
X169305500Y-115920664D01*
X169694500Y-115920664D01*
X169694500Y-116079335D01*
X169725454Y-116234954D01*
X169786174Y-116381544D01*
X169786175Y-116381546D01*
X169786176Y-116381547D01*
X169874328Y-116513476D01*
X169986524Y-116625672D01*
X170118453Y-116713824D01*
X170118454Y-116713824D01*
X170118455Y-116713825D01*
X170155571Y-116729199D01*
X170265044Y-116774545D01*
X170420665Y-116805500D01*
X170579335Y-116805500D01*
X170734956Y-116774545D01*
X170881547Y-116713824D01*
X171013476Y-116625672D01*
X171125672Y-116513476D01*
X171213824Y-116381547D01*
X171274545Y-116234956D01*
X171305500Y-116079335D01*
X171305500Y-115920665D01*
X171274545Y-115765044D01*
X171213824Y-115618453D01*
X171125672Y-115486524D01*
X171013476Y-115374328D01*
X170994599Y-115361715D01*
X170881548Y-115286177D01*
X170881544Y-115286174D01*
X170734954Y-115225454D01*
X170579335Y-115194500D01*
X170420665Y-115194500D01*
X170265045Y-115225454D01*
X170118455Y-115286174D01*
X170118451Y-115286177D01*
X169986524Y-115374327D01*
X169874327Y-115486524D01*
X169786177Y-115618451D01*
X169786174Y-115618455D01*
X169725454Y-115765045D01*
X169694500Y-115920664D01*
X169305500Y-115920664D01*
X169274545Y-115765044D01*
X169213824Y-115618453D01*
X169125672Y-115486524D01*
X169013476Y-115374328D01*
X168994599Y-115361715D01*
X168881548Y-115286177D01*
X168881544Y-115286174D01*
X168734954Y-115225454D01*
X168579335Y-115194500D01*
X168420665Y-115194500D01*
X168265045Y-115225454D01*
X168118455Y-115286174D01*
X168118451Y-115286177D01*
X167986524Y-115374327D01*
X167874327Y-115486524D01*
X167786177Y-115618451D01*
X167786174Y-115618455D01*
X167725454Y-115765045D01*
X167694500Y-115920664D01*
X160287060Y-115920664D01*
X160270940Y-115818882D01*
X160212547Y-115639168D01*
X160126760Y-115470801D01*
X160015690Y-115317927D01*
X160015683Y-115317919D01*
X159882080Y-115184316D01*
X159882072Y-115184309D01*
X159729201Y-115073241D01*
X159560838Y-114987456D01*
X159560830Y-114987452D01*
X159381121Y-114929061D01*
X159381118Y-114929060D01*
X159381112Y-114929059D01*
X159194494Y-114899501D01*
X159194482Y-114899500D01*
X159194481Y-114899500D01*
X159005519Y-114899500D01*
X159005517Y-114899500D01*
X159005505Y-114899501D01*
X158818887Y-114929059D01*
X158818878Y-114929061D01*
X158639169Y-114987452D01*
X158639161Y-114987456D01*
X158470798Y-115073241D01*
X158317927Y-115184309D01*
X158317919Y-115184316D01*
X158184316Y-115317919D01*
X158184309Y-115317927D01*
X158073241Y-115470798D01*
X157987456Y-115639161D01*
X157987452Y-115639169D01*
X157929061Y-115818878D01*
X157929059Y-115818887D01*
X157899501Y-116005505D01*
X157899500Y-116005521D01*
X139100500Y-116005521D01*
X139100500Y-116005519D01*
X139070940Y-115818882D01*
X139012547Y-115639168D01*
X138926760Y-115470801D01*
X138815690Y-115317927D01*
X138815683Y-115317919D01*
X138682080Y-115184316D01*
X138682072Y-115184309D01*
X138529201Y-115073241D01*
X138360838Y-114987456D01*
X138360830Y-114987452D01*
X138280274Y-114961278D01*
X138181121Y-114929061D01*
X138181118Y-114929060D01*
X138181112Y-114929059D01*
X138028619Y-114904906D01*
X141934500Y-114904906D01*
X141934500Y-115095093D01*
X141971602Y-115281624D01*
X141971603Y-115281627D01*
X142044383Y-115457333D01*
X142044386Y-115457338D01*
X142150046Y-115615470D01*
X142150047Y-115615471D01*
X142284529Y-115749953D01*
X142442664Y-115855615D01*
X142618374Y-115928397D01*
X142804907Y-115965500D01*
X142995093Y-115965500D01*
X143181626Y-115928397D01*
X143357336Y-115855615D01*
X143515471Y-115749953D01*
X143649953Y-115615471D01*
X143755615Y-115457336D01*
X143828397Y-115281626D01*
X143865500Y-115095093D01*
X143865500Y-114904907D01*
X143865500Y-114904906D01*
X153134500Y-114904906D01*
X153134500Y-115095093D01*
X153171602Y-115281624D01*
X153171603Y-115281627D01*
X153244383Y-115457333D01*
X153244386Y-115457338D01*
X153350046Y-115615470D01*
X153350047Y-115615471D01*
X153484529Y-115749953D01*
X153642664Y-115855615D01*
X153818374Y-115928397D01*
X154004907Y-115965500D01*
X154195093Y-115965500D01*
X154381626Y-115928397D01*
X154557336Y-115855615D01*
X154715471Y-115749953D01*
X154849953Y-115615471D01*
X154955615Y-115457336D01*
X155028397Y-115281626D01*
X155065500Y-115095093D01*
X155065500Y-114904907D01*
X155028397Y-114718374D01*
X154955615Y-114542664D01*
X154849953Y-114384529D01*
X154715471Y-114250047D01*
X154692883Y-114234954D01*
X154557338Y-114144386D01*
X154557333Y-114144383D01*
X154381627Y-114071603D01*
X154381624Y-114071602D01*
X154195093Y-114034500D01*
X154004907Y-114034500D01*
X153818375Y-114071602D01*
X153818372Y-114071603D01*
X153642666Y-114144383D01*
X153642661Y-114144386D01*
X153484529Y-114250046D01*
X153350046Y-114384529D01*
X153244386Y-114542661D01*
X153244383Y-114542666D01*
X153171603Y-114718372D01*
X153171602Y-114718375D01*
X153134500Y-114904906D01*
X143865500Y-114904906D01*
X143828397Y-114718374D01*
X143755615Y-114542664D01*
X143649953Y-114384529D01*
X143515471Y-114250047D01*
X143492883Y-114234954D01*
X143357338Y-114144386D01*
X143357333Y-114144383D01*
X143181627Y-114071603D01*
X143181624Y-114071602D01*
X142995093Y-114034500D01*
X142804907Y-114034500D01*
X142618375Y-114071602D01*
X142618372Y-114071603D01*
X142442666Y-114144383D01*
X142442661Y-114144386D01*
X142284529Y-114250046D01*
X142150046Y-114384529D01*
X142044386Y-114542661D01*
X142044383Y-114542666D01*
X141971603Y-114718372D01*
X141971602Y-114718375D01*
X141934500Y-114904906D01*
X138028619Y-114904906D01*
X137994494Y-114899501D01*
X137994482Y-114899500D01*
X137994481Y-114899500D01*
X137805519Y-114899500D01*
X137805517Y-114899500D01*
X137805505Y-114899501D01*
X137618887Y-114929059D01*
X137618878Y-114929061D01*
X137439169Y-114987452D01*
X137439161Y-114987456D01*
X137270798Y-115073241D01*
X137117927Y-115184309D01*
X137117919Y-115184316D01*
X136984316Y-115317919D01*
X136984309Y-115317927D01*
X136873241Y-115470798D01*
X136787456Y-115639161D01*
X136787452Y-115639169D01*
X136729061Y-115818878D01*
X136729059Y-115818887D01*
X136699501Y-116005505D01*
X136699500Y-116005521D01*
X129305500Y-116005521D01*
X129305500Y-115920665D01*
X129288658Y-115835993D01*
X129297990Y-115789077D01*
X129337764Y-115762501D01*
X129349957Y-115761300D01*
X129425194Y-115761300D01*
X129425199Y-115761299D01*
X129467540Y-115749953D01*
X129521967Y-115735369D01*
X129608732Y-115685276D01*
X129679576Y-115614432D01*
X129729669Y-115527667D01*
X129748515Y-115457336D01*
X129755599Y-115430899D01*
X129755600Y-115430893D01*
X129755600Y-115330706D01*
X129755599Y-115330700D01*
X129740073Y-115272761D01*
X129729669Y-115233933D01*
X129679576Y-115147168D01*
X129608732Y-115076324D01*
X129521967Y-115026231D01*
X129521964Y-115026230D01*
X129425199Y-115000300D01*
X129425194Y-115000300D01*
X129325006Y-115000300D01*
X129325000Y-115000300D01*
X129228235Y-115026230D01*
X129228233Y-115026231D01*
X129141467Y-115076324D01*
X129070624Y-115147167D01*
X129020531Y-115233933D01*
X129020530Y-115233934D01*
X129010126Y-115272761D01*
X128981004Y-115310710D01*
X128933578Y-115316953D01*
X128915033Y-115308550D01*
X128881549Y-115286177D01*
X128881544Y-115286174D01*
X128734954Y-115225454D01*
X128579335Y-115194500D01*
X128420665Y-115194500D01*
X128265045Y-115225454D01*
X128118455Y-115286174D01*
X128118451Y-115286177D01*
X127986524Y-115374327D01*
X127874327Y-115486524D01*
X127786177Y-115618451D01*
X127786174Y-115618455D01*
X127725454Y-115765045D01*
X127694500Y-115920664D01*
X127305500Y-115920664D01*
X127274545Y-115765044D01*
X127213824Y-115618453D01*
X127125672Y-115486524D01*
X127013476Y-115374328D01*
X126994599Y-115361715D01*
X126881548Y-115286177D01*
X126881544Y-115286174D01*
X126734954Y-115225454D01*
X126579335Y-115194500D01*
X126420665Y-115194500D01*
X126265045Y-115225454D01*
X126118455Y-115286174D01*
X126118451Y-115286177D01*
X125986524Y-115374327D01*
X125874327Y-115486524D01*
X125786177Y-115618451D01*
X125786174Y-115618455D01*
X125725454Y-115765045D01*
X125694500Y-115920664D01*
X123300500Y-115920664D01*
X123300500Y-113920664D01*
X125694500Y-113920664D01*
X125694500Y-114079335D01*
X125725454Y-114234954D01*
X125786174Y-114381544D01*
X125786175Y-114381546D01*
X125786176Y-114381547D01*
X125874328Y-114513476D01*
X125986524Y-114625672D01*
X126118453Y-114713824D01*
X126118454Y-114713824D01*
X126118455Y-114713825D01*
X126129437Y-114718374D01*
X126265044Y-114774545D01*
X126420665Y-114805500D01*
X126579335Y-114805500D01*
X126734956Y-114774545D01*
X126881547Y-114713824D01*
X127013476Y-114625672D01*
X127125672Y-114513476D01*
X127213824Y-114381547D01*
X127274545Y-114234956D01*
X127305500Y-114079335D01*
X127305500Y-113920665D01*
X127305500Y-113920664D01*
X127694500Y-113920664D01*
X127694500Y-114079335D01*
X127725454Y-114234954D01*
X127786174Y-114381544D01*
X127786175Y-114381546D01*
X127786176Y-114381547D01*
X127874328Y-114513476D01*
X127986524Y-114625672D01*
X128118453Y-114713824D01*
X128118454Y-114713824D01*
X128118455Y-114713825D01*
X128129437Y-114718374D01*
X128265044Y-114774545D01*
X128420665Y-114805500D01*
X128579335Y-114805500D01*
X128734956Y-114774545D01*
X128881547Y-114713824D01*
X129013476Y-114625672D01*
X129125672Y-114513476D01*
X129213824Y-114381547D01*
X129274545Y-114234956D01*
X129305500Y-114079335D01*
X129305500Y-113920665D01*
X129305500Y-113920664D01*
X167694500Y-113920664D01*
X167694500Y-114079335D01*
X167725454Y-114234954D01*
X167786174Y-114381544D01*
X167786175Y-114381546D01*
X167786176Y-114381547D01*
X167874328Y-114513476D01*
X167986524Y-114625672D01*
X168118453Y-114713824D01*
X168118454Y-114713824D01*
X168118455Y-114713825D01*
X168129437Y-114718374D01*
X168265044Y-114774545D01*
X168420665Y-114805500D01*
X168579335Y-114805500D01*
X168734956Y-114774545D01*
X168881547Y-114713824D01*
X169013476Y-114625672D01*
X169125672Y-114513476D01*
X169213824Y-114381547D01*
X169274545Y-114234956D01*
X169305500Y-114079335D01*
X169305500Y-113920665D01*
X169305500Y-113920664D01*
X169694500Y-113920664D01*
X169694500Y-114079335D01*
X169725454Y-114234954D01*
X169786174Y-114381544D01*
X169786175Y-114381546D01*
X169786176Y-114381547D01*
X169874328Y-114513476D01*
X169986524Y-114625672D01*
X170118453Y-114713824D01*
X170118454Y-114713824D01*
X170118455Y-114713825D01*
X170129437Y-114718374D01*
X170265044Y-114774545D01*
X170420665Y-114805500D01*
X170579335Y-114805500D01*
X170734956Y-114774545D01*
X170881547Y-114713824D01*
X171013476Y-114625672D01*
X171125672Y-114513476D01*
X171213824Y-114381547D01*
X171274545Y-114234956D01*
X171305500Y-114079335D01*
X171305500Y-113920665D01*
X171274545Y-113765044D01*
X171213824Y-113618453D01*
X171125672Y-113486524D01*
X171013476Y-113374328D01*
X170881547Y-113286176D01*
X170881546Y-113286175D01*
X170881544Y-113286174D01*
X170734954Y-113225454D01*
X170579335Y-113194500D01*
X170420665Y-113194500D01*
X170265045Y-113225454D01*
X170118455Y-113286174D01*
X170118451Y-113286177D01*
X169986524Y-113374327D01*
X169874327Y-113486524D01*
X169786177Y-113618451D01*
X169786174Y-113618455D01*
X169725454Y-113765045D01*
X169694500Y-113920664D01*
X169305500Y-113920664D01*
X169274545Y-113765044D01*
X169213824Y-113618453D01*
X169125672Y-113486524D01*
X169013476Y-113374328D01*
X168881547Y-113286176D01*
X168881546Y-113286175D01*
X168881544Y-113286174D01*
X168734954Y-113225454D01*
X168579335Y-113194500D01*
X168420665Y-113194500D01*
X168265045Y-113225454D01*
X168118455Y-113286174D01*
X168118451Y-113286177D01*
X167986524Y-113374327D01*
X167874327Y-113486524D01*
X167786177Y-113618451D01*
X167786174Y-113618455D01*
X167725454Y-113765045D01*
X167694500Y-113920664D01*
X129305500Y-113920664D01*
X129274545Y-113765044D01*
X129213824Y-113618453D01*
X129125672Y-113486524D01*
X129013476Y-113374328D01*
X128881547Y-113286176D01*
X128881546Y-113286175D01*
X128881544Y-113286174D01*
X128734954Y-113225454D01*
X128579335Y-113194500D01*
X128420665Y-113194500D01*
X128265045Y-113225454D01*
X128118455Y-113286174D01*
X128118451Y-113286177D01*
X127986524Y-113374327D01*
X127874327Y-113486524D01*
X127786177Y-113618451D01*
X127786174Y-113618455D01*
X127725454Y-113765045D01*
X127694500Y-113920664D01*
X127305500Y-113920664D01*
X127274545Y-113765044D01*
X127213824Y-113618453D01*
X127125672Y-113486524D01*
X127013476Y-113374328D01*
X126881547Y-113286176D01*
X126881546Y-113286175D01*
X126881544Y-113286174D01*
X126734954Y-113225454D01*
X126579335Y-113194500D01*
X126420665Y-113194500D01*
X126265045Y-113225454D01*
X126118455Y-113286174D01*
X126118451Y-113286177D01*
X125986524Y-113374327D01*
X125874327Y-113486524D01*
X125786177Y-113618451D01*
X125786174Y-113618455D01*
X125725454Y-113765045D01*
X125694500Y-113920664D01*
X123300500Y-113920664D01*
X123300500Y-112949900D01*
X144201800Y-112949900D01*
X144201800Y-113050099D01*
X144227730Y-113146864D01*
X144227731Y-113146867D01*
X144277824Y-113233632D01*
X144348668Y-113304476D01*
X144435433Y-113354569D01*
X144480778Y-113366719D01*
X144532200Y-113380499D01*
X144532206Y-113380500D01*
X144632394Y-113380500D01*
X144632399Y-113380499D01*
X144661148Y-113372795D01*
X144729167Y-113354569D01*
X144815932Y-113304476D01*
X144886776Y-113233632D01*
X144936869Y-113146867D01*
X144962800Y-113050094D01*
X144962800Y-112949906D01*
X144962799Y-112949900D01*
X144949019Y-112898478D01*
X144936869Y-112853133D01*
X144886776Y-112766368D01*
X144815932Y-112695524D01*
X144729167Y-112645431D01*
X144729164Y-112645430D01*
X144632399Y-112619500D01*
X144632394Y-112619500D01*
X144532206Y-112619500D01*
X144532200Y-112619500D01*
X144435435Y-112645430D01*
X144435433Y-112645431D01*
X144348667Y-112695524D01*
X144277824Y-112766367D01*
X144227731Y-112853133D01*
X144227730Y-112853135D01*
X144201800Y-112949900D01*
X123300500Y-112949900D01*
X123300500Y-111920664D01*
X125694500Y-111920664D01*
X125694500Y-112079335D01*
X125725454Y-112234954D01*
X125786174Y-112381544D01*
X125786175Y-112381546D01*
X125786176Y-112381547D01*
X125874328Y-112513476D01*
X125986524Y-112625672D01*
X126118453Y-112713824D01*
X126265044Y-112774545D01*
X126420665Y-112805500D01*
X126579335Y-112805500D01*
X126734956Y-112774545D01*
X126881547Y-112713824D01*
X127013476Y-112625672D01*
X127125672Y-112513476D01*
X127213824Y-112381547D01*
X127274545Y-112234956D01*
X127305500Y-112079335D01*
X127305500Y-111920665D01*
X127305500Y-111920664D01*
X127694500Y-111920664D01*
X127694500Y-112079335D01*
X127725454Y-112234954D01*
X127786174Y-112381544D01*
X127786175Y-112381546D01*
X127786176Y-112381547D01*
X127874328Y-112513476D01*
X127986524Y-112625672D01*
X128118453Y-112713824D01*
X128265044Y-112774545D01*
X128420665Y-112805500D01*
X128579335Y-112805500D01*
X128734956Y-112774545D01*
X128881547Y-112713824D01*
X129013476Y-112625672D01*
X129125672Y-112513476D01*
X129213824Y-112381547D01*
X129274545Y-112234956D01*
X129305500Y-112079335D01*
X129305500Y-111920665D01*
X129291007Y-111847806D01*
X129291006Y-111847800D01*
X144246300Y-111847800D01*
X144246300Y-111947999D01*
X144272230Y-112044764D01*
X144272231Y-112044767D01*
X144322324Y-112131532D01*
X144393168Y-112202376D01*
X144479933Y-112252469D01*
X144525278Y-112264619D01*
X144576700Y-112278399D01*
X144576706Y-112278400D01*
X144676894Y-112278400D01*
X144676899Y-112278399D01*
X144705648Y-112270695D01*
X144773667Y-112252469D01*
X144860432Y-112202376D01*
X144931276Y-112131532D01*
X144981369Y-112044767D01*
X145007300Y-111947994D01*
X145007300Y-111847806D01*
X145007299Y-111847800D01*
X144993519Y-111796378D01*
X144981369Y-111751033D01*
X144931276Y-111664268D01*
X144876908Y-111609900D01*
X146859500Y-111609900D01*
X146859500Y-111710099D01*
X146885430Y-111806864D01*
X146885431Y-111806867D01*
X146935524Y-111893632D01*
X147006368Y-111964476D01*
X147093133Y-112014569D01*
X147138478Y-112026719D01*
X147189900Y-112040499D01*
X147189906Y-112040500D01*
X147290094Y-112040500D01*
X147290099Y-112040499D01*
X147318848Y-112032795D01*
X147386867Y-112014569D01*
X147473632Y-111964476D01*
X147517444Y-111920664D01*
X167694500Y-111920664D01*
X167694500Y-112079335D01*
X167725454Y-112234954D01*
X167786174Y-112381544D01*
X167786175Y-112381546D01*
X167786176Y-112381547D01*
X167874328Y-112513476D01*
X167986524Y-112625672D01*
X168118453Y-112713824D01*
X168265044Y-112774545D01*
X168420665Y-112805500D01*
X168579335Y-112805500D01*
X168734956Y-112774545D01*
X168881547Y-112713824D01*
X169013476Y-112625672D01*
X169125672Y-112513476D01*
X169213824Y-112381547D01*
X169274545Y-112234956D01*
X169305500Y-112079335D01*
X169305500Y-111920665D01*
X169305500Y-111920664D01*
X169694500Y-111920664D01*
X169694500Y-112079335D01*
X169725454Y-112234954D01*
X169786174Y-112381544D01*
X169786175Y-112381546D01*
X169786176Y-112381547D01*
X169874328Y-112513476D01*
X169986524Y-112625672D01*
X170118453Y-112713824D01*
X170265044Y-112774545D01*
X170420665Y-112805500D01*
X170579335Y-112805500D01*
X170734956Y-112774545D01*
X170881547Y-112713824D01*
X171013476Y-112625672D01*
X171125672Y-112513476D01*
X171213824Y-112381547D01*
X171274545Y-112234956D01*
X171305500Y-112079335D01*
X171305500Y-111920665D01*
X171274545Y-111765044D01*
X171213824Y-111618453D01*
X171125672Y-111486524D01*
X171013476Y-111374328D01*
X170881547Y-111286176D01*
X170881546Y-111286175D01*
X170881544Y-111286174D01*
X170734954Y-111225454D01*
X170579335Y-111194500D01*
X170420665Y-111194500D01*
X170265045Y-111225454D01*
X170118455Y-111286174D01*
X170118451Y-111286177D01*
X169986524Y-111374327D01*
X169874327Y-111486524D01*
X169786177Y-111618451D01*
X169786174Y-111618455D01*
X169725454Y-111765045D01*
X169694500Y-111920664D01*
X169305500Y-111920664D01*
X169274545Y-111765044D01*
X169213824Y-111618453D01*
X169125672Y-111486524D01*
X169013476Y-111374328D01*
X168881547Y-111286176D01*
X168881546Y-111286175D01*
X168881544Y-111286174D01*
X168734954Y-111225454D01*
X168579335Y-111194500D01*
X168420665Y-111194500D01*
X168265045Y-111225454D01*
X168118455Y-111286174D01*
X168118451Y-111286177D01*
X167986524Y-111374327D01*
X167874327Y-111486524D01*
X167786177Y-111618451D01*
X167786174Y-111618455D01*
X167725454Y-111765045D01*
X167694500Y-111920664D01*
X147517444Y-111920664D01*
X147544476Y-111893632D01*
X147594569Y-111806867D01*
X147620500Y-111710094D01*
X147620500Y-111609906D01*
X147620499Y-111609900D01*
X147595712Y-111517400D01*
X147594569Y-111513133D01*
X147544476Y-111426368D01*
X147473632Y-111355524D01*
X147386867Y-111305431D01*
X147386864Y-111305430D01*
X147290099Y-111279500D01*
X147290094Y-111279500D01*
X147189906Y-111279500D01*
X147189900Y-111279500D01*
X147093135Y-111305430D01*
X147093133Y-111305431D01*
X147006367Y-111355524D01*
X146935524Y-111426367D01*
X146885431Y-111513133D01*
X146885430Y-111513135D01*
X146859500Y-111609900D01*
X144876908Y-111609900D01*
X144860432Y-111593424D01*
X144773667Y-111543331D01*
X144773664Y-111543330D01*
X144676899Y-111517400D01*
X144676894Y-111517400D01*
X144576706Y-111517400D01*
X144576700Y-111517400D01*
X144479935Y-111543330D01*
X144479933Y-111543331D01*
X144393167Y-111593424D01*
X144322324Y-111664267D01*
X144272231Y-111751033D01*
X144272230Y-111751035D01*
X144246300Y-111847800D01*
X129291006Y-111847800D01*
X129274545Y-111765045D01*
X129251785Y-111710099D01*
X129213824Y-111618453D01*
X129125672Y-111486524D01*
X129013476Y-111374328D01*
X128881547Y-111286176D01*
X128881546Y-111286175D01*
X128881544Y-111286174D01*
X128734954Y-111225454D01*
X128579335Y-111194500D01*
X128420665Y-111194500D01*
X128265045Y-111225454D01*
X128118455Y-111286174D01*
X128118451Y-111286177D01*
X127986524Y-111374327D01*
X127874327Y-111486524D01*
X127786177Y-111618451D01*
X127786174Y-111618455D01*
X127725454Y-111765045D01*
X127694500Y-111920664D01*
X127305500Y-111920664D01*
X127274545Y-111765044D01*
X127213824Y-111618453D01*
X127125672Y-111486524D01*
X127013476Y-111374328D01*
X126881547Y-111286176D01*
X126881546Y-111286175D01*
X126881544Y-111286174D01*
X126734954Y-111225454D01*
X126579335Y-111194500D01*
X126420665Y-111194500D01*
X126265045Y-111225454D01*
X126118455Y-111286174D01*
X126118451Y-111286177D01*
X125986524Y-111374327D01*
X125874327Y-111486524D01*
X125786177Y-111618451D01*
X125786174Y-111618455D01*
X125725454Y-111765045D01*
X125694500Y-111920664D01*
X123300500Y-111920664D01*
X123300500Y-109920664D01*
X125694500Y-109920664D01*
X125694500Y-110079335D01*
X125725454Y-110234954D01*
X125786174Y-110381544D01*
X125786175Y-110381546D01*
X125786176Y-110381547D01*
X125874328Y-110513476D01*
X125986524Y-110625672D01*
X126118453Y-110713824D01*
X126265044Y-110774545D01*
X126420665Y-110805500D01*
X126579335Y-110805500D01*
X126734956Y-110774545D01*
X126881547Y-110713824D01*
X127013476Y-110625672D01*
X127125672Y-110513476D01*
X127213824Y-110381547D01*
X127274545Y-110234956D01*
X127305500Y-110079335D01*
X127305500Y-109920665D01*
X127305500Y-109920664D01*
X127694500Y-109920664D01*
X127694500Y-110079335D01*
X127725454Y-110234954D01*
X127786174Y-110381544D01*
X127786175Y-110381546D01*
X127786176Y-110381547D01*
X127874328Y-110513476D01*
X127986524Y-110625672D01*
X128118453Y-110713824D01*
X128265044Y-110774545D01*
X128420665Y-110805500D01*
X128579335Y-110805500D01*
X128734956Y-110774545D01*
X128881547Y-110713824D01*
X129013476Y-110625672D01*
X129125672Y-110513476D01*
X129213824Y-110381547D01*
X129274545Y-110234956D01*
X129305500Y-110079335D01*
X129305500Y-109920665D01*
X129274545Y-109765044D01*
X129213824Y-109618453D01*
X129201360Y-109599799D01*
X129154877Y-109530232D01*
X129134409Y-109499600D01*
X129633500Y-109499600D01*
X129633500Y-109599799D01*
X129653777Y-109675467D01*
X129659431Y-109696567D01*
X129709524Y-109783332D01*
X129780368Y-109854176D01*
X129867133Y-109904269D01*
X129912478Y-109916419D01*
X129963900Y-109930199D01*
X129963906Y-109930200D01*
X130064094Y-109930200D01*
X130064099Y-109930199D01*
X130099682Y-109920664D01*
X130160867Y-109904269D01*
X130247632Y-109854176D01*
X130318476Y-109783332D01*
X130368569Y-109696567D01*
X130394500Y-109599794D01*
X130394500Y-109499606D01*
X130394499Y-109499600D01*
X130377581Y-109436464D01*
X130368569Y-109402833D01*
X130347535Y-109366400D01*
X145852400Y-109366400D01*
X145852400Y-109466599D01*
X145869452Y-109530232D01*
X145878331Y-109563367D01*
X145928424Y-109650132D01*
X145999268Y-109720976D01*
X146086033Y-109771069D01*
X146131378Y-109783219D01*
X146182800Y-109796999D01*
X146182806Y-109797000D01*
X146282994Y-109797000D01*
X146282999Y-109796999D01*
X146311748Y-109789295D01*
X146379767Y-109771069D01*
X146392357Y-109763800D01*
X147917800Y-109763800D01*
X147917800Y-109863999D01*
X147943311Y-109959199D01*
X147943731Y-109960767D01*
X147993824Y-110047532D01*
X148064668Y-110118376D01*
X148151433Y-110168469D01*
X148196778Y-110180619D01*
X148248200Y-110194399D01*
X148248206Y-110194400D01*
X148348394Y-110194400D01*
X148348399Y-110194399D01*
X148377148Y-110186695D01*
X148445167Y-110168469D01*
X148531932Y-110118376D01*
X148602776Y-110047532D01*
X148652869Y-109960767D01*
X148678800Y-109863994D01*
X148678800Y-109859000D01*
X153910700Y-109859000D01*
X153910700Y-109959199D01*
X153936630Y-110055964D01*
X153936631Y-110055967D01*
X153986724Y-110142732D01*
X154057568Y-110213576D01*
X154144333Y-110263669D01*
X154189678Y-110275819D01*
X154241100Y-110289599D01*
X154241106Y-110289600D01*
X154341294Y-110289600D01*
X154341299Y-110289599D01*
X154370048Y-110281895D01*
X154438067Y-110263669D01*
X154524832Y-110213576D01*
X154595676Y-110142732D01*
X154645769Y-110055967D01*
X154671279Y-109960766D01*
X154671699Y-109959199D01*
X154671700Y-109959193D01*
X154671700Y-109920664D01*
X167694500Y-109920664D01*
X167694500Y-110079335D01*
X167725454Y-110234954D01*
X167786174Y-110381544D01*
X167786175Y-110381546D01*
X167786176Y-110381547D01*
X167874328Y-110513476D01*
X167986524Y-110625672D01*
X168118453Y-110713824D01*
X168265044Y-110774545D01*
X168420665Y-110805500D01*
X168579335Y-110805500D01*
X168734956Y-110774545D01*
X168881547Y-110713824D01*
X169013476Y-110625672D01*
X169125672Y-110513476D01*
X169213824Y-110381547D01*
X169274545Y-110234956D01*
X169305500Y-110079335D01*
X169305500Y-109920665D01*
X169305500Y-109920664D01*
X169694500Y-109920664D01*
X169694500Y-110079335D01*
X169725454Y-110234954D01*
X169786174Y-110381544D01*
X169786175Y-110381546D01*
X169786176Y-110381547D01*
X169874328Y-110513476D01*
X169986524Y-110625672D01*
X170118453Y-110713824D01*
X170265044Y-110774545D01*
X170420665Y-110805500D01*
X170579335Y-110805500D01*
X170734956Y-110774545D01*
X170881547Y-110713824D01*
X171013476Y-110625672D01*
X171125672Y-110513476D01*
X171213824Y-110381547D01*
X171274545Y-110234956D01*
X171305500Y-110079335D01*
X171305500Y-109920665D01*
X171274545Y-109765044D01*
X171213824Y-109618453D01*
X171125672Y-109486524D01*
X171013476Y-109374328D01*
X170998282Y-109364176D01*
X170947511Y-109330252D01*
X170881547Y-109286176D01*
X170881546Y-109286175D01*
X170881544Y-109286174D01*
X170734954Y-109225454D01*
X170579335Y-109194500D01*
X170420665Y-109194500D01*
X170265045Y-109225454D01*
X170118455Y-109286174D01*
X170118451Y-109286177D01*
X169986524Y-109374327D01*
X169874327Y-109486524D01*
X169786177Y-109618451D01*
X169786174Y-109618455D01*
X169725454Y-109765045D01*
X169694500Y-109920664D01*
X169305500Y-109920664D01*
X169274545Y-109765044D01*
X169213824Y-109618453D01*
X169125672Y-109486524D01*
X169013476Y-109374328D01*
X168998282Y-109364176D01*
X168947511Y-109330252D01*
X168881547Y-109286176D01*
X168881546Y-109286175D01*
X168881544Y-109286174D01*
X168734954Y-109225454D01*
X168579335Y-109194500D01*
X168420665Y-109194500D01*
X168265045Y-109225454D01*
X168118455Y-109286174D01*
X168118451Y-109286177D01*
X167986524Y-109374327D01*
X167874327Y-109486524D01*
X167786177Y-109618451D01*
X167786174Y-109618455D01*
X167725454Y-109765045D01*
X167694500Y-109920664D01*
X154671700Y-109920664D01*
X154671700Y-109859006D01*
X154671699Y-109859000D01*
X154655085Y-109796999D01*
X154645769Y-109762233D01*
X154595676Y-109675468D01*
X154524832Y-109604624D01*
X154438067Y-109554531D01*
X154438064Y-109554530D01*
X154341299Y-109528600D01*
X154341294Y-109528600D01*
X154241106Y-109528600D01*
X154241100Y-109528600D01*
X154144335Y-109554530D01*
X154144333Y-109554531D01*
X154057567Y-109604624D01*
X153986724Y-109675467D01*
X153936631Y-109762233D01*
X153936630Y-109762235D01*
X153910700Y-109859000D01*
X148678800Y-109859000D01*
X148678800Y-109763806D01*
X148678799Y-109763800D01*
X148660783Y-109696567D01*
X148652869Y-109667033D01*
X148602776Y-109580268D01*
X148531932Y-109509424D01*
X148445167Y-109459331D01*
X148445164Y-109459330D01*
X148348399Y-109433400D01*
X148348394Y-109433400D01*
X148248206Y-109433400D01*
X148248200Y-109433400D01*
X148151435Y-109459330D01*
X148151433Y-109459331D01*
X148064667Y-109509424D01*
X147993824Y-109580267D01*
X147943731Y-109667033D01*
X147943730Y-109667035D01*
X147917800Y-109763800D01*
X146392357Y-109763800D01*
X146466532Y-109720976D01*
X146537376Y-109650132D01*
X146587469Y-109563367D01*
X146608060Y-109486524D01*
X146613399Y-109466599D01*
X146613400Y-109466593D01*
X146613400Y-109366406D01*
X146613399Y-109366400D01*
X146603079Y-109327886D01*
X146599840Y-109315800D01*
X150369600Y-109315800D01*
X150369600Y-109415999D01*
X150392004Y-109499606D01*
X150395531Y-109512767D01*
X150445624Y-109599532D01*
X150516468Y-109670376D01*
X150603233Y-109720469D01*
X150648578Y-109732619D01*
X150700000Y-109746399D01*
X150700006Y-109746400D01*
X150800194Y-109746400D01*
X150800199Y-109746399D01*
X150828948Y-109738695D01*
X150896967Y-109720469D01*
X150983732Y-109670376D01*
X151054576Y-109599532D01*
X151104669Y-109512767D01*
X151130600Y-109415994D01*
X151130600Y-109315806D01*
X151130599Y-109315800D01*
X151113392Y-109251586D01*
X151110153Y-109239500D01*
X151270800Y-109239500D01*
X151270800Y-109339699D01*
X151291245Y-109415994D01*
X151296731Y-109436467D01*
X151346824Y-109523232D01*
X151417668Y-109594076D01*
X151504433Y-109644169D01*
X151549778Y-109656319D01*
X151601200Y-109670099D01*
X151601206Y-109670100D01*
X151701394Y-109670100D01*
X151701399Y-109670099D01*
X151730148Y-109662395D01*
X151798167Y-109644169D01*
X151884932Y-109594076D01*
X151955776Y-109523232D01*
X152005869Y-109436467D01*
X152031800Y-109339694D01*
X152031800Y-109239506D01*
X152031799Y-109239500D01*
X152008459Y-109152399D01*
X152005869Y-109142733D01*
X151955776Y-109055968D01*
X151952008Y-109052200D01*
X153046700Y-109052200D01*
X153046700Y-109152399D01*
X153070042Y-109239506D01*
X153072631Y-109249167D01*
X153122724Y-109335932D01*
X153193568Y-109406776D01*
X153280333Y-109456869D01*
X153316645Y-109466599D01*
X153377100Y-109482799D01*
X153377106Y-109482800D01*
X153477294Y-109482800D01*
X153477299Y-109482799D01*
X153506048Y-109475095D01*
X153574067Y-109456869D01*
X153660832Y-109406776D01*
X153731676Y-109335932D01*
X153781769Y-109249167D01*
X153807700Y-109152394D01*
X153807700Y-109052206D01*
X153796283Y-109009600D01*
X162328800Y-109009600D01*
X162328800Y-109109799D01*
X162354730Y-109206564D01*
X162354731Y-109206567D01*
X162404824Y-109293332D01*
X162475668Y-109364176D01*
X162562433Y-109414269D01*
X162607778Y-109426419D01*
X162659200Y-109440199D01*
X162659206Y-109440200D01*
X162759394Y-109440200D01*
X162759399Y-109440199D01*
X162788148Y-109432495D01*
X162856167Y-109414269D01*
X162942932Y-109364176D01*
X163013776Y-109293332D01*
X163063869Y-109206567D01*
X163083778Y-109132267D01*
X163089799Y-109109799D01*
X163089800Y-109109793D01*
X163089800Y-109009606D01*
X163089799Y-109009600D01*
X163076019Y-108958178D01*
X163063869Y-108912833D01*
X163013776Y-108826068D01*
X162942932Y-108755224D01*
X162856167Y-108705131D01*
X162856164Y-108705130D01*
X162759399Y-108679200D01*
X162759394Y-108679200D01*
X162659206Y-108679200D01*
X162659200Y-108679200D01*
X162562435Y-108705130D01*
X162562433Y-108705131D01*
X162475667Y-108755224D01*
X162404824Y-108826067D01*
X162354731Y-108912833D01*
X162354730Y-108912835D01*
X162328800Y-109009600D01*
X153796283Y-109009600D01*
X153781769Y-108955433D01*
X153731676Y-108868668D01*
X153660832Y-108797824D01*
X153574067Y-108747731D01*
X153574064Y-108747730D01*
X153477299Y-108721800D01*
X153477294Y-108721800D01*
X153377106Y-108721800D01*
X153377100Y-108721800D01*
X153280335Y-108747730D01*
X153280333Y-108747731D01*
X153193567Y-108797824D01*
X153122724Y-108868667D01*
X153072631Y-108955433D01*
X153072630Y-108955435D01*
X153046700Y-109052200D01*
X151952008Y-109052200D01*
X151884932Y-108985124D01*
X151798167Y-108935031D01*
X151798164Y-108935030D01*
X151701399Y-108909100D01*
X151701394Y-108909100D01*
X151601206Y-108909100D01*
X151601200Y-108909100D01*
X151504435Y-108935030D01*
X151504433Y-108935031D01*
X151417667Y-108985124D01*
X151346824Y-109055967D01*
X151296731Y-109142733D01*
X151296730Y-109142735D01*
X151270800Y-109239500D01*
X151110153Y-109239500D01*
X151104669Y-109219033D01*
X151054576Y-109132268D01*
X150983732Y-109061424D01*
X150896967Y-109011331D01*
X150896964Y-109011330D01*
X150800199Y-108985400D01*
X150800194Y-108985400D01*
X150700006Y-108985400D01*
X150700000Y-108985400D01*
X150603235Y-109011330D01*
X150603233Y-109011331D01*
X150516467Y-109061424D01*
X150445624Y-109132267D01*
X150395531Y-109219033D01*
X150395530Y-109219035D01*
X150369600Y-109315800D01*
X146599840Y-109315800D01*
X146591901Y-109286174D01*
X146587469Y-109269633D01*
X146537376Y-109182868D01*
X146466532Y-109112024D01*
X146379767Y-109061931D01*
X146379764Y-109061930D01*
X146282999Y-109036000D01*
X146282994Y-109036000D01*
X146182806Y-109036000D01*
X146182800Y-109036000D01*
X146086035Y-109061930D01*
X146086033Y-109061931D01*
X145999267Y-109112024D01*
X145928424Y-109182867D01*
X145878331Y-109269633D01*
X145878330Y-109269635D01*
X145852400Y-109366400D01*
X130347535Y-109366400D01*
X130318476Y-109316068D01*
X130247632Y-109245224D01*
X130160867Y-109195131D01*
X130160864Y-109195130D01*
X130064099Y-109169200D01*
X130064094Y-109169200D01*
X129963906Y-109169200D01*
X129963900Y-109169200D01*
X129867135Y-109195130D01*
X129867133Y-109195131D01*
X129780367Y-109245224D01*
X129709524Y-109316067D01*
X129659431Y-109402833D01*
X129659430Y-109402835D01*
X129633500Y-109499600D01*
X129134409Y-109499600D01*
X129125672Y-109486524D01*
X129013475Y-109374327D01*
X128947511Y-109330252D01*
X128881547Y-109286176D01*
X128881546Y-109286175D01*
X128881544Y-109286174D01*
X128734954Y-109225454D01*
X128579335Y-109194500D01*
X128420665Y-109194500D01*
X128265045Y-109225454D01*
X128118455Y-109286174D01*
X128118451Y-109286177D01*
X127986524Y-109374327D01*
X127874327Y-109486524D01*
X127786177Y-109618451D01*
X127786174Y-109618455D01*
X127725454Y-109765045D01*
X127694500Y-109920664D01*
X127305500Y-109920664D01*
X127274545Y-109765044D01*
X127213824Y-109618453D01*
X127125672Y-109486524D01*
X127013476Y-109374328D01*
X126998282Y-109364176D01*
X126947511Y-109330252D01*
X126881547Y-109286176D01*
X126881546Y-109286175D01*
X126881544Y-109286174D01*
X126734954Y-109225454D01*
X126579335Y-109194500D01*
X126420665Y-109194500D01*
X126265045Y-109225454D01*
X126118455Y-109286174D01*
X126118451Y-109286177D01*
X125986524Y-109374327D01*
X125874327Y-109486524D01*
X125786177Y-109618451D01*
X125786174Y-109618455D01*
X125725454Y-109765045D01*
X125694500Y-109920664D01*
X123300500Y-109920664D01*
X123300500Y-107920664D01*
X125694500Y-107920664D01*
X125694500Y-108079335D01*
X125725454Y-108234954D01*
X125786174Y-108381544D01*
X125786175Y-108381546D01*
X125786176Y-108381547D01*
X125874328Y-108513476D01*
X125986524Y-108625672D01*
X126118453Y-108713824D01*
X126265044Y-108774545D01*
X126420665Y-108805500D01*
X126579335Y-108805500D01*
X126734956Y-108774545D01*
X126881547Y-108713824D01*
X127013476Y-108625672D01*
X127125672Y-108513476D01*
X127213824Y-108381547D01*
X127274545Y-108234956D01*
X127305500Y-108079335D01*
X127305500Y-107920665D01*
X127305500Y-107920664D01*
X127694500Y-107920664D01*
X127694500Y-108079335D01*
X127725454Y-108234954D01*
X127786174Y-108381544D01*
X127786175Y-108381546D01*
X127786176Y-108381547D01*
X127874328Y-108513476D01*
X127986524Y-108625672D01*
X128118453Y-108713824D01*
X128265044Y-108774545D01*
X128420665Y-108805500D01*
X128579335Y-108805500D01*
X128734956Y-108774545D01*
X128881547Y-108713824D01*
X128885324Y-108711300D01*
X144204500Y-108711300D01*
X144204500Y-108811499D01*
X144219820Y-108868668D01*
X144230431Y-108908267D01*
X144280524Y-108995032D01*
X144351368Y-109065876D01*
X144438133Y-109115969D01*
X144483478Y-109128119D01*
X144534900Y-109141899D01*
X144534906Y-109141900D01*
X144635094Y-109141900D01*
X144635099Y-109141899D01*
X144671040Y-109132268D01*
X144731867Y-109115969D01*
X144818632Y-109065876D01*
X144889476Y-108995032D01*
X144939569Y-108908267D01*
X144965500Y-108811494D01*
X144965500Y-108711306D01*
X144965499Y-108711300D01*
X144950477Y-108655242D01*
X144939569Y-108614533D01*
X144889476Y-108527768D01*
X144818632Y-108456924D01*
X144731867Y-108406831D01*
X144731864Y-108406830D01*
X144635099Y-108380900D01*
X144635094Y-108380900D01*
X144534906Y-108380900D01*
X144534900Y-108380900D01*
X144438135Y-108406830D01*
X144438133Y-108406831D01*
X144351367Y-108456924D01*
X144280524Y-108527767D01*
X144230431Y-108614533D01*
X144230430Y-108614535D01*
X144204500Y-108711300D01*
X128885324Y-108711300D01*
X129013476Y-108625672D01*
X129125672Y-108513476D01*
X129213824Y-108381547D01*
X129274545Y-108234956D01*
X129305500Y-108079335D01*
X129305500Y-107920665D01*
X129274545Y-107765044D01*
X129247561Y-107699900D01*
X149869500Y-107699900D01*
X149869500Y-107800099D01*
X149887910Y-107868800D01*
X149895431Y-107896867D01*
X149945524Y-107983632D01*
X150016368Y-108054476D01*
X150103133Y-108104569D01*
X150148478Y-108116719D01*
X150199900Y-108130499D01*
X150199906Y-108130500D01*
X150300094Y-108130500D01*
X150300099Y-108130499D01*
X150328848Y-108122795D01*
X150396867Y-108104569D01*
X150483632Y-108054476D01*
X150554476Y-107983632D01*
X150590830Y-107920664D01*
X167694500Y-107920664D01*
X167694500Y-108079335D01*
X167725454Y-108234954D01*
X167786174Y-108381544D01*
X167786175Y-108381546D01*
X167786176Y-108381547D01*
X167874328Y-108513476D01*
X167986524Y-108625672D01*
X168118453Y-108713824D01*
X168265044Y-108774545D01*
X168420665Y-108805500D01*
X168579335Y-108805500D01*
X168734956Y-108774545D01*
X168881547Y-108713824D01*
X169013476Y-108625672D01*
X169125672Y-108513476D01*
X169213824Y-108381547D01*
X169274545Y-108234956D01*
X169305500Y-108079335D01*
X169305500Y-107920665D01*
X169305500Y-107920664D01*
X169694500Y-107920664D01*
X169694500Y-108079335D01*
X169725454Y-108234954D01*
X169786174Y-108381544D01*
X169786175Y-108381546D01*
X169786176Y-108381547D01*
X169874328Y-108513476D01*
X169986524Y-108625672D01*
X170118453Y-108713824D01*
X170265044Y-108774545D01*
X170420665Y-108805500D01*
X170579335Y-108805500D01*
X170734956Y-108774545D01*
X170881547Y-108713824D01*
X171013476Y-108625672D01*
X171125672Y-108513476D01*
X171213824Y-108381547D01*
X171274545Y-108234956D01*
X171305500Y-108079335D01*
X171305500Y-107920665D01*
X171274545Y-107765044D01*
X171213824Y-107618453D01*
X171125672Y-107486524D01*
X171013476Y-107374328D01*
X171012594Y-107373739D01*
X170881548Y-107286177D01*
X170881544Y-107286174D01*
X170734954Y-107225454D01*
X170579335Y-107194500D01*
X170420665Y-107194500D01*
X170265045Y-107225454D01*
X170118455Y-107286174D01*
X170118451Y-107286177D01*
X169986524Y-107374327D01*
X169874327Y-107486524D01*
X169786177Y-107618451D01*
X169786174Y-107618455D01*
X169725454Y-107765045D01*
X169694500Y-107920664D01*
X169305500Y-107920664D01*
X169274545Y-107765044D01*
X169213824Y-107618453D01*
X169125672Y-107486524D01*
X169013476Y-107374328D01*
X169012594Y-107373739D01*
X168881548Y-107286177D01*
X168881544Y-107286174D01*
X168734954Y-107225454D01*
X168579335Y-107194500D01*
X168420665Y-107194500D01*
X168265045Y-107225454D01*
X168118455Y-107286174D01*
X168118451Y-107286177D01*
X167986524Y-107374327D01*
X167874327Y-107486524D01*
X167786177Y-107618451D01*
X167786174Y-107618455D01*
X167725454Y-107765045D01*
X167694500Y-107920664D01*
X150590830Y-107920664D01*
X150604569Y-107896867D01*
X150630500Y-107800094D01*
X150630500Y-107699906D01*
X150630499Y-107699900D01*
X150613152Y-107635164D01*
X150604569Y-107603133D01*
X150554476Y-107516368D01*
X150483632Y-107445524D01*
X150470946Y-107438200D01*
X166288000Y-107438200D01*
X166288000Y-107538399D01*
X166309452Y-107618453D01*
X166313931Y-107635167D01*
X166364024Y-107721932D01*
X166434868Y-107792776D01*
X166521633Y-107842869D01*
X166566978Y-107855019D01*
X166618400Y-107868799D01*
X166618406Y-107868800D01*
X166718594Y-107868800D01*
X166718599Y-107868799D01*
X166761793Y-107857225D01*
X166781643Y-107851905D01*
X166815367Y-107842869D01*
X166902132Y-107792776D01*
X166972976Y-107721932D01*
X167023069Y-107635167D01*
X167049000Y-107538394D01*
X167049000Y-107438206D01*
X167048999Y-107438200D01*
X167031883Y-107374327D01*
X167023069Y-107341433D01*
X166972976Y-107254668D01*
X166902132Y-107183824D01*
X166815367Y-107133731D01*
X166815364Y-107133730D01*
X166718599Y-107107800D01*
X166718594Y-107107800D01*
X166618406Y-107107800D01*
X166618400Y-107107800D01*
X166521635Y-107133730D01*
X166521633Y-107133731D01*
X166434867Y-107183824D01*
X166364024Y-107254667D01*
X166313931Y-107341433D01*
X166313930Y-107341435D01*
X166288000Y-107438200D01*
X150470946Y-107438200D01*
X150396867Y-107395431D01*
X150396864Y-107395430D01*
X150300099Y-107369500D01*
X150300094Y-107369500D01*
X150199906Y-107369500D01*
X150199900Y-107369500D01*
X150103135Y-107395430D01*
X150103133Y-107395431D01*
X150016367Y-107445524D01*
X149945524Y-107516367D01*
X149895431Y-107603133D01*
X149895430Y-107603135D01*
X149869500Y-107699900D01*
X129247561Y-107699900D01*
X129213824Y-107618453D01*
X129125672Y-107486524D01*
X129013476Y-107374328D01*
X129012594Y-107373739D01*
X128881548Y-107286177D01*
X128881544Y-107286174D01*
X128734954Y-107225454D01*
X128579335Y-107194500D01*
X128420665Y-107194500D01*
X128265045Y-107225454D01*
X128118455Y-107286174D01*
X128118451Y-107286177D01*
X127986524Y-107374327D01*
X127874327Y-107486524D01*
X127786177Y-107618451D01*
X127786174Y-107618455D01*
X127725454Y-107765045D01*
X127694500Y-107920664D01*
X127305500Y-107920664D01*
X127274545Y-107765044D01*
X127213824Y-107618453D01*
X127125672Y-107486524D01*
X127013476Y-107374328D01*
X127012594Y-107373739D01*
X126881548Y-107286177D01*
X126881544Y-107286174D01*
X126734954Y-107225454D01*
X126579335Y-107194500D01*
X126420665Y-107194500D01*
X126265045Y-107225454D01*
X126118455Y-107286174D01*
X126118451Y-107286177D01*
X125986524Y-107374327D01*
X125874327Y-107486524D01*
X125786177Y-107618451D01*
X125786174Y-107618455D01*
X125725454Y-107765045D01*
X125694500Y-107920664D01*
X123300500Y-107920664D01*
X123300500Y-105920664D01*
X125694500Y-105920664D01*
X125694500Y-106079335D01*
X125725454Y-106234954D01*
X125786174Y-106381544D01*
X125786175Y-106381546D01*
X125786176Y-106381547D01*
X125795453Y-106395431D01*
X125871984Y-106509969D01*
X125874328Y-106513476D01*
X125986524Y-106625672D01*
X126118453Y-106713824D01*
X126265044Y-106774545D01*
X126420665Y-106805500D01*
X126579335Y-106805500D01*
X126734956Y-106774545D01*
X126881547Y-106713824D01*
X127013476Y-106625672D01*
X127125672Y-106513476D01*
X127213824Y-106381547D01*
X127274545Y-106234956D01*
X127305500Y-106079335D01*
X127305500Y-105920665D01*
X127305500Y-105920664D01*
X127694500Y-105920664D01*
X127694500Y-106079335D01*
X127725454Y-106234954D01*
X127786174Y-106381544D01*
X127786175Y-106381546D01*
X127786176Y-106381547D01*
X127795453Y-106395431D01*
X127871984Y-106509969D01*
X127874328Y-106513476D01*
X127986524Y-106625672D01*
X128118453Y-106713824D01*
X128265044Y-106774545D01*
X128420665Y-106805500D01*
X128579335Y-106805500D01*
X128734956Y-106774545D01*
X128881547Y-106713824D01*
X128902386Y-106699900D01*
X148869500Y-106699900D01*
X148869500Y-106800099D01*
X148895430Y-106896864D01*
X148895431Y-106896867D01*
X148945524Y-106983632D01*
X149016368Y-107054476D01*
X149103133Y-107104569D01*
X149148478Y-107116719D01*
X149199900Y-107130499D01*
X149199906Y-107130500D01*
X149300094Y-107130500D01*
X149300099Y-107130499D01*
X149328848Y-107122795D01*
X149396867Y-107104569D01*
X149483632Y-107054476D01*
X149554476Y-106983632D01*
X149604569Y-106896867D01*
X149622795Y-106828848D01*
X149630499Y-106800099D01*
X149630500Y-106800093D01*
X149630500Y-106699906D01*
X149630499Y-106699900D01*
X149869500Y-106699900D01*
X149869500Y-106800099D01*
X149895430Y-106896864D01*
X149895431Y-106896867D01*
X149945524Y-106983632D01*
X150016368Y-107054476D01*
X150103133Y-107104569D01*
X150148478Y-107116719D01*
X150199900Y-107130499D01*
X150199906Y-107130500D01*
X150300094Y-107130500D01*
X150300099Y-107130499D01*
X150328848Y-107122795D01*
X150396867Y-107104569D01*
X150483632Y-107054476D01*
X150554476Y-106983632D01*
X150604569Y-106896867D01*
X150622795Y-106828848D01*
X150630499Y-106800099D01*
X150630500Y-106800093D01*
X150630500Y-106699906D01*
X150630499Y-106699900D01*
X151869500Y-106699900D01*
X151869500Y-106800099D01*
X151895430Y-106896864D01*
X151895431Y-106896867D01*
X151945524Y-106983632D01*
X152016368Y-107054476D01*
X152103133Y-107104569D01*
X152148478Y-107116719D01*
X152199900Y-107130499D01*
X152199906Y-107130500D01*
X152300094Y-107130500D01*
X152300099Y-107130499D01*
X152328848Y-107122795D01*
X152396867Y-107104569D01*
X152483632Y-107054476D01*
X152554476Y-106983632D01*
X152564078Y-106967000D01*
X164959500Y-106967000D01*
X164959500Y-107067199D01*
X164984417Y-107160183D01*
X164985431Y-107163967D01*
X165035524Y-107250732D01*
X165106368Y-107321576D01*
X165193133Y-107371669D01*
X165238478Y-107383819D01*
X165289900Y-107397599D01*
X165289906Y-107397600D01*
X165390094Y-107397600D01*
X165390099Y-107397599D01*
X165479142Y-107373739D01*
X165479441Y-107373658D01*
X165486867Y-107371669D01*
X165573632Y-107321576D01*
X165644476Y-107250732D01*
X165694569Y-107163967D01*
X165694571Y-107163957D01*
X165696136Y-107160183D01*
X165697650Y-107160810D01*
X165723328Y-107127334D01*
X165770753Y-107121083D01*
X165785835Y-107127328D01*
X165821933Y-107148169D01*
X165866769Y-107160183D01*
X165918700Y-107174099D01*
X165918706Y-107174100D01*
X166018894Y-107174100D01*
X166018899Y-107174099D01*
X166047648Y-107166395D01*
X166115667Y-107148169D01*
X166202432Y-107098076D01*
X166273276Y-107027232D01*
X166323369Y-106940467D01*
X166349300Y-106843694D01*
X166349300Y-106743506D01*
X166349299Y-106743500D01*
X166324215Y-106649892D01*
X166323369Y-106646733D01*
X166273276Y-106559968D01*
X166202432Y-106489124D01*
X166115667Y-106439031D01*
X166115664Y-106439030D01*
X166018899Y-106413100D01*
X166018894Y-106413100D01*
X165918706Y-106413100D01*
X165918700Y-106413100D01*
X165821935Y-106439030D01*
X165821933Y-106439031D01*
X165735167Y-106489124D01*
X165664324Y-106559967D01*
X165614229Y-106646735D01*
X165612663Y-106650518D01*
X165611153Y-106649892D01*
X165585452Y-106683376D01*
X165538024Y-106689610D01*
X165522963Y-106683370D01*
X165486870Y-106662532D01*
X165486864Y-106662530D01*
X165390099Y-106636600D01*
X165390094Y-106636600D01*
X165289906Y-106636600D01*
X165289900Y-106636600D01*
X165193135Y-106662530D01*
X165193133Y-106662531D01*
X165106367Y-106712624D01*
X165035524Y-106783467D01*
X164985431Y-106870233D01*
X164985430Y-106870235D01*
X164959500Y-106967000D01*
X152564078Y-106967000D01*
X152604569Y-106896867D01*
X152622795Y-106828848D01*
X152630499Y-106800099D01*
X152630500Y-106800093D01*
X152630500Y-106699906D01*
X152630499Y-106699900D01*
X152610608Y-106625672D01*
X152604569Y-106603133D01*
X152554476Y-106516368D01*
X152483632Y-106445524D01*
X152410904Y-106403535D01*
X152410904Y-106403534D01*
X152396869Y-106395432D01*
X152396864Y-106395430D01*
X152300099Y-106369500D01*
X152300094Y-106369500D01*
X152199906Y-106369500D01*
X152199900Y-106369500D01*
X152103135Y-106395430D01*
X152103133Y-106395431D01*
X152016367Y-106445524D01*
X151945524Y-106516367D01*
X151895431Y-106603133D01*
X151895430Y-106603135D01*
X151869500Y-106699900D01*
X150630499Y-106699900D01*
X150610608Y-106625672D01*
X150604569Y-106603133D01*
X150554476Y-106516368D01*
X150483632Y-106445524D01*
X150396867Y-106395431D01*
X150396864Y-106395430D01*
X150300099Y-106369500D01*
X150300094Y-106369500D01*
X150199906Y-106369500D01*
X150199900Y-106369500D01*
X150103135Y-106395430D01*
X150103133Y-106395431D01*
X150016367Y-106445524D01*
X149945524Y-106516367D01*
X149895431Y-106603133D01*
X149895430Y-106603135D01*
X149869500Y-106699900D01*
X149630499Y-106699900D01*
X149610608Y-106625672D01*
X149604569Y-106603133D01*
X149554476Y-106516368D01*
X149483632Y-106445524D01*
X149396867Y-106395431D01*
X149396864Y-106395430D01*
X149300099Y-106369500D01*
X149300094Y-106369500D01*
X149199906Y-106369500D01*
X149199900Y-106369500D01*
X149103135Y-106395430D01*
X149103133Y-106395431D01*
X149016367Y-106445524D01*
X148945524Y-106516367D01*
X148895431Y-106603133D01*
X148895430Y-106603135D01*
X148869500Y-106699900D01*
X128902386Y-106699900D01*
X129013476Y-106625672D01*
X129125672Y-106513476D01*
X129213824Y-106381547D01*
X129225442Y-106353500D01*
X158804300Y-106353500D01*
X158804300Y-106453699D01*
X158830230Y-106550464D01*
X158830231Y-106550467D01*
X158880324Y-106637232D01*
X158951168Y-106708076D01*
X159037933Y-106758169D01*
X159083278Y-106770319D01*
X159134700Y-106784099D01*
X159134706Y-106784100D01*
X159234894Y-106784100D01*
X159234899Y-106784099D01*
X159263648Y-106776395D01*
X159331667Y-106758169D01*
X159418432Y-106708076D01*
X159489276Y-106637232D01*
X159539369Y-106550467D01*
X159557595Y-106482448D01*
X159565299Y-106453699D01*
X159565300Y-106453693D01*
X159565300Y-106353506D01*
X159565299Y-106353500D01*
X159551519Y-106302078D01*
X159539369Y-106256733D01*
X159489276Y-106169968D01*
X159424608Y-106105300D01*
X161867900Y-106105300D01*
X161867900Y-106205499D01*
X161881630Y-106256735D01*
X161893831Y-106302267D01*
X161943924Y-106389032D01*
X162014768Y-106459876D01*
X162101533Y-106509969D01*
X162146878Y-106522119D01*
X162198300Y-106535899D01*
X162198306Y-106535900D01*
X162298494Y-106535900D01*
X162298499Y-106535899D01*
X162327248Y-106528195D01*
X162395267Y-106509969D01*
X162482032Y-106459876D01*
X162552876Y-106389032D01*
X162602969Y-106302267D01*
X162628900Y-106205494D01*
X162628900Y-106105306D01*
X162628899Y-106105300D01*
X162606872Y-106023100D01*
X162602969Y-106008533D01*
X162552876Y-105921768D01*
X162551772Y-105920664D01*
X167694500Y-105920664D01*
X167694500Y-106079335D01*
X167725454Y-106234954D01*
X167786174Y-106381544D01*
X167786175Y-106381546D01*
X167786176Y-106381547D01*
X167795453Y-106395431D01*
X167871984Y-106509969D01*
X167874328Y-106513476D01*
X167986524Y-106625672D01*
X168118453Y-106713824D01*
X168265044Y-106774545D01*
X168420665Y-106805500D01*
X168579335Y-106805500D01*
X168734956Y-106774545D01*
X168881547Y-106713824D01*
X169013476Y-106625672D01*
X169125672Y-106513476D01*
X169213824Y-106381547D01*
X169274545Y-106234956D01*
X169305500Y-106079335D01*
X169305500Y-105920665D01*
X169305500Y-105920664D01*
X169694500Y-105920664D01*
X169694500Y-106079335D01*
X169725454Y-106234954D01*
X169786174Y-106381544D01*
X169786175Y-106381546D01*
X169786176Y-106381547D01*
X169795453Y-106395431D01*
X169871984Y-106509969D01*
X169874328Y-106513476D01*
X169986524Y-106625672D01*
X170118453Y-106713824D01*
X170265044Y-106774545D01*
X170420665Y-106805500D01*
X170579335Y-106805500D01*
X170734956Y-106774545D01*
X170881547Y-106713824D01*
X171013476Y-106625672D01*
X171125672Y-106513476D01*
X171213824Y-106381547D01*
X171274545Y-106234956D01*
X171305500Y-106079335D01*
X171305500Y-105920665D01*
X171274545Y-105765044D01*
X171213824Y-105618453D01*
X171125672Y-105486524D01*
X171013476Y-105374328D01*
X171006250Y-105369500D01*
X170902384Y-105300099D01*
X170881547Y-105286176D01*
X170881546Y-105286175D01*
X170881544Y-105286174D01*
X170734954Y-105225454D01*
X170579335Y-105194500D01*
X170420665Y-105194500D01*
X170265045Y-105225454D01*
X170118455Y-105286174D01*
X170118451Y-105286177D01*
X169986524Y-105374327D01*
X169874327Y-105486524D01*
X169786177Y-105618451D01*
X169786174Y-105618455D01*
X169725454Y-105765045D01*
X169694500Y-105920664D01*
X169305500Y-105920664D01*
X169274545Y-105765044D01*
X169213824Y-105618453D01*
X169125672Y-105486524D01*
X169013476Y-105374328D01*
X169006250Y-105369500D01*
X168902384Y-105300099D01*
X168881547Y-105286176D01*
X168881546Y-105286175D01*
X168881544Y-105286174D01*
X168734954Y-105225454D01*
X168579335Y-105194500D01*
X168420665Y-105194500D01*
X168265045Y-105225454D01*
X168118455Y-105286174D01*
X168118451Y-105286177D01*
X167986524Y-105374327D01*
X167874327Y-105486524D01*
X167786177Y-105618451D01*
X167786174Y-105618455D01*
X167725454Y-105765045D01*
X167694500Y-105920664D01*
X162551772Y-105920664D01*
X162482032Y-105850924D01*
X162395267Y-105800831D01*
X162395264Y-105800830D01*
X162298499Y-105774900D01*
X162298494Y-105774900D01*
X162198306Y-105774900D01*
X162198300Y-105774900D01*
X162101535Y-105800830D01*
X162101533Y-105800831D01*
X162014767Y-105850924D01*
X161943924Y-105921767D01*
X161893831Y-106008533D01*
X161893830Y-106008535D01*
X161867900Y-106105300D01*
X159424608Y-106105300D01*
X159418432Y-106099124D01*
X159331667Y-106049031D01*
X159331664Y-106049030D01*
X159234899Y-106023100D01*
X159234894Y-106023100D01*
X159134706Y-106023100D01*
X159134700Y-106023100D01*
X159037935Y-106049030D01*
X159037933Y-106049031D01*
X158951167Y-106099124D01*
X158880324Y-106169967D01*
X158830231Y-106256733D01*
X158830230Y-106256735D01*
X158804300Y-106353500D01*
X129225442Y-106353500D01*
X129274545Y-106234956D01*
X129305500Y-106079335D01*
X129305500Y-105920665D01*
X129274545Y-105765044D01*
X129247561Y-105699900D01*
X146869500Y-105699900D01*
X146869500Y-105800099D01*
X146887061Y-105865632D01*
X146895431Y-105896867D01*
X146945524Y-105983632D01*
X147016368Y-106054476D01*
X147103133Y-106104569D01*
X147148478Y-106116719D01*
X147199900Y-106130499D01*
X147199906Y-106130500D01*
X147300094Y-106130500D01*
X147300099Y-106130499D01*
X147328848Y-106122795D01*
X147396867Y-106104569D01*
X147483632Y-106054476D01*
X147554476Y-105983632D01*
X147604569Y-105896867D01*
X147630500Y-105800094D01*
X147630500Y-105699906D01*
X147630499Y-105699900D01*
X147869500Y-105699900D01*
X147869500Y-105800099D01*
X147887061Y-105865632D01*
X147895431Y-105896867D01*
X147945524Y-105983632D01*
X148016368Y-106054476D01*
X148103133Y-106104569D01*
X148148478Y-106116719D01*
X148199900Y-106130499D01*
X148199906Y-106130500D01*
X148300094Y-106130500D01*
X148300099Y-106130499D01*
X148328848Y-106122795D01*
X148396867Y-106104569D01*
X148483632Y-106054476D01*
X148554476Y-105983632D01*
X148604569Y-105896867D01*
X148630500Y-105800094D01*
X148630500Y-105699906D01*
X148630499Y-105699900D01*
X149869500Y-105699900D01*
X149869500Y-105800099D01*
X149887061Y-105865632D01*
X149895431Y-105896867D01*
X149945524Y-105983632D01*
X150016368Y-106054476D01*
X150103133Y-106104569D01*
X150148478Y-106116719D01*
X150199900Y-106130499D01*
X150199906Y-106130500D01*
X150300094Y-106130500D01*
X150300099Y-106130499D01*
X150328848Y-106122795D01*
X150396867Y-106104569D01*
X150483632Y-106054476D01*
X150554476Y-105983632D01*
X150604569Y-105896867D01*
X150630500Y-105800094D01*
X150630500Y-105699906D01*
X150630499Y-105699900D01*
X150611902Y-105630499D01*
X150604569Y-105603133D01*
X150554476Y-105516368D01*
X150488008Y-105449900D01*
X153954600Y-105449900D01*
X153954600Y-105550099D01*
X153976145Y-105630499D01*
X153980531Y-105646867D01*
X154030624Y-105733632D01*
X154101468Y-105804476D01*
X154188233Y-105854569D01*
X154233578Y-105866719D01*
X154285000Y-105880499D01*
X154285006Y-105880500D01*
X154385194Y-105880500D01*
X154385199Y-105880499D01*
X154413948Y-105872795D01*
X154481967Y-105854569D01*
X154568732Y-105804476D01*
X154639576Y-105733632D01*
X154689669Y-105646867D01*
X154707076Y-105581906D01*
X154707078Y-105581900D01*
X155135200Y-105581900D01*
X155135200Y-105682099D01*
X155157427Y-105765044D01*
X155161131Y-105778867D01*
X155211224Y-105865632D01*
X155282068Y-105936476D01*
X155368833Y-105986569D01*
X155414178Y-105998719D01*
X155465600Y-106012499D01*
X155465606Y-106012500D01*
X155565794Y-106012500D01*
X155565799Y-106012499D01*
X155594548Y-106004795D01*
X155662567Y-105986569D01*
X155749332Y-105936476D01*
X155820176Y-105865632D01*
X155870269Y-105778867D01*
X155896200Y-105682094D01*
X155896200Y-105581906D01*
X155896199Y-105581900D01*
X155882419Y-105530478D01*
X155870269Y-105485133D01*
X155820176Y-105398368D01*
X155749332Y-105327524D01*
X155662567Y-105277431D01*
X155662564Y-105277430D01*
X155565799Y-105251500D01*
X155565794Y-105251500D01*
X155465606Y-105251500D01*
X155465600Y-105251500D01*
X155368835Y-105277430D01*
X155368833Y-105277431D01*
X155282067Y-105327524D01*
X155211224Y-105398367D01*
X155161131Y-105485133D01*
X155161130Y-105485135D01*
X155135200Y-105581900D01*
X154707078Y-105581900D01*
X154712509Y-105561632D01*
X154715599Y-105550099D01*
X154715600Y-105550093D01*
X154715600Y-105449906D01*
X154715599Y-105449900D01*
X154695348Y-105374327D01*
X154689669Y-105353133D01*
X154639576Y-105266368D01*
X154568732Y-105195524D01*
X154481967Y-105145431D01*
X154481964Y-105145430D01*
X154385199Y-105119500D01*
X154385194Y-105119500D01*
X154285006Y-105119500D01*
X154285000Y-105119500D01*
X154188235Y-105145430D01*
X154188233Y-105145431D01*
X154101467Y-105195524D01*
X154030624Y-105266367D01*
X153980531Y-105353133D01*
X153980530Y-105353135D01*
X153954600Y-105449900D01*
X150488008Y-105449900D01*
X150483632Y-105445524D01*
X150396867Y-105395431D01*
X150396864Y-105395430D01*
X150300099Y-105369500D01*
X150300094Y-105369500D01*
X150199906Y-105369500D01*
X150199900Y-105369500D01*
X150103135Y-105395430D01*
X150103133Y-105395431D01*
X150016367Y-105445524D01*
X149945524Y-105516367D01*
X149895431Y-105603133D01*
X149895430Y-105603135D01*
X149869500Y-105699900D01*
X148630499Y-105699900D01*
X148611902Y-105630499D01*
X148604569Y-105603133D01*
X148554476Y-105516368D01*
X148483632Y-105445524D01*
X148396867Y-105395431D01*
X148396864Y-105395430D01*
X148300099Y-105369500D01*
X148300094Y-105369500D01*
X148199906Y-105369500D01*
X148199900Y-105369500D01*
X148103135Y-105395430D01*
X148103133Y-105395431D01*
X148016367Y-105445524D01*
X147945524Y-105516367D01*
X147895431Y-105603133D01*
X147895430Y-105603135D01*
X147869500Y-105699900D01*
X147630499Y-105699900D01*
X147611902Y-105630499D01*
X147604569Y-105603133D01*
X147554476Y-105516368D01*
X147483632Y-105445524D01*
X147396867Y-105395431D01*
X147396864Y-105395430D01*
X147300099Y-105369500D01*
X147300094Y-105369500D01*
X147199906Y-105369500D01*
X147199900Y-105369500D01*
X147103135Y-105395430D01*
X147103133Y-105395431D01*
X147016367Y-105445524D01*
X146945524Y-105516367D01*
X146895431Y-105603133D01*
X146895430Y-105603135D01*
X146869500Y-105699900D01*
X129247561Y-105699900D01*
X129240187Y-105682099D01*
X129213825Y-105618455D01*
X129213824Y-105618454D01*
X129213824Y-105618453D01*
X129125672Y-105486524D01*
X129013476Y-105374328D01*
X129006250Y-105369500D01*
X128902384Y-105300099D01*
X128881547Y-105286176D01*
X128881546Y-105286175D01*
X128881544Y-105286174D01*
X128802785Y-105253551D01*
X128734954Y-105225454D01*
X128606483Y-105199900D01*
X142769500Y-105199900D01*
X142769500Y-105300099D01*
X142795046Y-105395430D01*
X142795431Y-105396867D01*
X142845524Y-105483632D01*
X142916368Y-105554476D01*
X143003133Y-105604569D01*
X143048478Y-105616719D01*
X143099900Y-105630499D01*
X143099906Y-105630500D01*
X143200094Y-105630500D01*
X143200099Y-105630499D01*
X143245045Y-105618455D01*
X143296867Y-105604569D01*
X143383632Y-105554476D01*
X143454476Y-105483632D01*
X143504569Y-105396867D01*
X143530500Y-105300094D01*
X143530500Y-105199906D01*
X143530499Y-105199900D01*
X143511902Y-105130499D01*
X143504569Y-105103133D01*
X143454476Y-105016368D01*
X143383632Y-104945524D01*
X143296867Y-104895431D01*
X143296864Y-104895430D01*
X143200099Y-104869500D01*
X143200094Y-104869500D01*
X143099906Y-104869500D01*
X143099900Y-104869500D01*
X143003135Y-104895430D01*
X143003133Y-104895431D01*
X142916367Y-104945524D01*
X142845524Y-105016367D01*
X142795431Y-105103133D01*
X142795430Y-105103135D01*
X142769500Y-105199900D01*
X128606483Y-105199900D01*
X128579335Y-105194500D01*
X128420665Y-105194500D01*
X128265045Y-105225454D01*
X128118455Y-105286174D01*
X128118451Y-105286177D01*
X127986524Y-105374327D01*
X127874327Y-105486524D01*
X127786177Y-105618451D01*
X127786174Y-105618455D01*
X127725454Y-105765045D01*
X127694500Y-105920664D01*
X127305500Y-105920664D01*
X127274545Y-105765044D01*
X127213824Y-105618453D01*
X127125672Y-105486524D01*
X127013476Y-105374328D01*
X127006250Y-105369500D01*
X126902384Y-105300099D01*
X126881547Y-105286176D01*
X126881546Y-105286175D01*
X126881544Y-105286174D01*
X126734954Y-105225454D01*
X126579335Y-105194500D01*
X126420665Y-105194500D01*
X126265045Y-105225454D01*
X126118455Y-105286174D01*
X126118451Y-105286177D01*
X125986524Y-105374327D01*
X125874327Y-105486524D01*
X125786177Y-105618451D01*
X125786174Y-105618455D01*
X125725454Y-105765045D01*
X125694500Y-105920664D01*
X123300500Y-105920664D01*
X123300500Y-103920664D01*
X125694500Y-103920664D01*
X125694500Y-104079335D01*
X125725454Y-104234954D01*
X125786174Y-104381544D01*
X125786175Y-104381546D01*
X125786176Y-104381547D01*
X125874328Y-104513476D01*
X125986524Y-104625672D01*
X126118453Y-104713824D01*
X126265044Y-104774545D01*
X126420665Y-104805500D01*
X126579335Y-104805500D01*
X126734956Y-104774545D01*
X126881547Y-104713824D01*
X127013476Y-104625672D01*
X127125672Y-104513476D01*
X127213824Y-104381547D01*
X127274545Y-104234956D01*
X127305500Y-104079335D01*
X127305500Y-103920665D01*
X127305500Y-103920664D01*
X127694500Y-103920664D01*
X127694500Y-104079335D01*
X127725454Y-104234954D01*
X127786174Y-104381544D01*
X127786175Y-104381546D01*
X127786176Y-104381547D01*
X127874328Y-104513476D01*
X127986524Y-104625672D01*
X128118453Y-104713824D01*
X128265044Y-104774545D01*
X128420665Y-104805500D01*
X128579335Y-104805500D01*
X128734956Y-104774545D01*
X128881547Y-104713824D01*
X128902386Y-104699900D01*
X145869500Y-104699900D01*
X145869500Y-104800099D01*
X145895046Y-104895430D01*
X145895431Y-104896867D01*
X145945524Y-104983632D01*
X146016368Y-105054476D01*
X146103133Y-105104569D01*
X146148478Y-105116719D01*
X146199900Y-105130499D01*
X146199906Y-105130500D01*
X146300094Y-105130500D01*
X146300099Y-105130499D01*
X146341145Y-105119500D01*
X146396867Y-105104569D01*
X146483632Y-105054476D01*
X146554476Y-104983632D01*
X146604569Y-104896867D01*
X146624049Y-104824168D01*
X146630499Y-104800099D01*
X146630500Y-104800093D01*
X146630500Y-104699906D01*
X146630499Y-104699900D01*
X146869500Y-104699900D01*
X146869500Y-104800099D01*
X146895046Y-104895430D01*
X146895431Y-104896867D01*
X146945524Y-104983632D01*
X147016368Y-105054476D01*
X147103133Y-105104569D01*
X147148478Y-105116719D01*
X147199900Y-105130499D01*
X147199906Y-105130500D01*
X147300094Y-105130500D01*
X147300099Y-105130499D01*
X147341145Y-105119500D01*
X147396867Y-105104569D01*
X147483632Y-105054476D01*
X147554476Y-104983632D01*
X147604569Y-104896867D01*
X147624049Y-104824168D01*
X147630499Y-104800099D01*
X147630500Y-104800093D01*
X147630500Y-104699906D01*
X147630499Y-104699900D01*
X147869500Y-104699900D01*
X147869500Y-104800099D01*
X147895046Y-104895430D01*
X147895431Y-104896867D01*
X147945524Y-104983632D01*
X148016368Y-105054476D01*
X148103133Y-105104569D01*
X148148478Y-105116719D01*
X148199900Y-105130499D01*
X148199906Y-105130500D01*
X148300094Y-105130500D01*
X148300099Y-105130499D01*
X148341145Y-105119500D01*
X148396867Y-105104569D01*
X148483632Y-105054476D01*
X148554476Y-104983632D01*
X148604569Y-104896867D01*
X148624049Y-104824168D01*
X148630499Y-104800099D01*
X148630500Y-104800093D01*
X148630500Y-104699906D01*
X148630499Y-104699900D01*
X148869500Y-104699900D01*
X148869500Y-104800099D01*
X148895046Y-104895430D01*
X148895431Y-104896867D01*
X148945524Y-104983632D01*
X149016368Y-105054476D01*
X149103133Y-105104569D01*
X149148478Y-105116719D01*
X149199900Y-105130499D01*
X149199906Y-105130500D01*
X149300094Y-105130500D01*
X149300099Y-105130499D01*
X149341145Y-105119500D01*
X149396867Y-105104569D01*
X149483632Y-105054476D01*
X149554476Y-104983632D01*
X149604569Y-104896867D01*
X149624049Y-104824168D01*
X149630499Y-104800099D01*
X149630500Y-104800093D01*
X149630500Y-104699906D01*
X149630499Y-104699900D01*
X149869500Y-104699900D01*
X149869500Y-104800099D01*
X149895046Y-104895430D01*
X149895431Y-104896867D01*
X149945524Y-104983632D01*
X150016368Y-105054476D01*
X150103133Y-105104569D01*
X150148478Y-105116719D01*
X150199900Y-105130499D01*
X150199906Y-105130500D01*
X150300094Y-105130500D01*
X150300099Y-105130499D01*
X150341145Y-105119500D01*
X150396867Y-105104569D01*
X150483632Y-105054476D01*
X150554476Y-104983632D01*
X150604569Y-104896867D01*
X150624049Y-104824168D01*
X150630499Y-104800099D01*
X150630500Y-104800093D01*
X150630500Y-104699906D01*
X150630499Y-104699900D01*
X151869500Y-104699900D01*
X151869500Y-104800099D01*
X151895046Y-104895430D01*
X151895431Y-104896867D01*
X151945524Y-104983632D01*
X152016368Y-105054476D01*
X152103133Y-105104569D01*
X152148478Y-105116719D01*
X152199900Y-105130499D01*
X152199906Y-105130500D01*
X152300094Y-105130500D01*
X152300099Y-105130499D01*
X152341145Y-105119500D01*
X152396867Y-105104569D01*
X152483632Y-105054476D01*
X152530408Y-105007700D01*
X163984800Y-105007700D01*
X163984800Y-105107899D01*
X164009455Y-105199906D01*
X164010731Y-105204667D01*
X164060824Y-105291432D01*
X164131668Y-105362276D01*
X164218433Y-105412369D01*
X164263778Y-105424519D01*
X164315200Y-105438299D01*
X164315206Y-105438300D01*
X164415394Y-105438300D01*
X164415399Y-105438299D01*
X164444148Y-105430595D01*
X164512167Y-105412369D01*
X164598932Y-105362276D01*
X164669776Y-105291432D01*
X164719869Y-105204667D01*
X164745800Y-105107894D01*
X164745800Y-105007706D01*
X164745799Y-105007700D01*
X164729138Y-104945524D01*
X164719869Y-104910933D01*
X164669776Y-104824168D01*
X164598932Y-104753324D01*
X164512167Y-104703231D01*
X164512164Y-104703230D01*
X164415399Y-104677300D01*
X164415394Y-104677300D01*
X164315206Y-104677300D01*
X164315200Y-104677300D01*
X164218435Y-104703230D01*
X164218433Y-104703231D01*
X164131667Y-104753324D01*
X164060824Y-104824167D01*
X164010731Y-104910933D01*
X164010730Y-104910935D01*
X163984800Y-105007700D01*
X152530408Y-105007700D01*
X152554476Y-104983632D01*
X152604569Y-104896867D01*
X152624049Y-104824168D01*
X152630499Y-104800099D01*
X152630500Y-104800093D01*
X152630500Y-104699906D01*
X152630499Y-104699900D01*
X152610608Y-104625672D01*
X152604569Y-104603133D01*
X152554476Y-104516368D01*
X152483632Y-104445524D01*
X152396867Y-104395431D01*
X152396864Y-104395430D01*
X152300099Y-104369500D01*
X152300094Y-104369500D01*
X152199906Y-104369500D01*
X152199900Y-104369500D01*
X152103135Y-104395430D01*
X152103133Y-104395431D01*
X152016367Y-104445524D01*
X151945524Y-104516367D01*
X151895431Y-104603133D01*
X151895430Y-104603135D01*
X151869500Y-104699900D01*
X150630499Y-104699900D01*
X150610608Y-104625672D01*
X150604569Y-104603133D01*
X150554476Y-104516368D01*
X150483632Y-104445524D01*
X150396867Y-104395431D01*
X150396864Y-104395430D01*
X150300099Y-104369500D01*
X150300094Y-104369500D01*
X150199906Y-104369500D01*
X150199900Y-104369500D01*
X150103135Y-104395430D01*
X150103133Y-104395431D01*
X150016367Y-104445524D01*
X149945524Y-104516367D01*
X149895431Y-104603133D01*
X149895430Y-104603135D01*
X149869500Y-104699900D01*
X149630499Y-104699900D01*
X149610608Y-104625672D01*
X149604569Y-104603133D01*
X149554476Y-104516368D01*
X149483632Y-104445524D01*
X149396867Y-104395431D01*
X149396864Y-104395430D01*
X149300099Y-104369500D01*
X149300094Y-104369500D01*
X149199906Y-104369500D01*
X149199900Y-104369500D01*
X149103135Y-104395430D01*
X149103133Y-104395431D01*
X149016367Y-104445524D01*
X148945524Y-104516367D01*
X148895431Y-104603133D01*
X148895430Y-104603135D01*
X148869500Y-104699900D01*
X148630499Y-104699900D01*
X148610608Y-104625672D01*
X148604569Y-104603133D01*
X148554476Y-104516368D01*
X148483632Y-104445524D01*
X148396867Y-104395431D01*
X148396864Y-104395430D01*
X148300099Y-104369500D01*
X148300094Y-104369500D01*
X148199906Y-104369500D01*
X148199900Y-104369500D01*
X148103135Y-104395430D01*
X148103133Y-104395431D01*
X148016367Y-104445524D01*
X147945524Y-104516367D01*
X147895431Y-104603133D01*
X147895430Y-104603135D01*
X147869500Y-104699900D01*
X147630499Y-104699900D01*
X147610608Y-104625672D01*
X147604569Y-104603133D01*
X147554476Y-104516368D01*
X147483632Y-104445524D01*
X147396867Y-104395431D01*
X147396864Y-104395430D01*
X147300099Y-104369500D01*
X147300094Y-104369500D01*
X147199906Y-104369500D01*
X147199900Y-104369500D01*
X147103135Y-104395430D01*
X147103133Y-104395431D01*
X147016367Y-104445524D01*
X146945524Y-104516367D01*
X146895431Y-104603133D01*
X146895430Y-104603135D01*
X146869500Y-104699900D01*
X146630499Y-104699900D01*
X146610608Y-104625672D01*
X146604569Y-104603133D01*
X146554476Y-104516368D01*
X146483632Y-104445524D01*
X146396867Y-104395431D01*
X146396864Y-104395430D01*
X146300099Y-104369500D01*
X146300094Y-104369500D01*
X146199906Y-104369500D01*
X146199900Y-104369500D01*
X146103135Y-104395430D01*
X146103133Y-104395431D01*
X146016367Y-104445524D01*
X145945524Y-104516367D01*
X145895431Y-104603133D01*
X145895430Y-104603135D01*
X145869500Y-104699900D01*
X128902386Y-104699900D01*
X129013476Y-104625672D01*
X129125672Y-104513476D01*
X129213824Y-104381547D01*
X129274545Y-104234956D01*
X129305500Y-104079335D01*
X129305500Y-103920665D01*
X129274545Y-103765044D01*
X129247561Y-103699900D01*
X144869500Y-103699900D01*
X144869500Y-103800099D01*
X144895430Y-103896864D01*
X144895431Y-103896867D01*
X144945524Y-103983632D01*
X145016368Y-104054476D01*
X145103133Y-104104569D01*
X145148478Y-104116719D01*
X145199900Y-104130499D01*
X145199906Y-104130500D01*
X145300094Y-104130500D01*
X145300099Y-104130499D01*
X145328848Y-104122795D01*
X145396867Y-104104569D01*
X145483632Y-104054476D01*
X145554476Y-103983632D01*
X145604569Y-103896867D01*
X145630500Y-103800094D01*
X145630500Y-103699906D01*
X145630499Y-103699900D01*
X146869500Y-103699900D01*
X146869500Y-103800099D01*
X146895430Y-103896864D01*
X146895431Y-103896867D01*
X146945524Y-103983632D01*
X147016368Y-104054476D01*
X147103133Y-104104569D01*
X147148478Y-104116719D01*
X147199900Y-104130499D01*
X147199906Y-104130500D01*
X147300094Y-104130500D01*
X147300099Y-104130499D01*
X147328848Y-104122795D01*
X147396867Y-104104569D01*
X147483632Y-104054476D01*
X147554476Y-103983632D01*
X147604569Y-103896867D01*
X147630500Y-103800094D01*
X147630500Y-103699906D01*
X147630499Y-103699900D01*
X147869500Y-103699900D01*
X147869500Y-103800099D01*
X147895430Y-103896864D01*
X147895431Y-103896867D01*
X147945524Y-103983632D01*
X148016368Y-104054476D01*
X148103133Y-104104569D01*
X148148478Y-104116719D01*
X148199900Y-104130499D01*
X148199906Y-104130500D01*
X148300094Y-104130500D01*
X148300099Y-104130499D01*
X148328848Y-104122795D01*
X148396867Y-104104569D01*
X148483632Y-104054476D01*
X148554476Y-103983632D01*
X148604569Y-103896867D01*
X148630500Y-103800094D01*
X148630500Y-103699906D01*
X148630499Y-103699900D01*
X148869500Y-103699900D01*
X148869500Y-103800099D01*
X148895430Y-103896864D01*
X148895431Y-103896867D01*
X148945524Y-103983632D01*
X149016368Y-104054476D01*
X149103133Y-104104569D01*
X149148478Y-104116719D01*
X149199900Y-104130499D01*
X149199906Y-104130500D01*
X149300094Y-104130500D01*
X149300099Y-104130499D01*
X149328848Y-104122795D01*
X149396867Y-104104569D01*
X149483632Y-104054476D01*
X149554476Y-103983632D01*
X149590830Y-103920664D01*
X167694500Y-103920664D01*
X167694500Y-104079335D01*
X167725454Y-104234954D01*
X167786174Y-104381544D01*
X167786175Y-104381546D01*
X167786176Y-104381547D01*
X167874328Y-104513476D01*
X167986524Y-104625672D01*
X168118453Y-104713824D01*
X168265044Y-104774545D01*
X168420665Y-104805500D01*
X168579335Y-104805500D01*
X168734956Y-104774545D01*
X168881547Y-104713824D01*
X169013476Y-104625672D01*
X169125672Y-104513476D01*
X169213824Y-104381547D01*
X169274545Y-104234956D01*
X169305500Y-104079335D01*
X169305500Y-103920665D01*
X169305500Y-103920664D01*
X169694500Y-103920664D01*
X169694500Y-104079335D01*
X169725454Y-104234954D01*
X169786174Y-104381544D01*
X169786175Y-104381546D01*
X169786176Y-104381547D01*
X169874328Y-104513476D01*
X169986524Y-104625672D01*
X170118453Y-104713824D01*
X170265044Y-104774545D01*
X170420665Y-104805500D01*
X170579335Y-104805500D01*
X170734956Y-104774545D01*
X170881547Y-104713824D01*
X171013476Y-104625672D01*
X171125672Y-104513476D01*
X171213824Y-104381547D01*
X171274545Y-104234956D01*
X171305500Y-104079335D01*
X171305500Y-103920665D01*
X171274545Y-103765044D01*
X171213824Y-103618453D01*
X171125672Y-103486524D01*
X171013476Y-103374328D01*
X171006250Y-103369500D01*
X170881548Y-103286177D01*
X170881544Y-103286174D01*
X170734954Y-103225454D01*
X170579335Y-103194500D01*
X170420665Y-103194500D01*
X170265045Y-103225454D01*
X170118455Y-103286174D01*
X170118451Y-103286177D01*
X169986524Y-103374327D01*
X169874327Y-103486524D01*
X169786177Y-103618451D01*
X169786174Y-103618455D01*
X169725454Y-103765045D01*
X169694500Y-103920664D01*
X169305500Y-103920664D01*
X169274545Y-103765044D01*
X169213824Y-103618453D01*
X169125672Y-103486524D01*
X169013476Y-103374328D01*
X169006250Y-103369500D01*
X168881548Y-103286177D01*
X168881544Y-103286174D01*
X168734954Y-103225454D01*
X168579335Y-103194500D01*
X168420665Y-103194500D01*
X168265045Y-103225454D01*
X168118455Y-103286174D01*
X168118451Y-103286177D01*
X167986524Y-103374327D01*
X167874327Y-103486524D01*
X167786177Y-103618451D01*
X167786174Y-103618455D01*
X167725454Y-103765045D01*
X167694500Y-103920664D01*
X149590830Y-103920664D01*
X149604569Y-103896867D01*
X149630500Y-103800094D01*
X149630500Y-103699906D01*
X149630499Y-103699900D01*
X149616719Y-103648478D01*
X149604569Y-103603133D01*
X149554476Y-103516368D01*
X149483632Y-103445524D01*
X149396867Y-103395431D01*
X149396864Y-103395430D01*
X149300099Y-103369500D01*
X149300094Y-103369500D01*
X149199906Y-103369500D01*
X149199900Y-103369500D01*
X149103135Y-103395430D01*
X149103133Y-103395431D01*
X149016367Y-103445524D01*
X148945524Y-103516367D01*
X148895431Y-103603133D01*
X148895430Y-103603135D01*
X148869500Y-103699900D01*
X148630499Y-103699900D01*
X148616719Y-103648478D01*
X148604569Y-103603133D01*
X148554476Y-103516368D01*
X148483632Y-103445524D01*
X148396867Y-103395431D01*
X148396864Y-103395430D01*
X148300099Y-103369500D01*
X148300094Y-103369500D01*
X148199906Y-103369500D01*
X148199900Y-103369500D01*
X148103135Y-103395430D01*
X148103133Y-103395431D01*
X148016367Y-103445524D01*
X147945524Y-103516367D01*
X147895431Y-103603133D01*
X147895430Y-103603135D01*
X147869500Y-103699900D01*
X147630499Y-103699900D01*
X147616719Y-103648478D01*
X147604569Y-103603133D01*
X147554476Y-103516368D01*
X147483632Y-103445524D01*
X147396867Y-103395431D01*
X147396864Y-103395430D01*
X147300099Y-103369500D01*
X147300094Y-103369500D01*
X147199906Y-103369500D01*
X147199900Y-103369500D01*
X147103135Y-103395430D01*
X147103133Y-103395431D01*
X147016367Y-103445524D01*
X146945524Y-103516367D01*
X146895431Y-103603133D01*
X146895430Y-103603135D01*
X146869500Y-103699900D01*
X145630499Y-103699900D01*
X145616719Y-103648478D01*
X145604569Y-103603133D01*
X145554476Y-103516368D01*
X145483632Y-103445524D01*
X145396867Y-103395431D01*
X145396864Y-103395430D01*
X145300099Y-103369500D01*
X145300094Y-103369500D01*
X145199906Y-103369500D01*
X145199900Y-103369500D01*
X145103135Y-103395430D01*
X145103133Y-103395431D01*
X145016367Y-103445524D01*
X144945524Y-103516367D01*
X144895431Y-103603133D01*
X144895430Y-103603135D01*
X144869500Y-103699900D01*
X129247561Y-103699900D01*
X129244785Y-103693199D01*
X129213825Y-103618455D01*
X129213824Y-103618454D01*
X129213824Y-103618453D01*
X129125672Y-103486524D01*
X129013476Y-103374328D01*
X129006250Y-103369500D01*
X128881548Y-103286177D01*
X128881544Y-103286174D01*
X128824632Y-103262600D01*
X164517200Y-103262600D01*
X164517200Y-103362799D01*
X164539368Y-103445524D01*
X164543131Y-103459567D01*
X164593224Y-103546332D01*
X164664068Y-103617176D01*
X164750833Y-103667269D01*
X164796178Y-103679419D01*
X164847600Y-103693199D01*
X164847606Y-103693200D01*
X164947794Y-103693200D01*
X164947799Y-103693199D01*
X164976548Y-103685495D01*
X165044567Y-103667269D01*
X165131332Y-103617176D01*
X165202176Y-103546332D01*
X165252269Y-103459567D01*
X165270495Y-103391548D01*
X165278199Y-103362799D01*
X165278200Y-103362793D01*
X165278200Y-103262606D01*
X165278199Y-103262600D01*
X165262598Y-103204382D01*
X165252269Y-103165833D01*
X165202176Y-103079068D01*
X165131332Y-103008224D01*
X165044567Y-102958131D01*
X165044564Y-102958130D01*
X164947799Y-102932200D01*
X164947794Y-102932200D01*
X164847606Y-102932200D01*
X164847600Y-102932200D01*
X164750835Y-102958130D01*
X164750833Y-102958131D01*
X164664067Y-103008224D01*
X164593224Y-103079067D01*
X164543131Y-103165833D01*
X164543130Y-103165835D01*
X164517200Y-103262600D01*
X128824632Y-103262600D01*
X128734954Y-103225454D01*
X128579335Y-103194500D01*
X128420665Y-103194500D01*
X128265045Y-103225454D01*
X128118455Y-103286174D01*
X128118451Y-103286177D01*
X127986524Y-103374327D01*
X127874327Y-103486524D01*
X127786177Y-103618451D01*
X127786174Y-103618455D01*
X127725454Y-103765045D01*
X127694500Y-103920664D01*
X127305500Y-103920664D01*
X127274545Y-103765044D01*
X127213824Y-103618453D01*
X127125672Y-103486524D01*
X127013476Y-103374328D01*
X127006250Y-103369500D01*
X126881548Y-103286177D01*
X126881544Y-103286174D01*
X126734954Y-103225454D01*
X126579335Y-103194500D01*
X126420665Y-103194500D01*
X126265045Y-103225454D01*
X126118455Y-103286174D01*
X126118451Y-103286177D01*
X125986524Y-103374327D01*
X125874327Y-103486524D01*
X125786177Y-103618451D01*
X125786174Y-103618455D01*
X125725454Y-103765045D01*
X125694500Y-103920664D01*
X123300500Y-103920664D01*
X123300500Y-102820400D01*
X154817800Y-102820400D01*
X154817800Y-102920599D01*
X154841281Y-103008224D01*
X154843731Y-103017367D01*
X154893824Y-103104132D01*
X154964668Y-103174976D01*
X155051433Y-103225069D01*
X155096778Y-103237219D01*
X155148200Y-103250999D01*
X155148206Y-103251000D01*
X155248394Y-103251000D01*
X155248399Y-103250999D01*
X155277148Y-103243295D01*
X155345167Y-103225069D01*
X155431932Y-103174976D01*
X155502776Y-103104132D01*
X155552869Y-103017367D01*
X155578800Y-102920594D01*
X155578800Y-102820406D01*
X155578799Y-102820400D01*
X155562230Y-102758567D01*
X155552869Y-102723633D01*
X155502776Y-102636868D01*
X155431932Y-102566024D01*
X155345167Y-102515931D01*
X155345164Y-102515930D01*
X155248399Y-102490000D01*
X155248394Y-102490000D01*
X155148206Y-102490000D01*
X155148200Y-102490000D01*
X155051435Y-102515930D01*
X155051433Y-102515931D01*
X154964667Y-102566024D01*
X154893824Y-102636867D01*
X154843731Y-102723633D01*
X154843730Y-102723635D01*
X154817800Y-102820400D01*
X123300500Y-102820400D01*
X123300500Y-101920664D01*
X125694500Y-101920664D01*
X125694500Y-102079335D01*
X125725454Y-102234954D01*
X125786174Y-102381544D01*
X125786175Y-102381546D01*
X125786176Y-102381547D01*
X125874328Y-102513476D01*
X125986524Y-102625672D01*
X126118453Y-102713824D01*
X126118454Y-102713824D01*
X126118455Y-102713825D01*
X126142138Y-102723635D01*
X126265044Y-102774545D01*
X126420665Y-102805500D01*
X126579335Y-102805500D01*
X126734956Y-102774545D01*
X126881547Y-102713824D01*
X127013476Y-102625672D01*
X127125672Y-102513476D01*
X127213824Y-102381547D01*
X127274545Y-102234956D01*
X127305500Y-102079335D01*
X127305500Y-101920665D01*
X127305500Y-101920664D01*
X127694500Y-101920664D01*
X127694500Y-102079335D01*
X127725454Y-102234954D01*
X127786174Y-102381544D01*
X127786175Y-102381546D01*
X127786176Y-102381547D01*
X127874328Y-102513476D01*
X127986524Y-102625672D01*
X128118453Y-102713824D01*
X128118454Y-102713824D01*
X128118455Y-102713825D01*
X128142138Y-102723635D01*
X128265044Y-102774545D01*
X128420665Y-102805500D01*
X128579335Y-102805500D01*
X128734956Y-102774545D01*
X128881547Y-102713824D01*
X129013476Y-102625672D01*
X129125672Y-102513476D01*
X129213824Y-102381547D01*
X129274545Y-102234956D01*
X129305500Y-102079335D01*
X129305500Y-101920665D01*
X129305500Y-101920664D01*
X167694500Y-101920664D01*
X167694500Y-102079335D01*
X167725454Y-102234954D01*
X167786174Y-102381544D01*
X167786175Y-102381546D01*
X167786176Y-102381547D01*
X167874328Y-102513476D01*
X167986524Y-102625672D01*
X168118453Y-102713824D01*
X168118454Y-102713824D01*
X168118455Y-102713825D01*
X168142138Y-102723635D01*
X168265044Y-102774545D01*
X168420665Y-102805500D01*
X168579335Y-102805500D01*
X168734956Y-102774545D01*
X168881547Y-102713824D01*
X169013476Y-102625672D01*
X169125672Y-102513476D01*
X169213824Y-102381547D01*
X169274545Y-102234956D01*
X169305500Y-102079335D01*
X169305500Y-101920665D01*
X169305500Y-101920664D01*
X169694500Y-101920664D01*
X169694500Y-102079335D01*
X169725454Y-102234954D01*
X169786174Y-102381544D01*
X169786175Y-102381546D01*
X169786176Y-102381547D01*
X169874328Y-102513476D01*
X169986524Y-102625672D01*
X170118453Y-102713824D01*
X170118454Y-102713824D01*
X170118455Y-102713825D01*
X170142138Y-102723635D01*
X170265044Y-102774545D01*
X170420665Y-102805500D01*
X170579335Y-102805500D01*
X170734956Y-102774545D01*
X170881547Y-102713824D01*
X171013476Y-102625672D01*
X171125672Y-102513476D01*
X171213824Y-102381547D01*
X171274545Y-102234956D01*
X171305500Y-102079335D01*
X171305500Y-101920665D01*
X171274545Y-101765044D01*
X171213824Y-101618453D01*
X171125672Y-101486524D01*
X171013476Y-101374328D01*
X170881547Y-101286176D01*
X170881546Y-101286175D01*
X170881544Y-101286174D01*
X170734954Y-101225454D01*
X170579335Y-101194500D01*
X170420665Y-101194500D01*
X170265045Y-101225454D01*
X170118455Y-101286174D01*
X170118451Y-101286177D01*
X169986524Y-101374327D01*
X169874327Y-101486524D01*
X169786177Y-101618451D01*
X169786174Y-101618455D01*
X169725454Y-101765045D01*
X169694500Y-101920664D01*
X169305500Y-101920664D01*
X169274545Y-101765044D01*
X169213824Y-101618453D01*
X169125672Y-101486524D01*
X169013476Y-101374328D01*
X168881547Y-101286176D01*
X168881546Y-101286175D01*
X168881544Y-101286174D01*
X168734954Y-101225454D01*
X168579335Y-101194500D01*
X168420665Y-101194500D01*
X168265045Y-101225454D01*
X168118455Y-101286174D01*
X168118451Y-101286177D01*
X167986524Y-101374327D01*
X167874327Y-101486524D01*
X167786177Y-101618451D01*
X167786174Y-101618455D01*
X167725454Y-101765045D01*
X167694500Y-101920664D01*
X129305500Y-101920664D01*
X129274545Y-101765044D01*
X129213824Y-101618453D01*
X129125672Y-101486524D01*
X129013476Y-101374328D01*
X128881547Y-101286176D01*
X128881546Y-101286175D01*
X128881544Y-101286174D01*
X128734954Y-101225454D01*
X128579335Y-101194500D01*
X128420665Y-101194500D01*
X128265045Y-101225454D01*
X128118455Y-101286174D01*
X128118451Y-101286177D01*
X127986524Y-101374327D01*
X127874327Y-101486524D01*
X127786177Y-101618451D01*
X127786174Y-101618455D01*
X127725454Y-101765045D01*
X127694500Y-101920664D01*
X127305500Y-101920664D01*
X127274545Y-101765044D01*
X127213824Y-101618453D01*
X127125672Y-101486524D01*
X127013476Y-101374328D01*
X126881547Y-101286176D01*
X126881546Y-101286175D01*
X126881544Y-101286174D01*
X126734954Y-101225454D01*
X126579335Y-101194500D01*
X126420665Y-101194500D01*
X126265045Y-101225454D01*
X126118455Y-101286174D01*
X126118451Y-101286177D01*
X125986524Y-101374327D01*
X125874327Y-101486524D01*
X125786177Y-101618451D01*
X125786174Y-101618455D01*
X125725454Y-101765045D01*
X125694500Y-101920664D01*
X123300500Y-101920664D01*
X123300500Y-100889700D01*
X146448500Y-100889700D01*
X146448500Y-100989899D01*
X146472422Y-101079169D01*
X146474431Y-101086667D01*
X146524524Y-101173432D01*
X146595368Y-101244276D01*
X146682133Y-101294369D01*
X146727478Y-101306519D01*
X146778900Y-101320299D01*
X146778906Y-101320300D01*
X146879094Y-101320300D01*
X146879099Y-101320299D01*
X146907848Y-101312595D01*
X146975867Y-101294369D01*
X147062632Y-101244276D01*
X147133476Y-101173432D01*
X147183569Y-101086667D01*
X147208105Y-100995100D01*
X147209499Y-100989899D01*
X147209500Y-100989893D01*
X147209500Y-100889706D01*
X147209499Y-100889700D01*
X147186936Y-100805499D01*
X147183569Y-100792933D01*
X147133476Y-100706168D01*
X147062632Y-100635324D01*
X147062631Y-100635323D01*
X147026626Y-100614536D01*
X146975867Y-100585231D01*
X146975864Y-100585230D01*
X146898504Y-100564500D01*
X148869500Y-100564500D01*
X148869500Y-100664699D01*
X148895430Y-100761464D01*
X148895431Y-100761467D01*
X148945524Y-100848232D01*
X149016368Y-100919076D01*
X149103133Y-100969169D01*
X149148478Y-100981319D01*
X149199900Y-100995099D01*
X149199906Y-100995100D01*
X149300094Y-100995100D01*
X149300099Y-100995099D01*
X149328848Y-100987395D01*
X149396867Y-100969169D01*
X149483632Y-100919076D01*
X149554476Y-100848232D01*
X149604569Y-100761467D01*
X149627872Y-100674500D01*
X153962600Y-100674500D01*
X153962600Y-100774699D01*
X153982305Y-100848232D01*
X153988531Y-100871467D01*
X154038624Y-100958232D01*
X154109468Y-101029076D01*
X154196233Y-101079169D01*
X154241578Y-101091319D01*
X154293000Y-101105099D01*
X154293006Y-101105100D01*
X154393194Y-101105100D01*
X154393199Y-101105099D01*
X154421948Y-101097395D01*
X154489967Y-101079169D01*
X154576732Y-101029076D01*
X154647576Y-100958232D01*
X154697669Y-100871467D01*
X154723600Y-100774694D01*
X154723600Y-100674506D01*
X154723599Y-100674500D01*
X154699678Y-100585231D01*
X154697669Y-100577733D01*
X154647576Y-100490968D01*
X154576732Y-100420124D01*
X154489967Y-100370031D01*
X154489964Y-100370030D01*
X154393199Y-100344100D01*
X154393194Y-100344100D01*
X154293006Y-100344100D01*
X154293000Y-100344100D01*
X154196235Y-100370030D01*
X154196233Y-100370031D01*
X154109467Y-100420124D01*
X154038624Y-100490967D01*
X153988531Y-100577733D01*
X153988530Y-100577735D01*
X153962600Y-100674500D01*
X149627872Y-100674500D01*
X149630500Y-100664694D01*
X149630500Y-100564506D01*
X149630499Y-100564500D01*
X149610795Y-100490968D01*
X149604569Y-100467733D01*
X149554476Y-100380968D01*
X149483632Y-100310124D01*
X149396867Y-100260031D01*
X149396864Y-100260030D01*
X149300099Y-100234100D01*
X149300094Y-100234100D01*
X149199906Y-100234100D01*
X149199900Y-100234100D01*
X149103135Y-100260030D01*
X149103133Y-100260031D01*
X149016367Y-100310124D01*
X148945524Y-100380967D01*
X148895431Y-100467733D01*
X148895430Y-100467735D01*
X148869500Y-100564500D01*
X146898504Y-100564500D01*
X146879099Y-100559300D01*
X146879094Y-100559300D01*
X146778906Y-100559300D01*
X146778900Y-100559300D01*
X146682135Y-100585230D01*
X146682133Y-100585231D01*
X146595367Y-100635324D01*
X146524524Y-100706167D01*
X146474431Y-100792933D01*
X146474430Y-100792935D01*
X146448500Y-100889700D01*
X123300500Y-100889700D01*
X123300500Y-99920664D01*
X125694500Y-99920664D01*
X125694500Y-100079335D01*
X125725454Y-100234954D01*
X125786174Y-100381544D01*
X125786175Y-100381546D01*
X125786176Y-100381547D01*
X125811952Y-100420124D01*
X125859288Y-100490968D01*
X125874328Y-100513476D01*
X125986524Y-100625672D01*
X126118453Y-100713824D01*
X126265044Y-100774545D01*
X126420665Y-100805500D01*
X126579335Y-100805500D01*
X126734956Y-100774545D01*
X126881547Y-100713824D01*
X127013476Y-100625672D01*
X127125672Y-100513476D01*
X127213824Y-100381547D01*
X127274545Y-100234956D01*
X127305500Y-100079335D01*
X127305500Y-99920665D01*
X127305500Y-99920664D01*
X127694500Y-99920664D01*
X127694500Y-100079335D01*
X127725454Y-100234954D01*
X127786174Y-100381544D01*
X127786175Y-100381546D01*
X127786176Y-100381547D01*
X127811952Y-100420124D01*
X127859288Y-100490968D01*
X127874328Y-100513476D01*
X127986524Y-100625672D01*
X128118453Y-100713824D01*
X128265044Y-100774545D01*
X128420665Y-100805500D01*
X128579335Y-100805500D01*
X128734956Y-100774545D01*
X128881547Y-100713824D01*
X129013476Y-100625672D01*
X129125672Y-100513476D01*
X129180773Y-100431011D01*
X129220546Y-100404436D01*
X129267462Y-100413768D01*
X129276933Y-100421541D01*
X129332868Y-100477476D01*
X129419633Y-100527569D01*
X129464978Y-100539719D01*
X129516400Y-100553499D01*
X129516406Y-100553500D01*
X129616594Y-100553500D01*
X129616599Y-100553499D01*
X129645348Y-100545795D01*
X129713367Y-100527569D01*
X129800132Y-100477476D01*
X129870976Y-100406632D01*
X129921069Y-100319867D01*
X129939873Y-100249693D01*
X129946999Y-100223099D01*
X129947000Y-100223093D01*
X129947000Y-100149500D01*
X153081200Y-100149500D01*
X153081200Y-100249699D01*
X153100003Y-100319866D01*
X153107131Y-100346467D01*
X153157224Y-100433232D01*
X153228068Y-100504076D01*
X153314833Y-100554169D01*
X153353388Y-100564500D01*
X153411600Y-100580099D01*
X153411606Y-100580100D01*
X153511794Y-100580100D01*
X153511799Y-100580099D01*
X153540548Y-100572395D01*
X153608567Y-100554169D01*
X153695332Y-100504076D01*
X153766176Y-100433232D01*
X153816269Y-100346467D01*
X153839430Y-100260031D01*
X153842199Y-100249699D01*
X153842200Y-100249693D01*
X153842200Y-100149506D01*
X153842199Y-100149500D01*
X153818719Y-100061876D01*
X153816269Y-100052733D01*
X153766176Y-99965968D01*
X153720872Y-99920664D01*
X167694500Y-99920664D01*
X167694500Y-100079335D01*
X167725454Y-100234954D01*
X167786174Y-100381544D01*
X167786175Y-100381546D01*
X167786176Y-100381547D01*
X167811952Y-100420124D01*
X167859288Y-100490968D01*
X167874328Y-100513476D01*
X167986524Y-100625672D01*
X168118453Y-100713824D01*
X168265044Y-100774545D01*
X168420665Y-100805500D01*
X168579335Y-100805500D01*
X168734956Y-100774545D01*
X168881547Y-100713824D01*
X169013476Y-100625672D01*
X169125672Y-100513476D01*
X169213824Y-100381547D01*
X169274545Y-100234956D01*
X169305500Y-100079335D01*
X169305500Y-99920665D01*
X169305500Y-99920664D01*
X169694500Y-99920664D01*
X169694500Y-100079335D01*
X169725454Y-100234954D01*
X169786174Y-100381544D01*
X169786175Y-100381546D01*
X169786176Y-100381547D01*
X169811952Y-100420124D01*
X169859288Y-100490968D01*
X169874328Y-100513476D01*
X169986524Y-100625672D01*
X170118453Y-100713824D01*
X170265044Y-100774545D01*
X170420665Y-100805500D01*
X170579335Y-100805500D01*
X170734956Y-100774545D01*
X170881547Y-100713824D01*
X171013476Y-100625672D01*
X171125672Y-100513476D01*
X171213824Y-100381547D01*
X171274545Y-100234956D01*
X171305500Y-100079335D01*
X171305500Y-99920665D01*
X171274545Y-99765044D01*
X171213824Y-99618453D01*
X171125672Y-99486524D01*
X171013476Y-99374328D01*
X170997522Y-99363668D01*
X170922554Y-99313576D01*
X170881547Y-99286176D01*
X170881546Y-99286175D01*
X170881544Y-99286174D01*
X170734954Y-99225454D01*
X170579335Y-99194500D01*
X170420665Y-99194500D01*
X170265045Y-99225454D01*
X170118455Y-99286174D01*
X170118451Y-99286177D01*
X169986524Y-99374327D01*
X169874327Y-99486524D01*
X169786177Y-99618451D01*
X169786174Y-99618455D01*
X169725454Y-99765045D01*
X169694500Y-99920664D01*
X169305500Y-99920664D01*
X169274545Y-99765044D01*
X169213824Y-99618453D01*
X169125672Y-99486524D01*
X169013476Y-99374328D01*
X168997522Y-99363668D01*
X168922554Y-99313576D01*
X168881547Y-99286176D01*
X168881546Y-99286175D01*
X168881544Y-99286174D01*
X168734954Y-99225454D01*
X168579335Y-99194500D01*
X168420665Y-99194500D01*
X168265045Y-99225454D01*
X168118455Y-99286174D01*
X168118451Y-99286177D01*
X167986524Y-99374327D01*
X167874327Y-99486524D01*
X167786177Y-99618451D01*
X167786174Y-99618455D01*
X167725454Y-99765045D01*
X167694500Y-99920664D01*
X153720872Y-99920664D01*
X153695332Y-99895124D01*
X153608567Y-99845031D01*
X153608564Y-99845030D01*
X153511799Y-99819100D01*
X153511794Y-99819100D01*
X153411606Y-99819100D01*
X153411600Y-99819100D01*
X153314835Y-99845030D01*
X153314833Y-99845031D01*
X153228067Y-99895124D01*
X153157224Y-99965967D01*
X153107131Y-100052733D01*
X153107130Y-100052735D01*
X153081200Y-100149500D01*
X129947000Y-100149500D01*
X129947000Y-100122906D01*
X129946999Y-100122900D01*
X129933219Y-100071478D01*
X129921069Y-100026133D01*
X129870976Y-99939368D01*
X129800132Y-99868524D01*
X129713367Y-99818431D01*
X129713364Y-99818430D01*
X129616599Y-99792500D01*
X129616594Y-99792500D01*
X129516406Y-99792500D01*
X129516400Y-99792500D01*
X129419635Y-99818430D01*
X129419629Y-99818432D01*
X129374548Y-99844459D01*
X129367278Y-99845415D01*
X129361624Y-99850085D01*
X129344338Y-99848435D01*
X129327121Y-99850702D01*
X129321303Y-99846237D01*
X129314004Y-99845541D01*
X129305499Y-99834110D01*
X129289172Y-99821581D01*
X129283546Y-99808657D01*
X129282618Y-99805631D01*
X129274545Y-99765044D01*
X129250626Y-99707300D01*
X149540600Y-99707300D01*
X149540600Y-99807499D01*
X149556953Y-99868524D01*
X149566531Y-99904267D01*
X149616624Y-99991032D01*
X149687468Y-100061876D01*
X149774233Y-100111969D01*
X149815027Y-100122900D01*
X149871000Y-100137899D01*
X149871006Y-100137900D01*
X149971194Y-100137900D01*
X149971199Y-100137899D01*
X149999948Y-100130195D01*
X150067967Y-100111969D01*
X150154732Y-100061876D01*
X150225576Y-99991032D01*
X150275669Y-99904267D01*
X150298669Y-99818432D01*
X150301599Y-99807499D01*
X150301600Y-99807493D01*
X150301600Y-99707306D01*
X150301599Y-99707300D01*
X150287819Y-99655878D01*
X150275669Y-99610533D01*
X150225576Y-99523768D01*
X150154732Y-99452924D01*
X150067967Y-99402831D01*
X150067964Y-99402830D01*
X149971199Y-99376900D01*
X149971194Y-99376900D01*
X149871006Y-99376900D01*
X149871000Y-99376900D01*
X149774235Y-99402830D01*
X149774233Y-99402831D01*
X149687467Y-99452924D01*
X149616624Y-99523767D01*
X149566531Y-99610533D01*
X149566530Y-99610535D01*
X149540600Y-99707300D01*
X129250626Y-99707300D01*
X129213824Y-99618453D01*
X129125672Y-99486524D01*
X129013476Y-99374328D01*
X128997522Y-99363668D01*
X128922554Y-99313576D01*
X128881547Y-99286176D01*
X128881546Y-99286175D01*
X128881544Y-99286174D01*
X128734954Y-99225454D01*
X128579335Y-99194500D01*
X128420665Y-99194500D01*
X128265045Y-99225454D01*
X128118455Y-99286174D01*
X128118451Y-99286177D01*
X127986524Y-99374327D01*
X127874327Y-99486524D01*
X127786177Y-99618451D01*
X127786174Y-99618455D01*
X127725454Y-99765045D01*
X127694500Y-99920664D01*
X127305500Y-99920664D01*
X127274545Y-99765044D01*
X127213824Y-99618453D01*
X127125672Y-99486524D01*
X127013476Y-99374328D01*
X126997522Y-99363668D01*
X126922554Y-99313576D01*
X126881547Y-99286176D01*
X126881546Y-99286175D01*
X126881544Y-99286174D01*
X126734954Y-99225454D01*
X126579335Y-99194500D01*
X126420665Y-99194500D01*
X126265045Y-99225454D01*
X126118455Y-99286174D01*
X126118451Y-99286177D01*
X125986524Y-99374327D01*
X125874327Y-99486524D01*
X125786177Y-99618451D01*
X125786174Y-99618455D01*
X125725454Y-99765045D01*
X125694500Y-99920664D01*
X123300500Y-99920664D01*
X123300500Y-99013400D01*
X148497900Y-99013400D01*
X148497900Y-99113599D01*
X148513463Y-99171675D01*
X148523831Y-99210367D01*
X148573924Y-99297132D01*
X148644768Y-99367976D01*
X148731533Y-99418069D01*
X148776878Y-99430219D01*
X148828300Y-99443999D01*
X148828306Y-99444000D01*
X148928494Y-99444000D01*
X148928499Y-99443999D01*
X148957248Y-99436295D01*
X149025267Y-99418069D01*
X149112032Y-99367976D01*
X149182876Y-99297132D01*
X149232969Y-99210367D01*
X149258900Y-99113594D01*
X149258900Y-99013406D01*
X149244322Y-98959000D01*
X150496000Y-98959000D01*
X150496000Y-99059199D01*
X150510578Y-99113599D01*
X150521931Y-99155967D01*
X150572024Y-99242732D01*
X150642868Y-99313576D01*
X150729633Y-99363669D01*
X150769408Y-99374327D01*
X150826400Y-99389599D01*
X150826406Y-99389600D01*
X150926594Y-99389600D01*
X150926599Y-99389599D01*
X150955348Y-99381895D01*
X151023367Y-99363669D01*
X151110132Y-99313576D01*
X151180976Y-99242732D01*
X151231069Y-99155967D01*
X151257000Y-99059194D01*
X151257000Y-98959006D01*
X151256999Y-98959000D01*
X151243219Y-98907578D01*
X151231069Y-98862233D01*
X151205012Y-98817100D01*
X151422100Y-98817100D01*
X151422100Y-98917299D01*
X151436514Y-98971087D01*
X151448031Y-99014067D01*
X151498124Y-99100832D01*
X151568968Y-99171676D01*
X151655733Y-99221769D01*
X151701078Y-99233919D01*
X151752500Y-99247699D01*
X151752506Y-99247700D01*
X151852694Y-99247700D01*
X151852699Y-99247699D01*
X151881448Y-99239995D01*
X151949467Y-99221769D01*
X152036232Y-99171676D01*
X152107076Y-99100832D01*
X152157169Y-99014067D01*
X152183100Y-98917294D01*
X152183100Y-98817106D01*
X152183099Y-98817100D01*
X152169319Y-98765678D01*
X152157169Y-98720333D01*
X152107076Y-98633568D01*
X152036232Y-98562724D01*
X151949467Y-98512631D01*
X151949464Y-98512630D01*
X151852699Y-98486700D01*
X151852694Y-98486700D01*
X151752506Y-98486700D01*
X151752500Y-98486700D01*
X151655735Y-98512630D01*
X151655733Y-98512631D01*
X151568967Y-98562724D01*
X151498124Y-98633567D01*
X151448031Y-98720333D01*
X151448030Y-98720335D01*
X151422100Y-98817100D01*
X151205012Y-98817100D01*
X151180976Y-98775468D01*
X151110132Y-98704624D01*
X151023367Y-98654531D01*
X151023364Y-98654530D01*
X150926599Y-98628600D01*
X150926594Y-98628600D01*
X150826406Y-98628600D01*
X150826400Y-98628600D01*
X150729635Y-98654530D01*
X150729633Y-98654531D01*
X150642867Y-98704624D01*
X150572024Y-98775467D01*
X150521931Y-98862233D01*
X150521930Y-98862235D01*
X150496000Y-98959000D01*
X149244322Y-98959000D01*
X149232969Y-98916633D01*
X149182876Y-98829868D01*
X149112032Y-98759024D01*
X149025267Y-98708931D01*
X149025264Y-98708930D01*
X148928499Y-98683000D01*
X148928494Y-98683000D01*
X148828306Y-98683000D01*
X148828300Y-98683000D01*
X148731535Y-98708930D01*
X148731533Y-98708931D01*
X148644767Y-98759024D01*
X148573924Y-98829867D01*
X148523831Y-98916633D01*
X148523830Y-98916635D01*
X148497900Y-99013400D01*
X123300500Y-99013400D01*
X123300500Y-97920664D01*
X125694500Y-97920664D01*
X125694500Y-98079335D01*
X125725454Y-98234954D01*
X125786174Y-98381544D01*
X125786177Y-98381548D01*
X125873762Y-98512630D01*
X125874328Y-98513476D01*
X125986524Y-98625672D01*
X126118453Y-98713824D01*
X126118454Y-98713824D01*
X126118455Y-98713825D01*
X126161387Y-98731608D01*
X126265044Y-98774545D01*
X126420665Y-98805500D01*
X126579335Y-98805500D01*
X126734956Y-98774545D01*
X126881547Y-98713824D01*
X127013476Y-98625672D01*
X127125672Y-98513476D01*
X127213824Y-98381547D01*
X127274545Y-98234956D01*
X127305500Y-98079335D01*
X127305500Y-97920665D01*
X127305500Y-97920664D01*
X127694500Y-97920664D01*
X127694500Y-98079335D01*
X127725454Y-98234954D01*
X127786174Y-98381544D01*
X127786177Y-98381548D01*
X127873762Y-98512630D01*
X127874328Y-98513476D01*
X127986524Y-98625672D01*
X128118453Y-98713824D01*
X128118454Y-98713824D01*
X128118455Y-98713825D01*
X128161387Y-98731608D01*
X128265044Y-98774545D01*
X128420665Y-98805500D01*
X128579335Y-98805500D01*
X128734956Y-98774545D01*
X128881547Y-98713824D01*
X129013476Y-98625672D01*
X129125672Y-98513476D01*
X129213824Y-98381547D01*
X129274545Y-98234956D01*
X129305500Y-98079335D01*
X129305500Y-97920665D01*
X129305500Y-97920664D01*
X167694500Y-97920664D01*
X167694500Y-98079335D01*
X167725454Y-98234954D01*
X167786174Y-98381544D01*
X167786177Y-98381548D01*
X167873762Y-98512630D01*
X167874328Y-98513476D01*
X167986524Y-98625672D01*
X168118453Y-98713824D01*
X168118454Y-98713824D01*
X168118455Y-98713825D01*
X168161387Y-98731608D01*
X168265044Y-98774545D01*
X168420665Y-98805500D01*
X168579335Y-98805500D01*
X168734956Y-98774545D01*
X168881547Y-98713824D01*
X169013476Y-98625672D01*
X169125672Y-98513476D01*
X169213824Y-98381547D01*
X169274545Y-98234956D01*
X169305500Y-98079335D01*
X169305500Y-97920665D01*
X169305500Y-97920664D01*
X169694500Y-97920664D01*
X169694500Y-98079335D01*
X169725454Y-98234954D01*
X169786174Y-98381544D01*
X169786177Y-98381548D01*
X169873762Y-98512630D01*
X169874328Y-98513476D01*
X169986524Y-98625672D01*
X170118453Y-98713824D01*
X170118454Y-98713824D01*
X170118455Y-98713825D01*
X170161387Y-98731608D01*
X170265044Y-98774545D01*
X170420665Y-98805500D01*
X170579335Y-98805500D01*
X170734956Y-98774545D01*
X170881547Y-98713824D01*
X171013476Y-98625672D01*
X171125672Y-98513476D01*
X171213824Y-98381547D01*
X171274545Y-98234956D01*
X171305500Y-98079335D01*
X171305500Y-97920665D01*
X171274545Y-97765044D01*
X171213824Y-97618453D01*
X171125672Y-97486524D01*
X171013476Y-97374328D01*
X170881547Y-97286176D01*
X170881546Y-97286175D01*
X170881544Y-97286174D01*
X170734954Y-97225454D01*
X170579335Y-97194500D01*
X170420665Y-97194500D01*
X170265045Y-97225454D01*
X170118455Y-97286174D01*
X170118451Y-97286177D01*
X169986524Y-97374327D01*
X169874327Y-97486524D01*
X169786177Y-97618451D01*
X169786174Y-97618455D01*
X169725454Y-97765045D01*
X169694500Y-97920664D01*
X169305500Y-97920664D01*
X169274545Y-97765044D01*
X169213824Y-97618453D01*
X169125672Y-97486524D01*
X169013476Y-97374328D01*
X168881547Y-97286176D01*
X168881546Y-97286175D01*
X168881544Y-97286174D01*
X168734954Y-97225454D01*
X168579335Y-97194500D01*
X168420665Y-97194500D01*
X168265045Y-97225454D01*
X168118455Y-97286174D01*
X168118451Y-97286177D01*
X167986524Y-97374327D01*
X167874327Y-97486524D01*
X167786177Y-97618451D01*
X167786174Y-97618455D01*
X167725454Y-97765045D01*
X167694500Y-97920664D01*
X129305500Y-97920664D01*
X129274545Y-97765044D01*
X129213824Y-97618453D01*
X129125672Y-97486524D01*
X129013476Y-97374328D01*
X128881547Y-97286176D01*
X128881546Y-97286175D01*
X128881544Y-97286174D01*
X128734954Y-97225454D01*
X128579335Y-97194500D01*
X128420665Y-97194500D01*
X128265045Y-97225454D01*
X128118455Y-97286174D01*
X128118451Y-97286177D01*
X127986524Y-97374327D01*
X127874327Y-97486524D01*
X127786177Y-97618451D01*
X127786174Y-97618455D01*
X127725454Y-97765045D01*
X127694500Y-97920664D01*
X127305500Y-97920664D01*
X127274545Y-97765044D01*
X127213824Y-97618453D01*
X127125672Y-97486524D01*
X127013476Y-97374328D01*
X126881547Y-97286176D01*
X126881546Y-97286175D01*
X126881544Y-97286174D01*
X126734954Y-97225454D01*
X126579335Y-97194500D01*
X126420665Y-97194500D01*
X126265045Y-97225454D01*
X126118455Y-97286174D01*
X126118451Y-97286177D01*
X125986524Y-97374327D01*
X125874327Y-97486524D01*
X125786177Y-97618451D01*
X125786174Y-97618455D01*
X125725454Y-97765045D01*
X125694500Y-97920664D01*
X123300500Y-97920664D01*
X123300500Y-95920664D01*
X125694500Y-95920664D01*
X125694500Y-96079335D01*
X125725454Y-96234954D01*
X125786174Y-96381544D01*
X125786175Y-96381546D01*
X125786176Y-96381547D01*
X125874328Y-96513476D01*
X125986524Y-96625672D01*
X126118453Y-96713824D01*
X126265044Y-96774545D01*
X126420665Y-96805500D01*
X126579335Y-96805500D01*
X126734956Y-96774545D01*
X126881547Y-96713824D01*
X127013476Y-96625672D01*
X127125672Y-96513476D01*
X127213824Y-96381547D01*
X127274545Y-96234956D01*
X127305500Y-96079335D01*
X127305500Y-95920665D01*
X127305500Y-95920664D01*
X127694500Y-95920664D01*
X127694500Y-96079335D01*
X127725454Y-96234954D01*
X127786174Y-96381544D01*
X127786175Y-96381546D01*
X127786176Y-96381547D01*
X127874328Y-96513476D01*
X127986524Y-96625672D01*
X128118453Y-96713824D01*
X128265044Y-96774545D01*
X128420665Y-96805500D01*
X128579335Y-96805500D01*
X128734956Y-96774545D01*
X128881547Y-96713824D01*
X129013476Y-96625672D01*
X129125672Y-96513476D01*
X129213824Y-96381547D01*
X129274545Y-96234956D01*
X129305500Y-96079335D01*
X129305500Y-95920665D01*
X129274545Y-95765044D01*
X129213824Y-95618453D01*
X129125672Y-95486524D01*
X129013476Y-95374328D01*
X128881547Y-95286176D01*
X128881546Y-95286175D01*
X128881544Y-95286174D01*
X128734954Y-95225454D01*
X128579335Y-95194500D01*
X128420665Y-95194500D01*
X128265045Y-95225454D01*
X128118455Y-95286174D01*
X128118451Y-95286177D01*
X127986524Y-95374327D01*
X127874327Y-95486524D01*
X127786177Y-95618451D01*
X127786174Y-95618455D01*
X127725454Y-95765045D01*
X127694500Y-95920664D01*
X127305500Y-95920664D01*
X127274545Y-95765044D01*
X127213824Y-95618453D01*
X127125672Y-95486524D01*
X127013476Y-95374328D01*
X126881547Y-95286176D01*
X126881546Y-95286175D01*
X126881544Y-95286174D01*
X126734954Y-95225454D01*
X126579335Y-95194500D01*
X126420665Y-95194500D01*
X126265045Y-95225454D01*
X126118455Y-95286174D01*
X126118451Y-95286177D01*
X125986524Y-95374327D01*
X125874327Y-95486524D01*
X125786177Y-95618451D01*
X125786174Y-95618455D01*
X125725454Y-95765045D01*
X125694500Y-95920664D01*
X123300500Y-95920664D01*
X123300500Y-93920664D01*
X125694500Y-93920664D01*
X125694500Y-94079335D01*
X125725454Y-94234954D01*
X125786174Y-94381544D01*
X125786175Y-94381546D01*
X125786176Y-94381547D01*
X125874328Y-94513476D01*
X125986524Y-94625672D01*
X126118453Y-94713824D01*
X126118454Y-94713824D01*
X126118455Y-94713825D01*
X126129437Y-94718374D01*
X126265044Y-94774545D01*
X126420665Y-94805500D01*
X126579335Y-94805500D01*
X126734956Y-94774545D01*
X126881547Y-94713824D01*
X127013476Y-94625672D01*
X127125672Y-94513476D01*
X127213824Y-94381547D01*
X127274545Y-94234956D01*
X127305500Y-94079335D01*
X127305500Y-93920665D01*
X127305500Y-93920664D01*
X127694500Y-93920664D01*
X127694500Y-94079335D01*
X127725454Y-94234954D01*
X127786174Y-94381544D01*
X127786175Y-94381546D01*
X127786176Y-94381547D01*
X127874328Y-94513476D01*
X127986524Y-94625672D01*
X128118453Y-94713824D01*
X128118454Y-94713824D01*
X128118455Y-94713825D01*
X128129437Y-94718374D01*
X128265044Y-94774545D01*
X128420665Y-94805500D01*
X128579335Y-94805500D01*
X128734956Y-94774545D01*
X128881547Y-94713824D01*
X129013476Y-94625672D01*
X129125672Y-94513476D01*
X129213824Y-94381547D01*
X129274545Y-94234956D01*
X129305500Y-94079335D01*
X129305500Y-93920665D01*
X129282596Y-93805521D01*
X136699500Y-93805521D01*
X136699500Y-93994478D01*
X136699501Y-93994494D01*
X136729059Y-94181112D01*
X136729061Y-94181121D01*
X136787452Y-94360830D01*
X136787456Y-94360838D01*
X136873241Y-94529201D01*
X136984309Y-94682072D01*
X136984316Y-94682080D01*
X137117919Y-94815683D01*
X137117927Y-94815690D01*
X137240721Y-94904906D01*
X137270801Y-94926760D01*
X137439168Y-95012547D01*
X137618882Y-95070940D01*
X137765315Y-95094132D01*
X137805505Y-95100498D01*
X137805511Y-95100498D01*
X137805519Y-95100500D01*
X137805521Y-95100500D01*
X137994479Y-95100500D01*
X137994481Y-95100500D01*
X138181118Y-95070940D01*
X138360832Y-95012547D01*
X138529199Y-94926760D01*
X138559278Y-94904906D01*
X141934500Y-94904906D01*
X141934500Y-95095093D01*
X141971602Y-95281624D01*
X141971603Y-95281627D01*
X142044383Y-95457333D01*
X142044386Y-95457338D01*
X142150046Y-95615470D01*
X142150047Y-95615471D01*
X142284529Y-95749953D01*
X142442664Y-95855615D01*
X142618374Y-95928397D01*
X142804907Y-95965500D01*
X142995093Y-95965500D01*
X143181626Y-95928397D01*
X143357336Y-95855615D01*
X143515471Y-95749953D01*
X143649953Y-95615471D01*
X143755615Y-95457336D01*
X143828397Y-95281626D01*
X143865500Y-95095093D01*
X143865500Y-94912210D01*
X152984500Y-94912210D01*
X152984500Y-95087789D01*
X152984501Y-95087803D01*
X153011967Y-95261212D01*
X153066225Y-95428201D01*
X153066229Y-95428209D01*
X153145940Y-95584651D01*
X153249144Y-95726698D01*
X153249151Y-95726706D01*
X153373293Y-95850848D01*
X153373301Y-95850855D01*
X153469385Y-95920665D01*
X153515351Y-95954061D01*
X153671797Y-96033774D01*
X153838787Y-96088032D01*
X154012208Y-96115500D01*
X154012210Y-96115500D01*
X154187790Y-96115500D01*
X154187792Y-96115500D01*
X154361213Y-96088032D01*
X154528203Y-96033774D01*
X154684649Y-95954061D01*
X154730616Y-95920664D01*
X167694500Y-95920664D01*
X167694500Y-96079335D01*
X167725454Y-96234954D01*
X167786174Y-96381544D01*
X167786175Y-96381546D01*
X167786176Y-96381547D01*
X167874328Y-96513476D01*
X167986524Y-96625672D01*
X168118453Y-96713824D01*
X168265044Y-96774545D01*
X168420665Y-96805500D01*
X168579335Y-96805500D01*
X168734956Y-96774545D01*
X168881547Y-96713824D01*
X169013476Y-96625672D01*
X169125672Y-96513476D01*
X169213824Y-96381547D01*
X169274545Y-96234956D01*
X169305500Y-96079335D01*
X169305500Y-95920665D01*
X169305500Y-95920664D01*
X169694500Y-95920664D01*
X169694500Y-96079335D01*
X169725454Y-96234954D01*
X169786174Y-96381544D01*
X169786175Y-96381546D01*
X169786176Y-96381547D01*
X169874328Y-96513476D01*
X169986524Y-96625672D01*
X170118453Y-96713824D01*
X170265044Y-96774545D01*
X170420665Y-96805500D01*
X170579335Y-96805500D01*
X170734956Y-96774545D01*
X170881547Y-96713824D01*
X171013476Y-96625672D01*
X171125672Y-96513476D01*
X171213824Y-96381547D01*
X171274545Y-96234956D01*
X171305500Y-96079335D01*
X171305500Y-95920665D01*
X171274545Y-95765044D01*
X171213824Y-95618453D01*
X171125672Y-95486524D01*
X171013476Y-95374328D01*
X170881547Y-95286176D01*
X170881546Y-95286175D01*
X170881544Y-95286174D01*
X170734954Y-95225454D01*
X170579335Y-95194500D01*
X170420665Y-95194500D01*
X170265045Y-95225454D01*
X170118455Y-95286174D01*
X170118451Y-95286177D01*
X169986524Y-95374327D01*
X169874327Y-95486524D01*
X169786177Y-95618451D01*
X169786174Y-95618455D01*
X169725454Y-95765045D01*
X169694500Y-95920664D01*
X169305500Y-95920664D01*
X169274545Y-95765044D01*
X169213824Y-95618453D01*
X169125672Y-95486524D01*
X169013476Y-95374328D01*
X168881547Y-95286176D01*
X168881546Y-95286175D01*
X168881544Y-95286174D01*
X168734954Y-95225454D01*
X168579335Y-95194500D01*
X168420665Y-95194500D01*
X168265045Y-95225454D01*
X168118455Y-95286174D01*
X168118451Y-95286177D01*
X167986524Y-95374327D01*
X167874327Y-95486524D01*
X167786177Y-95618451D01*
X167786174Y-95618455D01*
X167725454Y-95765045D01*
X167694500Y-95920664D01*
X154730616Y-95920664D01*
X154826699Y-95850855D01*
X154950855Y-95726699D01*
X155054061Y-95584649D01*
X155133774Y-95428203D01*
X155188032Y-95261213D01*
X155215500Y-95087792D01*
X155215500Y-94912208D01*
X155188032Y-94738787D01*
X155133774Y-94571797D01*
X155054061Y-94415351D01*
X155031667Y-94384529D01*
X154950855Y-94273301D01*
X154950848Y-94273293D01*
X154826706Y-94149151D01*
X154826698Y-94149144D01*
X154684651Y-94045940D01*
X154528209Y-93966229D01*
X154528201Y-93966225D01*
X154361211Y-93911967D01*
X154361212Y-93911967D01*
X154187803Y-93884501D01*
X154187793Y-93884500D01*
X154187792Y-93884500D01*
X154012208Y-93884500D01*
X154012206Y-93884500D01*
X154012196Y-93884501D01*
X153838787Y-93911967D01*
X153671798Y-93966225D01*
X153671790Y-93966229D01*
X153515348Y-94045940D01*
X153373301Y-94149144D01*
X153373293Y-94149151D01*
X153249151Y-94273293D01*
X153249144Y-94273301D01*
X153145940Y-94415348D01*
X153066229Y-94571790D01*
X153066225Y-94571798D01*
X153011967Y-94738787D01*
X152984501Y-94912196D01*
X152984500Y-94912210D01*
X143865500Y-94912210D01*
X143865500Y-94904907D01*
X143828397Y-94718374D01*
X143767682Y-94571797D01*
X143755616Y-94542666D01*
X143755613Y-94542661D01*
X143649953Y-94384529D01*
X143515470Y-94250046D01*
X143357338Y-94144386D01*
X143357333Y-94144383D01*
X143181627Y-94071603D01*
X143181624Y-94071602D01*
X142995093Y-94034500D01*
X142804907Y-94034500D01*
X142618375Y-94071602D01*
X142618372Y-94071603D01*
X142442666Y-94144383D01*
X142442661Y-94144386D01*
X142284529Y-94250046D01*
X142150046Y-94384529D01*
X142044386Y-94542661D01*
X142044383Y-94542666D01*
X141971603Y-94718372D01*
X141971602Y-94718375D01*
X141934500Y-94904906D01*
X138559278Y-94904906D01*
X138682073Y-94815690D01*
X138815690Y-94682073D01*
X138926760Y-94529199D01*
X139012547Y-94360832D01*
X139070940Y-94181118D01*
X139100500Y-93994481D01*
X139100500Y-93805521D01*
X157899500Y-93805521D01*
X157899500Y-93994478D01*
X157899501Y-93994494D01*
X157929059Y-94181112D01*
X157929061Y-94181121D01*
X157987452Y-94360830D01*
X157987456Y-94360838D01*
X158073241Y-94529201D01*
X158184309Y-94682072D01*
X158184316Y-94682080D01*
X158317919Y-94815683D01*
X158317927Y-94815690D01*
X158440721Y-94904906D01*
X158470801Y-94926760D01*
X158639168Y-95012547D01*
X158818882Y-95070940D01*
X158965315Y-95094132D01*
X159005505Y-95100498D01*
X159005511Y-95100498D01*
X159005519Y-95100500D01*
X159005521Y-95100500D01*
X159194479Y-95100500D01*
X159194481Y-95100500D01*
X159381118Y-95070940D01*
X159560832Y-95012547D01*
X159729199Y-94926760D01*
X159882073Y-94815690D01*
X160015690Y-94682073D01*
X160126760Y-94529199D01*
X160212547Y-94360832D01*
X160270940Y-94181118D01*
X160300500Y-93994481D01*
X160300500Y-93920664D01*
X167694500Y-93920664D01*
X167694500Y-94079335D01*
X167725454Y-94234954D01*
X167786174Y-94381544D01*
X167786175Y-94381546D01*
X167786176Y-94381547D01*
X167874328Y-94513476D01*
X167986524Y-94625672D01*
X168118453Y-94713824D01*
X168118454Y-94713824D01*
X168118455Y-94713825D01*
X168129437Y-94718374D01*
X168265044Y-94774545D01*
X168420665Y-94805500D01*
X168579335Y-94805500D01*
X168734956Y-94774545D01*
X168881547Y-94713824D01*
X169013476Y-94625672D01*
X169125672Y-94513476D01*
X169213824Y-94381547D01*
X169274545Y-94234956D01*
X169305500Y-94079335D01*
X169305500Y-93920665D01*
X169305500Y-93920664D01*
X169694500Y-93920664D01*
X169694500Y-94079335D01*
X169725454Y-94234954D01*
X169786174Y-94381544D01*
X169786175Y-94381546D01*
X169786176Y-94381547D01*
X169874328Y-94513476D01*
X169986524Y-94625672D01*
X170118453Y-94713824D01*
X170118454Y-94713824D01*
X170118455Y-94713825D01*
X170129437Y-94718374D01*
X170265044Y-94774545D01*
X170420665Y-94805500D01*
X170579335Y-94805500D01*
X170734956Y-94774545D01*
X170881547Y-94713824D01*
X171013476Y-94625672D01*
X171125672Y-94513476D01*
X171213824Y-94381547D01*
X171274545Y-94234956D01*
X171305500Y-94079335D01*
X171305500Y-93920665D01*
X171274545Y-93765044D01*
X171213824Y-93618453D01*
X171125672Y-93486524D01*
X171013476Y-93374328D01*
X170881547Y-93286176D01*
X170881546Y-93286175D01*
X170881544Y-93286174D01*
X170734954Y-93225454D01*
X170579335Y-93194500D01*
X170420665Y-93194500D01*
X170265045Y-93225454D01*
X170118455Y-93286174D01*
X170118451Y-93286177D01*
X169986524Y-93374327D01*
X169874327Y-93486524D01*
X169786177Y-93618451D01*
X169786174Y-93618455D01*
X169725454Y-93765045D01*
X169694500Y-93920664D01*
X169305500Y-93920664D01*
X169274545Y-93765044D01*
X169213824Y-93618453D01*
X169125672Y-93486524D01*
X169013476Y-93374328D01*
X168881547Y-93286176D01*
X168881546Y-93286175D01*
X168881544Y-93286174D01*
X168734954Y-93225454D01*
X168579335Y-93194500D01*
X168420665Y-93194500D01*
X168265045Y-93225454D01*
X168118455Y-93286174D01*
X168118451Y-93286177D01*
X167986524Y-93374327D01*
X167874327Y-93486524D01*
X167786177Y-93618451D01*
X167786174Y-93618455D01*
X167725454Y-93765045D01*
X167694500Y-93920664D01*
X160300500Y-93920664D01*
X160300500Y-93805519D01*
X160270940Y-93618882D01*
X160212547Y-93439168D01*
X160126760Y-93270801D01*
X160015690Y-93117927D01*
X160015683Y-93117919D01*
X159882080Y-92984316D01*
X159882072Y-92984309D01*
X159729201Y-92873241D01*
X159560838Y-92787456D01*
X159560830Y-92787452D01*
X159381121Y-92729061D01*
X159381118Y-92729060D01*
X159381112Y-92729059D01*
X159194494Y-92699501D01*
X159194482Y-92699500D01*
X159194481Y-92699500D01*
X159005519Y-92699500D01*
X159005517Y-92699500D01*
X159005505Y-92699501D01*
X158818887Y-92729059D01*
X158818878Y-92729061D01*
X158639169Y-92787452D01*
X158639161Y-92787456D01*
X158470798Y-92873241D01*
X158317927Y-92984309D01*
X158317919Y-92984316D01*
X158184316Y-93117919D01*
X158184309Y-93117927D01*
X158073241Y-93270798D01*
X157987456Y-93439161D01*
X157987452Y-93439169D01*
X157929061Y-93618878D01*
X157929059Y-93618887D01*
X157899501Y-93805505D01*
X157899500Y-93805521D01*
X139100500Y-93805521D01*
X139100500Y-93805519D01*
X139070940Y-93618882D01*
X139012547Y-93439168D01*
X138926760Y-93270801D01*
X138815690Y-93117927D01*
X138815683Y-93117919D01*
X138682080Y-92984316D01*
X138682072Y-92984309D01*
X138529201Y-92873241D01*
X138360838Y-92787456D01*
X138360830Y-92787452D01*
X138181121Y-92729061D01*
X138181118Y-92729060D01*
X138181112Y-92729059D01*
X137994494Y-92699501D01*
X137994482Y-92699500D01*
X137994481Y-92699500D01*
X137805519Y-92699500D01*
X137805517Y-92699500D01*
X137805505Y-92699501D01*
X137618887Y-92729059D01*
X137618878Y-92729061D01*
X137439169Y-92787452D01*
X137439161Y-92787456D01*
X137270798Y-92873241D01*
X137117927Y-92984309D01*
X137117919Y-92984316D01*
X136984316Y-93117919D01*
X136984309Y-93117927D01*
X136873241Y-93270798D01*
X136787456Y-93439161D01*
X136787452Y-93439169D01*
X136729061Y-93618878D01*
X136729059Y-93618887D01*
X136699501Y-93805505D01*
X136699500Y-93805521D01*
X129282596Y-93805521D01*
X129274545Y-93765045D01*
X129213825Y-93618455D01*
X129213824Y-93618454D01*
X129213824Y-93618453D01*
X129125672Y-93486524D01*
X129013476Y-93374328D01*
X128881547Y-93286176D01*
X128881546Y-93286175D01*
X128881544Y-93286174D01*
X128734954Y-93225454D01*
X128579335Y-93194500D01*
X128420665Y-93194500D01*
X128265045Y-93225454D01*
X128118455Y-93286174D01*
X128118451Y-93286177D01*
X127986524Y-93374327D01*
X127874327Y-93486524D01*
X127786177Y-93618451D01*
X127786174Y-93618455D01*
X127725454Y-93765045D01*
X127694500Y-93920664D01*
X127305500Y-93920664D01*
X127274545Y-93765044D01*
X127213824Y-93618453D01*
X127125672Y-93486524D01*
X127013476Y-93374328D01*
X126881547Y-93286176D01*
X126881546Y-93286175D01*
X126881544Y-93286174D01*
X126734954Y-93225454D01*
X126579335Y-93194500D01*
X126420665Y-93194500D01*
X126265045Y-93225454D01*
X126118455Y-93286174D01*
X126118451Y-93286177D01*
X125986524Y-93374327D01*
X125874327Y-93486524D01*
X125786177Y-93618451D01*
X125786174Y-93618455D01*
X125725454Y-93765045D01*
X125694500Y-93920664D01*
X123300500Y-93920664D01*
X123300500Y-91312144D01*
X127694500Y-91312144D01*
X127694500Y-92687850D01*
X127694501Y-92687854D01*
X127696817Y-92699500D01*
X127702070Y-92725918D01*
X127704170Y-92729061D01*
X127730914Y-92769086D01*
X127774081Y-92797929D01*
X127812145Y-92805500D01*
X129187854Y-92805499D01*
X129225919Y-92797929D01*
X129269086Y-92769086D01*
X129297929Y-92725919D01*
X129305500Y-92687855D01*
X129305500Y-92487400D01*
X151869500Y-92487400D01*
X151869500Y-92587599D01*
X151895430Y-92684364D01*
X151895431Y-92684367D01*
X151945524Y-92771132D01*
X152016368Y-92841976D01*
X152103133Y-92892069D01*
X152148478Y-92904219D01*
X152199900Y-92917999D01*
X152199906Y-92918000D01*
X152300094Y-92918000D01*
X152300099Y-92917999D01*
X152328848Y-92910295D01*
X152396867Y-92892069D01*
X152483632Y-92841976D01*
X152554476Y-92771132D01*
X152604569Y-92684367D01*
X152630500Y-92587594D01*
X152630500Y-92487406D01*
X152630499Y-92487400D01*
X152616719Y-92435978D01*
X152604569Y-92390633D01*
X152554476Y-92303868D01*
X152483632Y-92233024D01*
X152396867Y-92182931D01*
X152396864Y-92182930D01*
X152300099Y-92157000D01*
X152300094Y-92157000D01*
X152199906Y-92157000D01*
X152199900Y-92157000D01*
X152103135Y-92182930D01*
X152103133Y-92182931D01*
X152016367Y-92233024D01*
X151945524Y-92303867D01*
X151895431Y-92390633D01*
X151895430Y-92390635D01*
X151869500Y-92487400D01*
X129305500Y-92487400D01*
X129305499Y-91940600D01*
X147369500Y-91940600D01*
X147369500Y-92040799D01*
X147395430Y-92137564D01*
X147395431Y-92137567D01*
X147445524Y-92224332D01*
X147516368Y-92295176D01*
X147603133Y-92345269D01*
X147648478Y-92357419D01*
X147699900Y-92371199D01*
X147699906Y-92371200D01*
X147800094Y-92371200D01*
X147800099Y-92371199D01*
X147828848Y-92363495D01*
X147896867Y-92345269D01*
X147983632Y-92295176D01*
X148054476Y-92224332D01*
X148104569Y-92137567D01*
X148130500Y-92040794D01*
X148130500Y-91940606D01*
X148125156Y-91920664D01*
X167694500Y-91920664D01*
X167694500Y-92079335D01*
X167725454Y-92234954D01*
X167786174Y-92381544D01*
X167786175Y-92381546D01*
X167786176Y-92381547D01*
X167830252Y-92447511D01*
X167856908Y-92487406D01*
X167874328Y-92513476D01*
X167986524Y-92625672D01*
X168118453Y-92713824D01*
X168118454Y-92713824D01*
X168118455Y-92713825D01*
X168147650Y-92725918D01*
X168265044Y-92774545D01*
X168420665Y-92805500D01*
X168579335Y-92805500D01*
X168734956Y-92774545D01*
X168881547Y-92713824D01*
X169013476Y-92625672D01*
X169125672Y-92513476D01*
X169213824Y-92381547D01*
X169274545Y-92234956D01*
X169305500Y-92079335D01*
X169305500Y-91920665D01*
X169274545Y-91765044D01*
X169213824Y-91618453D01*
X169125672Y-91486524D01*
X169013476Y-91374328D01*
X168980889Y-91352554D01*
X168920411Y-91312144D01*
X169694500Y-91312144D01*
X169694500Y-92687850D01*
X169694501Y-92687854D01*
X169696817Y-92699500D01*
X169702070Y-92725918D01*
X169704170Y-92729061D01*
X169730914Y-92769086D01*
X169774081Y-92797929D01*
X169812145Y-92805500D01*
X171187854Y-92805499D01*
X171225919Y-92797929D01*
X171269086Y-92769086D01*
X171297929Y-92725919D01*
X171305500Y-92687855D01*
X171305499Y-91312146D01*
X171297929Y-91274081D01*
X171269086Y-91230914D01*
X171240373Y-91211729D01*
X171225921Y-91202072D01*
X171225917Y-91202070D01*
X171197304Y-91196379D01*
X171187855Y-91194500D01*
X171187854Y-91194500D01*
X169812149Y-91194500D01*
X169812148Y-91194500D01*
X169812146Y-91194501D01*
X169801315Y-91196654D01*
X169774081Y-91202070D01*
X169730914Y-91230914D01*
X169702072Y-91274078D01*
X169702070Y-91274082D01*
X169694500Y-91312144D01*
X168920411Y-91312144D01*
X168881549Y-91286177D01*
X168881544Y-91286174D01*
X168734954Y-91225454D01*
X168579335Y-91194500D01*
X168420665Y-91194500D01*
X168265045Y-91225454D01*
X168118455Y-91286174D01*
X168118451Y-91286177D01*
X167986524Y-91374327D01*
X167874327Y-91486524D01*
X167786177Y-91618451D01*
X167786174Y-91618455D01*
X167725454Y-91765045D01*
X167694500Y-91920664D01*
X148125156Y-91920664D01*
X148121701Y-91907770D01*
X148104569Y-91843833D01*
X148054476Y-91757068D01*
X147983632Y-91686224D01*
X147896867Y-91636131D01*
X147896864Y-91636130D01*
X147800099Y-91610200D01*
X147800094Y-91610200D01*
X147699906Y-91610200D01*
X147699900Y-91610200D01*
X147603135Y-91636130D01*
X147603133Y-91636131D01*
X147516367Y-91686224D01*
X147445524Y-91757067D01*
X147395431Y-91843833D01*
X147395430Y-91843835D01*
X147369500Y-91940600D01*
X129305499Y-91940600D01*
X129305499Y-91312146D01*
X129297929Y-91274081D01*
X129269086Y-91230914D01*
X129240373Y-91211729D01*
X129225921Y-91202072D01*
X129225917Y-91202070D01*
X129197304Y-91196379D01*
X129187855Y-91194500D01*
X129187854Y-91194500D01*
X127812149Y-91194500D01*
X127812148Y-91194500D01*
X127812146Y-91194501D01*
X127801315Y-91196654D01*
X127774081Y-91202070D01*
X127730914Y-91230914D01*
X127702072Y-91274078D01*
X127702070Y-91274082D01*
X127694500Y-91312144D01*
X123300500Y-91312144D01*
X123300500Y-89503069D01*
X123300801Y-89496943D01*
X123313338Y-89369655D01*
X123315727Y-89357645D01*
X123351961Y-89238196D01*
X123356644Y-89226889D01*
X123415487Y-89116803D01*
X123422287Y-89106625D01*
X123501474Y-89010136D01*
X123510137Y-89001474D01*
X123606625Y-88922287D01*
X123616803Y-88915487D01*
X123726889Y-88856644D01*
X123738196Y-88851961D01*
X123857648Y-88815726D01*
X123869655Y-88813338D01*
X123996944Y-88800801D01*
X124003070Y-88800500D01*
X124047594Y-88800500D01*
X172952406Y-88800500D01*
X172996930Y-88800500D01*
X173003056Y-88800801D01*
G37*
%TD.AperFunction*%
%TD*%
M02*
