%TF.GenerationSoftware,KiCad,Pcbnew,10.0.6-10.0.6~ubuntu26.04.1*%
%TF.CreationDate,2026-10-02T21:59:32+02:00*%
%TF.ProjectId,flashcat_p30,666c6173-6863-4617-945f-7033302e6b69,C*%
%TF.SameCoordinates,Original*%
%TF.FileFunction,Soldermask,Top*%
%TF.FilePolarity,Negative*%
%FSLAX46Y46*%
G04 Gerber Fmt 4.6, Leading zero omitted, Abs format (unit mm)*
G04 Created by KiCad (PCBNEW 10.0.6-10.0.6~ubuntu26.04.1) date 2026-10-02 21:59:32*
%MOMM*%
%LPD*%
G01*
G04 APERTURE LIST*
%ADD10C,2.000000*%
%ADD11C,1.475000*%
%ADD12C,1.775000*%
%ADD13C,0.550000*%
%ADD14R,1.350000X1.350000*%
%ADD15C,1.350000*%
G04 APERTURE END LIST*
D10*
%TO.C,U1*%
X159100000Y-116100000D03*
X159100000Y-93900000D03*
D11*
X154100000Y-115000000D03*
D12*
X154100000Y-95000000D03*
D11*
X142900000Y-115000000D03*
X142900000Y-95000000D03*
D10*
X137900000Y-116100000D03*
X137900000Y-93900000D03*
D13*
X152250000Y-101750000D03*
X152250000Y-102750000D03*
X152250000Y-103750000D03*
X152250000Y-104750000D03*
X152250000Y-105750000D03*
X152250000Y-106750000D03*
X152250000Y-107750000D03*
X152250000Y-108750000D03*
X151250000Y-101750000D03*
X151250000Y-102750000D03*
X151250000Y-103750000D03*
X151250000Y-104750000D03*
X151250000Y-105750000D03*
X151250000Y-106750000D03*
X151250000Y-107750000D03*
X151250000Y-108750000D03*
X150250000Y-101750000D03*
X150250000Y-102750000D03*
X150250000Y-103750000D03*
X150250000Y-104750000D03*
X150250000Y-105750000D03*
X150250000Y-106750000D03*
X150250000Y-107750000D03*
X150250000Y-108750000D03*
X149250000Y-101750000D03*
X149250000Y-102750000D03*
X149250000Y-103750000D03*
X149250000Y-104750000D03*
X149250000Y-105750000D03*
X149250000Y-106750000D03*
X149250000Y-107750000D03*
X149250000Y-108750000D03*
X148250000Y-101750000D03*
X148250000Y-102750000D03*
X148250000Y-103750000D03*
X148250000Y-104750000D03*
X148250000Y-105750000D03*
X148250000Y-106750000D03*
X148250000Y-107750000D03*
X148250000Y-108750000D03*
X147250000Y-101750000D03*
X147250000Y-102750000D03*
X147250000Y-103750000D03*
X147250000Y-104750000D03*
X147250000Y-105750000D03*
X147250000Y-106750000D03*
X147250000Y-107750000D03*
X147250000Y-108750000D03*
X146250000Y-101750000D03*
X146250000Y-102750000D03*
X146250000Y-103750000D03*
X146250000Y-104750000D03*
X146250000Y-105750000D03*
X146250000Y-106750000D03*
X146250000Y-107750000D03*
X146250000Y-108750000D03*
X145250000Y-101750000D03*
X145250000Y-102750000D03*
X145250000Y-103750000D03*
X145250000Y-104750000D03*
X145250000Y-105750000D03*
X145250000Y-106750000D03*
X145250000Y-107750000D03*
X145250000Y-108750000D03*
%TD*%
D14*
%TO.C,J1*%
X128500000Y-92000000D03*
D15*
X126500000Y-92000000D03*
X128500000Y-94000000D03*
X126500000Y-94000000D03*
X128500000Y-96000000D03*
X126500000Y-96000000D03*
X128500000Y-98000000D03*
X126500000Y-98000000D03*
X128500000Y-100000000D03*
X126500000Y-100000000D03*
X128500000Y-102000000D03*
X126500000Y-102000000D03*
X128500000Y-104000000D03*
X126500000Y-104000000D03*
X128500000Y-106000000D03*
X126500000Y-106000000D03*
X128500000Y-108000000D03*
X126500000Y-108000000D03*
X128500000Y-110000000D03*
X126500000Y-110000000D03*
X128500000Y-112000000D03*
X126500000Y-112000000D03*
X128500000Y-114000000D03*
X126500000Y-114000000D03*
X128500000Y-116000000D03*
X126500000Y-116000000D03*
X128500000Y-118000000D03*
X126500000Y-118000000D03*
%TD*%
D14*
%TO.C,J2*%
X170500000Y-92000000D03*
D15*
X168500000Y-92000000D03*
X170500000Y-94000000D03*
X168500000Y-94000000D03*
X170500000Y-96000000D03*
X168500000Y-96000000D03*
X170500000Y-98000000D03*
X168500000Y-98000000D03*
X170500000Y-100000000D03*
X168500000Y-100000000D03*
X170500000Y-102000000D03*
X168500000Y-102000000D03*
X170500000Y-104000000D03*
X168500000Y-104000000D03*
X170500000Y-106000000D03*
X168500000Y-106000000D03*
X170500000Y-108000000D03*
X168500000Y-108000000D03*
X170500000Y-110000000D03*
X168500000Y-110000000D03*
X170500000Y-112000000D03*
X168500000Y-112000000D03*
X170500000Y-114000000D03*
X168500000Y-114000000D03*
X170500000Y-116000000D03*
X168500000Y-116000000D03*
X170500000Y-118000000D03*
X168500000Y-118000000D03*
%TD*%
M02*
