%TF.GenerationSoftware,KiCad,Pcbnew,10.0.6-10.0.6~ubuntu26.04.1*%
%TF.CreationDate,2026-09-30T21:19:09+02:00*%
%TF.ProjectId,flashcat_p30,666c6173-6863-4617-945f-7033302e6b69,B*%
%TF.SameCoordinates,Original*%
%TF.FileFunction,Legend,Bot*%
%TF.FilePolarity,Positive*%
%FSLAX46Y46*%
G04 Gerber Fmt 4.6, Leading zero omitted, Abs format (unit mm)*
G04 Created by KiCad (PCBNEW 10.0.6-10.0.6~ubuntu26.04.1) date 2026-09-30 21:19:09*
%MOMM*%
%LPD*%
G01*
G04 APERTURE LIST*
G04 Aperture macros list*
%AMRoundRect*
0 Rectangle with rounded corners*
0 $1 Rounding radius*
0 $2 $3 $4 $5 $6 $7 $8 $9 X,Y pos of 4 corners*
0 Add a 4 corners polygon primitive as box body*
4,1,4,$2,$3,$4,$5,$6,$7,$8,$9,$2,$3,0*
0 Add four circle primitives for the rounded corners*
1,1,$1+$1,$2,$3*
1,1,$1+$1,$4,$5*
1,1,$1+$1,$6,$7*
1,1,$1+$1,$8,$9*
0 Add four rect primitives between the rounded corners*
20,1,$1+$1,$2,$3,$4,$5,0*
20,1,$1+$1,$4,$5,$6,$7,0*
20,1,$1+$1,$6,$7,$8,$9,0*
20,1,$1+$1,$8,$9,$2,$3,0*%
G04 Aperture macros list end*
%ADD10C,0.120000*%
%ADD11C,0.150000*%
%ADD12C,2.100000*%
%ADD13R,0.600000X0.600000*%
%ADD14C,0.600000*%
%ADD15RoundRect,0.225000X-0.250000X0.225000X-0.250000X-0.225000X0.250000X-0.225000X0.250000X0.225000X0*%
%ADD16RoundRect,0.225000X0.250000X-0.225000X0.250000X0.225000X-0.250000X0.225000X-0.250000X-0.225000X0*%
%ADD17RoundRect,0.200000X0.275000X-0.200000X0.275000X0.200000X-0.275000X0.200000X-0.275000X-0.200000X0*%
%ADD18RoundRect,0.150000X0.150000X-0.512500X0.150000X0.512500X-0.150000X0.512500X-0.150000X-0.512500X0*%
%ADD19RoundRect,0.225000X-0.225000X-0.250000X0.225000X-0.250000X0.225000X0.250000X-0.225000X0.250000X0*%
%ADD20RoundRect,0.225000X0.225000X0.250000X-0.225000X0.250000X-0.225000X-0.250000X0.225000X-0.250000X0*%
%ADD21R,1.350000X1.350000*%
%ADD22C,1.350000*%
G04 APERTURE END LIST*
D10*
X153300000Y-94763855D02*
X153300000Y-94230521D01*
X153300000Y-94382902D02*
X153261905Y-94306712D01*
X153261905Y-94306712D02*
X153223810Y-94268617D01*
X153223810Y-94268617D02*
X153147619Y-94230521D01*
X153147619Y-94230521D02*
X153071429Y-94230521D01*
X152500000Y-94725760D02*
X152576191Y-94763855D01*
X152576191Y-94763855D02*
X152728572Y-94763855D01*
X152728572Y-94763855D02*
X152804762Y-94725760D01*
X152804762Y-94725760D02*
X152842858Y-94649569D01*
X152842858Y-94649569D02*
X152842858Y-94344807D01*
X152842858Y-94344807D02*
X152804762Y-94268617D01*
X152804762Y-94268617D02*
X152728572Y-94230521D01*
X152728572Y-94230521D02*
X152576191Y-94230521D01*
X152576191Y-94230521D02*
X152500000Y-94268617D01*
X152500000Y-94268617D02*
X152461905Y-94344807D01*
X152461905Y-94344807D02*
X152461905Y-94420998D01*
X152461905Y-94420998D02*
X152842858Y-94497188D01*
X152195239Y-94230521D02*
X152004763Y-94763855D01*
X152004763Y-94763855D02*
X151814286Y-94230521D01*
X150633334Y-94344807D02*
X150519048Y-94382902D01*
X150519048Y-94382902D02*
X150480953Y-94420998D01*
X150480953Y-94420998D02*
X150442857Y-94497188D01*
X150442857Y-94497188D02*
X150442857Y-94611474D01*
X150442857Y-94611474D02*
X150480953Y-94687664D01*
X150480953Y-94687664D02*
X150519048Y-94725760D01*
X150519048Y-94725760D02*
X150595238Y-94763855D01*
X150595238Y-94763855D02*
X150900000Y-94763855D01*
X150900000Y-94763855D02*
X150900000Y-93963855D01*
X150900000Y-93963855D02*
X150633334Y-93963855D01*
X150633334Y-93963855D02*
X150557143Y-94001950D01*
X150557143Y-94001950D02*
X150519048Y-94040045D01*
X150519048Y-94040045D02*
X150480953Y-94116236D01*
X150480953Y-94116236D02*
X150480953Y-94192426D01*
X150480953Y-94192426D02*
X150519048Y-94268617D01*
X150519048Y-94268617D02*
X150557143Y-94306712D01*
X150557143Y-94306712D02*
X150633334Y-94344807D01*
X150633334Y-94344807D02*
X150900000Y-94344807D01*
X148919048Y-94040045D02*
X148880952Y-94001950D01*
X148880952Y-94001950D02*
X148804762Y-93963855D01*
X148804762Y-93963855D02*
X148614286Y-93963855D01*
X148614286Y-93963855D02*
X148538095Y-94001950D01*
X148538095Y-94001950D02*
X148500000Y-94040045D01*
X148500000Y-94040045D02*
X148461905Y-94116236D01*
X148461905Y-94116236D02*
X148461905Y-94192426D01*
X148461905Y-94192426D02*
X148500000Y-94306712D01*
X148500000Y-94306712D02*
X148957143Y-94763855D01*
X148957143Y-94763855D02*
X148461905Y-94763855D01*
X147966666Y-93963855D02*
X147890476Y-93963855D01*
X147890476Y-93963855D02*
X147814285Y-94001950D01*
X147814285Y-94001950D02*
X147776190Y-94040045D01*
X147776190Y-94040045D02*
X147738095Y-94116236D01*
X147738095Y-94116236D02*
X147700000Y-94268617D01*
X147700000Y-94268617D02*
X147700000Y-94459093D01*
X147700000Y-94459093D02*
X147738095Y-94611474D01*
X147738095Y-94611474D02*
X147776190Y-94687664D01*
X147776190Y-94687664D02*
X147814285Y-94725760D01*
X147814285Y-94725760D02*
X147890476Y-94763855D01*
X147890476Y-94763855D02*
X147966666Y-94763855D01*
X147966666Y-94763855D02*
X148042857Y-94725760D01*
X148042857Y-94725760D02*
X148080952Y-94687664D01*
X148080952Y-94687664D02*
X148119047Y-94611474D01*
X148119047Y-94611474D02*
X148157143Y-94459093D01*
X148157143Y-94459093D02*
X148157143Y-94268617D01*
X148157143Y-94268617D02*
X148119047Y-94116236D01*
X148119047Y-94116236D02*
X148080952Y-94040045D01*
X148080952Y-94040045D02*
X148042857Y-94001950D01*
X148042857Y-94001950D02*
X147966666Y-93963855D01*
X147395238Y-94040045D02*
X147357142Y-94001950D01*
X147357142Y-94001950D02*
X147280952Y-93963855D01*
X147280952Y-93963855D02*
X147090476Y-93963855D01*
X147090476Y-93963855D02*
X147014285Y-94001950D01*
X147014285Y-94001950D02*
X146976190Y-94040045D01*
X146976190Y-94040045D02*
X146938095Y-94116236D01*
X146938095Y-94116236D02*
X146938095Y-94192426D01*
X146938095Y-94192426D02*
X146976190Y-94306712D01*
X146976190Y-94306712D02*
X147433333Y-94763855D01*
X147433333Y-94763855D02*
X146938095Y-94763855D01*
X146252380Y-93963855D02*
X146404761Y-93963855D01*
X146404761Y-93963855D02*
X146480952Y-94001950D01*
X146480952Y-94001950D02*
X146519047Y-94040045D01*
X146519047Y-94040045D02*
X146595237Y-94154331D01*
X146595237Y-94154331D02*
X146633333Y-94306712D01*
X146633333Y-94306712D02*
X146633333Y-94611474D01*
X146633333Y-94611474D02*
X146595237Y-94687664D01*
X146595237Y-94687664D02*
X146557142Y-94725760D01*
X146557142Y-94725760D02*
X146480952Y-94763855D01*
X146480952Y-94763855D02*
X146328571Y-94763855D01*
X146328571Y-94763855D02*
X146252380Y-94725760D01*
X146252380Y-94725760D02*
X146214285Y-94687664D01*
X146214285Y-94687664D02*
X146176190Y-94611474D01*
X146176190Y-94611474D02*
X146176190Y-94420998D01*
X146176190Y-94420998D02*
X146214285Y-94344807D01*
X146214285Y-94344807D02*
X146252380Y-94306712D01*
X146252380Y-94306712D02*
X146328571Y-94268617D01*
X146328571Y-94268617D02*
X146480952Y-94268617D01*
X146480952Y-94268617D02*
X146557142Y-94306712D01*
X146557142Y-94306712D02*
X146595237Y-94344807D01*
X146595237Y-94344807D02*
X146633333Y-94420998D01*
X145833332Y-94459093D02*
X145223809Y-94459093D01*
X144690475Y-93963855D02*
X144614285Y-93963855D01*
X144614285Y-93963855D02*
X144538094Y-94001950D01*
X144538094Y-94001950D02*
X144499999Y-94040045D01*
X144499999Y-94040045D02*
X144461904Y-94116236D01*
X144461904Y-94116236D02*
X144423809Y-94268617D01*
X144423809Y-94268617D02*
X144423809Y-94459093D01*
X144423809Y-94459093D02*
X144461904Y-94611474D01*
X144461904Y-94611474D02*
X144499999Y-94687664D01*
X144499999Y-94687664D02*
X144538094Y-94725760D01*
X144538094Y-94725760D02*
X144614285Y-94763855D01*
X144614285Y-94763855D02*
X144690475Y-94763855D01*
X144690475Y-94763855D02*
X144766666Y-94725760D01*
X144766666Y-94725760D02*
X144804761Y-94687664D01*
X144804761Y-94687664D02*
X144842856Y-94611474D01*
X144842856Y-94611474D02*
X144880952Y-94459093D01*
X144880952Y-94459093D02*
X144880952Y-94268617D01*
X144880952Y-94268617D02*
X144842856Y-94116236D01*
X144842856Y-94116236D02*
X144804761Y-94040045D01*
X144804761Y-94040045D02*
X144766666Y-94001950D01*
X144766666Y-94001950D02*
X144690475Y-93963855D01*
X144042856Y-94763855D02*
X143890475Y-94763855D01*
X143890475Y-94763855D02*
X143814285Y-94725760D01*
X143814285Y-94725760D02*
X143776189Y-94687664D01*
X143776189Y-94687664D02*
X143699999Y-94573379D01*
X143699999Y-94573379D02*
X143661904Y-94420998D01*
X143661904Y-94420998D02*
X143661904Y-94116236D01*
X143661904Y-94116236D02*
X143699999Y-94040045D01*
X143699999Y-94040045D02*
X143738094Y-94001950D01*
X143738094Y-94001950D02*
X143814285Y-93963855D01*
X143814285Y-93963855D02*
X143966666Y-93963855D01*
X143966666Y-93963855D02*
X144042856Y-94001950D01*
X144042856Y-94001950D02*
X144080951Y-94040045D01*
X144080951Y-94040045D02*
X144119047Y-94116236D01*
X144119047Y-94116236D02*
X144119047Y-94306712D01*
X144119047Y-94306712D02*
X144080951Y-94382902D01*
X144080951Y-94382902D02*
X144042856Y-94420998D01*
X144042856Y-94420998D02*
X143966666Y-94459093D01*
X143966666Y-94459093D02*
X143814285Y-94459093D01*
X143814285Y-94459093D02*
X143738094Y-94420998D01*
X143738094Y-94420998D02*
X143699999Y-94382902D01*
X143699999Y-94382902D02*
X143661904Y-94306712D01*
X162061907Y-117525760D02*
X161947621Y-117563855D01*
X161947621Y-117563855D02*
X161757145Y-117563855D01*
X161757145Y-117563855D02*
X161680954Y-117525760D01*
X161680954Y-117525760D02*
X161642859Y-117487664D01*
X161642859Y-117487664D02*
X161604764Y-117411474D01*
X161604764Y-117411474D02*
X161604764Y-117335283D01*
X161604764Y-117335283D02*
X161642859Y-117259093D01*
X161642859Y-117259093D02*
X161680954Y-117220998D01*
X161680954Y-117220998D02*
X161757145Y-117182902D01*
X161757145Y-117182902D02*
X161909526Y-117144807D01*
X161909526Y-117144807D02*
X161985716Y-117106712D01*
X161985716Y-117106712D02*
X162023811Y-117068617D01*
X162023811Y-117068617D02*
X162061907Y-116992426D01*
X162061907Y-116992426D02*
X162061907Y-116916236D01*
X162061907Y-116916236D02*
X162023811Y-116840045D01*
X162023811Y-116840045D02*
X161985716Y-116801950D01*
X161985716Y-116801950D02*
X161909526Y-116763855D01*
X161909526Y-116763855D02*
X161719049Y-116763855D01*
X161719049Y-116763855D02*
X161604764Y-116801950D01*
X160957144Y-117525760D02*
X161033335Y-117563855D01*
X161033335Y-117563855D02*
X161185716Y-117563855D01*
X161185716Y-117563855D02*
X161261906Y-117525760D01*
X161261906Y-117525760D02*
X161300002Y-117449569D01*
X161300002Y-117449569D02*
X161300002Y-117144807D01*
X161300002Y-117144807D02*
X161261906Y-117068617D01*
X161261906Y-117068617D02*
X161185716Y-117030521D01*
X161185716Y-117030521D02*
X161033335Y-117030521D01*
X161033335Y-117030521D02*
X160957144Y-117068617D01*
X160957144Y-117068617D02*
X160919049Y-117144807D01*
X160919049Y-117144807D02*
X160919049Y-117220998D01*
X160919049Y-117220998D02*
X161300002Y-117297188D01*
X160576192Y-117030521D02*
X160576192Y-117563855D01*
X160576192Y-117106712D02*
X160538097Y-117068617D01*
X160538097Y-117068617D02*
X160461907Y-117030521D01*
X160461907Y-117030521D02*
X160347621Y-117030521D01*
X160347621Y-117030521D02*
X160271430Y-117068617D01*
X160271430Y-117068617D02*
X160233335Y-117144807D01*
X160233335Y-117144807D02*
X160233335Y-117563855D01*
X159890478Y-117525760D02*
X159814287Y-117563855D01*
X159814287Y-117563855D02*
X159661906Y-117563855D01*
X159661906Y-117563855D02*
X159585716Y-117525760D01*
X159585716Y-117525760D02*
X159547620Y-117449569D01*
X159547620Y-117449569D02*
X159547620Y-117411474D01*
X159547620Y-117411474D02*
X159585716Y-117335283D01*
X159585716Y-117335283D02*
X159661906Y-117297188D01*
X159661906Y-117297188D02*
X159776192Y-117297188D01*
X159776192Y-117297188D02*
X159852382Y-117259093D01*
X159852382Y-117259093D02*
X159890478Y-117182902D01*
X159890478Y-117182902D02*
X159890478Y-117144807D01*
X159890478Y-117144807D02*
X159852382Y-117068617D01*
X159852382Y-117068617D02*
X159776192Y-117030521D01*
X159776192Y-117030521D02*
X159661906Y-117030521D01*
X159661906Y-117030521D02*
X159585716Y-117068617D01*
X158861906Y-117563855D02*
X158861906Y-117144807D01*
X158861906Y-117144807D02*
X158900001Y-117068617D01*
X158900001Y-117068617D02*
X158976192Y-117030521D01*
X158976192Y-117030521D02*
X159128573Y-117030521D01*
X159128573Y-117030521D02*
X159204763Y-117068617D01*
X158861906Y-117525760D02*
X158938097Y-117563855D01*
X158938097Y-117563855D02*
X159128573Y-117563855D01*
X159128573Y-117563855D02*
X159204763Y-117525760D01*
X159204763Y-117525760D02*
X159242859Y-117449569D01*
X159242859Y-117449569D02*
X159242859Y-117373379D01*
X159242859Y-117373379D02*
X159204763Y-117297188D01*
X159204763Y-117297188D02*
X159128573Y-117259093D01*
X159128573Y-117259093D02*
X158938097Y-117259093D01*
X158938097Y-117259093D02*
X158861906Y-117220998D01*
X158595239Y-117030521D02*
X158290477Y-117030521D01*
X158480953Y-116763855D02*
X158480953Y-117449569D01*
X158480953Y-117449569D02*
X158442858Y-117525760D01*
X158442858Y-117525760D02*
X158366668Y-117563855D01*
X158366668Y-117563855D02*
X158290477Y-117563855D01*
X157680953Y-117563855D02*
X157680953Y-117144807D01*
X157680953Y-117144807D02*
X157719048Y-117068617D01*
X157719048Y-117068617D02*
X157795239Y-117030521D01*
X157795239Y-117030521D02*
X157947620Y-117030521D01*
X157947620Y-117030521D02*
X158023810Y-117068617D01*
X157680953Y-117525760D02*
X157757144Y-117563855D01*
X157757144Y-117563855D02*
X157947620Y-117563855D01*
X157947620Y-117563855D02*
X158023810Y-117525760D01*
X158023810Y-117525760D02*
X158061906Y-117449569D01*
X158061906Y-117449569D02*
X158061906Y-117373379D01*
X158061906Y-117373379D02*
X158023810Y-117297188D01*
X158023810Y-117297188D02*
X157947620Y-117259093D01*
X157947620Y-117259093D02*
X157757144Y-117259093D01*
X157757144Y-117259093D02*
X157680953Y-117220998D01*
X156233333Y-117487664D02*
X156271429Y-117525760D01*
X156271429Y-117525760D02*
X156385714Y-117563855D01*
X156385714Y-117563855D02*
X156461905Y-117563855D01*
X156461905Y-117563855D02*
X156576191Y-117525760D01*
X156576191Y-117525760D02*
X156652381Y-117449569D01*
X156652381Y-117449569D02*
X156690476Y-117373379D01*
X156690476Y-117373379D02*
X156728572Y-117220998D01*
X156728572Y-117220998D02*
X156728572Y-117106712D01*
X156728572Y-117106712D02*
X156690476Y-116954331D01*
X156690476Y-116954331D02*
X156652381Y-116878140D01*
X156652381Y-116878140D02*
X156576191Y-116801950D01*
X156576191Y-116801950D02*
X156461905Y-116763855D01*
X156461905Y-116763855D02*
X156385714Y-116763855D01*
X156385714Y-116763855D02*
X156271429Y-116801950D01*
X156271429Y-116801950D02*
X156233333Y-116840045D01*
X155623810Y-117144807D02*
X155509524Y-117182902D01*
X155509524Y-117182902D02*
X155471429Y-117220998D01*
X155471429Y-117220998D02*
X155433333Y-117297188D01*
X155433333Y-117297188D02*
X155433333Y-117411474D01*
X155433333Y-117411474D02*
X155471429Y-117487664D01*
X155471429Y-117487664D02*
X155509524Y-117525760D01*
X155509524Y-117525760D02*
X155585714Y-117563855D01*
X155585714Y-117563855D02*
X155890476Y-117563855D01*
X155890476Y-117563855D02*
X155890476Y-116763855D01*
X155890476Y-116763855D02*
X155623810Y-116763855D01*
X155623810Y-116763855D02*
X155547619Y-116801950D01*
X155547619Y-116801950D02*
X155509524Y-116840045D01*
X155509524Y-116840045D02*
X155471429Y-116916236D01*
X155471429Y-116916236D02*
X155471429Y-116992426D01*
X155471429Y-116992426D02*
X155509524Y-117068617D01*
X155509524Y-117068617D02*
X155547619Y-117106712D01*
X155547619Y-117106712D02*
X155623810Y-117144807D01*
X155623810Y-117144807D02*
X155890476Y-117144807D01*
X154671429Y-116801950D02*
X154747619Y-116763855D01*
X154747619Y-116763855D02*
X154861905Y-116763855D01*
X154861905Y-116763855D02*
X154976191Y-116801950D01*
X154976191Y-116801950D02*
X155052381Y-116878140D01*
X155052381Y-116878140D02*
X155090476Y-116954331D01*
X155090476Y-116954331D02*
X155128572Y-117106712D01*
X155128572Y-117106712D02*
X155128572Y-117220998D01*
X155128572Y-117220998D02*
X155090476Y-117373379D01*
X155090476Y-117373379D02*
X155052381Y-117449569D01*
X155052381Y-117449569D02*
X154976191Y-117525760D01*
X154976191Y-117525760D02*
X154861905Y-117563855D01*
X154861905Y-117563855D02*
X154785714Y-117563855D01*
X154785714Y-117563855D02*
X154671429Y-117525760D01*
X154671429Y-117525760D02*
X154633333Y-117487664D01*
X154633333Y-117487664D02*
X154633333Y-117220998D01*
X154633333Y-117220998D02*
X154785714Y-117220998D01*
X154138095Y-116763855D02*
X154061905Y-116763855D01*
X154061905Y-116763855D02*
X153985714Y-116801950D01*
X153985714Y-116801950D02*
X153947619Y-116840045D01*
X153947619Y-116840045D02*
X153909524Y-116916236D01*
X153909524Y-116916236D02*
X153871429Y-117068617D01*
X153871429Y-117068617D02*
X153871429Y-117259093D01*
X153871429Y-117259093D02*
X153909524Y-117411474D01*
X153909524Y-117411474D02*
X153947619Y-117487664D01*
X153947619Y-117487664D02*
X153985714Y-117525760D01*
X153985714Y-117525760D02*
X154061905Y-117563855D01*
X154061905Y-117563855D02*
X154138095Y-117563855D01*
X154138095Y-117563855D02*
X154214286Y-117525760D01*
X154214286Y-117525760D02*
X154252381Y-117487664D01*
X154252381Y-117487664D02*
X154290476Y-117411474D01*
X154290476Y-117411474D02*
X154328572Y-117259093D01*
X154328572Y-117259093D02*
X154328572Y-117068617D01*
X154328572Y-117068617D02*
X154290476Y-116916236D01*
X154290476Y-116916236D02*
X154252381Y-116840045D01*
X154252381Y-116840045D02*
X154214286Y-116801950D01*
X154214286Y-116801950D02*
X154138095Y-116763855D01*
X153185714Y-116763855D02*
X153338095Y-116763855D01*
X153338095Y-116763855D02*
X153414286Y-116801950D01*
X153414286Y-116801950D02*
X153452381Y-116840045D01*
X153452381Y-116840045D02*
X153528571Y-116954331D01*
X153528571Y-116954331D02*
X153566667Y-117106712D01*
X153566667Y-117106712D02*
X153566667Y-117411474D01*
X153566667Y-117411474D02*
X153528571Y-117487664D01*
X153528571Y-117487664D02*
X153490476Y-117525760D01*
X153490476Y-117525760D02*
X153414286Y-117563855D01*
X153414286Y-117563855D02*
X153261905Y-117563855D01*
X153261905Y-117563855D02*
X153185714Y-117525760D01*
X153185714Y-117525760D02*
X153147619Y-117487664D01*
X153147619Y-117487664D02*
X153109524Y-117411474D01*
X153109524Y-117411474D02*
X153109524Y-117220998D01*
X153109524Y-117220998D02*
X153147619Y-117144807D01*
X153147619Y-117144807D02*
X153185714Y-117106712D01*
X153185714Y-117106712D02*
X153261905Y-117068617D01*
X153261905Y-117068617D02*
X153414286Y-117068617D01*
X153414286Y-117068617D02*
X153490476Y-117106712D01*
X153490476Y-117106712D02*
X153528571Y-117144807D01*
X153528571Y-117144807D02*
X153566667Y-117220998D01*
X152423809Y-117030521D02*
X152423809Y-117563855D01*
X152614285Y-116725760D02*
X152804762Y-117297188D01*
X152804762Y-117297188D02*
X152309523Y-117297188D01*
X152004761Y-117259093D02*
X151395238Y-117259093D01*
X150861904Y-116763855D02*
X150785714Y-116763855D01*
X150785714Y-116763855D02*
X150709523Y-116801950D01*
X150709523Y-116801950D02*
X150671428Y-116840045D01*
X150671428Y-116840045D02*
X150633333Y-116916236D01*
X150633333Y-116916236D02*
X150595238Y-117068617D01*
X150595238Y-117068617D02*
X150595238Y-117259093D01*
X150595238Y-117259093D02*
X150633333Y-117411474D01*
X150633333Y-117411474D02*
X150671428Y-117487664D01*
X150671428Y-117487664D02*
X150709523Y-117525760D01*
X150709523Y-117525760D02*
X150785714Y-117563855D01*
X150785714Y-117563855D02*
X150861904Y-117563855D01*
X150861904Y-117563855D02*
X150938095Y-117525760D01*
X150938095Y-117525760D02*
X150976190Y-117487664D01*
X150976190Y-117487664D02*
X151014285Y-117411474D01*
X151014285Y-117411474D02*
X151052381Y-117259093D01*
X151052381Y-117259093D02*
X151052381Y-117068617D01*
X151052381Y-117068617D02*
X151014285Y-116916236D01*
X151014285Y-116916236D02*
X150976190Y-116840045D01*
X150976190Y-116840045D02*
X150938095Y-116801950D01*
X150938095Y-116801950D02*
X150861904Y-116763855D01*
X150138095Y-117106712D02*
X150214285Y-117068617D01*
X150214285Y-117068617D02*
X150252380Y-117030521D01*
X150252380Y-117030521D02*
X150290476Y-116954331D01*
X150290476Y-116954331D02*
X150290476Y-116916236D01*
X150290476Y-116916236D02*
X150252380Y-116840045D01*
X150252380Y-116840045D02*
X150214285Y-116801950D01*
X150214285Y-116801950D02*
X150138095Y-116763855D01*
X150138095Y-116763855D02*
X149985714Y-116763855D01*
X149985714Y-116763855D02*
X149909523Y-116801950D01*
X149909523Y-116801950D02*
X149871428Y-116840045D01*
X149871428Y-116840045D02*
X149833333Y-116916236D01*
X149833333Y-116916236D02*
X149833333Y-116954331D01*
X149833333Y-116954331D02*
X149871428Y-117030521D01*
X149871428Y-117030521D02*
X149909523Y-117068617D01*
X149909523Y-117068617D02*
X149985714Y-117106712D01*
X149985714Y-117106712D02*
X150138095Y-117106712D01*
X150138095Y-117106712D02*
X150214285Y-117144807D01*
X150214285Y-117144807D02*
X150252380Y-117182902D01*
X150252380Y-117182902D02*
X150290476Y-117259093D01*
X150290476Y-117259093D02*
X150290476Y-117411474D01*
X150290476Y-117411474D02*
X150252380Y-117487664D01*
X150252380Y-117487664D02*
X150214285Y-117525760D01*
X150214285Y-117525760D02*
X150138095Y-117563855D01*
X150138095Y-117563855D02*
X149985714Y-117563855D01*
X149985714Y-117563855D02*
X149909523Y-117525760D01*
X149909523Y-117525760D02*
X149871428Y-117487664D01*
X149871428Y-117487664D02*
X149833333Y-117411474D01*
X149833333Y-117411474D02*
X149833333Y-117259093D01*
X149833333Y-117259093D02*
X149871428Y-117182902D01*
X149871428Y-117182902D02*
X149909523Y-117144807D01*
X149909523Y-117144807D02*
X149985714Y-117106712D01*
X149566666Y-116763855D02*
X149033332Y-116763855D01*
X149033332Y-116763855D02*
X149376190Y-117563855D01*
X148309523Y-116801950D02*
X148385713Y-116763855D01*
X148385713Y-116763855D02*
X148499999Y-116763855D01*
X148499999Y-116763855D02*
X148614285Y-116801950D01*
X148614285Y-116801950D02*
X148690475Y-116878140D01*
X148690475Y-116878140D02*
X148728570Y-116954331D01*
X148728570Y-116954331D02*
X148766666Y-117106712D01*
X148766666Y-117106712D02*
X148766666Y-117220998D01*
X148766666Y-117220998D02*
X148728570Y-117373379D01*
X148728570Y-117373379D02*
X148690475Y-117449569D01*
X148690475Y-117449569D02*
X148614285Y-117525760D01*
X148614285Y-117525760D02*
X148499999Y-117563855D01*
X148499999Y-117563855D02*
X148423808Y-117563855D01*
X148423808Y-117563855D02*
X148309523Y-117525760D01*
X148309523Y-117525760D02*
X148271427Y-117487664D01*
X148271427Y-117487664D02*
X148271427Y-117220998D01*
X148271427Y-117220998D02*
X148423808Y-117220998D01*
X147319046Y-117259093D02*
X146709523Y-117259093D01*
X147014284Y-117563855D02*
X147014284Y-116954331D01*
X145719046Y-117144807D02*
X145452380Y-117144807D01*
X145338094Y-117563855D02*
X145719046Y-117563855D01*
X145719046Y-117563855D02*
X145719046Y-116763855D01*
X145719046Y-116763855D02*
X145338094Y-116763855D01*
X144538093Y-117487664D02*
X144576189Y-117525760D01*
X144576189Y-117525760D02*
X144690474Y-117563855D01*
X144690474Y-117563855D02*
X144766665Y-117563855D01*
X144766665Y-117563855D02*
X144880951Y-117525760D01*
X144880951Y-117525760D02*
X144957141Y-117449569D01*
X144957141Y-117449569D02*
X144995236Y-117373379D01*
X144995236Y-117373379D02*
X145033332Y-117220998D01*
X145033332Y-117220998D02*
X145033332Y-117106712D01*
X145033332Y-117106712D02*
X144995236Y-116954331D01*
X144995236Y-116954331D02*
X144957141Y-116878140D01*
X144957141Y-116878140D02*
X144880951Y-116801950D01*
X144880951Y-116801950D02*
X144766665Y-116763855D01*
X144766665Y-116763855D02*
X144690474Y-116763855D01*
X144690474Y-116763855D02*
X144576189Y-116801950D01*
X144576189Y-116801950D02*
X144538093Y-116840045D01*
X143204760Y-116763855D02*
X143585712Y-116763855D01*
X143585712Y-116763855D02*
X143623808Y-117144807D01*
X143623808Y-117144807D02*
X143585712Y-117106712D01*
X143585712Y-117106712D02*
X143509522Y-117068617D01*
X143509522Y-117068617D02*
X143319046Y-117068617D01*
X143319046Y-117068617D02*
X143242855Y-117106712D01*
X143242855Y-117106712D02*
X143204760Y-117144807D01*
X143204760Y-117144807D02*
X143166665Y-117220998D01*
X143166665Y-117220998D02*
X143166665Y-117411474D01*
X143166665Y-117411474D02*
X143204760Y-117487664D01*
X143204760Y-117487664D02*
X143242855Y-117525760D01*
X143242855Y-117525760D02*
X143319046Y-117563855D01*
X143319046Y-117563855D02*
X143509522Y-117563855D01*
X143509522Y-117563855D02*
X143585712Y-117525760D01*
X143585712Y-117525760D02*
X143623808Y-117487664D01*
X142480950Y-116763855D02*
X142633331Y-116763855D01*
X142633331Y-116763855D02*
X142709522Y-116801950D01*
X142709522Y-116801950D02*
X142747617Y-116840045D01*
X142747617Y-116840045D02*
X142823807Y-116954331D01*
X142823807Y-116954331D02*
X142861903Y-117106712D01*
X142861903Y-117106712D02*
X142861903Y-117411474D01*
X142861903Y-117411474D02*
X142823807Y-117487664D01*
X142823807Y-117487664D02*
X142785712Y-117525760D01*
X142785712Y-117525760D02*
X142709522Y-117563855D01*
X142709522Y-117563855D02*
X142557141Y-117563855D01*
X142557141Y-117563855D02*
X142480950Y-117525760D01*
X142480950Y-117525760D02*
X142442855Y-117487664D01*
X142442855Y-117487664D02*
X142404760Y-117411474D01*
X142404760Y-117411474D02*
X142404760Y-117220998D01*
X142404760Y-117220998D02*
X142442855Y-117144807D01*
X142442855Y-117144807D02*
X142480950Y-117106712D01*
X142480950Y-117106712D02*
X142557141Y-117068617D01*
X142557141Y-117068617D02*
X142709522Y-117068617D01*
X142709522Y-117068617D02*
X142785712Y-117106712D01*
X142785712Y-117106712D02*
X142823807Y-117144807D01*
X142823807Y-117144807D02*
X142861903Y-117220998D01*
X142061902Y-117259093D02*
X141452379Y-117259093D01*
X141071426Y-117030521D02*
X141071426Y-117830521D01*
X141071426Y-117068617D02*
X140995236Y-117030521D01*
X140995236Y-117030521D02*
X140842855Y-117030521D01*
X140842855Y-117030521D02*
X140766664Y-117068617D01*
X140766664Y-117068617D02*
X140728569Y-117106712D01*
X140728569Y-117106712D02*
X140690474Y-117182902D01*
X140690474Y-117182902D02*
X140690474Y-117411474D01*
X140690474Y-117411474D02*
X140728569Y-117487664D01*
X140728569Y-117487664D02*
X140766664Y-117525760D01*
X140766664Y-117525760D02*
X140842855Y-117563855D01*
X140842855Y-117563855D02*
X140995236Y-117563855D01*
X140995236Y-117563855D02*
X141071426Y-117525760D01*
X140347616Y-117563855D02*
X140347616Y-117030521D01*
X140347616Y-116763855D02*
X140385712Y-116801950D01*
X140385712Y-116801950D02*
X140347616Y-116840045D01*
X140347616Y-116840045D02*
X140309521Y-116801950D01*
X140309521Y-116801950D02*
X140347616Y-116763855D01*
X140347616Y-116763855D02*
X140347616Y-116840045D01*
X139966664Y-117030521D02*
X139966664Y-117563855D01*
X139966664Y-117106712D02*
X139928569Y-117068617D01*
X139928569Y-117068617D02*
X139852379Y-117030521D01*
X139852379Y-117030521D02*
X139738093Y-117030521D01*
X139738093Y-117030521D02*
X139661902Y-117068617D01*
X139661902Y-117068617D02*
X139623807Y-117144807D01*
X139623807Y-117144807D02*
X139623807Y-117563855D01*
X138633330Y-117563855D02*
X138633330Y-116763855D01*
X138290473Y-117563855D02*
X138290473Y-117144807D01*
X138290473Y-117144807D02*
X138328568Y-117068617D01*
X138328568Y-117068617D02*
X138404759Y-117030521D01*
X138404759Y-117030521D02*
X138519045Y-117030521D01*
X138519045Y-117030521D02*
X138595235Y-117068617D01*
X138595235Y-117068617D02*
X138633330Y-117106712D01*
X137604758Y-117525760D02*
X137680949Y-117563855D01*
X137680949Y-117563855D02*
X137833330Y-117563855D01*
X137833330Y-117563855D02*
X137909520Y-117525760D01*
X137909520Y-117525760D02*
X137947616Y-117449569D01*
X137947616Y-117449569D02*
X137947616Y-117144807D01*
X137947616Y-117144807D02*
X137909520Y-117068617D01*
X137909520Y-117068617D02*
X137833330Y-117030521D01*
X137833330Y-117030521D02*
X137680949Y-117030521D01*
X137680949Y-117030521D02*
X137604758Y-117068617D01*
X137604758Y-117068617D02*
X137566663Y-117144807D01*
X137566663Y-117144807D02*
X137566663Y-117220998D01*
X137566663Y-117220998D02*
X137947616Y-117297188D01*
X136880949Y-117563855D02*
X136880949Y-117144807D01*
X136880949Y-117144807D02*
X136919044Y-117068617D01*
X136919044Y-117068617D02*
X136995235Y-117030521D01*
X136995235Y-117030521D02*
X137147616Y-117030521D01*
X137147616Y-117030521D02*
X137223806Y-117068617D01*
X136880949Y-117525760D02*
X136957140Y-117563855D01*
X136957140Y-117563855D02*
X137147616Y-117563855D01*
X137147616Y-117563855D02*
X137223806Y-117525760D01*
X137223806Y-117525760D02*
X137261902Y-117449569D01*
X137261902Y-117449569D02*
X137261902Y-117373379D01*
X137261902Y-117373379D02*
X137223806Y-117297188D01*
X137223806Y-117297188D02*
X137147616Y-117259093D01*
X137147616Y-117259093D02*
X136957140Y-117259093D01*
X136957140Y-117259093D02*
X136880949Y-117220998D01*
X136157139Y-117563855D02*
X136157139Y-116763855D01*
X136157139Y-117525760D02*
X136233330Y-117563855D01*
X136233330Y-117563855D02*
X136385711Y-117563855D01*
X136385711Y-117563855D02*
X136461901Y-117525760D01*
X136461901Y-117525760D02*
X136499996Y-117487664D01*
X136499996Y-117487664D02*
X136538092Y-117411474D01*
X136538092Y-117411474D02*
X136538092Y-117182902D01*
X136538092Y-117182902D02*
X136499996Y-117106712D01*
X136499996Y-117106712D02*
X136461901Y-117068617D01*
X136461901Y-117068617D02*
X136385711Y-117030521D01*
X136385711Y-117030521D02*
X136233330Y-117030521D01*
X136233330Y-117030521D02*
X136157139Y-117068617D01*
X135471424Y-117525760D02*
X135547615Y-117563855D01*
X135547615Y-117563855D02*
X135699996Y-117563855D01*
X135699996Y-117563855D02*
X135776186Y-117525760D01*
X135776186Y-117525760D02*
X135814282Y-117449569D01*
X135814282Y-117449569D02*
X135814282Y-117144807D01*
X135814282Y-117144807D02*
X135776186Y-117068617D01*
X135776186Y-117068617D02*
X135699996Y-117030521D01*
X135699996Y-117030521D02*
X135547615Y-117030521D01*
X135547615Y-117030521D02*
X135471424Y-117068617D01*
X135471424Y-117068617D02*
X135433329Y-117144807D01*
X135433329Y-117144807D02*
X135433329Y-117220998D01*
X135433329Y-117220998D02*
X135814282Y-117297188D01*
X135090472Y-117563855D02*
X135090472Y-117030521D01*
X135090472Y-117182902D02*
X135052377Y-117106712D01*
X135052377Y-117106712D02*
X135014282Y-117068617D01*
X135014282Y-117068617D02*
X134938091Y-117030521D01*
X134938091Y-117030521D02*
X134861901Y-117030521D01*
D11*
X161738097Y-115331009D02*
X162071430Y-115331009D01*
X162071430Y-115854819D02*
X162071430Y-114854819D01*
X162071430Y-114854819D02*
X161595240Y-114854819D01*
X161071430Y-115854819D02*
X161166668Y-115807200D01*
X161166668Y-115807200D02*
X161214287Y-115711961D01*
X161214287Y-115711961D02*
X161214287Y-114854819D01*
X160261906Y-115854819D02*
X160261906Y-115331009D01*
X160261906Y-115331009D02*
X160309525Y-115235771D01*
X160309525Y-115235771D02*
X160404763Y-115188152D01*
X160404763Y-115188152D02*
X160595239Y-115188152D01*
X160595239Y-115188152D02*
X160690477Y-115235771D01*
X160261906Y-115807200D02*
X160357144Y-115854819D01*
X160357144Y-115854819D02*
X160595239Y-115854819D01*
X160595239Y-115854819D02*
X160690477Y-115807200D01*
X160690477Y-115807200D02*
X160738096Y-115711961D01*
X160738096Y-115711961D02*
X160738096Y-115616723D01*
X160738096Y-115616723D02*
X160690477Y-115521485D01*
X160690477Y-115521485D02*
X160595239Y-115473866D01*
X160595239Y-115473866D02*
X160357144Y-115473866D01*
X160357144Y-115473866D02*
X160261906Y-115426247D01*
X159833334Y-115807200D02*
X159738096Y-115854819D01*
X159738096Y-115854819D02*
X159547620Y-115854819D01*
X159547620Y-115854819D02*
X159452382Y-115807200D01*
X159452382Y-115807200D02*
X159404763Y-115711961D01*
X159404763Y-115711961D02*
X159404763Y-115664342D01*
X159404763Y-115664342D02*
X159452382Y-115569104D01*
X159452382Y-115569104D02*
X159547620Y-115521485D01*
X159547620Y-115521485D02*
X159690477Y-115521485D01*
X159690477Y-115521485D02*
X159785715Y-115473866D01*
X159785715Y-115473866D02*
X159833334Y-115378628D01*
X159833334Y-115378628D02*
X159833334Y-115331009D01*
X159833334Y-115331009D02*
X159785715Y-115235771D01*
X159785715Y-115235771D02*
X159690477Y-115188152D01*
X159690477Y-115188152D02*
X159547620Y-115188152D01*
X159547620Y-115188152D02*
X159452382Y-115235771D01*
X158976191Y-115854819D02*
X158976191Y-114854819D01*
X158547620Y-115854819D02*
X158547620Y-115331009D01*
X158547620Y-115331009D02*
X158595239Y-115235771D01*
X158595239Y-115235771D02*
X158690477Y-115188152D01*
X158690477Y-115188152D02*
X158833334Y-115188152D01*
X158833334Y-115188152D02*
X158928572Y-115235771D01*
X158928572Y-115235771D02*
X158976191Y-115283390D01*
X157500001Y-115759580D02*
X157547620Y-115807200D01*
X157547620Y-115807200D02*
X157690477Y-115854819D01*
X157690477Y-115854819D02*
X157785715Y-115854819D01*
X157785715Y-115854819D02*
X157928572Y-115807200D01*
X157928572Y-115807200D02*
X158023810Y-115711961D01*
X158023810Y-115711961D02*
X158071429Y-115616723D01*
X158071429Y-115616723D02*
X158119048Y-115426247D01*
X158119048Y-115426247D02*
X158119048Y-115283390D01*
X158119048Y-115283390D02*
X158071429Y-115092914D01*
X158071429Y-115092914D02*
X158023810Y-114997676D01*
X158023810Y-114997676D02*
X157928572Y-114902438D01*
X157928572Y-114902438D02*
X157785715Y-114854819D01*
X157785715Y-114854819D02*
X157690477Y-114854819D01*
X157690477Y-114854819D02*
X157547620Y-114902438D01*
X157547620Y-114902438D02*
X157500001Y-114950057D01*
X157119048Y-115569104D02*
X156642858Y-115569104D01*
X157214286Y-115854819D02*
X156880953Y-114854819D01*
X156880953Y-114854819D02*
X156547620Y-115854819D01*
X156357143Y-114854819D02*
X155785715Y-114854819D01*
X156071429Y-115854819D02*
X156071429Y-114854819D01*
X154690476Y-115854819D02*
X154690476Y-114854819D01*
X154690476Y-114854819D02*
X154309524Y-114854819D01*
X154309524Y-114854819D02*
X154214286Y-114902438D01*
X154214286Y-114902438D02*
X154166667Y-114950057D01*
X154166667Y-114950057D02*
X154119048Y-115045295D01*
X154119048Y-115045295D02*
X154119048Y-115188152D01*
X154119048Y-115188152D02*
X154166667Y-115283390D01*
X154166667Y-115283390D02*
X154214286Y-115331009D01*
X154214286Y-115331009D02*
X154309524Y-115378628D01*
X154309524Y-115378628D02*
X154690476Y-115378628D01*
X153785714Y-114854819D02*
X153166667Y-114854819D01*
X153166667Y-114854819D02*
X153500000Y-115235771D01*
X153500000Y-115235771D02*
X153357143Y-115235771D01*
X153357143Y-115235771D02*
X153261905Y-115283390D01*
X153261905Y-115283390D02*
X153214286Y-115331009D01*
X153214286Y-115331009D02*
X153166667Y-115426247D01*
X153166667Y-115426247D02*
X153166667Y-115664342D01*
X153166667Y-115664342D02*
X153214286Y-115759580D01*
X153214286Y-115759580D02*
X153261905Y-115807200D01*
X153261905Y-115807200D02*
X153357143Y-115854819D01*
X153357143Y-115854819D02*
X153642857Y-115854819D01*
X153642857Y-115854819D02*
X153738095Y-115807200D01*
X153738095Y-115807200D02*
X153785714Y-115759580D01*
X152547619Y-114854819D02*
X152452381Y-114854819D01*
X152452381Y-114854819D02*
X152357143Y-114902438D01*
X152357143Y-114902438D02*
X152309524Y-114950057D01*
X152309524Y-114950057D02*
X152261905Y-115045295D01*
X152261905Y-115045295D02*
X152214286Y-115235771D01*
X152214286Y-115235771D02*
X152214286Y-115473866D01*
X152214286Y-115473866D02*
X152261905Y-115664342D01*
X152261905Y-115664342D02*
X152309524Y-115759580D01*
X152309524Y-115759580D02*
X152357143Y-115807200D01*
X152357143Y-115807200D02*
X152452381Y-115854819D01*
X152452381Y-115854819D02*
X152547619Y-115854819D01*
X152547619Y-115854819D02*
X152642857Y-115807200D01*
X152642857Y-115807200D02*
X152690476Y-115759580D01*
X152690476Y-115759580D02*
X152738095Y-115664342D01*
X152738095Y-115664342D02*
X152785714Y-115473866D01*
X152785714Y-115473866D02*
X152785714Y-115235771D01*
X152785714Y-115235771D02*
X152738095Y-115045295D01*
X152738095Y-115045295D02*
X152690476Y-114950057D01*
X152690476Y-114950057D02*
X152642857Y-114902438D01*
X152642857Y-114902438D02*
X152547619Y-114854819D01*
X151023809Y-115331009D02*
X150690476Y-115331009D01*
X150547619Y-115854819D02*
X151023809Y-115854819D01*
X151023809Y-115854819D02*
X151023809Y-114854819D01*
X151023809Y-114854819D02*
X150547619Y-114854819D01*
X149690476Y-115854819D02*
X149690476Y-115331009D01*
X149690476Y-115331009D02*
X149738095Y-115235771D01*
X149738095Y-115235771D02*
X149833333Y-115188152D01*
X149833333Y-115188152D02*
X150023809Y-115188152D01*
X150023809Y-115188152D02*
X150119047Y-115235771D01*
X149690476Y-115807200D02*
X149785714Y-115854819D01*
X149785714Y-115854819D02*
X150023809Y-115854819D01*
X150023809Y-115854819D02*
X150119047Y-115807200D01*
X150119047Y-115807200D02*
X150166666Y-115711961D01*
X150166666Y-115711961D02*
X150166666Y-115616723D01*
X150166666Y-115616723D02*
X150119047Y-115521485D01*
X150119047Y-115521485D02*
X150023809Y-115473866D01*
X150023809Y-115473866D02*
X149785714Y-115473866D01*
X149785714Y-115473866D02*
X149690476Y-115426247D01*
X149261904Y-115807200D02*
X149166666Y-115854819D01*
X149166666Y-115854819D02*
X148976190Y-115854819D01*
X148976190Y-115854819D02*
X148880952Y-115807200D01*
X148880952Y-115807200D02*
X148833333Y-115711961D01*
X148833333Y-115711961D02*
X148833333Y-115664342D01*
X148833333Y-115664342D02*
X148880952Y-115569104D01*
X148880952Y-115569104D02*
X148976190Y-115521485D01*
X148976190Y-115521485D02*
X149119047Y-115521485D01*
X149119047Y-115521485D02*
X149214285Y-115473866D01*
X149214285Y-115473866D02*
X149261904Y-115378628D01*
X149261904Y-115378628D02*
X149261904Y-115331009D01*
X149261904Y-115331009D02*
X149214285Y-115235771D01*
X149214285Y-115235771D02*
X149119047Y-115188152D01*
X149119047Y-115188152D02*
X148976190Y-115188152D01*
X148976190Y-115188152D02*
X148880952Y-115235771D01*
X148499999Y-115188152D02*
X148261904Y-115854819D01*
X148023809Y-115188152D02*
X148261904Y-115854819D01*
X148261904Y-115854819D02*
X148357142Y-116092914D01*
X148357142Y-116092914D02*
X148404761Y-116140533D01*
X148404761Y-116140533D02*
X148499999Y-116188152D01*
X146547618Y-115331009D02*
X146404761Y-115378628D01*
X146404761Y-115378628D02*
X146357142Y-115426247D01*
X146357142Y-115426247D02*
X146309523Y-115521485D01*
X146309523Y-115521485D02*
X146309523Y-115664342D01*
X146309523Y-115664342D02*
X146357142Y-115759580D01*
X146357142Y-115759580D02*
X146404761Y-115807200D01*
X146404761Y-115807200D02*
X146499999Y-115854819D01*
X146499999Y-115854819D02*
X146880951Y-115854819D01*
X146880951Y-115854819D02*
X146880951Y-114854819D01*
X146880951Y-114854819D02*
X146547618Y-114854819D01*
X146547618Y-114854819D02*
X146452380Y-114902438D01*
X146452380Y-114902438D02*
X146404761Y-114950057D01*
X146404761Y-114950057D02*
X146357142Y-115045295D01*
X146357142Y-115045295D02*
X146357142Y-115140533D01*
X146357142Y-115140533D02*
X146404761Y-115235771D01*
X146404761Y-115235771D02*
X146452380Y-115283390D01*
X146452380Y-115283390D02*
X146547618Y-115331009D01*
X146547618Y-115331009D02*
X146880951Y-115331009D01*
X145357142Y-114902438D02*
X145452380Y-114854819D01*
X145452380Y-114854819D02*
X145595237Y-114854819D01*
X145595237Y-114854819D02*
X145738094Y-114902438D01*
X145738094Y-114902438D02*
X145833332Y-114997676D01*
X145833332Y-114997676D02*
X145880951Y-115092914D01*
X145880951Y-115092914D02*
X145928570Y-115283390D01*
X145928570Y-115283390D02*
X145928570Y-115426247D01*
X145928570Y-115426247D02*
X145880951Y-115616723D01*
X145880951Y-115616723D02*
X145833332Y-115711961D01*
X145833332Y-115711961D02*
X145738094Y-115807200D01*
X145738094Y-115807200D02*
X145595237Y-115854819D01*
X145595237Y-115854819D02*
X145499999Y-115854819D01*
X145499999Y-115854819D02*
X145357142Y-115807200D01*
X145357142Y-115807200D02*
X145309523Y-115759580D01*
X145309523Y-115759580D02*
X145309523Y-115426247D01*
X145309523Y-115426247D02*
X145499999Y-115426247D01*
X144928570Y-115569104D02*
X144452380Y-115569104D01*
X145023808Y-115854819D02*
X144690475Y-114854819D01*
X144690475Y-114854819D02*
X144357142Y-115854819D01*
X144023808Y-115473866D02*
X143261904Y-115473866D01*
X142357142Y-114854819D02*
X142547618Y-114854819D01*
X142547618Y-114854819D02*
X142642856Y-114902438D01*
X142642856Y-114902438D02*
X142690475Y-114950057D01*
X142690475Y-114950057D02*
X142785713Y-115092914D01*
X142785713Y-115092914D02*
X142833332Y-115283390D01*
X142833332Y-115283390D02*
X142833332Y-115664342D01*
X142833332Y-115664342D02*
X142785713Y-115759580D01*
X142785713Y-115759580D02*
X142738094Y-115807200D01*
X142738094Y-115807200D02*
X142642856Y-115854819D01*
X142642856Y-115854819D02*
X142452380Y-115854819D01*
X142452380Y-115854819D02*
X142357142Y-115807200D01*
X142357142Y-115807200D02*
X142309523Y-115759580D01*
X142309523Y-115759580D02*
X142261904Y-115664342D01*
X142261904Y-115664342D02*
X142261904Y-115426247D01*
X142261904Y-115426247D02*
X142309523Y-115331009D01*
X142309523Y-115331009D02*
X142357142Y-115283390D01*
X142357142Y-115283390D02*
X142452380Y-115235771D01*
X142452380Y-115235771D02*
X142642856Y-115235771D01*
X142642856Y-115235771D02*
X142738094Y-115283390D01*
X142738094Y-115283390D02*
X142785713Y-115331009D01*
X142785713Y-115331009D02*
X142833332Y-115426247D01*
X141404761Y-115188152D02*
X141404761Y-115854819D01*
X141642856Y-114807200D02*
X141880951Y-115521485D01*
X141880951Y-115521485D02*
X141261904Y-115521485D01*
X139690475Y-115854819D02*
X139690475Y-115331009D01*
X139690475Y-115331009D02*
X139738094Y-115235771D01*
X139738094Y-115235771D02*
X139833332Y-115188152D01*
X139833332Y-115188152D02*
X140023808Y-115188152D01*
X140023808Y-115188152D02*
X140119046Y-115235771D01*
X139690475Y-115807200D02*
X139785713Y-115854819D01*
X139785713Y-115854819D02*
X140023808Y-115854819D01*
X140023808Y-115854819D02*
X140119046Y-115807200D01*
X140119046Y-115807200D02*
X140166665Y-115711961D01*
X140166665Y-115711961D02*
X140166665Y-115616723D01*
X140166665Y-115616723D02*
X140119046Y-115521485D01*
X140119046Y-115521485D02*
X140023808Y-115473866D01*
X140023808Y-115473866D02*
X139785713Y-115473866D01*
X139785713Y-115473866D02*
X139690475Y-115426247D01*
X138785713Y-115854819D02*
X138785713Y-114854819D01*
X138785713Y-115807200D02*
X138880951Y-115854819D01*
X138880951Y-115854819D02*
X139071427Y-115854819D01*
X139071427Y-115854819D02*
X139166665Y-115807200D01*
X139166665Y-115807200D02*
X139214284Y-115759580D01*
X139214284Y-115759580D02*
X139261903Y-115664342D01*
X139261903Y-115664342D02*
X139261903Y-115378628D01*
X139261903Y-115378628D02*
X139214284Y-115283390D01*
X139214284Y-115283390D02*
X139166665Y-115235771D01*
X139166665Y-115235771D02*
X139071427Y-115188152D01*
X139071427Y-115188152D02*
X138880951Y-115188152D01*
X138880951Y-115188152D02*
X138785713Y-115235771D01*
X137880951Y-115854819D02*
X137880951Y-115331009D01*
X137880951Y-115331009D02*
X137928570Y-115235771D01*
X137928570Y-115235771D02*
X138023808Y-115188152D01*
X138023808Y-115188152D02*
X138214284Y-115188152D01*
X138214284Y-115188152D02*
X138309522Y-115235771D01*
X137880951Y-115807200D02*
X137976189Y-115854819D01*
X137976189Y-115854819D02*
X138214284Y-115854819D01*
X138214284Y-115854819D02*
X138309522Y-115807200D01*
X138309522Y-115807200D02*
X138357141Y-115711961D01*
X138357141Y-115711961D02*
X138357141Y-115616723D01*
X138357141Y-115616723D02*
X138309522Y-115521485D01*
X138309522Y-115521485D02*
X138214284Y-115473866D01*
X138214284Y-115473866D02*
X137976189Y-115473866D01*
X137976189Y-115473866D02*
X137880951Y-115426247D01*
X137404760Y-115188152D02*
X137404760Y-116188152D01*
X137404760Y-115235771D02*
X137309522Y-115188152D01*
X137309522Y-115188152D02*
X137119046Y-115188152D01*
X137119046Y-115188152D02*
X137023808Y-115235771D01*
X137023808Y-115235771D02*
X136976189Y-115283390D01*
X136976189Y-115283390D02*
X136928570Y-115378628D01*
X136928570Y-115378628D02*
X136928570Y-115664342D01*
X136928570Y-115664342D02*
X136976189Y-115759580D01*
X136976189Y-115759580D02*
X137023808Y-115807200D01*
X137023808Y-115807200D02*
X137119046Y-115854819D01*
X137119046Y-115854819D02*
X137309522Y-115854819D01*
X137309522Y-115854819D02*
X137404760Y-115807200D01*
X136642855Y-115188152D02*
X136261903Y-115188152D01*
X136499998Y-114854819D02*
X136499998Y-115711961D01*
X136499998Y-115711961D02*
X136452379Y-115807200D01*
X136452379Y-115807200D02*
X136357141Y-115854819D01*
X136357141Y-115854819D02*
X136261903Y-115854819D01*
X135547617Y-115807200D02*
X135642855Y-115854819D01*
X135642855Y-115854819D02*
X135833331Y-115854819D01*
X135833331Y-115854819D02*
X135928569Y-115807200D01*
X135928569Y-115807200D02*
X135976188Y-115711961D01*
X135976188Y-115711961D02*
X135976188Y-115331009D01*
X135976188Y-115331009D02*
X135928569Y-115235771D01*
X135928569Y-115235771D02*
X135833331Y-115188152D01*
X135833331Y-115188152D02*
X135642855Y-115188152D01*
X135642855Y-115188152D02*
X135547617Y-115235771D01*
X135547617Y-115235771D02*
X135499998Y-115331009D01*
X135499998Y-115331009D02*
X135499998Y-115426247D01*
X135499998Y-115426247D02*
X135976188Y-115521485D01*
X135071426Y-115854819D02*
X135071426Y-115188152D01*
X135071426Y-115378628D02*
X135023807Y-115283390D01*
X135023807Y-115283390D02*
X134976188Y-115235771D01*
X134976188Y-115235771D02*
X134880950Y-115188152D01*
X134880950Y-115188152D02*
X134785712Y-115188152D01*
D10*
X146493332Y-111752664D02*
X146531428Y-111790760D01*
X146531428Y-111790760D02*
X146645713Y-111828855D01*
X146645713Y-111828855D02*
X146721904Y-111828855D01*
X146721904Y-111828855D02*
X146836190Y-111790760D01*
X146836190Y-111790760D02*
X146912380Y-111714569D01*
X146912380Y-111714569D02*
X146950475Y-111638379D01*
X146950475Y-111638379D02*
X146988571Y-111485998D01*
X146988571Y-111485998D02*
X146988571Y-111371712D01*
X146988571Y-111371712D02*
X146950475Y-111219331D01*
X146950475Y-111219331D02*
X146912380Y-111143140D01*
X146912380Y-111143140D02*
X146836190Y-111066950D01*
X146836190Y-111066950D02*
X146721904Y-111028855D01*
X146721904Y-111028855D02*
X146645713Y-111028855D01*
X146645713Y-111028855D02*
X146531428Y-111066950D01*
X146531428Y-111066950D02*
X146493332Y-111105045D01*
X145807618Y-111295521D02*
X145807618Y-111828855D01*
X145998094Y-110990760D02*
X146188571Y-111562188D01*
X146188571Y-111562188D02*
X145693332Y-111562188D01*
X151043332Y-111752664D02*
X151081428Y-111790760D01*
X151081428Y-111790760D02*
X151195713Y-111828855D01*
X151195713Y-111828855D02*
X151271904Y-111828855D01*
X151271904Y-111828855D02*
X151386190Y-111790760D01*
X151386190Y-111790760D02*
X151462380Y-111714569D01*
X151462380Y-111714569D02*
X151500475Y-111638379D01*
X151500475Y-111638379D02*
X151538571Y-111485998D01*
X151538571Y-111485998D02*
X151538571Y-111371712D01*
X151538571Y-111371712D02*
X151500475Y-111219331D01*
X151500475Y-111219331D02*
X151462380Y-111143140D01*
X151462380Y-111143140D02*
X151386190Y-111066950D01*
X151386190Y-111066950D02*
X151271904Y-111028855D01*
X151271904Y-111028855D02*
X151195713Y-111028855D01*
X151195713Y-111028855D02*
X151081428Y-111066950D01*
X151081428Y-111066950D02*
X151043332Y-111105045D01*
X150776666Y-111028855D02*
X150243332Y-111028855D01*
X150243332Y-111028855D02*
X150586190Y-111828855D01*
X144233332Y-87737664D02*
X144271428Y-87775760D01*
X144271428Y-87775760D02*
X144385713Y-87813855D01*
X144385713Y-87813855D02*
X144461904Y-87813855D01*
X144461904Y-87813855D02*
X144576190Y-87775760D01*
X144576190Y-87775760D02*
X144652380Y-87699569D01*
X144652380Y-87699569D02*
X144690475Y-87623379D01*
X144690475Y-87623379D02*
X144728571Y-87470998D01*
X144728571Y-87470998D02*
X144728571Y-87356712D01*
X144728571Y-87356712D02*
X144690475Y-87204331D01*
X144690475Y-87204331D02*
X144652380Y-87128140D01*
X144652380Y-87128140D02*
X144576190Y-87051950D01*
X144576190Y-87051950D02*
X144461904Y-87013855D01*
X144461904Y-87013855D02*
X144385713Y-87013855D01*
X144385713Y-87013855D02*
X144271428Y-87051950D01*
X144271428Y-87051950D02*
X144233332Y-87090045D01*
X143928571Y-87090045D02*
X143890475Y-87051950D01*
X143890475Y-87051950D02*
X143814285Y-87013855D01*
X143814285Y-87013855D02*
X143623809Y-87013855D01*
X143623809Y-87013855D02*
X143547618Y-87051950D01*
X143547618Y-87051950D02*
X143509523Y-87090045D01*
X143509523Y-87090045D02*
X143471428Y-87166236D01*
X143471428Y-87166236D02*
X143471428Y-87242426D01*
X143471428Y-87242426D02*
X143509523Y-87356712D01*
X143509523Y-87356712D02*
X143966666Y-87813855D01*
X143966666Y-87813855D02*
X143471428Y-87813855D01*
X144833332Y-122913855D02*
X145099999Y-122532902D01*
X145290475Y-122913855D02*
X145290475Y-122113855D01*
X145290475Y-122113855D02*
X144985713Y-122113855D01*
X144985713Y-122113855D02*
X144909523Y-122151950D01*
X144909523Y-122151950D02*
X144871428Y-122190045D01*
X144871428Y-122190045D02*
X144833332Y-122266236D01*
X144833332Y-122266236D02*
X144833332Y-122380521D01*
X144833332Y-122380521D02*
X144871428Y-122456712D01*
X144871428Y-122456712D02*
X144909523Y-122494807D01*
X144909523Y-122494807D02*
X144985713Y-122532902D01*
X144985713Y-122532902D02*
X145290475Y-122532902D01*
X144071428Y-122913855D02*
X144528571Y-122913855D01*
X144299999Y-122913855D02*
X144299999Y-122113855D01*
X144299999Y-122113855D02*
X144376190Y-122228140D01*
X144376190Y-122228140D02*
X144452380Y-122304331D01*
X144452380Y-122304331D02*
X144528571Y-122342426D01*
X140909523Y-87013855D02*
X140909523Y-87661474D01*
X140909523Y-87661474D02*
X140871428Y-87737664D01*
X140871428Y-87737664D02*
X140833333Y-87775760D01*
X140833333Y-87775760D02*
X140757142Y-87813855D01*
X140757142Y-87813855D02*
X140604761Y-87813855D01*
X140604761Y-87813855D02*
X140528571Y-87775760D01*
X140528571Y-87775760D02*
X140490476Y-87737664D01*
X140490476Y-87737664D02*
X140452380Y-87661474D01*
X140452380Y-87661474D02*
X140452380Y-87013855D01*
X140109524Y-87090045D02*
X140071428Y-87051950D01*
X140071428Y-87051950D02*
X139995238Y-87013855D01*
X139995238Y-87013855D02*
X139804762Y-87013855D01*
X139804762Y-87013855D02*
X139728571Y-87051950D01*
X139728571Y-87051950D02*
X139690476Y-87090045D01*
X139690476Y-87090045D02*
X139652381Y-87166236D01*
X139652381Y-87166236D02*
X139652381Y-87242426D01*
X139652381Y-87242426D02*
X139690476Y-87356712D01*
X139690476Y-87356712D02*
X140147619Y-87813855D01*
X140147619Y-87813855D02*
X139652381Y-87813855D01*
X136633332Y-87737664D02*
X136671428Y-87775760D01*
X136671428Y-87775760D02*
X136785713Y-87813855D01*
X136785713Y-87813855D02*
X136861904Y-87813855D01*
X136861904Y-87813855D02*
X136976190Y-87775760D01*
X136976190Y-87775760D02*
X137052380Y-87699569D01*
X137052380Y-87699569D02*
X137090475Y-87623379D01*
X137090475Y-87623379D02*
X137128571Y-87470998D01*
X137128571Y-87470998D02*
X137128571Y-87356712D01*
X137128571Y-87356712D02*
X137090475Y-87204331D01*
X137090475Y-87204331D02*
X137052380Y-87128140D01*
X137052380Y-87128140D02*
X136976190Y-87051950D01*
X136976190Y-87051950D02*
X136861904Y-87013855D01*
X136861904Y-87013855D02*
X136785713Y-87013855D01*
X136785713Y-87013855D02*
X136671428Y-87051950D01*
X136671428Y-87051950D02*
X136633332Y-87090045D01*
X135871428Y-87813855D02*
X136328571Y-87813855D01*
X136099999Y-87813855D02*
X136099999Y-87013855D01*
X136099999Y-87013855D02*
X136176190Y-87128140D01*
X136176190Y-87128140D02*
X136252380Y-87204331D01*
X136252380Y-87204331D02*
X136328571Y-87242426D01*
X154233332Y-108577665D02*
X154271428Y-108615761D01*
X154271428Y-108615761D02*
X154385713Y-108653856D01*
X154385713Y-108653856D02*
X154461904Y-108653856D01*
X154461904Y-108653856D02*
X154576190Y-108615761D01*
X154576190Y-108615761D02*
X154652380Y-108539570D01*
X154652380Y-108539570D02*
X154690475Y-108463380D01*
X154690475Y-108463380D02*
X154728571Y-108310999D01*
X154728571Y-108310999D02*
X154728571Y-108196713D01*
X154728571Y-108196713D02*
X154690475Y-108044332D01*
X154690475Y-108044332D02*
X154652380Y-107968141D01*
X154652380Y-107968141D02*
X154576190Y-107891951D01*
X154576190Y-107891951D02*
X154461904Y-107853856D01*
X154461904Y-107853856D02*
X154385713Y-107853856D01*
X154385713Y-107853856D02*
X154271428Y-107891951D01*
X154271428Y-107891951D02*
X154233332Y-107930046D01*
X153509523Y-107853856D02*
X153890475Y-107853856D01*
X153890475Y-107853856D02*
X153928571Y-108234808D01*
X153928571Y-108234808D02*
X153890475Y-108196713D01*
X153890475Y-108196713D02*
X153814285Y-108158618D01*
X153814285Y-108158618D02*
X153623809Y-108158618D01*
X153623809Y-108158618D02*
X153547618Y-108196713D01*
X153547618Y-108196713D02*
X153509523Y-108234808D01*
X153509523Y-108234808D02*
X153471428Y-108310999D01*
X153471428Y-108310999D02*
X153471428Y-108501475D01*
X153471428Y-108501475D02*
X153509523Y-108577665D01*
X153509523Y-108577665D02*
X153547618Y-108615761D01*
X153547618Y-108615761D02*
X153623809Y-108653856D01*
X153623809Y-108653856D02*
X153814285Y-108653856D01*
X153814285Y-108653856D02*
X153890475Y-108615761D01*
X153890475Y-108615761D02*
X153928571Y-108577665D01*
X142853332Y-102177664D02*
X142891428Y-102215760D01*
X142891428Y-102215760D02*
X143005713Y-102253855D01*
X143005713Y-102253855D02*
X143081904Y-102253855D01*
X143081904Y-102253855D02*
X143196190Y-102215760D01*
X143196190Y-102215760D02*
X143272380Y-102139569D01*
X143272380Y-102139569D02*
X143310475Y-102063379D01*
X143310475Y-102063379D02*
X143348571Y-101910998D01*
X143348571Y-101910998D02*
X143348571Y-101796712D01*
X143348571Y-101796712D02*
X143310475Y-101644331D01*
X143310475Y-101644331D02*
X143272380Y-101568140D01*
X143272380Y-101568140D02*
X143196190Y-101491950D01*
X143196190Y-101491950D02*
X143081904Y-101453855D01*
X143081904Y-101453855D02*
X143005713Y-101453855D01*
X143005713Y-101453855D02*
X142891428Y-101491950D01*
X142891428Y-101491950D02*
X142853332Y-101530045D01*
X142167618Y-101453855D02*
X142319999Y-101453855D01*
X142319999Y-101453855D02*
X142396190Y-101491950D01*
X142396190Y-101491950D02*
X142434285Y-101530045D01*
X142434285Y-101530045D02*
X142510475Y-101644331D01*
X142510475Y-101644331D02*
X142548571Y-101796712D01*
X142548571Y-101796712D02*
X142548571Y-102101474D01*
X142548571Y-102101474D02*
X142510475Y-102177664D01*
X142510475Y-102177664D02*
X142472380Y-102215760D01*
X142472380Y-102215760D02*
X142396190Y-102253855D01*
X142396190Y-102253855D02*
X142243809Y-102253855D01*
X142243809Y-102253855D02*
X142167618Y-102215760D01*
X142167618Y-102215760D02*
X142129523Y-102177664D01*
X142129523Y-102177664D02*
X142091428Y-102101474D01*
X142091428Y-102101474D02*
X142091428Y-101910998D01*
X142091428Y-101910998D02*
X142129523Y-101834807D01*
X142129523Y-101834807D02*
X142167618Y-101796712D01*
X142167618Y-101796712D02*
X142243809Y-101758617D01*
X142243809Y-101758617D02*
X142396190Y-101758617D01*
X142396190Y-101758617D02*
X142472380Y-101796712D01*
X142472380Y-101796712D02*
X142510475Y-101834807D01*
X142510475Y-101834807D02*
X142548571Y-101910998D01*
D11*
X125233333Y-119654819D02*
X125233333Y-120369104D01*
X125233333Y-120369104D02*
X125280952Y-120511961D01*
X125280952Y-120511961D02*
X125376190Y-120607200D01*
X125376190Y-120607200D02*
X125519047Y-120654819D01*
X125519047Y-120654819D02*
X125614285Y-120654819D01*
X124233333Y-120654819D02*
X124804761Y-120654819D01*
X124519047Y-120654819D02*
X124519047Y-119654819D01*
X124519047Y-119654819D02*
X124614285Y-119797676D01*
X124614285Y-119797676D02*
X124709523Y-119892914D01*
X124709523Y-119892914D02*
X124804761Y-119940533D01*
D10*
X147033332Y-122837664D02*
X147071428Y-122875760D01*
X147071428Y-122875760D02*
X147185713Y-122913855D01*
X147185713Y-122913855D02*
X147261904Y-122913855D01*
X147261904Y-122913855D02*
X147376190Y-122875760D01*
X147376190Y-122875760D02*
X147452380Y-122799569D01*
X147452380Y-122799569D02*
X147490475Y-122723379D01*
X147490475Y-122723379D02*
X147528571Y-122570998D01*
X147528571Y-122570998D02*
X147528571Y-122456712D01*
X147528571Y-122456712D02*
X147490475Y-122304331D01*
X147490475Y-122304331D02*
X147452380Y-122228140D01*
X147452380Y-122228140D02*
X147376190Y-122151950D01*
X147376190Y-122151950D02*
X147261904Y-122113855D01*
X147261904Y-122113855D02*
X147185713Y-122113855D01*
X147185713Y-122113855D02*
X147071428Y-122151950D01*
X147071428Y-122151950D02*
X147033332Y-122190045D01*
X146652380Y-122913855D02*
X146499999Y-122913855D01*
X146499999Y-122913855D02*
X146423809Y-122875760D01*
X146423809Y-122875760D02*
X146385713Y-122837664D01*
X146385713Y-122837664D02*
X146309523Y-122723379D01*
X146309523Y-122723379D02*
X146271428Y-122570998D01*
X146271428Y-122570998D02*
X146271428Y-122266236D01*
X146271428Y-122266236D02*
X146309523Y-122190045D01*
X146309523Y-122190045D02*
X146347618Y-122151950D01*
X146347618Y-122151950D02*
X146423809Y-122113855D01*
X146423809Y-122113855D02*
X146576190Y-122113855D01*
X146576190Y-122113855D02*
X146652380Y-122151950D01*
X146652380Y-122151950D02*
X146690475Y-122190045D01*
X146690475Y-122190045D02*
X146728571Y-122266236D01*
X146728571Y-122266236D02*
X146728571Y-122456712D01*
X146728571Y-122456712D02*
X146690475Y-122532902D01*
X146690475Y-122532902D02*
X146652380Y-122570998D01*
X146652380Y-122570998D02*
X146576190Y-122609093D01*
X146576190Y-122609093D02*
X146423809Y-122609093D01*
X146423809Y-122609093D02*
X146347618Y-122570998D01*
X146347618Y-122570998D02*
X146309523Y-122532902D01*
X146309523Y-122532902D02*
X146271428Y-122456712D01*
X154233332Y-103177664D02*
X154271428Y-103215760D01*
X154271428Y-103215760D02*
X154385713Y-103253855D01*
X154385713Y-103253855D02*
X154461904Y-103253855D01*
X154461904Y-103253855D02*
X154576190Y-103215760D01*
X154576190Y-103215760D02*
X154652380Y-103139569D01*
X154652380Y-103139569D02*
X154690475Y-103063379D01*
X154690475Y-103063379D02*
X154728571Y-102910998D01*
X154728571Y-102910998D02*
X154728571Y-102796712D01*
X154728571Y-102796712D02*
X154690475Y-102644331D01*
X154690475Y-102644331D02*
X154652380Y-102568140D01*
X154652380Y-102568140D02*
X154576190Y-102491950D01*
X154576190Y-102491950D02*
X154461904Y-102453855D01*
X154461904Y-102453855D02*
X154385713Y-102453855D01*
X154385713Y-102453855D02*
X154271428Y-102491950D01*
X154271428Y-102491950D02*
X154233332Y-102530045D01*
X153966666Y-102453855D02*
X153471428Y-102453855D01*
X153471428Y-102453855D02*
X153738094Y-102758617D01*
X153738094Y-102758617D02*
X153623809Y-102758617D01*
X153623809Y-102758617D02*
X153547618Y-102796712D01*
X153547618Y-102796712D02*
X153509523Y-102834807D01*
X153509523Y-102834807D02*
X153471428Y-102910998D01*
X153471428Y-102910998D02*
X153471428Y-103101474D01*
X153471428Y-103101474D02*
X153509523Y-103177664D01*
X153509523Y-103177664D02*
X153547618Y-103215760D01*
X153547618Y-103215760D02*
X153623809Y-103253855D01*
X153623809Y-103253855D02*
X153852380Y-103253855D01*
X153852380Y-103253855D02*
X153928571Y-103215760D01*
X153928571Y-103215760D02*
X153966666Y-103177664D01*
X142853332Y-106577664D02*
X142891428Y-106615760D01*
X142891428Y-106615760D02*
X143005713Y-106653855D01*
X143005713Y-106653855D02*
X143081904Y-106653855D01*
X143081904Y-106653855D02*
X143196190Y-106615760D01*
X143196190Y-106615760D02*
X143272380Y-106539569D01*
X143272380Y-106539569D02*
X143310475Y-106463379D01*
X143310475Y-106463379D02*
X143348571Y-106310998D01*
X143348571Y-106310998D02*
X143348571Y-106196712D01*
X143348571Y-106196712D02*
X143310475Y-106044331D01*
X143310475Y-106044331D02*
X143272380Y-105968140D01*
X143272380Y-105968140D02*
X143196190Y-105891950D01*
X143196190Y-105891950D02*
X143081904Y-105853855D01*
X143081904Y-105853855D02*
X143005713Y-105853855D01*
X143005713Y-105853855D02*
X142891428Y-105891950D01*
X142891428Y-105891950D02*
X142853332Y-105930045D01*
X142396190Y-106196712D02*
X142472380Y-106158617D01*
X142472380Y-106158617D02*
X142510475Y-106120521D01*
X142510475Y-106120521D02*
X142548571Y-106044331D01*
X142548571Y-106044331D02*
X142548571Y-106006236D01*
X142548571Y-106006236D02*
X142510475Y-105930045D01*
X142510475Y-105930045D02*
X142472380Y-105891950D01*
X142472380Y-105891950D02*
X142396190Y-105853855D01*
X142396190Y-105853855D02*
X142243809Y-105853855D01*
X142243809Y-105853855D02*
X142167618Y-105891950D01*
X142167618Y-105891950D02*
X142129523Y-105930045D01*
X142129523Y-105930045D02*
X142091428Y-106006236D01*
X142091428Y-106006236D02*
X142091428Y-106044331D01*
X142091428Y-106044331D02*
X142129523Y-106120521D01*
X142129523Y-106120521D02*
X142167618Y-106158617D01*
X142167618Y-106158617D02*
X142243809Y-106196712D01*
X142243809Y-106196712D02*
X142396190Y-106196712D01*
X142396190Y-106196712D02*
X142472380Y-106234807D01*
X142472380Y-106234807D02*
X142510475Y-106272902D01*
X142510475Y-106272902D02*
X142548571Y-106349093D01*
X142548571Y-106349093D02*
X142548571Y-106501474D01*
X142548571Y-106501474D02*
X142510475Y-106577664D01*
X142510475Y-106577664D02*
X142472380Y-106615760D01*
X142472380Y-106615760D02*
X142396190Y-106653855D01*
X142396190Y-106653855D02*
X142243809Y-106653855D01*
X142243809Y-106653855D02*
X142167618Y-106615760D01*
X142167618Y-106615760D02*
X142129523Y-106577664D01*
X142129523Y-106577664D02*
X142091428Y-106501474D01*
X142091428Y-106501474D02*
X142091428Y-106349093D01*
X142091428Y-106349093D02*
X142129523Y-106272902D01*
X142129523Y-106272902D02*
X142167618Y-106234807D01*
X142167618Y-106234807D02*
X142243809Y-106196712D01*
D11*
X172433333Y-119654819D02*
X172433333Y-120369104D01*
X172433333Y-120369104D02*
X172480952Y-120511961D01*
X172480952Y-120511961D02*
X172576190Y-120607200D01*
X172576190Y-120607200D02*
X172719047Y-120654819D01*
X172719047Y-120654819D02*
X172814285Y-120654819D01*
X172004761Y-119750057D02*
X171957142Y-119702438D01*
X171957142Y-119702438D02*
X171861904Y-119654819D01*
X171861904Y-119654819D02*
X171623809Y-119654819D01*
X171623809Y-119654819D02*
X171528571Y-119702438D01*
X171528571Y-119702438D02*
X171480952Y-119750057D01*
X171480952Y-119750057D02*
X171433333Y-119845295D01*
X171433333Y-119845295D02*
X171433333Y-119940533D01*
X171433333Y-119940533D02*
X171480952Y-120083390D01*
X171480952Y-120083390D02*
X172052380Y-120654819D01*
X172052380Y-120654819D02*
X171433333Y-120654819D01*
D10*
X149233332Y-122913855D02*
X149499999Y-122532902D01*
X149690475Y-122913855D02*
X149690475Y-122113855D01*
X149690475Y-122113855D02*
X149385713Y-122113855D01*
X149385713Y-122113855D02*
X149309523Y-122151950D01*
X149309523Y-122151950D02*
X149271428Y-122190045D01*
X149271428Y-122190045D02*
X149233332Y-122266236D01*
X149233332Y-122266236D02*
X149233332Y-122380521D01*
X149233332Y-122380521D02*
X149271428Y-122456712D01*
X149271428Y-122456712D02*
X149309523Y-122494807D01*
X149309523Y-122494807D02*
X149385713Y-122532902D01*
X149385713Y-122532902D02*
X149690475Y-122532902D01*
X148928571Y-122190045D02*
X148890475Y-122151950D01*
X148890475Y-122151950D02*
X148814285Y-122113855D01*
X148814285Y-122113855D02*
X148623809Y-122113855D01*
X148623809Y-122113855D02*
X148547618Y-122151950D01*
X148547618Y-122151950D02*
X148509523Y-122190045D01*
X148509523Y-122190045D02*
X148471428Y-122266236D01*
X148471428Y-122266236D02*
X148471428Y-122342426D01*
X148471428Y-122342426D02*
X148509523Y-122456712D01*
X148509523Y-122456712D02*
X148966666Y-122913855D01*
X148966666Y-122913855D02*
X148471428Y-122913855D01*
%TO.C,C4*%
X147350000Y-111324420D02*
X147350000Y-111605580D01*
X148370000Y-111324420D02*
X148370000Y-111605580D01*
%TO.C,C7*%
X148900000Y-111324420D02*
X148900000Y-111605580D01*
X149920000Y-111324420D02*
X149920000Y-111605580D01*
%TO.C,C2*%
X143590000Y-89940580D02*
X143590000Y-89659420D01*
X144610000Y-89940580D02*
X144610000Y-89659420D01*
%TO.C,R1*%
X144177500Y-120437258D02*
X144177500Y-119962742D01*
X145222500Y-120437258D02*
X145222500Y-119962742D01*
%TO.C,U2*%
X138740000Y-88890000D02*
X138740000Y-90710000D01*
X138740000Y-90710000D02*
X138790000Y-90710000D01*
X138790000Y-88890000D02*
X138740000Y-88890000D01*
X140690000Y-88890000D02*
X139910000Y-88890000D01*
X141810000Y-90710000D02*
X141860000Y-90710000D01*
X141860000Y-88890000D02*
X141810000Y-88890000D01*
X141860000Y-90710000D02*
X141860000Y-88890000D01*
X141810000Y-91250000D02*
X142140000Y-91490000D01*
X142140000Y-91010000D01*
X141810000Y-91250000D01*
G36*
X142140000Y-91490000D02*
G01*
X141810000Y-91250000D01*
X142140000Y-91010000D01*
X142140000Y-91490000D01*
G37*
%TO.C,C1*%
X135990000Y-89940580D02*
X135990000Y-89659420D01*
X137010000Y-89940580D02*
X137010000Y-89659420D01*
%TO.C,C5*%
X153959420Y-106580000D02*
X154240580Y-106580000D01*
X153959420Y-107600000D02*
X154240580Y-107600000D01*
%TO.C,C6*%
X142860580Y-102580000D02*
X142579420Y-102580000D01*
X142860580Y-103600000D02*
X142579420Y-103600000D01*
%TO.C,J1*%
X125390000Y-90890000D02*
X125390000Y-119110000D01*
X127500000Y-90890000D02*
X125390000Y-90890000D01*
X127500000Y-93000000D02*
X127500000Y-90890000D01*
X129610000Y-90890000D02*
X128500000Y-90890000D01*
X129610000Y-92000000D02*
X129610000Y-90890000D01*
X129610000Y-93000000D02*
X127500000Y-93000000D01*
X129610000Y-93000000D02*
X129610000Y-119110000D01*
X129610000Y-119110000D02*
X125390000Y-119110000D01*
%TO.C,C9*%
X146390000Y-120340580D02*
X146390000Y-120059420D01*
X147410000Y-120340580D02*
X147410000Y-120059420D01*
%TO.C,C3*%
X153959420Y-103580000D02*
X154240580Y-103580000D01*
X153959420Y-104600000D02*
X154240580Y-104600000D01*
%TO.C,C8*%
X142860580Y-104580000D02*
X142579420Y-104580000D01*
X142860580Y-105600000D02*
X142579420Y-105600000D01*
%TO.C,J2*%
X167390000Y-90890000D02*
X167390000Y-119110000D01*
X169500000Y-90890000D02*
X167390000Y-90890000D01*
X169500000Y-93000000D02*
X169500000Y-90890000D01*
X171610000Y-90890000D02*
X170500000Y-90890000D01*
X171610000Y-92000000D02*
X171610000Y-90890000D01*
X171610000Y-93000000D02*
X169500000Y-93000000D01*
X171610000Y-93000000D02*
X171610000Y-119110000D01*
X171610000Y-119110000D02*
X167390000Y-119110000D01*
%TO.C,R2*%
X148577500Y-120437258D02*
X148577500Y-119962742D01*
X149622500Y-120437258D02*
X149622500Y-119962742D01*
%TD*%
%LPC*%
D12*
%TO.C,U1*%
X156500000Y-113000000D03*
X155500000Y-97000000D03*
X140500000Y-113000000D03*
X140500000Y-97000000D03*
D13*
X151910000Y-101590000D03*
D14*
X151910000Y-102590000D03*
X151910000Y-103590000D03*
X151910000Y-104590000D03*
X151910000Y-105590000D03*
X151910000Y-106590000D03*
X151910000Y-107590000D03*
X151910000Y-108590000D03*
X150910000Y-101590000D03*
X150910000Y-102590000D03*
X150910000Y-103590000D03*
X150910000Y-104590000D03*
X150910000Y-105590000D03*
X150910000Y-106590000D03*
X150910000Y-107590000D03*
X150910000Y-108590000D03*
X149910000Y-101590000D03*
X149910000Y-102590000D03*
X149910000Y-103590000D03*
X149910000Y-104590000D03*
X149910000Y-105590000D03*
X149910000Y-106590000D03*
X149910000Y-107590000D03*
X149910000Y-108590000D03*
X148910000Y-101590000D03*
X148910000Y-102590000D03*
X148910000Y-103590000D03*
X148910000Y-104590000D03*
X148910000Y-105590000D03*
X148910000Y-106590000D03*
X148910000Y-107590000D03*
X148910000Y-108590000D03*
X147910000Y-101590000D03*
X147910000Y-102590000D03*
X147910000Y-103590000D03*
X147910000Y-104590000D03*
X147910000Y-105590000D03*
X147910000Y-106590000D03*
X147910000Y-107590000D03*
X147910000Y-108590000D03*
X146910000Y-101590000D03*
X146910000Y-102590000D03*
X146910000Y-103590000D03*
X146910000Y-104590000D03*
X146910000Y-105590000D03*
X146910000Y-106590000D03*
X146910000Y-107590000D03*
X146910000Y-108590000D03*
X145910000Y-101590000D03*
X145910000Y-102590000D03*
X145910000Y-103590000D03*
X145910000Y-104590000D03*
X145910000Y-105590000D03*
X145910000Y-106590000D03*
X145910000Y-107590000D03*
X145910000Y-108590000D03*
X144910000Y-101590000D03*
X144910000Y-102590000D03*
X144910000Y-103590000D03*
X144910000Y-104590000D03*
X144910000Y-105590000D03*
X144910000Y-106590000D03*
X144910000Y-107590000D03*
X144910000Y-108590000D03*
%TD*%
D15*
%TO.C,C4*%
X147860000Y-110690000D03*
X147860000Y-112240000D03*
%TD*%
%TO.C,C7*%
X149410000Y-110690000D03*
X149410000Y-112240000D03*
%TD*%
D16*
%TO.C,C2*%
X144100000Y-90575000D03*
X144100000Y-89025000D03*
%TD*%
D17*
%TO.C,R1*%
X144700000Y-121025000D03*
X144700000Y-119375000D03*
%TD*%
D18*
%TO.C,U2*%
X141250000Y-90937500D03*
X140300000Y-90937500D03*
X139350000Y-90937500D03*
X139350000Y-88662500D03*
X141250000Y-88662500D03*
%TD*%
D16*
%TO.C,C1*%
X136500000Y-90575000D03*
X136500000Y-89025000D03*
%TD*%
D19*
%TO.C,C5*%
X153325000Y-107090000D03*
X154875000Y-107090000D03*
%TD*%
D20*
%TO.C,C6*%
X143495000Y-103090000D03*
X141945000Y-103090000D03*
%TD*%
D21*
%TO.C,J1*%
X128500000Y-92000000D03*
D22*
X126500000Y-92000000D03*
X128500000Y-94000000D03*
X126500000Y-94000000D03*
X128500000Y-96000000D03*
X126500000Y-96000000D03*
X128500000Y-98000000D03*
X126500000Y-98000000D03*
X128500000Y-100000000D03*
X126500000Y-100000000D03*
X128500000Y-102000000D03*
X126500000Y-102000000D03*
X128500000Y-104000000D03*
X126500000Y-104000000D03*
X128500000Y-106000000D03*
X126500000Y-106000000D03*
X128500000Y-108000000D03*
X126500000Y-108000000D03*
X128500000Y-110000000D03*
X126500000Y-110000000D03*
X128500000Y-112000000D03*
X126500000Y-112000000D03*
X128500000Y-114000000D03*
X126500000Y-114000000D03*
X128500000Y-116000000D03*
X126500000Y-116000000D03*
X128500000Y-118000000D03*
X126500000Y-118000000D03*
%TD*%
D16*
%TO.C,C9*%
X146900000Y-120975000D03*
X146900000Y-119425000D03*
%TD*%
D19*
%TO.C,C3*%
X153325000Y-104090000D03*
X154875000Y-104090000D03*
%TD*%
D20*
%TO.C,C8*%
X143495000Y-105090000D03*
X141945000Y-105090000D03*
%TD*%
D21*
%TO.C,J2*%
X170500000Y-92000000D03*
D22*
X168500000Y-92000000D03*
X170500000Y-94000000D03*
X168500000Y-94000000D03*
X170500000Y-96000000D03*
X168500000Y-96000000D03*
X170500000Y-98000000D03*
X168500000Y-98000000D03*
X170500000Y-100000000D03*
X168500000Y-100000000D03*
X170500000Y-102000000D03*
X168500000Y-102000000D03*
X170500000Y-104000000D03*
X168500000Y-104000000D03*
X170500000Y-106000000D03*
X168500000Y-106000000D03*
X170500000Y-108000000D03*
X168500000Y-108000000D03*
X170500000Y-110000000D03*
X168500000Y-110000000D03*
X170500000Y-112000000D03*
X168500000Y-112000000D03*
X170500000Y-114000000D03*
X168500000Y-114000000D03*
X170500000Y-116000000D03*
X168500000Y-116000000D03*
X170500000Y-118000000D03*
X168500000Y-118000000D03*
%TD*%
D17*
%TO.C,R2*%
X149100000Y-121025000D03*
X149100000Y-119375000D03*
%TD*%
%LPD*%
M02*
