M48
; DRILL file KiCad 10.0.6-10.0.6~ubuntu26.04.1 date 2026-09-30T21:19:09
; FORMAT={-:-/ absolute / metric / decimal}
; #@! TF.CreationDate,2026-09-30T21:19:09+02:00
; #@! TF.GenerationSoftware,Kicad,Pcbnew,10.0.6-10.0.6~ubuntu26.04.1
; #@! TF.FileFunction,Plated,1,4,PTH
FMAT,2
METRIC
; #@! TA.AperFunction,Plated,PTH,ViaDrill
T1C0.300
; #@! TA.AperFunction,Plated,PTH,ComponentDrill
T2C0.350
; #@! TA.AperFunction,Plated,PTH,ComponentDrill
T3C0.800
%
G90
G05
T1
X127.956Y-119.162
X131.459Y-100.014
X131.516Y-101.21
X132.337Y-102.09
X136.5Y-88.075
X137.404Y-110.177
X137.463Y-111.065
X140.3Y-91.888
X140.424Y-110.033
X140.995Y-103.09
X140.995Y-105.09
X141.898Y-111.558
X142.81Y-91.983
X142.81Y-105.09
X142.856Y-106.602
X143.283Y-119.88
X144.1Y-88.075
X144.966Y-90.12
X145.36Y-118.715
X145.636Y-121.025
X146.9Y-111.5
X146.9Y-118.475
X147.86Y-113.19
X147.917Y-109.619
X148.0Y-119.162
X148.426Y-111.473
X149.41Y-113.19
X150.42Y-110.356
X150.938Y-98.817
X154.152Y-105.34
X155.825Y-104.09
X155.825Y-107.09
X157.078Y-104.627
X157.471Y-106.508
X164.656Y-105.614
X165.165Y-105.09
X165.25Y-99.058
X165.265Y-103.534
X165.896Y-106.907
X166.466Y-106.063
X169.433Y-108.882
T2
X144.91Y-101.59
X144.91Y-102.59
X144.91Y-103.59
X144.91Y-104.59
X144.91Y-105.59
X144.91Y-106.59
X144.91Y-107.59
X144.91Y-108.59
X145.91Y-101.59
X145.91Y-102.59
X145.91Y-103.59
X145.91Y-104.59
X145.91Y-105.59
X145.91Y-106.59
X145.91Y-107.59
X145.91Y-108.59
X146.91Y-101.59
X146.91Y-102.59
X146.91Y-103.59
X146.91Y-104.59
X146.91Y-105.59
X146.91Y-106.59
X146.91Y-107.59
X146.91Y-108.59
X147.91Y-101.59
X147.91Y-102.59
X147.91Y-103.59
X147.91Y-104.59
X147.91Y-105.59
X147.91Y-106.59
X147.91Y-107.59
X147.91Y-108.59
X148.91Y-101.59
X148.91Y-102.59
X148.91Y-103.59
X148.91Y-104.59
X148.91Y-105.59
X148.91Y-106.59
X148.91Y-107.59
X148.91Y-108.59
X149.91Y-101.59
X149.91Y-102.59
X149.91Y-103.59
X149.91Y-104.59
X149.91Y-105.59
X149.91Y-106.59
X149.91Y-107.59
X149.91Y-108.59
X150.91Y-101.59
X150.91Y-102.59
X150.91Y-103.59
X150.91Y-104.59
X150.91Y-105.59
X150.91Y-106.59
X150.91Y-107.59
X150.91Y-108.59
X151.91Y-101.59
X151.91Y-102.59
X151.91Y-103.59
X151.91Y-104.59
X151.91Y-105.59
X151.91Y-106.59
X151.91Y-107.59
X151.91Y-108.59
T3
X126.5Y-92.0
X126.5Y-94.0
X126.5Y-96.0
X126.5Y-98.0
X126.5Y-100.0
X126.5Y-102.0
X126.5Y-104.0
X126.5Y-106.0
X126.5Y-108.0
X126.5Y-110.0
X126.5Y-112.0
X126.5Y-114.0
X126.5Y-116.0
X126.5Y-118.0
X128.5Y-92.0
X128.5Y-94.0
X128.5Y-96.0
X128.5Y-98.0
X128.5Y-100.0
X128.5Y-102.0
X128.5Y-104.0
X128.5Y-106.0
X128.5Y-108.0
X128.5Y-110.0
X128.5Y-112.0
X128.5Y-114.0
X128.5Y-116.0
X128.5Y-118.0
X168.5Y-92.0
X168.5Y-94.0
X168.5Y-96.0
X168.5Y-98.0
X168.5Y-100.0
X168.5Y-102.0
X168.5Y-104.0
X168.5Y-106.0
X168.5Y-108.0
X168.5Y-110.0
X168.5Y-112.0
X168.5Y-114.0
X168.5Y-116.0
X168.5Y-118.0
X170.5Y-92.0
X170.5Y-94.0
X170.5Y-96.0
X170.5Y-98.0
X170.5Y-100.0
X170.5Y-102.0
X170.5Y-104.0
X170.5Y-106.0
X170.5Y-108.0
X170.5Y-110.0
X170.5Y-112.0
X170.5Y-114.0
X170.5Y-116.0
X170.5Y-118.0
M30
