%TF.GenerationSoftware,KiCad,Pcbnew,10.0.6-10.0.6~ubuntu26.04.1*%
%TF.CreationDate,2026-09-29T06:23:19+02:00*%
%TF.ProjectId,flashcat_p30,666c6173-6863-4617-945f-7033302e6b69,B*%
%TF.SameCoordinates,Original*%
%TF.FileFunction,Copper,L3,Inr*%
%TF.FilePolarity,Positive*%
%FSLAX46Y46*%
G04 Gerber Fmt 4.6, Leading zero omitted, Abs format (unit mm)*
G04 Created by KiCad (PCBNEW 10.0.6-10.0.6~ubuntu26.04.1) date 2026-09-29 06:23:19*
%MOMM*%
%LPD*%
G01*
G04 APERTURE LIST*
%TA.AperFunction,ComponentPad*%
%ADD10R,0.600000X0.600000*%
%TD*%
%TA.AperFunction,ComponentPad*%
%ADD11C,0.600000*%
%TD*%
%TA.AperFunction,ComponentPad*%
%ADD12R,1.350000X1.350000*%
%TD*%
%TA.AperFunction,ComponentPad*%
%ADD13C,1.350000*%
%TD*%
%TA.AperFunction,ViaPad*%
%ADD14C,0.500000*%
%TD*%
%TA.AperFunction,Conductor*%
%ADD15C,0.127000*%
%TD*%
%TA.AperFunction,Conductor*%
%ADD16C,0.200000*%
%TD*%
G04 APERTURE END LIST*
D10*
%TO.N,/A1*%
%TO.C,U1*%
X151910000Y-101590000D03*
D11*
%TO.N,/A6*%
X151910000Y-102590000D03*
%TO.N,/A8*%
X151910000Y-103590000D03*
%TO.N,VCC_PROG*%
X151910000Y-104590000D03*
%TO.N,/A13*%
X151910000Y-105590000D03*
%TO.N,+1V8*%
X151910000Y-106590000D03*
%TO.N,/A18*%
X151910000Y-107590000D03*
%TO.N,/A22*%
X151910000Y-108590000D03*
%TO.N,/A2*%
X150910000Y-101590000D03*
%TO.N,GND*%
X150910000Y-102590000D03*
%TO.N,/A9*%
X150910000Y-103590000D03*
%TO.N,/~{CE}*%
X150910000Y-104590000D03*
%TO.N,/A14*%
X150910000Y-105590000D03*
%TO.N,/A25*%
X150910000Y-106590000D03*
%TO.N,/A19*%
X150910000Y-107590000D03*
%TO.N,unconnected-(U1-RFU-PadB8)*%
X150910000Y-108590000D03*
%TO.N,/A3*%
X149910000Y-101590000D03*
%TO.N,/A7*%
X149910000Y-102590000D03*
%TO.N,/A10*%
X149910000Y-103590000D03*
%TO.N,/A12*%
X149910000Y-104590000D03*
%TO.N,/A15*%
X149910000Y-105590000D03*
%TO.N,VCC_PROG*%
X149910000Y-106590000D03*
%TO.N,/A20*%
X149910000Y-107590000D03*
%TO.N,/A21*%
X149910000Y-108590000D03*
%TO.N,/A4*%
X148910000Y-101590000D03*
%TO.N,/A5*%
X148910000Y-102590000D03*
%TO.N,/A11*%
X148910000Y-103590000D03*
%TO.N,/~{RST}*%
X148910000Y-104590000D03*
%TO.N,VCC_PROG*%
X148910000Y-105590000D03*
X148910000Y-106590000D03*
%TO.N,/A16*%
X148910000Y-107590000D03*
%TO.N,/A17*%
X148910000Y-108590000D03*
%TO.N,/DQ8*%
X147910000Y-101590000D03*
%TO.N,/DQ1*%
X147910000Y-102590000D03*
%TO.N,/DQ9*%
X147910000Y-103590000D03*
%TO.N,/DQ3*%
X147910000Y-104590000D03*
%TO.N,/DQ4*%
X147910000Y-105590000D03*
%TO.N,GND*%
X147910000Y-106590000D03*
%TO.N,/DQ15*%
X147910000Y-107590000D03*
%TO.N,unconnected-(U1-RFU-PadE8)*%
X147910000Y-108590000D03*
%TO.N,unconnected-(U1-RFU-PadF1)*%
X146910000Y-101590000D03*
%TO.N,/DQ0*%
X146910000Y-102590000D03*
%TO.N,/DQ10*%
X146910000Y-103590000D03*
%TO.N,/DQ11*%
X146910000Y-104590000D03*
%TO.N,/DQ12*%
X146910000Y-105590000D03*
%TO.N,GND*%
X146910000Y-106590000D03*
%TO.N,/WAIT*%
X146910000Y-107590000D03*
%TO.N,/~{OE}*%
X146910000Y-108590000D03*
%TO.N,/A23*%
X145910000Y-101590000D03*
%TO.N,unconnected-(U1-RFU-PadG2)*%
X145910000Y-102590000D03*
%TO.N,/DQ2*%
X145910000Y-103590000D03*
%TO.N,VCC_PROG*%
X145910000Y-104590000D03*
%TO.N,/DQ5*%
X145910000Y-105590000D03*
%TO.N,/DQ6*%
X145910000Y-106590000D03*
%TO.N,/DQ14*%
X145910000Y-107590000D03*
%TO.N,/~{WE}*%
X145910000Y-108590000D03*
%TO.N,unconnected-(U1-RFU-PadH1)*%
X144910000Y-101590000D03*
%TO.N,GND*%
X144910000Y-102590000D03*
%TO.N,+1V8*%
X144910000Y-103590000D03*
%TO.N,GND*%
X144910000Y-104590000D03*
%TO.N,/DQ13*%
X144910000Y-105590000D03*
%TO.N,GND*%
X144910000Y-106590000D03*
%TO.N,/DQ7*%
X144910000Y-107590000D03*
%TO.N,/A24*%
X144910000Y-108590000D03*
%TD*%
D12*
%TO.N,unconnected-(J2-A27{slash}RB1-Pad1)*%
%TO.C,J2*%
X170500000Y-92000000D03*
D13*
%TO.N,unconnected-(J2-A0{slash}CE1-Pad2)*%
X168500000Y-92000000D03*
%TO.N,unconnected-(J2-A26{slash}RB2-Pad3)*%
X170500000Y-94000000D03*
%TO.N,/A1*%
X168500000Y-94000000D03*
%TO.N,/A25*%
X170500000Y-96000000D03*
%TO.N,/A2*%
X168500000Y-96000000D03*
%TO.N,/A24*%
X170500000Y-98000000D03*
%TO.N,/A3*%
X168500000Y-98000000D03*
%TO.N,/A23*%
X170500000Y-100000000D03*
%TO.N,/A4*%
X168500000Y-100000000D03*
%TO.N,/A22*%
X170500000Y-102000000D03*
%TO.N,/A5*%
X168500000Y-102000000D03*
%TO.N,/A21*%
X170500000Y-104000000D03*
%TO.N,/A6*%
X168500000Y-104000000D03*
%TO.N,/A20*%
X170500000Y-106000000D03*
%TO.N,/A7*%
X168500000Y-106000000D03*
%TO.N,/A19*%
X170500000Y-108000000D03*
%TO.N,/A8*%
X168500000Y-108000000D03*
%TO.N,/A18*%
X170500000Y-110000000D03*
%TO.N,/A9*%
X168500000Y-110000000D03*
%TO.N,/A17*%
X170500000Y-112000000D03*
%TO.N,/A10*%
X168500000Y-112000000D03*
%TO.N,/A16*%
X170500000Y-114000000D03*
%TO.N,/A11*%
X168500000Y-114000000D03*
%TO.N,/A15*%
X170500000Y-116000000D03*
%TO.N,/A12*%
X168500000Y-116000000D03*
%TO.N,/A14*%
X170500000Y-118000000D03*
%TO.N,/A13*%
X168500000Y-118000000D03*
%TD*%
D12*
%TO.N,VCC_PROG*%
%TO.C,J1*%
X128500000Y-92000000D03*
D13*
%TO.N,GND*%
X126500000Y-92000000D03*
%TO.N,unconnected-(J1-VIO-Pad3)*%
X128500000Y-94000000D03*
%TO.N,unconnected-(J1-VPP-Pad4)*%
X126500000Y-94000000D03*
%TO.N,/~{OE}*%
X128500000Y-96000000D03*
%TO.N,unconnected-(J1-CLE-Pad6)*%
X126500000Y-96000000D03*
%TO.N,/~{WE}*%
X128500000Y-98000000D03*
%TO.N,unconnected-(J1-ALE-Pad8)*%
X126500000Y-98000000D03*
%TO.N,/~{CE}*%
X128500000Y-100000000D03*
%TO.N,unconnected-(J1-RE{slash}B#-Pad10)*%
X126500000Y-100000000D03*
%TO.N,unconnected-(J1-DQS-Pad11)*%
X128500000Y-102000000D03*
%TO.N,/WAIT*%
X126500000Y-102000000D03*
%TO.N,/DQ8*%
X128500000Y-104000000D03*
%TO.N,/DQ0*%
X126500000Y-104000000D03*
%TO.N,/DQ9*%
X128500000Y-106000000D03*
%TO.N,/DQ1*%
X126500000Y-106000000D03*
%TO.N,/DQ10*%
X128500000Y-108000000D03*
%TO.N,/DQ2*%
X126500000Y-108000000D03*
%TO.N,/DQ11*%
X128500000Y-110000000D03*
%TO.N,/DQ3*%
X126500000Y-110000000D03*
%TO.N,/DQ12*%
X128500000Y-112000000D03*
%TO.N,/DQ4*%
X126500000Y-112000000D03*
%TO.N,/DQ13*%
X128500000Y-114000000D03*
%TO.N,/DQ5*%
X126500000Y-114000000D03*
%TO.N,/DQ14*%
X128500000Y-116000000D03*
%TO.N,/DQ6*%
X126500000Y-116000000D03*
%TO.N,/DQ15*%
X128500000Y-118000000D03*
%TO.N,/DQ7*%
X126500000Y-118000000D03*
%TD*%
D14*
%TO.N,VCC_PROG*%
X142810000Y-91982700D03*
X145395000Y-120405000D03*
X142810000Y-105090000D03*
X146900000Y-111500000D03*
%TO.N,/A13*%
X165686600Y-105590000D03*
%TO.N,+1V8*%
X146579400Y-90120000D03*
%TO.N,/A22*%
X169388300Y-108883800D03*
%TO.N,GND*%
X140995001Y-103090000D03*
X140300001Y-91887500D03*
X147860000Y-113190000D03*
X140995001Y-105090000D03*
X155825000Y-104090000D03*
X146900000Y-118475000D03*
X155825000Y-107089999D03*
X149410000Y-113190000D03*
X136500000Y-88075000D03*
X144100000Y-88075000D03*
%TO.N,/A9*%
X166826800Y-106152400D03*
%TO.N,/~{CE}*%
X151218100Y-99110200D03*
%TO.N,/A14*%
X167146200Y-107445500D03*
%TO.N,/A25*%
X157548800Y-106647800D03*
%TO.N,/A12*%
X166824600Y-104863900D03*
%TO.N,/A15*%
X171415000Y-105000000D03*
%TO.N,/A21*%
X156586000Y-104361500D03*
%TO.N,/A11*%
X167050600Y-103090000D03*
%TO.N,/~{RST}*%
X148409900Y-117384900D03*
%TO.N,/A17*%
X150609300Y-111352000D03*
%TO.N,/DQ8*%
X146909000Y-100400200D03*
%TO.N,/DQ9*%
X129949200Y-100086800D03*
%TO.N,/DQ4*%
X148882700Y-114919900D03*
%TO.N,/DQ11*%
X140014800Y-109442400D03*
%TO.N,/WAIT*%
X148000100Y-119162200D03*
X125631500Y-119162200D03*
%TO.N,/~{OE}*%
X144226800Y-109310300D03*
X137324900Y-109555500D03*
%TO.N,/~{WE}*%
X136652500Y-110689900D03*
%TO.N,/DQ13*%
X127455600Y-109044200D03*
%TO.N,/DQ7*%
X141978300Y-117572900D03*
%TO.N,/A24*%
X141995800Y-98465500D03*
X140932800Y-107887600D03*
%TD*%
%TO.N,VCC_PROG*%
D15*
X145395000Y-113005000D02*
X146900000Y-111500000D01*
X151910000Y-104590000D02*
X151410000Y-105090000D01*
X151410000Y-105090000D02*
X149410000Y-105090000D01*
X149410000Y-105090000D02*
X148910000Y-105590000D01*
X145395000Y-120405000D02*
X145395000Y-113005000D01*
X142810000Y-105090000D02*
X142810000Y-91982700D01*
%TO.N,/A13*%
X168500000Y-118000000D02*
X165686600Y-115186600D01*
X165686600Y-115186600D02*
X165686600Y-105590000D01*
%TO.N,+1V8*%
D16*
X146579400Y-90120000D02*
X146579400Y-93729800D01*
X144363600Y-101370500D02*
X144363600Y-103043600D01*
X144363600Y-103043600D02*
X144910000Y-103590000D01*
X153183100Y-106590000D02*
X151910000Y-106590000D01*
X153544700Y-106228400D02*
X153183100Y-106590000D01*
X153544700Y-100695100D02*
X153544700Y-106228400D01*
X149291900Y-96442200D02*
X153544700Y-100695100D01*
X146579400Y-93729800D02*
X149291900Y-96442200D01*
X149291900Y-96442200D02*
X144363600Y-101370500D01*
%TO.N,/A22*%
D15*
X169388300Y-103111700D02*
X169388300Y-108883800D01*
X170500000Y-102000000D02*
X169388300Y-103111700D01*
%TO.N,/A9*%
X166690000Y-108190000D02*
X168500000Y-110000000D01*
X166690000Y-106289200D02*
X166690000Y-108190000D01*
X166826800Y-106152400D02*
X166690000Y-106289200D01*
%TO.N,/~{CE}*%
X151409900Y-104090100D02*
X151409900Y-99302000D01*
X151409900Y-99302000D02*
X151218100Y-99110200D01*
X150910000Y-104590000D02*
X151409900Y-104090100D01*
%TO.N,/A14*%
X169500000Y-117000000D02*
X169500000Y-109728700D01*
X169500000Y-109728700D02*
X168771300Y-109000000D01*
X170500000Y-118000000D02*
X169500000Y-117000000D01*
X167146200Y-107969300D02*
X167146200Y-107445500D01*
X168771300Y-109000000D02*
X168176900Y-109000000D01*
X168176900Y-109000000D02*
X167146200Y-107969300D01*
%TO.N,/A25*%
X170500000Y-96000000D02*
X169500000Y-97000000D01*
X169500000Y-97000000D02*
X167196600Y-97000000D01*
X167196600Y-97000000D02*
X157548800Y-106647800D01*
%TO.N,/A12*%
X166128900Y-113628900D02*
X168500000Y-116000000D01*
X166824600Y-104863900D02*
X166128900Y-105559600D01*
X166128900Y-105559600D02*
X166128900Y-113628900D01*
%TO.N,/A15*%
X171415000Y-115085000D02*
X171415000Y-105000000D01*
X170500000Y-116000000D02*
X171415000Y-115085000D01*
%TO.N,/A21*%
X150417800Y-108082200D02*
X152865300Y-108082200D01*
X152865300Y-108082200D02*
X156586000Y-104361500D01*
X149910000Y-108590000D02*
X150417800Y-108082200D01*
%TO.N,/A11*%
X166687300Y-105596800D02*
X166788400Y-105596800D01*
X167282000Y-105103200D02*
X167282000Y-103321400D01*
X167282000Y-103321400D02*
X167050600Y-103090000D01*
X168500000Y-114000000D02*
X166384600Y-111884600D01*
X166384600Y-111884600D02*
X166384600Y-105899500D01*
X166384600Y-105899500D02*
X166687300Y-105596800D01*
X166788400Y-105596800D02*
X167282000Y-105103200D01*
%TO.N,/~{RST}*%
X147714000Y-108090000D02*
X148173100Y-108090000D01*
X147671700Y-105090000D02*
X147417800Y-105343900D01*
X148910000Y-104590000D02*
X148410000Y-105090000D01*
X148173100Y-108090000D02*
X148409900Y-108326800D01*
X147417800Y-105343900D02*
X147417800Y-107793800D01*
X148410000Y-105090000D02*
X147671700Y-105090000D01*
X148409900Y-108326800D02*
X148409900Y-117384900D01*
X147417800Y-107793800D02*
X147714000Y-108090000D01*
%TO.N,/DQ8*%
X146909000Y-100400200D02*
X147910000Y-101401200D01*
X147910000Y-101401200D02*
X147910000Y-101590000D01*
%TO.N,/DQ9*%
X128500000Y-106000000D02*
X129949200Y-104550800D01*
X129949200Y-104550800D02*
X129949200Y-100086800D01*
%TO.N,/DQ4*%
X149410000Y-110800100D02*
X148882700Y-111327400D01*
X148410000Y-106090000D02*
X148410000Y-107878100D01*
X149410000Y-108326900D02*
X149410000Y-110800100D01*
X148882700Y-111327400D02*
X148882700Y-114919900D01*
X148614100Y-108082200D02*
X149165300Y-108082200D01*
X147910000Y-105590000D02*
X148410000Y-106090000D01*
X149165300Y-108082200D02*
X149410000Y-108326900D01*
X148410000Y-107878100D02*
X148614100Y-108082200D01*
%TO.N,/DQ11*%
X143340400Y-104984600D02*
X143340400Y-106116800D01*
X146410000Y-104090000D02*
X144235000Y-104090000D01*
X146910000Y-104590000D02*
X146410001Y-104090000D01*
X143340400Y-106116800D02*
X140014800Y-109442400D01*
X144235000Y-104090000D02*
X143340400Y-104984600D01*
%TO.N,/DQ12*%
X143610000Y-107500000D02*
X139110000Y-112000000D01*
X139110000Y-112000000D02*
X128500000Y-112000000D01*
X146910000Y-105590000D02*
X146410001Y-105090000D01*
X146410001Y-105090000D02*
X143610000Y-105090000D01*
X143610000Y-105090000D02*
X143610000Y-107500000D01*
%TO.N,/WAIT*%
X147410000Y-118572100D02*
X148000100Y-119162200D01*
X146910000Y-107590000D02*
X146910000Y-107647600D01*
X126500000Y-102000000D02*
X125631500Y-102868500D01*
X146910000Y-107647600D02*
X147410000Y-108147600D01*
X147410000Y-108147600D02*
X147410000Y-118572100D01*
X125631500Y-102868500D02*
X125631500Y-119162200D01*
%TO.N,/~{OE}*%
X128500000Y-96000000D02*
X137324900Y-104824900D01*
X137324900Y-104824900D02*
X137324900Y-109555500D01*
%TO.N,/~{WE}*%
X128500000Y-98000000D02*
X136652500Y-106152500D01*
X136652500Y-106152500D02*
X136652500Y-110689900D01*
%TO.N,/DQ13*%
X128500000Y-114000000D02*
X127455600Y-112955600D01*
X127455600Y-112955600D02*
X127455600Y-109044200D01*
%TO.N,/DQ7*%
X141978300Y-110521700D02*
X141978300Y-117572900D01*
X144910000Y-107590000D02*
X141978300Y-110521700D01*
%TO.N,/A24*%
X141995800Y-106824600D02*
X141995800Y-98465500D01*
X140932800Y-107887600D02*
X141995800Y-106824600D01*
%TD*%
%TA.AperFunction,Conductor*%
%TO.N,VCC_PROG*%
G36*
X147844108Y-109090500D02*
G01*
X147844109Y-109090500D01*
X147975891Y-109090500D01*
X147975892Y-109090500D01*
X148021277Y-109078339D01*
X148082377Y-109081540D01*
X148129928Y-109120045D01*
X148145900Y-109173965D01*
X148145900Y-112671195D01*
X148126993Y-112729386D01*
X148077493Y-112765350D01*
X148021278Y-112766822D01*
X147948247Y-112747254D01*
X147919309Y-112739500D01*
X147800691Y-112739500D01*
X147800690Y-112739500D01*
X147800683Y-112739501D01*
X147798616Y-112740055D01*
X147797086Y-112739974D01*
X147794259Y-112740347D01*
X147794189Y-112739822D01*
X147737515Y-112736849D01*
X147689968Y-112698340D01*
X147674000Y-112644427D01*
X147674000Y-109173938D01*
X147692907Y-109115747D01*
X147742407Y-109079783D01*
X147798621Y-109078312D01*
X147844108Y-109090500D01*
G37*
%TD.AperFunction*%
%TA.AperFunction,Conductor*%
G36*
X144384252Y-105372907D02*
G01*
X144420216Y-105422407D01*
X144421687Y-105478621D01*
X144409500Y-105524108D01*
X144409500Y-105655892D01*
X144433276Y-105744626D01*
X144443609Y-105783190D01*
X144509496Y-105897309D01*
X144509498Y-105897311D01*
X144509500Y-105897314D01*
X144602686Y-105990500D01*
X144608221Y-105993695D01*
X144626525Y-106004264D01*
X144667465Y-106049734D01*
X144673860Y-106110584D01*
X144643267Y-106163572D01*
X144626525Y-106175736D01*
X144602688Y-106189498D01*
X144509496Y-106282690D01*
X144443609Y-106396809D01*
X144438814Y-106414705D01*
X144409500Y-106524108D01*
X144409500Y-106655892D01*
X144424414Y-106711552D01*
X144443609Y-106783190D01*
X144509496Y-106897309D01*
X144509498Y-106897311D01*
X144509500Y-106897314D01*
X144602686Y-106990500D01*
X144602688Y-106990501D01*
X144626525Y-107004264D01*
X144667465Y-107049734D01*
X144673860Y-107110584D01*
X144643267Y-107163572D01*
X144626525Y-107175736D01*
X144602688Y-107189498D01*
X144509496Y-107282690D01*
X144443609Y-107396809D01*
X144431528Y-107441897D01*
X144410001Y-107522241D01*
X144409500Y-107524109D01*
X144409500Y-107655897D01*
X144410253Y-107661618D01*
X144399101Y-107721778D01*
X144382104Y-107744541D01*
X141828756Y-110297892D01*
X141828755Y-110297891D01*
X141754491Y-110372156D01*
X141714300Y-110469187D01*
X141714300Y-112239171D01*
X141695393Y-112297362D01*
X141645893Y-112333326D01*
X141584707Y-112333326D01*
X141535208Y-112297362D01*
X141453832Y-112185359D01*
X141453830Y-112185357D01*
X141453828Y-112185354D01*
X141314646Y-112046172D01*
X141155405Y-111930476D01*
X141155404Y-111930475D01*
X141155402Y-111930474D01*
X140980025Y-111841116D01*
X140792821Y-111780289D01*
X140598420Y-111749500D01*
X140598417Y-111749500D01*
X140401583Y-111749500D01*
X140401580Y-111749500D01*
X140207178Y-111780289D01*
X140019974Y-111841116D01*
X139844595Y-111930475D01*
X139844591Y-111930477D01*
X139795486Y-111966155D01*
X139737295Y-111985062D01*
X139679105Y-111966154D01*
X139643141Y-111916654D01*
X139643142Y-111855469D01*
X139667288Y-111816063D01*
X143833808Y-107649544D01*
X143874000Y-107552513D01*
X143874000Y-107447487D01*
X143874000Y-105453000D01*
X143892907Y-105394809D01*
X143942407Y-105358845D01*
X143973000Y-105354000D01*
X144326061Y-105354000D01*
X144384252Y-105372907D01*
G37*
%TD.AperFunction*%
%TA.AperFunction,Conductor*%
G36*
X127153890Y-110698311D02*
G01*
X127187883Y-110749185D01*
X127191600Y-110776058D01*
X127191600Y-111223941D01*
X127172693Y-111282132D01*
X127123193Y-111318096D01*
X127062007Y-111318096D01*
X127037598Y-111306256D01*
X126914712Y-111224145D01*
X126914700Y-111224139D01*
X126755374Y-111158145D01*
X126586231Y-111124500D01*
X126586229Y-111124500D01*
X126413771Y-111124500D01*
X126413768Y-111124500D01*
X126244626Y-111158145D01*
X126244624Y-111158145D01*
X126085299Y-111224139D01*
X126085289Y-111224144D01*
X126049501Y-111248058D01*
X125990613Y-111264666D01*
X125933209Y-111243488D01*
X125899217Y-111192614D01*
X125895500Y-111165742D01*
X125895500Y-110834257D01*
X125914407Y-110776066D01*
X125963907Y-110740102D01*
X126025093Y-110740102D01*
X126049500Y-110751940D01*
X126085295Y-110775858D01*
X126085297Y-110775859D01*
X126085299Y-110775860D01*
X126144153Y-110800238D01*
X126244626Y-110841855D01*
X126413771Y-110875500D01*
X126413772Y-110875500D01*
X126586228Y-110875500D01*
X126586229Y-110875500D01*
X126755374Y-110841855D01*
X126914705Y-110775858D01*
X127037598Y-110693742D01*
X127096486Y-110677134D01*
X127153890Y-110698311D01*
G37*
%TD.AperFunction*%
%TA.AperFunction,Conductor*%
G36*
X148844108Y-109090500D02*
G01*
X148844110Y-109090500D01*
X148975891Y-109090500D01*
X148975892Y-109090500D01*
X149021378Y-109078312D01*
X149082477Y-109081513D01*
X149130028Y-109120017D01*
X149146000Y-109173938D01*
X149146000Y-110649740D01*
X149127093Y-110707931D01*
X149117009Y-110719737D01*
X148935248Y-110901500D01*
X148842904Y-110993844D01*
X148788387Y-111021621D01*
X148727955Y-111012050D01*
X148684690Y-110968785D01*
X148673900Y-110923840D01*
X148673900Y-109173912D01*
X148692807Y-109115721D01*
X148742307Y-109079757D01*
X148798520Y-109078285D01*
X148844108Y-109090500D01*
G37*
%TD.AperFunction*%
%TA.AperFunction,Conductor*%
G36*
X126049500Y-108751940D02*
G01*
X126085295Y-108775858D01*
X126085297Y-108775859D01*
X126085299Y-108775860D01*
X126106081Y-108784468D01*
X126244626Y-108841855D01*
X126413771Y-108875500D01*
X126413772Y-108875500D01*
X126586228Y-108875500D01*
X126586229Y-108875500D01*
X126755374Y-108841855D01*
X126893918Y-108784467D01*
X126954914Y-108779667D01*
X127007083Y-108811637D01*
X127030498Y-108868164D01*
X127027430Y-108901554D01*
X127010992Y-108962904D01*
X127005100Y-108984892D01*
X127005100Y-109109998D01*
X127003008Y-109109998D01*
X126993571Y-109160870D01*
X126949182Y-109202981D01*
X126888519Y-109210957D01*
X126868691Y-109205082D01*
X126755374Y-109158145D01*
X126586231Y-109124500D01*
X126586229Y-109124500D01*
X126413771Y-109124500D01*
X126413768Y-109124500D01*
X126244626Y-109158145D01*
X126244624Y-109158145D01*
X126085299Y-109224139D01*
X126085289Y-109224144D01*
X126049501Y-109248058D01*
X125990613Y-109264666D01*
X125933209Y-109243488D01*
X125899217Y-109192614D01*
X125895500Y-109165742D01*
X125895500Y-108834257D01*
X125914407Y-108776066D01*
X125963907Y-108740102D01*
X126025093Y-108740102D01*
X126049500Y-108751940D01*
G37*
%TD.AperFunction*%
%TA.AperFunction,Conductor*%
G36*
X145483571Y-107856731D02*
G01*
X145495734Y-107873471D01*
X145509500Y-107897314D01*
X145602686Y-107990500D01*
X145602688Y-107990501D01*
X145626525Y-108004264D01*
X145667465Y-108049734D01*
X145673860Y-108110584D01*
X145643267Y-108163572D01*
X145626525Y-108175736D01*
X145602688Y-108189498D01*
X145509498Y-108282688D01*
X145495736Y-108306525D01*
X145450266Y-108347465D01*
X145389416Y-108353860D01*
X145336428Y-108323267D01*
X145324264Y-108306525D01*
X145310501Y-108282688D01*
X145310500Y-108282686D01*
X145217314Y-108189500D01*
X145193474Y-108175735D01*
X145152534Y-108130267D01*
X145146138Y-108069417D01*
X145176731Y-108016429D01*
X145193474Y-108004264D01*
X145217314Y-107990500D01*
X145310500Y-107897314D01*
X145324264Y-107873474D01*
X145369733Y-107832534D01*
X145430583Y-107826138D01*
X145483571Y-107856731D01*
G37*
%TD.AperFunction*%
%TA.AperFunction,Conductor*%
G36*
X146483571Y-107856731D02*
G01*
X146495734Y-107873471D01*
X146509500Y-107897314D01*
X146602686Y-107990500D01*
X146602688Y-107990501D01*
X146626525Y-108004264D01*
X146667465Y-108049734D01*
X146673860Y-108110584D01*
X146643267Y-108163572D01*
X146626525Y-108175736D01*
X146602688Y-108189498D01*
X146509498Y-108282688D01*
X146495736Y-108306525D01*
X146450266Y-108347465D01*
X146389416Y-108353860D01*
X146336428Y-108323267D01*
X146324264Y-108306525D01*
X146310501Y-108282688D01*
X146310500Y-108282686D01*
X146217314Y-108189500D01*
X146193474Y-108175735D01*
X146152534Y-108130267D01*
X146146138Y-108069417D01*
X146176731Y-108016429D01*
X146193474Y-108004264D01*
X146217314Y-107990500D01*
X146310500Y-107897314D01*
X146324264Y-107873474D01*
X146369733Y-107832534D01*
X146430583Y-107826138D01*
X146483571Y-107856731D01*
G37*
%TD.AperFunction*%
%TA.AperFunction,Conductor*%
G36*
X145483571Y-106856731D02*
G01*
X145495734Y-106873471D01*
X145509500Y-106897314D01*
X145602686Y-106990500D01*
X145602688Y-106990501D01*
X145626525Y-107004264D01*
X145667465Y-107049734D01*
X145673860Y-107110584D01*
X145643267Y-107163572D01*
X145626525Y-107175736D01*
X145602688Y-107189498D01*
X145509498Y-107282688D01*
X145495736Y-107306525D01*
X145450266Y-107347465D01*
X145389416Y-107353860D01*
X145336428Y-107323267D01*
X145324264Y-107306525D01*
X145310501Y-107282688D01*
X145310500Y-107282686D01*
X145217314Y-107189500D01*
X145193474Y-107175735D01*
X145152534Y-107130267D01*
X145146138Y-107069417D01*
X145176731Y-107016429D01*
X145193474Y-107004264D01*
X145217314Y-106990500D01*
X145310500Y-106897314D01*
X145324264Y-106873474D01*
X145369733Y-106832534D01*
X145430583Y-106826138D01*
X145483571Y-106856731D01*
G37*
%TD.AperFunction*%
%TA.AperFunction,Conductor*%
G36*
X146483571Y-106856731D02*
G01*
X146495734Y-106873471D01*
X146509500Y-106897314D01*
X146602686Y-106990500D01*
X146602688Y-106990501D01*
X146626525Y-107004264D01*
X146667465Y-107049734D01*
X146673860Y-107110584D01*
X146643267Y-107163572D01*
X146626525Y-107175736D01*
X146602688Y-107189498D01*
X146509498Y-107282688D01*
X146495736Y-107306525D01*
X146450266Y-107347465D01*
X146389416Y-107353860D01*
X146336428Y-107323267D01*
X146324264Y-107306525D01*
X146310501Y-107282688D01*
X146310500Y-107282686D01*
X146217314Y-107189500D01*
X146193474Y-107175735D01*
X146152534Y-107130267D01*
X146146138Y-107069417D01*
X146176731Y-107016429D01*
X146193474Y-107004264D01*
X146217314Y-106990500D01*
X146310500Y-106897314D01*
X146324264Y-106873474D01*
X146369733Y-106832534D01*
X146430583Y-106826138D01*
X146483571Y-106856731D01*
G37*
%TD.AperFunction*%
%TA.AperFunction,Conductor*%
G36*
X149483571Y-104856731D02*
G01*
X149495734Y-104873471D01*
X149509500Y-104897314D01*
X149602686Y-104990500D01*
X149602688Y-104990501D01*
X149626525Y-105004264D01*
X149667465Y-105049734D01*
X149673860Y-105110584D01*
X149643267Y-105163572D01*
X149626525Y-105175736D01*
X149602688Y-105189498D01*
X149509497Y-105282689D01*
X149506053Y-105287178D01*
X149455627Y-105321831D01*
X149414593Y-105325059D01*
X149390273Y-105321857D01*
X149122132Y-105589999D01*
X149390273Y-105858140D01*
X149414591Y-105854939D01*
X149474752Y-105866089D01*
X149506054Y-105892823D01*
X149509497Y-105897310D01*
X149509498Y-105897311D01*
X149509500Y-105897314D01*
X149602686Y-105990500D01*
X149602688Y-105990501D01*
X149602689Y-105990502D01*
X149607178Y-105993947D01*
X149641831Y-106044373D01*
X149645059Y-106085408D01*
X149641857Y-106109724D01*
X149910000Y-106377867D01*
X150178140Y-106109726D01*
X150174939Y-106085410D01*
X150186088Y-106025249D01*
X150212828Y-105993941D01*
X150217304Y-105990505D01*
X150217314Y-105990500D01*
X150310500Y-105897314D01*
X150324264Y-105873474D01*
X150369733Y-105832534D01*
X150430583Y-105826138D01*
X150483571Y-105856731D01*
X150495734Y-105873471D01*
X150509500Y-105897314D01*
X150602686Y-105990500D01*
X150608221Y-105993695D01*
X150626525Y-106004264D01*
X150667465Y-106049734D01*
X150673860Y-106110584D01*
X150643267Y-106163572D01*
X150626525Y-106175736D01*
X150602688Y-106189498D01*
X150509497Y-106282689D01*
X150506053Y-106287178D01*
X150455627Y-106321831D01*
X150414593Y-106325059D01*
X150390273Y-106321857D01*
X150122132Y-106589999D01*
X150390273Y-106858140D01*
X150414591Y-106854939D01*
X150474752Y-106866089D01*
X150506054Y-106892823D01*
X150509497Y-106897310D01*
X150509498Y-106897311D01*
X150509500Y-106897314D01*
X150602686Y-106990500D01*
X150602688Y-106990501D01*
X150626525Y-107004264D01*
X150667465Y-107049734D01*
X150673860Y-107110584D01*
X150643267Y-107163572D01*
X150626525Y-107175736D01*
X150602688Y-107189498D01*
X150509498Y-107282688D01*
X150495736Y-107306525D01*
X150450266Y-107347465D01*
X150389416Y-107353860D01*
X150336428Y-107323267D01*
X150324264Y-107306525D01*
X150310501Y-107282688D01*
X150310500Y-107282686D01*
X150217314Y-107189500D01*
X150217311Y-107189498D01*
X150217310Y-107189497D01*
X150212823Y-107186054D01*
X150178168Y-107135629D01*
X150174939Y-107094591D01*
X150178140Y-107070273D01*
X149909999Y-106802132D01*
X149641857Y-107070273D01*
X149645059Y-107094593D01*
X149633908Y-107154754D01*
X149607178Y-107186053D01*
X149602689Y-107189497D01*
X149509498Y-107282688D01*
X149495736Y-107306525D01*
X149450266Y-107347465D01*
X149389416Y-107353860D01*
X149336428Y-107323267D01*
X149324264Y-107306525D01*
X149310501Y-107282688D01*
X149310500Y-107282686D01*
X149217314Y-107189500D01*
X149217311Y-107189498D01*
X149217310Y-107189497D01*
X149212823Y-107186054D01*
X149178168Y-107135629D01*
X149174939Y-107094591D01*
X149178140Y-107070272D01*
X148873937Y-106766068D01*
X148872912Y-106764056D01*
X148875190Y-106765000D01*
X148944810Y-106765000D01*
X149009129Y-106738357D01*
X149058357Y-106689129D01*
X149085000Y-106624810D01*
X149085000Y-106589999D01*
X149122132Y-106589999D01*
X149390273Y-106858140D01*
X149397077Y-106857245D01*
X149422922Y-106857245D01*
X149429726Y-106858140D01*
X149697867Y-106590000D01*
X149663057Y-106555190D01*
X149735000Y-106555190D01*
X149735000Y-106624810D01*
X149761643Y-106689129D01*
X149810871Y-106738357D01*
X149875190Y-106765000D01*
X149944810Y-106765000D01*
X150009129Y-106738357D01*
X150058357Y-106689129D01*
X150085000Y-106624810D01*
X150085000Y-106555190D01*
X150058357Y-106490871D01*
X150009129Y-106441643D01*
X149944810Y-106415000D01*
X149875190Y-106415000D01*
X149810871Y-106441643D01*
X149761643Y-106490871D01*
X149735000Y-106555190D01*
X149663057Y-106555190D01*
X149429724Y-106321857D01*
X149422921Y-106322753D01*
X149410488Y-106320448D01*
X149397079Y-106322753D01*
X149390273Y-106321857D01*
X149122132Y-106589999D01*
X149085000Y-106589999D01*
X149085000Y-106555190D01*
X149058357Y-106490871D01*
X149009129Y-106441643D01*
X148944810Y-106415000D01*
X148875190Y-106415000D01*
X148872284Y-106416203D01*
X148873937Y-106413929D01*
X149178140Y-106109725D01*
X149177245Y-106102922D01*
X149177245Y-106077077D01*
X149178140Y-106070272D01*
X148873937Y-105766068D01*
X148872912Y-105764056D01*
X148875190Y-105765000D01*
X148944810Y-105765000D01*
X149009129Y-105738357D01*
X149058357Y-105689129D01*
X149085000Y-105624810D01*
X149085000Y-105555190D01*
X149058357Y-105490871D01*
X149009129Y-105441643D01*
X148944810Y-105415000D01*
X148875190Y-105415000D01*
X148872284Y-105416203D01*
X148873937Y-105413929D01*
X149178140Y-105109725D01*
X149174939Y-105085410D01*
X149178641Y-105065429D01*
X149177949Y-105045121D01*
X149184089Y-105036033D01*
X149186088Y-105025249D01*
X149211407Y-104995603D01*
X149212205Y-104994424D01*
X149217009Y-104990675D01*
X149217314Y-104990500D01*
X149310500Y-104897314D01*
X149324264Y-104873474D01*
X149369733Y-104832534D01*
X149430583Y-104826138D01*
X149483571Y-104856731D01*
G37*
%TD.AperFunction*%
%TA.AperFunction,Conductor*%
G36*
X151483571Y-106856731D02*
G01*
X151495734Y-106873471D01*
X151509500Y-106897314D01*
X151602686Y-106990500D01*
X151602688Y-106990501D01*
X151626525Y-107004264D01*
X151667465Y-107049734D01*
X151673860Y-107110584D01*
X151643267Y-107163572D01*
X151626525Y-107175736D01*
X151602688Y-107189498D01*
X151509498Y-107282688D01*
X151495736Y-107306525D01*
X151450266Y-107347465D01*
X151389416Y-107353860D01*
X151336428Y-107323267D01*
X151324264Y-107306525D01*
X151310501Y-107282688D01*
X151310500Y-107282686D01*
X151217314Y-107189500D01*
X151193474Y-107175735D01*
X151152534Y-107130267D01*
X151146138Y-107069417D01*
X151176731Y-107016429D01*
X151193474Y-107004264D01*
X151217314Y-106990500D01*
X151310500Y-106897314D01*
X151324264Y-106873474D01*
X151369733Y-106832534D01*
X151430583Y-106826138D01*
X151483571Y-106856731D01*
G37*
%TD.AperFunction*%
%TA.AperFunction,Conductor*%
G36*
X145483571Y-105856731D02*
G01*
X145495734Y-105873471D01*
X145509500Y-105897314D01*
X145602686Y-105990500D01*
X145608221Y-105993695D01*
X145626525Y-106004264D01*
X145667465Y-106049734D01*
X145673860Y-106110584D01*
X145643267Y-106163572D01*
X145626525Y-106175736D01*
X145602688Y-106189498D01*
X145509498Y-106282688D01*
X145495736Y-106306525D01*
X145450266Y-106347465D01*
X145389416Y-106353860D01*
X145336428Y-106323267D01*
X145324264Y-106306525D01*
X145310501Y-106282688D01*
X145310500Y-106282686D01*
X145217314Y-106189500D01*
X145193474Y-106175735D01*
X145152534Y-106130267D01*
X145146138Y-106069417D01*
X145176731Y-106016429D01*
X145193474Y-106004264D01*
X145217314Y-105990500D01*
X145310500Y-105897314D01*
X145324264Y-105873474D01*
X145369733Y-105832534D01*
X145430583Y-105826138D01*
X145483571Y-105856731D01*
G37*
%TD.AperFunction*%
%TA.AperFunction,Conductor*%
G36*
X146483571Y-105856731D02*
G01*
X146495734Y-105873471D01*
X146509500Y-105897314D01*
X146602686Y-105990500D01*
X146608221Y-105993695D01*
X146626525Y-106004264D01*
X146667465Y-106049734D01*
X146673860Y-106110584D01*
X146643267Y-106163572D01*
X146626525Y-106175736D01*
X146602688Y-106189498D01*
X146509498Y-106282688D01*
X146495736Y-106306525D01*
X146450266Y-106347465D01*
X146389416Y-106353860D01*
X146336428Y-106323267D01*
X146324264Y-106306525D01*
X146310501Y-106282688D01*
X146310500Y-106282686D01*
X146217314Y-106189500D01*
X146193474Y-106175735D01*
X146152534Y-106130267D01*
X146146138Y-106069417D01*
X146176731Y-106016429D01*
X146193474Y-106004264D01*
X146217314Y-105990500D01*
X146310500Y-105897314D01*
X146324264Y-105873474D01*
X146369733Y-105832534D01*
X146430583Y-105826138D01*
X146483571Y-105856731D01*
G37*
%TD.AperFunction*%
%TA.AperFunction,Conductor*%
G36*
X151483571Y-105856731D02*
G01*
X151495734Y-105873471D01*
X151509500Y-105897314D01*
X151602686Y-105990500D01*
X151608221Y-105993695D01*
X151626525Y-106004264D01*
X151667465Y-106049734D01*
X151673860Y-106110584D01*
X151643267Y-106163572D01*
X151626525Y-106175736D01*
X151602688Y-106189498D01*
X151509498Y-106282688D01*
X151495736Y-106306525D01*
X151450266Y-106347465D01*
X151389416Y-106353860D01*
X151336428Y-106323267D01*
X151324264Y-106306525D01*
X151310501Y-106282688D01*
X151310500Y-106282686D01*
X151217314Y-106189500D01*
X151193474Y-106175735D01*
X151152534Y-106130267D01*
X151146138Y-106069417D01*
X151176731Y-106016429D01*
X151193474Y-106004264D01*
X151217314Y-105990500D01*
X151310500Y-105897314D01*
X151324264Y-105873474D01*
X151369733Y-105832534D01*
X151430583Y-105826138D01*
X151483571Y-105856731D01*
G37*
%TD.AperFunction*%
%TA.AperFunction,Conductor*%
G36*
X151842901Y-99418237D02*
G01*
X153200486Y-100775854D01*
X153215204Y-100790572D01*
X153242981Y-100845089D01*
X153244200Y-100860575D01*
X153244200Y-106062921D01*
X153225293Y-106121112D01*
X153215204Y-106132925D01*
X153087625Y-106260504D01*
X153033108Y-106288281D01*
X153017621Y-106289500D01*
X152358321Y-106289500D01*
X152300130Y-106270593D01*
X152288323Y-106260509D01*
X152217314Y-106189500D01*
X152193474Y-106175735D01*
X152152534Y-106130267D01*
X152146138Y-106069417D01*
X152176731Y-106016429D01*
X152193474Y-106004264D01*
X152217314Y-105990500D01*
X152310500Y-105897314D01*
X152322929Y-105875787D01*
X152376390Y-105783190D01*
X152376390Y-105783188D01*
X152376392Y-105783186D01*
X152410500Y-105655892D01*
X152410500Y-105524108D01*
X152376392Y-105396814D01*
X152376390Y-105396811D01*
X152376390Y-105396809D01*
X152310503Y-105282690D01*
X152310501Y-105282688D01*
X152310500Y-105282686D01*
X152217314Y-105189500D01*
X152217311Y-105189498D01*
X152217310Y-105189497D01*
X152212823Y-105186054D01*
X152178168Y-105135629D01*
X152174939Y-105094591D01*
X152178140Y-105070273D01*
X151909999Y-104802132D01*
X151641857Y-105070273D01*
X151645059Y-105094593D01*
X151633908Y-105154754D01*
X151607178Y-105186053D01*
X151602689Y-105189497D01*
X151509498Y-105282688D01*
X151495736Y-105306525D01*
X151450266Y-105347465D01*
X151389416Y-105353860D01*
X151336428Y-105323267D01*
X151324264Y-105306525D01*
X151310501Y-105282688D01*
X151310500Y-105282686D01*
X151217314Y-105189500D01*
X151193474Y-105175735D01*
X151152534Y-105130267D01*
X151146138Y-105069417D01*
X151176731Y-105016429D01*
X151193474Y-105004264D01*
X151217314Y-104990500D01*
X151310500Y-104897314D01*
X151310505Y-104897304D01*
X151313941Y-104892828D01*
X151364364Y-104858170D01*
X151405410Y-104854939D01*
X151429726Y-104858140D01*
X151736642Y-104551225D01*
X151735000Y-104555190D01*
X151735000Y-104624810D01*
X151761643Y-104689129D01*
X151810871Y-104738357D01*
X151875190Y-104765000D01*
X151944810Y-104765000D01*
X152009129Y-104738357D01*
X152058357Y-104689129D01*
X152085000Y-104624810D01*
X152085000Y-104589999D01*
X152122132Y-104589999D01*
X152390273Y-104858140D01*
X152422516Y-104802295D01*
X152460000Y-104662407D01*
X152460000Y-104517592D01*
X152422516Y-104377706D01*
X152390272Y-104321858D01*
X152122132Y-104589999D01*
X152085000Y-104589999D01*
X152085000Y-104555190D01*
X152058357Y-104490871D01*
X152009129Y-104441643D01*
X151944810Y-104415000D01*
X151875190Y-104415000D01*
X151871225Y-104416642D01*
X152178140Y-104109726D01*
X152174939Y-104085410D01*
X152186088Y-104025249D01*
X152212828Y-103993941D01*
X152217304Y-103990505D01*
X152217314Y-103990500D01*
X152310500Y-103897314D01*
X152310503Y-103897309D01*
X152376390Y-103783190D01*
X152376390Y-103783188D01*
X152376392Y-103783186D01*
X152410500Y-103655892D01*
X152410500Y-103524108D01*
X152376392Y-103396814D01*
X152376390Y-103396811D01*
X152376390Y-103396809D01*
X152310503Y-103282690D01*
X152310501Y-103282688D01*
X152310500Y-103282686D01*
X152217314Y-103189500D01*
X152193474Y-103175735D01*
X152152534Y-103130267D01*
X152146138Y-103069417D01*
X152176731Y-103016429D01*
X152193474Y-103004264D01*
X152217314Y-102990500D01*
X152310500Y-102897314D01*
X152315940Y-102887892D01*
X152376390Y-102783190D01*
X152376390Y-102783188D01*
X152376392Y-102783186D01*
X152410500Y-102655892D01*
X152410500Y-102524108D01*
X152376392Y-102396814D01*
X152376390Y-102396811D01*
X152376390Y-102396809D01*
X152310503Y-102282690D01*
X152310501Y-102282688D01*
X152310500Y-102282686D01*
X152264620Y-102236806D01*
X152236845Y-102182292D01*
X152246416Y-102121860D01*
X152281673Y-102086602D01*
X152280124Y-102084284D01*
X152288231Y-102078867D01*
X152354552Y-102034552D01*
X152398867Y-101968231D01*
X152410500Y-101909748D01*
X152410500Y-101270252D01*
X152398867Y-101211769D01*
X152354552Y-101145448D01*
X152331493Y-101130040D01*
X152288233Y-101101134D01*
X152288231Y-101101133D01*
X152288228Y-101101132D01*
X152288227Y-101101132D01*
X152229758Y-101089501D01*
X152229748Y-101089500D01*
X152229747Y-101089500D01*
X151772900Y-101089500D01*
X151714709Y-101070593D01*
X151678745Y-101021093D01*
X151673900Y-100990500D01*
X151673900Y-99488242D01*
X151692807Y-99430051D01*
X151742307Y-99394087D01*
X151803493Y-99394087D01*
X151842901Y-99418237D01*
G37*
%TD.AperFunction*%
%TA.AperFunction,Conductor*%
G36*
X150483571Y-104856731D02*
G01*
X150495734Y-104873471D01*
X150509500Y-104897314D01*
X150602686Y-104990500D01*
X150602688Y-104990501D01*
X150626525Y-105004264D01*
X150667465Y-105049734D01*
X150673860Y-105110584D01*
X150643267Y-105163572D01*
X150626525Y-105175736D01*
X150602688Y-105189498D01*
X150509498Y-105282688D01*
X150495736Y-105306525D01*
X150450266Y-105347465D01*
X150389416Y-105353860D01*
X150336428Y-105323267D01*
X150324264Y-105306525D01*
X150310501Y-105282688D01*
X150310500Y-105282686D01*
X150217314Y-105189500D01*
X150193474Y-105175735D01*
X150152534Y-105130267D01*
X150146138Y-105069417D01*
X150176731Y-105016429D01*
X150193474Y-105004264D01*
X150217314Y-104990500D01*
X150310500Y-104897314D01*
X150324264Y-104873474D01*
X150369733Y-104832534D01*
X150430583Y-104826138D01*
X150483571Y-104856731D01*
G37*
%TD.AperFunction*%
%TA.AperFunction,Conductor*%
G36*
X144314248Y-104433125D02*
G01*
X144333665Y-104431608D01*
X144343753Y-104437798D01*
X144355445Y-104439650D01*
X144369217Y-104453422D01*
X144385816Y-104463607D01*
X144390339Y-104474544D01*
X144398710Y-104482915D01*
X144405503Y-104511211D01*
X144409199Y-104520148D01*
X144409506Y-104524083D01*
X144409500Y-104524108D01*
X144409500Y-104655892D01*
X144424049Y-104710190D01*
X144424760Y-104719288D01*
X144410444Y-104778774D01*
X144363896Y-104818485D01*
X144326061Y-104826000D01*
X144111360Y-104826000D01*
X144053169Y-104807093D01*
X144017205Y-104757593D01*
X144017205Y-104696407D01*
X144041356Y-104656996D01*
X144240496Y-104457856D01*
X144257850Y-104449013D01*
X144272665Y-104436375D01*
X144284466Y-104435452D01*
X144295013Y-104430079D01*
X144314248Y-104433125D01*
G37*
%TD.AperFunction*%
%TA.AperFunction,Conductor*%
G36*
X147483571Y-103856731D02*
G01*
X147495734Y-103873471D01*
X147509500Y-103897314D01*
X147602686Y-103990500D01*
X147602688Y-103990501D01*
X147626525Y-104004264D01*
X147667465Y-104049734D01*
X147673860Y-104110584D01*
X147643267Y-104163572D01*
X147626525Y-104175736D01*
X147602688Y-104189498D01*
X147509498Y-104282688D01*
X147495736Y-104306525D01*
X147450266Y-104347465D01*
X147389416Y-104353860D01*
X147336428Y-104323267D01*
X147324264Y-104306525D01*
X147310501Y-104282688D01*
X147310500Y-104282686D01*
X147217314Y-104189500D01*
X147193474Y-104175735D01*
X147152534Y-104130267D01*
X147146138Y-104069417D01*
X147176731Y-104016429D01*
X147193474Y-104004264D01*
X147217314Y-103990500D01*
X147310500Y-103897314D01*
X147324264Y-103873474D01*
X147369733Y-103832534D01*
X147430583Y-103826138D01*
X147483571Y-103856731D01*
G37*
%TD.AperFunction*%
%TA.AperFunction,Conductor*%
G36*
X148483571Y-103856731D02*
G01*
X148495734Y-103873471D01*
X148509500Y-103897314D01*
X148602686Y-103990500D01*
X148602688Y-103990501D01*
X148626525Y-104004264D01*
X148667465Y-104049734D01*
X148673860Y-104110584D01*
X148643267Y-104163572D01*
X148626525Y-104175736D01*
X148602688Y-104189498D01*
X148509498Y-104282688D01*
X148495736Y-104306525D01*
X148450266Y-104347465D01*
X148389416Y-104353860D01*
X148336428Y-104323267D01*
X148324264Y-104306525D01*
X148310501Y-104282688D01*
X148310500Y-104282686D01*
X148217314Y-104189500D01*
X148193474Y-104175735D01*
X148152534Y-104130267D01*
X148146138Y-104069417D01*
X148176731Y-104016429D01*
X148193474Y-104004264D01*
X148217314Y-103990500D01*
X148310500Y-103897314D01*
X148324264Y-103873474D01*
X148369733Y-103832534D01*
X148430583Y-103826138D01*
X148483571Y-103856731D01*
G37*
%TD.AperFunction*%
%TA.AperFunction,Conductor*%
G36*
X149483571Y-103856731D02*
G01*
X149495734Y-103873471D01*
X149509500Y-103897314D01*
X149602686Y-103990500D01*
X149602688Y-103990501D01*
X149626525Y-104004264D01*
X149667465Y-104049734D01*
X149673860Y-104110584D01*
X149643267Y-104163572D01*
X149626525Y-104175736D01*
X149602688Y-104189498D01*
X149509498Y-104282688D01*
X149495736Y-104306525D01*
X149450266Y-104347465D01*
X149389416Y-104353860D01*
X149336428Y-104323267D01*
X149324264Y-104306525D01*
X149310501Y-104282688D01*
X149310500Y-104282686D01*
X149217314Y-104189500D01*
X149193474Y-104175735D01*
X149152534Y-104130267D01*
X149146138Y-104069417D01*
X149176731Y-104016429D01*
X149193474Y-104004264D01*
X149217314Y-103990500D01*
X149310500Y-103897314D01*
X149324264Y-103873474D01*
X149369733Y-103832534D01*
X149430583Y-103826138D01*
X149483571Y-103856731D01*
G37*
%TD.AperFunction*%
%TA.AperFunction,Conductor*%
G36*
X150483571Y-103856731D02*
G01*
X150495734Y-103873471D01*
X150509500Y-103897314D01*
X150602686Y-103990500D01*
X150602688Y-103990501D01*
X150626525Y-104004264D01*
X150667465Y-104049734D01*
X150673860Y-104110584D01*
X150643267Y-104163572D01*
X150626525Y-104175736D01*
X150602688Y-104189498D01*
X150509498Y-104282688D01*
X150495736Y-104306525D01*
X150450266Y-104347465D01*
X150389416Y-104353860D01*
X150336428Y-104323267D01*
X150324264Y-104306525D01*
X150310501Y-104282688D01*
X150310500Y-104282686D01*
X150217314Y-104189500D01*
X150193474Y-104175735D01*
X150152534Y-104130267D01*
X150146138Y-104069417D01*
X150176731Y-104016429D01*
X150193474Y-104004264D01*
X150217314Y-103990500D01*
X150310500Y-103897314D01*
X150324264Y-103873474D01*
X150369733Y-103832534D01*
X150430583Y-103826138D01*
X150483571Y-103856731D01*
G37*
%TD.AperFunction*%
%TA.AperFunction,Conductor*%
G36*
X145483571Y-102856731D02*
G01*
X145495734Y-102873471D01*
X145509500Y-102897314D01*
X145602686Y-102990500D01*
X145602688Y-102990501D01*
X145626525Y-103004264D01*
X145667465Y-103049734D01*
X145673860Y-103110584D01*
X145643267Y-103163572D01*
X145626525Y-103175736D01*
X145602688Y-103189498D01*
X145509498Y-103282688D01*
X145495736Y-103306525D01*
X145450266Y-103347465D01*
X145389416Y-103353860D01*
X145336428Y-103323267D01*
X145324264Y-103306525D01*
X145310501Y-103282688D01*
X145310500Y-103282686D01*
X145217314Y-103189500D01*
X145193474Y-103175735D01*
X145152534Y-103130267D01*
X145146138Y-103069417D01*
X145176731Y-103016429D01*
X145193474Y-103004264D01*
X145217314Y-102990500D01*
X145310500Y-102897314D01*
X145324264Y-102873474D01*
X145369733Y-102832534D01*
X145430583Y-102826138D01*
X145483571Y-102856731D01*
G37*
%TD.AperFunction*%
%TA.AperFunction,Conductor*%
G36*
X146483571Y-102856731D02*
G01*
X146495734Y-102873471D01*
X146509500Y-102897314D01*
X146602686Y-102990500D01*
X146602688Y-102990501D01*
X146626525Y-103004264D01*
X146667465Y-103049734D01*
X146673860Y-103110584D01*
X146643267Y-103163572D01*
X146626525Y-103175736D01*
X146602688Y-103189498D01*
X146509498Y-103282688D01*
X146495736Y-103306525D01*
X146450266Y-103347465D01*
X146389416Y-103353860D01*
X146336428Y-103323267D01*
X146324264Y-103306525D01*
X146310501Y-103282688D01*
X146310500Y-103282686D01*
X146217314Y-103189500D01*
X146193474Y-103175735D01*
X146152534Y-103130267D01*
X146146138Y-103069417D01*
X146176731Y-103016429D01*
X146193474Y-103004264D01*
X146217314Y-102990500D01*
X146310500Y-102897314D01*
X146324264Y-102873474D01*
X146369733Y-102832534D01*
X146430583Y-102826138D01*
X146483571Y-102856731D01*
G37*
%TD.AperFunction*%
%TA.AperFunction,Conductor*%
G36*
X147483571Y-102856731D02*
G01*
X147495734Y-102873471D01*
X147509500Y-102897314D01*
X147602686Y-102990500D01*
X147602688Y-102990501D01*
X147626525Y-103004264D01*
X147667465Y-103049734D01*
X147673860Y-103110584D01*
X147643267Y-103163572D01*
X147626525Y-103175736D01*
X147602688Y-103189498D01*
X147509498Y-103282688D01*
X147495736Y-103306525D01*
X147450266Y-103347465D01*
X147389416Y-103353860D01*
X147336428Y-103323267D01*
X147324264Y-103306525D01*
X147310501Y-103282688D01*
X147310500Y-103282686D01*
X147217314Y-103189500D01*
X147193474Y-103175735D01*
X147152534Y-103130267D01*
X147146138Y-103069417D01*
X147176731Y-103016429D01*
X147193474Y-103004264D01*
X147217314Y-102990500D01*
X147310500Y-102897314D01*
X147324264Y-102873474D01*
X147369733Y-102832534D01*
X147430583Y-102826138D01*
X147483571Y-102856731D01*
G37*
%TD.AperFunction*%
%TA.AperFunction,Conductor*%
G36*
X148483571Y-102856731D02*
G01*
X148495734Y-102873471D01*
X148509500Y-102897314D01*
X148602686Y-102990500D01*
X148602688Y-102990501D01*
X148626525Y-103004264D01*
X148667465Y-103049734D01*
X148673860Y-103110584D01*
X148643267Y-103163572D01*
X148626525Y-103175736D01*
X148602688Y-103189498D01*
X148509498Y-103282688D01*
X148495736Y-103306525D01*
X148450266Y-103347465D01*
X148389416Y-103353860D01*
X148336428Y-103323267D01*
X148324264Y-103306525D01*
X148310501Y-103282688D01*
X148310500Y-103282686D01*
X148217314Y-103189500D01*
X148193474Y-103175735D01*
X148152534Y-103130267D01*
X148146138Y-103069417D01*
X148176731Y-103016429D01*
X148193474Y-103004264D01*
X148217314Y-102990500D01*
X148310500Y-102897314D01*
X148324264Y-102873474D01*
X148369733Y-102832534D01*
X148430583Y-102826138D01*
X148483571Y-102856731D01*
G37*
%TD.AperFunction*%
%TA.AperFunction,Conductor*%
G36*
X149483571Y-102856731D02*
G01*
X149495734Y-102873471D01*
X149509500Y-102897314D01*
X149602686Y-102990500D01*
X149602688Y-102990501D01*
X149626525Y-103004264D01*
X149667465Y-103049734D01*
X149673860Y-103110584D01*
X149643267Y-103163572D01*
X149626525Y-103175736D01*
X149602688Y-103189498D01*
X149509498Y-103282688D01*
X149495736Y-103306525D01*
X149450266Y-103347465D01*
X149389416Y-103353860D01*
X149336428Y-103323267D01*
X149324264Y-103306525D01*
X149310501Y-103282688D01*
X149310500Y-103282686D01*
X149217314Y-103189500D01*
X149193474Y-103175735D01*
X149152534Y-103130267D01*
X149146138Y-103069417D01*
X149176731Y-103016429D01*
X149193474Y-103004264D01*
X149217314Y-102990500D01*
X149310500Y-102897314D01*
X149324264Y-102873474D01*
X149369733Y-102832534D01*
X149430583Y-102826138D01*
X149483571Y-102856731D01*
G37*
%TD.AperFunction*%
%TA.AperFunction,Conductor*%
G36*
X150483571Y-102856731D02*
G01*
X150495734Y-102873471D01*
X150509500Y-102897314D01*
X150602686Y-102990500D01*
X150602688Y-102990501D01*
X150626525Y-103004264D01*
X150667465Y-103049734D01*
X150673860Y-103110584D01*
X150643267Y-103163572D01*
X150626525Y-103175736D01*
X150602688Y-103189498D01*
X150509498Y-103282688D01*
X150495736Y-103306525D01*
X150450266Y-103347465D01*
X150389416Y-103353860D01*
X150336428Y-103323267D01*
X150324264Y-103306525D01*
X150310501Y-103282688D01*
X150310500Y-103282686D01*
X150217314Y-103189500D01*
X150193474Y-103175735D01*
X150152534Y-103130267D01*
X150146138Y-103069417D01*
X150176731Y-103016429D01*
X150193474Y-103004264D01*
X150217314Y-102990500D01*
X150310500Y-102897314D01*
X150324264Y-102873474D01*
X150369733Y-102832534D01*
X150430583Y-102826138D01*
X150483571Y-102856731D01*
G37*
%TD.AperFunction*%
%TA.AperFunction,Conductor*%
G36*
X145483571Y-101856731D02*
G01*
X145495734Y-101873471D01*
X145509500Y-101897314D01*
X145602686Y-101990500D01*
X145602688Y-101990501D01*
X145626525Y-102004264D01*
X145667465Y-102049734D01*
X145673860Y-102110584D01*
X145643267Y-102163572D01*
X145626525Y-102175736D01*
X145602688Y-102189498D01*
X145509498Y-102282688D01*
X145495736Y-102306525D01*
X145450266Y-102347465D01*
X145389416Y-102353860D01*
X145336428Y-102323267D01*
X145324264Y-102306525D01*
X145310501Y-102282688D01*
X145310500Y-102282686D01*
X145217314Y-102189500D01*
X145193474Y-102175735D01*
X145152534Y-102130267D01*
X145146138Y-102069417D01*
X145176731Y-102016429D01*
X145193474Y-102004264D01*
X145217314Y-101990500D01*
X145310500Y-101897314D01*
X145324264Y-101873474D01*
X145369733Y-101832534D01*
X145430583Y-101826138D01*
X145483571Y-101856731D01*
G37*
%TD.AperFunction*%
%TA.AperFunction,Conductor*%
G36*
X146483571Y-101856731D02*
G01*
X146495734Y-101873471D01*
X146509500Y-101897314D01*
X146602686Y-101990500D01*
X146602688Y-101990501D01*
X146626525Y-102004264D01*
X146667465Y-102049734D01*
X146673860Y-102110584D01*
X146643267Y-102163572D01*
X146626525Y-102175736D01*
X146602688Y-102189498D01*
X146509498Y-102282688D01*
X146495736Y-102306525D01*
X146450266Y-102347465D01*
X146389416Y-102353860D01*
X146336428Y-102323267D01*
X146324264Y-102306525D01*
X146310501Y-102282688D01*
X146310500Y-102282686D01*
X146217314Y-102189500D01*
X146193474Y-102175735D01*
X146152534Y-102130267D01*
X146146138Y-102069417D01*
X146176731Y-102016429D01*
X146193474Y-102004264D01*
X146217314Y-101990500D01*
X146310500Y-101897314D01*
X146324264Y-101873474D01*
X146369733Y-101832534D01*
X146430583Y-101826138D01*
X146483571Y-101856731D01*
G37*
%TD.AperFunction*%
%TA.AperFunction,Conductor*%
G36*
X147483571Y-101856731D02*
G01*
X147495734Y-101873471D01*
X147509500Y-101897314D01*
X147602686Y-101990500D01*
X147602688Y-101990501D01*
X147626525Y-102004264D01*
X147667465Y-102049734D01*
X147673860Y-102110584D01*
X147643267Y-102163572D01*
X147626525Y-102175736D01*
X147602688Y-102189498D01*
X147509498Y-102282688D01*
X147495736Y-102306525D01*
X147450266Y-102347465D01*
X147389416Y-102353860D01*
X147336428Y-102323267D01*
X147324264Y-102306525D01*
X147310501Y-102282688D01*
X147310500Y-102282686D01*
X147217314Y-102189500D01*
X147193474Y-102175735D01*
X147152534Y-102130267D01*
X147146138Y-102069417D01*
X147176731Y-102016429D01*
X147193474Y-102004264D01*
X147217314Y-101990500D01*
X147310500Y-101897314D01*
X147324264Y-101873474D01*
X147369733Y-101832534D01*
X147430583Y-101826138D01*
X147483571Y-101856731D01*
G37*
%TD.AperFunction*%
%TA.AperFunction,Conductor*%
G36*
X148483571Y-101856731D02*
G01*
X148495734Y-101873471D01*
X148509500Y-101897314D01*
X148602686Y-101990500D01*
X148602688Y-101990501D01*
X148626525Y-102004264D01*
X148667465Y-102049734D01*
X148673860Y-102110584D01*
X148643267Y-102163572D01*
X148626525Y-102175736D01*
X148602688Y-102189498D01*
X148509498Y-102282688D01*
X148495736Y-102306525D01*
X148450266Y-102347465D01*
X148389416Y-102353860D01*
X148336428Y-102323267D01*
X148324264Y-102306525D01*
X148310501Y-102282688D01*
X148310500Y-102282686D01*
X148217314Y-102189500D01*
X148193474Y-102175735D01*
X148152534Y-102130267D01*
X148146138Y-102069417D01*
X148176731Y-102016429D01*
X148193474Y-102004264D01*
X148217314Y-101990500D01*
X148310500Y-101897314D01*
X148324264Y-101873474D01*
X148369733Y-101832534D01*
X148430583Y-101826138D01*
X148483571Y-101856731D01*
G37*
%TD.AperFunction*%
%TA.AperFunction,Conductor*%
G36*
X149483571Y-101856731D02*
G01*
X149495734Y-101873471D01*
X149509500Y-101897314D01*
X149602686Y-101990500D01*
X149602688Y-101990501D01*
X149626525Y-102004264D01*
X149667465Y-102049734D01*
X149673860Y-102110584D01*
X149643267Y-102163572D01*
X149626525Y-102175736D01*
X149602688Y-102189498D01*
X149509498Y-102282688D01*
X149495736Y-102306525D01*
X149450266Y-102347465D01*
X149389416Y-102353860D01*
X149336428Y-102323267D01*
X149324264Y-102306525D01*
X149310501Y-102282688D01*
X149310500Y-102282686D01*
X149217314Y-102189500D01*
X149193474Y-102175735D01*
X149152534Y-102130267D01*
X149146138Y-102069417D01*
X149176731Y-102016429D01*
X149193474Y-102004264D01*
X149217314Y-101990500D01*
X149310500Y-101897314D01*
X149324264Y-101873474D01*
X149369733Y-101832534D01*
X149430583Y-101826138D01*
X149483571Y-101856731D01*
G37*
%TD.AperFunction*%
%TA.AperFunction,Conductor*%
G36*
X150483571Y-101856731D02*
G01*
X150495734Y-101873471D01*
X150509500Y-101897314D01*
X150602686Y-101990500D01*
X150602688Y-101990501D01*
X150626525Y-102004264D01*
X150667465Y-102049734D01*
X150673860Y-102110584D01*
X150643267Y-102163572D01*
X150626525Y-102175736D01*
X150602688Y-102189498D01*
X150509498Y-102282688D01*
X150495736Y-102306525D01*
X150450266Y-102347465D01*
X150389416Y-102353860D01*
X150336428Y-102323267D01*
X150324264Y-102306525D01*
X150310501Y-102282688D01*
X150310500Y-102282686D01*
X150217314Y-102189500D01*
X150193474Y-102175735D01*
X150152534Y-102130267D01*
X150146138Y-102069417D01*
X150176731Y-102016429D01*
X150193474Y-102004264D01*
X150217314Y-101990500D01*
X150310500Y-101897314D01*
X150324264Y-101873474D01*
X150369733Y-101832534D01*
X150430583Y-101826138D01*
X150483571Y-101856731D01*
G37*
%TD.AperFunction*%
%TA.AperFunction,Conductor*%
G36*
X149336841Y-96918971D02*
G01*
X149361900Y-96937178D01*
X150997914Y-98573230D01*
X151025691Y-98627747D01*
X151016119Y-98688179D01*
X150977412Y-98728968D01*
X150941491Y-98749707D01*
X150857607Y-98833591D01*
X150798302Y-98936309D01*
X150798301Y-98936314D01*
X150767600Y-99050891D01*
X150767600Y-99169509D01*
X150782238Y-99224139D01*
X150798302Y-99284090D01*
X150857607Y-99386808D01*
X150857609Y-99386810D01*
X150857611Y-99386813D01*
X150941487Y-99470689D01*
X150941489Y-99470690D01*
X150941491Y-99470692D01*
X151044209Y-99529997D01*
X151044211Y-99529997D01*
X151044214Y-99529999D01*
X151072524Y-99537584D01*
X151123836Y-99570906D01*
X151145764Y-99628027D01*
X151145900Y-99633210D01*
X151145900Y-101006034D01*
X151126993Y-101064225D01*
X151077493Y-101100189D01*
X151021278Y-101101661D01*
X150975892Y-101089500D01*
X150844108Y-101089500D01*
X150770228Y-101109296D01*
X150716809Y-101123609D01*
X150602690Y-101189496D01*
X150509498Y-101282688D01*
X150495736Y-101306525D01*
X150450266Y-101347465D01*
X150389416Y-101353860D01*
X150336428Y-101323267D01*
X150324264Y-101306525D01*
X150310501Y-101282688D01*
X150310500Y-101282686D01*
X150217314Y-101189500D01*
X150217311Y-101189498D01*
X150217309Y-101189496D01*
X150103189Y-101123609D01*
X150103191Y-101123609D01*
X150049772Y-101109296D01*
X149975892Y-101089500D01*
X149844108Y-101089500D01*
X149770228Y-101109296D01*
X149716809Y-101123609D01*
X149602690Y-101189496D01*
X149509498Y-101282688D01*
X149495736Y-101306525D01*
X149450266Y-101347465D01*
X149389416Y-101353860D01*
X149336428Y-101323267D01*
X149324264Y-101306525D01*
X149310501Y-101282688D01*
X149310500Y-101282686D01*
X149217314Y-101189500D01*
X149217311Y-101189498D01*
X149217309Y-101189496D01*
X149103189Y-101123609D01*
X149103191Y-101123609D01*
X149049772Y-101109296D01*
X148975892Y-101089500D01*
X148844108Y-101089500D01*
X148770228Y-101109296D01*
X148716809Y-101123609D01*
X148602690Y-101189496D01*
X148509498Y-101282688D01*
X148495736Y-101306525D01*
X148450266Y-101347465D01*
X148389416Y-101353860D01*
X148336428Y-101323267D01*
X148324264Y-101306525D01*
X148310501Y-101282688D01*
X148310500Y-101282686D01*
X148217314Y-101189500D01*
X148217311Y-101189498D01*
X148217309Y-101189496D01*
X148103189Y-101123609D01*
X148103190Y-101123609D01*
X147995725Y-101094814D01*
X147951344Y-101069191D01*
X147388496Y-100506343D01*
X147360719Y-100451826D01*
X147359500Y-100436339D01*
X147359500Y-100340892D01*
X147352149Y-100313458D01*
X147328799Y-100226314D01*
X147328797Y-100226311D01*
X147328797Y-100226309D01*
X147269492Y-100123591D01*
X147269490Y-100123589D01*
X147269489Y-100123587D01*
X147185613Y-100039711D01*
X147185610Y-100039709D01*
X147185608Y-100039707D01*
X147082889Y-99980402D01*
X147082890Y-99980402D01*
X147069351Y-99976774D01*
X146968309Y-99949700D01*
X146849691Y-99949700D01*
X146779567Y-99968489D01*
X146735109Y-99980402D01*
X146632391Y-100039707D01*
X146548507Y-100123591D01*
X146489202Y-100226309D01*
X146481414Y-100255374D01*
X146458500Y-100340891D01*
X146458500Y-100459509D01*
X146472188Y-100510592D01*
X146489202Y-100574090D01*
X146548507Y-100676808D01*
X146548509Y-100676810D01*
X146548511Y-100676813D01*
X146632387Y-100760689D01*
X146632389Y-100760690D01*
X146632391Y-100760692D01*
X146735110Y-100819997D01*
X146735111Y-100819997D01*
X146735114Y-100819999D01*
X146849691Y-100850700D01*
X146849693Y-100850700D01*
X146945139Y-100850700D01*
X147003330Y-100869607D01*
X147015143Y-100879696D01*
X147056482Y-100921035D01*
X147084259Y-100975552D01*
X147074688Y-101035984D01*
X147031423Y-101079249D01*
X146982381Y-101087677D01*
X146982381Y-101089500D01*
X146975892Y-101089500D01*
X146844108Y-101089500D01*
X146770228Y-101109296D01*
X146716809Y-101123609D01*
X146602690Y-101189496D01*
X146509498Y-101282688D01*
X146495736Y-101306525D01*
X146450266Y-101347465D01*
X146389416Y-101353860D01*
X146336428Y-101323267D01*
X146324264Y-101306525D01*
X146310501Y-101282688D01*
X146310500Y-101282686D01*
X146217314Y-101189500D01*
X146217311Y-101189498D01*
X146217309Y-101189496D01*
X146103189Y-101123609D01*
X146103191Y-101123609D01*
X146049772Y-101109296D01*
X145975892Y-101089500D01*
X145844108Y-101089500D01*
X145770228Y-101109296D01*
X145716809Y-101123609D01*
X145602690Y-101189496D01*
X145509498Y-101282688D01*
X145495736Y-101306525D01*
X145450266Y-101347465D01*
X145389416Y-101353860D01*
X145336428Y-101323267D01*
X145324264Y-101306525D01*
X145310501Y-101282688D01*
X145310500Y-101282686D01*
X145217314Y-101189500D01*
X145217311Y-101189498D01*
X145171984Y-101163328D01*
X145131044Y-101117858D01*
X145124649Y-101057008D01*
X145151479Y-101007590D01*
X149221894Y-96937175D01*
X149276409Y-96909400D01*
X149336841Y-96918971D01*
G37*
%TD.AperFunction*%
%TA.AperFunction,Conductor*%
G36*
X169933006Y-114671150D02*
G01*
X169941893Y-114680038D01*
X169941897Y-114680041D01*
X169941901Y-114680045D01*
X170003001Y-114720871D01*
X170085287Y-114775854D01*
X170085299Y-114775860D01*
X170144153Y-114800238D01*
X170244626Y-114841855D01*
X170413771Y-114875500D01*
X170413772Y-114875500D01*
X170586228Y-114875500D01*
X170586229Y-114875500D01*
X170755374Y-114841855D01*
X170914705Y-114775858D01*
X170996999Y-114720870D01*
X171055886Y-114704262D01*
X171113289Y-114725439D01*
X171147283Y-114776312D01*
X171151000Y-114803186D01*
X171151000Y-114934640D01*
X171132093Y-114992831D01*
X171122003Y-115004644D01*
X170952852Y-115173794D01*
X170898336Y-115201571D01*
X170844964Y-115195254D01*
X170755374Y-115158145D01*
X170755369Y-115158144D01*
X170586231Y-115124500D01*
X170586229Y-115124500D01*
X170413771Y-115124500D01*
X170413768Y-115124500D01*
X170244626Y-115158145D01*
X170244624Y-115158145D01*
X170085299Y-115224139D01*
X170085287Y-115224145D01*
X169941901Y-115319955D01*
X169941897Y-115319958D01*
X169933004Y-115328852D01*
X169878487Y-115356629D01*
X169818055Y-115347058D01*
X169774790Y-115303793D01*
X169764000Y-115258848D01*
X169764000Y-114741151D01*
X169782907Y-114682960D01*
X169832407Y-114646996D01*
X169893593Y-114646996D01*
X169933006Y-114671150D01*
G37*
%TD.AperFunction*%
%TA.AperFunction,Conductor*%
G36*
X166561904Y-112435256D02*
G01*
X167673793Y-113547145D01*
X167701570Y-113601662D01*
X167695254Y-113655033D01*
X167658144Y-113744627D01*
X167624500Y-113913768D01*
X167624500Y-114086231D01*
X167658145Y-114255373D01*
X167658145Y-114255375D01*
X167724139Y-114414700D01*
X167724145Y-114414712D01*
X167785004Y-114505791D01*
X167819955Y-114558099D01*
X167941901Y-114680045D01*
X168003001Y-114720871D01*
X168085287Y-114775854D01*
X168085299Y-114775860D01*
X168144153Y-114800238D01*
X168244626Y-114841855D01*
X168413771Y-114875500D01*
X168413772Y-114875500D01*
X168586228Y-114875500D01*
X168586229Y-114875500D01*
X168755374Y-114841855D01*
X168914705Y-114775858D01*
X168914707Y-114775856D01*
X168914712Y-114775854D01*
X168959377Y-114746009D01*
X169058099Y-114680045D01*
X169066994Y-114671150D01*
X169121509Y-114643370D01*
X169181941Y-114652940D01*
X169225208Y-114696202D01*
X169236000Y-114741151D01*
X169236000Y-115258848D01*
X169217093Y-115317039D01*
X169167593Y-115353003D01*
X169106407Y-115353003D01*
X169066996Y-115328852D01*
X169058102Y-115319958D01*
X169058099Y-115319955D01*
X168998889Y-115280392D01*
X168914712Y-115224145D01*
X168914700Y-115224139D01*
X168755374Y-115158145D01*
X168586231Y-115124500D01*
X168586229Y-115124500D01*
X168413771Y-115124500D01*
X168413768Y-115124500D01*
X168244627Y-115158144D01*
X168155034Y-115195254D01*
X168094037Y-115200053D01*
X168047146Y-115173793D01*
X166421896Y-113548543D01*
X166394119Y-113494026D01*
X166392900Y-113478539D01*
X166392900Y-112505260D01*
X166411807Y-112447069D01*
X166461307Y-112411105D01*
X166522493Y-112411105D01*
X166561904Y-112435256D01*
G37*
%TD.AperFunction*%
%TA.AperFunction,Conductor*%
G36*
X169933006Y-112671150D02*
G01*
X169941893Y-112680038D01*
X169941897Y-112680041D01*
X169941901Y-112680045D01*
X170003001Y-112720871D01*
X170085287Y-112775854D01*
X170085299Y-112775860D01*
X170144153Y-112800238D01*
X170244626Y-112841855D01*
X170413771Y-112875500D01*
X170413772Y-112875500D01*
X170586228Y-112875500D01*
X170586229Y-112875500D01*
X170755374Y-112841855D01*
X170914705Y-112775858D01*
X170996999Y-112720870D01*
X171055886Y-112704262D01*
X171113289Y-112725439D01*
X171147283Y-112776312D01*
X171151000Y-112803186D01*
X171151000Y-113196813D01*
X171132093Y-113255004D01*
X171082593Y-113290968D01*
X171021407Y-113290968D01*
X170996998Y-113279128D01*
X170914712Y-113224145D01*
X170914700Y-113224139D01*
X170755374Y-113158145D01*
X170586231Y-113124500D01*
X170586229Y-113124500D01*
X170413771Y-113124500D01*
X170413768Y-113124500D01*
X170244626Y-113158145D01*
X170244624Y-113158145D01*
X170085299Y-113224139D01*
X170085287Y-113224145D01*
X169941901Y-113319955D01*
X169941897Y-113319958D01*
X169933004Y-113328852D01*
X169878487Y-113356629D01*
X169818055Y-113347058D01*
X169774790Y-113303793D01*
X169764000Y-113258848D01*
X169764000Y-112741151D01*
X169782907Y-112682960D01*
X169832407Y-112646996D01*
X169893593Y-112646996D01*
X169933006Y-112671150D01*
G37*
%TD.AperFunction*%
%TA.AperFunction,Conductor*%
G36*
X166817603Y-108690955D02*
G01*
X167246664Y-109120017D01*
X167673793Y-109547146D01*
X167701570Y-109601663D01*
X167695254Y-109655034D01*
X167658144Y-109744627D01*
X167624500Y-109913768D01*
X167624500Y-110086231D01*
X167658145Y-110255373D01*
X167658145Y-110255375D01*
X167724139Y-110414700D01*
X167724145Y-110414712D01*
X167791831Y-110516009D01*
X167819955Y-110558099D01*
X167941901Y-110680045D01*
X168001315Y-110719744D01*
X168085287Y-110775854D01*
X168085299Y-110775860D01*
X168144153Y-110800238D01*
X168244626Y-110841855D01*
X168413771Y-110875500D01*
X168413772Y-110875500D01*
X168586228Y-110875500D01*
X168586229Y-110875500D01*
X168755374Y-110841855D01*
X168914705Y-110775858D01*
X168914707Y-110775856D01*
X168914712Y-110775854D01*
X168957015Y-110747587D01*
X169058099Y-110680045D01*
X169066994Y-110671150D01*
X169121509Y-110643370D01*
X169181941Y-110652940D01*
X169225208Y-110696202D01*
X169236000Y-110741151D01*
X169236000Y-111258848D01*
X169217093Y-111317039D01*
X169167593Y-111353003D01*
X169106407Y-111353003D01*
X169066996Y-111328852D01*
X169058102Y-111319958D01*
X169058099Y-111319955D01*
X169001493Y-111282132D01*
X168914712Y-111224145D01*
X168914700Y-111224139D01*
X168755374Y-111158145D01*
X168586231Y-111124500D01*
X168586229Y-111124500D01*
X168413771Y-111124500D01*
X168413768Y-111124500D01*
X168244626Y-111158145D01*
X168244624Y-111158145D01*
X168085299Y-111224139D01*
X168085287Y-111224145D01*
X167941901Y-111319955D01*
X167941897Y-111319958D01*
X167819958Y-111441897D01*
X167819955Y-111441901D01*
X167724145Y-111585287D01*
X167724139Y-111585299D01*
X167658145Y-111744624D01*
X167658145Y-111744626D01*
X167624500Y-111913768D01*
X167624500Y-111913771D01*
X167624500Y-112086229D01*
X167657629Y-112252782D01*
X167658145Y-112255373D01*
X167658145Y-112255375D01*
X167724139Y-112414700D01*
X167724145Y-112414712D01*
X167784649Y-112505260D01*
X167819955Y-112558099D01*
X167941901Y-112680045D01*
X168003001Y-112720871D01*
X168085287Y-112775854D01*
X168085299Y-112775860D01*
X168144153Y-112800238D01*
X168244626Y-112841855D01*
X168413771Y-112875500D01*
X168413772Y-112875500D01*
X168586228Y-112875500D01*
X168586229Y-112875500D01*
X168755374Y-112841855D01*
X168914705Y-112775858D01*
X168914707Y-112775856D01*
X168914712Y-112775854D01*
X168956115Y-112748188D01*
X169058099Y-112680045D01*
X169066994Y-112671150D01*
X169121509Y-112643370D01*
X169181941Y-112652940D01*
X169225208Y-112696202D01*
X169236000Y-112741151D01*
X169236000Y-113258848D01*
X169217093Y-113317039D01*
X169167593Y-113353003D01*
X169106407Y-113353003D01*
X169066996Y-113328852D01*
X169058102Y-113319958D01*
X169058099Y-113319955D01*
X169014717Y-113290968D01*
X168914712Y-113224145D01*
X168914700Y-113224139D01*
X168755374Y-113158145D01*
X168586231Y-113124500D01*
X168586229Y-113124500D01*
X168413771Y-113124500D01*
X168413768Y-113124500D01*
X168244627Y-113158144D01*
X168155033Y-113195254D01*
X168094036Y-113200053D01*
X168047145Y-113173793D01*
X166677596Y-111804244D01*
X166649819Y-111749727D01*
X166648600Y-111734240D01*
X166648600Y-108760960D01*
X166667507Y-108702769D01*
X166717007Y-108666805D01*
X166778193Y-108666805D01*
X166817603Y-108690955D01*
G37*
%TD.AperFunction*%
%TA.AperFunction,Conductor*%
G36*
X169933006Y-110671150D02*
G01*
X169941893Y-110680038D01*
X169941897Y-110680041D01*
X169941901Y-110680045D01*
X170001315Y-110719744D01*
X170085287Y-110775854D01*
X170085299Y-110775860D01*
X170144153Y-110800238D01*
X170244626Y-110841855D01*
X170413771Y-110875500D01*
X170413772Y-110875500D01*
X170586228Y-110875500D01*
X170586229Y-110875500D01*
X170755374Y-110841855D01*
X170914705Y-110775858D01*
X170996999Y-110720870D01*
X171055886Y-110704262D01*
X171113289Y-110725439D01*
X171147283Y-110776312D01*
X171151000Y-110803186D01*
X171151000Y-111196813D01*
X171132093Y-111255004D01*
X171082593Y-111290968D01*
X171021407Y-111290968D01*
X170996998Y-111279128D01*
X170914712Y-111224145D01*
X170914700Y-111224139D01*
X170755374Y-111158145D01*
X170586231Y-111124500D01*
X170586229Y-111124500D01*
X170413771Y-111124500D01*
X170413768Y-111124500D01*
X170244626Y-111158145D01*
X170244624Y-111158145D01*
X170085299Y-111224139D01*
X170085287Y-111224145D01*
X169941901Y-111319955D01*
X169941897Y-111319958D01*
X169933004Y-111328852D01*
X169878487Y-111356629D01*
X169818055Y-111347058D01*
X169774790Y-111303793D01*
X169764000Y-111258848D01*
X169764000Y-110741151D01*
X169782907Y-110682960D01*
X169832407Y-110646996D01*
X169893593Y-110646996D01*
X169933006Y-110671150D01*
G37*
%TD.AperFunction*%
%TA.AperFunction,Conductor*%
G36*
X169987877Y-108710765D02*
G01*
X170085288Y-108775854D01*
X170085299Y-108775860D01*
X170106081Y-108784468D01*
X170244626Y-108841855D01*
X170413771Y-108875500D01*
X170413772Y-108875500D01*
X170586228Y-108875500D01*
X170586229Y-108875500D01*
X170755374Y-108841855D01*
X170914705Y-108775858D01*
X170996999Y-108720870D01*
X171055886Y-108704262D01*
X171113289Y-108725439D01*
X171147283Y-108776312D01*
X171151000Y-108803186D01*
X171151000Y-109196813D01*
X171132093Y-109255004D01*
X171082593Y-109290968D01*
X171021407Y-109290968D01*
X170996998Y-109279128D01*
X170914712Y-109224145D01*
X170914700Y-109224139D01*
X170755374Y-109158145D01*
X170586231Y-109124500D01*
X170586229Y-109124500D01*
X170413771Y-109124500D01*
X170413768Y-109124500D01*
X170244626Y-109158145D01*
X170244624Y-109158145D01*
X170085299Y-109224139D01*
X170085287Y-109224145D01*
X169941901Y-109319955D01*
X169941897Y-109319958D01*
X169819956Y-109441899D01*
X169793486Y-109481514D01*
X169745435Y-109519392D01*
X169684297Y-109521794D01*
X169641167Y-109496515D01*
X169581184Y-109436532D01*
X169553407Y-109382015D01*
X169562978Y-109321583D01*
X169601687Y-109280792D01*
X169664913Y-109244289D01*
X169748789Y-109160413D01*
X169748792Y-109160408D01*
X169808097Y-109057690D01*
X169808097Y-109057688D01*
X169808099Y-109057686D01*
X169838800Y-108943109D01*
X169838800Y-108824491D01*
X169837250Y-108818706D01*
X169840449Y-108757606D01*
X169878952Y-108710054D01*
X169938052Y-108694215D01*
X169987877Y-108710765D01*
G37*
%TD.AperFunction*%
%TA.AperFunction,Conductor*%
G36*
X167725093Y-104416265D02*
G01*
X167727315Y-104419454D01*
X167735436Y-104431608D01*
X167819955Y-104558099D01*
X167941901Y-104680045D01*
X168000632Y-104719288D01*
X168085287Y-104775854D01*
X168085299Y-104775860D01*
X168102986Y-104783186D01*
X168244626Y-104841855D01*
X168413771Y-104875500D01*
X168413772Y-104875500D01*
X168586228Y-104875500D01*
X168586229Y-104875500D01*
X168755374Y-104841855D01*
X168914705Y-104775858D01*
X168937254Y-104760791D01*
X168970298Y-104738712D01*
X169029186Y-104722103D01*
X169086590Y-104743280D01*
X169120583Y-104794153D01*
X169124300Y-104821027D01*
X169124300Y-105178972D01*
X169105393Y-105237163D01*
X169055893Y-105273127D01*
X168994707Y-105273127D01*
X168970299Y-105261288D01*
X168914709Y-105224144D01*
X168914700Y-105224139D01*
X168755374Y-105158145D01*
X168586231Y-105124500D01*
X168586229Y-105124500D01*
X168413771Y-105124500D01*
X168413768Y-105124500D01*
X168244626Y-105158145D01*
X168244624Y-105158145D01*
X168085299Y-105224139D01*
X168085287Y-105224145D01*
X167941901Y-105319955D01*
X167941897Y-105319958D01*
X167819958Y-105441897D01*
X167819955Y-105441901D01*
X167724145Y-105585287D01*
X167724139Y-105585299D01*
X167658145Y-105744624D01*
X167658145Y-105744626D01*
X167624500Y-105913768D01*
X167624500Y-106086231D01*
X167633788Y-106132925D01*
X167649459Y-106211709D01*
X167658145Y-106255373D01*
X167658145Y-106255375D01*
X167724139Y-106414700D01*
X167724145Y-106414712D01*
X167780746Y-106499419D01*
X167819955Y-106558099D01*
X167941901Y-106680045D01*
X167994586Y-106715248D01*
X168085287Y-106775854D01*
X168085299Y-106775860D01*
X168129463Y-106794153D01*
X168244626Y-106841855D01*
X168413771Y-106875500D01*
X168413772Y-106875500D01*
X168586228Y-106875500D01*
X168586229Y-106875500D01*
X168755374Y-106841855D01*
X168914705Y-106775858D01*
X168970298Y-106738712D01*
X169029186Y-106722103D01*
X169086590Y-106743280D01*
X169120583Y-106794153D01*
X169124300Y-106821027D01*
X169124300Y-107178972D01*
X169105393Y-107237163D01*
X169055893Y-107273127D01*
X168994707Y-107273127D01*
X168970299Y-107261288D01*
X168914709Y-107224144D01*
X168914700Y-107224139D01*
X168755374Y-107158145D01*
X168586231Y-107124500D01*
X168586229Y-107124500D01*
X168413771Y-107124500D01*
X168413768Y-107124500D01*
X168244626Y-107158145D01*
X168244624Y-107158145D01*
X168085299Y-107224139D01*
X168085287Y-107224145D01*
X167941901Y-107319955D01*
X167941897Y-107319958D01*
X167819954Y-107441901D01*
X167778015Y-107504668D01*
X167729965Y-107542547D01*
X167668826Y-107544949D01*
X167617953Y-107510956D01*
X167596776Y-107453552D01*
X167596700Y-107449666D01*
X167596700Y-107386192D01*
X167596700Y-107386191D01*
X167565999Y-107271614D01*
X167565997Y-107271611D01*
X167565997Y-107271609D01*
X167506692Y-107168891D01*
X167506690Y-107168889D01*
X167506689Y-107168887D01*
X167422813Y-107085011D01*
X167422810Y-107085009D01*
X167422808Y-107085007D01*
X167320089Y-107025702D01*
X167320090Y-107025702D01*
X167306551Y-107022074D01*
X167205509Y-106995000D01*
X167086891Y-106995000D01*
X167086888Y-106995000D01*
X167078618Y-106997216D01*
X167017516Y-106994010D01*
X166969968Y-106955502D01*
X166954000Y-106901588D01*
X166954000Y-106656311D01*
X166972907Y-106598120D01*
X167003500Y-106570575D01*
X167103408Y-106512892D01*
X167103408Y-106512891D01*
X167103413Y-106512889D01*
X167187289Y-106429013D01*
X167187292Y-106429008D01*
X167246597Y-106326290D01*
X167246597Y-106326288D01*
X167246599Y-106326286D01*
X167277300Y-106211709D01*
X167277300Y-106093091D01*
X167246599Y-105978514D01*
X167246597Y-105978511D01*
X167246597Y-105978509D01*
X167187292Y-105875791D01*
X167187290Y-105875789D01*
X167187289Y-105875787D01*
X167105027Y-105793525D01*
X167077252Y-105739011D01*
X167086823Y-105678579D01*
X167105026Y-105653524D01*
X167505809Y-105252744D01*
X167539999Y-105170201D01*
X167546000Y-105155713D01*
X167546000Y-104474456D01*
X167564907Y-104416265D01*
X167614407Y-104380301D01*
X167675593Y-104380301D01*
X167725093Y-104416265D01*
G37*
%TD.AperFunction*%
%TA.AperFunction,Conductor*%
G36*
X169821304Y-106559448D02*
G01*
X169941901Y-106680045D01*
X169994586Y-106715248D01*
X170085287Y-106775854D01*
X170085299Y-106775860D01*
X170129463Y-106794153D01*
X170244626Y-106841855D01*
X170413771Y-106875500D01*
X170413772Y-106875500D01*
X170586228Y-106875500D01*
X170586229Y-106875500D01*
X170755374Y-106841855D01*
X170914705Y-106775858D01*
X170996999Y-106720870D01*
X171055886Y-106704262D01*
X171113289Y-106725439D01*
X171147283Y-106776312D01*
X171151000Y-106803186D01*
X171151000Y-107196813D01*
X171132093Y-107255004D01*
X171082593Y-107290968D01*
X171021407Y-107290968D01*
X170996998Y-107279128D01*
X170914712Y-107224145D01*
X170914700Y-107224139D01*
X170755374Y-107158145D01*
X170586231Y-107124500D01*
X170586229Y-107124500D01*
X170413771Y-107124500D01*
X170413768Y-107124500D01*
X170244626Y-107158145D01*
X170244624Y-107158145D01*
X170085299Y-107224139D01*
X170085287Y-107224145D01*
X169941901Y-107319955D01*
X169941897Y-107319958D01*
X169821304Y-107440552D01*
X169766787Y-107468329D01*
X169706355Y-107458758D01*
X169663090Y-107415493D01*
X169652300Y-107370548D01*
X169652300Y-106629452D01*
X169671207Y-106571261D01*
X169720707Y-106535297D01*
X169781893Y-106535297D01*
X169821304Y-106559448D01*
G37*
%TD.AperFunction*%
%TA.AperFunction,Conductor*%
G36*
X169821304Y-104559448D02*
G01*
X169941901Y-104680045D01*
X170000632Y-104719288D01*
X170085287Y-104775854D01*
X170085299Y-104775860D01*
X170102986Y-104783186D01*
X170244626Y-104841855D01*
X170413771Y-104875500D01*
X170413772Y-104875500D01*
X170586228Y-104875500D01*
X170586229Y-104875500D01*
X170755374Y-104841855D01*
X170834927Y-104808902D01*
X170895923Y-104804102D01*
X170948092Y-104836072D01*
X170971507Y-104892600D01*
X170971812Y-104900367D01*
X170971812Y-104913402D01*
X170964500Y-104940691D01*
X170964500Y-105059309D01*
X170971812Y-105086597D01*
X170971812Y-105099632D01*
X170966188Y-105116939D01*
X170965236Y-105135112D01*
X170956966Y-105145324D01*
X170952905Y-105157823D01*
X170938181Y-105168520D01*
X170926730Y-105182661D01*
X170914038Y-105186061D01*
X170903405Y-105193787D01*
X170885204Y-105193787D01*
X170867629Y-105198496D01*
X170846819Y-105193787D01*
X170842219Y-105193787D01*
X170840138Y-105192275D01*
X170834927Y-105191096D01*
X170755374Y-105158145D01*
X170586231Y-105124500D01*
X170586229Y-105124500D01*
X170413771Y-105124500D01*
X170413768Y-105124500D01*
X170244626Y-105158145D01*
X170244624Y-105158145D01*
X170085299Y-105224139D01*
X170085287Y-105224145D01*
X169941901Y-105319955D01*
X169941897Y-105319958D01*
X169821304Y-105440552D01*
X169766787Y-105468329D01*
X169706355Y-105458758D01*
X169663090Y-105415493D01*
X169652300Y-105370548D01*
X169652300Y-104629452D01*
X169671207Y-104571261D01*
X169720707Y-104535297D01*
X169781893Y-104535297D01*
X169821304Y-104559448D01*
G37*
%TD.AperFunction*%
%TA.AperFunction,Conductor*%
G36*
X173004842Y-86800976D02*
G01*
X173126764Y-86812985D01*
X173145795Y-86816771D01*
X173166117Y-86822935D01*
X173258360Y-86850916D01*
X173276277Y-86858337D01*
X173380026Y-86913792D01*
X173396157Y-86924571D01*
X173487083Y-86999193D01*
X173500806Y-87012916D01*
X173575428Y-87103842D01*
X173586208Y-87119976D01*
X173641659Y-87223718D01*
X173649084Y-87241643D01*
X173683228Y-87354204D01*
X173687014Y-87373237D01*
X173699023Y-87495157D01*
X173699500Y-87504861D01*
X173699500Y-122495138D01*
X173699023Y-122504842D01*
X173687014Y-122626762D01*
X173683228Y-122645795D01*
X173649084Y-122758356D01*
X173641657Y-122776288D01*
X173586210Y-122880021D01*
X173575428Y-122896157D01*
X173500806Y-122987083D01*
X173487083Y-123000806D01*
X173396157Y-123075428D01*
X173380021Y-123086210D01*
X173328154Y-123113933D01*
X173276285Y-123141658D01*
X173258356Y-123149084D01*
X173145795Y-123183228D01*
X173126763Y-123187014D01*
X173020719Y-123197459D01*
X173004841Y-123199023D01*
X172995139Y-123199500D01*
X124004861Y-123199500D01*
X123995157Y-123199023D01*
X123873237Y-123187014D01*
X123854204Y-123183228D01*
X123741643Y-123149084D01*
X123723718Y-123141659D01*
X123619976Y-123086208D01*
X123603842Y-123075428D01*
X123512916Y-123000806D01*
X123499193Y-122987083D01*
X123424571Y-122896157D01*
X123413792Y-122880026D01*
X123358337Y-122776277D01*
X123350916Y-122758360D01*
X123316771Y-122645795D01*
X123312985Y-122626762D01*
X123300977Y-122504842D01*
X123300500Y-122495138D01*
X123300500Y-119102891D01*
X125181000Y-119102891D01*
X125181000Y-119221509D01*
X125208074Y-119322551D01*
X125211702Y-119336090D01*
X125271007Y-119438808D01*
X125271009Y-119438810D01*
X125271011Y-119438813D01*
X125354887Y-119522689D01*
X125354889Y-119522690D01*
X125354891Y-119522692D01*
X125457610Y-119581997D01*
X125457611Y-119581997D01*
X125457614Y-119581999D01*
X125572191Y-119612700D01*
X125572193Y-119612700D01*
X125690807Y-119612700D01*
X125690809Y-119612700D01*
X125805386Y-119581999D01*
X125805388Y-119581997D01*
X125805390Y-119581997D01*
X125908108Y-119522692D01*
X125908108Y-119522691D01*
X125908113Y-119522689D01*
X125991989Y-119438813D01*
X126051299Y-119336086D01*
X126082000Y-119221509D01*
X126082000Y-119102891D01*
X126051299Y-118988314D01*
X126025219Y-118943143D01*
X126012498Y-118883297D01*
X126037384Y-118827401D01*
X126090371Y-118796808D01*
X126148841Y-118802180D01*
X126178177Y-118814331D01*
X126244626Y-118841855D01*
X126413771Y-118875500D01*
X126413772Y-118875500D01*
X126586228Y-118875500D01*
X126586229Y-118875500D01*
X126755374Y-118841855D01*
X126914705Y-118775858D01*
X126914707Y-118775856D01*
X126914712Y-118775854D01*
X126964777Y-118742401D01*
X127058099Y-118680045D01*
X127180045Y-118558099D01*
X127248188Y-118456115D01*
X127275854Y-118414712D01*
X127275860Y-118414700D01*
X127341855Y-118255374D01*
X127375500Y-118086229D01*
X127375500Y-117913771D01*
X127375499Y-117913768D01*
X127624500Y-117913768D01*
X127624500Y-118086231D01*
X127658145Y-118255373D01*
X127658145Y-118255375D01*
X127724139Y-118414700D01*
X127724145Y-118414712D01*
X127775618Y-118491744D01*
X127819955Y-118558099D01*
X127941901Y-118680045D01*
X127989276Y-118711700D01*
X128085287Y-118775854D01*
X128085299Y-118775860D01*
X128130127Y-118794428D01*
X128244626Y-118841855D01*
X128413771Y-118875500D01*
X128413772Y-118875500D01*
X128586228Y-118875500D01*
X128586229Y-118875500D01*
X128755374Y-118841855D01*
X128914705Y-118775858D01*
X128914707Y-118775856D01*
X128914712Y-118775854D01*
X128964777Y-118742401D01*
X129058099Y-118680045D01*
X129180045Y-118558099D01*
X129248188Y-118456115D01*
X129275854Y-118414712D01*
X129275860Y-118414700D01*
X129341855Y-118255374D01*
X129375500Y-118086229D01*
X129375500Y-117913771D01*
X129341855Y-117744626D01*
X129307429Y-117661513D01*
X129275860Y-117585299D01*
X129275854Y-117585287D01*
X129220893Y-117503034D01*
X129180045Y-117441901D01*
X129058099Y-117319955D01*
X129017249Y-117292660D01*
X128914712Y-117224145D01*
X128914700Y-117224139D01*
X128755374Y-117158145D01*
X128586231Y-117124500D01*
X128586229Y-117124500D01*
X128413771Y-117124500D01*
X128413768Y-117124500D01*
X128244626Y-117158145D01*
X128244624Y-117158145D01*
X128085299Y-117224139D01*
X128085287Y-117224145D01*
X127941901Y-117319955D01*
X127941897Y-117319958D01*
X127819958Y-117441897D01*
X127819955Y-117441901D01*
X127724145Y-117585287D01*
X127724139Y-117585299D01*
X127658145Y-117744624D01*
X127658145Y-117744626D01*
X127624500Y-117913768D01*
X127375499Y-117913768D01*
X127341855Y-117744626D01*
X127307429Y-117661513D01*
X127275860Y-117585299D01*
X127275854Y-117585287D01*
X127220893Y-117503034D01*
X127180045Y-117441901D01*
X127058099Y-117319955D01*
X127017249Y-117292660D01*
X126914712Y-117224145D01*
X126914700Y-117224139D01*
X126755374Y-117158145D01*
X126586231Y-117124500D01*
X126586229Y-117124500D01*
X126413771Y-117124500D01*
X126413768Y-117124500D01*
X126244626Y-117158145D01*
X126244624Y-117158145D01*
X126085299Y-117224139D01*
X126085289Y-117224144D01*
X126049501Y-117248058D01*
X125990613Y-117264666D01*
X125933209Y-117243488D01*
X125899217Y-117192614D01*
X125895500Y-117165742D01*
X125895500Y-116834257D01*
X125914407Y-116776066D01*
X125963907Y-116740102D01*
X126025093Y-116740102D01*
X126049500Y-116751940D01*
X126085295Y-116775858D01*
X126085297Y-116775859D01*
X126085299Y-116775860D01*
X126144153Y-116800238D01*
X126244626Y-116841855D01*
X126413771Y-116875500D01*
X126413772Y-116875500D01*
X126586228Y-116875500D01*
X126586229Y-116875500D01*
X126755374Y-116841855D01*
X126914705Y-116775858D01*
X126914707Y-116775856D01*
X126914712Y-116775854D01*
X126956115Y-116748188D01*
X127058099Y-116680045D01*
X127180045Y-116558099D01*
X127248188Y-116456115D01*
X127275854Y-116414712D01*
X127275860Y-116414700D01*
X127341855Y-116255374D01*
X127375500Y-116086229D01*
X127375500Y-115913771D01*
X127375499Y-115913768D01*
X127624500Y-115913768D01*
X127624500Y-116086231D01*
X127658145Y-116255373D01*
X127658145Y-116255375D01*
X127724139Y-116414700D01*
X127724145Y-116414712D01*
X127792660Y-116517249D01*
X127819955Y-116558099D01*
X127941901Y-116680045D01*
X128003034Y-116720893D01*
X128085287Y-116775854D01*
X128085299Y-116775860D01*
X128144153Y-116800238D01*
X128244626Y-116841855D01*
X128413771Y-116875500D01*
X128413772Y-116875500D01*
X128586228Y-116875500D01*
X128586229Y-116875500D01*
X128755374Y-116841855D01*
X128914705Y-116775858D01*
X128914707Y-116775856D01*
X128914712Y-116775854D01*
X128956115Y-116748188D01*
X129058099Y-116680045D01*
X129180045Y-116558099D01*
X129248188Y-116456115D01*
X129275854Y-116414712D01*
X129275860Y-116414700D01*
X129341855Y-116255374D01*
X129375500Y-116086229D01*
X129375500Y-115913771D01*
X129341855Y-115744626D01*
X129282638Y-115601663D01*
X129275860Y-115585299D01*
X129275854Y-115585287D01*
X129220893Y-115503034D01*
X129180045Y-115441901D01*
X129058099Y-115319955D01*
X128998889Y-115280392D01*
X128914712Y-115224145D01*
X128914700Y-115224139D01*
X128755374Y-115158145D01*
X128586231Y-115124500D01*
X128586229Y-115124500D01*
X128413771Y-115124500D01*
X128413768Y-115124500D01*
X128244626Y-115158145D01*
X128244624Y-115158145D01*
X128085299Y-115224139D01*
X128085287Y-115224145D01*
X127941901Y-115319955D01*
X127941897Y-115319958D01*
X127819958Y-115441897D01*
X127819955Y-115441901D01*
X127724145Y-115585287D01*
X127724139Y-115585299D01*
X127658145Y-115744624D01*
X127658145Y-115744626D01*
X127624500Y-115913768D01*
X127375499Y-115913768D01*
X127341855Y-115744626D01*
X127282638Y-115601663D01*
X127275860Y-115585299D01*
X127275854Y-115585287D01*
X127220893Y-115503034D01*
X127180045Y-115441901D01*
X127058099Y-115319955D01*
X126998889Y-115280392D01*
X126914712Y-115224145D01*
X126914700Y-115224139D01*
X126755374Y-115158145D01*
X126586231Y-115124500D01*
X126586229Y-115124500D01*
X126413771Y-115124500D01*
X126413768Y-115124500D01*
X126244626Y-115158145D01*
X126244624Y-115158145D01*
X126085299Y-115224139D01*
X126085289Y-115224144D01*
X126049501Y-115248058D01*
X125990613Y-115264666D01*
X125933209Y-115243488D01*
X125899217Y-115192614D01*
X125895500Y-115165742D01*
X125895500Y-114834257D01*
X125914407Y-114776066D01*
X125963907Y-114740102D01*
X126025093Y-114740102D01*
X126049500Y-114751940D01*
X126085295Y-114775858D01*
X126085297Y-114775859D01*
X126085299Y-114775860D01*
X126144153Y-114800238D01*
X126244626Y-114841855D01*
X126413771Y-114875500D01*
X126413772Y-114875500D01*
X126586228Y-114875500D01*
X126586229Y-114875500D01*
X126755374Y-114841855D01*
X126914705Y-114775858D01*
X126914707Y-114775856D01*
X126914712Y-114775854D01*
X126959377Y-114746009D01*
X127058099Y-114680045D01*
X127180045Y-114558099D01*
X127248188Y-114456115D01*
X127275854Y-114414712D01*
X127275860Y-114414700D01*
X127341855Y-114255374D01*
X127375500Y-114086229D01*
X127375500Y-113913771D01*
X127341855Y-113744626D01*
X127305422Y-113656668D01*
X127275860Y-113585299D01*
X127275854Y-113585287D01*
X127214874Y-113494026D01*
X127180045Y-113441901D01*
X127058099Y-113319955D01*
X127014717Y-113290968D01*
X126914712Y-113224145D01*
X126914700Y-113224139D01*
X126755374Y-113158145D01*
X126586231Y-113124500D01*
X126586229Y-113124500D01*
X126413771Y-113124500D01*
X126413768Y-113124500D01*
X126244626Y-113158145D01*
X126244624Y-113158145D01*
X126085299Y-113224139D01*
X126085289Y-113224144D01*
X126049501Y-113248058D01*
X125990613Y-113264666D01*
X125933209Y-113243488D01*
X125899217Y-113192614D01*
X125895500Y-113165742D01*
X125895500Y-112834257D01*
X125914407Y-112776066D01*
X125963907Y-112740102D01*
X126025093Y-112740102D01*
X126049500Y-112751940D01*
X126085295Y-112775858D01*
X126085297Y-112775859D01*
X126085299Y-112775860D01*
X126144153Y-112800238D01*
X126244626Y-112841855D01*
X126413771Y-112875500D01*
X126413772Y-112875500D01*
X126586228Y-112875500D01*
X126586229Y-112875500D01*
X126755374Y-112841855D01*
X126914705Y-112775858D01*
X127037598Y-112693742D01*
X127096486Y-112677134D01*
X127153890Y-112698311D01*
X127187883Y-112749185D01*
X127191600Y-112776058D01*
X127191600Y-113008112D01*
X127231791Y-113105143D01*
X127673794Y-113547147D01*
X127701571Y-113601663D01*
X127695254Y-113655035D01*
X127658145Y-113744624D01*
X127658145Y-113744626D01*
X127624500Y-113913768D01*
X127624500Y-114086231D01*
X127658145Y-114255373D01*
X127658145Y-114255375D01*
X127724139Y-114414700D01*
X127724145Y-114414712D01*
X127785004Y-114505791D01*
X127819955Y-114558099D01*
X127941901Y-114680045D01*
X128003001Y-114720871D01*
X128085287Y-114775854D01*
X128085299Y-114775860D01*
X128144153Y-114800238D01*
X128244626Y-114841855D01*
X128413771Y-114875500D01*
X128413772Y-114875500D01*
X128586228Y-114875500D01*
X128586229Y-114875500D01*
X128755374Y-114841855D01*
X128914705Y-114775858D01*
X128914707Y-114775856D01*
X128914712Y-114775854D01*
X128959377Y-114746009D01*
X129058099Y-114680045D01*
X129180045Y-114558099D01*
X129248188Y-114456115D01*
X129275854Y-114414712D01*
X129275860Y-114414700D01*
X129341855Y-114255374D01*
X129375500Y-114086229D01*
X129375500Y-113913771D01*
X129341855Y-113744626D01*
X129305422Y-113656668D01*
X129275860Y-113585299D01*
X129275854Y-113585287D01*
X129214874Y-113494026D01*
X129180045Y-113441901D01*
X129058099Y-113319955D01*
X129014717Y-113290968D01*
X128914712Y-113224145D01*
X128914700Y-113224139D01*
X128755374Y-113158145D01*
X128586231Y-113124500D01*
X128586229Y-113124500D01*
X128413771Y-113124500D01*
X128413768Y-113124500D01*
X128244627Y-113158144D01*
X128155034Y-113195254D01*
X128094037Y-113200053D01*
X128047146Y-113173793D01*
X127748596Y-112875243D01*
X127720819Y-112820726D01*
X127719600Y-112805239D01*
X127719600Y-112696752D01*
X127738507Y-112638561D01*
X127788007Y-112602597D01*
X127849193Y-112602597D01*
X127888604Y-112626748D01*
X127941901Y-112680045D01*
X128003001Y-112720871D01*
X128085287Y-112775854D01*
X128085299Y-112775860D01*
X128144153Y-112800238D01*
X128244626Y-112841855D01*
X128413771Y-112875500D01*
X128413772Y-112875500D01*
X128586228Y-112875500D01*
X128586229Y-112875500D01*
X128755374Y-112841855D01*
X128914705Y-112775858D01*
X128914707Y-112775856D01*
X128914712Y-112775854D01*
X128956115Y-112748188D01*
X129058099Y-112680045D01*
X129180045Y-112558099D01*
X129254233Y-112447069D01*
X129275854Y-112414712D01*
X129275855Y-112414708D01*
X129275858Y-112414705D01*
X129312968Y-112325114D01*
X129352705Y-112278589D01*
X129404432Y-112264000D01*
X139162512Y-112264000D01*
X139162513Y-112264000D01*
X139259544Y-112223808D01*
X139316060Y-112167291D01*
X139370574Y-112139515D01*
X139431006Y-112149086D01*
X139474271Y-112192350D01*
X139483843Y-112252782D01*
X139466155Y-112295486D01*
X139430477Y-112344591D01*
X139430475Y-112344595D01*
X139341116Y-112519974D01*
X139280289Y-112707178D01*
X139249500Y-112901579D01*
X139249500Y-113098420D01*
X139280289Y-113292821D01*
X139341116Y-113480025D01*
X139423348Y-113641417D01*
X139430476Y-113655405D01*
X139546172Y-113814646D01*
X139685354Y-113953828D01*
X139844595Y-114069524D01*
X140019975Y-114158884D01*
X140207174Y-114219709D01*
X140207175Y-114219709D01*
X140207178Y-114219710D01*
X140401580Y-114250500D01*
X140401583Y-114250500D01*
X140598420Y-114250500D01*
X140792821Y-114219710D01*
X140792822Y-114219709D01*
X140792826Y-114219709D01*
X140980025Y-114158884D01*
X141155405Y-114069524D01*
X141314646Y-113953828D01*
X141453828Y-113814646D01*
X141535208Y-113702635D01*
X141584707Y-113666673D01*
X141645893Y-113666673D01*
X141695393Y-113702637D01*
X141714300Y-113760828D01*
X141714300Y-117158791D01*
X141695393Y-117216982D01*
X141685309Y-117228788D01*
X141649432Y-117264666D01*
X141617808Y-117296290D01*
X141617807Y-117296291D01*
X141558502Y-117399009D01*
X141558501Y-117399014D01*
X141527800Y-117513591D01*
X141527800Y-117632209D01*
X141535651Y-117661508D01*
X141558502Y-117746790D01*
X141617807Y-117849508D01*
X141617809Y-117849510D01*
X141617811Y-117849513D01*
X141701687Y-117933389D01*
X141701689Y-117933390D01*
X141701691Y-117933392D01*
X141804410Y-117992697D01*
X141804411Y-117992697D01*
X141804414Y-117992699D01*
X141918991Y-118023400D01*
X141918993Y-118023400D01*
X142037607Y-118023400D01*
X142037609Y-118023400D01*
X142152186Y-117992699D01*
X142152188Y-117992697D01*
X142152190Y-117992697D01*
X142254908Y-117933392D01*
X142254908Y-117933391D01*
X142254913Y-117933389D01*
X142338789Y-117849513D01*
X142398099Y-117746786D01*
X142428800Y-117632209D01*
X142428800Y-117513591D01*
X142398099Y-117399014D01*
X142398097Y-117399011D01*
X142398097Y-117399009D01*
X142338792Y-117296291D01*
X142338790Y-117296289D01*
X142338789Y-117296287D01*
X142271294Y-117228792D01*
X142243519Y-117174278D01*
X142242300Y-117158791D01*
X142242300Y-110672060D01*
X142261207Y-110613869D01*
X142271296Y-110602056D01*
X143607296Y-109266056D01*
X143661813Y-109238279D01*
X143722245Y-109247850D01*
X143765510Y-109291115D01*
X143776300Y-109336060D01*
X143776300Y-109369609D01*
X143787651Y-109411971D01*
X143807002Y-109484190D01*
X143866307Y-109586908D01*
X143866309Y-109586910D01*
X143866311Y-109586913D01*
X143950187Y-109670789D01*
X143950189Y-109670790D01*
X143950191Y-109670792D01*
X144052910Y-109730097D01*
X144052911Y-109730097D01*
X144052914Y-109730099D01*
X144167491Y-109760800D01*
X144167493Y-109760800D01*
X144286107Y-109760800D01*
X144286109Y-109760800D01*
X144400686Y-109730099D01*
X144400688Y-109730097D01*
X144400690Y-109730097D01*
X144503408Y-109670792D01*
X144503408Y-109670791D01*
X144503413Y-109670789D01*
X144587289Y-109586913D01*
X144626273Y-109519392D01*
X144646597Y-109484190D01*
X144646597Y-109484188D01*
X144646599Y-109484186D01*
X144677300Y-109369609D01*
X144677300Y-109250991D01*
X144662447Y-109195559D01*
X144665649Y-109134461D01*
X144704154Y-109086911D01*
X144763255Y-109071075D01*
X144783685Y-109074310D01*
X144844108Y-109090500D01*
X144844111Y-109090500D01*
X144975890Y-109090500D01*
X144975892Y-109090500D01*
X145103186Y-109056392D01*
X145103188Y-109056390D01*
X145103190Y-109056390D01*
X145217309Y-108990503D01*
X145217309Y-108990502D01*
X145217314Y-108990500D01*
X145310500Y-108897314D01*
X145324264Y-108873474D01*
X145369733Y-108832534D01*
X145430583Y-108826138D01*
X145483571Y-108856731D01*
X145495734Y-108873471D01*
X145509500Y-108897314D01*
X145602686Y-108990500D01*
X145602688Y-108990501D01*
X145602690Y-108990503D01*
X145716810Y-109056390D01*
X145716808Y-109056390D01*
X145716812Y-109056391D01*
X145716814Y-109056392D01*
X145844108Y-109090500D01*
X145844110Y-109090500D01*
X145975890Y-109090500D01*
X145975892Y-109090500D01*
X146103186Y-109056392D01*
X146103188Y-109056390D01*
X146103190Y-109056390D01*
X146217309Y-108990503D01*
X146217309Y-108990502D01*
X146217314Y-108990500D01*
X146310500Y-108897314D01*
X146324264Y-108873474D01*
X146369733Y-108832534D01*
X146430583Y-108826138D01*
X146483571Y-108856731D01*
X146495734Y-108873471D01*
X146509500Y-108897314D01*
X146602686Y-108990500D01*
X146602688Y-108990501D01*
X146602690Y-108990503D01*
X146716810Y-109056390D01*
X146716808Y-109056390D01*
X146716812Y-109056391D01*
X146716814Y-109056392D01*
X146844108Y-109090500D01*
X146844110Y-109090500D01*
X146975891Y-109090500D01*
X146975892Y-109090500D01*
X147021378Y-109078312D01*
X147082477Y-109081513D01*
X147130028Y-109120017D01*
X147146000Y-109173938D01*
X147146000Y-117945504D01*
X147127093Y-118003695D01*
X147077593Y-118039659D01*
X147021378Y-118041131D01*
X146982839Y-118030804D01*
X146959309Y-118024500D01*
X146840691Y-118024500D01*
X146778624Y-118041131D01*
X146726109Y-118055202D01*
X146623391Y-118114507D01*
X146539507Y-118198391D01*
X146480202Y-118301109D01*
X146480201Y-118301114D01*
X146449500Y-118415691D01*
X146449500Y-118534309D01*
X146476117Y-118633644D01*
X146480202Y-118648890D01*
X146539507Y-118751608D01*
X146539509Y-118751610D01*
X146539511Y-118751613D01*
X146623387Y-118835489D01*
X146623389Y-118835490D01*
X146623391Y-118835492D01*
X146726110Y-118894797D01*
X146726111Y-118894797D01*
X146726114Y-118894799D01*
X146840691Y-118925500D01*
X146840693Y-118925500D01*
X146959307Y-118925500D01*
X146959309Y-118925500D01*
X147073886Y-118894799D01*
X147073888Y-118894797D01*
X147073890Y-118894797D01*
X147176608Y-118835492D01*
X147176608Y-118835491D01*
X147176613Y-118835489D01*
X147176616Y-118835485D01*
X147177568Y-118834756D01*
X147178384Y-118834466D01*
X147182233Y-118832245D01*
X147182644Y-118832958D01*
X147235243Y-118814331D01*
X147293909Y-118831707D01*
X147307841Y-118843293D01*
X147520604Y-119056056D01*
X147548381Y-119110573D01*
X147549600Y-119126060D01*
X147549600Y-119221509D01*
X147576674Y-119322551D01*
X147580302Y-119336090D01*
X147639607Y-119438808D01*
X147639609Y-119438810D01*
X147639611Y-119438813D01*
X147723487Y-119522689D01*
X147723489Y-119522690D01*
X147723491Y-119522692D01*
X147826210Y-119581997D01*
X147826211Y-119581997D01*
X147826214Y-119581999D01*
X147940791Y-119612700D01*
X147940793Y-119612700D01*
X148059407Y-119612700D01*
X148059409Y-119612700D01*
X148173986Y-119581999D01*
X148173988Y-119581997D01*
X148173990Y-119581997D01*
X148276708Y-119522692D01*
X148276708Y-119522691D01*
X148276713Y-119522689D01*
X148360589Y-119438813D01*
X148419899Y-119336086D01*
X148450600Y-119221509D01*
X148450600Y-119102891D01*
X148419899Y-118988314D01*
X148419897Y-118988311D01*
X148419897Y-118988309D01*
X148360592Y-118885591D01*
X148360590Y-118885589D01*
X148360589Y-118885587D01*
X148276713Y-118801711D01*
X148276710Y-118801709D01*
X148276708Y-118801707D01*
X148173989Y-118742402D01*
X148173990Y-118742402D01*
X148160451Y-118738774D01*
X148059409Y-118711700D01*
X147963960Y-118711700D01*
X147905769Y-118692793D01*
X147893956Y-118682704D01*
X147702996Y-118491744D01*
X147675219Y-118437227D01*
X147674000Y-118421740D01*
X147674000Y-113735572D01*
X147692907Y-113677381D01*
X147742407Y-113641417D01*
X147794205Y-113640061D01*
X147794259Y-113639653D01*
X147796839Y-113639992D01*
X147798623Y-113639946D01*
X147800691Y-113640500D01*
X147800694Y-113640500D01*
X147919307Y-113640500D01*
X147919309Y-113640500D01*
X148021278Y-113613177D01*
X148082378Y-113616379D01*
X148129928Y-113654885D01*
X148145900Y-113708804D01*
X148145900Y-116970791D01*
X148126993Y-117028982D01*
X148116909Y-117040788D01*
X148049411Y-117108287D01*
X148049408Y-117108290D01*
X148049407Y-117108291D01*
X147990102Y-117211009D01*
X147980175Y-117248058D01*
X147959400Y-117325591D01*
X147959400Y-117444209D01*
X147977991Y-117513591D01*
X147990102Y-117558790D01*
X148049407Y-117661508D01*
X148049409Y-117661510D01*
X148049411Y-117661513D01*
X148133287Y-117745389D01*
X148133289Y-117745390D01*
X148133291Y-117745392D01*
X148236010Y-117804697D01*
X148236011Y-117804697D01*
X148236014Y-117804699D01*
X148350591Y-117835400D01*
X148350593Y-117835400D01*
X148469207Y-117835400D01*
X148469209Y-117835400D01*
X148583786Y-117804699D01*
X148583788Y-117804697D01*
X148583790Y-117804697D01*
X148686508Y-117745392D01*
X148686508Y-117745391D01*
X148686513Y-117745389D01*
X148770389Y-117661513D01*
X148804944Y-117601663D01*
X148829697Y-117558790D01*
X148829697Y-117558788D01*
X148829699Y-117558786D01*
X148860400Y-117444209D01*
X148860400Y-117325591D01*
X148829699Y-117211014D01*
X148829697Y-117211011D01*
X148829697Y-117211009D01*
X148770392Y-117108291D01*
X148770390Y-117108289D01*
X148770389Y-117108287D01*
X148702894Y-117040792D01*
X148675119Y-116986278D01*
X148673900Y-116970791D01*
X148673900Y-115459363D01*
X148692807Y-115401172D01*
X148742307Y-115365208D01*
X148798520Y-115363736D01*
X148823391Y-115370400D01*
X148823393Y-115370400D01*
X148942007Y-115370400D01*
X148942009Y-115370400D01*
X149056586Y-115339699D01*
X149056588Y-115339697D01*
X149056590Y-115339697D01*
X149159308Y-115280392D01*
X149159308Y-115280391D01*
X149159313Y-115280389D01*
X149243189Y-115196513D01*
X149284766Y-115124500D01*
X149302497Y-115093790D01*
X149302497Y-115093788D01*
X149302499Y-115093786D01*
X149333200Y-114979209D01*
X149333200Y-114860591D01*
X149302499Y-114746014D01*
X149302497Y-114746011D01*
X149302497Y-114746009D01*
X149243192Y-114643291D01*
X149243190Y-114643289D01*
X149243189Y-114643287D01*
X149175694Y-114575792D01*
X149147919Y-114521278D01*
X149146700Y-114505791D01*
X149146700Y-113714859D01*
X149165607Y-113656668D01*
X149215107Y-113620704D01*
X149271322Y-113619233D01*
X149350691Y-113640500D01*
X149350692Y-113640500D01*
X149469307Y-113640500D01*
X149469309Y-113640500D01*
X149583886Y-113609799D01*
X149583888Y-113609797D01*
X149583890Y-113609797D01*
X149686608Y-113550492D01*
X149686608Y-113550491D01*
X149686613Y-113550489D01*
X149770489Y-113466613D01*
X149829799Y-113363886D01*
X149860500Y-113249309D01*
X149860500Y-113130691D01*
X149829799Y-113016114D01*
X149829797Y-113016111D01*
X149829797Y-113016109D01*
X149790009Y-112947195D01*
X149790008Y-112947194D01*
X149770490Y-112913389D01*
X149770489Y-112913387D01*
X149758681Y-112901579D01*
X155249500Y-112901579D01*
X155249500Y-113098420D01*
X155280289Y-113292821D01*
X155341116Y-113480025D01*
X155423348Y-113641417D01*
X155430476Y-113655405D01*
X155546172Y-113814646D01*
X155685354Y-113953828D01*
X155844595Y-114069524D01*
X156019975Y-114158884D01*
X156207174Y-114219709D01*
X156207175Y-114219709D01*
X156207178Y-114219710D01*
X156401580Y-114250500D01*
X156401583Y-114250500D01*
X156598420Y-114250500D01*
X156792821Y-114219710D01*
X156792822Y-114219709D01*
X156792826Y-114219709D01*
X156980025Y-114158884D01*
X157155405Y-114069524D01*
X157314646Y-113953828D01*
X157453828Y-113814646D01*
X157569524Y-113655405D01*
X157658884Y-113480025D01*
X157719709Y-113292826D01*
X157725091Y-113258848D01*
X157750500Y-113098420D01*
X157750500Y-112901579D01*
X157719710Y-112707178D01*
X157718763Y-112704262D01*
X157658884Y-112519975D01*
X157569524Y-112344595D01*
X157453828Y-112185354D01*
X157314646Y-112046172D01*
X157155405Y-111930476D01*
X157155404Y-111930475D01*
X157155402Y-111930474D01*
X156980025Y-111841116D01*
X156792821Y-111780289D01*
X156598420Y-111749500D01*
X156598417Y-111749500D01*
X156401583Y-111749500D01*
X156401580Y-111749500D01*
X156207178Y-111780289D01*
X156019974Y-111841116D01*
X155844597Y-111930474D01*
X155685355Y-112046171D01*
X155546171Y-112185355D01*
X155430474Y-112344597D01*
X155341116Y-112519974D01*
X155280289Y-112707178D01*
X155249500Y-112901579D01*
X149758681Y-112901579D01*
X149686613Y-112829511D01*
X149686610Y-112829509D01*
X149686608Y-112829507D01*
X149583889Y-112770202D01*
X149583890Y-112770202D01*
X149536724Y-112757564D01*
X149469309Y-112739500D01*
X149350691Y-112739500D01*
X149271322Y-112760766D01*
X149210221Y-112757564D01*
X149162672Y-112719059D01*
X149146700Y-112665140D01*
X149146700Y-111477759D01*
X149165607Y-111419568D01*
X149175689Y-111407762D01*
X149290761Y-111292691D01*
X150158800Y-111292691D01*
X150158800Y-111411309D01*
X150185874Y-111512351D01*
X150189502Y-111525890D01*
X150248807Y-111628608D01*
X150248809Y-111628610D01*
X150248811Y-111628613D01*
X150332687Y-111712489D01*
X150332689Y-111712490D01*
X150332691Y-111712492D01*
X150435410Y-111771797D01*
X150435411Y-111771797D01*
X150435414Y-111771799D01*
X150549991Y-111802500D01*
X150549993Y-111802500D01*
X150668607Y-111802500D01*
X150668609Y-111802500D01*
X150783186Y-111771799D01*
X150783188Y-111771797D01*
X150783190Y-111771797D01*
X150885908Y-111712492D01*
X150885908Y-111712491D01*
X150885913Y-111712489D01*
X150969789Y-111628613D01*
X150994797Y-111585299D01*
X151029097Y-111525890D01*
X151029097Y-111525888D01*
X151029099Y-111525886D01*
X151059800Y-111411309D01*
X151059800Y-111292691D01*
X151029099Y-111178114D01*
X151029097Y-111178111D01*
X151029097Y-111178109D01*
X150969792Y-111075391D01*
X150969790Y-111075389D01*
X150969789Y-111075387D01*
X150885913Y-110991511D01*
X150885910Y-110991509D01*
X150885908Y-110991507D01*
X150783189Y-110932202D01*
X150783190Y-110932202D01*
X150769651Y-110928574D01*
X150668609Y-110901500D01*
X150549991Y-110901500D01*
X150479867Y-110920289D01*
X150435409Y-110932202D01*
X150332691Y-110991507D01*
X150248807Y-111075391D01*
X150189502Y-111178109D01*
X150177168Y-111224142D01*
X150158800Y-111292691D01*
X149290761Y-111292691D01*
X149633809Y-110949644D01*
X149644497Y-110923840D01*
X149674000Y-110852614D01*
X149674000Y-109173938D01*
X149692907Y-109115747D01*
X149742407Y-109079783D01*
X149798621Y-109078312D01*
X149844108Y-109090500D01*
X149844109Y-109090500D01*
X149975890Y-109090500D01*
X149975892Y-109090500D01*
X150103186Y-109056392D01*
X150103188Y-109056390D01*
X150103190Y-109056390D01*
X150217309Y-108990503D01*
X150217309Y-108990502D01*
X150217314Y-108990500D01*
X150310500Y-108897314D01*
X150324264Y-108873474D01*
X150369733Y-108832534D01*
X150430583Y-108826138D01*
X150483571Y-108856731D01*
X150495734Y-108873471D01*
X150509500Y-108897314D01*
X150602686Y-108990500D01*
X150602688Y-108990501D01*
X150602690Y-108990503D01*
X150716810Y-109056390D01*
X150716808Y-109056390D01*
X150716812Y-109056391D01*
X150716814Y-109056392D01*
X150844108Y-109090500D01*
X150844110Y-109090500D01*
X150975890Y-109090500D01*
X150975892Y-109090500D01*
X151103186Y-109056392D01*
X151103188Y-109056390D01*
X151103190Y-109056390D01*
X151217309Y-108990503D01*
X151217309Y-108990502D01*
X151217314Y-108990500D01*
X151310500Y-108897314D01*
X151324264Y-108873474D01*
X151369733Y-108832534D01*
X151430583Y-108826138D01*
X151483571Y-108856731D01*
X151495734Y-108873471D01*
X151509500Y-108897314D01*
X151602686Y-108990500D01*
X151602688Y-108990501D01*
X151602690Y-108990503D01*
X151716810Y-109056390D01*
X151716808Y-109056390D01*
X151716812Y-109056391D01*
X151716814Y-109056392D01*
X151844108Y-109090500D01*
X151844110Y-109090500D01*
X151975890Y-109090500D01*
X151975892Y-109090500D01*
X152103186Y-109056392D01*
X152103188Y-109056390D01*
X152103190Y-109056390D01*
X152217309Y-108990503D01*
X152217309Y-108990502D01*
X152217314Y-108990500D01*
X152310500Y-108897314D01*
X152310503Y-108897309D01*
X152376390Y-108783190D01*
X152376390Y-108783188D01*
X152376392Y-108783186D01*
X152410500Y-108655892D01*
X152410500Y-108524108D01*
X152396222Y-108470821D01*
X152399425Y-108409721D01*
X152437930Y-108362171D01*
X152491849Y-108346200D01*
X152917812Y-108346200D01*
X152917813Y-108346200D01*
X153014844Y-108306008D01*
X154290161Y-107030690D01*
X155374500Y-107030690D01*
X155374500Y-107149308D01*
X155394553Y-107224145D01*
X155405202Y-107263889D01*
X155464507Y-107366607D01*
X155464509Y-107366609D01*
X155464511Y-107366612D01*
X155548387Y-107450488D01*
X155548389Y-107450489D01*
X155548391Y-107450491D01*
X155651110Y-107509796D01*
X155651111Y-107509796D01*
X155651114Y-107509798D01*
X155765691Y-107540499D01*
X155765693Y-107540499D01*
X155884307Y-107540499D01*
X155884309Y-107540499D01*
X155998886Y-107509798D01*
X155998888Y-107509796D01*
X155998890Y-107509796D01*
X156101608Y-107450491D01*
X156101608Y-107450490D01*
X156101613Y-107450488D01*
X156185489Y-107366612D01*
X156185637Y-107366356D01*
X156244797Y-107263889D01*
X156244797Y-107263887D01*
X156244799Y-107263885D01*
X156275500Y-107149308D01*
X156275500Y-107030690D01*
X156244799Y-106916113D01*
X156244797Y-106916110D01*
X156244797Y-106916108D01*
X156185492Y-106813390D01*
X156185490Y-106813388D01*
X156185489Y-106813386D01*
X156101613Y-106729510D01*
X156101610Y-106729508D01*
X156101608Y-106729506D01*
X155998889Y-106670201D01*
X155998890Y-106670201D01*
X155985351Y-106666573D01*
X155884309Y-106639499D01*
X155765691Y-106639499D01*
X155704512Y-106655892D01*
X155651109Y-106670201D01*
X155548391Y-106729506D01*
X155464507Y-106813390D01*
X155405202Y-106916108D01*
X155402978Y-106924408D01*
X155374500Y-107030690D01*
X154290161Y-107030690D01*
X154732360Y-106588491D01*
X157098300Y-106588491D01*
X157098300Y-106707109D01*
X157124044Y-106803186D01*
X157129002Y-106821690D01*
X157188307Y-106924408D01*
X157188309Y-106924410D01*
X157188311Y-106924413D01*
X157272187Y-107008289D01*
X157272189Y-107008290D01*
X157272191Y-107008292D01*
X157374910Y-107067597D01*
X157374911Y-107067597D01*
X157374914Y-107067599D01*
X157489491Y-107098300D01*
X157489493Y-107098300D01*
X157608107Y-107098300D01*
X157608109Y-107098300D01*
X157722686Y-107067599D01*
X157722688Y-107067597D01*
X157722690Y-107067597D01*
X157825408Y-107008292D01*
X157825408Y-107008291D01*
X157825413Y-107008289D01*
X157909289Y-106924413D01*
X157928869Y-106890500D01*
X157968597Y-106821690D01*
X157968597Y-106821688D01*
X157968599Y-106821686D01*
X157999300Y-106707109D01*
X157999300Y-106611659D01*
X158018207Y-106553468D01*
X158028296Y-106541655D01*
X159039260Y-105530691D01*
X165236100Y-105530691D01*
X165236100Y-105649309D01*
X165260136Y-105739011D01*
X165266802Y-105763890D01*
X165326107Y-105866608D01*
X165326109Y-105866610D01*
X165326111Y-105866613D01*
X165393605Y-105934107D01*
X165421381Y-105988622D01*
X165422600Y-106004109D01*
X165422600Y-115134087D01*
X165422600Y-115239113D01*
X165426305Y-115248058D01*
X165462790Y-115336141D01*
X165462791Y-115336142D01*
X165462792Y-115336144D01*
X166601004Y-116474356D01*
X167673793Y-117547145D01*
X167701570Y-117601662D01*
X167695254Y-117655033D01*
X167658144Y-117744627D01*
X167624500Y-117913768D01*
X167624500Y-118086231D01*
X167658145Y-118255373D01*
X167658145Y-118255375D01*
X167724139Y-118414700D01*
X167724145Y-118414712D01*
X167775618Y-118491744D01*
X167819955Y-118558099D01*
X167941901Y-118680045D01*
X167989276Y-118711700D01*
X168085287Y-118775854D01*
X168085299Y-118775860D01*
X168130127Y-118794428D01*
X168244626Y-118841855D01*
X168413771Y-118875500D01*
X168413772Y-118875500D01*
X168586228Y-118875500D01*
X168586229Y-118875500D01*
X168755374Y-118841855D01*
X168914705Y-118775858D01*
X168914707Y-118775856D01*
X168914712Y-118775854D01*
X168964777Y-118742401D01*
X169058099Y-118680045D01*
X169180045Y-118558099D01*
X169248188Y-118456115D01*
X169275854Y-118414712D01*
X169275860Y-118414700D01*
X169341855Y-118255374D01*
X169375500Y-118086229D01*
X169375500Y-117913771D01*
X169341855Y-117744626D01*
X169307429Y-117661513D01*
X169275860Y-117585299D01*
X169275854Y-117585287D01*
X169220893Y-117503034D01*
X169180045Y-117441901D01*
X169058099Y-117319955D01*
X169017249Y-117292660D01*
X168914712Y-117224145D01*
X168914700Y-117224139D01*
X168755374Y-117158145D01*
X168586231Y-117124500D01*
X168586229Y-117124500D01*
X168413771Y-117124500D01*
X168413768Y-117124500D01*
X168244627Y-117158144D01*
X168155033Y-117195254D01*
X168094036Y-117200053D01*
X168047145Y-117173793D01*
X165979596Y-115106244D01*
X165951819Y-115051727D01*
X165950600Y-115036240D01*
X165950600Y-114062960D01*
X165969507Y-114004769D01*
X166019007Y-113968805D01*
X166080193Y-113968805D01*
X166119603Y-113992955D01*
X166902501Y-114775854D01*
X167673793Y-115547146D01*
X167701570Y-115601663D01*
X167695254Y-115655034D01*
X167658144Y-115744627D01*
X167624500Y-115913768D01*
X167624500Y-116086231D01*
X167658145Y-116255373D01*
X167658145Y-116255375D01*
X167724139Y-116414700D01*
X167724145Y-116414712D01*
X167792660Y-116517249D01*
X167819955Y-116558099D01*
X167941901Y-116680045D01*
X168003034Y-116720893D01*
X168085287Y-116775854D01*
X168085299Y-116775860D01*
X168144153Y-116800238D01*
X168244626Y-116841855D01*
X168413771Y-116875500D01*
X168413772Y-116875500D01*
X168586228Y-116875500D01*
X168586229Y-116875500D01*
X168755374Y-116841855D01*
X168914705Y-116775858D01*
X168914707Y-116775856D01*
X168914712Y-116775854D01*
X168956115Y-116748188D01*
X169058099Y-116680045D01*
X169066994Y-116671150D01*
X169121509Y-116643370D01*
X169181941Y-116652940D01*
X169225208Y-116696202D01*
X169236000Y-116741151D01*
X169236000Y-117052512D01*
X169276191Y-117149543D01*
X169673794Y-117547147D01*
X169701571Y-117601663D01*
X169695254Y-117655035D01*
X169658145Y-117744624D01*
X169658145Y-117744626D01*
X169624500Y-117913768D01*
X169624500Y-118086231D01*
X169658145Y-118255373D01*
X169658145Y-118255375D01*
X169724139Y-118414700D01*
X169724145Y-118414712D01*
X169775618Y-118491744D01*
X169819955Y-118558099D01*
X169941901Y-118680045D01*
X169989276Y-118711700D01*
X170085287Y-118775854D01*
X170085299Y-118775860D01*
X170130127Y-118794428D01*
X170244626Y-118841855D01*
X170413771Y-118875500D01*
X170413772Y-118875500D01*
X170586228Y-118875500D01*
X170586229Y-118875500D01*
X170755374Y-118841855D01*
X170914705Y-118775858D01*
X170914707Y-118775856D01*
X170914712Y-118775854D01*
X170964777Y-118742401D01*
X171058099Y-118680045D01*
X171180045Y-118558099D01*
X171248188Y-118456115D01*
X171275854Y-118414712D01*
X171275860Y-118414700D01*
X171341855Y-118255374D01*
X171375500Y-118086229D01*
X171375500Y-117913771D01*
X171341855Y-117744626D01*
X171307429Y-117661513D01*
X171275860Y-117585299D01*
X171275854Y-117585287D01*
X171220893Y-117503034D01*
X171180045Y-117441901D01*
X171058099Y-117319955D01*
X171017249Y-117292660D01*
X170914712Y-117224145D01*
X170914700Y-117224139D01*
X170755374Y-117158145D01*
X170586231Y-117124500D01*
X170586229Y-117124500D01*
X170413771Y-117124500D01*
X170413768Y-117124500D01*
X170244627Y-117158144D01*
X170155034Y-117195254D01*
X170094037Y-117200053D01*
X170047146Y-117173793D01*
X169792996Y-116919643D01*
X169765219Y-116865126D01*
X169764000Y-116849639D01*
X169764000Y-116741151D01*
X169782907Y-116682960D01*
X169832407Y-116646996D01*
X169893593Y-116646996D01*
X169933006Y-116671150D01*
X169941893Y-116680038D01*
X169941897Y-116680041D01*
X169941901Y-116680045D01*
X170003034Y-116720893D01*
X170085287Y-116775854D01*
X170085299Y-116775860D01*
X170144153Y-116800238D01*
X170244626Y-116841855D01*
X170413771Y-116875500D01*
X170413772Y-116875500D01*
X170586228Y-116875500D01*
X170586229Y-116875500D01*
X170755374Y-116841855D01*
X170914705Y-116775858D01*
X170914707Y-116775856D01*
X170914712Y-116775854D01*
X170956115Y-116748188D01*
X171058099Y-116680045D01*
X171180045Y-116558099D01*
X171248188Y-116456115D01*
X171275854Y-116414712D01*
X171275860Y-116414700D01*
X171341855Y-116255374D01*
X171375500Y-116086229D01*
X171375500Y-115913771D01*
X171341855Y-115744626D01*
X171304744Y-115655033D01*
X171299944Y-115594038D01*
X171326206Y-115547145D01*
X171431454Y-115441897D01*
X171638808Y-115234544D01*
X171638809Y-115234542D01*
X171654561Y-115196514D01*
X171654561Y-115196513D01*
X171654563Y-115196508D01*
X171679000Y-115137513D01*
X171679000Y-105414109D01*
X171697907Y-105355918D01*
X171707990Y-105344111D01*
X171775489Y-105276613D01*
X171791403Y-105249050D01*
X171834797Y-105173890D01*
X171834797Y-105173888D01*
X171834799Y-105173886D01*
X171865500Y-105059309D01*
X171865500Y-104940691D01*
X171834799Y-104826114D01*
X171834797Y-104826111D01*
X171834797Y-104826109D01*
X171775492Y-104723391D01*
X171775490Y-104723389D01*
X171775489Y-104723387D01*
X171691613Y-104639511D01*
X171691610Y-104639509D01*
X171691608Y-104639507D01*
X171588889Y-104580202D01*
X171588890Y-104580202D01*
X171575351Y-104576574D01*
X171474309Y-104549500D01*
X171368188Y-104549500D01*
X171309997Y-104530593D01*
X171274033Y-104481093D01*
X171274033Y-104419907D01*
X171276724Y-104412615D01*
X171314316Y-104321858D01*
X171341855Y-104255374D01*
X171375500Y-104086229D01*
X171375500Y-103913771D01*
X171341855Y-103744626D01*
X171305099Y-103655890D01*
X171275860Y-103585299D01*
X171275854Y-103585287D01*
X171220893Y-103503034D01*
X171180045Y-103441901D01*
X171058099Y-103319955D01*
X171002322Y-103282686D01*
X170914712Y-103224145D01*
X170914700Y-103224139D01*
X170755374Y-103158145D01*
X170586231Y-103124500D01*
X170586229Y-103124500D01*
X170413771Y-103124500D01*
X170413768Y-103124500D01*
X170244626Y-103158145D01*
X170244624Y-103158145D01*
X170085299Y-103224139D01*
X170085287Y-103224145D01*
X169941901Y-103319955D01*
X169941897Y-103319958D01*
X169821304Y-103440552D01*
X169766787Y-103468329D01*
X169706355Y-103458758D01*
X169663090Y-103415493D01*
X169652300Y-103370548D01*
X169652300Y-103262058D01*
X169671207Y-103203867D01*
X169681284Y-103192067D01*
X170047147Y-102826203D01*
X170101662Y-102798428D01*
X170155033Y-102804744D01*
X170244626Y-102841855D01*
X170413771Y-102875500D01*
X170413772Y-102875500D01*
X170586228Y-102875500D01*
X170586229Y-102875500D01*
X170755374Y-102841855D01*
X170914705Y-102775858D01*
X170914707Y-102775856D01*
X170914712Y-102775854D01*
X170956115Y-102748188D01*
X171058099Y-102680045D01*
X171180045Y-102558099D01*
X171250369Y-102452852D01*
X171275854Y-102414712D01*
X171275860Y-102414700D01*
X171301061Y-102353860D01*
X171341855Y-102255374D01*
X171375500Y-102086229D01*
X171375500Y-101913771D01*
X171341855Y-101744626D01*
X171275858Y-101585295D01*
X171275854Y-101585287D01*
X171220893Y-101503034D01*
X171180045Y-101441901D01*
X171058099Y-101319955D01*
X171002322Y-101282686D01*
X170914712Y-101224145D01*
X170914700Y-101224139D01*
X170755374Y-101158145D01*
X170586231Y-101124500D01*
X170586229Y-101124500D01*
X170413771Y-101124500D01*
X170413768Y-101124500D01*
X170244626Y-101158145D01*
X170244624Y-101158145D01*
X170085299Y-101224139D01*
X170085287Y-101224145D01*
X169941901Y-101319955D01*
X169941897Y-101319958D01*
X169819958Y-101441897D01*
X169819955Y-101441901D01*
X169724145Y-101585287D01*
X169724139Y-101585299D01*
X169658145Y-101744624D01*
X169658145Y-101744626D01*
X169624500Y-101913768D01*
X169624500Y-102086231D01*
X169658145Y-102255373D01*
X169658145Y-102255375D01*
X169695254Y-102344964D01*
X169700055Y-102405960D01*
X169673794Y-102452852D01*
X169238756Y-102887891D01*
X169164491Y-102962156D01*
X169124300Y-103059187D01*
X169124300Y-103178972D01*
X169105393Y-103237163D01*
X169055893Y-103273127D01*
X168994707Y-103273127D01*
X168970299Y-103261288D01*
X168914709Y-103224144D01*
X168914700Y-103224139D01*
X168755374Y-103158145D01*
X168586231Y-103124500D01*
X168586229Y-103124500D01*
X168413771Y-103124500D01*
X168413768Y-103124500D01*
X168244626Y-103158145D01*
X168244624Y-103158145D01*
X168085299Y-103224139D01*
X168085287Y-103224145D01*
X167941901Y-103319955D01*
X167941897Y-103319958D01*
X167819958Y-103441897D01*
X167819955Y-103441901D01*
X167727315Y-103580545D01*
X167679265Y-103618424D01*
X167618127Y-103620826D01*
X167567253Y-103586833D01*
X167546076Y-103529429D01*
X167546000Y-103525543D01*
X167546000Y-103268886D01*
X167508636Y-103178681D01*
X167501100Y-103140796D01*
X167501100Y-103030692D01*
X167494019Y-103004264D01*
X167470399Y-102916114D01*
X167470397Y-102916111D01*
X167470397Y-102916109D01*
X167411092Y-102813391D01*
X167411090Y-102813389D01*
X167411089Y-102813387D01*
X167327213Y-102729511D01*
X167327210Y-102729509D01*
X167327208Y-102729507D01*
X167224489Y-102670202D01*
X167224490Y-102670202D01*
X167171084Y-102655892D01*
X167109909Y-102639500D01*
X166991291Y-102639500D01*
X166930123Y-102655890D01*
X166876709Y-102670202D01*
X166773991Y-102729507D01*
X166690107Y-102813391D01*
X166630802Y-102916109D01*
X166630801Y-102916114D01*
X166600100Y-103030691D01*
X166600100Y-103149309D01*
X166621215Y-103228109D01*
X166630802Y-103263890D01*
X166690107Y-103366608D01*
X166690109Y-103366610D01*
X166690111Y-103366613D01*
X166773987Y-103450489D01*
X166773989Y-103450490D01*
X166773991Y-103450492D01*
X166876710Y-103509797D01*
X166876711Y-103509797D01*
X166876714Y-103509799D01*
X166944624Y-103527995D01*
X166995937Y-103561318D01*
X167017864Y-103618439D01*
X167018000Y-103623621D01*
X167018000Y-104320310D01*
X166999093Y-104378501D01*
X166949593Y-104414465D01*
X166893379Y-104415937D01*
X166883911Y-104413400D01*
X166883909Y-104413400D01*
X166765291Y-104413400D01*
X166703045Y-104430079D01*
X166650709Y-104444102D01*
X166547991Y-104503407D01*
X166464107Y-104587291D01*
X166404802Y-104690009D01*
X166394219Y-104729507D01*
X166379836Y-104783186D01*
X166374100Y-104804592D01*
X166374100Y-104900040D01*
X166355193Y-104958231D01*
X166345109Y-104970037D01*
X166198209Y-105116939D01*
X166093875Y-105221273D01*
X166039358Y-105249050D01*
X165978926Y-105239479D01*
X165963599Y-105229807D01*
X165963210Y-105229508D01*
X165860490Y-105170202D01*
X165835746Y-105163572D01*
X165745909Y-105139500D01*
X165627291Y-105139500D01*
X165590684Y-105149309D01*
X165512709Y-105170202D01*
X165409991Y-105229507D01*
X165326107Y-105313391D01*
X165266802Y-105416109D01*
X165252810Y-105468329D01*
X165236100Y-105530691D01*
X159039260Y-105530691D01*
X159115753Y-105454198D01*
X160330308Y-104239644D01*
X162656185Y-101913768D01*
X167624500Y-101913768D01*
X167624500Y-102086231D01*
X167658145Y-102255373D01*
X167658145Y-102255375D01*
X167724139Y-102414700D01*
X167724145Y-102414712D01*
X167792660Y-102517249D01*
X167819955Y-102558099D01*
X167941901Y-102680045D01*
X168000135Y-102718956D01*
X168085287Y-102775854D01*
X168085299Y-102775860D01*
X168139784Y-102798428D01*
X168244626Y-102841855D01*
X168413771Y-102875500D01*
X168413772Y-102875500D01*
X168586228Y-102875500D01*
X168586229Y-102875500D01*
X168755374Y-102841855D01*
X168914705Y-102775858D01*
X168914707Y-102775856D01*
X168914712Y-102775854D01*
X168956115Y-102748188D01*
X169058099Y-102680045D01*
X169180045Y-102558099D01*
X169250369Y-102452852D01*
X169275854Y-102414712D01*
X169275860Y-102414700D01*
X169301061Y-102353860D01*
X169341855Y-102255374D01*
X169375500Y-102086229D01*
X169375500Y-101913771D01*
X169341855Y-101744626D01*
X169275858Y-101585295D01*
X169275854Y-101585287D01*
X169220893Y-101503034D01*
X169180045Y-101441901D01*
X169058099Y-101319955D01*
X169002322Y-101282686D01*
X168914712Y-101224145D01*
X168914700Y-101224139D01*
X168755374Y-101158145D01*
X168586231Y-101124500D01*
X168586229Y-101124500D01*
X168413771Y-101124500D01*
X168413768Y-101124500D01*
X168244626Y-101158145D01*
X168244624Y-101158145D01*
X168085299Y-101224139D01*
X168085287Y-101224145D01*
X167941901Y-101319955D01*
X167941897Y-101319958D01*
X167819958Y-101441897D01*
X167819955Y-101441901D01*
X167724145Y-101585287D01*
X167724139Y-101585299D01*
X167658145Y-101744624D01*
X167658145Y-101744626D01*
X167624500Y-101913768D01*
X162656185Y-101913768D01*
X164656185Y-99913768D01*
X167624500Y-99913768D01*
X167624500Y-100086231D01*
X167658145Y-100255373D01*
X167658145Y-100255375D01*
X167724139Y-100414700D01*
X167724145Y-100414712D01*
X167788210Y-100510589D01*
X167819955Y-100558099D01*
X167941901Y-100680045D01*
X168003034Y-100720893D01*
X168085287Y-100775854D01*
X168085299Y-100775860D01*
X168144153Y-100800238D01*
X168244626Y-100841855D01*
X168413771Y-100875500D01*
X168413772Y-100875500D01*
X168586228Y-100875500D01*
X168586229Y-100875500D01*
X168755374Y-100841855D01*
X168914705Y-100775858D01*
X168914707Y-100775856D01*
X168914712Y-100775854D01*
X168956115Y-100748188D01*
X169058099Y-100680045D01*
X169180045Y-100558099D01*
X169249220Y-100454571D01*
X169275854Y-100414712D01*
X169275860Y-100414700D01*
X169299172Y-100358419D01*
X169341855Y-100255374D01*
X169375500Y-100086229D01*
X169375500Y-99913771D01*
X169375499Y-99913768D01*
X169624500Y-99913768D01*
X169624500Y-100086231D01*
X169658145Y-100255373D01*
X169658145Y-100255375D01*
X169724139Y-100414700D01*
X169724145Y-100414712D01*
X169788210Y-100510589D01*
X169819955Y-100558099D01*
X169941901Y-100680045D01*
X170003034Y-100720893D01*
X170085287Y-100775854D01*
X170085299Y-100775860D01*
X170144153Y-100800238D01*
X170244626Y-100841855D01*
X170413771Y-100875500D01*
X170413772Y-100875500D01*
X170586228Y-100875500D01*
X170586229Y-100875500D01*
X170755374Y-100841855D01*
X170914705Y-100775858D01*
X170914707Y-100775856D01*
X170914712Y-100775854D01*
X170956115Y-100748188D01*
X171058099Y-100680045D01*
X171180045Y-100558099D01*
X171249220Y-100454571D01*
X171275854Y-100414712D01*
X171275860Y-100414700D01*
X171299172Y-100358419D01*
X171341855Y-100255374D01*
X171375500Y-100086229D01*
X171375500Y-99913771D01*
X171341855Y-99744626D01*
X171293558Y-99628027D01*
X171275860Y-99585299D01*
X171275854Y-99585287D01*
X171211009Y-99488242D01*
X171180045Y-99441901D01*
X171058099Y-99319955D01*
X171017249Y-99292660D01*
X170914712Y-99224145D01*
X170914700Y-99224139D01*
X170755374Y-99158145D01*
X170586231Y-99124500D01*
X170586229Y-99124500D01*
X170413771Y-99124500D01*
X170413768Y-99124500D01*
X170244626Y-99158145D01*
X170244624Y-99158145D01*
X170085299Y-99224139D01*
X170085287Y-99224145D01*
X169941901Y-99319955D01*
X169941897Y-99319958D01*
X169819958Y-99441897D01*
X169819955Y-99441901D01*
X169724145Y-99585287D01*
X169724139Y-99585299D01*
X169658145Y-99744624D01*
X169658145Y-99744626D01*
X169624500Y-99913768D01*
X169375499Y-99913768D01*
X169341855Y-99744626D01*
X169293558Y-99628027D01*
X169275860Y-99585299D01*
X169275854Y-99585287D01*
X169211009Y-99488242D01*
X169180045Y-99441901D01*
X169058099Y-99319955D01*
X169017249Y-99292660D01*
X168914712Y-99224145D01*
X168914700Y-99224139D01*
X168755374Y-99158145D01*
X168586231Y-99124500D01*
X168586229Y-99124500D01*
X168413771Y-99124500D01*
X168413768Y-99124500D01*
X168244626Y-99158145D01*
X168244624Y-99158145D01*
X168085299Y-99224139D01*
X168085287Y-99224145D01*
X167941901Y-99319955D01*
X167941897Y-99319958D01*
X167819958Y-99441897D01*
X167819955Y-99441901D01*
X167724145Y-99585287D01*
X167724139Y-99585299D01*
X167658145Y-99744624D01*
X167658145Y-99744626D01*
X167624500Y-99913768D01*
X164656185Y-99913768D01*
X167276957Y-97292996D01*
X167331474Y-97265219D01*
X167346961Y-97264000D01*
X167758848Y-97264000D01*
X167817039Y-97282907D01*
X167853003Y-97332407D01*
X167853003Y-97393593D01*
X167828852Y-97433004D01*
X167819958Y-97441897D01*
X167819955Y-97441901D01*
X167724145Y-97585287D01*
X167724139Y-97585299D01*
X167658145Y-97744624D01*
X167658145Y-97744626D01*
X167624500Y-97913768D01*
X167624500Y-98086231D01*
X167658145Y-98255373D01*
X167658145Y-98255375D01*
X167724139Y-98414700D01*
X167724145Y-98414712D01*
X167792660Y-98517249D01*
X167819955Y-98558099D01*
X167941901Y-98680045D01*
X168003034Y-98720893D01*
X168085287Y-98775854D01*
X168085299Y-98775860D01*
X168143444Y-98799944D01*
X168244626Y-98841855D01*
X168413771Y-98875500D01*
X168413772Y-98875500D01*
X168586228Y-98875500D01*
X168586229Y-98875500D01*
X168755374Y-98841855D01*
X168914705Y-98775858D01*
X168914707Y-98775856D01*
X168914712Y-98775854D01*
X168965215Y-98742108D01*
X169058099Y-98680045D01*
X169180045Y-98558099D01*
X169250368Y-98452853D01*
X169275854Y-98414712D01*
X169275860Y-98414700D01*
X169304746Y-98344963D01*
X169341855Y-98255374D01*
X169375500Y-98086229D01*
X169375500Y-97913771D01*
X169375499Y-97913768D01*
X169624500Y-97913768D01*
X169624500Y-98086231D01*
X169658145Y-98255373D01*
X169658145Y-98255375D01*
X169724139Y-98414700D01*
X169724145Y-98414712D01*
X169792660Y-98517249D01*
X169819955Y-98558099D01*
X169941901Y-98680045D01*
X170003034Y-98720893D01*
X170085287Y-98775854D01*
X170085299Y-98775860D01*
X170143444Y-98799944D01*
X170244626Y-98841855D01*
X170413771Y-98875500D01*
X170413772Y-98875500D01*
X170586228Y-98875500D01*
X170586229Y-98875500D01*
X170755374Y-98841855D01*
X170914705Y-98775858D01*
X170914707Y-98775856D01*
X170914712Y-98775854D01*
X170965215Y-98742108D01*
X171058099Y-98680045D01*
X171180045Y-98558099D01*
X171250368Y-98452853D01*
X171275854Y-98414712D01*
X171275860Y-98414700D01*
X171304746Y-98344963D01*
X171341855Y-98255374D01*
X171375500Y-98086229D01*
X171375500Y-97913771D01*
X171341855Y-97744626D01*
X171319856Y-97691515D01*
X171275860Y-97585299D01*
X171275854Y-97585287D01*
X171220893Y-97503034D01*
X171180045Y-97441901D01*
X171058099Y-97319955D01*
X171002653Y-97282907D01*
X170914712Y-97224145D01*
X170914700Y-97224139D01*
X170755374Y-97158145D01*
X170586231Y-97124500D01*
X170586229Y-97124500D01*
X170413771Y-97124500D01*
X170413768Y-97124500D01*
X170244626Y-97158145D01*
X170244624Y-97158145D01*
X170085299Y-97224139D01*
X170085287Y-97224145D01*
X169941901Y-97319955D01*
X169941897Y-97319958D01*
X169819958Y-97441897D01*
X169819955Y-97441901D01*
X169724145Y-97585287D01*
X169724139Y-97585299D01*
X169658145Y-97744624D01*
X169658145Y-97744626D01*
X169624500Y-97913768D01*
X169375499Y-97913768D01*
X169341855Y-97744626D01*
X169319856Y-97691515D01*
X169275860Y-97585299D01*
X169275854Y-97585287D01*
X169220893Y-97503034D01*
X169180045Y-97441901D01*
X169171148Y-97433004D01*
X169143371Y-97378487D01*
X169152942Y-97318055D01*
X169196207Y-97274790D01*
X169241152Y-97264000D01*
X169552512Y-97264000D01*
X169552513Y-97264000D01*
X169649544Y-97223808D01*
X170047148Y-96826203D01*
X170101663Y-96798428D01*
X170155033Y-96804744D01*
X170244626Y-96841855D01*
X170413771Y-96875500D01*
X170413772Y-96875500D01*
X170586228Y-96875500D01*
X170586229Y-96875500D01*
X170755374Y-96841855D01*
X170914705Y-96775858D01*
X170914707Y-96775856D01*
X170914712Y-96775854D01*
X170964328Y-96742701D01*
X171058099Y-96680045D01*
X171180045Y-96558099D01*
X171250369Y-96452852D01*
X171275854Y-96414712D01*
X171275860Y-96414700D01*
X171293465Y-96372198D01*
X171341855Y-96255374D01*
X171375500Y-96086229D01*
X171375500Y-95913771D01*
X171341855Y-95744626D01*
X171275858Y-95585295D01*
X171275854Y-95585287D01*
X171220893Y-95503034D01*
X171180045Y-95441901D01*
X171058099Y-95319955D01*
X171017249Y-95292660D01*
X170914712Y-95224145D01*
X170914700Y-95224139D01*
X170755374Y-95158145D01*
X170586231Y-95124500D01*
X170586229Y-95124500D01*
X170413771Y-95124500D01*
X170413768Y-95124500D01*
X170244626Y-95158145D01*
X170244624Y-95158145D01*
X170085299Y-95224139D01*
X170085287Y-95224145D01*
X169941901Y-95319955D01*
X169941897Y-95319958D01*
X169819958Y-95441897D01*
X169819955Y-95441901D01*
X169724145Y-95585287D01*
X169724139Y-95585299D01*
X169658145Y-95744624D01*
X169658145Y-95744626D01*
X169624500Y-95913768D01*
X169624500Y-96086231D01*
X169658145Y-96255373D01*
X169658145Y-96255375D01*
X169695254Y-96344964D01*
X169700055Y-96405960D01*
X169673794Y-96452852D01*
X169419645Y-96707003D01*
X169365128Y-96734781D01*
X169349641Y-96736000D01*
X169241152Y-96736000D01*
X169182961Y-96717093D01*
X169146997Y-96667593D01*
X169146997Y-96606407D01*
X169171148Y-96566996D01*
X169180045Y-96558099D01*
X169250369Y-96452852D01*
X169275854Y-96414712D01*
X169275860Y-96414700D01*
X169293465Y-96372198D01*
X169341855Y-96255374D01*
X169375500Y-96086229D01*
X169375500Y-95913771D01*
X169341855Y-95744626D01*
X169275858Y-95585295D01*
X169275854Y-95585287D01*
X169220893Y-95503034D01*
X169180045Y-95441901D01*
X169058099Y-95319955D01*
X169017249Y-95292660D01*
X168914712Y-95224145D01*
X168914700Y-95224139D01*
X168755374Y-95158145D01*
X168586231Y-95124500D01*
X168586229Y-95124500D01*
X168413771Y-95124500D01*
X168413768Y-95124500D01*
X168244626Y-95158145D01*
X168244624Y-95158145D01*
X168085299Y-95224139D01*
X168085287Y-95224145D01*
X167941901Y-95319955D01*
X167941897Y-95319958D01*
X167819958Y-95441897D01*
X167819955Y-95441901D01*
X167724145Y-95585287D01*
X167724139Y-95585299D01*
X167658145Y-95744624D01*
X167658145Y-95744626D01*
X167624500Y-95913768D01*
X167624500Y-96086231D01*
X167658145Y-96255373D01*
X167658145Y-96255375D01*
X167724139Y-96414700D01*
X167724145Y-96414712D01*
X167789291Y-96512207D01*
X167819955Y-96558099D01*
X167819958Y-96558102D01*
X167828852Y-96566996D01*
X167856629Y-96621513D01*
X167847058Y-96681945D01*
X167803793Y-96725210D01*
X167758848Y-96736000D01*
X167144087Y-96736000D01*
X167133884Y-96740226D01*
X167127907Y-96742702D01*
X167127906Y-96742701D01*
X167047058Y-96776189D01*
X157654943Y-106168304D01*
X157600426Y-106196081D01*
X157584939Y-106197300D01*
X157489491Y-106197300D01*
X157419367Y-106216089D01*
X157374909Y-106228002D01*
X157272191Y-106287307D01*
X157188307Y-106371191D01*
X157129002Y-106473909D01*
X157118557Y-106512892D01*
X157098300Y-106588491D01*
X154732360Y-106588491D01*
X156479855Y-104840995D01*
X156534372Y-104813219D01*
X156549859Y-104812000D01*
X156645307Y-104812000D01*
X156645309Y-104812000D01*
X156759886Y-104781299D01*
X156759888Y-104781297D01*
X156759890Y-104781297D01*
X156862608Y-104721992D01*
X156862608Y-104721991D01*
X156862613Y-104721989D01*
X156946489Y-104638113D01*
X156949069Y-104633644D01*
X157005797Y-104535390D01*
X157005797Y-104535388D01*
X157005799Y-104535386D01*
X157036500Y-104420809D01*
X157036500Y-104302191D01*
X157005799Y-104187614D01*
X157005797Y-104187611D01*
X157005797Y-104187609D01*
X156946492Y-104084891D01*
X156946490Y-104084889D01*
X156946489Y-104084887D01*
X156862613Y-104001011D01*
X156862610Y-104001009D01*
X156862608Y-104001007D01*
X156759889Y-103941702D01*
X156759890Y-103941702D01*
X156746351Y-103938074D01*
X156645309Y-103911000D01*
X156526691Y-103911000D01*
X156425648Y-103938074D01*
X156412110Y-103941702D01*
X156383405Y-103958275D01*
X156323556Y-103970996D01*
X156267661Y-103946108D01*
X156249754Y-103920745D01*
X156248044Y-103921733D01*
X156185492Y-103813391D01*
X156185490Y-103813389D01*
X156185489Y-103813387D01*
X156101613Y-103729511D01*
X156101610Y-103729509D01*
X156101608Y-103729507D01*
X155998889Y-103670202D01*
X155998890Y-103670202D01*
X155945484Y-103655892D01*
X155884309Y-103639500D01*
X155765691Y-103639500D01*
X155704523Y-103655890D01*
X155651109Y-103670202D01*
X155548391Y-103729507D01*
X155464507Y-103813391D01*
X155405202Y-103916109D01*
X155397164Y-103946108D01*
X155374500Y-104030691D01*
X155374500Y-104149309D01*
X155395106Y-104226212D01*
X155405202Y-104263890D01*
X155464507Y-104366608D01*
X155464509Y-104366610D01*
X155464511Y-104366613D01*
X155548387Y-104450489D01*
X155548389Y-104450490D01*
X155548391Y-104450492D01*
X155651110Y-104509797D01*
X155651111Y-104509797D01*
X155651114Y-104509799D01*
X155765691Y-104540500D01*
X155765693Y-104540500D01*
X155794639Y-104540500D01*
X155852830Y-104559407D01*
X155888794Y-104608907D01*
X155888794Y-104670093D01*
X155864643Y-104709504D01*
X152784944Y-107789204D01*
X152730427Y-107816981D01*
X152714940Y-107818200D01*
X152496029Y-107818200D01*
X152437838Y-107799293D01*
X152401874Y-107749793D01*
X152400402Y-107693577D01*
X152410500Y-107655892D01*
X152410500Y-107524108D01*
X152376392Y-107396814D01*
X152376390Y-107396811D01*
X152376390Y-107396809D01*
X152310503Y-107282690D01*
X152310501Y-107282688D01*
X152310500Y-107282686D01*
X152217314Y-107189500D01*
X152193474Y-107175735D01*
X152152534Y-107130267D01*
X152146138Y-107069417D01*
X152176731Y-107016429D01*
X152193474Y-107004264D01*
X152217314Y-106990500D01*
X152288319Y-106919494D01*
X152342834Y-106891719D01*
X152358321Y-106890500D01*
X153222663Y-106890500D01*
X153222663Y-106890499D01*
X153299089Y-106870021D01*
X153367611Y-106830460D01*
X153403918Y-106794153D01*
X153423561Y-106774511D01*
X153685182Y-106512889D01*
X153785160Y-106412911D01*
X153809250Y-106371187D01*
X153824720Y-106344392D01*
X153824720Y-106344390D01*
X153824722Y-106344388D01*
X153845200Y-106267962D01*
X153845200Y-106188838D01*
X153845200Y-100655538D01*
X153834226Y-100614584D01*
X153824723Y-100579115D01*
X153786629Y-100513134D01*
X153785450Y-100510942D01*
X153785268Y-100510697D01*
X153729216Y-100454644D01*
X153729210Y-100454639D01*
X153205514Y-99930931D01*
X150176234Y-96901579D01*
X154249500Y-96901579D01*
X154249500Y-97098420D01*
X154280289Y-97292821D01*
X154308124Y-97378487D01*
X154341116Y-97480025D01*
X154430476Y-97655405D01*
X154546172Y-97814646D01*
X154685354Y-97953828D01*
X154844595Y-98069524D01*
X155019975Y-98158884D01*
X155207174Y-98219709D01*
X155207175Y-98219709D01*
X155207178Y-98219710D01*
X155401580Y-98250500D01*
X155401583Y-98250500D01*
X155598420Y-98250500D01*
X155792821Y-98219710D01*
X155792822Y-98219709D01*
X155792826Y-98219709D01*
X155980025Y-98158884D01*
X156155405Y-98069524D01*
X156314646Y-97953828D01*
X156453828Y-97814646D01*
X156569524Y-97655405D01*
X156658884Y-97480025D01*
X156719709Y-97292826D01*
X156722566Y-97274790D01*
X156750500Y-97098420D01*
X156750500Y-96901579D01*
X156719710Y-96707178D01*
X156719653Y-96707003D01*
X156658884Y-96519975D01*
X156569524Y-96344595D01*
X156453828Y-96185354D01*
X156314646Y-96046172D01*
X156155405Y-95930476D01*
X156155404Y-95930475D01*
X156155402Y-95930474D01*
X155980025Y-95841116D01*
X155792821Y-95780289D01*
X155598420Y-95749500D01*
X155598417Y-95749500D01*
X155401583Y-95749500D01*
X155401580Y-95749500D01*
X155207178Y-95780289D01*
X155019974Y-95841116D01*
X154844597Y-95930474D01*
X154685355Y-96046171D01*
X154546171Y-96185355D01*
X154430474Y-96344597D01*
X154341116Y-96519974D01*
X154280289Y-96707178D01*
X154249500Y-96901579D01*
X150176234Y-96901579D01*
X149689366Y-96414700D01*
X149540512Y-96265842D01*
X149540504Y-96265832D01*
X149532357Y-96257685D01*
X149506455Y-96231784D01*
X149476414Y-96201742D01*
X149476410Y-96201739D01*
X149472956Y-96198285D01*
X149472947Y-96198277D01*
X147253502Y-93978912D01*
X147188356Y-93913768D01*
X167624500Y-93913768D01*
X167624500Y-94086231D01*
X167658145Y-94255373D01*
X167658145Y-94255375D01*
X167724139Y-94414700D01*
X167724145Y-94414712D01*
X167792660Y-94517249D01*
X167819955Y-94558099D01*
X167941901Y-94680045D01*
X168003034Y-94720893D01*
X168085287Y-94775854D01*
X168085299Y-94775860D01*
X168144153Y-94800238D01*
X168244626Y-94841855D01*
X168413771Y-94875500D01*
X168413772Y-94875500D01*
X168586228Y-94875500D01*
X168586229Y-94875500D01*
X168755374Y-94841855D01*
X168914705Y-94775858D01*
X168914707Y-94775856D01*
X168914712Y-94775854D01*
X168956115Y-94748188D01*
X169058099Y-94680045D01*
X169180045Y-94558099D01*
X169248188Y-94456115D01*
X169275854Y-94414712D01*
X169275860Y-94414700D01*
X169341855Y-94255374D01*
X169375500Y-94086229D01*
X169375500Y-93913771D01*
X169375499Y-93913768D01*
X169624500Y-93913768D01*
X169624500Y-94086231D01*
X169658145Y-94255373D01*
X169658145Y-94255375D01*
X169724139Y-94414700D01*
X169724145Y-94414712D01*
X169792660Y-94517249D01*
X169819955Y-94558099D01*
X169941901Y-94680045D01*
X170003034Y-94720893D01*
X170085287Y-94775854D01*
X170085299Y-94775860D01*
X170144153Y-94800238D01*
X170244626Y-94841855D01*
X170413771Y-94875500D01*
X170413772Y-94875500D01*
X170586228Y-94875500D01*
X170586229Y-94875500D01*
X170755374Y-94841855D01*
X170914705Y-94775858D01*
X170914707Y-94775856D01*
X170914712Y-94775854D01*
X170956115Y-94748188D01*
X171058099Y-94680045D01*
X171180045Y-94558099D01*
X171248188Y-94456115D01*
X171275854Y-94414712D01*
X171275860Y-94414700D01*
X171341855Y-94255374D01*
X171375500Y-94086229D01*
X171375500Y-93913771D01*
X171341855Y-93744626D01*
X171296165Y-93634320D01*
X171275860Y-93585299D01*
X171275854Y-93585287D01*
X171220893Y-93503034D01*
X171180045Y-93441901D01*
X171058099Y-93319955D01*
X171017249Y-93292660D01*
X170914712Y-93224145D01*
X170914700Y-93224139D01*
X170755374Y-93158145D01*
X170586231Y-93124500D01*
X170586229Y-93124500D01*
X170413771Y-93124500D01*
X170413768Y-93124500D01*
X170244626Y-93158145D01*
X170244624Y-93158145D01*
X170085299Y-93224139D01*
X170085287Y-93224145D01*
X169941901Y-93319955D01*
X169941897Y-93319958D01*
X169819958Y-93441897D01*
X169819955Y-93441901D01*
X169724145Y-93585287D01*
X169724139Y-93585299D01*
X169658145Y-93744624D01*
X169658145Y-93744626D01*
X169624500Y-93913768D01*
X169375499Y-93913768D01*
X169341855Y-93744626D01*
X169296165Y-93634320D01*
X169275860Y-93585299D01*
X169275854Y-93585287D01*
X169220893Y-93503034D01*
X169180045Y-93441901D01*
X169058099Y-93319955D01*
X169017249Y-93292660D01*
X168914712Y-93224145D01*
X168914700Y-93224139D01*
X168755374Y-93158145D01*
X168586231Y-93124500D01*
X168586229Y-93124500D01*
X168413771Y-93124500D01*
X168413768Y-93124500D01*
X168244626Y-93158145D01*
X168244624Y-93158145D01*
X168085299Y-93224139D01*
X168085287Y-93224145D01*
X167941901Y-93319955D01*
X167941897Y-93319958D01*
X167819958Y-93441897D01*
X167819955Y-93441901D01*
X167724145Y-93585287D01*
X167724139Y-93585299D01*
X167658145Y-93744624D01*
X167658145Y-93744626D01*
X167624500Y-93913768D01*
X147188356Y-93913768D01*
X146908898Y-93634320D01*
X146881119Y-93579804D01*
X146879900Y-93564315D01*
X146879900Y-91913768D01*
X167624500Y-91913768D01*
X167624500Y-92086231D01*
X167658145Y-92255373D01*
X167658145Y-92255375D01*
X167724139Y-92414700D01*
X167724145Y-92414712D01*
X167792660Y-92517249D01*
X167819955Y-92558099D01*
X167941901Y-92680045D01*
X168003034Y-92720893D01*
X168085287Y-92775854D01*
X168085299Y-92775860D01*
X168144153Y-92800238D01*
X168244626Y-92841855D01*
X168413771Y-92875500D01*
X168413772Y-92875500D01*
X168586228Y-92875500D01*
X168586229Y-92875500D01*
X168755374Y-92841855D01*
X168914705Y-92775858D01*
X168914707Y-92775856D01*
X168914712Y-92775854D01*
X168956115Y-92748188D01*
X169058099Y-92680045D01*
X169180045Y-92558099D01*
X169248188Y-92456115D01*
X169275854Y-92414712D01*
X169275860Y-92414700D01*
X169320347Y-92307299D01*
X169341855Y-92255374D01*
X169375500Y-92086229D01*
X169375500Y-91913771D01*
X169341855Y-91744626D01*
X169275858Y-91585295D01*
X169275854Y-91585287D01*
X169220893Y-91503034D01*
X169180045Y-91441901D01*
X169058099Y-91319955D01*
X169036096Y-91305253D01*
X169624500Y-91305253D01*
X169624500Y-92694746D01*
X169624501Y-92694758D01*
X169636132Y-92753227D01*
X169636133Y-92753231D01*
X169680448Y-92819552D01*
X169680451Y-92819554D01*
X169733853Y-92855237D01*
X169746769Y-92863867D01*
X169791231Y-92872711D01*
X169805241Y-92875498D01*
X169805246Y-92875498D01*
X169805252Y-92875500D01*
X169805253Y-92875500D01*
X171194747Y-92875500D01*
X171194748Y-92875500D01*
X171253231Y-92863867D01*
X171319552Y-92819552D01*
X171363867Y-92753231D01*
X171375500Y-92694748D01*
X171375500Y-91305252D01*
X171363867Y-91246769D01*
X171319552Y-91180448D01*
X171286174Y-91158145D01*
X171253233Y-91136134D01*
X171253231Y-91136133D01*
X171253228Y-91136132D01*
X171253227Y-91136132D01*
X171194758Y-91124501D01*
X171194748Y-91124500D01*
X169805252Y-91124500D01*
X169805251Y-91124500D01*
X169805241Y-91124501D01*
X169746772Y-91136132D01*
X169746766Y-91136134D01*
X169680451Y-91180445D01*
X169680445Y-91180451D01*
X169636134Y-91246766D01*
X169636132Y-91246772D01*
X169624501Y-91305241D01*
X169624500Y-91305253D01*
X169036096Y-91305253D01*
X169017249Y-91292660D01*
X168914712Y-91224145D01*
X168914700Y-91224139D01*
X168755374Y-91158145D01*
X168586231Y-91124500D01*
X168586229Y-91124500D01*
X168413771Y-91124500D01*
X168413768Y-91124500D01*
X168244626Y-91158145D01*
X168244624Y-91158145D01*
X168085299Y-91224139D01*
X168085287Y-91224145D01*
X167941901Y-91319955D01*
X167941897Y-91319958D01*
X167819958Y-91441897D01*
X167819955Y-91441901D01*
X167724145Y-91585287D01*
X167724139Y-91585299D01*
X167658145Y-91744624D01*
X167658145Y-91744626D01*
X167624500Y-91913768D01*
X146879900Y-91913768D01*
X146879900Y-90497609D01*
X146898807Y-90439418D01*
X146908890Y-90427611D01*
X146939889Y-90396613D01*
X146999199Y-90293886D01*
X147029900Y-90179309D01*
X147029900Y-90060691D01*
X146999199Y-89946114D01*
X146999197Y-89946111D01*
X146999197Y-89946109D01*
X146939892Y-89843391D01*
X146939890Y-89843389D01*
X146939889Y-89843387D01*
X146856013Y-89759511D01*
X146856010Y-89759509D01*
X146856008Y-89759507D01*
X146753289Y-89700202D01*
X146753290Y-89700202D01*
X146739751Y-89696574D01*
X146638709Y-89669500D01*
X146520091Y-89669500D01*
X146449967Y-89688289D01*
X146405509Y-89700202D01*
X146302791Y-89759507D01*
X146218907Y-89843391D01*
X146159602Y-89946109D01*
X146159601Y-89946114D01*
X146128900Y-90060691D01*
X146128900Y-90179309D01*
X146155974Y-90280351D01*
X146159602Y-90293890D01*
X146218907Y-90396608D01*
X146218909Y-90396610D01*
X146218911Y-90396613D01*
X146249905Y-90427607D01*
X146277681Y-90482122D01*
X146278900Y-90497609D01*
X146278900Y-93684166D01*
X146278899Y-93684184D01*
X146278900Y-93729806D01*
X146278900Y-93769364D01*
X146299378Y-93845788D01*
X146299380Y-93845792D01*
X146338940Y-93914312D01*
X146338942Y-93914314D01*
X146338943Y-93914315D01*
X146366084Y-93941455D01*
X146394889Y-93970260D01*
X146394890Y-93970260D01*
X146400532Y-93975902D01*
X146400535Y-93975905D01*
X146982750Y-94558098D01*
X148796918Y-96372199D01*
X148824697Y-96426714D01*
X148815126Y-96487146D01*
X148796920Y-96512207D01*
X144179089Y-101130040D01*
X144179088Y-101130039D01*
X144123139Y-101185989D01*
X144083580Y-101254507D01*
X144083578Y-101254511D01*
X144063100Y-101330935D01*
X144063100Y-103083164D01*
X144083577Y-103159585D01*
X144083581Y-103159593D01*
X144100846Y-103189499D01*
X144100847Y-103189499D01*
X144109143Y-103203867D01*
X144123140Y-103228111D01*
X144380505Y-103485476D01*
X144408281Y-103539991D01*
X144409500Y-103555478D01*
X144409500Y-103655892D01*
X144421688Y-103701377D01*
X144418485Y-103762479D01*
X144379980Y-103810029D01*
X144326061Y-103826000D01*
X144182487Y-103826000D01*
X144166713Y-103832534D01*
X144085458Y-103866190D01*
X143190856Y-104760792D01*
X143190855Y-104760791D01*
X143116591Y-104835056D01*
X143076400Y-104932087D01*
X143076400Y-105966439D01*
X143057493Y-106024630D01*
X143047404Y-106036443D01*
X142428804Y-106655043D01*
X142374287Y-106682820D01*
X142313855Y-106673249D01*
X142270590Y-106629984D01*
X142259800Y-106585039D01*
X142259800Y-98879609D01*
X142278707Y-98821418D01*
X142288790Y-98809611D01*
X142356289Y-98742113D01*
X142387428Y-98688179D01*
X142415597Y-98639390D01*
X142415597Y-98639388D01*
X142415599Y-98639386D01*
X142446300Y-98524809D01*
X142446300Y-98406191D01*
X142415599Y-98291614D01*
X142415597Y-98291611D01*
X142415597Y-98291609D01*
X142356292Y-98188891D01*
X142356290Y-98188889D01*
X142356289Y-98188887D01*
X142272413Y-98105011D01*
X142272410Y-98105009D01*
X142272408Y-98105007D01*
X142169689Y-98045702D01*
X142169690Y-98045702D01*
X142156151Y-98042074D01*
X142055109Y-98015000D01*
X141936491Y-98015000D01*
X141866367Y-98033789D01*
X141821909Y-98045702D01*
X141719191Y-98105007D01*
X141635307Y-98188891D01*
X141576002Y-98291609D01*
X141576001Y-98291614D01*
X141545300Y-98406191D01*
X141545300Y-98524809D01*
X141572374Y-98625851D01*
X141576002Y-98639390D01*
X141635307Y-98742108D01*
X141635309Y-98742110D01*
X141635311Y-98742113D01*
X141702805Y-98809607D01*
X141730581Y-98864122D01*
X141731800Y-98879609D01*
X141731800Y-106674239D01*
X141712893Y-106732430D01*
X141702804Y-106744243D01*
X141038943Y-107408104D01*
X140984426Y-107435881D01*
X140968939Y-107437100D01*
X140873491Y-107437100D01*
X140812092Y-107453552D01*
X140758909Y-107467802D01*
X140656191Y-107527107D01*
X140572307Y-107610991D01*
X140513002Y-107713709D01*
X140496845Y-107774010D01*
X140482300Y-107828291D01*
X140482300Y-107946909D01*
X140500928Y-108016429D01*
X140513002Y-108061490D01*
X140572307Y-108164208D01*
X140572309Y-108164210D01*
X140572311Y-108164213D01*
X140656187Y-108248089D01*
X140656189Y-108248090D01*
X140656191Y-108248092D01*
X140658297Y-108249308D01*
X140659462Y-108250602D01*
X140661336Y-108252040D01*
X140661069Y-108252387D01*
X140699237Y-108294778D01*
X140705631Y-108355628D01*
X140678799Y-108405047D01*
X140120943Y-108962904D01*
X140066426Y-108990681D01*
X140050939Y-108991900D01*
X139955491Y-108991900D01*
X139885367Y-109010689D01*
X139840909Y-109022602D01*
X139738191Y-109081907D01*
X139654307Y-109165791D01*
X139595002Y-109268509D01*
X139580987Y-109320813D01*
X139564300Y-109383091D01*
X139564300Y-109501709D01*
X139589008Y-109593921D01*
X139595002Y-109616290D01*
X139654307Y-109719008D01*
X139654309Y-109719010D01*
X139654311Y-109719013D01*
X139738187Y-109802889D01*
X139738189Y-109802890D01*
X139738191Y-109802892D01*
X139840910Y-109862197D01*
X139840911Y-109862197D01*
X139840914Y-109862199D01*
X139955491Y-109892900D01*
X139955493Y-109892900D01*
X140074107Y-109892900D01*
X140074109Y-109892900D01*
X140188686Y-109862199D01*
X140188688Y-109862197D01*
X140188690Y-109862197D01*
X140291408Y-109802892D01*
X140291408Y-109802891D01*
X140291413Y-109802889D01*
X140375289Y-109719013D01*
X140403130Y-109670792D01*
X140434597Y-109616290D01*
X140434597Y-109616288D01*
X140434599Y-109616286D01*
X140465300Y-109501709D01*
X140465300Y-109406259D01*
X140484207Y-109348068D01*
X140494296Y-109336255D01*
X141883644Y-107946907D01*
X143176997Y-106653554D01*
X143231513Y-106625778D01*
X143291945Y-106635349D01*
X143335210Y-106678614D01*
X143346000Y-106723559D01*
X143346000Y-107349640D01*
X143327093Y-107407831D01*
X143317004Y-107419644D01*
X139029644Y-111707004D01*
X138975127Y-111734781D01*
X138959640Y-111736000D01*
X129404432Y-111736000D01*
X129346241Y-111717093D01*
X129312968Y-111674886D01*
X129280400Y-111596260D01*
X129275858Y-111585295D01*
X129275856Y-111585293D01*
X129275854Y-111585287D01*
X129220893Y-111503034D01*
X129180045Y-111441901D01*
X129058099Y-111319955D01*
X129001493Y-111282132D01*
X128914712Y-111224145D01*
X128914700Y-111224139D01*
X128755374Y-111158145D01*
X128586231Y-111124500D01*
X128586229Y-111124500D01*
X128413771Y-111124500D01*
X128413768Y-111124500D01*
X128244626Y-111158145D01*
X128244624Y-111158145D01*
X128085299Y-111224139D01*
X128085287Y-111224145D01*
X127941901Y-111319955D01*
X127941897Y-111319958D01*
X127888604Y-111373252D01*
X127834087Y-111401029D01*
X127773655Y-111391458D01*
X127730390Y-111348193D01*
X127719600Y-111303248D01*
X127719600Y-110696752D01*
X127738507Y-110638561D01*
X127788007Y-110602597D01*
X127849193Y-110602597D01*
X127888604Y-110626748D01*
X127941901Y-110680045D01*
X128001315Y-110719744D01*
X128085287Y-110775854D01*
X128085299Y-110775860D01*
X128144153Y-110800238D01*
X128244626Y-110841855D01*
X128413771Y-110875500D01*
X128413772Y-110875500D01*
X128586228Y-110875500D01*
X128586229Y-110875500D01*
X128755374Y-110841855D01*
X128914705Y-110775858D01*
X128914707Y-110775856D01*
X128914712Y-110775854D01*
X128957015Y-110747587D01*
X129058099Y-110680045D01*
X129180045Y-110558099D01*
X129248188Y-110456115D01*
X129275854Y-110414712D01*
X129275860Y-110414700D01*
X129304401Y-110345795D01*
X129341855Y-110255374D01*
X129375500Y-110086229D01*
X129375500Y-109913771D01*
X129341855Y-109744626D01*
X129288083Y-109614809D01*
X129275860Y-109585299D01*
X129275854Y-109585287D01*
X129220893Y-109503034D01*
X129180045Y-109441901D01*
X129058099Y-109319955D01*
X128999486Y-109280791D01*
X128914712Y-109224145D01*
X128914700Y-109224139D01*
X128755374Y-109158145D01*
X128586231Y-109124500D01*
X128586229Y-109124500D01*
X128413771Y-109124500D01*
X128413768Y-109124500D01*
X128244626Y-109158145D01*
X128244624Y-109158145D01*
X128085299Y-109224139D01*
X128085282Y-109224148D01*
X128046354Y-109250160D01*
X127987466Y-109266769D01*
X127930063Y-109245591D01*
X127896070Y-109194718D01*
X127895727Y-109142221D01*
X127901669Y-109120045D01*
X127906100Y-109103509D01*
X127906100Y-108984891D01*
X127875399Y-108870314D01*
X127867080Y-108855906D01*
X127854358Y-108796060D01*
X127879243Y-108740163D01*
X127932230Y-108709569D01*
X127993080Y-108715963D01*
X128007818Y-108724090D01*
X128085287Y-108775854D01*
X128085299Y-108775860D01*
X128106081Y-108784468D01*
X128244626Y-108841855D01*
X128413771Y-108875500D01*
X128413772Y-108875500D01*
X128586228Y-108875500D01*
X128586229Y-108875500D01*
X128755374Y-108841855D01*
X128914705Y-108775858D01*
X128914707Y-108775856D01*
X128914712Y-108775854D01*
X128968126Y-108740163D01*
X129058099Y-108680045D01*
X129180045Y-108558099D01*
X129257756Y-108441797D01*
X129275854Y-108414712D01*
X129275860Y-108414700D01*
X129301061Y-108353860D01*
X129341855Y-108255374D01*
X129375500Y-108086229D01*
X129375500Y-107913771D01*
X129341855Y-107744626D01*
X129275858Y-107585295D01*
X129275854Y-107585287D01*
X129220893Y-107503034D01*
X129180045Y-107441901D01*
X129058099Y-107319955D01*
X129002322Y-107282686D01*
X128914712Y-107224145D01*
X128914700Y-107224139D01*
X128755374Y-107158145D01*
X128586231Y-107124500D01*
X128586229Y-107124500D01*
X128413771Y-107124500D01*
X128413768Y-107124500D01*
X128244626Y-107158145D01*
X128244624Y-107158145D01*
X128085299Y-107224139D01*
X128085287Y-107224145D01*
X127941901Y-107319955D01*
X127941897Y-107319958D01*
X127819958Y-107441897D01*
X127819955Y-107441901D01*
X127724145Y-107585287D01*
X127724139Y-107585299D01*
X127658145Y-107744624D01*
X127658145Y-107744626D01*
X127624500Y-107913768D01*
X127624500Y-108086231D01*
X127639884Y-108163572D01*
X127656938Y-108249308D01*
X127658145Y-108255373D01*
X127658145Y-108255375D01*
X127724139Y-108414700D01*
X127724145Y-108414711D01*
X127775818Y-108492043D01*
X127792427Y-108550931D01*
X127771250Y-108608334D01*
X127720377Y-108642328D01*
X127659238Y-108639926D01*
X127644005Y-108632782D01*
X127629491Y-108624403D01*
X127629490Y-108624402D01*
X127615951Y-108620774D01*
X127514909Y-108593700D01*
X127396291Y-108593700D01*
X127396288Y-108593700D01*
X127357982Y-108603964D01*
X127296881Y-108600761D01*
X127249332Y-108562255D01*
X127233497Y-108503154D01*
X127250047Y-108453334D01*
X127275853Y-108414714D01*
X127275856Y-108414707D01*
X127275858Y-108414705D01*
X127341855Y-108255374D01*
X127375500Y-108086229D01*
X127375500Y-107913771D01*
X127341855Y-107744626D01*
X127275858Y-107585295D01*
X127275854Y-107585287D01*
X127220893Y-107503034D01*
X127180045Y-107441901D01*
X127058099Y-107319955D01*
X127002322Y-107282686D01*
X126914712Y-107224145D01*
X126914700Y-107224139D01*
X126755374Y-107158145D01*
X126586231Y-107124500D01*
X126586229Y-107124500D01*
X126413771Y-107124500D01*
X126413768Y-107124500D01*
X126244626Y-107158145D01*
X126244624Y-107158145D01*
X126085299Y-107224139D01*
X126085289Y-107224144D01*
X126049501Y-107248058D01*
X125990613Y-107264666D01*
X125933209Y-107243488D01*
X125899217Y-107192614D01*
X125895500Y-107165742D01*
X125895500Y-106834257D01*
X125914407Y-106776066D01*
X125963907Y-106740102D01*
X126025093Y-106740102D01*
X126049500Y-106751940D01*
X126085295Y-106775858D01*
X126085297Y-106775859D01*
X126085299Y-106775860D01*
X126129463Y-106794153D01*
X126244626Y-106841855D01*
X126413771Y-106875500D01*
X126413772Y-106875500D01*
X126586228Y-106875500D01*
X126586229Y-106875500D01*
X126755374Y-106841855D01*
X126914705Y-106775858D01*
X126914707Y-106775856D01*
X126914712Y-106775854D01*
X126963461Y-106743280D01*
X127058099Y-106680045D01*
X127180045Y-106558099D01*
X127257859Y-106441643D01*
X127275854Y-106414712D01*
X127275860Y-106414700D01*
X127301061Y-106353860D01*
X127341855Y-106255374D01*
X127375500Y-106086229D01*
X127375500Y-105913771D01*
X127341855Y-105744626D01*
X127318867Y-105689129D01*
X127275860Y-105585299D01*
X127275854Y-105585287D01*
X127202693Y-105475796D01*
X127180045Y-105441901D01*
X127058099Y-105319955D01*
X127002322Y-105282686D01*
X126914712Y-105224145D01*
X126914700Y-105224139D01*
X126755374Y-105158145D01*
X126586231Y-105124500D01*
X126586229Y-105124500D01*
X126413771Y-105124500D01*
X126413768Y-105124500D01*
X126244626Y-105158145D01*
X126244624Y-105158145D01*
X126085299Y-105224139D01*
X126085289Y-105224144D01*
X126049501Y-105248058D01*
X125990613Y-105264666D01*
X125933209Y-105243488D01*
X125899217Y-105192614D01*
X125895500Y-105165742D01*
X125895500Y-104834257D01*
X125914407Y-104776066D01*
X125963907Y-104740102D01*
X126025093Y-104740102D01*
X126049500Y-104751940D01*
X126085295Y-104775858D01*
X126085297Y-104775859D01*
X126085299Y-104775860D01*
X126102986Y-104783186D01*
X126244626Y-104841855D01*
X126413771Y-104875500D01*
X126413772Y-104875500D01*
X126586228Y-104875500D01*
X126586229Y-104875500D01*
X126755374Y-104841855D01*
X126914705Y-104775858D01*
X126914707Y-104775856D01*
X126914712Y-104775854D01*
X126963461Y-104743280D01*
X127058099Y-104680045D01*
X127180045Y-104558099D01*
X127257989Y-104441448D01*
X127275854Y-104414712D01*
X127275860Y-104414700D01*
X127275957Y-104414465D01*
X127341855Y-104255374D01*
X127375500Y-104086229D01*
X127375500Y-103913771D01*
X127375499Y-103913768D01*
X127624500Y-103913768D01*
X127624500Y-104086231D01*
X127658145Y-104255373D01*
X127658145Y-104255375D01*
X127724139Y-104414700D01*
X127724145Y-104414712D01*
X127787682Y-104509799D01*
X127819955Y-104558099D01*
X127941901Y-104680045D01*
X128000632Y-104719288D01*
X128085287Y-104775854D01*
X128085299Y-104775860D01*
X128102986Y-104783186D01*
X128244626Y-104841855D01*
X128413771Y-104875500D01*
X128413772Y-104875500D01*
X128586228Y-104875500D01*
X128586229Y-104875500D01*
X128755374Y-104841855D01*
X128914705Y-104775858D01*
X128914707Y-104775856D01*
X128914712Y-104775854D01*
X128963461Y-104743280D01*
X129058099Y-104680045D01*
X129180045Y-104558099D01*
X129257989Y-104441448D01*
X129275854Y-104414712D01*
X129275860Y-104414700D01*
X129275957Y-104414465D01*
X129341855Y-104255374D01*
X129375500Y-104086229D01*
X129375500Y-103913771D01*
X129341855Y-103744626D01*
X129305099Y-103655890D01*
X129275860Y-103585299D01*
X129275854Y-103585287D01*
X129220893Y-103503034D01*
X129180045Y-103441901D01*
X129058099Y-103319955D01*
X129002322Y-103282686D01*
X128914712Y-103224145D01*
X128914700Y-103224139D01*
X128755374Y-103158145D01*
X128586231Y-103124500D01*
X128586229Y-103124500D01*
X128413771Y-103124500D01*
X128413768Y-103124500D01*
X128244626Y-103158145D01*
X128244624Y-103158145D01*
X128085299Y-103224139D01*
X128085287Y-103224145D01*
X127941901Y-103319955D01*
X127941897Y-103319958D01*
X127819958Y-103441897D01*
X127819955Y-103441901D01*
X127724145Y-103585287D01*
X127724139Y-103585299D01*
X127658145Y-103744624D01*
X127658145Y-103744626D01*
X127624500Y-103913768D01*
X127375499Y-103913768D01*
X127341855Y-103744626D01*
X127305099Y-103655890D01*
X127275860Y-103585299D01*
X127275854Y-103585287D01*
X127220893Y-103503034D01*
X127180045Y-103441901D01*
X127058099Y-103319955D01*
X127002322Y-103282686D01*
X126914712Y-103224145D01*
X126914700Y-103224139D01*
X126755374Y-103158145D01*
X126586231Y-103124500D01*
X126586229Y-103124500D01*
X126413771Y-103124500D01*
X126413768Y-103124500D01*
X126244626Y-103158145D01*
X126244624Y-103158145D01*
X126085299Y-103224139D01*
X126085289Y-103224144D01*
X126049501Y-103248058D01*
X125990613Y-103264666D01*
X125933209Y-103243488D01*
X125899217Y-103192614D01*
X125895500Y-103165742D01*
X125895500Y-103018858D01*
X125914407Y-102960667D01*
X125924485Y-102948866D01*
X126047147Y-102826203D01*
X126101662Y-102798428D01*
X126155033Y-102804744D01*
X126244626Y-102841855D01*
X126413771Y-102875500D01*
X126413772Y-102875500D01*
X126586228Y-102875500D01*
X126586229Y-102875500D01*
X126755374Y-102841855D01*
X126914705Y-102775858D01*
X126914707Y-102775856D01*
X126914712Y-102775854D01*
X126956115Y-102748188D01*
X127058099Y-102680045D01*
X127180045Y-102558099D01*
X127250369Y-102452852D01*
X127275854Y-102414712D01*
X127275860Y-102414700D01*
X127301061Y-102353860D01*
X127341855Y-102255374D01*
X127375500Y-102086229D01*
X127375500Y-101913771D01*
X127375499Y-101913768D01*
X127624500Y-101913768D01*
X127624500Y-102086231D01*
X127658145Y-102255373D01*
X127658145Y-102255375D01*
X127724139Y-102414700D01*
X127724145Y-102414712D01*
X127792660Y-102517249D01*
X127819955Y-102558099D01*
X127941901Y-102680045D01*
X128000135Y-102718956D01*
X128085287Y-102775854D01*
X128085299Y-102775860D01*
X128139784Y-102798428D01*
X128244626Y-102841855D01*
X128413771Y-102875500D01*
X128413772Y-102875500D01*
X128586228Y-102875500D01*
X128586229Y-102875500D01*
X128755374Y-102841855D01*
X128914705Y-102775858D01*
X128914707Y-102775856D01*
X128914712Y-102775854D01*
X128956115Y-102748188D01*
X129058099Y-102680045D01*
X129180045Y-102558099D01*
X129250369Y-102452852D01*
X129275854Y-102414712D01*
X129275860Y-102414700D01*
X129301061Y-102353860D01*
X129341855Y-102255374D01*
X129375500Y-102086229D01*
X129375500Y-101913771D01*
X129341855Y-101744626D01*
X129275858Y-101585295D01*
X129275854Y-101585287D01*
X129220893Y-101503034D01*
X129180045Y-101441901D01*
X129058099Y-101319955D01*
X129002322Y-101282686D01*
X128914712Y-101224145D01*
X128914700Y-101224139D01*
X128755374Y-101158145D01*
X128586231Y-101124500D01*
X128586229Y-101124500D01*
X128413771Y-101124500D01*
X128413768Y-101124500D01*
X128244626Y-101158145D01*
X128244624Y-101158145D01*
X128085299Y-101224139D01*
X128085287Y-101224145D01*
X127941901Y-101319955D01*
X127941897Y-101319958D01*
X127819958Y-101441897D01*
X127819955Y-101441901D01*
X127724145Y-101585287D01*
X127724139Y-101585299D01*
X127658145Y-101744624D01*
X127658145Y-101744626D01*
X127624500Y-101913768D01*
X127375499Y-101913768D01*
X127341855Y-101744626D01*
X127275858Y-101585295D01*
X127275854Y-101585287D01*
X127220893Y-101503034D01*
X127180045Y-101441901D01*
X127058099Y-101319955D01*
X127002322Y-101282686D01*
X126914712Y-101224145D01*
X126914700Y-101224139D01*
X126755374Y-101158145D01*
X126586231Y-101124500D01*
X126586229Y-101124500D01*
X126413771Y-101124500D01*
X126413768Y-101124500D01*
X126244626Y-101158145D01*
X126244624Y-101158145D01*
X126085299Y-101224139D01*
X126085287Y-101224145D01*
X125941901Y-101319955D01*
X125941897Y-101319958D01*
X125819958Y-101441897D01*
X125819955Y-101441901D01*
X125724145Y-101585287D01*
X125724139Y-101585299D01*
X125658145Y-101744624D01*
X125658145Y-101744626D01*
X125624500Y-101913768D01*
X125624500Y-102086231D01*
X125658145Y-102255373D01*
X125658145Y-102255375D01*
X125695254Y-102344965D01*
X125700054Y-102405962D01*
X125673795Y-102452852D01*
X125481956Y-102644692D01*
X125481955Y-102644691D01*
X125407691Y-102718956D01*
X125367500Y-102815987D01*
X125367500Y-118748091D01*
X125348593Y-118806282D01*
X125338509Y-118818088D01*
X125281099Y-118875499D01*
X125271008Y-118885590D01*
X125271007Y-118885591D01*
X125211702Y-118988309D01*
X125211701Y-118988314D01*
X125181000Y-119102891D01*
X123300500Y-119102891D01*
X123300500Y-99913768D01*
X125624500Y-99913768D01*
X125624500Y-100086231D01*
X125658145Y-100255373D01*
X125658145Y-100255375D01*
X125724139Y-100414700D01*
X125724145Y-100414712D01*
X125788210Y-100510589D01*
X125819955Y-100558099D01*
X125941901Y-100680045D01*
X126003034Y-100720893D01*
X126085287Y-100775854D01*
X126085299Y-100775860D01*
X126144153Y-100800238D01*
X126244626Y-100841855D01*
X126413771Y-100875500D01*
X126413772Y-100875500D01*
X126586228Y-100875500D01*
X126586229Y-100875500D01*
X126755374Y-100841855D01*
X126914705Y-100775858D01*
X126914707Y-100775856D01*
X126914712Y-100775854D01*
X126956115Y-100748188D01*
X127058099Y-100680045D01*
X127180045Y-100558099D01*
X127249220Y-100454571D01*
X127275854Y-100414712D01*
X127275860Y-100414700D01*
X127299172Y-100358419D01*
X127341855Y-100255374D01*
X127375500Y-100086229D01*
X127375500Y-99913771D01*
X127341855Y-99744626D01*
X127293558Y-99628027D01*
X127275860Y-99585299D01*
X127275854Y-99585287D01*
X127211009Y-99488242D01*
X127180045Y-99441901D01*
X127058099Y-99319955D01*
X127017249Y-99292660D01*
X126914712Y-99224145D01*
X126914700Y-99224139D01*
X126755374Y-99158145D01*
X126586231Y-99124500D01*
X126586229Y-99124500D01*
X126413771Y-99124500D01*
X126413768Y-99124500D01*
X126244626Y-99158145D01*
X126244624Y-99158145D01*
X126085299Y-99224139D01*
X126085287Y-99224145D01*
X125941901Y-99319955D01*
X125941897Y-99319958D01*
X125819958Y-99441897D01*
X125819955Y-99441901D01*
X125724145Y-99585287D01*
X125724139Y-99585299D01*
X125658145Y-99744624D01*
X125658145Y-99744626D01*
X125624500Y-99913768D01*
X123300500Y-99913768D01*
X123300500Y-97913768D01*
X125624500Y-97913768D01*
X125624500Y-98086231D01*
X125658145Y-98255373D01*
X125658145Y-98255375D01*
X125724139Y-98414700D01*
X125724145Y-98414712D01*
X125792660Y-98517249D01*
X125819955Y-98558099D01*
X125941901Y-98680045D01*
X126003034Y-98720893D01*
X126085287Y-98775854D01*
X126085299Y-98775860D01*
X126143444Y-98799944D01*
X126244626Y-98841855D01*
X126413771Y-98875500D01*
X126413772Y-98875500D01*
X126586228Y-98875500D01*
X126586229Y-98875500D01*
X126755374Y-98841855D01*
X126914705Y-98775858D01*
X126914707Y-98775856D01*
X126914712Y-98775854D01*
X126965215Y-98742108D01*
X127058099Y-98680045D01*
X127180045Y-98558099D01*
X127250368Y-98452853D01*
X127275854Y-98414712D01*
X127275860Y-98414700D01*
X127304746Y-98344963D01*
X127341855Y-98255374D01*
X127375500Y-98086229D01*
X127375500Y-97913771D01*
X127341855Y-97744626D01*
X127319856Y-97691515D01*
X127275860Y-97585299D01*
X127275854Y-97585287D01*
X127220893Y-97503034D01*
X127180045Y-97441901D01*
X127058099Y-97319955D01*
X127002653Y-97282907D01*
X126914712Y-97224145D01*
X126914700Y-97224139D01*
X126755374Y-97158145D01*
X126586231Y-97124500D01*
X126586229Y-97124500D01*
X126413771Y-97124500D01*
X126413768Y-97124500D01*
X126244626Y-97158145D01*
X126244624Y-97158145D01*
X126085299Y-97224139D01*
X126085287Y-97224145D01*
X125941901Y-97319955D01*
X125941897Y-97319958D01*
X125819958Y-97441897D01*
X125819955Y-97441901D01*
X125724145Y-97585287D01*
X125724139Y-97585299D01*
X125658145Y-97744624D01*
X125658145Y-97744626D01*
X125624500Y-97913768D01*
X123300500Y-97913768D01*
X123300500Y-95913768D01*
X125624500Y-95913768D01*
X125624500Y-96086231D01*
X125658145Y-96255373D01*
X125658145Y-96255375D01*
X125724139Y-96414700D01*
X125724145Y-96414712D01*
X125789291Y-96512207D01*
X125819955Y-96558099D01*
X125941901Y-96680045D01*
X125997347Y-96717093D01*
X126085287Y-96775854D01*
X126085299Y-96775860D01*
X126139784Y-96798428D01*
X126244626Y-96841855D01*
X126413771Y-96875500D01*
X126413772Y-96875500D01*
X126586228Y-96875500D01*
X126586229Y-96875500D01*
X126755374Y-96841855D01*
X126914705Y-96775858D01*
X126914707Y-96775856D01*
X126914712Y-96775854D01*
X126964328Y-96742701D01*
X127058099Y-96680045D01*
X127180045Y-96558099D01*
X127250369Y-96452852D01*
X127275854Y-96414712D01*
X127275860Y-96414700D01*
X127293465Y-96372198D01*
X127341855Y-96255374D01*
X127375500Y-96086229D01*
X127375500Y-95913771D01*
X127375499Y-95913768D01*
X127624500Y-95913768D01*
X127624500Y-96086231D01*
X127658145Y-96255373D01*
X127658145Y-96255375D01*
X127724139Y-96414700D01*
X127724145Y-96414712D01*
X127789291Y-96512207D01*
X127819955Y-96558099D01*
X127941901Y-96680045D01*
X127997347Y-96717093D01*
X128085287Y-96775854D01*
X128085299Y-96775860D01*
X128139784Y-96798428D01*
X128244626Y-96841855D01*
X128413771Y-96875500D01*
X128413772Y-96875500D01*
X128586228Y-96875500D01*
X128586229Y-96875500D01*
X128755374Y-96841855D01*
X128844966Y-96804744D01*
X128905960Y-96799944D01*
X128952853Y-96826205D01*
X137031904Y-104905256D01*
X137059681Y-104959773D01*
X137060900Y-104975260D01*
X137060900Y-105952857D01*
X137041993Y-106011048D01*
X136992493Y-106047012D01*
X136931307Y-106047012D01*
X136881807Y-106011048D01*
X136879587Y-106007863D01*
X136876307Y-106002955D01*
X136802044Y-105928691D01*
X136802044Y-105928692D01*
X129326205Y-98452853D01*
X129298428Y-98398336D01*
X129304744Y-98344966D01*
X129341855Y-98255374D01*
X129375500Y-98086229D01*
X129375500Y-97913771D01*
X129341855Y-97744626D01*
X129319856Y-97691515D01*
X129275860Y-97585299D01*
X129275854Y-97585287D01*
X129220893Y-97503034D01*
X129180045Y-97441901D01*
X129058099Y-97319955D01*
X129002653Y-97282907D01*
X128914712Y-97224145D01*
X128914700Y-97224139D01*
X128755374Y-97158145D01*
X128586231Y-97124500D01*
X128586229Y-97124500D01*
X128413771Y-97124500D01*
X128413768Y-97124500D01*
X128244626Y-97158145D01*
X128244624Y-97158145D01*
X128085299Y-97224139D01*
X128085287Y-97224145D01*
X127941901Y-97319955D01*
X127941897Y-97319958D01*
X127819958Y-97441897D01*
X127819955Y-97441901D01*
X127724145Y-97585287D01*
X127724139Y-97585299D01*
X127658145Y-97744624D01*
X127658145Y-97744626D01*
X127624500Y-97913768D01*
X127624500Y-98086231D01*
X127658145Y-98255373D01*
X127658145Y-98255375D01*
X127724139Y-98414700D01*
X127724145Y-98414712D01*
X127792660Y-98517249D01*
X127819955Y-98558099D01*
X127941901Y-98680045D01*
X128003034Y-98720893D01*
X128085287Y-98775854D01*
X128085299Y-98775860D01*
X128143444Y-98799944D01*
X128244626Y-98841855D01*
X128413771Y-98875500D01*
X128413772Y-98875500D01*
X128586228Y-98875500D01*
X128586229Y-98875500D01*
X128755374Y-98841855D01*
X128844966Y-98804744D01*
X128905960Y-98799944D01*
X128952853Y-98826205D01*
X129695707Y-99569059D01*
X129723484Y-99623576D01*
X129713913Y-99684008D01*
X129677639Y-99722234D01*
X129677736Y-99722360D01*
X129676943Y-99722968D01*
X129675210Y-99724795D01*
X129672594Y-99726305D01*
X129672590Y-99726308D01*
X129588709Y-99810189D01*
X129546327Y-99883596D01*
X129500857Y-99924536D01*
X129440007Y-99930931D01*
X129387019Y-99900338D01*
X129363493Y-99853409D01*
X129341855Y-99744626D01*
X129293558Y-99628027D01*
X129275860Y-99585299D01*
X129275854Y-99585287D01*
X129211009Y-99488242D01*
X129180045Y-99441901D01*
X129058099Y-99319955D01*
X129017249Y-99292660D01*
X128914712Y-99224145D01*
X128914700Y-99224139D01*
X128755374Y-99158145D01*
X128586231Y-99124500D01*
X128586229Y-99124500D01*
X128413771Y-99124500D01*
X128413768Y-99124500D01*
X128244626Y-99158145D01*
X128244624Y-99158145D01*
X128085299Y-99224139D01*
X128085287Y-99224145D01*
X127941901Y-99319955D01*
X127941897Y-99319958D01*
X127819958Y-99441897D01*
X127819955Y-99441901D01*
X127724145Y-99585287D01*
X127724139Y-99585299D01*
X127658145Y-99744624D01*
X127658145Y-99744626D01*
X127624500Y-99913768D01*
X127624500Y-100086231D01*
X127658145Y-100255373D01*
X127658145Y-100255375D01*
X127724139Y-100414700D01*
X127724145Y-100414712D01*
X127788210Y-100510589D01*
X127819955Y-100558099D01*
X127941901Y-100680045D01*
X128003034Y-100720893D01*
X128085287Y-100775854D01*
X128085299Y-100775860D01*
X128144153Y-100800238D01*
X128244626Y-100841855D01*
X128413771Y-100875500D01*
X128413772Y-100875500D01*
X128586228Y-100875500D01*
X128586229Y-100875500D01*
X128755374Y-100841855D01*
X128914705Y-100775858D01*
X128914707Y-100775856D01*
X128914712Y-100775854D01*
X128956115Y-100748188D01*
X129058099Y-100680045D01*
X129180045Y-100558099D01*
X129249220Y-100454571D01*
X129275854Y-100414712D01*
X129275860Y-100414700D01*
X129299172Y-100358419D01*
X129341855Y-100255374D01*
X129341855Y-100255371D01*
X129343262Y-100251976D01*
X129382998Y-100205450D01*
X129442493Y-100191166D01*
X129499021Y-100214580D01*
X129524868Y-100255543D01*
X129526919Y-100254694D01*
X129529402Y-100260689D01*
X129588707Y-100363408D01*
X129588709Y-100363410D01*
X129588711Y-100363413D01*
X129656205Y-100430907D01*
X129683981Y-100485422D01*
X129685200Y-100500909D01*
X129685200Y-104400439D01*
X129666293Y-104458630D01*
X129656204Y-104470443D01*
X128952853Y-105173793D01*
X128898336Y-105201570D01*
X128844965Y-105195254D01*
X128755372Y-105158144D01*
X128586231Y-105124500D01*
X128586229Y-105124500D01*
X128413771Y-105124500D01*
X128413768Y-105124500D01*
X128244626Y-105158145D01*
X128244624Y-105158145D01*
X128085299Y-105224139D01*
X128085287Y-105224145D01*
X127941901Y-105319955D01*
X127941897Y-105319958D01*
X127819958Y-105441897D01*
X127819955Y-105441901D01*
X127724145Y-105585287D01*
X127724139Y-105585299D01*
X127658145Y-105744624D01*
X127658145Y-105744626D01*
X127624500Y-105913768D01*
X127624500Y-106086231D01*
X127633788Y-106132925D01*
X127649459Y-106211709D01*
X127658145Y-106255373D01*
X127658145Y-106255375D01*
X127724139Y-106414700D01*
X127724145Y-106414712D01*
X127780746Y-106499419D01*
X127819955Y-106558099D01*
X127941901Y-106680045D01*
X127994586Y-106715248D01*
X128085287Y-106775854D01*
X128085299Y-106775860D01*
X128129463Y-106794153D01*
X128244626Y-106841855D01*
X128413771Y-106875500D01*
X128413772Y-106875500D01*
X128586228Y-106875500D01*
X128586229Y-106875500D01*
X128755374Y-106841855D01*
X128914705Y-106775858D01*
X128914707Y-106775856D01*
X128914712Y-106775854D01*
X128963461Y-106743280D01*
X129058099Y-106680045D01*
X129180045Y-106558099D01*
X129257859Y-106441643D01*
X129275854Y-106414712D01*
X129275860Y-106414700D01*
X129301061Y-106353860D01*
X129341855Y-106255374D01*
X129375500Y-106086229D01*
X129375500Y-105913771D01*
X129341855Y-105744626D01*
X129304744Y-105655033D01*
X129299944Y-105594038D01*
X129326203Y-105547147D01*
X130173008Y-104700344D01*
X130213200Y-104603313D01*
X130213200Y-104498288D01*
X130213200Y-100500909D01*
X130232107Y-100442718D01*
X130242190Y-100430911D01*
X130309689Y-100363413D01*
X130311197Y-100360800D01*
X130312802Y-100359354D01*
X130313640Y-100358264D01*
X130313842Y-100358419D01*
X130356664Y-100319857D01*
X130417514Y-100313458D01*
X130466940Y-100340292D01*
X136359504Y-106232856D01*
X136387281Y-106287373D01*
X136388500Y-106302860D01*
X136388500Y-110275791D01*
X136369593Y-110333982D01*
X136359509Y-110345788D01*
X136301559Y-110403739D01*
X136292008Y-110413290D01*
X136292007Y-110413291D01*
X136232702Y-110516009D01*
X136221424Y-110558099D01*
X136202000Y-110630591D01*
X136202000Y-110749209D01*
X136216463Y-110803186D01*
X136232702Y-110863790D01*
X136292007Y-110966508D01*
X136292009Y-110966510D01*
X136292011Y-110966513D01*
X136375887Y-111050389D01*
X136375889Y-111050390D01*
X136375891Y-111050392D01*
X136478610Y-111109697D01*
X136478611Y-111109697D01*
X136478614Y-111109699D01*
X136593191Y-111140400D01*
X136593193Y-111140400D01*
X136711807Y-111140400D01*
X136711809Y-111140400D01*
X136826386Y-111109699D01*
X136826388Y-111109697D01*
X136826390Y-111109697D01*
X136929108Y-111050392D01*
X136929108Y-111050391D01*
X136929113Y-111050389D01*
X137012989Y-110966513D01*
X137012992Y-110966508D01*
X137072297Y-110863790D01*
X137072297Y-110863788D01*
X137072299Y-110863786D01*
X137103000Y-110749209D01*
X137103000Y-110630591D01*
X137072299Y-110516014D01*
X137072297Y-110516011D01*
X137072297Y-110516009D01*
X137012992Y-110413291D01*
X137012990Y-110413289D01*
X137012989Y-110413287D01*
X136945494Y-110345792D01*
X136917719Y-110291278D01*
X136916500Y-110275791D01*
X136916500Y-110011375D01*
X136935407Y-109953184D01*
X136984907Y-109917220D01*
X137046093Y-109917220D01*
X137065000Y-109925639D01*
X137151010Y-109975297D01*
X137151011Y-109975297D01*
X137151014Y-109975299D01*
X137265591Y-110006000D01*
X137265593Y-110006000D01*
X137384207Y-110006000D01*
X137384209Y-110006000D01*
X137498786Y-109975299D01*
X137498788Y-109975297D01*
X137498790Y-109975297D01*
X137601508Y-109915992D01*
X137601508Y-109915991D01*
X137601513Y-109915989D01*
X137685389Y-109832113D01*
X137726562Y-109760800D01*
X137744697Y-109729390D01*
X137744697Y-109729388D01*
X137744699Y-109729386D01*
X137775400Y-109614809D01*
X137775400Y-109496191D01*
X137744699Y-109381614D01*
X137744697Y-109381611D01*
X137744697Y-109381609D01*
X137685392Y-109278891D01*
X137685390Y-109278889D01*
X137685389Y-109278887D01*
X137617894Y-109211392D01*
X137590119Y-109156878D01*
X137588900Y-109141391D01*
X137588900Y-105030691D01*
X140544501Y-105030691D01*
X140544501Y-105149309D01*
X140565990Y-105229507D01*
X140575203Y-105263890D01*
X140634508Y-105366608D01*
X140634510Y-105366610D01*
X140634512Y-105366613D01*
X140718388Y-105450489D01*
X140718390Y-105450490D01*
X140718392Y-105450492D01*
X140821111Y-105509797D01*
X140821112Y-105509797D01*
X140821115Y-105509799D01*
X140935692Y-105540500D01*
X140935694Y-105540500D01*
X141054308Y-105540500D01*
X141054310Y-105540500D01*
X141168887Y-105509799D01*
X141168889Y-105509797D01*
X141168891Y-105509797D01*
X141271609Y-105450492D01*
X141271609Y-105450491D01*
X141271614Y-105450489D01*
X141355490Y-105366613D01*
X141368485Y-105344105D01*
X141414798Y-105263890D01*
X141414798Y-105263888D01*
X141414800Y-105263886D01*
X141445501Y-105149309D01*
X141445501Y-105030691D01*
X141414800Y-104916114D01*
X141414798Y-104916111D01*
X141414798Y-104916109D01*
X141355493Y-104813391D01*
X141355491Y-104813389D01*
X141355490Y-104813387D01*
X141271614Y-104729511D01*
X141271611Y-104729509D01*
X141271609Y-104729507D01*
X141168890Y-104670202D01*
X141168891Y-104670202D01*
X141155352Y-104666574D01*
X141054310Y-104639500D01*
X140935692Y-104639500D01*
X140867553Y-104657758D01*
X140821110Y-104670202D01*
X140718392Y-104729507D01*
X140634508Y-104813391D01*
X140575203Y-104916109D01*
X140560751Y-104970044D01*
X140544501Y-105030691D01*
X137588900Y-105030691D01*
X137588900Y-104772387D01*
X137548708Y-104675356D01*
X137474444Y-104601091D01*
X137474444Y-104601092D01*
X135904043Y-103030691D01*
X140544501Y-103030691D01*
X140544501Y-103149309D01*
X140565616Y-103228109D01*
X140575203Y-103263890D01*
X140634508Y-103366608D01*
X140634510Y-103366610D01*
X140634512Y-103366613D01*
X140718388Y-103450489D01*
X140718390Y-103450490D01*
X140718392Y-103450492D01*
X140821111Y-103509797D01*
X140821112Y-103509797D01*
X140821115Y-103509799D01*
X140935692Y-103540500D01*
X140935694Y-103540500D01*
X141054308Y-103540500D01*
X141054310Y-103540500D01*
X141168887Y-103509799D01*
X141168889Y-103509797D01*
X141168891Y-103509797D01*
X141271609Y-103450492D01*
X141271609Y-103450491D01*
X141271614Y-103450489D01*
X141355490Y-103366613D01*
X141390182Y-103306525D01*
X141414798Y-103263890D01*
X141414798Y-103263888D01*
X141414800Y-103263886D01*
X141445501Y-103149309D01*
X141445501Y-103030691D01*
X141414800Y-102916114D01*
X141414798Y-102916111D01*
X141414798Y-102916109D01*
X141355493Y-102813391D01*
X141355491Y-102813389D01*
X141355490Y-102813387D01*
X141271614Y-102729511D01*
X141271611Y-102729509D01*
X141271609Y-102729507D01*
X141168890Y-102670202D01*
X141168891Y-102670202D01*
X141115485Y-102655892D01*
X141054310Y-102639500D01*
X140935692Y-102639500D01*
X140874524Y-102655890D01*
X140821110Y-102670202D01*
X140718392Y-102729507D01*
X140634508Y-102813391D01*
X140575203Y-102916109D01*
X140575202Y-102916114D01*
X140544501Y-103030691D01*
X135904043Y-103030691D01*
X129774931Y-96901579D01*
X139249500Y-96901579D01*
X139249500Y-97098420D01*
X139280289Y-97292821D01*
X139308124Y-97378487D01*
X139341116Y-97480025D01*
X139430476Y-97655405D01*
X139546172Y-97814646D01*
X139685354Y-97953828D01*
X139844595Y-98069524D01*
X140019975Y-98158884D01*
X140207174Y-98219709D01*
X140207175Y-98219709D01*
X140207178Y-98219710D01*
X140401580Y-98250500D01*
X140401583Y-98250500D01*
X140598420Y-98250500D01*
X140792821Y-98219710D01*
X140792822Y-98219709D01*
X140792826Y-98219709D01*
X140980025Y-98158884D01*
X141155405Y-98069524D01*
X141314646Y-97953828D01*
X141453828Y-97814646D01*
X141569524Y-97655405D01*
X141658884Y-97480025D01*
X141719709Y-97292826D01*
X141722566Y-97274790D01*
X141750500Y-97098420D01*
X141750500Y-96901579D01*
X141719710Y-96707178D01*
X141719653Y-96707003D01*
X141658884Y-96519975D01*
X141569524Y-96344595D01*
X141453828Y-96185354D01*
X141314646Y-96046172D01*
X141155405Y-95930476D01*
X141155404Y-95930475D01*
X141155402Y-95930474D01*
X140980025Y-95841116D01*
X140792821Y-95780289D01*
X140598420Y-95749500D01*
X140598417Y-95749500D01*
X140401583Y-95749500D01*
X140401580Y-95749500D01*
X140207178Y-95780289D01*
X140019974Y-95841116D01*
X139844597Y-95930474D01*
X139685355Y-96046171D01*
X139546171Y-96185355D01*
X139430474Y-96344597D01*
X139341116Y-96519974D01*
X139280289Y-96707178D01*
X139249500Y-96901579D01*
X129774931Y-96901579D01*
X129326205Y-96452853D01*
X129298428Y-96398336D01*
X129304744Y-96344966D01*
X129341855Y-96255374D01*
X129375500Y-96086229D01*
X129375500Y-95913771D01*
X129341855Y-95744626D01*
X129275858Y-95585295D01*
X129275854Y-95585287D01*
X129220893Y-95503034D01*
X129180045Y-95441901D01*
X129058099Y-95319955D01*
X129017249Y-95292660D01*
X128914712Y-95224145D01*
X128914700Y-95224139D01*
X128755374Y-95158145D01*
X128586231Y-95124500D01*
X128586229Y-95124500D01*
X128413771Y-95124500D01*
X128413768Y-95124500D01*
X128244626Y-95158145D01*
X128244624Y-95158145D01*
X128085299Y-95224139D01*
X128085287Y-95224145D01*
X127941901Y-95319955D01*
X127941897Y-95319958D01*
X127819958Y-95441897D01*
X127819955Y-95441901D01*
X127724145Y-95585287D01*
X127724139Y-95585299D01*
X127658145Y-95744624D01*
X127658145Y-95744626D01*
X127624500Y-95913768D01*
X127375499Y-95913768D01*
X127341855Y-95744626D01*
X127275858Y-95585295D01*
X127275854Y-95585287D01*
X127220893Y-95503034D01*
X127180045Y-95441901D01*
X127058099Y-95319955D01*
X127017249Y-95292660D01*
X126914712Y-95224145D01*
X126914700Y-95224139D01*
X126755374Y-95158145D01*
X126586231Y-95124500D01*
X126586229Y-95124500D01*
X126413771Y-95124500D01*
X126413768Y-95124500D01*
X126244626Y-95158145D01*
X126244624Y-95158145D01*
X126085299Y-95224139D01*
X126085287Y-95224145D01*
X125941901Y-95319955D01*
X125941897Y-95319958D01*
X125819958Y-95441897D01*
X125819955Y-95441901D01*
X125724145Y-95585287D01*
X125724139Y-95585299D01*
X125658145Y-95744624D01*
X125658145Y-95744626D01*
X125624500Y-95913768D01*
X123300500Y-95913768D01*
X123300500Y-93913768D01*
X125624500Y-93913768D01*
X125624500Y-94086231D01*
X125658145Y-94255373D01*
X125658145Y-94255375D01*
X125724139Y-94414700D01*
X125724145Y-94414712D01*
X125792660Y-94517249D01*
X125819955Y-94558099D01*
X125941901Y-94680045D01*
X126003034Y-94720893D01*
X126085287Y-94775854D01*
X126085299Y-94775860D01*
X126144153Y-94800238D01*
X126244626Y-94841855D01*
X126413771Y-94875500D01*
X126413772Y-94875500D01*
X126586228Y-94875500D01*
X126586229Y-94875500D01*
X126755374Y-94841855D01*
X126914705Y-94775858D01*
X126914707Y-94775856D01*
X126914712Y-94775854D01*
X126956115Y-94748188D01*
X127058099Y-94680045D01*
X127180045Y-94558099D01*
X127248188Y-94456115D01*
X127275854Y-94414712D01*
X127275860Y-94414700D01*
X127341855Y-94255374D01*
X127375500Y-94086229D01*
X127375500Y-93913771D01*
X127375499Y-93913768D01*
X127624500Y-93913768D01*
X127624500Y-94086231D01*
X127658145Y-94255373D01*
X127658145Y-94255375D01*
X127724139Y-94414700D01*
X127724145Y-94414712D01*
X127792660Y-94517249D01*
X127819955Y-94558099D01*
X127941901Y-94680045D01*
X128003034Y-94720893D01*
X128085287Y-94775854D01*
X128085299Y-94775860D01*
X128144153Y-94800238D01*
X128244626Y-94841855D01*
X128413771Y-94875500D01*
X128413772Y-94875500D01*
X128586228Y-94875500D01*
X128586229Y-94875500D01*
X128755374Y-94841855D01*
X128914705Y-94775858D01*
X128914707Y-94775856D01*
X128914712Y-94775854D01*
X128956115Y-94748188D01*
X129058099Y-94680045D01*
X129180045Y-94558099D01*
X129248188Y-94456115D01*
X129275854Y-94414712D01*
X129275860Y-94414700D01*
X129341855Y-94255374D01*
X129375500Y-94086229D01*
X129375500Y-93913771D01*
X129341855Y-93744626D01*
X129296165Y-93634320D01*
X129275860Y-93585299D01*
X129275854Y-93585287D01*
X129220893Y-93503034D01*
X129180045Y-93441901D01*
X129058099Y-93319955D01*
X129017249Y-93292660D01*
X128914712Y-93224145D01*
X128914700Y-93224139D01*
X128755374Y-93158145D01*
X128586231Y-93124500D01*
X128586229Y-93124500D01*
X128413771Y-93124500D01*
X128413768Y-93124500D01*
X128244626Y-93158145D01*
X128244624Y-93158145D01*
X128085299Y-93224139D01*
X128085287Y-93224145D01*
X127941901Y-93319955D01*
X127941897Y-93319958D01*
X127819958Y-93441897D01*
X127819955Y-93441901D01*
X127724145Y-93585287D01*
X127724139Y-93585299D01*
X127658145Y-93744624D01*
X127658145Y-93744626D01*
X127624500Y-93913768D01*
X127375499Y-93913768D01*
X127341855Y-93744626D01*
X127296165Y-93634320D01*
X127275860Y-93585299D01*
X127275854Y-93585287D01*
X127220893Y-93503034D01*
X127180045Y-93441901D01*
X127058099Y-93319955D01*
X127017249Y-93292660D01*
X126914712Y-93224145D01*
X126914700Y-93224139D01*
X126755374Y-93158145D01*
X126586231Y-93124500D01*
X126586229Y-93124500D01*
X126413771Y-93124500D01*
X126413768Y-93124500D01*
X126244626Y-93158145D01*
X126244624Y-93158145D01*
X126085299Y-93224139D01*
X126085287Y-93224145D01*
X125941901Y-93319955D01*
X125941897Y-93319958D01*
X125819958Y-93441897D01*
X125819955Y-93441901D01*
X125724145Y-93585287D01*
X125724139Y-93585299D01*
X125658145Y-93744624D01*
X125658145Y-93744626D01*
X125624500Y-93913768D01*
X123300500Y-93913768D01*
X123300500Y-91913768D01*
X125624500Y-91913768D01*
X125624500Y-92086231D01*
X125658145Y-92255373D01*
X125658145Y-92255375D01*
X125724139Y-92414700D01*
X125724145Y-92414712D01*
X125792660Y-92517249D01*
X125819955Y-92558099D01*
X125941901Y-92680045D01*
X126003034Y-92720893D01*
X126085287Y-92775854D01*
X126085299Y-92775860D01*
X126144153Y-92800238D01*
X126244626Y-92841855D01*
X126413771Y-92875500D01*
X126413772Y-92875500D01*
X126586228Y-92875500D01*
X126586229Y-92875500D01*
X126755374Y-92841855D01*
X126914705Y-92775858D01*
X126914707Y-92775856D01*
X126914712Y-92775854D01*
X126956115Y-92748188D01*
X127058099Y-92680045D01*
X127180045Y-92558099D01*
X127248188Y-92456115D01*
X127275854Y-92414712D01*
X127275860Y-92414700D01*
X127320347Y-92307299D01*
X127341855Y-92255374D01*
X127375500Y-92086229D01*
X127375500Y-91913771D01*
X127341855Y-91744626D01*
X127275858Y-91585295D01*
X127275854Y-91585287D01*
X127220893Y-91503034D01*
X127180045Y-91441901D01*
X127058099Y-91319955D01*
X127028795Y-91300375D01*
X127575000Y-91300375D01*
X127575000Y-91849999D01*
X127575001Y-91850000D01*
X128126082Y-91850000D01*
X128100000Y-91947339D01*
X128100000Y-92052661D01*
X128126082Y-92150000D01*
X127575001Y-92150000D01*
X127575000Y-92150001D01*
X127575000Y-92699624D01*
X127589506Y-92772546D01*
X127589507Y-92772548D01*
X127644758Y-92855237D01*
X127644762Y-92855241D01*
X127727451Y-92910492D01*
X127727453Y-92910493D01*
X127800375Y-92924999D01*
X127800377Y-92925000D01*
X128349999Y-92925000D01*
X128350000Y-92924999D01*
X128350000Y-92373918D01*
X128447339Y-92400000D01*
X128552661Y-92400000D01*
X128650000Y-92373918D01*
X128650000Y-92924999D01*
X128650001Y-92925000D01*
X129199623Y-92925000D01*
X129199624Y-92924999D01*
X129272546Y-92910493D01*
X129272548Y-92910492D01*
X129355237Y-92855241D01*
X129355241Y-92855237D01*
X129410492Y-92772548D01*
X129410493Y-92772546D01*
X129424999Y-92699624D01*
X129425000Y-92699622D01*
X129425000Y-92150001D01*
X129424999Y-92150000D01*
X128873918Y-92150000D01*
X128900000Y-92052661D01*
X128900000Y-91947339D01*
X128873918Y-91850000D01*
X129424999Y-91850000D01*
X129425000Y-91849999D01*
X129425000Y-91828191D01*
X139849501Y-91828191D01*
X139849501Y-91946809D01*
X139876575Y-92047851D01*
X139880203Y-92061390D01*
X139939508Y-92164108D01*
X139939510Y-92164110D01*
X139939512Y-92164113D01*
X140023388Y-92247989D01*
X140023390Y-92247990D01*
X140023392Y-92247992D01*
X140126111Y-92307297D01*
X140126112Y-92307297D01*
X140126115Y-92307299D01*
X140240692Y-92338000D01*
X140240694Y-92338000D01*
X140359308Y-92338000D01*
X140359310Y-92338000D01*
X140473887Y-92307299D01*
X140473889Y-92307297D01*
X140473891Y-92307297D01*
X140576609Y-92247992D01*
X140576609Y-92247991D01*
X140576614Y-92247989D01*
X140660490Y-92164113D01*
X140703465Y-92089679D01*
X140719798Y-92061390D01*
X140719798Y-92061388D01*
X140719800Y-92061386D01*
X140750501Y-91946809D01*
X140750501Y-91828191D01*
X140719800Y-91713614D01*
X140719798Y-91713611D01*
X140719798Y-91713609D01*
X140660493Y-91610891D01*
X140660491Y-91610889D01*
X140660490Y-91610887D01*
X140576614Y-91527011D01*
X140576611Y-91527009D01*
X140576609Y-91527007D01*
X140473890Y-91467702D01*
X140473891Y-91467702D01*
X140460352Y-91464074D01*
X140359310Y-91437000D01*
X140240692Y-91437000D01*
X140170568Y-91455789D01*
X140126110Y-91467702D01*
X140023392Y-91527007D01*
X139939508Y-91610891D01*
X139880203Y-91713609D01*
X139880202Y-91713614D01*
X139849501Y-91828191D01*
X129425000Y-91828191D01*
X129425000Y-91300377D01*
X129424999Y-91300375D01*
X129410493Y-91227453D01*
X129410492Y-91227451D01*
X129355241Y-91144762D01*
X129355237Y-91144758D01*
X129272548Y-91089507D01*
X129272546Y-91089506D01*
X129199624Y-91075000D01*
X128650001Y-91075000D01*
X128650000Y-91075001D01*
X128650000Y-91626081D01*
X128552661Y-91600000D01*
X128447339Y-91600000D01*
X128350000Y-91626081D01*
X128350000Y-91075001D01*
X128349999Y-91075000D01*
X127800375Y-91075000D01*
X127727453Y-91089506D01*
X127727451Y-91089507D01*
X127644762Y-91144758D01*
X127644758Y-91144762D01*
X127589507Y-91227451D01*
X127589506Y-91227453D01*
X127575000Y-91300375D01*
X127028795Y-91300375D01*
X127017249Y-91292660D01*
X126914712Y-91224145D01*
X126914700Y-91224139D01*
X126755374Y-91158145D01*
X126586231Y-91124500D01*
X126586229Y-91124500D01*
X126413771Y-91124500D01*
X126413768Y-91124500D01*
X126244626Y-91158145D01*
X126244624Y-91158145D01*
X126085299Y-91224139D01*
X126085287Y-91224145D01*
X125941901Y-91319955D01*
X125941897Y-91319958D01*
X125819958Y-91441897D01*
X125819955Y-91441901D01*
X125724145Y-91585287D01*
X125724139Y-91585299D01*
X125658145Y-91744624D01*
X125658145Y-91744626D01*
X125624500Y-91913768D01*
X123300500Y-91913768D01*
X123300500Y-88015691D01*
X136049500Y-88015691D01*
X136049500Y-88134309D01*
X136076574Y-88235351D01*
X136080202Y-88248890D01*
X136139507Y-88351608D01*
X136139509Y-88351610D01*
X136139511Y-88351613D01*
X136223387Y-88435489D01*
X136223389Y-88435490D01*
X136223391Y-88435492D01*
X136326110Y-88494797D01*
X136326111Y-88494797D01*
X136326114Y-88494799D01*
X136440691Y-88525500D01*
X136440693Y-88525500D01*
X136559307Y-88525500D01*
X136559309Y-88525500D01*
X136673886Y-88494799D01*
X136673888Y-88494797D01*
X136673890Y-88494797D01*
X136776608Y-88435492D01*
X136776608Y-88435491D01*
X136776613Y-88435489D01*
X136860489Y-88351613D01*
X136919799Y-88248886D01*
X136950500Y-88134309D01*
X136950500Y-88015691D01*
X143649500Y-88015691D01*
X143649500Y-88134309D01*
X143676574Y-88235351D01*
X143680202Y-88248890D01*
X143739507Y-88351608D01*
X143739509Y-88351610D01*
X143739511Y-88351613D01*
X143823387Y-88435489D01*
X143823389Y-88435490D01*
X143823391Y-88435492D01*
X143926110Y-88494797D01*
X143926111Y-88494797D01*
X143926114Y-88494799D01*
X144040691Y-88525500D01*
X144040693Y-88525500D01*
X144159307Y-88525500D01*
X144159309Y-88525500D01*
X144273886Y-88494799D01*
X144273888Y-88494797D01*
X144273890Y-88494797D01*
X144376608Y-88435492D01*
X144376608Y-88435491D01*
X144376613Y-88435489D01*
X144460489Y-88351613D01*
X144519799Y-88248886D01*
X144550500Y-88134309D01*
X144550500Y-88015691D01*
X144519799Y-87901114D01*
X144519797Y-87901111D01*
X144519797Y-87901109D01*
X144460492Y-87798391D01*
X144460490Y-87798389D01*
X144460489Y-87798387D01*
X144376613Y-87714511D01*
X144376610Y-87714509D01*
X144376608Y-87714507D01*
X144273889Y-87655202D01*
X144273890Y-87655202D01*
X144260351Y-87651574D01*
X144159309Y-87624500D01*
X144040691Y-87624500D01*
X143970567Y-87643289D01*
X143926109Y-87655202D01*
X143823391Y-87714507D01*
X143739507Y-87798391D01*
X143680202Y-87901109D01*
X143680201Y-87901114D01*
X143649500Y-88015691D01*
X136950500Y-88015691D01*
X136919799Y-87901114D01*
X136919797Y-87901111D01*
X136919797Y-87901109D01*
X136860492Y-87798391D01*
X136860490Y-87798389D01*
X136860489Y-87798387D01*
X136776613Y-87714511D01*
X136776610Y-87714509D01*
X136776608Y-87714507D01*
X136673889Y-87655202D01*
X136673890Y-87655202D01*
X136660351Y-87651574D01*
X136559309Y-87624500D01*
X136440691Y-87624500D01*
X136370567Y-87643289D01*
X136326109Y-87655202D01*
X136223391Y-87714507D01*
X136139507Y-87798391D01*
X136080202Y-87901109D01*
X136080201Y-87901114D01*
X136049500Y-88015691D01*
X123300500Y-88015691D01*
X123300500Y-87504861D01*
X123300977Y-87495157D01*
X123312985Y-87373237D01*
X123316771Y-87354204D01*
X123350918Y-87241635D01*
X123358335Y-87223726D01*
X123413795Y-87119968D01*
X123424567Y-87103846D01*
X123499195Y-87012913D01*
X123512913Y-86999195D01*
X123603846Y-86924567D01*
X123619968Y-86913795D01*
X123723726Y-86858335D01*
X123741635Y-86850918D01*
X123854205Y-86816770D01*
X123873233Y-86812985D01*
X123995157Y-86800976D01*
X124004861Y-86800500D01*
X124047594Y-86800500D01*
X172952406Y-86800500D01*
X172995139Y-86800500D01*
X173004842Y-86800976D01*
G37*
%TD.AperFunction*%
%TD*%
M02*
